%TF.GenerationSoftware,KiCad,Pcbnew,7.0.11+dfsg-1build4*%
%TF.CreationDate,2026-03-16T12:18:03-05:00*%
%TF.ProjectId,,58585858-5858-4585-9858-585858585858,rev?*%
%TF.SameCoordinates,Original*%
%TF.FileFunction,Copper,L2,Bot*%
%TF.FilePolarity,Positive*%
%FSLAX46Y46*%
G04 Gerber Fmt 4.6, Leading zero omitted, Abs format (unit mm)*
G04 Created by KiCad (PCBNEW 7.0.11+dfsg-1build4) date 2026-03-16 12:18:03*
%MOMM*%
%LPD*%
G01*
G04 APERTURE LIST*
%TA.AperFunction,ComponentPad*%
%ADD10C,1.500000*%
%TD*%
%TA.AperFunction,ComponentPad*%
%ADD11O,1.800000X0.800000*%
%TD*%
G04 APERTURE END LIST*
D10*
%TO.P,J1,1,Pin_1*%
%TO.N,Net-(J1-Pin_1)*%
X147746154Y-123120512D03*
D11*
%TO.P,J1,2,Pin_2*%
%TO.N,GND*%
X147746154Y-124700512D03*
X147746154Y-121540512D03*
%TD*%
D10*
%TO.P,J1,1,Pin_1*%
%TO.N,Net-(J1-Pin_1)*%
X138946154Y-123120512D03*
D11*
%TO.P,J1,2,Pin_2*%
%TO.N,GND*%
X138946154Y-124700512D03*
X138946154Y-121540512D03*
%TD*%
D10*
%TO.P,J1,1,Pin_1*%
%TO.N,Net-(J1-Pin_1)*%
X130146154Y-123120512D03*
D11*
%TO.P,J1,2,Pin_2*%
%TO.N,GND*%
X130146154Y-124700512D03*
X130146154Y-121540512D03*
%TD*%
D10*
%TO.P,J1,1,Pin_1*%
%TO.N,Net-(J1-Pin_1)*%
X121346154Y-123120512D03*
D11*
%TO.P,J1,2,Pin_2*%
%TO.N,GND*%
X121346154Y-124700512D03*
X121346154Y-121540512D03*
%TD*%
D10*
%TO.P,J1,1,Pin_1*%
%TO.N,Net-(J1-Pin_1)*%
X112546154Y-123120512D03*
D11*
%TO.P,J1,2,Pin_2*%
%TO.N,GND*%
X112546154Y-124700512D03*
X112546154Y-121540512D03*
%TD*%
D10*
%TO.P,J1,1,Pin_1*%
%TO.N,Net-(J1-Pin_1)*%
X103746154Y-123120512D03*
D11*
%TO.P,J1,2,Pin_2*%
%TO.N,GND*%
X103746154Y-124700512D03*
X103746154Y-121540512D03*
%TD*%
D10*
%TO.P,J1,1,Pin_1*%
%TO.N,Net-(J1-Pin_1)*%
X94946154Y-123120512D03*
D11*
%TO.P,J1,2,Pin_2*%
%TO.N,GND*%
X94946154Y-124700512D03*
X94946154Y-121540512D03*
%TD*%
D10*
%TO.P,J1,1,Pin_1*%
%TO.N,Net-(J1-Pin_1)*%
X86146154Y-123120512D03*
D11*
%TO.P,J1,2,Pin_2*%
%TO.N,GND*%
X86146154Y-124700512D03*
X86146154Y-121540512D03*
%TD*%
D10*
%TO.P,J1,1,Pin_1*%
%TO.N,Net-(J1-Pin_1)*%
X77346154Y-123120512D03*
D11*
%TO.P,J1,2,Pin_2*%
%TO.N,GND*%
X77346154Y-124700512D03*
X77346154Y-121540512D03*
%TD*%
D10*
%TO.P,J1,1,Pin_1*%
%TO.N,Net-(J1-Pin_1)*%
X147746154Y-114320512D03*
D11*
%TO.P,J1,2,Pin_2*%
%TO.N,GND*%
X147746154Y-115900512D03*
X147746154Y-112740512D03*
%TD*%
D10*
%TO.P,J1,1,Pin_1*%
%TO.N,Net-(J1-Pin_1)*%
X138946154Y-114320512D03*
D11*
%TO.P,J1,2,Pin_2*%
%TO.N,GND*%
X138946154Y-115900512D03*
X138946154Y-112740512D03*
%TD*%
D10*
%TO.P,J1,1,Pin_1*%
%TO.N,Net-(J1-Pin_1)*%
X130146154Y-114320512D03*
D11*
%TO.P,J1,2,Pin_2*%
%TO.N,GND*%
X130146154Y-115900512D03*
X130146154Y-112740512D03*
%TD*%
D10*
%TO.P,J1,1,Pin_1*%
%TO.N,Net-(J1-Pin_1)*%
X121346154Y-114320512D03*
D11*
%TO.P,J1,2,Pin_2*%
%TO.N,GND*%
X121346154Y-115900512D03*
X121346154Y-112740512D03*
%TD*%
D10*
%TO.P,J1,1,Pin_1*%
%TO.N,Net-(J1-Pin_1)*%
X112546154Y-114320512D03*
D11*
%TO.P,J1,2,Pin_2*%
%TO.N,GND*%
X112546154Y-115900512D03*
X112546154Y-112740512D03*
%TD*%
D10*
%TO.P,J1,1,Pin_1*%
%TO.N,Net-(J1-Pin_1)*%
X103746154Y-114320512D03*
D11*
%TO.P,J1,2,Pin_2*%
%TO.N,GND*%
X103746154Y-115900512D03*
X103746154Y-112740512D03*
%TD*%
D10*
%TO.P,J1,1,Pin_1*%
%TO.N,Net-(J1-Pin_1)*%
X94946154Y-114320512D03*
D11*
%TO.P,J1,2,Pin_2*%
%TO.N,GND*%
X94946154Y-115900512D03*
X94946154Y-112740512D03*
%TD*%
D10*
%TO.P,J1,1,Pin_1*%
%TO.N,Net-(J1-Pin_1)*%
X86146154Y-114320512D03*
D11*
%TO.P,J1,2,Pin_2*%
%TO.N,GND*%
X86146154Y-115900512D03*
X86146154Y-112740512D03*
%TD*%
D10*
%TO.P,J1,1,Pin_1*%
%TO.N,Net-(J1-Pin_1)*%
X77346154Y-114320512D03*
D11*
%TO.P,J1,2,Pin_2*%
%TO.N,GND*%
X77346154Y-115900512D03*
X77346154Y-112740512D03*
%TD*%
D10*
%TO.P,J1,1,Pin_1*%
%TO.N,Net-(J1-Pin_1)*%
X147746154Y-105520512D03*
D11*
%TO.P,J1,2,Pin_2*%
%TO.N,GND*%
X147746154Y-107100512D03*
X147746154Y-103940512D03*
%TD*%
D10*
%TO.P,J1,1,Pin_1*%
%TO.N,Net-(J1-Pin_1)*%
X138946154Y-105520512D03*
D11*
%TO.P,J1,2,Pin_2*%
%TO.N,GND*%
X138946154Y-107100512D03*
X138946154Y-103940512D03*
%TD*%
D10*
%TO.P,J1,1,Pin_1*%
%TO.N,Net-(J1-Pin_1)*%
X130146154Y-105520512D03*
D11*
%TO.P,J1,2,Pin_2*%
%TO.N,GND*%
X130146154Y-107100512D03*
X130146154Y-103940512D03*
%TD*%
D10*
%TO.P,J1,1,Pin_1*%
%TO.N,Net-(J1-Pin_1)*%
X121346154Y-105520512D03*
D11*
%TO.P,J1,2,Pin_2*%
%TO.N,GND*%
X121346154Y-107100512D03*
X121346154Y-103940512D03*
%TD*%
D10*
%TO.P,J1,1,Pin_1*%
%TO.N,Net-(J1-Pin_1)*%
X112546154Y-105520512D03*
D11*
%TO.P,J1,2,Pin_2*%
%TO.N,GND*%
X112546154Y-107100512D03*
X112546154Y-103940512D03*
%TD*%
D10*
%TO.P,J1,1,Pin_1*%
%TO.N,Net-(J1-Pin_1)*%
X103746154Y-105520512D03*
D11*
%TO.P,J1,2,Pin_2*%
%TO.N,GND*%
X103746154Y-107100512D03*
X103746154Y-103940512D03*
%TD*%
D10*
%TO.P,J1,1,Pin_1*%
%TO.N,Net-(J1-Pin_1)*%
X94946154Y-105520512D03*
D11*
%TO.P,J1,2,Pin_2*%
%TO.N,GND*%
X94946154Y-107100512D03*
X94946154Y-103940512D03*
%TD*%
D10*
%TO.P,J1,1,Pin_1*%
%TO.N,Net-(J1-Pin_1)*%
X86146154Y-105520512D03*
D11*
%TO.P,J1,2,Pin_2*%
%TO.N,GND*%
X86146154Y-107100512D03*
X86146154Y-103940512D03*
%TD*%
D10*
%TO.P,J1,1,Pin_1*%
%TO.N,Net-(J1-Pin_1)*%
X77346154Y-105520512D03*
D11*
%TO.P,J1,2,Pin_2*%
%TO.N,GND*%
X77346154Y-107100512D03*
X77346154Y-103940512D03*
%TD*%
D10*
%TO.P,J1,1,Pin_1*%
%TO.N,Net-(J1-Pin_1)*%
X147746154Y-96720512D03*
D11*
%TO.P,J1,2,Pin_2*%
%TO.N,GND*%
X147746154Y-98300512D03*
X147746154Y-95140512D03*
%TD*%
D10*
%TO.P,J1,1,Pin_1*%
%TO.N,Net-(J1-Pin_1)*%
X138946154Y-96720512D03*
D11*
%TO.P,J1,2,Pin_2*%
%TO.N,GND*%
X138946154Y-98300512D03*
X138946154Y-95140512D03*
%TD*%
D10*
%TO.P,J1,1,Pin_1*%
%TO.N,Net-(J1-Pin_1)*%
X130146154Y-96720512D03*
D11*
%TO.P,J1,2,Pin_2*%
%TO.N,GND*%
X130146154Y-98300512D03*
X130146154Y-95140512D03*
%TD*%
D10*
%TO.P,J1,1,Pin_1*%
%TO.N,Net-(J1-Pin_1)*%
X121346154Y-96720512D03*
D11*
%TO.P,J1,2,Pin_2*%
%TO.N,GND*%
X121346154Y-98300512D03*
X121346154Y-95140512D03*
%TD*%
D10*
%TO.P,J1,1,Pin_1*%
%TO.N,Net-(J1-Pin_1)*%
X112546154Y-96720512D03*
D11*
%TO.P,J1,2,Pin_2*%
%TO.N,GND*%
X112546154Y-98300512D03*
X112546154Y-95140512D03*
%TD*%
D10*
%TO.P,J1,1,Pin_1*%
%TO.N,Net-(J1-Pin_1)*%
X103746154Y-96720512D03*
D11*
%TO.P,J1,2,Pin_2*%
%TO.N,GND*%
X103746154Y-98300512D03*
X103746154Y-95140512D03*
%TD*%
D10*
%TO.P,J1,1,Pin_1*%
%TO.N,Net-(J1-Pin_1)*%
X94946154Y-96720512D03*
D11*
%TO.P,J1,2,Pin_2*%
%TO.N,GND*%
X94946154Y-98300512D03*
X94946154Y-95140512D03*
%TD*%
D10*
%TO.P,J1,1,Pin_1*%
%TO.N,Net-(J1-Pin_1)*%
X86146154Y-96720512D03*
D11*
%TO.P,J1,2,Pin_2*%
%TO.N,GND*%
X86146154Y-98300512D03*
X86146154Y-95140512D03*
%TD*%
D10*
%TO.P,J1,1,Pin_1*%
%TO.N,Net-(J1-Pin_1)*%
X77346154Y-96720512D03*
D11*
%TO.P,J1,2,Pin_2*%
%TO.N,GND*%
X77346154Y-98300512D03*
X77346154Y-95140512D03*
%TD*%
D10*
%TO.P,J1,1,Pin_1*%
%TO.N,Net-(J1-Pin_1)*%
X147746154Y-87920512D03*
D11*
%TO.P,J1,2,Pin_2*%
%TO.N,GND*%
X147746154Y-89500512D03*
X147746154Y-86340512D03*
%TD*%
D10*
%TO.P,J1,1,Pin_1*%
%TO.N,Net-(J1-Pin_1)*%
X138946154Y-87920512D03*
D11*
%TO.P,J1,2,Pin_2*%
%TO.N,GND*%
X138946154Y-89500512D03*
X138946154Y-86340512D03*
%TD*%
D10*
%TO.P,J1,1,Pin_1*%
%TO.N,Net-(J1-Pin_1)*%
X130146154Y-87920512D03*
D11*
%TO.P,J1,2,Pin_2*%
%TO.N,GND*%
X130146154Y-89500512D03*
X130146154Y-86340512D03*
%TD*%
D10*
%TO.P,J1,1,Pin_1*%
%TO.N,Net-(J1-Pin_1)*%
X121346154Y-87920512D03*
D11*
%TO.P,J1,2,Pin_2*%
%TO.N,GND*%
X121346154Y-89500512D03*
X121346154Y-86340512D03*
%TD*%
D10*
%TO.P,J1,1,Pin_1*%
%TO.N,Net-(J1-Pin_1)*%
X112546154Y-87920512D03*
D11*
%TO.P,J1,2,Pin_2*%
%TO.N,GND*%
X112546154Y-89500512D03*
X112546154Y-86340512D03*
%TD*%
D10*
%TO.P,J1,1,Pin_1*%
%TO.N,Net-(J1-Pin_1)*%
X103746154Y-87920512D03*
D11*
%TO.P,J1,2,Pin_2*%
%TO.N,GND*%
X103746154Y-89500512D03*
X103746154Y-86340512D03*
%TD*%
D10*
%TO.P,J1,1,Pin_1*%
%TO.N,Net-(J1-Pin_1)*%
X94946154Y-87920512D03*
D11*
%TO.P,J1,2,Pin_2*%
%TO.N,GND*%
X94946154Y-89500512D03*
X94946154Y-86340512D03*
%TD*%
D10*
%TO.P,J1,1,Pin_1*%
%TO.N,Net-(J1-Pin_1)*%
X86146154Y-87920512D03*
D11*
%TO.P,J1,2,Pin_2*%
%TO.N,GND*%
X86146154Y-89500512D03*
X86146154Y-86340512D03*
%TD*%
D10*
%TO.P,J1,1,Pin_1*%
%TO.N,Net-(J1-Pin_1)*%
X77346154Y-87920512D03*
D11*
%TO.P,J1,2,Pin_2*%
%TO.N,GND*%
X77346154Y-89500512D03*
X77346154Y-86340512D03*
%TD*%
D10*
%TO.P,J1,1,Pin_1*%
%TO.N,Net-(J1-Pin_1)*%
X147746154Y-79120512D03*
D11*
%TO.P,J1,2,Pin_2*%
%TO.N,GND*%
X147746154Y-80700512D03*
X147746154Y-77540512D03*
%TD*%
D10*
%TO.P,J1,1,Pin_1*%
%TO.N,Net-(J1-Pin_1)*%
X138946154Y-79120512D03*
D11*
%TO.P,J1,2,Pin_2*%
%TO.N,GND*%
X138946154Y-80700512D03*
X138946154Y-77540512D03*
%TD*%
D10*
%TO.P,J1,1,Pin_1*%
%TO.N,Net-(J1-Pin_1)*%
X130146154Y-79120512D03*
D11*
%TO.P,J1,2,Pin_2*%
%TO.N,GND*%
X130146154Y-80700512D03*
X130146154Y-77540512D03*
%TD*%
D10*
%TO.P,J1,1,Pin_1*%
%TO.N,Net-(J1-Pin_1)*%
X121346154Y-79120512D03*
D11*
%TO.P,J1,2,Pin_2*%
%TO.N,GND*%
X121346154Y-80700512D03*
X121346154Y-77540512D03*
%TD*%
D10*
%TO.P,J1,1,Pin_1*%
%TO.N,Net-(J1-Pin_1)*%
X112546154Y-79120512D03*
D11*
%TO.P,J1,2,Pin_2*%
%TO.N,GND*%
X112546154Y-80700512D03*
X112546154Y-77540512D03*
%TD*%
D10*
%TO.P,J1,1,Pin_1*%
%TO.N,Net-(J1-Pin_1)*%
X103746154Y-79120512D03*
D11*
%TO.P,J1,2,Pin_2*%
%TO.N,GND*%
X103746154Y-80700512D03*
X103746154Y-77540512D03*
%TD*%
D10*
%TO.P,J1,1,Pin_1*%
%TO.N,Net-(J1-Pin_1)*%
X94946154Y-79120512D03*
D11*
%TO.P,J1,2,Pin_2*%
%TO.N,GND*%
X94946154Y-80700512D03*
X94946154Y-77540512D03*
%TD*%
D10*
%TO.P,J1,1,Pin_1*%
%TO.N,Net-(J1-Pin_1)*%
X86146154Y-79120512D03*
D11*
%TO.P,J1,2,Pin_2*%
%TO.N,GND*%
X86146154Y-80700512D03*
X86146154Y-77540512D03*
%TD*%
D10*
%TO.P,J1,1,Pin_1*%
%TO.N,Net-(J1-Pin_1)*%
X77346154Y-79120512D03*
D11*
%TO.P,J1,2,Pin_2*%
%TO.N,GND*%
X77346154Y-80700512D03*
X77346154Y-77540512D03*
%TD*%
D10*
%TO.P,J1,1,Pin_1*%
%TO.N,Net-(J1-Pin_1)*%
X147746154Y-70320512D03*
D11*
%TO.P,J1,2,Pin_2*%
%TO.N,GND*%
X147746154Y-71900512D03*
X147746154Y-68740512D03*
%TD*%
D10*
%TO.P,J1,1,Pin_1*%
%TO.N,Net-(J1-Pin_1)*%
X138946154Y-70320512D03*
D11*
%TO.P,J1,2,Pin_2*%
%TO.N,GND*%
X138946154Y-71900512D03*
X138946154Y-68740512D03*
%TD*%
D10*
%TO.P,J1,1,Pin_1*%
%TO.N,Net-(J1-Pin_1)*%
X130146154Y-70320512D03*
D11*
%TO.P,J1,2,Pin_2*%
%TO.N,GND*%
X130146154Y-71900512D03*
X130146154Y-68740512D03*
%TD*%
D10*
%TO.P,J1,1,Pin_1*%
%TO.N,Net-(J1-Pin_1)*%
X121346154Y-70320512D03*
D11*
%TO.P,J1,2,Pin_2*%
%TO.N,GND*%
X121346154Y-71900512D03*
X121346154Y-68740512D03*
%TD*%
D10*
%TO.P,J1,1,Pin_1*%
%TO.N,Net-(J1-Pin_1)*%
X112546154Y-70320512D03*
D11*
%TO.P,J1,2,Pin_2*%
%TO.N,GND*%
X112546154Y-71900512D03*
X112546154Y-68740512D03*
%TD*%
D10*
%TO.P,J1,1,Pin_1*%
%TO.N,Net-(J1-Pin_1)*%
X103746154Y-70320512D03*
D11*
%TO.P,J1,2,Pin_2*%
%TO.N,GND*%
X103746154Y-71900512D03*
X103746154Y-68740512D03*
%TD*%
D10*
%TO.P,J1,1,Pin_1*%
%TO.N,Net-(J1-Pin_1)*%
X94946154Y-70320512D03*
D11*
%TO.P,J1,2,Pin_2*%
%TO.N,GND*%
X94946154Y-71900512D03*
X94946154Y-68740512D03*
%TD*%
D10*
%TO.P,J1,1,Pin_1*%
%TO.N,Net-(J1-Pin_1)*%
X86146154Y-70320512D03*
D11*
%TO.P,J1,2,Pin_2*%
%TO.N,GND*%
X86146154Y-71900512D03*
X86146154Y-68740512D03*
%TD*%
D10*
%TO.P,J1,1,Pin_1*%
%TO.N,Net-(J1-Pin_1)*%
X77346154Y-70320512D03*
D11*
%TO.P,J1,2,Pin_2*%
%TO.N,GND*%
X77346154Y-71900512D03*
X77346154Y-68740512D03*
%TD*%
D10*
%TO.P,J1,1,Pin_1*%
%TO.N,Net-(J1-Pin_1)*%
X147746154Y-61520512D03*
D11*
%TO.P,J1,2,Pin_2*%
%TO.N,GND*%
X147746154Y-63100512D03*
X147746154Y-59940512D03*
%TD*%
D10*
%TO.P,J1,1,Pin_1*%
%TO.N,Net-(J1-Pin_1)*%
X138946154Y-61520512D03*
D11*
%TO.P,J1,2,Pin_2*%
%TO.N,GND*%
X138946154Y-63100512D03*
X138946154Y-59940512D03*
%TD*%
D10*
%TO.P,J1,1,Pin_1*%
%TO.N,Net-(J1-Pin_1)*%
X130146154Y-61520512D03*
D11*
%TO.P,J1,2,Pin_2*%
%TO.N,GND*%
X130146154Y-63100512D03*
X130146154Y-59940512D03*
%TD*%
D10*
%TO.P,J1,1,Pin_1*%
%TO.N,Net-(J1-Pin_1)*%
X121346154Y-61520512D03*
D11*
%TO.P,J1,2,Pin_2*%
%TO.N,GND*%
X121346154Y-63100512D03*
X121346154Y-59940512D03*
%TD*%
D10*
%TO.P,J1,1,Pin_1*%
%TO.N,Net-(J1-Pin_1)*%
X112546154Y-61520512D03*
D11*
%TO.P,J1,2,Pin_2*%
%TO.N,GND*%
X112546154Y-63100512D03*
X112546154Y-59940512D03*
%TD*%
D10*
%TO.P,J1,1,Pin_1*%
%TO.N,Net-(J1-Pin_1)*%
X103746154Y-61520512D03*
D11*
%TO.P,J1,2,Pin_2*%
%TO.N,GND*%
X103746154Y-63100512D03*
X103746154Y-59940512D03*
%TD*%
D10*
%TO.P,J1,1,Pin_1*%
%TO.N,Net-(J1-Pin_1)*%
X94946154Y-61520512D03*
D11*
%TO.P,J1,2,Pin_2*%
%TO.N,GND*%
X94946154Y-63100512D03*
X94946154Y-59940512D03*
%TD*%
D10*
%TO.P,J1,1,Pin_1*%
%TO.N,Net-(J1-Pin_1)*%
X86146154Y-61520512D03*
D11*
%TO.P,J1,2,Pin_2*%
%TO.N,GND*%
X86146154Y-63100512D03*
X86146154Y-59940512D03*
%TD*%
D10*
%TO.P,J1,1,Pin_1*%
%TO.N,Net-(J1-Pin_1)*%
X77346154Y-61520512D03*
D11*
%TO.P,J1,2,Pin_2*%
%TO.N,GND*%
X77346154Y-63100512D03*
X77346154Y-59940512D03*
%TD*%
D10*
%TO.P,J1,1,Pin_1*%
%TO.N,Net-(J1-Pin_1)*%
X147746154Y-52720512D03*
D11*
%TO.P,J1,2,Pin_2*%
%TO.N,GND*%
X147746154Y-54300512D03*
X147746154Y-51140512D03*
%TD*%
D10*
%TO.P,J1,1,Pin_1*%
%TO.N,Net-(J1-Pin_1)*%
X138946154Y-52720512D03*
D11*
%TO.P,J1,2,Pin_2*%
%TO.N,GND*%
X138946154Y-54300512D03*
X138946154Y-51140512D03*
%TD*%
D10*
%TO.P,J1,1,Pin_1*%
%TO.N,Net-(J1-Pin_1)*%
X130146154Y-52720512D03*
D11*
%TO.P,J1,2,Pin_2*%
%TO.N,GND*%
X130146154Y-54300512D03*
X130146154Y-51140512D03*
%TD*%
D10*
%TO.P,J1,1,Pin_1*%
%TO.N,Net-(J1-Pin_1)*%
X121346154Y-52720512D03*
D11*
%TO.P,J1,2,Pin_2*%
%TO.N,GND*%
X121346154Y-54300512D03*
X121346154Y-51140512D03*
%TD*%
D10*
%TO.P,J1,1,Pin_1*%
%TO.N,Net-(J1-Pin_1)*%
X112546154Y-52720512D03*
D11*
%TO.P,J1,2,Pin_2*%
%TO.N,GND*%
X112546154Y-54300512D03*
X112546154Y-51140512D03*
%TD*%
D10*
%TO.P,J1,1,Pin_1*%
%TO.N,Net-(J1-Pin_1)*%
X103746154Y-52720512D03*
D11*
%TO.P,J1,2,Pin_2*%
%TO.N,GND*%
X103746154Y-54300512D03*
X103746154Y-51140512D03*
%TD*%
D10*
%TO.P,J1,1,Pin_1*%
%TO.N,Net-(J1-Pin_1)*%
X94946154Y-52720512D03*
D11*
%TO.P,J1,2,Pin_2*%
%TO.N,GND*%
X94946154Y-54300512D03*
X94946154Y-51140512D03*
%TD*%
D10*
%TO.P,J1,1,Pin_1*%
%TO.N,Net-(J1-Pin_1)*%
X86146154Y-52720512D03*
D11*
%TO.P,J1,2,Pin_2*%
%TO.N,GND*%
X86146154Y-54300512D03*
X86146154Y-51140512D03*
%TD*%
D10*
%TO.P,J1,1,Pin_1*%
%TO.N,Net-(J1-Pin_1)*%
X77346154Y-52720512D03*
D11*
%TO.P,J1,2,Pin_2*%
%TO.N,GND*%
X77346154Y-54300512D03*
X77346154Y-51140512D03*
%TD*%
M02*
