%TF.GenerationSoftware,KiCad,Pcbnew,7.0.11+dfsg-1build4*%
%TF.CreationDate,2026-03-16T12:18:03-05:00*%
%TF.ProjectId,,58585858-5858-4585-9858-585858585858,rev?*%
%TF.SameCoordinates,Original*%
%TF.FileFunction,Soldermask,Bot*%
%TF.FilePolarity,Negative*%
%FSLAX46Y46*%
G04 Gerber Fmt 4.6, Leading zero omitted, Abs format (unit mm)*
G04 Created by KiCad (PCBNEW 7.0.11+dfsg-1build4) date 2026-03-16 12:18:03*
%MOMM*%
%LPD*%
G01*
G04 APERTURE LIST*
%ADD10C,0.600000*%
%ADD11C,1.500000*%
%ADD12O,1.800000X0.800000*%
G04 APERTURE END LIST*
D10*
%TO.C,REF\u002A\u002A*%
X147746154Y-119389817D03*
%TD*%
D11*
%TO.C,J1*%
X147746154Y-123120512D03*
D12*
X147746154Y-124700512D03*
X147746154Y-121540512D03*
%TD*%
D10*
%TO.C,REF\u002A\u002A*%
X147746154Y-126851208D03*
%TD*%
%TO.C,REF\u002A\u002A*%
X144015459Y-123120512D03*
%TD*%
%TO.C,REF\u002A\u002A*%
X138946154Y-119389817D03*
%TD*%
D11*
%TO.C,J1*%
X138946154Y-123120512D03*
D12*
X138946154Y-124700512D03*
X138946154Y-121540512D03*
%TD*%
D10*
%TO.C,REF\u002A\u002A*%
X138946154Y-126851208D03*
%TD*%
%TO.C,REF\u002A\u002A*%
X135215459Y-123120512D03*
%TD*%
%TO.C,REF\u002A\u002A*%
X130146154Y-119389817D03*
%TD*%
D11*
%TO.C,J1*%
X130146154Y-123120512D03*
D12*
X130146154Y-124700512D03*
X130146154Y-121540512D03*
%TD*%
D10*
%TO.C,REF\u002A\u002A*%
X130146154Y-126851208D03*
%TD*%
%TO.C,REF\u002A\u002A*%
X126415459Y-123120512D03*
%TD*%
%TO.C,REF\u002A\u002A*%
X121346154Y-119389817D03*
%TD*%
D11*
%TO.C,J1*%
X121346154Y-123120512D03*
D12*
X121346154Y-124700512D03*
X121346154Y-121540512D03*
%TD*%
D10*
%TO.C,REF\u002A\u002A*%
X121346154Y-126851208D03*
%TD*%
%TO.C,REF\u002A\u002A*%
X117615459Y-123120512D03*
%TD*%
%TO.C,REF\u002A\u002A*%
X112546154Y-119389817D03*
%TD*%
D11*
%TO.C,J1*%
X112546154Y-123120512D03*
D12*
X112546154Y-124700512D03*
X112546154Y-121540512D03*
%TD*%
D10*
%TO.C,REF\u002A\u002A*%
X112546154Y-126851208D03*
%TD*%
%TO.C,REF\u002A\u002A*%
X108815459Y-123120512D03*
%TD*%
%TO.C,REF\u002A\u002A*%
X103746154Y-119389817D03*
%TD*%
D11*
%TO.C,J1*%
X103746154Y-123120512D03*
D12*
X103746154Y-124700512D03*
X103746154Y-121540512D03*
%TD*%
D10*
%TO.C,REF\u002A\u002A*%
X103746154Y-126851208D03*
%TD*%
%TO.C,REF\u002A\u002A*%
X100015459Y-123120512D03*
%TD*%
%TO.C,REF\u002A\u002A*%
X94946154Y-119389817D03*
%TD*%
D11*
%TO.C,J1*%
X94946154Y-123120512D03*
D12*
X94946154Y-124700512D03*
X94946154Y-121540512D03*
%TD*%
D10*
%TO.C,REF\u002A\u002A*%
X94946154Y-126851208D03*
%TD*%
%TO.C,REF\u002A\u002A*%
X91215459Y-123120512D03*
%TD*%
%TO.C,REF\u002A\u002A*%
X86146154Y-119389817D03*
%TD*%
D11*
%TO.C,J1*%
X86146154Y-123120512D03*
D12*
X86146154Y-124700512D03*
X86146154Y-121540512D03*
%TD*%
D10*
%TO.C,REF\u002A\u002A*%
X86146154Y-126851208D03*
%TD*%
%TO.C,REF\u002A\u002A*%
X82415459Y-123120512D03*
%TD*%
%TO.C,REF\u002A\u002A*%
X77346154Y-119389817D03*
%TD*%
D11*
%TO.C,J1*%
X77346154Y-123120512D03*
D12*
X77346154Y-124700512D03*
X77346154Y-121540512D03*
%TD*%
D10*
%TO.C,REF\u002A\u002A*%
X77346154Y-126851208D03*
%TD*%
%TO.C,REF\u002A\u002A*%
X73615459Y-123120512D03*
%TD*%
%TO.C,REF\u002A\u002A*%
X147746154Y-110589817D03*
%TD*%
D11*
%TO.C,J1*%
X147746154Y-114320512D03*
D12*
X147746154Y-115900512D03*
X147746154Y-112740512D03*
%TD*%
D10*
%TO.C,REF\u002A\u002A*%
X147746154Y-118051208D03*
%TD*%
%TO.C,REF\u002A\u002A*%
X144015459Y-114320512D03*
%TD*%
%TO.C,REF\u002A\u002A*%
X138946154Y-110589817D03*
%TD*%
D11*
%TO.C,J1*%
X138946154Y-114320512D03*
D12*
X138946154Y-115900512D03*
X138946154Y-112740512D03*
%TD*%
D10*
%TO.C,REF\u002A\u002A*%
X138946154Y-118051208D03*
%TD*%
%TO.C,REF\u002A\u002A*%
X135215459Y-114320512D03*
%TD*%
%TO.C,REF\u002A\u002A*%
X130146154Y-110589817D03*
%TD*%
D11*
%TO.C,J1*%
X130146154Y-114320512D03*
D12*
X130146154Y-115900512D03*
X130146154Y-112740512D03*
%TD*%
D10*
%TO.C,REF\u002A\u002A*%
X130146154Y-118051208D03*
%TD*%
%TO.C,REF\u002A\u002A*%
X126415459Y-114320512D03*
%TD*%
%TO.C,REF\u002A\u002A*%
X121346154Y-110589817D03*
%TD*%
D11*
%TO.C,J1*%
X121346154Y-114320512D03*
D12*
X121346154Y-115900512D03*
X121346154Y-112740512D03*
%TD*%
D10*
%TO.C,REF\u002A\u002A*%
X121346154Y-118051208D03*
%TD*%
%TO.C,REF\u002A\u002A*%
X117615459Y-114320512D03*
%TD*%
%TO.C,REF\u002A\u002A*%
X112546154Y-110589817D03*
%TD*%
D11*
%TO.C,J1*%
X112546154Y-114320512D03*
D12*
X112546154Y-115900512D03*
X112546154Y-112740512D03*
%TD*%
D10*
%TO.C,REF\u002A\u002A*%
X112546154Y-118051208D03*
%TD*%
%TO.C,REF\u002A\u002A*%
X108815459Y-114320512D03*
%TD*%
%TO.C,REF\u002A\u002A*%
X103746154Y-110589817D03*
%TD*%
D11*
%TO.C,J1*%
X103746154Y-114320512D03*
D12*
X103746154Y-115900512D03*
X103746154Y-112740512D03*
%TD*%
D10*
%TO.C,REF\u002A\u002A*%
X103746154Y-118051208D03*
%TD*%
%TO.C,REF\u002A\u002A*%
X100015459Y-114320512D03*
%TD*%
%TO.C,REF\u002A\u002A*%
X94946154Y-110589817D03*
%TD*%
D11*
%TO.C,J1*%
X94946154Y-114320512D03*
D12*
X94946154Y-115900512D03*
X94946154Y-112740512D03*
%TD*%
D10*
%TO.C,REF\u002A\u002A*%
X94946154Y-118051208D03*
%TD*%
%TO.C,REF\u002A\u002A*%
X91215459Y-114320512D03*
%TD*%
%TO.C,REF\u002A\u002A*%
X86146154Y-110589817D03*
%TD*%
D11*
%TO.C,J1*%
X86146154Y-114320512D03*
D12*
X86146154Y-115900512D03*
X86146154Y-112740512D03*
%TD*%
D10*
%TO.C,REF\u002A\u002A*%
X86146154Y-118051208D03*
%TD*%
%TO.C,REF\u002A\u002A*%
X82415459Y-114320512D03*
%TD*%
%TO.C,REF\u002A\u002A*%
X77346154Y-110589817D03*
%TD*%
D11*
%TO.C,J1*%
X77346154Y-114320512D03*
D12*
X77346154Y-115900512D03*
X77346154Y-112740512D03*
%TD*%
D10*
%TO.C,REF\u002A\u002A*%
X77346154Y-118051208D03*
%TD*%
%TO.C,REF\u002A\u002A*%
X73615459Y-114320512D03*
%TD*%
%TO.C,REF\u002A\u002A*%
X147746154Y-101789817D03*
%TD*%
D11*
%TO.C,J1*%
X147746154Y-105520512D03*
D12*
X147746154Y-107100512D03*
X147746154Y-103940512D03*
%TD*%
D10*
%TO.C,REF\u002A\u002A*%
X147746154Y-109251208D03*
%TD*%
%TO.C,REF\u002A\u002A*%
X144015459Y-105520512D03*
%TD*%
%TO.C,REF\u002A\u002A*%
X138946154Y-101789817D03*
%TD*%
D11*
%TO.C,J1*%
X138946154Y-105520512D03*
D12*
X138946154Y-107100512D03*
X138946154Y-103940512D03*
%TD*%
D10*
%TO.C,REF\u002A\u002A*%
X138946154Y-109251208D03*
%TD*%
%TO.C,REF\u002A\u002A*%
X135215459Y-105520512D03*
%TD*%
%TO.C,REF\u002A\u002A*%
X130146154Y-101789817D03*
%TD*%
D11*
%TO.C,J1*%
X130146154Y-105520512D03*
D12*
X130146154Y-107100512D03*
X130146154Y-103940512D03*
%TD*%
D10*
%TO.C,REF\u002A\u002A*%
X130146154Y-109251208D03*
%TD*%
%TO.C,REF\u002A\u002A*%
X126415459Y-105520512D03*
%TD*%
%TO.C,REF\u002A\u002A*%
X121346154Y-101789817D03*
%TD*%
D11*
%TO.C,J1*%
X121346154Y-105520512D03*
D12*
X121346154Y-107100512D03*
X121346154Y-103940512D03*
%TD*%
D10*
%TO.C,REF\u002A\u002A*%
X121346154Y-109251208D03*
%TD*%
%TO.C,REF\u002A\u002A*%
X117615459Y-105520512D03*
%TD*%
%TO.C,REF\u002A\u002A*%
X112546154Y-101789817D03*
%TD*%
D11*
%TO.C,J1*%
X112546154Y-105520512D03*
D12*
X112546154Y-107100512D03*
X112546154Y-103940512D03*
%TD*%
D10*
%TO.C,REF\u002A\u002A*%
X112546154Y-109251208D03*
%TD*%
%TO.C,REF\u002A\u002A*%
X108815459Y-105520512D03*
%TD*%
%TO.C,REF\u002A\u002A*%
X103746154Y-101789817D03*
%TD*%
D11*
%TO.C,J1*%
X103746154Y-105520512D03*
D12*
X103746154Y-107100512D03*
X103746154Y-103940512D03*
%TD*%
D10*
%TO.C,REF\u002A\u002A*%
X103746154Y-109251208D03*
%TD*%
%TO.C,REF\u002A\u002A*%
X100015459Y-105520512D03*
%TD*%
%TO.C,REF\u002A\u002A*%
X94946154Y-101789817D03*
%TD*%
D11*
%TO.C,J1*%
X94946154Y-105520512D03*
D12*
X94946154Y-107100512D03*
X94946154Y-103940512D03*
%TD*%
D10*
%TO.C,REF\u002A\u002A*%
X94946154Y-109251208D03*
%TD*%
%TO.C,REF\u002A\u002A*%
X91215459Y-105520512D03*
%TD*%
%TO.C,REF\u002A\u002A*%
X86146154Y-101789817D03*
%TD*%
D11*
%TO.C,J1*%
X86146154Y-105520512D03*
D12*
X86146154Y-107100512D03*
X86146154Y-103940512D03*
%TD*%
D10*
%TO.C,REF\u002A\u002A*%
X86146154Y-109251208D03*
%TD*%
%TO.C,REF\u002A\u002A*%
X82415459Y-105520512D03*
%TD*%
%TO.C,REF\u002A\u002A*%
X77346154Y-101789817D03*
%TD*%
D11*
%TO.C,J1*%
X77346154Y-105520512D03*
D12*
X77346154Y-107100512D03*
X77346154Y-103940512D03*
%TD*%
D10*
%TO.C,REF\u002A\u002A*%
X77346154Y-109251208D03*
%TD*%
%TO.C,REF\u002A\u002A*%
X73615459Y-105520512D03*
%TD*%
%TO.C,REF\u002A\u002A*%
X147746154Y-92989817D03*
%TD*%
D11*
%TO.C,J1*%
X147746154Y-96720512D03*
D12*
X147746154Y-98300512D03*
X147746154Y-95140512D03*
%TD*%
D10*
%TO.C,REF\u002A\u002A*%
X147746154Y-100451208D03*
%TD*%
%TO.C,REF\u002A\u002A*%
X144015459Y-96720512D03*
%TD*%
%TO.C,REF\u002A\u002A*%
X138946154Y-92989817D03*
%TD*%
D11*
%TO.C,J1*%
X138946154Y-96720512D03*
D12*
X138946154Y-98300512D03*
X138946154Y-95140512D03*
%TD*%
D10*
%TO.C,REF\u002A\u002A*%
X138946154Y-100451208D03*
%TD*%
%TO.C,REF\u002A\u002A*%
X135215459Y-96720512D03*
%TD*%
%TO.C,REF\u002A\u002A*%
X130146154Y-92989817D03*
%TD*%
D11*
%TO.C,J1*%
X130146154Y-96720512D03*
D12*
X130146154Y-98300512D03*
X130146154Y-95140512D03*
%TD*%
D10*
%TO.C,REF\u002A\u002A*%
X130146154Y-100451208D03*
%TD*%
%TO.C,REF\u002A\u002A*%
X126415459Y-96720512D03*
%TD*%
%TO.C,REF\u002A\u002A*%
X121346154Y-92989817D03*
%TD*%
D11*
%TO.C,J1*%
X121346154Y-96720512D03*
D12*
X121346154Y-98300512D03*
X121346154Y-95140512D03*
%TD*%
D10*
%TO.C,REF\u002A\u002A*%
X121346154Y-100451208D03*
%TD*%
%TO.C,REF\u002A\u002A*%
X117615459Y-96720512D03*
%TD*%
%TO.C,REF\u002A\u002A*%
X112546154Y-92989817D03*
%TD*%
D11*
%TO.C,J1*%
X112546154Y-96720512D03*
D12*
X112546154Y-98300512D03*
X112546154Y-95140512D03*
%TD*%
D10*
%TO.C,REF\u002A\u002A*%
X112546154Y-100451208D03*
%TD*%
%TO.C,REF\u002A\u002A*%
X108815459Y-96720512D03*
%TD*%
%TO.C,REF\u002A\u002A*%
X103746154Y-92989817D03*
%TD*%
D11*
%TO.C,J1*%
X103746154Y-96720512D03*
D12*
X103746154Y-98300512D03*
X103746154Y-95140512D03*
%TD*%
D10*
%TO.C,REF\u002A\u002A*%
X103746154Y-100451208D03*
%TD*%
%TO.C,REF\u002A\u002A*%
X100015459Y-96720512D03*
%TD*%
%TO.C,REF\u002A\u002A*%
X94946154Y-92989817D03*
%TD*%
D11*
%TO.C,J1*%
X94946154Y-96720512D03*
D12*
X94946154Y-98300512D03*
X94946154Y-95140512D03*
%TD*%
D10*
%TO.C,REF\u002A\u002A*%
X94946154Y-100451208D03*
%TD*%
%TO.C,REF\u002A\u002A*%
X91215459Y-96720512D03*
%TD*%
%TO.C,REF\u002A\u002A*%
X86146154Y-92989817D03*
%TD*%
D11*
%TO.C,J1*%
X86146154Y-96720512D03*
D12*
X86146154Y-98300512D03*
X86146154Y-95140512D03*
%TD*%
D10*
%TO.C,REF\u002A\u002A*%
X86146154Y-100451208D03*
%TD*%
%TO.C,REF\u002A\u002A*%
X82415459Y-96720512D03*
%TD*%
%TO.C,REF\u002A\u002A*%
X77346154Y-92989817D03*
%TD*%
D11*
%TO.C,J1*%
X77346154Y-96720512D03*
D12*
X77346154Y-98300512D03*
X77346154Y-95140512D03*
%TD*%
D10*
%TO.C,REF\u002A\u002A*%
X77346154Y-100451208D03*
%TD*%
%TO.C,REF\u002A\u002A*%
X73615459Y-96720512D03*
%TD*%
%TO.C,REF\u002A\u002A*%
X147746154Y-84189817D03*
%TD*%
D11*
%TO.C,J1*%
X147746154Y-87920512D03*
D12*
X147746154Y-89500512D03*
X147746154Y-86340512D03*
%TD*%
D10*
%TO.C,REF\u002A\u002A*%
X147746154Y-91651208D03*
%TD*%
%TO.C,REF\u002A\u002A*%
X144015459Y-87920512D03*
%TD*%
%TO.C,REF\u002A\u002A*%
X138946154Y-84189817D03*
%TD*%
D11*
%TO.C,J1*%
X138946154Y-87920512D03*
D12*
X138946154Y-89500512D03*
X138946154Y-86340512D03*
%TD*%
D10*
%TO.C,REF\u002A\u002A*%
X138946154Y-91651208D03*
%TD*%
%TO.C,REF\u002A\u002A*%
X135215459Y-87920512D03*
%TD*%
%TO.C,REF\u002A\u002A*%
X130146154Y-84189817D03*
%TD*%
D11*
%TO.C,J1*%
X130146154Y-87920512D03*
D12*
X130146154Y-89500512D03*
X130146154Y-86340512D03*
%TD*%
D10*
%TO.C,REF\u002A\u002A*%
X130146154Y-91651208D03*
%TD*%
%TO.C,REF\u002A\u002A*%
X126415459Y-87920512D03*
%TD*%
%TO.C,REF\u002A\u002A*%
X121346154Y-84189817D03*
%TD*%
D11*
%TO.C,J1*%
X121346154Y-87920512D03*
D12*
X121346154Y-89500512D03*
X121346154Y-86340512D03*
%TD*%
D10*
%TO.C,REF\u002A\u002A*%
X121346154Y-91651208D03*
%TD*%
%TO.C,REF\u002A\u002A*%
X117615459Y-87920512D03*
%TD*%
%TO.C,REF\u002A\u002A*%
X112546154Y-84189817D03*
%TD*%
D11*
%TO.C,J1*%
X112546154Y-87920512D03*
D12*
X112546154Y-89500512D03*
X112546154Y-86340512D03*
%TD*%
D10*
%TO.C,REF\u002A\u002A*%
X112546154Y-91651208D03*
%TD*%
%TO.C,REF\u002A\u002A*%
X108815459Y-87920512D03*
%TD*%
%TO.C,REF\u002A\u002A*%
X103746154Y-84189817D03*
%TD*%
D11*
%TO.C,J1*%
X103746154Y-87920512D03*
D12*
X103746154Y-89500512D03*
X103746154Y-86340512D03*
%TD*%
D10*
%TO.C,REF\u002A\u002A*%
X103746154Y-91651208D03*
%TD*%
%TO.C,REF\u002A\u002A*%
X100015459Y-87920512D03*
%TD*%
%TO.C,REF\u002A\u002A*%
X94946154Y-84189817D03*
%TD*%
D11*
%TO.C,J1*%
X94946154Y-87920512D03*
D12*
X94946154Y-89500512D03*
X94946154Y-86340512D03*
%TD*%
D10*
%TO.C,REF\u002A\u002A*%
X94946154Y-91651208D03*
%TD*%
%TO.C,REF\u002A\u002A*%
X91215459Y-87920512D03*
%TD*%
%TO.C,REF\u002A\u002A*%
X86146154Y-84189817D03*
%TD*%
D11*
%TO.C,J1*%
X86146154Y-87920512D03*
D12*
X86146154Y-89500512D03*
X86146154Y-86340512D03*
%TD*%
D10*
%TO.C,REF\u002A\u002A*%
X86146154Y-91651208D03*
%TD*%
%TO.C,REF\u002A\u002A*%
X82415459Y-87920512D03*
%TD*%
%TO.C,REF\u002A\u002A*%
X77346154Y-84189817D03*
%TD*%
D11*
%TO.C,J1*%
X77346154Y-87920512D03*
D12*
X77346154Y-89500512D03*
X77346154Y-86340512D03*
%TD*%
D10*
%TO.C,REF\u002A\u002A*%
X77346154Y-91651208D03*
%TD*%
%TO.C,REF\u002A\u002A*%
X73615459Y-87920512D03*
%TD*%
%TO.C,REF\u002A\u002A*%
X147746154Y-75389817D03*
%TD*%
D11*
%TO.C,J1*%
X147746154Y-79120512D03*
D12*
X147746154Y-80700512D03*
X147746154Y-77540512D03*
%TD*%
D10*
%TO.C,REF\u002A\u002A*%
X147746154Y-82851208D03*
%TD*%
%TO.C,REF\u002A\u002A*%
X144015459Y-79120512D03*
%TD*%
%TO.C,REF\u002A\u002A*%
X138946154Y-75389817D03*
%TD*%
D11*
%TO.C,J1*%
X138946154Y-79120512D03*
D12*
X138946154Y-80700512D03*
X138946154Y-77540512D03*
%TD*%
D10*
%TO.C,REF\u002A\u002A*%
X138946154Y-82851208D03*
%TD*%
%TO.C,REF\u002A\u002A*%
X135215459Y-79120512D03*
%TD*%
%TO.C,REF\u002A\u002A*%
X130146154Y-75389817D03*
%TD*%
D11*
%TO.C,J1*%
X130146154Y-79120512D03*
D12*
X130146154Y-80700512D03*
X130146154Y-77540512D03*
%TD*%
D10*
%TO.C,REF\u002A\u002A*%
X130146154Y-82851208D03*
%TD*%
%TO.C,REF\u002A\u002A*%
X126415459Y-79120512D03*
%TD*%
%TO.C,REF\u002A\u002A*%
X121346154Y-75389817D03*
%TD*%
D11*
%TO.C,J1*%
X121346154Y-79120512D03*
D12*
X121346154Y-80700512D03*
X121346154Y-77540512D03*
%TD*%
D10*
%TO.C,REF\u002A\u002A*%
X121346154Y-82851208D03*
%TD*%
%TO.C,REF\u002A\u002A*%
X117615459Y-79120512D03*
%TD*%
%TO.C,REF\u002A\u002A*%
X112546154Y-75389817D03*
%TD*%
D11*
%TO.C,J1*%
X112546154Y-79120512D03*
D12*
X112546154Y-80700512D03*
X112546154Y-77540512D03*
%TD*%
D10*
%TO.C,REF\u002A\u002A*%
X112546154Y-82851208D03*
%TD*%
%TO.C,REF\u002A\u002A*%
X108815459Y-79120512D03*
%TD*%
%TO.C,REF\u002A\u002A*%
X103746154Y-75389817D03*
%TD*%
D11*
%TO.C,J1*%
X103746154Y-79120512D03*
D12*
X103746154Y-80700512D03*
X103746154Y-77540512D03*
%TD*%
D10*
%TO.C,REF\u002A\u002A*%
X103746154Y-82851208D03*
%TD*%
%TO.C,REF\u002A\u002A*%
X100015459Y-79120512D03*
%TD*%
%TO.C,REF\u002A\u002A*%
X94946154Y-75389817D03*
%TD*%
D11*
%TO.C,J1*%
X94946154Y-79120512D03*
D12*
X94946154Y-80700512D03*
X94946154Y-77540512D03*
%TD*%
D10*
%TO.C,REF\u002A\u002A*%
X94946154Y-82851208D03*
%TD*%
%TO.C,REF\u002A\u002A*%
X91215459Y-79120512D03*
%TD*%
%TO.C,REF\u002A\u002A*%
X86146154Y-75389817D03*
%TD*%
D11*
%TO.C,J1*%
X86146154Y-79120512D03*
D12*
X86146154Y-80700512D03*
X86146154Y-77540512D03*
%TD*%
D10*
%TO.C,REF\u002A\u002A*%
X86146154Y-82851208D03*
%TD*%
%TO.C,REF\u002A\u002A*%
X82415459Y-79120512D03*
%TD*%
%TO.C,REF\u002A\u002A*%
X77346154Y-75389817D03*
%TD*%
D11*
%TO.C,J1*%
X77346154Y-79120512D03*
D12*
X77346154Y-80700512D03*
X77346154Y-77540512D03*
%TD*%
D10*
%TO.C,REF\u002A\u002A*%
X77346154Y-82851208D03*
%TD*%
%TO.C,REF\u002A\u002A*%
X73615459Y-79120512D03*
%TD*%
%TO.C,REF\u002A\u002A*%
X147746154Y-66589817D03*
%TD*%
D11*
%TO.C,J1*%
X147746154Y-70320512D03*
D12*
X147746154Y-71900512D03*
X147746154Y-68740512D03*
%TD*%
D10*
%TO.C,REF\u002A\u002A*%
X147746154Y-74051208D03*
%TD*%
%TO.C,REF\u002A\u002A*%
X144015459Y-70320512D03*
%TD*%
%TO.C,REF\u002A\u002A*%
X138946154Y-66589817D03*
%TD*%
D11*
%TO.C,J1*%
X138946154Y-70320512D03*
D12*
X138946154Y-71900512D03*
X138946154Y-68740512D03*
%TD*%
D10*
%TO.C,REF\u002A\u002A*%
X138946154Y-74051208D03*
%TD*%
%TO.C,REF\u002A\u002A*%
X135215459Y-70320512D03*
%TD*%
%TO.C,REF\u002A\u002A*%
X130146154Y-66589817D03*
%TD*%
D11*
%TO.C,J1*%
X130146154Y-70320512D03*
D12*
X130146154Y-71900512D03*
X130146154Y-68740512D03*
%TD*%
D10*
%TO.C,REF\u002A\u002A*%
X130146154Y-74051208D03*
%TD*%
%TO.C,REF\u002A\u002A*%
X126415459Y-70320512D03*
%TD*%
%TO.C,REF\u002A\u002A*%
X121346154Y-66589817D03*
%TD*%
D11*
%TO.C,J1*%
X121346154Y-70320512D03*
D12*
X121346154Y-71900512D03*
X121346154Y-68740512D03*
%TD*%
D10*
%TO.C,REF\u002A\u002A*%
X121346154Y-74051208D03*
%TD*%
%TO.C,REF\u002A\u002A*%
X117615459Y-70320512D03*
%TD*%
%TO.C,REF\u002A\u002A*%
X112546154Y-66589817D03*
%TD*%
D11*
%TO.C,J1*%
X112546154Y-70320512D03*
D12*
X112546154Y-71900512D03*
X112546154Y-68740512D03*
%TD*%
D10*
%TO.C,REF\u002A\u002A*%
X112546154Y-74051208D03*
%TD*%
%TO.C,REF\u002A\u002A*%
X108815459Y-70320512D03*
%TD*%
%TO.C,REF\u002A\u002A*%
X103746154Y-66589817D03*
%TD*%
D11*
%TO.C,J1*%
X103746154Y-70320512D03*
D12*
X103746154Y-71900512D03*
X103746154Y-68740512D03*
%TD*%
D10*
%TO.C,REF\u002A\u002A*%
X103746154Y-74051208D03*
%TD*%
%TO.C,REF\u002A\u002A*%
X100015459Y-70320512D03*
%TD*%
%TO.C,REF\u002A\u002A*%
X94946154Y-66589817D03*
%TD*%
D11*
%TO.C,J1*%
X94946154Y-70320512D03*
D12*
X94946154Y-71900512D03*
X94946154Y-68740512D03*
%TD*%
D10*
%TO.C,REF\u002A\u002A*%
X94946154Y-74051208D03*
%TD*%
%TO.C,REF\u002A\u002A*%
X91215459Y-70320512D03*
%TD*%
%TO.C,REF\u002A\u002A*%
X86146154Y-66589817D03*
%TD*%
D11*
%TO.C,J1*%
X86146154Y-70320512D03*
D12*
X86146154Y-71900512D03*
X86146154Y-68740512D03*
%TD*%
D10*
%TO.C,REF\u002A\u002A*%
X86146154Y-74051208D03*
%TD*%
%TO.C,REF\u002A\u002A*%
X82415459Y-70320512D03*
%TD*%
%TO.C,REF\u002A\u002A*%
X77346154Y-66589817D03*
%TD*%
D11*
%TO.C,J1*%
X77346154Y-70320512D03*
D12*
X77346154Y-71900512D03*
X77346154Y-68740512D03*
%TD*%
D10*
%TO.C,REF\u002A\u002A*%
X77346154Y-74051208D03*
%TD*%
%TO.C,REF\u002A\u002A*%
X73615459Y-70320512D03*
%TD*%
%TO.C,REF\u002A\u002A*%
X147746154Y-57789817D03*
%TD*%
D11*
%TO.C,J1*%
X147746154Y-61520512D03*
D12*
X147746154Y-63100512D03*
X147746154Y-59940512D03*
%TD*%
D10*
%TO.C,REF\u002A\u002A*%
X147746154Y-65251208D03*
%TD*%
%TO.C,REF\u002A\u002A*%
X144015459Y-61520512D03*
%TD*%
%TO.C,REF\u002A\u002A*%
X138946154Y-57789817D03*
%TD*%
D11*
%TO.C,J1*%
X138946154Y-61520512D03*
D12*
X138946154Y-63100512D03*
X138946154Y-59940512D03*
%TD*%
D10*
%TO.C,REF\u002A\u002A*%
X138946154Y-65251208D03*
%TD*%
%TO.C,REF\u002A\u002A*%
X135215459Y-61520512D03*
%TD*%
%TO.C,REF\u002A\u002A*%
X130146154Y-57789817D03*
%TD*%
D11*
%TO.C,J1*%
X130146154Y-61520512D03*
D12*
X130146154Y-63100512D03*
X130146154Y-59940512D03*
%TD*%
D10*
%TO.C,REF\u002A\u002A*%
X130146154Y-65251208D03*
%TD*%
%TO.C,REF\u002A\u002A*%
X126415459Y-61520512D03*
%TD*%
%TO.C,REF\u002A\u002A*%
X121346154Y-57789817D03*
%TD*%
D11*
%TO.C,J1*%
X121346154Y-61520512D03*
D12*
X121346154Y-63100512D03*
X121346154Y-59940512D03*
%TD*%
D10*
%TO.C,REF\u002A\u002A*%
X121346154Y-65251208D03*
%TD*%
%TO.C,REF\u002A\u002A*%
X117615459Y-61520512D03*
%TD*%
%TO.C,REF\u002A\u002A*%
X112546154Y-57789817D03*
%TD*%
D11*
%TO.C,J1*%
X112546154Y-61520512D03*
D12*
X112546154Y-63100512D03*
X112546154Y-59940512D03*
%TD*%
D10*
%TO.C,REF\u002A\u002A*%
X112546154Y-65251208D03*
%TD*%
%TO.C,REF\u002A\u002A*%
X108815459Y-61520512D03*
%TD*%
%TO.C,REF\u002A\u002A*%
X103746154Y-57789817D03*
%TD*%
D11*
%TO.C,J1*%
X103746154Y-61520512D03*
D12*
X103746154Y-63100512D03*
X103746154Y-59940512D03*
%TD*%
D10*
%TO.C,REF\u002A\u002A*%
X103746154Y-65251208D03*
%TD*%
%TO.C,REF\u002A\u002A*%
X100015459Y-61520512D03*
%TD*%
%TO.C,REF\u002A\u002A*%
X94946154Y-57789817D03*
%TD*%
D11*
%TO.C,J1*%
X94946154Y-61520512D03*
D12*
X94946154Y-63100512D03*
X94946154Y-59940512D03*
%TD*%
D10*
%TO.C,REF\u002A\u002A*%
X94946154Y-65251208D03*
%TD*%
%TO.C,REF\u002A\u002A*%
X91215459Y-61520512D03*
%TD*%
%TO.C,REF\u002A\u002A*%
X86146154Y-57789817D03*
%TD*%
D11*
%TO.C,J1*%
X86146154Y-61520512D03*
D12*
X86146154Y-63100512D03*
X86146154Y-59940512D03*
%TD*%
D10*
%TO.C,REF\u002A\u002A*%
X86146154Y-65251208D03*
%TD*%
%TO.C,REF\u002A\u002A*%
X82415459Y-61520512D03*
%TD*%
%TO.C,REF\u002A\u002A*%
X77346154Y-57789817D03*
%TD*%
D11*
%TO.C,J1*%
X77346154Y-61520512D03*
D12*
X77346154Y-63100512D03*
X77346154Y-59940512D03*
%TD*%
D10*
%TO.C,REF\u002A\u002A*%
X77346154Y-65251208D03*
%TD*%
%TO.C,REF\u002A\u002A*%
X73615459Y-61520512D03*
%TD*%
%TO.C,REF\u002A\u002A*%
X147746154Y-48989817D03*
%TD*%
D11*
%TO.C,J1*%
X147746154Y-52720512D03*
D12*
X147746154Y-54300512D03*
X147746154Y-51140512D03*
%TD*%
D10*
%TO.C,REF\u002A\u002A*%
X147746154Y-56451208D03*
%TD*%
%TO.C,REF\u002A\u002A*%
X144015459Y-52720512D03*
%TD*%
%TO.C,REF\u002A\u002A*%
X138946154Y-48989817D03*
%TD*%
D11*
%TO.C,J1*%
X138946154Y-52720512D03*
D12*
X138946154Y-54300512D03*
X138946154Y-51140512D03*
%TD*%
D10*
%TO.C,REF\u002A\u002A*%
X138946154Y-56451208D03*
%TD*%
%TO.C,REF\u002A\u002A*%
X135215459Y-52720512D03*
%TD*%
%TO.C,REF\u002A\u002A*%
X130146154Y-48989817D03*
%TD*%
D11*
%TO.C,J1*%
X130146154Y-52720512D03*
D12*
X130146154Y-54300512D03*
X130146154Y-51140512D03*
%TD*%
D10*
%TO.C,REF\u002A\u002A*%
X130146154Y-56451208D03*
%TD*%
%TO.C,REF\u002A\u002A*%
X126415459Y-52720512D03*
%TD*%
%TO.C,REF\u002A\u002A*%
X121346154Y-48989817D03*
%TD*%
D11*
%TO.C,J1*%
X121346154Y-52720512D03*
D12*
X121346154Y-54300512D03*
X121346154Y-51140512D03*
%TD*%
D10*
%TO.C,REF\u002A\u002A*%
X121346154Y-56451208D03*
%TD*%
%TO.C,REF\u002A\u002A*%
X117615459Y-52720512D03*
%TD*%
%TO.C,REF\u002A\u002A*%
X112546154Y-48989817D03*
%TD*%
D11*
%TO.C,J1*%
X112546154Y-52720512D03*
D12*
X112546154Y-54300512D03*
X112546154Y-51140512D03*
%TD*%
D10*
%TO.C,REF\u002A\u002A*%
X112546154Y-56451208D03*
%TD*%
%TO.C,REF\u002A\u002A*%
X108815459Y-52720512D03*
%TD*%
%TO.C,REF\u002A\u002A*%
X103746154Y-48989817D03*
%TD*%
D11*
%TO.C,J1*%
X103746154Y-52720512D03*
D12*
X103746154Y-54300512D03*
X103746154Y-51140512D03*
%TD*%
D10*
%TO.C,REF\u002A\u002A*%
X103746154Y-56451208D03*
%TD*%
%TO.C,REF\u002A\u002A*%
X100015459Y-52720512D03*
%TD*%
%TO.C,REF\u002A\u002A*%
X94946154Y-48989817D03*
%TD*%
D11*
%TO.C,J1*%
X94946154Y-52720512D03*
D12*
X94946154Y-54300512D03*
X94946154Y-51140512D03*
%TD*%
D10*
%TO.C,REF\u002A\u002A*%
X94946154Y-56451208D03*
%TD*%
%TO.C,REF\u002A\u002A*%
X91215459Y-52720512D03*
%TD*%
%TO.C,REF\u002A\u002A*%
X86146154Y-48989817D03*
%TD*%
D11*
%TO.C,J1*%
X86146154Y-52720512D03*
D12*
X86146154Y-54300512D03*
X86146154Y-51140512D03*
%TD*%
D10*
%TO.C,REF\u002A\u002A*%
X86146154Y-56451208D03*
%TD*%
%TO.C,REF\u002A\u002A*%
X82415459Y-52720512D03*
%TD*%
%TO.C,REF\u002A\u002A*%
X77346154Y-48989817D03*
%TD*%
%TO.C,REF\u002A\u002A*%
X77346154Y-56451208D03*
%TD*%
D11*
%TO.C,J1*%
X77346154Y-52720512D03*
D12*
X77346154Y-54300512D03*
X77346154Y-51140512D03*
%TD*%
D10*
%TO.C,REF\u002A\u002A*%
X73615459Y-52720512D03*
%TD*%
M02*
