%TF.GenerationSoftware,KiCad,Pcbnew,7.0.11+dfsg-1build4*%
%TF.CreationDate,2026-03-16T12:18:03-05:00*%
%TF.ProjectId,,58585858-5858-4585-9858-585858585858,rev?*%
%TF.SameCoordinates,Original*%
%TF.FileFunction,Profile,NP*%
%FSLAX46Y46*%
G04 Gerber Fmt 4.6, Leading zero omitted, Abs format (unit mm)*
G04 Created by KiCad (PCBNEW 7.0.11+dfsg-1build4) date 2026-03-16 12:18:03*
%MOMM*%
%LPD*%
G01*
G04 APERTURE LIST*
%TA.AperFunction,Profile*%
%ADD10C,0.050000*%
%TD*%
G04 APERTURE END LIST*
D10*
X143346182Y-121297945D02*
X144210620Y-120433506D01*
X145059148Y-119584978D02*
X145554123Y-120079953D01*
X151281688Y-125807518D02*
X152146126Y-124943080D01*
X145059148Y-126656046D02*
X145554123Y-126161071D01*
X151281688Y-120433506D02*
X152146126Y-121297945D01*
X149938185Y-120079953D02*
X150433160Y-119584978D01*
X150786713Y-120928481D02*
X151281688Y-120433506D01*
X145059148Y-126656046D02*
X145923586Y-127520484D01*
X145059148Y-119584978D02*
X145923586Y-118720540D01*
X149938185Y-126161071D02*
X150786713Y-125312543D01*
X152146126Y-121297945D02*
X152146126Y-124943080D01*
X149568722Y-127520484D02*
X150433160Y-126656046D01*
X144210620Y-120433506D02*
X144705595Y-120928481D01*
X143346182Y-124943080D02*
X144210620Y-125807518D01*
X144705595Y-120928481D02*
X145554123Y-120079953D01*
X145923586Y-118720540D02*
X149568722Y-118720540D01*
X143346182Y-124943080D02*
X143346182Y-121297945D01*
X149568722Y-118720540D02*
X150433160Y-119584978D01*
X149938185Y-120079953D02*
X150786713Y-120928481D01*
X150433160Y-126656046D02*
X149938185Y-126161071D01*
X144705595Y-125312543D02*
X145554123Y-126161071D01*
X145923586Y-127520484D02*
X149568722Y-127520484D01*
X151281688Y-125807518D02*
X150786713Y-125312543D01*
X144210620Y-125807518D02*
X144705595Y-125312543D01*
X134546182Y-121297945D02*
X135410620Y-120433506D01*
X136259148Y-119584978D02*
X136754123Y-120079953D01*
X142481688Y-125807518D02*
X143346126Y-124943080D01*
X136259148Y-126656046D02*
X136754123Y-126161071D01*
X142481688Y-120433506D02*
X143346126Y-121297945D01*
X141138185Y-120079953D02*
X141633160Y-119584978D01*
X141986713Y-120928481D02*
X142481688Y-120433506D01*
X136259148Y-126656046D02*
X137123586Y-127520484D01*
X136259148Y-119584978D02*
X137123586Y-118720540D01*
X141138185Y-126161071D02*
X141986713Y-125312543D01*
X143346126Y-121297945D02*
X143346126Y-124943080D01*
X140768722Y-127520484D02*
X141633160Y-126656046D01*
X135410620Y-120433506D02*
X135905595Y-120928481D01*
X134546182Y-124943080D02*
X135410620Y-125807518D01*
X135905595Y-120928481D02*
X136754123Y-120079953D01*
X137123586Y-118720540D02*
X140768722Y-118720540D01*
X134546182Y-124943080D02*
X134546182Y-121297945D01*
X140768722Y-118720540D02*
X141633160Y-119584978D01*
X141138185Y-120079953D02*
X141986713Y-120928481D01*
X141633160Y-126656046D02*
X141138185Y-126161071D01*
X135905595Y-125312543D02*
X136754123Y-126161071D01*
X137123586Y-127520484D02*
X140768722Y-127520484D01*
X142481688Y-125807518D02*
X141986713Y-125312543D01*
X135410620Y-125807518D02*
X135905595Y-125312543D01*
X125746182Y-121297945D02*
X126610620Y-120433506D01*
X127459148Y-119584978D02*
X127954123Y-120079953D01*
X133681688Y-125807518D02*
X134546126Y-124943080D01*
X127459148Y-126656046D02*
X127954123Y-126161071D01*
X133681688Y-120433506D02*
X134546126Y-121297945D01*
X132338185Y-120079953D02*
X132833160Y-119584978D01*
X133186713Y-120928481D02*
X133681688Y-120433506D01*
X127459148Y-126656046D02*
X128323586Y-127520484D01*
X127459148Y-119584978D02*
X128323586Y-118720540D01*
X132338185Y-126161071D02*
X133186713Y-125312543D01*
X134546126Y-121297945D02*
X134546126Y-124943080D01*
X131968722Y-127520484D02*
X132833160Y-126656046D01*
X126610620Y-120433506D02*
X127105595Y-120928481D01*
X125746182Y-124943080D02*
X126610620Y-125807518D01*
X127105595Y-120928481D02*
X127954123Y-120079953D01*
X128323586Y-118720540D02*
X131968722Y-118720540D01*
X125746182Y-124943080D02*
X125746182Y-121297945D01*
X131968722Y-118720540D02*
X132833160Y-119584978D01*
X132338185Y-120079953D02*
X133186713Y-120928481D01*
X132833160Y-126656046D02*
X132338185Y-126161071D01*
X127105595Y-125312543D02*
X127954123Y-126161071D01*
X128323586Y-127520484D02*
X131968722Y-127520484D01*
X133681688Y-125807518D02*
X133186713Y-125312543D01*
X126610620Y-125807518D02*
X127105595Y-125312543D01*
X116946182Y-121297945D02*
X117810620Y-120433506D01*
X118659148Y-119584978D02*
X119154123Y-120079953D01*
X124881688Y-125807518D02*
X125746126Y-124943080D01*
X118659148Y-126656046D02*
X119154123Y-126161071D01*
X124881688Y-120433506D02*
X125746126Y-121297945D01*
X123538185Y-120079953D02*
X124033160Y-119584978D01*
X124386713Y-120928481D02*
X124881688Y-120433506D01*
X118659148Y-126656046D02*
X119523586Y-127520484D01*
X118659148Y-119584978D02*
X119523586Y-118720540D01*
X123538185Y-126161071D02*
X124386713Y-125312543D01*
X125746126Y-121297945D02*
X125746126Y-124943080D01*
X123168722Y-127520484D02*
X124033160Y-126656046D01*
X117810620Y-120433506D02*
X118305595Y-120928481D01*
X116946182Y-124943080D02*
X117810620Y-125807518D01*
X118305595Y-120928481D02*
X119154123Y-120079953D01*
X119523586Y-118720540D02*
X123168722Y-118720540D01*
X116946182Y-124943080D02*
X116946182Y-121297945D01*
X123168722Y-118720540D02*
X124033160Y-119584978D01*
X123538185Y-120079953D02*
X124386713Y-120928481D01*
X124033160Y-126656046D02*
X123538185Y-126161071D01*
X118305595Y-125312543D02*
X119154123Y-126161071D01*
X119523586Y-127520484D02*
X123168722Y-127520484D01*
X124881688Y-125807518D02*
X124386713Y-125312543D01*
X117810620Y-125807518D02*
X118305595Y-125312543D01*
X108146182Y-121297945D02*
X109010620Y-120433506D01*
X109859148Y-119584978D02*
X110354123Y-120079953D01*
X116081688Y-125807518D02*
X116946126Y-124943080D01*
X109859148Y-126656046D02*
X110354123Y-126161071D01*
X116081688Y-120433506D02*
X116946126Y-121297945D01*
X114738185Y-120079953D02*
X115233160Y-119584978D01*
X115586713Y-120928481D02*
X116081688Y-120433506D01*
X109859148Y-126656046D02*
X110723586Y-127520484D01*
X109859148Y-119584978D02*
X110723586Y-118720540D01*
X114738185Y-126161071D02*
X115586713Y-125312543D01*
X116946126Y-121297945D02*
X116946126Y-124943080D01*
X114368722Y-127520484D02*
X115233160Y-126656046D01*
X109010620Y-120433506D02*
X109505595Y-120928481D01*
X108146182Y-124943080D02*
X109010620Y-125807518D01*
X109505595Y-120928481D02*
X110354123Y-120079953D01*
X110723586Y-118720540D02*
X114368722Y-118720540D01*
X108146182Y-124943080D02*
X108146182Y-121297945D01*
X114368722Y-118720540D02*
X115233160Y-119584978D01*
X114738185Y-120079953D02*
X115586713Y-120928481D01*
X115233160Y-126656046D02*
X114738185Y-126161071D01*
X109505595Y-125312543D02*
X110354123Y-126161071D01*
X110723586Y-127520484D02*
X114368722Y-127520484D01*
X116081688Y-125807518D02*
X115586713Y-125312543D01*
X109010620Y-125807518D02*
X109505595Y-125312543D01*
X99346182Y-121297945D02*
X100210620Y-120433506D01*
X101059148Y-119584978D02*
X101554123Y-120079953D01*
X107281688Y-125807518D02*
X108146126Y-124943080D01*
X101059148Y-126656046D02*
X101554123Y-126161071D01*
X107281688Y-120433506D02*
X108146126Y-121297945D01*
X105938185Y-120079953D02*
X106433160Y-119584978D01*
X106786713Y-120928481D02*
X107281688Y-120433506D01*
X101059148Y-126656046D02*
X101923586Y-127520484D01*
X101059148Y-119584978D02*
X101923586Y-118720540D01*
X105938185Y-126161071D02*
X106786713Y-125312543D01*
X108146126Y-121297945D02*
X108146126Y-124943080D01*
X105568722Y-127520484D02*
X106433160Y-126656046D01*
X100210620Y-120433506D02*
X100705595Y-120928481D01*
X99346182Y-124943080D02*
X100210620Y-125807518D01*
X100705595Y-120928481D02*
X101554123Y-120079953D01*
X101923586Y-118720540D02*
X105568722Y-118720540D01*
X99346182Y-124943080D02*
X99346182Y-121297945D01*
X105568722Y-118720540D02*
X106433160Y-119584978D01*
X105938185Y-120079953D02*
X106786713Y-120928481D01*
X106433160Y-126656046D02*
X105938185Y-126161071D01*
X100705595Y-125312543D02*
X101554123Y-126161071D01*
X101923586Y-127520484D02*
X105568722Y-127520484D01*
X107281688Y-125807518D02*
X106786713Y-125312543D01*
X100210620Y-125807518D02*
X100705595Y-125312543D01*
X90546182Y-121297945D02*
X91410620Y-120433506D01*
X92259148Y-119584978D02*
X92754123Y-120079953D01*
X98481688Y-125807518D02*
X99346126Y-124943080D01*
X92259148Y-126656046D02*
X92754123Y-126161071D01*
X98481688Y-120433506D02*
X99346126Y-121297945D01*
X97138185Y-120079953D02*
X97633160Y-119584978D01*
X97986713Y-120928481D02*
X98481688Y-120433506D01*
X92259148Y-126656046D02*
X93123586Y-127520484D01*
X92259148Y-119584978D02*
X93123586Y-118720540D01*
X97138185Y-126161071D02*
X97986713Y-125312543D01*
X99346126Y-121297945D02*
X99346126Y-124943080D01*
X96768722Y-127520484D02*
X97633160Y-126656046D01*
X91410620Y-120433506D02*
X91905595Y-120928481D01*
X90546182Y-124943080D02*
X91410620Y-125807518D01*
X91905595Y-120928481D02*
X92754123Y-120079953D01*
X93123586Y-118720540D02*
X96768722Y-118720540D01*
X90546182Y-124943080D02*
X90546182Y-121297945D01*
X96768722Y-118720540D02*
X97633160Y-119584978D01*
X97138185Y-120079953D02*
X97986713Y-120928481D01*
X97633160Y-126656046D02*
X97138185Y-126161071D01*
X91905595Y-125312543D02*
X92754123Y-126161071D01*
X93123586Y-127520484D02*
X96768722Y-127520484D01*
X98481688Y-125807518D02*
X97986713Y-125312543D01*
X91410620Y-125807518D02*
X91905595Y-125312543D01*
X81746182Y-121297945D02*
X82610620Y-120433506D01*
X83459148Y-119584978D02*
X83954123Y-120079953D01*
X89681688Y-125807518D02*
X90546126Y-124943080D01*
X83459148Y-126656046D02*
X83954123Y-126161071D01*
X89681688Y-120433506D02*
X90546126Y-121297945D01*
X88338185Y-120079953D02*
X88833160Y-119584978D01*
X89186713Y-120928481D02*
X89681688Y-120433506D01*
X83459148Y-126656046D02*
X84323586Y-127520484D01*
X83459148Y-119584978D02*
X84323586Y-118720540D01*
X88338185Y-126161071D02*
X89186713Y-125312543D01*
X90546126Y-121297945D02*
X90546126Y-124943080D01*
X87968722Y-127520484D02*
X88833160Y-126656046D01*
X82610620Y-120433506D02*
X83105595Y-120928481D01*
X81746182Y-124943080D02*
X82610620Y-125807518D01*
X83105595Y-120928481D02*
X83954123Y-120079953D01*
X84323586Y-118720540D02*
X87968722Y-118720540D01*
X81746182Y-124943080D02*
X81746182Y-121297945D01*
X87968722Y-118720540D02*
X88833160Y-119584978D01*
X88338185Y-120079953D02*
X89186713Y-120928481D01*
X88833160Y-126656046D02*
X88338185Y-126161071D01*
X83105595Y-125312543D02*
X83954123Y-126161071D01*
X84323586Y-127520484D02*
X87968722Y-127520484D01*
X89681688Y-125807518D02*
X89186713Y-125312543D01*
X82610620Y-125807518D02*
X83105595Y-125312543D01*
X72946182Y-121297945D02*
X73810620Y-120433506D01*
X74659148Y-119584978D02*
X75154123Y-120079953D01*
X80881688Y-125807518D02*
X81746126Y-124943080D01*
X74659148Y-126656046D02*
X75154123Y-126161071D01*
X80881688Y-120433506D02*
X81746126Y-121297945D01*
X79538185Y-120079953D02*
X80033160Y-119584978D01*
X80386713Y-120928481D02*
X80881688Y-120433506D01*
X74659148Y-126656046D02*
X75523586Y-127520484D01*
X74659148Y-119584978D02*
X75523586Y-118720540D01*
X79538185Y-126161071D02*
X80386713Y-125312543D01*
X81746126Y-121297945D02*
X81746126Y-124943080D01*
X79168722Y-127520484D02*
X80033160Y-126656046D01*
X73810620Y-120433506D02*
X74305595Y-120928481D01*
X72946182Y-124943080D02*
X73810620Y-125807518D01*
X74305595Y-120928481D02*
X75154123Y-120079953D01*
X75523586Y-118720540D02*
X79168722Y-118720540D01*
X72946182Y-124943080D02*
X72946182Y-121297945D01*
X79168722Y-118720540D02*
X80033160Y-119584978D01*
X79538185Y-120079953D02*
X80386713Y-120928481D01*
X80033160Y-126656046D02*
X79538185Y-126161071D01*
X74305595Y-125312543D02*
X75154123Y-126161071D01*
X75523586Y-127520484D02*
X79168722Y-127520484D01*
X80881688Y-125807518D02*
X80386713Y-125312543D01*
X73810620Y-125807518D02*
X74305595Y-125312543D01*
X143346182Y-112497945D02*
X144210620Y-111633506D01*
X145059148Y-110784978D02*
X145554123Y-111279953D01*
X151281688Y-117007518D02*
X152146126Y-116143080D01*
X145059148Y-117856046D02*
X145554123Y-117361071D01*
X151281688Y-111633506D02*
X152146126Y-112497945D01*
X149938185Y-111279953D02*
X150433160Y-110784978D01*
X150786713Y-112128481D02*
X151281688Y-111633506D01*
X145059148Y-117856046D02*
X145923586Y-118720484D01*
X145059148Y-110784978D02*
X145923586Y-109920540D01*
X149938185Y-117361071D02*
X150786713Y-116512543D01*
X152146126Y-112497945D02*
X152146126Y-116143080D01*
X149568722Y-118720484D02*
X150433160Y-117856046D01*
X144210620Y-111633506D02*
X144705595Y-112128481D01*
X143346182Y-116143080D02*
X144210620Y-117007518D01*
X144705595Y-112128481D02*
X145554123Y-111279953D01*
X145923586Y-109920540D02*
X149568722Y-109920540D01*
X143346182Y-116143080D02*
X143346182Y-112497945D01*
X149568722Y-109920540D02*
X150433160Y-110784978D01*
X149938185Y-111279953D02*
X150786713Y-112128481D01*
X150433160Y-117856046D02*
X149938185Y-117361071D01*
X144705595Y-116512543D02*
X145554123Y-117361071D01*
X145923586Y-118720484D02*
X149568722Y-118720484D01*
X151281688Y-117007518D02*
X150786713Y-116512543D01*
X144210620Y-117007518D02*
X144705595Y-116512543D01*
X134546182Y-112497945D02*
X135410620Y-111633506D01*
X136259148Y-110784978D02*
X136754123Y-111279953D01*
X142481688Y-117007518D02*
X143346126Y-116143080D01*
X136259148Y-117856046D02*
X136754123Y-117361071D01*
X142481688Y-111633506D02*
X143346126Y-112497945D01*
X141138185Y-111279953D02*
X141633160Y-110784978D01*
X141986713Y-112128481D02*
X142481688Y-111633506D01*
X136259148Y-117856046D02*
X137123586Y-118720484D01*
X136259148Y-110784978D02*
X137123586Y-109920540D01*
X141138185Y-117361071D02*
X141986713Y-116512543D01*
X143346126Y-112497945D02*
X143346126Y-116143080D01*
X140768722Y-118720484D02*
X141633160Y-117856046D01*
X135410620Y-111633506D02*
X135905595Y-112128481D01*
X134546182Y-116143080D02*
X135410620Y-117007518D01*
X135905595Y-112128481D02*
X136754123Y-111279953D01*
X137123586Y-109920540D02*
X140768722Y-109920540D01*
X134546182Y-116143080D02*
X134546182Y-112497945D01*
X140768722Y-109920540D02*
X141633160Y-110784978D01*
X141138185Y-111279953D02*
X141986713Y-112128481D01*
X141633160Y-117856046D02*
X141138185Y-117361071D01*
X135905595Y-116512543D02*
X136754123Y-117361071D01*
X137123586Y-118720484D02*
X140768722Y-118720484D01*
X142481688Y-117007518D02*
X141986713Y-116512543D01*
X135410620Y-117007518D02*
X135905595Y-116512543D01*
X125746182Y-112497945D02*
X126610620Y-111633506D01*
X127459148Y-110784978D02*
X127954123Y-111279953D01*
X133681688Y-117007518D02*
X134546126Y-116143080D01*
X127459148Y-117856046D02*
X127954123Y-117361071D01*
X133681688Y-111633506D02*
X134546126Y-112497945D01*
X132338185Y-111279953D02*
X132833160Y-110784978D01*
X133186713Y-112128481D02*
X133681688Y-111633506D01*
X127459148Y-117856046D02*
X128323586Y-118720484D01*
X127459148Y-110784978D02*
X128323586Y-109920540D01*
X132338185Y-117361071D02*
X133186713Y-116512543D01*
X134546126Y-112497945D02*
X134546126Y-116143080D01*
X131968722Y-118720484D02*
X132833160Y-117856046D01*
X126610620Y-111633506D02*
X127105595Y-112128481D01*
X125746182Y-116143080D02*
X126610620Y-117007518D01*
X127105595Y-112128481D02*
X127954123Y-111279953D01*
X128323586Y-109920540D02*
X131968722Y-109920540D01*
X125746182Y-116143080D02*
X125746182Y-112497945D01*
X131968722Y-109920540D02*
X132833160Y-110784978D01*
X132338185Y-111279953D02*
X133186713Y-112128481D01*
X132833160Y-117856046D02*
X132338185Y-117361071D01*
X127105595Y-116512543D02*
X127954123Y-117361071D01*
X128323586Y-118720484D02*
X131968722Y-118720484D01*
X133681688Y-117007518D02*
X133186713Y-116512543D01*
X126610620Y-117007518D02*
X127105595Y-116512543D01*
X116946182Y-112497945D02*
X117810620Y-111633506D01*
X118659148Y-110784978D02*
X119154123Y-111279953D01*
X124881688Y-117007518D02*
X125746126Y-116143080D01*
X118659148Y-117856046D02*
X119154123Y-117361071D01*
X124881688Y-111633506D02*
X125746126Y-112497945D01*
X123538185Y-111279953D02*
X124033160Y-110784978D01*
X124386713Y-112128481D02*
X124881688Y-111633506D01*
X118659148Y-117856046D02*
X119523586Y-118720484D01*
X118659148Y-110784978D02*
X119523586Y-109920540D01*
X123538185Y-117361071D02*
X124386713Y-116512543D01*
X125746126Y-112497945D02*
X125746126Y-116143080D01*
X123168722Y-118720484D02*
X124033160Y-117856046D01*
X117810620Y-111633506D02*
X118305595Y-112128481D01*
X116946182Y-116143080D02*
X117810620Y-117007518D01*
X118305595Y-112128481D02*
X119154123Y-111279953D01*
X119523586Y-109920540D02*
X123168722Y-109920540D01*
X116946182Y-116143080D02*
X116946182Y-112497945D01*
X123168722Y-109920540D02*
X124033160Y-110784978D01*
X123538185Y-111279953D02*
X124386713Y-112128481D01*
X124033160Y-117856046D02*
X123538185Y-117361071D01*
X118305595Y-116512543D02*
X119154123Y-117361071D01*
X119523586Y-118720484D02*
X123168722Y-118720484D01*
X124881688Y-117007518D02*
X124386713Y-116512543D01*
X117810620Y-117007518D02*
X118305595Y-116512543D01*
X108146182Y-112497945D02*
X109010620Y-111633506D01*
X109859148Y-110784978D02*
X110354123Y-111279953D01*
X116081688Y-117007518D02*
X116946126Y-116143080D01*
X109859148Y-117856046D02*
X110354123Y-117361071D01*
X116081688Y-111633506D02*
X116946126Y-112497945D01*
X114738185Y-111279953D02*
X115233160Y-110784978D01*
X115586713Y-112128481D02*
X116081688Y-111633506D01*
X109859148Y-117856046D02*
X110723586Y-118720484D01*
X109859148Y-110784978D02*
X110723586Y-109920540D01*
X114738185Y-117361071D02*
X115586713Y-116512543D01*
X116946126Y-112497945D02*
X116946126Y-116143080D01*
X114368722Y-118720484D02*
X115233160Y-117856046D01*
X109010620Y-111633506D02*
X109505595Y-112128481D01*
X108146182Y-116143080D02*
X109010620Y-117007518D01*
X109505595Y-112128481D02*
X110354123Y-111279953D01*
X110723586Y-109920540D02*
X114368722Y-109920540D01*
X108146182Y-116143080D02*
X108146182Y-112497945D01*
X114368722Y-109920540D02*
X115233160Y-110784978D01*
X114738185Y-111279953D02*
X115586713Y-112128481D01*
X115233160Y-117856046D02*
X114738185Y-117361071D01*
X109505595Y-116512543D02*
X110354123Y-117361071D01*
X110723586Y-118720484D02*
X114368722Y-118720484D01*
X116081688Y-117007518D02*
X115586713Y-116512543D01*
X109010620Y-117007518D02*
X109505595Y-116512543D01*
X99346182Y-112497945D02*
X100210620Y-111633506D01*
X101059148Y-110784978D02*
X101554123Y-111279953D01*
X107281688Y-117007518D02*
X108146126Y-116143080D01*
X101059148Y-117856046D02*
X101554123Y-117361071D01*
X107281688Y-111633506D02*
X108146126Y-112497945D01*
X105938185Y-111279953D02*
X106433160Y-110784978D01*
X106786713Y-112128481D02*
X107281688Y-111633506D01*
X101059148Y-117856046D02*
X101923586Y-118720484D01*
X101059148Y-110784978D02*
X101923586Y-109920540D01*
X105938185Y-117361071D02*
X106786713Y-116512543D01*
X108146126Y-112497945D02*
X108146126Y-116143080D01*
X105568722Y-118720484D02*
X106433160Y-117856046D01*
X100210620Y-111633506D02*
X100705595Y-112128481D01*
X99346182Y-116143080D02*
X100210620Y-117007518D01*
X100705595Y-112128481D02*
X101554123Y-111279953D01*
X101923586Y-109920540D02*
X105568722Y-109920540D01*
X99346182Y-116143080D02*
X99346182Y-112497945D01*
X105568722Y-109920540D02*
X106433160Y-110784978D01*
X105938185Y-111279953D02*
X106786713Y-112128481D01*
X106433160Y-117856046D02*
X105938185Y-117361071D01*
X100705595Y-116512543D02*
X101554123Y-117361071D01*
X101923586Y-118720484D02*
X105568722Y-118720484D01*
X107281688Y-117007518D02*
X106786713Y-116512543D01*
X100210620Y-117007518D02*
X100705595Y-116512543D01*
X90546182Y-112497945D02*
X91410620Y-111633506D01*
X92259148Y-110784978D02*
X92754123Y-111279953D01*
X98481688Y-117007518D02*
X99346126Y-116143080D01*
X92259148Y-117856046D02*
X92754123Y-117361071D01*
X98481688Y-111633506D02*
X99346126Y-112497945D01*
X97138185Y-111279953D02*
X97633160Y-110784978D01*
X97986713Y-112128481D02*
X98481688Y-111633506D01*
X92259148Y-117856046D02*
X93123586Y-118720484D01*
X92259148Y-110784978D02*
X93123586Y-109920540D01*
X97138185Y-117361071D02*
X97986713Y-116512543D01*
X99346126Y-112497945D02*
X99346126Y-116143080D01*
X96768722Y-118720484D02*
X97633160Y-117856046D01*
X91410620Y-111633506D02*
X91905595Y-112128481D01*
X90546182Y-116143080D02*
X91410620Y-117007518D01*
X91905595Y-112128481D02*
X92754123Y-111279953D01*
X93123586Y-109920540D02*
X96768722Y-109920540D01*
X90546182Y-116143080D02*
X90546182Y-112497945D01*
X96768722Y-109920540D02*
X97633160Y-110784978D01*
X97138185Y-111279953D02*
X97986713Y-112128481D01*
X97633160Y-117856046D02*
X97138185Y-117361071D01*
X91905595Y-116512543D02*
X92754123Y-117361071D01*
X93123586Y-118720484D02*
X96768722Y-118720484D01*
X98481688Y-117007518D02*
X97986713Y-116512543D01*
X91410620Y-117007518D02*
X91905595Y-116512543D01*
X81746182Y-112497945D02*
X82610620Y-111633506D01*
X83459148Y-110784978D02*
X83954123Y-111279953D01*
X89681688Y-117007518D02*
X90546126Y-116143080D01*
X83459148Y-117856046D02*
X83954123Y-117361071D01*
X89681688Y-111633506D02*
X90546126Y-112497945D01*
X88338185Y-111279953D02*
X88833160Y-110784978D01*
X89186713Y-112128481D02*
X89681688Y-111633506D01*
X83459148Y-117856046D02*
X84323586Y-118720484D01*
X83459148Y-110784978D02*
X84323586Y-109920540D01*
X88338185Y-117361071D02*
X89186713Y-116512543D01*
X90546126Y-112497945D02*
X90546126Y-116143080D01*
X87968722Y-118720484D02*
X88833160Y-117856046D01*
X82610620Y-111633506D02*
X83105595Y-112128481D01*
X81746182Y-116143080D02*
X82610620Y-117007518D01*
X83105595Y-112128481D02*
X83954123Y-111279953D01*
X84323586Y-109920540D02*
X87968722Y-109920540D01*
X81746182Y-116143080D02*
X81746182Y-112497945D01*
X87968722Y-109920540D02*
X88833160Y-110784978D01*
X88338185Y-111279953D02*
X89186713Y-112128481D01*
X88833160Y-117856046D02*
X88338185Y-117361071D01*
X83105595Y-116512543D02*
X83954123Y-117361071D01*
X84323586Y-118720484D02*
X87968722Y-118720484D01*
X89681688Y-117007518D02*
X89186713Y-116512543D01*
X82610620Y-117007518D02*
X83105595Y-116512543D01*
X72946182Y-112497945D02*
X73810620Y-111633506D01*
X74659148Y-110784978D02*
X75154123Y-111279953D01*
X80881688Y-117007518D02*
X81746126Y-116143080D01*
X74659148Y-117856046D02*
X75154123Y-117361071D01*
X80881688Y-111633506D02*
X81746126Y-112497945D01*
X79538185Y-111279953D02*
X80033160Y-110784978D01*
X80386713Y-112128481D02*
X80881688Y-111633506D01*
X74659148Y-117856046D02*
X75523586Y-118720484D01*
X74659148Y-110784978D02*
X75523586Y-109920540D01*
X79538185Y-117361071D02*
X80386713Y-116512543D01*
X81746126Y-112497945D02*
X81746126Y-116143080D01*
X79168722Y-118720484D02*
X80033160Y-117856046D01*
X73810620Y-111633506D02*
X74305595Y-112128481D01*
X72946182Y-116143080D02*
X73810620Y-117007518D01*
X74305595Y-112128481D02*
X75154123Y-111279953D01*
X75523586Y-109920540D02*
X79168722Y-109920540D01*
X72946182Y-116143080D02*
X72946182Y-112497945D01*
X79168722Y-109920540D02*
X80033160Y-110784978D01*
X79538185Y-111279953D02*
X80386713Y-112128481D01*
X80033160Y-117856046D02*
X79538185Y-117361071D01*
X74305595Y-116512543D02*
X75154123Y-117361071D01*
X75523586Y-118720484D02*
X79168722Y-118720484D01*
X80881688Y-117007518D02*
X80386713Y-116512543D01*
X73810620Y-117007518D02*
X74305595Y-116512543D01*
X143346182Y-103697945D02*
X144210620Y-102833506D01*
X145059148Y-101984978D02*
X145554123Y-102479953D01*
X151281688Y-108207518D02*
X152146126Y-107343080D01*
X145059148Y-109056046D02*
X145554123Y-108561071D01*
X151281688Y-102833506D02*
X152146126Y-103697945D01*
X149938185Y-102479953D02*
X150433160Y-101984978D01*
X150786713Y-103328481D02*
X151281688Y-102833506D01*
X145059148Y-109056046D02*
X145923586Y-109920484D01*
X145059148Y-101984978D02*
X145923586Y-101120540D01*
X149938185Y-108561071D02*
X150786713Y-107712543D01*
X152146126Y-103697945D02*
X152146126Y-107343080D01*
X149568722Y-109920484D02*
X150433160Y-109056046D01*
X144210620Y-102833506D02*
X144705595Y-103328481D01*
X143346182Y-107343080D02*
X144210620Y-108207518D01*
X144705595Y-103328481D02*
X145554123Y-102479953D01*
X145923586Y-101120540D02*
X149568722Y-101120540D01*
X143346182Y-107343080D02*
X143346182Y-103697945D01*
X149568722Y-101120540D02*
X150433160Y-101984978D01*
X149938185Y-102479953D02*
X150786713Y-103328481D01*
X150433160Y-109056046D02*
X149938185Y-108561071D01*
X144705595Y-107712543D02*
X145554123Y-108561071D01*
X145923586Y-109920484D02*
X149568722Y-109920484D01*
X151281688Y-108207518D02*
X150786713Y-107712543D01*
X144210620Y-108207518D02*
X144705595Y-107712543D01*
X134546182Y-103697945D02*
X135410620Y-102833506D01*
X136259148Y-101984978D02*
X136754123Y-102479953D01*
X142481688Y-108207518D02*
X143346126Y-107343080D01*
X136259148Y-109056046D02*
X136754123Y-108561071D01*
X142481688Y-102833506D02*
X143346126Y-103697945D01*
X141138185Y-102479953D02*
X141633160Y-101984978D01*
X141986713Y-103328481D02*
X142481688Y-102833506D01*
X136259148Y-109056046D02*
X137123586Y-109920484D01*
X136259148Y-101984978D02*
X137123586Y-101120540D01*
X141138185Y-108561071D02*
X141986713Y-107712543D01*
X143346126Y-103697945D02*
X143346126Y-107343080D01*
X140768722Y-109920484D02*
X141633160Y-109056046D01*
X135410620Y-102833506D02*
X135905595Y-103328481D01*
X134546182Y-107343080D02*
X135410620Y-108207518D01*
X135905595Y-103328481D02*
X136754123Y-102479953D01*
X137123586Y-101120540D02*
X140768722Y-101120540D01*
X134546182Y-107343080D02*
X134546182Y-103697945D01*
X140768722Y-101120540D02*
X141633160Y-101984978D01*
X141138185Y-102479953D02*
X141986713Y-103328481D01*
X141633160Y-109056046D02*
X141138185Y-108561071D01*
X135905595Y-107712543D02*
X136754123Y-108561071D01*
X137123586Y-109920484D02*
X140768722Y-109920484D01*
X142481688Y-108207518D02*
X141986713Y-107712543D01*
X135410620Y-108207518D02*
X135905595Y-107712543D01*
X125746182Y-103697945D02*
X126610620Y-102833506D01*
X127459148Y-101984978D02*
X127954123Y-102479953D01*
X133681688Y-108207518D02*
X134546126Y-107343080D01*
X127459148Y-109056046D02*
X127954123Y-108561071D01*
X133681688Y-102833506D02*
X134546126Y-103697945D01*
X132338185Y-102479953D02*
X132833160Y-101984978D01*
X133186713Y-103328481D02*
X133681688Y-102833506D01*
X127459148Y-109056046D02*
X128323586Y-109920484D01*
X127459148Y-101984978D02*
X128323586Y-101120540D01*
X132338185Y-108561071D02*
X133186713Y-107712543D01*
X134546126Y-103697945D02*
X134546126Y-107343080D01*
X131968722Y-109920484D02*
X132833160Y-109056046D01*
X126610620Y-102833506D02*
X127105595Y-103328481D01*
X125746182Y-107343080D02*
X126610620Y-108207518D01*
X127105595Y-103328481D02*
X127954123Y-102479953D01*
X128323586Y-101120540D02*
X131968722Y-101120540D01*
X125746182Y-107343080D02*
X125746182Y-103697945D01*
X131968722Y-101120540D02*
X132833160Y-101984978D01*
X132338185Y-102479953D02*
X133186713Y-103328481D01*
X132833160Y-109056046D02*
X132338185Y-108561071D01*
X127105595Y-107712543D02*
X127954123Y-108561071D01*
X128323586Y-109920484D02*
X131968722Y-109920484D01*
X133681688Y-108207518D02*
X133186713Y-107712543D01*
X126610620Y-108207518D02*
X127105595Y-107712543D01*
X116946182Y-103697945D02*
X117810620Y-102833506D01*
X118659148Y-101984978D02*
X119154123Y-102479953D01*
X124881688Y-108207518D02*
X125746126Y-107343080D01*
X118659148Y-109056046D02*
X119154123Y-108561071D01*
X124881688Y-102833506D02*
X125746126Y-103697945D01*
X123538185Y-102479953D02*
X124033160Y-101984978D01*
X124386713Y-103328481D02*
X124881688Y-102833506D01*
X118659148Y-109056046D02*
X119523586Y-109920484D01*
X118659148Y-101984978D02*
X119523586Y-101120540D01*
X123538185Y-108561071D02*
X124386713Y-107712543D01*
X125746126Y-103697945D02*
X125746126Y-107343080D01*
X123168722Y-109920484D02*
X124033160Y-109056046D01*
X117810620Y-102833506D02*
X118305595Y-103328481D01*
X116946182Y-107343080D02*
X117810620Y-108207518D01*
X118305595Y-103328481D02*
X119154123Y-102479953D01*
X119523586Y-101120540D02*
X123168722Y-101120540D01*
X116946182Y-107343080D02*
X116946182Y-103697945D01*
X123168722Y-101120540D02*
X124033160Y-101984978D01*
X123538185Y-102479953D02*
X124386713Y-103328481D01*
X124033160Y-109056046D02*
X123538185Y-108561071D01*
X118305595Y-107712543D02*
X119154123Y-108561071D01*
X119523586Y-109920484D02*
X123168722Y-109920484D01*
X124881688Y-108207518D02*
X124386713Y-107712543D01*
X117810620Y-108207518D02*
X118305595Y-107712543D01*
X108146182Y-103697945D02*
X109010620Y-102833506D01*
X109859148Y-101984978D02*
X110354123Y-102479953D01*
X116081688Y-108207518D02*
X116946126Y-107343080D01*
X109859148Y-109056046D02*
X110354123Y-108561071D01*
X116081688Y-102833506D02*
X116946126Y-103697945D01*
X114738185Y-102479953D02*
X115233160Y-101984978D01*
X115586713Y-103328481D02*
X116081688Y-102833506D01*
X109859148Y-109056046D02*
X110723586Y-109920484D01*
X109859148Y-101984978D02*
X110723586Y-101120540D01*
X114738185Y-108561071D02*
X115586713Y-107712543D01*
X116946126Y-103697945D02*
X116946126Y-107343080D01*
X114368722Y-109920484D02*
X115233160Y-109056046D01*
X109010620Y-102833506D02*
X109505595Y-103328481D01*
X108146182Y-107343080D02*
X109010620Y-108207518D01*
X109505595Y-103328481D02*
X110354123Y-102479953D01*
X110723586Y-101120540D02*
X114368722Y-101120540D01*
X108146182Y-107343080D02*
X108146182Y-103697945D01*
X114368722Y-101120540D02*
X115233160Y-101984978D01*
X114738185Y-102479953D02*
X115586713Y-103328481D01*
X115233160Y-109056046D02*
X114738185Y-108561071D01*
X109505595Y-107712543D02*
X110354123Y-108561071D01*
X110723586Y-109920484D02*
X114368722Y-109920484D01*
X116081688Y-108207518D02*
X115586713Y-107712543D01*
X109010620Y-108207518D02*
X109505595Y-107712543D01*
X99346182Y-103697945D02*
X100210620Y-102833506D01*
X101059148Y-101984978D02*
X101554123Y-102479953D01*
X107281688Y-108207518D02*
X108146126Y-107343080D01*
X101059148Y-109056046D02*
X101554123Y-108561071D01*
X107281688Y-102833506D02*
X108146126Y-103697945D01*
X105938185Y-102479953D02*
X106433160Y-101984978D01*
X106786713Y-103328481D02*
X107281688Y-102833506D01*
X101059148Y-109056046D02*
X101923586Y-109920484D01*
X101059148Y-101984978D02*
X101923586Y-101120540D01*
X105938185Y-108561071D02*
X106786713Y-107712543D01*
X108146126Y-103697945D02*
X108146126Y-107343080D01*
X105568722Y-109920484D02*
X106433160Y-109056046D01*
X100210620Y-102833506D02*
X100705595Y-103328481D01*
X99346182Y-107343080D02*
X100210620Y-108207518D01*
X100705595Y-103328481D02*
X101554123Y-102479953D01*
X101923586Y-101120540D02*
X105568722Y-101120540D01*
X99346182Y-107343080D02*
X99346182Y-103697945D01*
X105568722Y-101120540D02*
X106433160Y-101984978D01*
X105938185Y-102479953D02*
X106786713Y-103328481D01*
X106433160Y-109056046D02*
X105938185Y-108561071D01*
X100705595Y-107712543D02*
X101554123Y-108561071D01*
X101923586Y-109920484D02*
X105568722Y-109920484D01*
X107281688Y-108207518D02*
X106786713Y-107712543D01*
X100210620Y-108207518D02*
X100705595Y-107712543D01*
X90546182Y-103697945D02*
X91410620Y-102833506D01*
X92259148Y-101984978D02*
X92754123Y-102479953D01*
X98481688Y-108207518D02*
X99346126Y-107343080D01*
X92259148Y-109056046D02*
X92754123Y-108561071D01*
X98481688Y-102833506D02*
X99346126Y-103697945D01*
X97138185Y-102479953D02*
X97633160Y-101984978D01*
X97986713Y-103328481D02*
X98481688Y-102833506D01*
X92259148Y-109056046D02*
X93123586Y-109920484D01*
X92259148Y-101984978D02*
X93123586Y-101120540D01*
X97138185Y-108561071D02*
X97986713Y-107712543D01*
X99346126Y-103697945D02*
X99346126Y-107343080D01*
X96768722Y-109920484D02*
X97633160Y-109056046D01*
X91410620Y-102833506D02*
X91905595Y-103328481D01*
X90546182Y-107343080D02*
X91410620Y-108207518D01*
X91905595Y-103328481D02*
X92754123Y-102479953D01*
X93123586Y-101120540D02*
X96768722Y-101120540D01*
X90546182Y-107343080D02*
X90546182Y-103697945D01*
X96768722Y-101120540D02*
X97633160Y-101984978D01*
X97138185Y-102479953D02*
X97986713Y-103328481D01*
X97633160Y-109056046D02*
X97138185Y-108561071D01*
X91905595Y-107712543D02*
X92754123Y-108561071D01*
X93123586Y-109920484D02*
X96768722Y-109920484D01*
X98481688Y-108207518D02*
X97986713Y-107712543D01*
X91410620Y-108207518D02*
X91905595Y-107712543D01*
X81746182Y-103697945D02*
X82610620Y-102833506D01*
X83459148Y-101984978D02*
X83954123Y-102479953D01*
X89681688Y-108207518D02*
X90546126Y-107343080D01*
X83459148Y-109056046D02*
X83954123Y-108561071D01*
X89681688Y-102833506D02*
X90546126Y-103697945D01*
X88338185Y-102479953D02*
X88833160Y-101984978D01*
X89186713Y-103328481D02*
X89681688Y-102833506D01*
X83459148Y-109056046D02*
X84323586Y-109920484D01*
X83459148Y-101984978D02*
X84323586Y-101120540D01*
X88338185Y-108561071D02*
X89186713Y-107712543D01*
X90546126Y-103697945D02*
X90546126Y-107343080D01*
X87968722Y-109920484D02*
X88833160Y-109056046D01*
X82610620Y-102833506D02*
X83105595Y-103328481D01*
X81746182Y-107343080D02*
X82610620Y-108207518D01*
X83105595Y-103328481D02*
X83954123Y-102479953D01*
X84323586Y-101120540D02*
X87968722Y-101120540D01*
X81746182Y-107343080D02*
X81746182Y-103697945D01*
X87968722Y-101120540D02*
X88833160Y-101984978D01*
X88338185Y-102479953D02*
X89186713Y-103328481D01*
X88833160Y-109056046D02*
X88338185Y-108561071D01*
X83105595Y-107712543D02*
X83954123Y-108561071D01*
X84323586Y-109920484D02*
X87968722Y-109920484D01*
X89681688Y-108207518D02*
X89186713Y-107712543D01*
X82610620Y-108207518D02*
X83105595Y-107712543D01*
X72946182Y-103697945D02*
X73810620Y-102833506D01*
X74659148Y-101984978D02*
X75154123Y-102479953D01*
X80881688Y-108207518D02*
X81746126Y-107343080D01*
X74659148Y-109056046D02*
X75154123Y-108561071D01*
X80881688Y-102833506D02*
X81746126Y-103697945D01*
X79538185Y-102479953D02*
X80033160Y-101984978D01*
X80386713Y-103328481D02*
X80881688Y-102833506D01*
X74659148Y-109056046D02*
X75523586Y-109920484D01*
X74659148Y-101984978D02*
X75523586Y-101120540D01*
X79538185Y-108561071D02*
X80386713Y-107712543D01*
X81746126Y-103697945D02*
X81746126Y-107343080D01*
X79168722Y-109920484D02*
X80033160Y-109056046D01*
X73810620Y-102833506D02*
X74305595Y-103328481D01*
X72946182Y-107343080D02*
X73810620Y-108207518D01*
X74305595Y-103328481D02*
X75154123Y-102479953D01*
X75523586Y-101120540D02*
X79168722Y-101120540D01*
X72946182Y-107343080D02*
X72946182Y-103697945D01*
X79168722Y-101120540D02*
X80033160Y-101984978D01*
X79538185Y-102479953D02*
X80386713Y-103328481D01*
X80033160Y-109056046D02*
X79538185Y-108561071D01*
X74305595Y-107712543D02*
X75154123Y-108561071D01*
X75523586Y-109920484D02*
X79168722Y-109920484D01*
X80881688Y-108207518D02*
X80386713Y-107712543D01*
X73810620Y-108207518D02*
X74305595Y-107712543D01*
X143346182Y-94897945D02*
X144210620Y-94033506D01*
X145059148Y-93184978D02*
X145554123Y-93679953D01*
X151281688Y-99407518D02*
X152146126Y-98543080D01*
X145059148Y-100256046D02*
X145554123Y-99761071D01*
X151281688Y-94033506D02*
X152146126Y-94897945D01*
X149938185Y-93679953D02*
X150433160Y-93184978D01*
X150786713Y-94528481D02*
X151281688Y-94033506D01*
X145059148Y-100256046D02*
X145923586Y-101120484D01*
X145059148Y-93184978D02*
X145923586Y-92320540D01*
X149938185Y-99761071D02*
X150786713Y-98912543D01*
X152146126Y-94897945D02*
X152146126Y-98543080D01*
X149568722Y-101120484D02*
X150433160Y-100256046D01*
X144210620Y-94033506D02*
X144705595Y-94528481D01*
X143346182Y-98543080D02*
X144210620Y-99407518D01*
X144705595Y-94528481D02*
X145554123Y-93679953D01*
X145923586Y-92320540D02*
X149568722Y-92320540D01*
X143346182Y-98543080D02*
X143346182Y-94897945D01*
X149568722Y-92320540D02*
X150433160Y-93184978D01*
X149938185Y-93679953D02*
X150786713Y-94528481D01*
X150433160Y-100256046D02*
X149938185Y-99761071D01*
X144705595Y-98912543D02*
X145554123Y-99761071D01*
X145923586Y-101120484D02*
X149568722Y-101120484D01*
X151281688Y-99407518D02*
X150786713Y-98912543D01*
X144210620Y-99407518D02*
X144705595Y-98912543D01*
X134546182Y-94897945D02*
X135410620Y-94033506D01*
X136259148Y-93184978D02*
X136754123Y-93679953D01*
X142481688Y-99407518D02*
X143346126Y-98543080D01*
X136259148Y-100256046D02*
X136754123Y-99761071D01*
X142481688Y-94033506D02*
X143346126Y-94897945D01*
X141138185Y-93679953D02*
X141633160Y-93184978D01*
X141986713Y-94528481D02*
X142481688Y-94033506D01*
X136259148Y-100256046D02*
X137123586Y-101120484D01*
X136259148Y-93184978D02*
X137123586Y-92320540D01*
X141138185Y-99761071D02*
X141986713Y-98912543D01*
X143346126Y-94897945D02*
X143346126Y-98543080D01*
X140768722Y-101120484D02*
X141633160Y-100256046D01*
X135410620Y-94033506D02*
X135905595Y-94528481D01*
X134546182Y-98543080D02*
X135410620Y-99407518D01*
X135905595Y-94528481D02*
X136754123Y-93679953D01*
X137123586Y-92320540D02*
X140768722Y-92320540D01*
X134546182Y-98543080D02*
X134546182Y-94897945D01*
X140768722Y-92320540D02*
X141633160Y-93184978D01*
X141138185Y-93679953D02*
X141986713Y-94528481D01*
X141633160Y-100256046D02*
X141138185Y-99761071D01*
X135905595Y-98912543D02*
X136754123Y-99761071D01*
X137123586Y-101120484D02*
X140768722Y-101120484D01*
X142481688Y-99407518D02*
X141986713Y-98912543D01*
X135410620Y-99407518D02*
X135905595Y-98912543D01*
X125746182Y-94897945D02*
X126610620Y-94033506D01*
X127459148Y-93184978D02*
X127954123Y-93679953D01*
X133681688Y-99407518D02*
X134546126Y-98543080D01*
X127459148Y-100256046D02*
X127954123Y-99761071D01*
X133681688Y-94033506D02*
X134546126Y-94897945D01*
X132338185Y-93679953D02*
X132833160Y-93184978D01*
X133186713Y-94528481D02*
X133681688Y-94033506D01*
X127459148Y-100256046D02*
X128323586Y-101120484D01*
X127459148Y-93184978D02*
X128323586Y-92320540D01*
X132338185Y-99761071D02*
X133186713Y-98912543D01*
X134546126Y-94897945D02*
X134546126Y-98543080D01*
X131968722Y-101120484D02*
X132833160Y-100256046D01*
X126610620Y-94033506D02*
X127105595Y-94528481D01*
X125746182Y-98543080D02*
X126610620Y-99407518D01*
X127105595Y-94528481D02*
X127954123Y-93679953D01*
X128323586Y-92320540D02*
X131968722Y-92320540D01*
X125746182Y-98543080D02*
X125746182Y-94897945D01*
X131968722Y-92320540D02*
X132833160Y-93184978D01*
X132338185Y-93679953D02*
X133186713Y-94528481D01*
X132833160Y-100256046D02*
X132338185Y-99761071D01*
X127105595Y-98912543D02*
X127954123Y-99761071D01*
X128323586Y-101120484D02*
X131968722Y-101120484D01*
X133681688Y-99407518D02*
X133186713Y-98912543D01*
X126610620Y-99407518D02*
X127105595Y-98912543D01*
X116946182Y-94897945D02*
X117810620Y-94033506D01*
X118659148Y-93184978D02*
X119154123Y-93679953D01*
X124881688Y-99407518D02*
X125746126Y-98543080D01*
X118659148Y-100256046D02*
X119154123Y-99761071D01*
X124881688Y-94033506D02*
X125746126Y-94897945D01*
X123538185Y-93679953D02*
X124033160Y-93184978D01*
X124386713Y-94528481D02*
X124881688Y-94033506D01*
X118659148Y-100256046D02*
X119523586Y-101120484D01*
X118659148Y-93184978D02*
X119523586Y-92320540D01*
X123538185Y-99761071D02*
X124386713Y-98912543D01*
X125746126Y-94897945D02*
X125746126Y-98543080D01*
X123168722Y-101120484D02*
X124033160Y-100256046D01*
X117810620Y-94033506D02*
X118305595Y-94528481D01*
X116946182Y-98543080D02*
X117810620Y-99407518D01*
X118305595Y-94528481D02*
X119154123Y-93679953D01*
X119523586Y-92320540D02*
X123168722Y-92320540D01*
X116946182Y-98543080D02*
X116946182Y-94897945D01*
X123168722Y-92320540D02*
X124033160Y-93184978D01*
X123538185Y-93679953D02*
X124386713Y-94528481D01*
X124033160Y-100256046D02*
X123538185Y-99761071D01*
X118305595Y-98912543D02*
X119154123Y-99761071D01*
X119523586Y-101120484D02*
X123168722Y-101120484D01*
X124881688Y-99407518D02*
X124386713Y-98912543D01*
X117810620Y-99407518D02*
X118305595Y-98912543D01*
X108146182Y-94897945D02*
X109010620Y-94033506D01*
X109859148Y-93184978D02*
X110354123Y-93679953D01*
X116081688Y-99407518D02*
X116946126Y-98543080D01*
X109859148Y-100256046D02*
X110354123Y-99761071D01*
X116081688Y-94033506D02*
X116946126Y-94897945D01*
X114738185Y-93679953D02*
X115233160Y-93184978D01*
X115586713Y-94528481D02*
X116081688Y-94033506D01*
X109859148Y-100256046D02*
X110723586Y-101120484D01*
X109859148Y-93184978D02*
X110723586Y-92320540D01*
X114738185Y-99761071D02*
X115586713Y-98912543D01*
X116946126Y-94897945D02*
X116946126Y-98543080D01*
X114368722Y-101120484D02*
X115233160Y-100256046D01*
X109010620Y-94033506D02*
X109505595Y-94528481D01*
X108146182Y-98543080D02*
X109010620Y-99407518D01*
X109505595Y-94528481D02*
X110354123Y-93679953D01*
X110723586Y-92320540D02*
X114368722Y-92320540D01*
X108146182Y-98543080D02*
X108146182Y-94897945D01*
X114368722Y-92320540D02*
X115233160Y-93184978D01*
X114738185Y-93679953D02*
X115586713Y-94528481D01*
X115233160Y-100256046D02*
X114738185Y-99761071D01*
X109505595Y-98912543D02*
X110354123Y-99761071D01*
X110723586Y-101120484D02*
X114368722Y-101120484D01*
X116081688Y-99407518D02*
X115586713Y-98912543D01*
X109010620Y-99407518D02*
X109505595Y-98912543D01*
X99346182Y-94897945D02*
X100210620Y-94033506D01*
X101059148Y-93184978D02*
X101554123Y-93679953D01*
X107281688Y-99407518D02*
X108146126Y-98543080D01*
X101059148Y-100256046D02*
X101554123Y-99761071D01*
X107281688Y-94033506D02*
X108146126Y-94897945D01*
X105938185Y-93679953D02*
X106433160Y-93184978D01*
X106786713Y-94528481D02*
X107281688Y-94033506D01*
X101059148Y-100256046D02*
X101923586Y-101120484D01*
X101059148Y-93184978D02*
X101923586Y-92320540D01*
X105938185Y-99761071D02*
X106786713Y-98912543D01*
X108146126Y-94897945D02*
X108146126Y-98543080D01*
X105568722Y-101120484D02*
X106433160Y-100256046D01*
X100210620Y-94033506D02*
X100705595Y-94528481D01*
X99346182Y-98543080D02*
X100210620Y-99407518D01*
X100705595Y-94528481D02*
X101554123Y-93679953D01*
X101923586Y-92320540D02*
X105568722Y-92320540D01*
X99346182Y-98543080D02*
X99346182Y-94897945D01*
X105568722Y-92320540D02*
X106433160Y-93184978D01*
X105938185Y-93679953D02*
X106786713Y-94528481D01*
X106433160Y-100256046D02*
X105938185Y-99761071D01*
X100705595Y-98912543D02*
X101554123Y-99761071D01*
X101923586Y-101120484D02*
X105568722Y-101120484D01*
X107281688Y-99407518D02*
X106786713Y-98912543D01*
X100210620Y-99407518D02*
X100705595Y-98912543D01*
X90546182Y-94897945D02*
X91410620Y-94033506D01*
X92259148Y-93184978D02*
X92754123Y-93679953D01*
X98481688Y-99407518D02*
X99346126Y-98543080D01*
X92259148Y-100256046D02*
X92754123Y-99761071D01*
X98481688Y-94033506D02*
X99346126Y-94897945D01*
X97138185Y-93679953D02*
X97633160Y-93184978D01*
X97986713Y-94528481D02*
X98481688Y-94033506D01*
X92259148Y-100256046D02*
X93123586Y-101120484D01*
X92259148Y-93184978D02*
X93123586Y-92320540D01*
X97138185Y-99761071D02*
X97986713Y-98912543D01*
X99346126Y-94897945D02*
X99346126Y-98543080D01*
X96768722Y-101120484D02*
X97633160Y-100256046D01*
X91410620Y-94033506D02*
X91905595Y-94528481D01*
X90546182Y-98543080D02*
X91410620Y-99407518D01*
X91905595Y-94528481D02*
X92754123Y-93679953D01*
X93123586Y-92320540D02*
X96768722Y-92320540D01*
X90546182Y-98543080D02*
X90546182Y-94897945D01*
X96768722Y-92320540D02*
X97633160Y-93184978D01*
X97138185Y-93679953D02*
X97986713Y-94528481D01*
X97633160Y-100256046D02*
X97138185Y-99761071D01*
X91905595Y-98912543D02*
X92754123Y-99761071D01*
X93123586Y-101120484D02*
X96768722Y-101120484D01*
X98481688Y-99407518D02*
X97986713Y-98912543D01*
X91410620Y-99407518D02*
X91905595Y-98912543D01*
X81746182Y-94897945D02*
X82610620Y-94033506D01*
X83459148Y-93184978D02*
X83954123Y-93679953D01*
X89681688Y-99407518D02*
X90546126Y-98543080D01*
X83459148Y-100256046D02*
X83954123Y-99761071D01*
X89681688Y-94033506D02*
X90546126Y-94897945D01*
X88338185Y-93679953D02*
X88833160Y-93184978D01*
X89186713Y-94528481D02*
X89681688Y-94033506D01*
X83459148Y-100256046D02*
X84323586Y-101120484D01*
X83459148Y-93184978D02*
X84323586Y-92320540D01*
X88338185Y-99761071D02*
X89186713Y-98912543D01*
X90546126Y-94897945D02*
X90546126Y-98543080D01*
X87968722Y-101120484D02*
X88833160Y-100256046D01*
X82610620Y-94033506D02*
X83105595Y-94528481D01*
X81746182Y-98543080D02*
X82610620Y-99407518D01*
X83105595Y-94528481D02*
X83954123Y-93679953D01*
X84323586Y-92320540D02*
X87968722Y-92320540D01*
X81746182Y-98543080D02*
X81746182Y-94897945D01*
X87968722Y-92320540D02*
X88833160Y-93184978D01*
X88338185Y-93679953D02*
X89186713Y-94528481D01*
X88833160Y-100256046D02*
X88338185Y-99761071D01*
X83105595Y-98912543D02*
X83954123Y-99761071D01*
X84323586Y-101120484D02*
X87968722Y-101120484D01*
X89681688Y-99407518D02*
X89186713Y-98912543D01*
X82610620Y-99407518D02*
X83105595Y-98912543D01*
X72946182Y-94897945D02*
X73810620Y-94033506D01*
X74659148Y-93184978D02*
X75154123Y-93679953D01*
X80881688Y-99407518D02*
X81746126Y-98543080D01*
X74659148Y-100256046D02*
X75154123Y-99761071D01*
X80881688Y-94033506D02*
X81746126Y-94897945D01*
X79538185Y-93679953D02*
X80033160Y-93184978D01*
X80386713Y-94528481D02*
X80881688Y-94033506D01*
X74659148Y-100256046D02*
X75523586Y-101120484D01*
X74659148Y-93184978D02*
X75523586Y-92320540D01*
X79538185Y-99761071D02*
X80386713Y-98912543D01*
X81746126Y-94897945D02*
X81746126Y-98543080D01*
X79168722Y-101120484D02*
X80033160Y-100256046D01*
X73810620Y-94033506D02*
X74305595Y-94528481D01*
X72946182Y-98543080D02*
X73810620Y-99407518D01*
X74305595Y-94528481D02*
X75154123Y-93679953D01*
X75523586Y-92320540D02*
X79168722Y-92320540D01*
X72946182Y-98543080D02*
X72946182Y-94897945D01*
X79168722Y-92320540D02*
X80033160Y-93184978D01*
X79538185Y-93679953D02*
X80386713Y-94528481D01*
X80033160Y-100256046D02*
X79538185Y-99761071D01*
X74305595Y-98912543D02*
X75154123Y-99761071D01*
X75523586Y-101120484D02*
X79168722Y-101120484D01*
X80881688Y-99407518D02*
X80386713Y-98912543D01*
X73810620Y-99407518D02*
X74305595Y-98912543D01*
X143346182Y-86097945D02*
X144210620Y-85233506D01*
X145059148Y-84384978D02*
X145554123Y-84879953D01*
X151281688Y-90607518D02*
X152146126Y-89743080D01*
X145059148Y-91456046D02*
X145554123Y-90961071D01*
X151281688Y-85233506D02*
X152146126Y-86097945D01*
X149938185Y-84879953D02*
X150433160Y-84384978D01*
X150786713Y-85728481D02*
X151281688Y-85233506D01*
X145059148Y-91456046D02*
X145923586Y-92320484D01*
X145059148Y-84384978D02*
X145923586Y-83520540D01*
X149938185Y-90961071D02*
X150786713Y-90112543D01*
X152146126Y-86097945D02*
X152146126Y-89743080D01*
X149568722Y-92320484D02*
X150433160Y-91456046D01*
X144210620Y-85233506D02*
X144705595Y-85728481D01*
X143346182Y-89743080D02*
X144210620Y-90607518D01*
X144705595Y-85728481D02*
X145554123Y-84879953D01*
X145923586Y-83520540D02*
X149568722Y-83520540D01*
X143346182Y-89743080D02*
X143346182Y-86097945D01*
X149568722Y-83520540D02*
X150433160Y-84384978D01*
X149938185Y-84879953D02*
X150786713Y-85728481D01*
X150433160Y-91456046D02*
X149938185Y-90961071D01*
X144705595Y-90112543D02*
X145554123Y-90961071D01*
X145923586Y-92320484D02*
X149568722Y-92320484D01*
X151281688Y-90607518D02*
X150786713Y-90112543D01*
X144210620Y-90607518D02*
X144705595Y-90112543D01*
X134546182Y-86097945D02*
X135410620Y-85233506D01*
X136259148Y-84384978D02*
X136754123Y-84879953D01*
X142481688Y-90607518D02*
X143346126Y-89743080D01*
X136259148Y-91456046D02*
X136754123Y-90961071D01*
X142481688Y-85233506D02*
X143346126Y-86097945D01*
X141138185Y-84879953D02*
X141633160Y-84384978D01*
X141986713Y-85728481D02*
X142481688Y-85233506D01*
X136259148Y-91456046D02*
X137123586Y-92320484D01*
X136259148Y-84384978D02*
X137123586Y-83520540D01*
X141138185Y-90961071D02*
X141986713Y-90112543D01*
X143346126Y-86097945D02*
X143346126Y-89743080D01*
X140768722Y-92320484D02*
X141633160Y-91456046D01*
X135410620Y-85233506D02*
X135905595Y-85728481D01*
X134546182Y-89743080D02*
X135410620Y-90607518D01*
X135905595Y-85728481D02*
X136754123Y-84879953D01*
X137123586Y-83520540D02*
X140768722Y-83520540D01*
X134546182Y-89743080D02*
X134546182Y-86097945D01*
X140768722Y-83520540D02*
X141633160Y-84384978D01*
X141138185Y-84879953D02*
X141986713Y-85728481D01*
X141633160Y-91456046D02*
X141138185Y-90961071D01*
X135905595Y-90112543D02*
X136754123Y-90961071D01*
X137123586Y-92320484D02*
X140768722Y-92320484D01*
X142481688Y-90607518D02*
X141986713Y-90112543D01*
X135410620Y-90607518D02*
X135905595Y-90112543D01*
X125746182Y-86097945D02*
X126610620Y-85233506D01*
X127459148Y-84384978D02*
X127954123Y-84879953D01*
X133681688Y-90607518D02*
X134546126Y-89743080D01*
X127459148Y-91456046D02*
X127954123Y-90961071D01*
X133681688Y-85233506D02*
X134546126Y-86097945D01*
X132338185Y-84879953D02*
X132833160Y-84384978D01*
X133186713Y-85728481D02*
X133681688Y-85233506D01*
X127459148Y-91456046D02*
X128323586Y-92320484D01*
X127459148Y-84384978D02*
X128323586Y-83520540D01*
X132338185Y-90961071D02*
X133186713Y-90112543D01*
X134546126Y-86097945D02*
X134546126Y-89743080D01*
X131968722Y-92320484D02*
X132833160Y-91456046D01*
X126610620Y-85233506D02*
X127105595Y-85728481D01*
X125746182Y-89743080D02*
X126610620Y-90607518D01*
X127105595Y-85728481D02*
X127954123Y-84879953D01*
X128323586Y-83520540D02*
X131968722Y-83520540D01*
X125746182Y-89743080D02*
X125746182Y-86097945D01*
X131968722Y-83520540D02*
X132833160Y-84384978D01*
X132338185Y-84879953D02*
X133186713Y-85728481D01*
X132833160Y-91456046D02*
X132338185Y-90961071D01*
X127105595Y-90112543D02*
X127954123Y-90961071D01*
X128323586Y-92320484D02*
X131968722Y-92320484D01*
X133681688Y-90607518D02*
X133186713Y-90112543D01*
X126610620Y-90607518D02*
X127105595Y-90112543D01*
X116946182Y-86097945D02*
X117810620Y-85233506D01*
X118659148Y-84384978D02*
X119154123Y-84879953D01*
X124881688Y-90607518D02*
X125746126Y-89743080D01*
X118659148Y-91456046D02*
X119154123Y-90961071D01*
X124881688Y-85233506D02*
X125746126Y-86097945D01*
X123538185Y-84879953D02*
X124033160Y-84384978D01*
X124386713Y-85728481D02*
X124881688Y-85233506D01*
X118659148Y-91456046D02*
X119523586Y-92320484D01*
X118659148Y-84384978D02*
X119523586Y-83520540D01*
X123538185Y-90961071D02*
X124386713Y-90112543D01*
X125746126Y-86097945D02*
X125746126Y-89743080D01*
X123168722Y-92320484D02*
X124033160Y-91456046D01*
X117810620Y-85233506D02*
X118305595Y-85728481D01*
X116946182Y-89743080D02*
X117810620Y-90607518D01*
X118305595Y-85728481D02*
X119154123Y-84879953D01*
X119523586Y-83520540D02*
X123168722Y-83520540D01*
X116946182Y-89743080D02*
X116946182Y-86097945D01*
X123168722Y-83520540D02*
X124033160Y-84384978D01*
X123538185Y-84879953D02*
X124386713Y-85728481D01*
X124033160Y-91456046D02*
X123538185Y-90961071D01*
X118305595Y-90112543D02*
X119154123Y-90961071D01*
X119523586Y-92320484D02*
X123168722Y-92320484D01*
X124881688Y-90607518D02*
X124386713Y-90112543D01*
X117810620Y-90607518D02*
X118305595Y-90112543D01*
X108146182Y-86097945D02*
X109010620Y-85233506D01*
X109859148Y-84384978D02*
X110354123Y-84879953D01*
X116081688Y-90607518D02*
X116946126Y-89743080D01*
X109859148Y-91456046D02*
X110354123Y-90961071D01*
X116081688Y-85233506D02*
X116946126Y-86097945D01*
X114738185Y-84879953D02*
X115233160Y-84384978D01*
X115586713Y-85728481D02*
X116081688Y-85233506D01*
X109859148Y-91456046D02*
X110723586Y-92320484D01*
X109859148Y-84384978D02*
X110723586Y-83520540D01*
X114738185Y-90961071D02*
X115586713Y-90112543D01*
X116946126Y-86097945D02*
X116946126Y-89743080D01*
X114368722Y-92320484D02*
X115233160Y-91456046D01*
X109010620Y-85233506D02*
X109505595Y-85728481D01*
X108146182Y-89743080D02*
X109010620Y-90607518D01*
X109505595Y-85728481D02*
X110354123Y-84879953D01*
X110723586Y-83520540D02*
X114368722Y-83520540D01*
X108146182Y-89743080D02*
X108146182Y-86097945D01*
X114368722Y-83520540D02*
X115233160Y-84384978D01*
X114738185Y-84879953D02*
X115586713Y-85728481D01*
X115233160Y-91456046D02*
X114738185Y-90961071D01*
X109505595Y-90112543D02*
X110354123Y-90961071D01*
X110723586Y-92320484D02*
X114368722Y-92320484D01*
X116081688Y-90607518D02*
X115586713Y-90112543D01*
X109010620Y-90607518D02*
X109505595Y-90112543D01*
X99346182Y-86097945D02*
X100210620Y-85233506D01*
X101059148Y-84384978D02*
X101554123Y-84879953D01*
X107281688Y-90607518D02*
X108146126Y-89743080D01*
X101059148Y-91456046D02*
X101554123Y-90961071D01*
X107281688Y-85233506D02*
X108146126Y-86097945D01*
X105938185Y-84879953D02*
X106433160Y-84384978D01*
X106786713Y-85728481D02*
X107281688Y-85233506D01*
X101059148Y-91456046D02*
X101923586Y-92320484D01*
X101059148Y-84384978D02*
X101923586Y-83520540D01*
X105938185Y-90961071D02*
X106786713Y-90112543D01*
X108146126Y-86097945D02*
X108146126Y-89743080D01*
X105568722Y-92320484D02*
X106433160Y-91456046D01*
X100210620Y-85233506D02*
X100705595Y-85728481D01*
X99346182Y-89743080D02*
X100210620Y-90607518D01*
X100705595Y-85728481D02*
X101554123Y-84879953D01*
X101923586Y-83520540D02*
X105568722Y-83520540D01*
X99346182Y-89743080D02*
X99346182Y-86097945D01*
X105568722Y-83520540D02*
X106433160Y-84384978D01*
X105938185Y-84879953D02*
X106786713Y-85728481D01*
X106433160Y-91456046D02*
X105938185Y-90961071D01*
X100705595Y-90112543D02*
X101554123Y-90961071D01*
X101923586Y-92320484D02*
X105568722Y-92320484D01*
X107281688Y-90607518D02*
X106786713Y-90112543D01*
X100210620Y-90607518D02*
X100705595Y-90112543D01*
X90546182Y-86097945D02*
X91410620Y-85233506D01*
X92259148Y-84384978D02*
X92754123Y-84879953D01*
X98481688Y-90607518D02*
X99346126Y-89743080D01*
X92259148Y-91456046D02*
X92754123Y-90961071D01*
X98481688Y-85233506D02*
X99346126Y-86097945D01*
X97138185Y-84879953D02*
X97633160Y-84384978D01*
X97986713Y-85728481D02*
X98481688Y-85233506D01*
X92259148Y-91456046D02*
X93123586Y-92320484D01*
X92259148Y-84384978D02*
X93123586Y-83520540D01*
X97138185Y-90961071D02*
X97986713Y-90112543D01*
X99346126Y-86097945D02*
X99346126Y-89743080D01*
X96768722Y-92320484D02*
X97633160Y-91456046D01*
X91410620Y-85233506D02*
X91905595Y-85728481D01*
X90546182Y-89743080D02*
X91410620Y-90607518D01*
X91905595Y-85728481D02*
X92754123Y-84879953D01*
X93123586Y-83520540D02*
X96768722Y-83520540D01*
X90546182Y-89743080D02*
X90546182Y-86097945D01*
X96768722Y-83520540D02*
X97633160Y-84384978D01*
X97138185Y-84879953D02*
X97986713Y-85728481D01*
X97633160Y-91456046D02*
X97138185Y-90961071D01*
X91905595Y-90112543D02*
X92754123Y-90961071D01*
X93123586Y-92320484D02*
X96768722Y-92320484D01*
X98481688Y-90607518D02*
X97986713Y-90112543D01*
X91410620Y-90607518D02*
X91905595Y-90112543D01*
X81746182Y-86097945D02*
X82610620Y-85233506D01*
X83459148Y-84384978D02*
X83954123Y-84879953D01*
X89681688Y-90607518D02*
X90546126Y-89743080D01*
X83459148Y-91456046D02*
X83954123Y-90961071D01*
X89681688Y-85233506D02*
X90546126Y-86097945D01*
X88338185Y-84879953D02*
X88833160Y-84384978D01*
X89186713Y-85728481D02*
X89681688Y-85233506D01*
X83459148Y-91456046D02*
X84323586Y-92320484D01*
X83459148Y-84384978D02*
X84323586Y-83520540D01*
X88338185Y-90961071D02*
X89186713Y-90112543D01*
X90546126Y-86097945D02*
X90546126Y-89743080D01*
X87968722Y-92320484D02*
X88833160Y-91456046D01*
X82610620Y-85233506D02*
X83105595Y-85728481D01*
X81746182Y-89743080D02*
X82610620Y-90607518D01*
X83105595Y-85728481D02*
X83954123Y-84879953D01*
X84323586Y-83520540D02*
X87968722Y-83520540D01*
X81746182Y-89743080D02*
X81746182Y-86097945D01*
X87968722Y-83520540D02*
X88833160Y-84384978D01*
X88338185Y-84879953D02*
X89186713Y-85728481D01*
X88833160Y-91456046D02*
X88338185Y-90961071D01*
X83105595Y-90112543D02*
X83954123Y-90961071D01*
X84323586Y-92320484D02*
X87968722Y-92320484D01*
X89681688Y-90607518D02*
X89186713Y-90112543D01*
X82610620Y-90607518D02*
X83105595Y-90112543D01*
X72946182Y-86097945D02*
X73810620Y-85233506D01*
X74659148Y-84384978D02*
X75154123Y-84879953D01*
X80881688Y-90607518D02*
X81746126Y-89743080D01*
X74659148Y-91456046D02*
X75154123Y-90961071D01*
X80881688Y-85233506D02*
X81746126Y-86097945D01*
X79538185Y-84879953D02*
X80033160Y-84384978D01*
X80386713Y-85728481D02*
X80881688Y-85233506D01*
X74659148Y-91456046D02*
X75523586Y-92320484D01*
X74659148Y-84384978D02*
X75523586Y-83520540D01*
X79538185Y-90961071D02*
X80386713Y-90112543D01*
X81746126Y-86097945D02*
X81746126Y-89743080D01*
X79168722Y-92320484D02*
X80033160Y-91456046D01*
X73810620Y-85233506D02*
X74305595Y-85728481D01*
X72946182Y-89743080D02*
X73810620Y-90607518D01*
X74305595Y-85728481D02*
X75154123Y-84879953D01*
X75523586Y-83520540D02*
X79168722Y-83520540D01*
X72946182Y-89743080D02*
X72946182Y-86097945D01*
X79168722Y-83520540D02*
X80033160Y-84384978D01*
X79538185Y-84879953D02*
X80386713Y-85728481D01*
X80033160Y-91456046D02*
X79538185Y-90961071D01*
X74305595Y-90112543D02*
X75154123Y-90961071D01*
X75523586Y-92320484D02*
X79168722Y-92320484D01*
X80881688Y-90607518D02*
X80386713Y-90112543D01*
X73810620Y-90607518D02*
X74305595Y-90112543D01*
X143346182Y-77297945D02*
X144210620Y-76433506D01*
X145059148Y-75584978D02*
X145554123Y-76079953D01*
X151281688Y-81807518D02*
X152146126Y-80943080D01*
X145059148Y-82656046D02*
X145554123Y-82161071D01*
X151281688Y-76433506D02*
X152146126Y-77297945D01*
X149938185Y-76079953D02*
X150433160Y-75584978D01*
X150786713Y-76928481D02*
X151281688Y-76433506D01*
X145059148Y-82656046D02*
X145923586Y-83520484D01*
X145059148Y-75584978D02*
X145923586Y-74720540D01*
X149938185Y-82161071D02*
X150786713Y-81312543D01*
X152146126Y-77297945D02*
X152146126Y-80943080D01*
X149568722Y-83520484D02*
X150433160Y-82656046D01*
X144210620Y-76433506D02*
X144705595Y-76928481D01*
X143346182Y-80943080D02*
X144210620Y-81807518D01*
X144705595Y-76928481D02*
X145554123Y-76079953D01*
X145923586Y-74720540D02*
X149568722Y-74720540D01*
X143346182Y-80943080D02*
X143346182Y-77297945D01*
X149568722Y-74720540D02*
X150433160Y-75584978D01*
X149938185Y-76079953D02*
X150786713Y-76928481D01*
X150433160Y-82656046D02*
X149938185Y-82161071D01*
X144705595Y-81312543D02*
X145554123Y-82161071D01*
X145923586Y-83520484D02*
X149568722Y-83520484D01*
X151281688Y-81807518D02*
X150786713Y-81312543D01*
X144210620Y-81807518D02*
X144705595Y-81312543D01*
X134546182Y-77297945D02*
X135410620Y-76433506D01*
X136259148Y-75584978D02*
X136754123Y-76079953D01*
X142481688Y-81807518D02*
X143346126Y-80943080D01*
X136259148Y-82656046D02*
X136754123Y-82161071D01*
X142481688Y-76433506D02*
X143346126Y-77297945D01*
X141138185Y-76079953D02*
X141633160Y-75584978D01*
X141986713Y-76928481D02*
X142481688Y-76433506D01*
X136259148Y-82656046D02*
X137123586Y-83520484D01*
X136259148Y-75584978D02*
X137123586Y-74720540D01*
X141138185Y-82161071D02*
X141986713Y-81312543D01*
X143346126Y-77297945D02*
X143346126Y-80943080D01*
X140768722Y-83520484D02*
X141633160Y-82656046D01*
X135410620Y-76433506D02*
X135905595Y-76928481D01*
X134546182Y-80943080D02*
X135410620Y-81807518D01*
X135905595Y-76928481D02*
X136754123Y-76079953D01*
X137123586Y-74720540D02*
X140768722Y-74720540D01*
X134546182Y-80943080D02*
X134546182Y-77297945D01*
X140768722Y-74720540D02*
X141633160Y-75584978D01*
X141138185Y-76079953D02*
X141986713Y-76928481D01*
X141633160Y-82656046D02*
X141138185Y-82161071D01*
X135905595Y-81312543D02*
X136754123Y-82161071D01*
X137123586Y-83520484D02*
X140768722Y-83520484D01*
X142481688Y-81807518D02*
X141986713Y-81312543D01*
X135410620Y-81807518D02*
X135905595Y-81312543D01*
X125746182Y-77297945D02*
X126610620Y-76433506D01*
X127459148Y-75584978D02*
X127954123Y-76079953D01*
X133681688Y-81807518D02*
X134546126Y-80943080D01*
X127459148Y-82656046D02*
X127954123Y-82161071D01*
X133681688Y-76433506D02*
X134546126Y-77297945D01*
X132338185Y-76079953D02*
X132833160Y-75584978D01*
X133186713Y-76928481D02*
X133681688Y-76433506D01*
X127459148Y-82656046D02*
X128323586Y-83520484D01*
X127459148Y-75584978D02*
X128323586Y-74720540D01*
X132338185Y-82161071D02*
X133186713Y-81312543D01*
X134546126Y-77297945D02*
X134546126Y-80943080D01*
X131968722Y-83520484D02*
X132833160Y-82656046D01*
X126610620Y-76433506D02*
X127105595Y-76928481D01*
X125746182Y-80943080D02*
X126610620Y-81807518D01*
X127105595Y-76928481D02*
X127954123Y-76079953D01*
X128323586Y-74720540D02*
X131968722Y-74720540D01*
X125746182Y-80943080D02*
X125746182Y-77297945D01*
X131968722Y-74720540D02*
X132833160Y-75584978D01*
X132338185Y-76079953D02*
X133186713Y-76928481D01*
X132833160Y-82656046D02*
X132338185Y-82161071D01*
X127105595Y-81312543D02*
X127954123Y-82161071D01*
X128323586Y-83520484D02*
X131968722Y-83520484D01*
X133681688Y-81807518D02*
X133186713Y-81312543D01*
X126610620Y-81807518D02*
X127105595Y-81312543D01*
X116946182Y-77297945D02*
X117810620Y-76433506D01*
X118659148Y-75584978D02*
X119154123Y-76079953D01*
X124881688Y-81807518D02*
X125746126Y-80943080D01*
X118659148Y-82656046D02*
X119154123Y-82161071D01*
X124881688Y-76433506D02*
X125746126Y-77297945D01*
X123538185Y-76079953D02*
X124033160Y-75584978D01*
X124386713Y-76928481D02*
X124881688Y-76433506D01*
X118659148Y-82656046D02*
X119523586Y-83520484D01*
X118659148Y-75584978D02*
X119523586Y-74720540D01*
X123538185Y-82161071D02*
X124386713Y-81312543D01*
X125746126Y-77297945D02*
X125746126Y-80943080D01*
X123168722Y-83520484D02*
X124033160Y-82656046D01*
X117810620Y-76433506D02*
X118305595Y-76928481D01*
X116946182Y-80943080D02*
X117810620Y-81807518D01*
X118305595Y-76928481D02*
X119154123Y-76079953D01*
X119523586Y-74720540D02*
X123168722Y-74720540D01*
X116946182Y-80943080D02*
X116946182Y-77297945D01*
X123168722Y-74720540D02*
X124033160Y-75584978D01*
X123538185Y-76079953D02*
X124386713Y-76928481D01*
X124033160Y-82656046D02*
X123538185Y-82161071D01*
X118305595Y-81312543D02*
X119154123Y-82161071D01*
X119523586Y-83520484D02*
X123168722Y-83520484D01*
X124881688Y-81807518D02*
X124386713Y-81312543D01*
X117810620Y-81807518D02*
X118305595Y-81312543D01*
X108146182Y-77297945D02*
X109010620Y-76433506D01*
X109859148Y-75584978D02*
X110354123Y-76079953D01*
X116081688Y-81807518D02*
X116946126Y-80943080D01*
X109859148Y-82656046D02*
X110354123Y-82161071D01*
X116081688Y-76433506D02*
X116946126Y-77297945D01*
X114738185Y-76079953D02*
X115233160Y-75584978D01*
X115586713Y-76928481D02*
X116081688Y-76433506D01*
X109859148Y-82656046D02*
X110723586Y-83520484D01*
X109859148Y-75584978D02*
X110723586Y-74720540D01*
X114738185Y-82161071D02*
X115586713Y-81312543D01*
X116946126Y-77297945D02*
X116946126Y-80943080D01*
X114368722Y-83520484D02*
X115233160Y-82656046D01*
X109010620Y-76433506D02*
X109505595Y-76928481D01*
X108146182Y-80943080D02*
X109010620Y-81807518D01*
X109505595Y-76928481D02*
X110354123Y-76079953D01*
X110723586Y-74720540D02*
X114368722Y-74720540D01*
X108146182Y-80943080D02*
X108146182Y-77297945D01*
X114368722Y-74720540D02*
X115233160Y-75584978D01*
X114738185Y-76079953D02*
X115586713Y-76928481D01*
X115233160Y-82656046D02*
X114738185Y-82161071D01*
X109505595Y-81312543D02*
X110354123Y-82161071D01*
X110723586Y-83520484D02*
X114368722Y-83520484D01*
X116081688Y-81807518D02*
X115586713Y-81312543D01*
X109010620Y-81807518D02*
X109505595Y-81312543D01*
X99346182Y-77297945D02*
X100210620Y-76433506D01*
X101059148Y-75584978D02*
X101554123Y-76079953D01*
X107281688Y-81807518D02*
X108146126Y-80943080D01*
X101059148Y-82656046D02*
X101554123Y-82161071D01*
X107281688Y-76433506D02*
X108146126Y-77297945D01*
X105938185Y-76079953D02*
X106433160Y-75584978D01*
X106786713Y-76928481D02*
X107281688Y-76433506D01*
X101059148Y-82656046D02*
X101923586Y-83520484D01*
X101059148Y-75584978D02*
X101923586Y-74720540D01*
X105938185Y-82161071D02*
X106786713Y-81312543D01*
X108146126Y-77297945D02*
X108146126Y-80943080D01*
X105568722Y-83520484D02*
X106433160Y-82656046D01*
X100210620Y-76433506D02*
X100705595Y-76928481D01*
X99346182Y-80943080D02*
X100210620Y-81807518D01*
X100705595Y-76928481D02*
X101554123Y-76079953D01*
X101923586Y-74720540D02*
X105568722Y-74720540D01*
X99346182Y-80943080D02*
X99346182Y-77297945D01*
X105568722Y-74720540D02*
X106433160Y-75584978D01*
X105938185Y-76079953D02*
X106786713Y-76928481D01*
X106433160Y-82656046D02*
X105938185Y-82161071D01*
X100705595Y-81312543D02*
X101554123Y-82161071D01*
X101923586Y-83520484D02*
X105568722Y-83520484D01*
X107281688Y-81807518D02*
X106786713Y-81312543D01*
X100210620Y-81807518D02*
X100705595Y-81312543D01*
X90546182Y-77297945D02*
X91410620Y-76433506D01*
X92259148Y-75584978D02*
X92754123Y-76079953D01*
X98481688Y-81807518D02*
X99346126Y-80943080D01*
X92259148Y-82656046D02*
X92754123Y-82161071D01*
X98481688Y-76433506D02*
X99346126Y-77297945D01*
X97138185Y-76079953D02*
X97633160Y-75584978D01*
X97986713Y-76928481D02*
X98481688Y-76433506D01*
X92259148Y-82656046D02*
X93123586Y-83520484D01*
X92259148Y-75584978D02*
X93123586Y-74720540D01*
X97138185Y-82161071D02*
X97986713Y-81312543D01*
X99346126Y-77297945D02*
X99346126Y-80943080D01*
X96768722Y-83520484D02*
X97633160Y-82656046D01*
X91410620Y-76433506D02*
X91905595Y-76928481D01*
X90546182Y-80943080D02*
X91410620Y-81807518D01*
X91905595Y-76928481D02*
X92754123Y-76079953D01*
X93123586Y-74720540D02*
X96768722Y-74720540D01*
X90546182Y-80943080D02*
X90546182Y-77297945D01*
X96768722Y-74720540D02*
X97633160Y-75584978D01*
X97138185Y-76079953D02*
X97986713Y-76928481D01*
X97633160Y-82656046D02*
X97138185Y-82161071D01*
X91905595Y-81312543D02*
X92754123Y-82161071D01*
X93123586Y-83520484D02*
X96768722Y-83520484D01*
X98481688Y-81807518D02*
X97986713Y-81312543D01*
X91410620Y-81807518D02*
X91905595Y-81312543D01*
X81746182Y-77297945D02*
X82610620Y-76433506D01*
X83459148Y-75584978D02*
X83954123Y-76079953D01*
X89681688Y-81807518D02*
X90546126Y-80943080D01*
X83459148Y-82656046D02*
X83954123Y-82161071D01*
X89681688Y-76433506D02*
X90546126Y-77297945D01*
X88338185Y-76079953D02*
X88833160Y-75584978D01*
X89186713Y-76928481D02*
X89681688Y-76433506D01*
X83459148Y-82656046D02*
X84323586Y-83520484D01*
X83459148Y-75584978D02*
X84323586Y-74720540D01*
X88338185Y-82161071D02*
X89186713Y-81312543D01*
X90546126Y-77297945D02*
X90546126Y-80943080D01*
X87968722Y-83520484D02*
X88833160Y-82656046D01*
X82610620Y-76433506D02*
X83105595Y-76928481D01*
X81746182Y-80943080D02*
X82610620Y-81807518D01*
X83105595Y-76928481D02*
X83954123Y-76079953D01*
X84323586Y-74720540D02*
X87968722Y-74720540D01*
X81746182Y-80943080D02*
X81746182Y-77297945D01*
X87968722Y-74720540D02*
X88833160Y-75584978D01*
X88338185Y-76079953D02*
X89186713Y-76928481D01*
X88833160Y-82656046D02*
X88338185Y-82161071D01*
X83105595Y-81312543D02*
X83954123Y-82161071D01*
X84323586Y-83520484D02*
X87968722Y-83520484D01*
X89681688Y-81807518D02*
X89186713Y-81312543D01*
X82610620Y-81807518D02*
X83105595Y-81312543D01*
X72946182Y-77297945D02*
X73810620Y-76433506D01*
X74659148Y-75584978D02*
X75154123Y-76079953D01*
X80881688Y-81807518D02*
X81746126Y-80943080D01*
X74659148Y-82656046D02*
X75154123Y-82161071D01*
X80881688Y-76433506D02*
X81746126Y-77297945D01*
X79538185Y-76079953D02*
X80033160Y-75584978D01*
X80386713Y-76928481D02*
X80881688Y-76433506D01*
X74659148Y-82656046D02*
X75523586Y-83520484D01*
X74659148Y-75584978D02*
X75523586Y-74720540D01*
X79538185Y-82161071D02*
X80386713Y-81312543D01*
X81746126Y-77297945D02*
X81746126Y-80943080D01*
X79168722Y-83520484D02*
X80033160Y-82656046D01*
X73810620Y-76433506D02*
X74305595Y-76928481D01*
X72946182Y-80943080D02*
X73810620Y-81807518D01*
X74305595Y-76928481D02*
X75154123Y-76079953D01*
X75523586Y-74720540D02*
X79168722Y-74720540D01*
X72946182Y-80943080D02*
X72946182Y-77297945D01*
X79168722Y-74720540D02*
X80033160Y-75584978D01*
X79538185Y-76079953D02*
X80386713Y-76928481D01*
X80033160Y-82656046D02*
X79538185Y-82161071D01*
X74305595Y-81312543D02*
X75154123Y-82161071D01*
X75523586Y-83520484D02*
X79168722Y-83520484D01*
X80881688Y-81807518D02*
X80386713Y-81312543D01*
X73810620Y-81807518D02*
X74305595Y-81312543D01*
X143346182Y-68497945D02*
X144210620Y-67633506D01*
X145059148Y-66784978D02*
X145554123Y-67279953D01*
X151281688Y-73007518D02*
X152146126Y-72143080D01*
X145059148Y-73856046D02*
X145554123Y-73361071D01*
X151281688Y-67633506D02*
X152146126Y-68497945D01*
X149938185Y-67279953D02*
X150433160Y-66784978D01*
X150786713Y-68128481D02*
X151281688Y-67633506D01*
X145059148Y-73856046D02*
X145923586Y-74720484D01*
X145059148Y-66784978D02*
X145923586Y-65920540D01*
X149938185Y-73361071D02*
X150786713Y-72512543D01*
X152146126Y-68497945D02*
X152146126Y-72143080D01*
X149568722Y-74720484D02*
X150433160Y-73856046D01*
X144210620Y-67633506D02*
X144705595Y-68128481D01*
X143346182Y-72143080D02*
X144210620Y-73007518D01*
X144705595Y-68128481D02*
X145554123Y-67279953D01*
X145923586Y-65920540D02*
X149568722Y-65920540D01*
X143346182Y-72143080D02*
X143346182Y-68497945D01*
X149568722Y-65920540D02*
X150433160Y-66784978D01*
X149938185Y-67279953D02*
X150786713Y-68128481D01*
X150433160Y-73856046D02*
X149938185Y-73361071D01*
X144705595Y-72512543D02*
X145554123Y-73361071D01*
X145923586Y-74720484D02*
X149568722Y-74720484D01*
X151281688Y-73007518D02*
X150786713Y-72512543D01*
X144210620Y-73007518D02*
X144705595Y-72512543D01*
X134546182Y-68497945D02*
X135410620Y-67633506D01*
X136259148Y-66784978D02*
X136754123Y-67279953D01*
X142481688Y-73007518D02*
X143346126Y-72143080D01*
X136259148Y-73856046D02*
X136754123Y-73361071D01*
X142481688Y-67633506D02*
X143346126Y-68497945D01*
X141138185Y-67279953D02*
X141633160Y-66784978D01*
X141986713Y-68128481D02*
X142481688Y-67633506D01*
X136259148Y-73856046D02*
X137123586Y-74720484D01*
X136259148Y-66784978D02*
X137123586Y-65920540D01*
X141138185Y-73361071D02*
X141986713Y-72512543D01*
X143346126Y-68497945D02*
X143346126Y-72143080D01*
X140768722Y-74720484D02*
X141633160Y-73856046D01*
X135410620Y-67633506D02*
X135905595Y-68128481D01*
X134546182Y-72143080D02*
X135410620Y-73007518D01*
X135905595Y-68128481D02*
X136754123Y-67279953D01*
X137123586Y-65920540D02*
X140768722Y-65920540D01*
X134546182Y-72143080D02*
X134546182Y-68497945D01*
X140768722Y-65920540D02*
X141633160Y-66784978D01*
X141138185Y-67279953D02*
X141986713Y-68128481D01*
X141633160Y-73856046D02*
X141138185Y-73361071D01*
X135905595Y-72512543D02*
X136754123Y-73361071D01*
X137123586Y-74720484D02*
X140768722Y-74720484D01*
X142481688Y-73007518D02*
X141986713Y-72512543D01*
X135410620Y-73007518D02*
X135905595Y-72512543D01*
X125746182Y-68497945D02*
X126610620Y-67633506D01*
X127459148Y-66784978D02*
X127954123Y-67279953D01*
X133681688Y-73007518D02*
X134546126Y-72143080D01*
X127459148Y-73856046D02*
X127954123Y-73361071D01*
X133681688Y-67633506D02*
X134546126Y-68497945D01*
X132338185Y-67279953D02*
X132833160Y-66784978D01*
X133186713Y-68128481D02*
X133681688Y-67633506D01*
X127459148Y-73856046D02*
X128323586Y-74720484D01*
X127459148Y-66784978D02*
X128323586Y-65920540D01*
X132338185Y-73361071D02*
X133186713Y-72512543D01*
X134546126Y-68497945D02*
X134546126Y-72143080D01*
X131968722Y-74720484D02*
X132833160Y-73856046D01*
X126610620Y-67633506D02*
X127105595Y-68128481D01*
X125746182Y-72143080D02*
X126610620Y-73007518D01*
X127105595Y-68128481D02*
X127954123Y-67279953D01*
X128323586Y-65920540D02*
X131968722Y-65920540D01*
X125746182Y-72143080D02*
X125746182Y-68497945D01*
X131968722Y-65920540D02*
X132833160Y-66784978D01*
X132338185Y-67279953D02*
X133186713Y-68128481D01*
X132833160Y-73856046D02*
X132338185Y-73361071D01*
X127105595Y-72512543D02*
X127954123Y-73361071D01*
X128323586Y-74720484D02*
X131968722Y-74720484D01*
X133681688Y-73007518D02*
X133186713Y-72512543D01*
X126610620Y-73007518D02*
X127105595Y-72512543D01*
X116946182Y-68497945D02*
X117810620Y-67633506D01*
X118659148Y-66784978D02*
X119154123Y-67279953D01*
X124881688Y-73007518D02*
X125746126Y-72143080D01*
X118659148Y-73856046D02*
X119154123Y-73361071D01*
X124881688Y-67633506D02*
X125746126Y-68497945D01*
X123538185Y-67279953D02*
X124033160Y-66784978D01*
X124386713Y-68128481D02*
X124881688Y-67633506D01*
X118659148Y-73856046D02*
X119523586Y-74720484D01*
X118659148Y-66784978D02*
X119523586Y-65920540D01*
X123538185Y-73361071D02*
X124386713Y-72512543D01*
X125746126Y-68497945D02*
X125746126Y-72143080D01*
X123168722Y-74720484D02*
X124033160Y-73856046D01*
X117810620Y-67633506D02*
X118305595Y-68128481D01*
X116946182Y-72143080D02*
X117810620Y-73007518D01*
X118305595Y-68128481D02*
X119154123Y-67279953D01*
X119523586Y-65920540D02*
X123168722Y-65920540D01*
X116946182Y-72143080D02*
X116946182Y-68497945D01*
X123168722Y-65920540D02*
X124033160Y-66784978D01*
X123538185Y-67279953D02*
X124386713Y-68128481D01*
X124033160Y-73856046D02*
X123538185Y-73361071D01*
X118305595Y-72512543D02*
X119154123Y-73361071D01*
X119523586Y-74720484D02*
X123168722Y-74720484D01*
X124881688Y-73007518D02*
X124386713Y-72512543D01*
X117810620Y-73007518D02*
X118305595Y-72512543D01*
X108146182Y-68497945D02*
X109010620Y-67633506D01*
X109859148Y-66784978D02*
X110354123Y-67279953D01*
X116081688Y-73007518D02*
X116946126Y-72143080D01*
X109859148Y-73856046D02*
X110354123Y-73361071D01*
X116081688Y-67633506D02*
X116946126Y-68497945D01*
X114738185Y-67279953D02*
X115233160Y-66784978D01*
X115586713Y-68128481D02*
X116081688Y-67633506D01*
X109859148Y-73856046D02*
X110723586Y-74720484D01*
X109859148Y-66784978D02*
X110723586Y-65920540D01*
X114738185Y-73361071D02*
X115586713Y-72512543D01*
X116946126Y-68497945D02*
X116946126Y-72143080D01*
X114368722Y-74720484D02*
X115233160Y-73856046D01*
X109010620Y-67633506D02*
X109505595Y-68128481D01*
X108146182Y-72143080D02*
X109010620Y-73007518D01*
X109505595Y-68128481D02*
X110354123Y-67279953D01*
X110723586Y-65920540D02*
X114368722Y-65920540D01*
X108146182Y-72143080D02*
X108146182Y-68497945D01*
X114368722Y-65920540D02*
X115233160Y-66784978D01*
X114738185Y-67279953D02*
X115586713Y-68128481D01*
X115233160Y-73856046D02*
X114738185Y-73361071D01*
X109505595Y-72512543D02*
X110354123Y-73361071D01*
X110723586Y-74720484D02*
X114368722Y-74720484D01*
X116081688Y-73007518D02*
X115586713Y-72512543D01*
X109010620Y-73007518D02*
X109505595Y-72512543D01*
X99346182Y-68497945D02*
X100210620Y-67633506D01*
X101059148Y-66784978D02*
X101554123Y-67279953D01*
X107281688Y-73007518D02*
X108146126Y-72143080D01*
X101059148Y-73856046D02*
X101554123Y-73361071D01*
X107281688Y-67633506D02*
X108146126Y-68497945D01*
X105938185Y-67279953D02*
X106433160Y-66784978D01*
X106786713Y-68128481D02*
X107281688Y-67633506D01*
X101059148Y-73856046D02*
X101923586Y-74720484D01*
X101059148Y-66784978D02*
X101923586Y-65920540D01*
X105938185Y-73361071D02*
X106786713Y-72512543D01*
X108146126Y-68497945D02*
X108146126Y-72143080D01*
X105568722Y-74720484D02*
X106433160Y-73856046D01*
X100210620Y-67633506D02*
X100705595Y-68128481D01*
X99346182Y-72143080D02*
X100210620Y-73007518D01*
X100705595Y-68128481D02*
X101554123Y-67279953D01*
X101923586Y-65920540D02*
X105568722Y-65920540D01*
X99346182Y-72143080D02*
X99346182Y-68497945D01*
X105568722Y-65920540D02*
X106433160Y-66784978D01*
X105938185Y-67279953D02*
X106786713Y-68128481D01*
X106433160Y-73856046D02*
X105938185Y-73361071D01*
X100705595Y-72512543D02*
X101554123Y-73361071D01*
X101923586Y-74720484D02*
X105568722Y-74720484D01*
X107281688Y-73007518D02*
X106786713Y-72512543D01*
X100210620Y-73007518D02*
X100705595Y-72512543D01*
X90546182Y-68497945D02*
X91410620Y-67633506D01*
X92259148Y-66784978D02*
X92754123Y-67279953D01*
X98481688Y-73007518D02*
X99346126Y-72143080D01*
X92259148Y-73856046D02*
X92754123Y-73361071D01*
X98481688Y-67633506D02*
X99346126Y-68497945D01*
X97138185Y-67279953D02*
X97633160Y-66784978D01*
X97986713Y-68128481D02*
X98481688Y-67633506D01*
X92259148Y-73856046D02*
X93123586Y-74720484D01*
X92259148Y-66784978D02*
X93123586Y-65920540D01*
X97138185Y-73361071D02*
X97986713Y-72512543D01*
X99346126Y-68497945D02*
X99346126Y-72143080D01*
X96768722Y-74720484D02*
X97633160Y-73856046D01*
X91410620Y-67633506D02*
X91905595Y-68128481D01*
X90546182Y-72143080D02*
X91410620Y-73007518D01*
X91905595Y-68128481D02*
X92754123Y-67279953D01*
X93123586Y-65920540D02*
X96768722Y-65920540D01*
X90546182Y-72143080D02*
X90546182Y-68497945D01*
X96768722Y-65920540D02*
X97633160Y-66784978D01*
X97138185Y-67279953D02*
X97986713Y-68128481D01*
X97633160Y-73856046D02*
X97138185Y-73361071D01*
X91905595Y-72512543D02*
X92754123Y-73361071D01*
X93123586Y-74720484D02*
X96768722Y-74720484D01*
X98481688Y-73007518D02*
X97986713Y-72512543D01*
X91410620Y-73007518D02*
X91905595Y-72512543D01*
X81746182Y-68497945D02*
X82610620Y-67633506D01*
X83459148Y-66784978D02*
X83954123Y-67279953D01*
X89681688Y-73007518D02*
X90546126Y-72143080D01*
X83459148Y-73856046D02*
X83954123Y-73361071D01*
X89681688Y-67633506D02*
X90546126Y-68497945D01*
X88338185Y-67279953D02*
X88833160Y-66784978D01*
X89186713Y-68128481D02*
X89681688Y-67633506D01*
X83459148Y-73856046D02*
X84323586Y-74720484D01*
X83459148Y-66784978D02*
X84323586Y-65920540D01*
X88338185Y-73361071D02*
X89186713Y-72512543D01*
X90546126Y-68497945D02*
X90546126Y-72143080D01*
X87968722Y-74720484D02*
X88833160Y-73856046D01*
X82610620Y-67633506D02*
X83105595Y-68128481D01*
X81746182Y-72143080D02*
X82610620Y-73007518D01*
X83105595Y-68128481D02*
X83954123Y-67279953D01*
X84323586Y-65920540D02*
X87968722Y-65920540D01*
X81746182Y-72143080D02*
X81746182Y-68497945D01*
X87968722Y-65920540D02*
X88833160Y-66784978D01*
X88338185Y-67279953D02*
X89186713Y-68128481D01*
X88833160Y-73856046D02*
X88338185Y-73361071D01*
X83105595Y-72512543D02*
X83954123Y-73361071D01*
X84323586Y-74720484D02*
X87968722Y-74720484D01*
X89681688Y-73007518D02*
X89186713Y-72512543D01*
X82610620Y-73007518D02*
X83105595Y-72512543D01*
X72946182Y-68497945D02*
X73810620Y-67633506D01*
X74659148Y-66784978D02*
X75154123Y-67279953D01*
X80881688Y-73007518D02*
X81746126Y-72143080D01*
X74659148Y-73856046D02*
X75154123Y-73361071D01*
X80881688Y-67633506D02*
X81746126Y-68497945D01*
X79538185Y-67279953D02*
X80033160Y-66784978D01*
X80386713Y-68128481D02*
X80881688Y-67633506D01*
X74659148Y-73856046D02*
X75523586Y-74720484D01*
X74659148Y-66784978D02*
X75523586Y-65920540D01*
X79538185Y-73361071D02*
X80386713Y-72512543D01*
X81746126Y-68497945D02*
X81746126Y-72143080D01*
X79168722Y-74720484D02*
X80033160Y-73856046D01*
X73810620Y-67633506D02*
X74305595Y-68128481D01*
X72946182Y-72143080D02*
X73810620Y-73007518D01*
X74305595Y-68128481D02*
X75154123Y-67279953D01*
X75523586Y-65920540D02*
X79168722Y-65920540D01*
X72946182Y-72143080D02*
X72946182Y-68497945D01*
X79168722Y-65920540D02*
X80033160Y-66784978D01*
X79538185Y-67279953D02*
X80386713Y-68128481D01*
X80033160Y-73856046D02*
X79538185Y-73361071D01*
X74305595Y-72512543D02*
X75154123Y-73361071D01*
X75523586Y-74720484D02*
X79168722Y-74720484D01*
X80881688Y-73007518D02*
X80386713Y-72512543D01*
X73810620Y-73007518D02*
X74305595Y-72512543D01*
X143346182Y-59697945D02*
X144210620Y-58833506D01*
X145059148Y-57984978D02*
X145554123Y-58479953D01*
X151281688Y-64207518D02*
X152146126Y-63343080D01*
X145059148Y-65056046D02*
X145554123Y-64561071D01*
X151281688Y-58833506D02*
X152146126Y-59697945D01*
X149938185Y-58479953D02*
X150433160Y-57984978D01*
X150786713Y-59328481D02*
X151281688Y-58833506D01*
X145059148Y-65056046D02*
X145923586Y-65920484D01*
X145059148Y-57984978D02*
X145923586Y-57120540D01*
X149938185Y-64561071D02*
X150786713Y-63712543D01*
X152146126Y-59697945D02*
X152146126Y-63343080D01*
X149568722Y-65920484D02*
X150433160Y-65056046D01*
X144210620Y-58833506D02*
X144705595Y-59328481D01*
X143346182Y-63343080D02*
X144210620Y-64207518D01*
X144705595Y-59328481D02*
X145554123Y-58479953D01*
X145923586Y-57120540D02*
X149568722Y-57120540D01*
X143346182Y-63343080D02*
X143346182Y-59697945D01*
X149568722Y-57120540D02*
X150433160Y-57984978D01*
X149938185Y-58479953D02*
X150786713Y-59328481D01*
X150433160Y-65056046D02*
X149938185Y-64561071D01*
X144705595Y-63712543D02*
X145554123Y-64561071D01*
X145923586Y-65920484D02*
X149568722Y-65920484D01*
X151281688Y-64207518D02*
X150786713Y-63712543D01*
X144210620Y-64207518D02*
X144705595Y-63712543D01*
X134546182Y-59697945D02*
X135410620Y-58833506D01*
X136259148Y-57984978D02*
X136754123Y-58479953D01*
X142481688Y-64207518D02*
X143346126Y-63343080D01*
X136259148Y-65056046D02*
X136754123Y-64561071D01*
X142481688Y-58833506D02*
X143346126Y-59697945D01*
X141138185Y-58479953D02*
X141633160Y-57984978D01*
X141986713Y-59328481D02*
X142481688Y-58833506D01*
X136259148Y-65056046D02*
X137123586Y-65920484D01*
X136259148Y-57984978D02*
X137123586Y-57120540D01*
X141138185Y-64561071D02*
X141986713Y-63712543D01*
X143346126Y-59697945D02*
X143346126Y-63343080D01*
X140768722Y-65920484D02*
X141633160Y-65056046D01*
X135410620Y-58833506D02*
X135905595Y-59328481D01*
X134546182Y-63343080D02*
X135410620Y-64207518D01*
X135905595Y-59328481D02*
X136754123Y-58479953D01*
X137123586Y-57120540D02*
X140768722Y-57120540D01*
X134546182Y-63343080D02*
X134546182Y-59697945D01*
X140768722Y-57120540D02*
X141633160Y-57984978D01*
X141138185Y-58479953D02*
X141986713Y-59328481D01*
X141633160Y-65056046D02*
X141138185Y-64561071D01*
X135905595Y-63712543D02*
X136754123Y-64561071D01*
X137123586Y-65920484D02*
X140768722Y-65920484D01*
X142481688Y-64207518D02*
X141986713Y-63712543D01*
X135410620Y-64207518D02*
X135905595Y-63712543D01*
X125746182Y-59697945D02*
X126610620Y-58833506D01*
X127459148Y-57984978D02*
X127954123Y-58479953D01*
X133681688Y-64207518D02*
X134546126Y-63343080D01*
X127459148Y-65056046D02*
X127954123Y-64561071D01*
X133681688Y-58833506D02*
X134546126Y-59697945D01*
X132338185Y-58479953D02*
X132833160Y-57984978D01*
X133186713Y-59328481D02*
X133681688Y-58833506D01*
X127459148Y-65056046D02*
X128323586Y-65920484D01*
X127459148Y-57984978D02*
X128323586Y-57120540D01*
X132338185Y-64561071D02*
X133186713Y-63712543D01*
X134546126Y-59697945D02*
X134546126Y-63343080D01*
X131968722Y-65920484D02*
X132833160Y-65056046D01*
X126610620Y-58833506D02*
X127105595Y-59328481D01*
X125746182Y-63343080D02*
X126610620Y-64207518D01*
X127105595Y-59328481D02*
X127954123Y-58479953D01*
X128323586Y-57120540D02*
X131968722Y-57120540D01*
X125746182Y-63343080D02*
X125746182Y-59697945D01*
X131968722Y-57120540D02*
X132833160Y-57984978D01*
X132338185Y-58479953D02*
X133186713Y-59328481D01*
X132833160Y-65056046D02*
X132338185Y-64561071D01*
X127105595Y-63712543D02*
X127954123Y-64561071D01*
X128323586Y-65920484D02*
X131968722Y-65920484D01*
X133681688Y-64207518D02*
X133186713Y-63712543D01*
X126610620Y-64207518D02*
X127105595Y-63712543D01*
X116946182Y-59697945D02*
X117810620Y-58833506D01*
X118659148Y-57984978D02*
X119154123Y-58479953D01*
X124881688Y-64207518D02*
X125746126Y-63343080D01*
X118659148Y-65056046D02*
X119154123Y-64561071D01*
X124881688Y-58833506D02*
X125746126Y-59697945D01*
X123538185Y-58479953D02*
X124033160Y-57984978D01*
X124386713Y-59328481D02*
X124881688Y-58833506D01*
X118659148Y-65056046D02*
X119523586Y-65920484D01*
X118659148Y-57984978D02*
X119523586Y-57120540D01*
X123538185Y-64561071D02*
X124386713Y-63712543D01*
X125746126Y-59697945D02*
X125746126Y-63343080D01*
X123168722Y-65920484D02*
X124033160Y-65056046D01*
X117810620Y-58833506D02*
X118305595Y-59328481D01*
X116946182Y-63343080D02*
X117810620Y-64207518D01*
X118305595Y-59328481D02*
X119154123Y-58479953D01*
X119523586Y-57120540D02*
X123168722Y-57120540D01*
X116946182Y-63343080D02*
X116946182Y-59697945D01*
X123168722Y-57120540D02*
X124033160Y-57984978D01*
X123538185Y-58479953D02*
X124386713Y-59328481D01*
X124033160Y-65056046D02*
X123538185Y-64561071D01*
X118305595Y-63712543D02*
X119154123Y-64561071D01*
X119523586Y-65920484D02*
X123168722Y-65920484D01*
X124881688Y-64207518D02*
X124386713Y-63712543D01*
X117810620Y-64207518D02*
X118305595Y-63712543D01*
X108146182Y-59697945D02*
X109010620Y-58833506D01*
X109859148Y-57984978D02*
X110354123Y-58479953D01*
X116081688Y-64207518D02*
X116946126Y-63343080D01*
X109859148Y-65056046D02*
X110354123Y-64561071D01*
X116081688Y-58833506D02*
X116946126Y-59697945D01*
X114738185Y-58479953D02*
X115233160Y-57984978D01*
X115586713Y-59328481D02*
X116081688Y-58833506D01*
X109859148Y-65056046D02*
X110723586Y-65920484D01*
X109859148Y-57984978D02*
X110723586Y-57120540D01*
X114738185Y-64561071D02*
X115586713Y-63712543D01*
X116946126Y-59697945D02*
X116946126Y-63343080D01*
X114368722Y-65920484D02*
X115233160Y-65056046D01*
X109010620Y-58833506D02*
X109505595Y-59328481D01*
X108146182Y-63343080D02*
X109010620Y-64207518D01*
X109505595Y-59328481D02*
X110354123Y-58479953D01*
X110723586Y-57120540D02*
X114368722Y-57120540D01*
X108146182Y-63343080D02*
X108146182Y-59697945D01*
X114368722Y-57120540D02*
X115233160Y-57984978D01*
X114738185Y-58479953D02*
X115586713Y-59328481D01*
X115233160Y-65056046D02*
X114738185Y-64561071D01*
X109505595Y-63712543D02*
X110354123Y-64561071D01*
X110723586Y-65920484D02*
X114368722Y-65920484D01*
X116081688Y-64207518D02*
X115586713Y-63712543D01*
X109010620Y-64207518D02*
X109505595Y-63712543D01*
X99346182Y-59697945D02*
X100210620Y-58833506D01*
X101059148Y-57984978D02*
X101554123Y-58479953D01*
X107281688Y-64207518D02*
X108146126Y-63343080D01*
X101059148Y-65056046D02*
X101554123Y-64561071D01*
X107281688Y-58833506D02*
X108146126Y-59697945D01*
X105938185Y-58479953D02*
X106433160Y-57984978D01*
X106786713Y-59328481D02*
X107281688Y-58833506D01*
X101059148Y-65056046D02*
X101923586Y-65920484D01*
X101059148Y-57984978D02*
X101923586Y-57120540D01*
X105938185Y-64561071D02*
X106786713Y-63712543D01*
X108146126Y-59697945D02*
X108146126Y-63343080D01*
X105568722Y-65920484D02*
X106433160Y-65056046D01*
X100210620Y-58833506D02*
X100705595Y-59328481D01*
X99346182Y-63343080D02*
X100210620Y-64207518D01*
X100705595Y-59328481D02*
X101554123Y-58479953D01*
X101923586Y-57120540D02*
X105568722Y-57120540D01*
X99346182Y-63343080D02*
X99346182Y-59697945D01*
X105568722Y-57120540D02*
X106433160Y-57984978D01*
X105938185Y-58479953D02*
X106786713Y-59328481D01*
X106433160Y-65056046D02*
X105938185Y-64561071D01*
X100705595Y-63712543D02*
X101554123Y-64561071D01*
X101923586Y-65920484D02*
X105568722Y-65920484D01*
X107281688Y-64207518D02*
X106786713Y-63712543D01*
X100210620Y-64207518D02*
X100705595Y-63712543D01*
X90546182Y-59697945D02*
X91410620Y-58833506D01*
X92259148Y-57984978D02*
X92754123Y-58479953D01*
X98481688Y-64207518D02*
X99346126Y-63343080D01*
X92259148Y-65056046D02*
X92754123Y-64561071D01*
X98481688Y-58833506D02*
X99346126Y-59697945D01*
X97138185Y-58479953D02*
X97633160Y-57984978D01*
X97986713Y-59328481D02*
X98481688Y-58833506D01*
X92259148Y-65056046D02*
X93123586Y-65920484D01*
X92259148Y-57984978D02*
X93123586Y-57120540D01*
X97138185Y-64561071D02*
X97986713Y-63712543D01*
X99346126Y-59697945D02*
X99346126Y-63343080D01*
X96768722Y-65920484D02*
X97633160Y-65056046D01*
X91410620Y-58833506D02*
X91905595Y-59328481D01*
X90546182Y-63343080D02*
X91410620Y-64207518D01*
X91905595Y-59328481D02*
X92754123Y-58479953D01*
X93123586Y-57120540D02*
X96768722Y-57120540D01*
X90546182Y-63343080D02*
X90546182Y-59697945D01*
X96768722Y-57120540D02*
X97633160Y-57984978D01*
X97138185Y-58479953D02*
X97986713Y-59328481D01*
X97633160Y-65056046D02*
X97138185Y-64561071D01*
X91905595Y-63712543D02*
X92754123Y-64561071D01*
X93123586Y-65920484D02*
X96768722Y-65920484D01*
X98481688Y-64207518D02*
X97986713Y-63712543D01*
X91410620Y-64207518D02*
X91905595Y-63712543D01*
X81746182Y-59697945D02*
X82610620Y-58833506D01*
X83459148Y-57984978D02*
X83954123Y-58479953D01*
X89681688Y-64207518D02*
X90546126Y-63343080D01*
X83459148Y-65056046D02*
X83954123Y-64561071D01*
X89681688Y-58833506D02*
X90546126Y-59697945D01*
X88338185Y-58479953D02*
X88833160Y-57984978D01*
X89186713Y-59328481D02*
X89681688Y-58833506D01*
X83459148Y-65056046D02*
X84323586Y-65920484D01*
X83459148Y-57984978D02*
X84323586Y-57120540D01*
X88338185Y-64561071D02*
X89186713Y-63712543D01*
X90546126Y-59697945D02*
X90546126Y-63343080D01*
X87968722Y-65920484D02*
X88833160Y-65056046D01*
X82610620Y-58833506D02*
X83105595Y-59328481D01*
X81746182Y-63343080D02*
X82610620Y-64207518D01*
X83105595Y-59328481D02*
X83954123Y-58479953D01*
X84323586Y-57120540D02*
X87968722Y-57120540D01*
X81746182Y-63343080D02*
X81746182Y-59697945D01*
X87968722Y-57120540D02*
X88833160Y-57984978D01*
X88338185Y-58479953D02*
X89186713Y-59328481D01*
X88833160Y-65056046D02*
X88338185Y-64561071D01*
X83105595Y-63712543D02*
X83954123Y-64561071D01*
X84323586Y-65920484D02*
X87968722Y-65920484D01*
X89681688Y-64207518D02*
X89186713Y-63712543D01*
X82610620Y-64207518D02*
X83105595Y-63712543D01*
X72946182Y-59697945D02*
X73810620Y-58833506D01*
X74659148Y-57984978D02*
X75154123Y-58479953D01*
X80881688Y-64207518D02*
X81746126Y-63343080D01*
X74659148Y-65056046D02*
X75154123Y-64561071D01*
X80881688Y-58833506D02*
X81746126Y-59697945D01*
X79538185Y-58479953D02*
X80033160Y-57984978D01*
X80386713Y-59328481D02*
X80881688Y-58833506D01*
X74659148Y-65056046D02*
X75523586Y-65920484D01*
X74659148Y-57984978D02*
X75523586Y-57120540D01*
X79538185Y-64561071D02*
X80386713Y-63712543D01*
X81746126Y-59697945D02*
X81746126Y-63343080D01*
X79168722Y-65920484D02*
X80033160Y-65056046D01*
X73810620Y-58833506D02*
X74305595Y-59328481D01*
X72946182Y-63343080D02*
X73810620Y-64207518D01*
X74305595Y-59328481D02*
X75154123Y-58479953D01*
X75523586Y-57120540D02*
X79168722Y-57120540D01*
X72946182Y-63343080D02*
X72946182Y-59697945D01*
X79168722Y-57120540D02*
X80033160Y-57984978D01*
X79538185Y-58479953D02*
X80386713Y-59328481D01*
X80033160Y-65056046D02*
X79538185Y-64561071D01*
X74305595Y-63712543D02*
X75154123Y-64561071D01*
X75523586Y-65920484D02*
X79168722Y-65920484D01*
X80881688Y-64207518D02*
X80386713Y-63712543D01*
X73810620Y-64207518D02*
X74305595Y-63712543D01*
X143346182Y-50897945D02*
X144210620Y-50033506D01*
X145059148Y-49184978D02*
X145554123Y-49679953D01*
X151281688Y-55407518D02*
X152146126Y-54543080D01*
X145059148Y-56256046D02*
X145554123Y-55761071D01*
X151281688Y-50033506D02*
X152146126Y-50897945D01*
X149938185Y-49679953D02*
X150433160Y-49184978D01*
X150786713Y-50528481D02*
X151281688Y-50033506D01*
X145059148Y-56256046D02*
X145923586Y-57120484D01*
X145059148Y-49184978D02*
X145923586Y-48320540D01*
X149938185Y-55761071D02*
X150786713Y-54912543D01*
X152146126Y-50897945D02*
X152146126Y-54543080D01*
X149568722Y-57120484D02*
X150433160Y-56256046D01*
X144210620Y-50033506D02*
X144705595Y-50528481D01*
X143346182Y-54543080D02*
X144210620Y-55407518D01*
X144705595Y-50528481D02*
X145554123Y-49679953D01*
X145923586Y-48320540D02*
X149568722Y-48320540D01*
X143346182Y-54543080D02*
X143346182Y-50897945D01*
X149568722Y-48320540D02*
X150433160Y-49184978D01*
X149938185Y-49679953D02*
X150786713Y-50528481D01*
X150433160Y-56256046D02*
X149938185Y-55761071D01*
X144705595Y-54912543D02*
X145554123Y-55761071D01*
X145923586Y-57120484D02*
X149568722Y-57120484D01*
X151281688Y-55407518D02*
X150786713Y-54912543D01*
X144210620Y-55407518D02*
X144705595Y-54912543D01*
X134546182Y-50897945D02*
X135410620Y-50033506D01*
X136259148Y-49184978D02*
X136754123Y-49679953D01*
X142481688Y-55407518D02*
X143346126Y-54543080D01*
X136259148Y-56256046D02*
X136754123Y-55761071D01*
X142481688Y-50033506D02*
X143346126Y-50897945D01*
X141138185Y-49679953D02*
X141633160Y-49184978D01*
X141986713Y-50528481D02*
X142481688Y-50033506D01*
X136259148Y-56256046D02*
X137123586Y-57120484D01*
X136259148Y-49184978D02*
X137123586Y-48320540D01*
X141138185Y-55761071D02*
X141986713Y-54912543D01*
X143346126Y-50897945D02*
X143346126Y-54543080D01*
X140768722Y-57120484D02*
X141633160Y-56256046D01*
X135410620Y-50033506D02*
X135905595Y-50528481D01*
X134546182Y-54543080D02*
X135410620Y-55407518D01*
X135905595Y-50528481D02*
X136754123Y-49679953D01*
X137123586Y-48320540D02*
X140768722Y-48320540D01*
X134546182Y-54543080D02*
X134546182Y-50897945D01*
X140768722Y-48320540D02*
X141633160Y-49184978D01*
X141138185Y-49679953D02*
X141986713Y-50528481D01*
X141633160Y-56256046D02*
X141138185Y-55761071D01*
X135905595Y-54912543D02*
X136754123Y-55761071D01*
X137123586Y-57120484D02*
X140768722Y-57120484D01*
X142481688Y-55407518D02*
X141986713Y-54912543D01*
X135410620Y-55407518D02*
X135905595Y-54912543D01*
X125746182Y-50897945D02*
X126610620Y-50033506D01*
X127459148Y-49184978D02*
X127954123Y-49679953D01*
X133681688Y-55407518D02*
X134546126Y-54543080D01*
X127459148Y-56256046D02*
X127954123Y-55761071D01*
X133681688Y-50033506D02*
X134546126Y-50897945D01*
X132338185Y-49679953D02*
X132833160Y-49184978D01*
X133186713Y-50528481D02*
X133681688Y-50033506D01*
X127459148Y-56256046D02*
X128323586Y-57120484D01*
X127459148Y-49184978D02*
X128323586Y-48320540D01*
X132338185Y-55761071D02*
X133186713Y-54912543D01*
X134546126Y-50897945D02*
X134546126Y-54543080D01*
X131968722Y-57120484D02*
X132833160Y-56256046D01*
X126610620Y-50033506D02*
X127105595Y-50528481D01*
X125746182Y-54543080D02*
X126610620Y-55407518D01*
X127105595Y-50528481D02*
X127954123Y-49679953D01*
X128323586Y-48320540D02*
X131968722Y-48320540D01*
X125746182Y-54543080D02*
X125746182Y-50897945D01*
X131968722Y-48320540D02*
X132833160Y-49184978D01*
X132338185Y-49679953D02*
X133186713Y-50528481D01*
X132833160Y-56256046D02*
X132338185Y-55761071D01*
X127105595Y-54912543D02*
X127954123Y-55761071D01*
X128323586Y-57120484D02*
X131968722Y-57120484D01*
X133681688Y-55407518D02*
X133186713Y-54912543D01*
X126610620Y-55407518D02*
X127105595Y-54912543D01*
X116946182Y-50897945D02*
X117810620Y-50033506D01*
X118659148Y-49184978D02*
X119154123Y-49679953D01*
X124881688Y-55407518D02*
X125746126Y-54543080D01*
X118659148Y-56256046D02*
X119154123Y-55761071D01*
X124881688Y-50033506D02*
X125746126Y-50897945D01*
X123538185Y-49679953D02*
X124033160Y-49184978D01*
X124386713Y-50528481D02*
X124881688Y-50033506D01*
X118659148Y-56256046D02*
X119523586Y-57120484D01*
X118659148Y-49184978D02*
X119523586Y-48320540D01*
X123538185Y-55761071D02*
X124386713Y-54912543D01*
X125746126Y-50897945D02*
X125746126Y-54543080D01*
X123168722Y-57120484D02*
X124033160Y-56256046D01*
X117810620Y-50033506D02*
X118305595Y-50528481D01*
X116946182Y-54543080D02*
X117810620Y-55407518D01*
X118305595Y-50528481D02*
X119154123Y-49679953D01*
X119523586Y-48320540D02*
X123168722Y-48320540D01*
X116946182Y-54543080D02*
X116946182Y-50897945D01*
X123168722Y-48320540D02*
X124033160Y-49184978D01*
X123538185Y-49679953D02*
X124386713Y-50528481D01*
X124033160Y-56256046D02*
X123538185Y-55761071D01*
X118305595Y-54912543D02*
X119154123Y-55761071D01*
X119523586Y-57120484D02*
X123168722Y-57120484D01*
X124881688Y-55407518D02*
X124386713Y-54912543D01*
X117810620Y-55407518D02*
X118305595Y-54912543D01*
X108146182Y-50897945D02*
X109010620Y-50033506D01*
X109859148Y-49184978D02*
X110354123Y-49679953D01*
X116081688Y-55407518D02*
X116946126Y-54543080D01*
X109859148Y-56256046D02*
X110354123Y-55761071D01*
X116081688Y-50033506D02*
X116946126Y-50897945D01*
X114738185Y-49679953D02*
X115233160Y-49184978D01*
X115586713Y-50528481D02*
X116081688Y-50033506D01*
X109859148Y-56256046D02*
X110723586Y-57120484D01*
X109859148Y-49184978D02*
X110723586Y-48320540D01*
X114738185Y-55761071D02*
X115586713Y-54912543D01*
X116946126Y-50897945D02*
X116946126Y-54543080D01*
X114368722Y-57120484D02*
X115233160Y-56256046D01*
X109010620Y-50033506D02*
X109505595Y-50528481D01*
X108146182Y-54543080D02*
X109010620Y-55407518D01*
X109505595Y-50528481D02*
X110354123Y-49679953D01*
X110723586Y-48320540D02*
X114368722Y-48320540D01*
X108146182Y-54543080D02*
X108146182Y-50897945D01*
X114368722Y-48320540D02*
X115233160Y-49184978D01*
X114738185Y-49679953D02*
X115586713Y-50528481D01*
X115233160Y-56256046D02*
X114738185Y-55761071D01*
X109505595Y-54912543D02*
X110354123Y-55761071D01*
X110723586Y-57120484D02*
X114368722Y-57120484D01*
X116081688Y-55407518D02*
X115586713Y-54912543D01*
X109010620Y-55407518D02*
X109505595Y-54912543D01*
X99346182Y-50897945D02*
X100210620Y-50033506D01*
X101059148Y-49184978D02*
X101554123Y-49679953D01*
X107281688Y-55407518D02*
X108146126Y-54543080D01*
X101059148Y-56256046D02*
X101554123Y-55761071D01*
X107281688Y-50033506D02*
X108146126Y-50897945D01*
X105938185Y-49679953D02*
X106433160Y-49184978D01*
X106786713Y-50528481D02*
X107281688Y-50033506D01*
X101059148Y-56256046D02*
X101923586Y-57120484D01*
X101059148Y-49184978D02*
X101923586Y-48320540D01*
X105938185Y-55761071D02*
X106786713Y-54912543D01*
X108146126Y-50897945D02*
X108146126Y-54543080D01*
X105568722Y-57120484D02*
X106433160Y-56256046D01*
X100210620Y-50033506D02*
X100705595Y-50528481D01*
X99346182Y-54543080D02*
X100210620Y-55407518D01*
X100705595Y-50528481D02*
X101554123Y-49679953D01*
X101923586Y-48320540D02*
X105568722Y-48320540D01*
X99346182Y-54543080D02*
X99346182Y-50897945D01*
X105568722Y-48320540D02*
X106433160Y-49184978D01*
X105938185Y-49679953D02*
X106786713Y-50528481D01*
X106433160Y-56256046D02*
X105938185Y-55761071D01*
X100705595Y-54912543D02*
X101554123Y-55761071D01*
X101923586Y-57120484D02*
X105568722Y-57120484D01*
X107281688Y-55407518D02*
X106786713Y-54912543D01*
X100210620Y-55407518D02*
X100705595Y-54912543D01*
X90546182Y-50897945D02*
X91410620Y-50033506D01*
X92259148Y-49184978D02*
X92754123Y-49679953D01*
X98481688Y-55407518D02*
X99346126Y-54543080D01*
X92259148Y-56256046D02*
X92754123Y-55761071D01*
X98481688Y-50033506D02*
X99346126Y-50897945D01*
X97138185Y-49679953D02*
X97633160Y-49184978D01*
X97986713Y-50528481D02*
X98481688Y-50033506D01*
X92259148Y-56256046D02*
X93123586Y-57120484D01*
X92259148Y-49184978D02*
X93123586Y-48320540D01*
X97138185Y-55761071D02*
X97986713Y-54912543D01*
X99346126Y-50897945D02*
X99346126Y-54543080D01*
X96768722Y-57120484D02*
X97633160Y-56256046D01*
X91410620Y-50033506D02*
X91905595Y-50528481D01*
X90546182Y-54543080D02*
X91410620Y-55407518D01*
X91905595Y-50528481D02*
X92754123Y-49679953D01*
X93123586Y-48320540D02*
X96768722Y-48320540D01*
X90546182Y-54543080D02*
X90546182Y-50897945D01*
X96768722Y-48320540D02*
X97633160Y-49184978D01*
X97138185Y-49679953D02*
X97986713Y-50528481D01*
X97633160Y-56256046D02*
X97138185Y-55761071D01*
X91905595Y-54912543D02*
X92754123Y-55761071D01*
X93123586Y-57120484D02*
X96768722Y-57120484D01*
X98481688Y-55407518D02*
X97986713Y-54912543D01*
X91410620Y-55407518D02*
X91905595Y-54912543D01*
X81746182Y-50897945D02*
X82610620Y-50033506D01*
X83459148Y-49184978D02*
X83954123Y-49679953D01*
X89681688Y-55407518D02*
X90546126Y-54543080D01*
X83459148Y-56256046D02*
X83954123Y-55761071D01*
X89681688Y-50033506D02*
X90546126Y-50897945D01*
X88338185Y-49679953D02*
X88833160Y-49184978D01*
X89186713Y-50528481D02*
X89681688Y-50033506D01*
X83459148Y-56256046D02*
X84323586Y-57120484D01*
X83459148Y-49184978D02*
X84323586Y-48320540D01*
X88338185Y-55761071D02*
X89186713Y-54912543D01*
X90546126Y-50897945D02*
X90546126Y-54543080D01*
X87968722Y-57120484D02*
X88833160Y-56256046D01*
X82610620Y-50033506D02*
X83105595Y-50528481D01*
X81746182Y-54543080D02*
X82610620Y-55407518D01*
X83105595Y-50528481D02*
X83954123Y-49679953D01*
X84323586Y-48320540D02*
X87968722Y-48320540D01*
X81746182Y-54543080D02*
X81746182Y-50897945D01*
X87968722Y-48320540D02*
X88833160Y-49184978D01*
X88338185Y-49679953D02*
X89186713Y-50528481D01*
X88833160Y-56256046D02*
X88338185Y-55761071D01*
X83105595Y-54912543D02*
X83954123Y-55761071D01*
X84323586Y-57120484D02*
X87968722Y-57120484D01*
X89681688Y-55407518D02*
X89186713Y-54912543D01*
X82610620Y-55407518D02*
X83105595Y-54912543D01*
X75523586Y-57120484D02*
X79168722Y-57120484D01*
X80881688Y-55407518D02*
X80386713Y-54912543D01*
X73810620Y-55407518D02*
X74305595Y-54912543D01*
X80033160Y-56256046D02*
X79538185Y-55761071D01*
X79538185Y-55761071D02*
X80386713Y-54912543D01*
X79168722Y-57120484D02*
X80033160Y-56256046D01*
X75523586Y-48320540D02*
X79168722Y-48320540D01*
X72946182Y-54543080D02*
X72946182Y-50897945D01*
X80881688Y-50033506D02*
X81746126Y-50897945D01*
X79538185Y-49679953D02*
X80386713Y-50528481D01*
X74659148Y-49184978D02*
X75523586Y-48320540D01*
X74659148Y-49184978D02*
X75154123Y-49679953D01*
X73810620Y-50033506D02*
X74305595Y-50528481D01*
X81746126Y-50897945D02*
X81746126Y-54543080D01*
X74659148Y-56256046D02*
X75523586Y-57120484D01*
X80881688Y-55407518D02*
X81746126Y-54543080D01*
X74305595Y-54912543D02*
X75154123Y-55761071D01*
X79168722Y-48320540D02*
X80033160Y-49184978D01*
X72946182Y-50897945D02*
X73810620Y-50033506D01*
X72946182Y-54543080D02*
X73810620Y-55407518D01*
X74305595Y-50528481D02*
X75154123Y-49679953D01*
X79538185Y-49679953D02*
X80033160Y-49184978D01*
X80386713Y-50528481D02*
X80881688Y-50033506D01*
X74659148Y-56256046D02*
X75154123Y-55761071D01*
M02*
