%TF.GenerationSoftware,KiCad,Pcbnew,7.0.11+dfsg-1build4*%
%TF.CreationDate,2026-03-16T12:18:03-05:00*%
%TF.ProjectId,,58585858-5858-4585-9858-585858585858,rev?*%
%TF.SameCoordinates,Original*%
%TF.FileFunction,Paste,Top*%
%TF.FilePolarity,Positive*%
%FSLAX46Y46*%
G04 Gerber Fmt 4.6, Leading zero omitted, Abs format (unit mm)*
G04 Created by KiCad (PCBNEW 7.0.11+dfsg-1build4) date 2026-03-16 12:18:03*
%MOMM*%
%LPD*%
G01*
G04 APERTURE LIST*
G04 Aperture macros list*
%AMRoundRect*
0 Rectangle with rounded corners*
0 $1 Rounding radius*
0 $2 $3 $4 $5 $6 $7 $8 $9 X,Y pos of 4 corners*
0 Add a 4 corners polygon primitive as box body*
4,1,4,$2,$3,$4,$5,$6,$7,$8,$9,$2,$3,0*
0 Add four circle primitives for the rounded corners*
1,1,$1+$1,$2,$3*
1,1,$1+$1,$4,$5*
1,1,$1+$1,$6,$7*
1,1,$1+$1,$8,$9*
0 Add four rect primitives between the rounded corners*
20,1,$1+$1,$2,$3,$4,$5,0*
20,1,$1+$1,$4,$5,$6,$7,0*
20,1,$1+$1,$6,$7,$8,$9,0*
20,1,$1+$1,$8,$9,$2,$3,0*%
G04 Aperture macros list end*
%ADD10RoundRect,0.150000X0.150000X-0.512500X0.150000X0.512500X-0.150000X0.512500X-0.150000X-0.512500X0*%
G04 APERTURE END LIST*
D10*
%TO.C,U1*%
X149553871Y-124328723D03*
X151453871Y-124328723D03*
X150503871Y-122053723D03*
%TD*%
%TO.C,U1*%
X140753871Y-124328723D03*
X142653871Y-124328723D03*
X141703871Y-122053723D03*
%TD*%
%TO.C,U1*%
X131953871Y-124328723D03*
X133853871Y-124328723D03*
X132903871Y-122053723D03*
%TD*%
%TO.C,U1*%
X123153871Y-124328723D03*
X125053871Y-124328723D03*
X124103871Y-122053723D03*
%TD*%
%TO.C,U1*%
X114353871Y-124328723D03*
X116253871Y-124328723D03*
X115303871Y-122053723D03*
%TD*%
%TO.C,U1*%
X105553871Y-124328723D03*
X107453871Y-124328723D03*
X106503871Y-122053723D03*
%TD*%
%TO.C,U1*%
X96753871Y-124328723D03*
X98653871Y-124328723D03*
X97703871Y-122053723D03*
%TD*%
%TO.C,U1*%
X87953871Y-124328723D03*
X89853871Y-124328723D03*
X88903871Y-122053723D03*
%TD*%
%TO.C,U1*%
X79153871Y-124328723D03*
X81053871Y-124328723D03*
X80103871Y-122053723D03*
%TD*%
%TO.C,U1*%
X149553871Y-115528723D03*
X151453871Y-115528723D03*
X150503871Y-113253723D03*
%TD*%
%TO.C,U1*%
X140753871Y-115528723D03*
X142653871Y-115528723D03*
X141703871Y-113253723D03*
%TD*%
%TO.C,U1*%
X131953871Y-115528723D03*
X133853871Y-115528723D03*
X132903871Y-113253723D03*
%TD*%
%TO.C,U1*%
X123153871Y-115528723D03*
X125053871Y-115528723D03*
X124103871Y-113253723D03*
%TD*%
%TO.C,U1*%
X114353871Y-115528723D03*
X116253871Y-115528723D03*
X115303871Y-113253723D03*
%TD*%
%TO.C,U1*%
X105553871Y-115528723D03*
X107453871Y-115528723D03*
X106503871Y-113253723D03*
%TD*%
%TO.C,U1*%
X96753871Y-115528723D03*
X98653871Y-115528723D03*
X97703871Y-113253723D03*
%TD*%
%TO.C,U1*%
X87953871Y-115528723D03*
X89853871Y-115528723D03*
X88903871Y-113253723D03*
%TD*%
%TO.C,U1*%
X79153871Y-115528723D03*
X81053871Y-115528723D03*
X80103871Y-113253723D03*
%TD*%
%TO.C,U1*%
X149553871Y-106728723D03*
X151453871Y-106728723D03*
X150503871Y-104453723D03*
%TD*%
%TO.C,U1*%
X140753871Y-106728723D03*
X142653871Y-106728723D03*
X141703871Y-104453723D03*
%TD*%
%TO.C,U1*%
X131953871Y-106728723D03*
X133853871Y-106728723D03*
X132903871Y-104453723D03*
%TD*%
%TO.C,U1*%
X123153871Y-106728723D03*
X125053871Y-106728723D03*
X124103871Y-104453723D03*
%TD*%
%TO.C,U1*%
X114353871Y-106728723D03*
X116253871Y-106728723D03*
X115303871Y-104453723D03*
%TD*%
%TO.C,U1*%
X105553871Y-106728723D03*
X107453871Y-106728723D03*
X106503871Y-104453723D03*
%TD*%
%TO.C,U1*%
X96753871Y-106728723D03*
X98653871Y-106728723D03*
X97703871Y-104453723D03*
%TD*%
%TO.C,U1*%
X87953871Y-106728723D03*
X89853871Y-106728723D03*
X88903871Y-104453723D03*
%TD*%
%TO.C,U1*%
X79153871Y-106728723D03*
X81053871Y-106728723D03*
X80103871Y-104453723D03*
%TD*%
%TO.C,U1*%
X149553871Y-97928723D03*
X151453871Y-97928723D03*
X150503871Y-95653723D03*
%TD*%
%TO.C,U1*%
X140753871Y-97928723D03*
X142653871Y-97928723D03*
X141703871Y-95653723D03*
%TD*%
%TO.C,U1*%
X131953871Y-97928723D03*
X133853871Y-97928723D03*
X132903871Y-95653723D03*
%TD*%
%TO.C,U1*%
X123153871Y-97928723D03*
X125053871Y-97928723D03*
X124103871Y-95653723D03*
%TD*%
%TO.C,U1*%
X114353871Y-97928723D03*
X116253871Y-97928723D03*
X115303871Y-95653723D03*
%TD*%
%TO.C,U1*%
X105553871Y-97928723D03*
X107453871Y-97928723D03*
X106503871Y-95653723D03*
%TD*%
%TO.C,U1*%
X96753871Y-97928723D03*
X98653871Y-97928723D03*
X97703871Y-95653723D03*
%TD*%
%TO.C,U1*%
X87953871Y-97928723D03*
X89853871Y-97928723D03*
X88903871Y-95653723D03*
%TD*%
%TO.C,U1*%
X79153871Y-97928723D03*
X81053871Y-97928723D03*
X80103871Y-95653723D03*
%TD*%
%TO.C,U1*%
X149553871Y-89128723D03*
X151453871Y-89128723D03*
X150503871Y-86853723D03*
%TD*%
%TO.C,U1*%
X140753871Y-89128723D03*
X142653871Y-89128723D03*
X141703871Y-86853723D03*
%TD*%
%TO.C,U1*%
X131953871Y-89128723D03*
X133853871Y-89128723D03*
X132903871Y-86853723D03*
%TD*%
%TO.C,U1*%
X123153871Y-89128723D03*
X125053871Y-89128723D03*
X124103871Y-86853723D03*
%TD*%
%TO.C,U1*%
X114353871Y-89128723D03*
X116253871Y-89128723D03*
X115303871Y-86853723D03*
%TD*%
%TO.C,U1*%
X105553871Y-89128723D03*
X107453871Y-89128723D03*
X106503871Y-86853723D03*
%TD*%
%TO.C,U1*%
X96753871Y-89128723D03*
X98653871Y-89128723D03*
X97703871Y-86853723D03*
%TD*%
%TO.C,U1*%
X87953871Y-89128723D03*
X89853871Y-89128723D03*
X88903871Y-86853723D03*
%TD*%
%TO.C,U1*%
X79153871Y-89128723D03*
X81053871Y-89128723D03*
X80103871Y-86853723D03*
%TD*%
%TO.C,U1*%
X149553871Y-80328723D03*
X151453871Y-80328723D03*
X150503871Y-78053723D03*
%TD*%
%TO.C,U1*%
X140753871Y-80328723D03*
X142653871Y-80328723D03*
X141703871Y-78053723D03*
%TD*%
%TO.C,U1*%
X131953871Y-80328723D03*
X133853871Y-80328723D03*
X132903871Y-78053723D03*
%TD*%
%TO.C,U1*%
X123153871Y-80328723D03*
X125053871Y-80328723D03*
X124103871Y-78053723D03*
%TD*%
%TO.C,U1*%
X114353871Y-80328723D03*
X116253871Y-80328723D03*
X115303871Y-78053723D03*
%TD*%
%TO.C,U1*%
X105553871Y-80328723D03*
X107453871Y-80328723D03*
X106503871Y-78053723D03*
%TD*%
%TO.C,U1*%
X96753871Y-80328723D03*
X98653871Y-80328723D03*
X97703871Y-78053723D03*
%TD*%
%TO.C,U1*%
X87953871Y-80328723D03*
X89853871Y-80328723D03*
X88903871Y-78053723D03*
%TD*%
%TO.C,U1*%
X79153871Y-80328723D03*
X81053871Y-80328723D03*
X80103871Y-78053723D03*
%TD*%
%TO.C,U1*%
X149553871Y-71528723D03*
X151453871Y-71528723D03*
X150503871Y-69253723D03*
%TD*%
%TO.C,U1*%
X140753871Y-71528723D03*
X142653871Y-71528723D03*
X141703871Y-69253723D03*
%TD*%
%TO.C,U1*%
X131953871Y-71528723D03*
X133853871Y-71528723D03*
X132903871Y-69253723D03*
%TD*%
%TO.C,U1*%
X123153871Y-71528723D03*
X125053871Y-71528723D03*
X124103871Y-69253723D03*
%TD*%
%TO.C,U1*%
X114353871Y-71528723D03*
X116253871Y-71528723D03*
X115303871Y-69253723D03*
%TD*%
%TO.C,U1*%
X105553871Y-71528723D03*
X107453871Y-71528723D03*
X106503871Y-69253723D03*
%TD*%
%TO.C,U1*%
X96753871Y-71528723D03*
X98653871Y-71528723D03*
X97703871Y-69253723D03*
%TD*%
%TO.C,U1*%
X87953871Y-71528723D03*
X89853871Y-71528723D03*
X88903871Y-69253723D03*
%TD*%
%TO.C,U1*%
X79153871Y-71528723D03*
X81053871Y-71528723D03*
X80103871Y-69253723D03*
%TD*%
%TO.C,U1*%
X149553871Y-62728723D03*
X151453871Y-62728723D03*
X150503871Y-60453723D03*
%TD*%
%TO.C,U1*%
X140753871Y-62728723D03*
X142653871Y-62728723D03*
X141703871Y-60453723D03*
%TD*%
%TO.C,U1*%
X131953871Y-62728723D03*
X133853871Y-62728723D03*
X132903871Y-60453723D03*
%TD*%
%TO.C,U1*%
X123153871Y-62728723D03*
X125053871Y-62728723D03*
X124103871Y-60453723D03*
%TD*%
%TO.C,U1*%
X114353871Y-62728723D03*
X116253871Y-62728723D03*
X115303871Y-60453723D03*
%TD*%
%TO.C,U1*%
X105553871Y-62728723D03*
X107453871Y-62728723D03*
X106503871Y-60453723D03*
%TD*%
%TO.C,U1*%
X96753871Y-62728723D03*
X98653871Y-62728723D03*
X97703871Y-60453723D03*
%TD*%
%TO.C,U1*%
X87953871Y-62728723D03*
X89853871Y-62728723D03*
X88903871Y-60453723D03*
%TD*%
%TO.C,U1*%
X79153871Y-62728723D03*
X81053871Y-62728723D03*
X80103871Y-60453723D03*
%TD*%
%TO.C,U1*%
X149553871Y-53928723D03*
X151453871Y-53928723D03*
X150503871Y-51653723D03*
%TD*%
%TO.C,U1*%
X140753871Y-53928723D03*
X142653871Y-53928723D03*
X141703871Y-51653723D03*
%TD*%
%TO.C,U1*%
X131953871Y-53928723D03*
X133853871Y-53928723D03*
X132903871Y-51653723D03*
%TD*%
%TO.C,U1*%
X123153871Y-53928723D03*
X125053871Y-53928723D03*
X124103871Y-51653723D03*
%TD*%
%TO.C,U1*%
X114353871Y-53928723D03*
X116253871Y-53928723D03*
X115303871Y-51653723D03*
%TD*%
%TO.C,U1*%
X105553871Y-53928723D03*
X107453871Y-53928723D03*
X106503871Y-51653723D03*
%TD*%
%TO.C,U1*%
X96753871Y-53928723D03*
X98653871Y-53928723D03*
X97703871Y-51653723D03*
%TD*%
%TO.C,U1*%
X87953871Y-53928723D03*
X89853871Y-53928723D03*
X88903871Y-51653723D03*
%TD*%
%TO.C,U1*%
X79153871Y-53928723D03*
X81053871Y-53928723D03*
X80103871Y-51653723D03*
%TD*%
M02*
