%TF.GenerationSoftware,KiCad,Pcbnew,7.0.11+dfsg-1build4*%
%TF.CreationDate,2026-03-16T12:18:03-05:00*%
%TF.ProjectId,,58585858-5858-4585-9858-585858585858,rev?*%
%TF.SameCoordinates,Original*%
%TF.FileFunction,Legend,Top*%
%TF.FilePolarity,Positive*%
%FSLAX46Y46*%
G04 Gerber Fmt 4.6, Leading zero omitted, Abs format (unit mm)*
G04 Created by KiCad (PCBNEW 7.0.11+dfsg-1build4) date 2026-03-16 12:18:03*
%MOMM*%
%LPD*%
G01*
G04 APERTURE LIST*
%ADD10C,0.150000*%
%ADD11C,0.120000*%
%ADD12C,0.100000*%
G04 APERTURE END LIST*
D10*
X148434879Y-119090705D02*
X148434879Y-119738324D01*
X148434879Y-119738324D02*
X148472974Y-119814514D01*
X148472974Y-119814514D02*
X148511069Y-119852610D01*
X148511069Y-119852610D02*
X148587260Y-119890705D01*
X148587260Y-119890705D02*
X148739641Y-119890705D01*
X148739641Y-119890705D02*
X148815831Y-119852610D01*
X148815831Y-119852610D02*
X148853926Y-119814514D01*
X148853926Y-119814514D02*
X148892022Y-119738324D01*
X148892022Y-119738324D02*
X148892022Y-119090705D01*
X149692021Y-119890705D02*
X149234878Y-119890705D01*
X149463450Y-119890705D02*
X149463450Y-119090705D01*
X149463450Y-119090705D02*
X149387259Y-119204990D01*
X149387259Y-119204990D02*
X149311069Y-119281181D01*
X149311069Y-119281181D02*
X149234878Y-119319276D01*
X146083658Y-126454515D02*
X146083658Y-127025943D01*
X146083658Y-127025943D02*
X146045563Y-127140229D01*
X146045563Y-127140229D02*
X145969372Y-127216420D01*
X145969372Y-127216420D02*
X145855087Y-127254515D01*
X145855087Y-127254515D02*
X145778896Y-127254515D01*
X146883658Y-127254515D02*
X146426515Y-127254515D01*
X146655087Y-127254515D02*
X146655087Y-126454515D01*
X146655087Y-126454515D02*
X146578896Y-126568800D01*
X146578896Y-126568800D02*
X146502706Y-126644991D01*
X146502706Y-126644991D02*
X146426515Y-126683086D01*
X139634879Y-119090705D02*
X139634879Y-119738324D01*
X139634879Y-119738324D02*
X139672974Y-119814514D01*
X139672974Y-119814514D02*
X139711069Y-119852610D01*
X139711069Y-119852610D02*
X139787260Y-119890705D01*
X139787260Y-119890705D02*
X139939641Y-119890705D01*
X139939641Y-119890705D02*
X140015831Y-119852610D01*
X140015831Y-119852610D02*
X140053926Y-119814514D01*
X140053926Y-119814514D02*
X140092022Y-119738324D01*
X140092022Y-119738324D02*
X140092022Y-119090705D01*
X140892021Y-119890705D02*
X140434878Y-119890705D01*
X140663450Y-119890705D02*
X140663450Y-119090705D01*
X140663450Y-119090705D02*
X140587259Y-119204990D01*
X140587259Y-119204990D02*
X140511069Y-119281181D01*
X140511069Y-119281181D02*
X140434878Y-119319276D01*
X137283658Y-126454515D02*
X137283658Y-127025943D01*
X137283658Y-127025943D02*
X137245563Y-127140229D01*
X137245563Y-127140229D02*
X137169372Y-127216420D01*
X137169372Y-127216420D02*
X137055087Y-127254515D01*
X137055087Y-127254515D02*
X136978896Y-127254515D01*
X138083658Y-127254515D02*
X137626515Y-127254515D01*
X137855087Y-127254515D02*
X137855087Y-126454515D01*
X137855087Y-126454515D02*
X137778896Y-126568800D01*
X137778896Y-126568800D02*
X137702706Y-126644991D01*
X137702706Y-126644991D02*
X137626515Y-126683086D01*
X130834879Y-119090705D02*
X130834879Y-119738324D01*
X130834879Y-119738324D02*
X130872974Y-119814514D01*
X130872974Y-119814514D02*
X130911069Y-119852610D01*
X130911069Y-119852610D02*
X130987260Y-119890705D01*
X130987260Y-119890705D02*
X131139641Y-119890705D01*
X131139641Y-119890705D02*
X131215831Y-119852610D01*
X131215831Y-119852610D02*
X131253926Y-119814514D01*
X131253926Y-119814514D02*
X131292022Y-119738324D01*
X131292022Y-119738324D02*
X131292022Y-119090705D01*
X132092021Y-119890705D02*
X131634878Y-119890705D01*
X131863450Y-119890705D02*
X131863450Y-119090705D01*
X131863450Y-119090705D02*
X131787259Y-119204990D01*
X131787259Y-119204990D02*
X131711069Y-119281181D01*
X131711069Y-119281181D02*
X131634878Y-119319276D01*
X128483658Y-126454515D02*
X128483658Y-127025943D01*
X128483658Y-127025943D02*
X128445563Y-127140229D01*
X128445563Y-127140229D02*
X128369372Y-127216420D01*
X128369372Y-127216420D02*
X128255087Y-127254515D01*
X128255087Y-127254515D02*
X128178896Y-127254515D01*
X129283658Y-127254515D02*
X128826515Y-127254515D01*
X129055087Y-127254515D02*
X129055087Y-126454515D01*
X129055087Y-126454515D02*
X128978896Y-126568800D01*
X128978896Y-126568800D02*
X128902706Y-126644991D01*
X128902706Y-126644991D02*
X128826515Y-126683086D01*
X122034879Y-119090705D02*
X122034879Y-119738324D01*
X122034879Y-119738324D02*
X122072974Y-119814514D01*
X122072974Y-119814514D02*
X122111069Y-119852610D01*
X122111069Y-119852610D02*
X122187260Y-119890705D01*
X122187260Y-119890705D02*
X122339641Y-119890705D01*
X122339641Y-119890705D02*
X122415831Y-119852610D01*
X122415831Y-119852610D02*
X122453926Y-119814514D01*
X122453926Y-119814514D02*
X122492022Y-119738324D01*
X122492022Y-119738324D02*
X122492022Y-119090705D01*
X123292021Y-119890705D02*
X122834878Y-119890705D01*
X123063450Y-119890705D02*
X123063450Y-119090705D01*
X123063450Y-119090705D02*
X122987259Y-119204990D01*
X122987259Y-119204990D02*
X122911069Y-119281181D01*
X122911069Y-119281181D02*
X122834878Y-119319276D01*
X119683658Y-126454515D02*
X119683658Y-127025943D01*
X119683658Y-127025943D02*
X119645563Y-127140229D01*
X119645563Y-127140229D02*
X119569372Y-127216420D01*
X119569372Y-127216420D02*
X119455087Y-127254515D01*
X119455087Y-127254515D02*
X119378896Y-127254515D01*
X120483658Y-127254515D02*
X120026515Y-127254515D01*
X120255087Y-127254515D02*
X120255087Y-126454515D01*
X120255087Y-126454515D02*
X120178896Y-126568800D01*
X120178896Y-126568800D02*
X120102706Y-126644991D01*
X120102706Y-126644991D02*
X120026515Y-126683086D01*
X113234879Y-119090705D02*
X113234879Y-119738324D01*
X113234879Y-119738324D02*
X113272974Y-119814514D01*
X113272974Y-119814514D02*
X113311069Y-119852610D01*
X113311069Y-119852610D02*
X113387260Y-119890705D01*
X113387260Y-119890705D02*
X113539641Y-119890705D01*
X113539641Y-119890705D02*
X113615831Y-119852610D01*
X113615831Y-119852610D02*
X113653926Y-119814514D01*
X113653926Y-119814514D02*
X113692022Y-119738324D01*
X113692022Y-119738324D02*
X113692022Y-119090705D01*
X114492021Y-119890705D02*
X114034878Y-119890705D01*
X114263450Y-119890705D02*
X114263450Y-119090705D01*
X114263450Y-119090705D02*
X114187259Y-119204990D01*
X114187259Y-119204990D02*
X114111069Y-119281181D01*
X114111069Y-119281181D02*
X114034878Y-119319276D01*
X110883658Y-126454515D02*
X110883658Y-127025943D01*
X110883658Y-127025943D02*
X110845563Y-127140229D01*
X110845563Y-127140229D02*
X110769372Y-127216420D01*
X110769372Y-127216420D02*
X110655087Y-127254515D01*
X110655087Y-127254515D02*
X110578896Y-127254515D01*
X111683658Y-127254515D02*
X111226515Y-127254515D01*
X111455087Y-127254515D02*
X111455087Y-126454515D01*
X111455087Y-126454515D02*
X111378896Y-126568800D01*
X111378896Y-126568800D02*
X111302706Y-126644991D01*
X111302706Y-126644991D02*
X111226515Y-126683086D01*
X104434879Y-119090705D02*
X104434879Y-119738324D01*
X104434879Y-119738324D02*
X104472974Y-119814514D01*
X104472974Y-119814514D02*
X104511069Y-119852610D01*
X104511069Y-119852610D02*
X104587260Y-119890705D01*
X104587260Y-119890705D02*
X104739641Y-119890705D01*
X104739641Y-119890705D02*
X104815831Y-119852610D01*
X104815831Y-119852610D02*
X104853926Y-119814514D01*
X104853926Y-119814514D02*
X104892022Y-119738324D01*
X104892022Y-119738324D02*
X104892022Y-119090705D01*
X105692021Y-119890705D02*
X105234878Y-119890705D01*
X105463450Y-119890705D02*
X105463450Y-119090705D01*
X105463450Y-119090705D02*
X105387259Y-119204990D01*
X105387259Y-119204990D02*
X105311069Y-119281181D01*
X105311069Y-119281181D02*
X105234878Y-119319276D01*
X102083658Y-126454515D02*
X102083658Y-127025943D01*
X102083658Y-127025943D02*
X102045563Y-127140229D01*
X102045563Y-127140229D02*
X101969372Y-127216420D01*
X101969372Y-127216420D02*
X101855087Y-127254515D01*
X101855087Y-127254515D02*
X101778896Y-127254515D01*
X102883658Y-127254515D02*
X102426515Y-127254515D01*
X102655087Y-127254515D02*
X102655087Y-126454515D01*
X102655087Y-126454515D02*
X102578896Y-126568800D01*
X102578896Y-126568800D02*
X102502706Y-126644991D01*
X102502706Y-126644991D02*
X102426515Y-126683086D01*
X95634879Y-119090705D02*
X95634879Y-119738324D01*
X95634879Y-119738324D02*
X95672974Y-119814514D01*
X95672974Y-119814514D02*
X95711069Y-119852610D01*
X95711069Y-119852610D02*
X95787260Y-119890705D01*
X95787260Y-119890705D02*
X95939641Y-119890705D01*
X95939641Y-119890705D02*
X96015831Y-119852610D01*
X96015831Y-119852610D02*
X96053926Y-119814514D01*
X96053926Y-119814514D02*
X96092022Y-119738324D01*
X96092022Y-119738324D02*
X96092022Y-119090705D01*
X96892021Y-119890705D02*
X96434878Y-119890705D01*
X96663450Y-119890705D02*
X96663450Y-119090705D01*
X96663450Y-119090705D02*
X96587259Y-119204990D01*
X96587259Y-119204990D02*
X96511069Y-119281181D01*
X96511069Y-119281181D02*
X96434878Y-119319276D01*
X93283658Y-126454515D02*
X93283658Y-127025943D01*
X93283658Y-127025943D02*
X93245563Y-127140229D01*
X93245563Y-127140229D02*
X93169372Y-127216420D01*
X93169372Y-127216420D02*
X93055087Y-127254515D01*
X93055087Y-127254515D02*
X92978896Y-127254515D01*
X94083658Y-127254515D02*
X93626515Y-127254515D01*
X93855087Y-127254515D02*
X93855087Y-126454515D01*
X93855087Y-126454515D02*
X93778896Y-126568800D01*
X93778896Y-126568800D02*
X93702706Y-126644991D01*
X93702706Y-126644991D02*
X93626515Y-126683086D01*
X86834879Y-119090705D02*
X86834879Y-119738324D01*
X86834879Y-119738324D02*
X86872974Y-119814514D01*
X86872974Y-119814514D02*
X86911069Y-119852610D01*
X86911069Y-119852610D02*
X86987260Y-119890705D01*
X86987260Y-119890705D02*
X87139641Y-119890705D01*
X87139641Y-119890705D02*
X87215831Y-119852610D01*
X87215831Y-119852610D02*
X87253926Y-119814514D01*
X87253926Y-119814514D02*
X87292022Y-119738324D01*
X87292022Y-119738324D02*
X87292022Y-119090705D01*
X88092021Y-119890705D02*
X87634878Y-119890705D01*
X87863450Y-119890705D02*
X87863450Y-119090705D01*
X87863450Y-119090705D02*
X87787259Y-119204990D01*
X87787259Y-119204990D02*
X87711069Y-119281181D01*
X87711069Y-119281181D02*
X87634878Y-119319276D01*
X84483658Y-126454515D02*
X84483658Y-127025943D01*
X84483658Y-127025943D02*
X84445563Y-127140229D01*
X84445563Y-127140229D02*
X84369372Y-127216420D01*
X84369372Y-127216420D02*
X84255087Y-127254515D01*
X84255087Y-127254515D02*
X84178896Y-127254515D01*
X85283658Y-127254515D02*
X84826515Y-127254515D01*
X85055087Y-127254515D02*
X85055087Y-126454515D01*
X85055087Y-126454515D02*
X84978896Y-126568800D01*
X84978896Y-126568800D02*
X84902706Y-126644991D01*
X84902706Y-126644991D02*
X84826515Y-126683086D01*
X78034879Y-119090705D02*
X78034879Y-119738324D01*
X78034879Y-119738324D02*
X78072974Y-119814514D01*
X78072974Y-119814514D02*
X78111069Y-119852610D01*
X78111069Y-119852610D02*
X78187260Y-119890705D01*
X78187260Y-119890705D02*
X78339641Y-119890705D01*
X78339641Y-119890705D02*
X78415831Y-119852610D01*
X78415831Y-119852610D02*
X78453926Y-119814514D01*
X78453926Y-119814514D02*
X78492022Y-119738324D01*
X78492022Y-119738324D02*
X78492022Y-119090705D01*
X79292021Y-119890705D02*
X78834878Y-119890705D01*
X79063450Y-119890705D02*
X79063450Y-119090705D01*
X79063450Y-119090705D02*
X78987259Y-119204990D01*
X78987259Y-119204990D02*
X78911069Y-119281181D01*
X78911069Y-119281181D02*
X78834878Y-119319276D01*
X75683658Y-126454515D02*
X75683658Y-127025943D01*
X75683658Y-127025943D02*
X75645563Y-127140229D01*
X75645563Y-127140229D02*
X75569372Y-127216420D01*
X75569372Y-127216420D02*
X75455087Y-127254515D01*
X75455087Y-127254515D02*
X75378896Y-127254515D01*
X76483658Y-127254515D02*
X76026515Y-127254515D01*
X76255087Y-127254515D02*
X76255087Y-126454515D01*
X76255087Y-126454515D02*
X76178896Y-126568800D01*
X76178896Y-126568800D02*
X76102706Y-126644991D01*
X76102706Y-126644991D02*
X76026515Y-126683086D01*
X148434879Y-110290705D02*
X148434879Y-110938324D01*
X148434879Y-110938324D02*
X148472974Y-111014514D01*
X148472974Y-111014514D02*
X148511069Y-111052610D01*
X148511069Y-111052610D02*
X148587260Y-111090705D01*
X148587260Y-111090705D02*
X148739641Y-111090705D01*
X148739641Y-111090705D02*
X148815831Y-111052610D01*
X148815831Y-111052610D02*
X148853926Y-111014514D01*
X148853926Y-111014514D02*
X148892022Y-110938324D01*
X148892022Y-110938324D02*
X148892022Y-110290705D01*
X149692021Y-111090705D02*
X149234878Y-111090705D01*
X149463450Y-111090705D02*
X149463450Y-110290705D01*
X149463450Y-110290705D02*
X149387259Y-110404990D01*
X149387259Y-110404990D02*
X149311069Y-110481181D01*
X149311069Y-110481181D02*
X149234878Y-110519276D01*
X146083658Y-117654515D02*
X146083658Y-118225943D01*
X146083658Y-118225943D02*
X146045563Y-118340229D01*
X146045563Y-118340229D02*
X145969372Y-118416420D01*
X145969372Y-118416420D02*
X145855087Y-118454515D01*
X145855087Y-118454515D02*
X145778896Y-118454515D01*
X146883658Y-118454515D02*
X146426515Y-118454515D01*
X146655087Y-118454515D02*
X146655087Y-117654515D01*
X146655087Y-117654515D02*
X146578896Y-117768800D01*
X146578896Y-117768800D02*
X146502706Y-117844991D01*
X146502706Y-117844991D02*
X146426515Y-117883086D01*
X139634879Y-110290705D02*
X139634879Y-110938324D01*
X139634879Y-110938324D02*
X139672974Y-111014514D01*
X139672974Y-111014514D02*
X139711069Y-111052610D01*
X139711069Y-111052610D02*
X139787260Y-111090705D01*
X139787260Y-111090705D02*
X139939641Y-111090705D01*
X139939641Y-111090705D02*
X140015831Y-111052610D01*
X140015831Y-111052610D02*
X140053926Y-111014514D01*
X140053926Y-111014514D02*
X140092022Y-110938324D01*
X140092022Y-110938324D02*
X140092022Y-110290705D01*
X140892021Y-111090705D02*
X140434878Y-111090705D01*
X140663450Y-111090705D02*
X140663450Y-110290705D01*
X140663450Y-110290705D02*
X140587259Y-110404990D01*
X140587259Y-110404990D02*
X140511069Y-110481181D01*
X140511069Y-110481181D02*
X140434878Y-110519276D01*
X137283658Y-117654515D02*
X137283658Y-118225943D01*
X137283658Y-118225943D02*
X137245563Y-118340229D01*
X137245563Y-118340229D02*
X137169372Y-118416420D01*
X137169372Y-118416420D02*
X137055087Y-118454515D01*
X137055087Y-118454515D02*
X136978896Y-118454515D01*
X138083658Y-118454515D02*
X137626515Y-118454515D01*
X137855087Y-118454515D02*
X137855087Y-117654515D01*
X137855087Y-117654515D02*
X137778896Y-117768800D01*
X137778896Y-117768800D02*
X137702706Y-117844991D01*
X137702706Y-117844991D02*
X137626515Y-117883086D01*
X130834879Y-110290705D02*
X130834879Y-110938324D01*
X130834879Y-110938324D02*
X130872974Y-111014514D01*
X130872974Y-111014514D02*
X130911069Y-111052610D01*
X130911069Y-111052610D02*
X130987260Y-111090705D01*
X130987260Y-111090705D02*
X131139641Y-111090705D01*
X131139641Y-111090705D02*
X131215831Y-111052610D01*
X131215831Y-111052610D02*
X131253926Y-111014514D01*
X131253926Y-111014514D02*
X131292022Y-110938324D01*
X131292022Y-110938324D02*
X131292022Y-110290705D01*
X132092021Y-111090705D02*
X131634878Y-111090705D01*
X131863450Y-111090705D02*
X131863450Y-110290705D01*
X131863450Y-110290705D02*
X131787259Y-110404990D01*
X131787259Y-110404990D02*
X131711069Y-110481181D01*
X131711069Y-110481181D02*
X131634878Y-110519276D01*
X128483658Y-117654515D02*
X128483658Y-118225943D01*
X128483658Y-118225943D02*
X128445563Y-118340229D01*
X128445563Y-118340229D02*
X128369372Y-118416420D01*
X128369372Y-118416420D02*
X128255087Y-118454515D01*
X128255087Y-118454515D02*
X128178896Y-118454515D01*
X129283658Y-118454515D02*
X128826515Y-118454515D01*
X129055087Y-118454515D02*
X129055087Y-117654515D01*
X129055087Y-117654515D02*
X128978896Y-117768800D01*
X128978896Y-117768800D02*
X128902706Y-117844991D01*
X128902706Y-117844991D02*
X128826515Y-117883086D01*
X122034879Y-110290705D02*
X122034879Y-110938324D01*
X122034879Y-110938324D02*
X122072974Y-111014514D01*
X122072974Y-111014514D02*
X122111069Y-111052610D01*
X122111069Y-111052610D02*
X122187260Y-111090705D01*
X122187260Y-111090705D02*
X122339641Y-111090705D01*
X122339641Y-111090705D02*
X122415831Y-111052610D01*
X122415831Y-111052610D02*
X122453926Y-111014514D01*
X122453926Y-111014514D02*
X122492022Y-110938324D01*
X122492022Y-110938324D02*
X122492022Y-110290705D01*
X123292021Y-111090705D02*
X122834878Y-111090705D01*
X123063450Y-111090705D02*
X123063450Y-110290705D01*
X123063450Y-110290705D02*
X122987259Y-110404990D01*
X122987259Y-110404990D02*
X122911069Y-110481181D01*
X122911069Y-110481181D02*
X122834878Y-110519276D01*
X119683658Y-117654515D02*
X119683658Y-118225943D01*
X119683658Y-118225943D02*
X119645563Y-118340229D01*
X119645563Y-118340229D02*
X119569372Y-118416420D01*
X119569372Y-118416420D02*
X119455087Y-118454515D01*
X119455087Y-118454515D02*
X119378896Y-118454515D01*
X120483658Y-118454515D02*
X120026515Y-118454515D01*
X120255087Y-118454515D02*
X120255087Y-117654515D01*
X120255087Y-117654515D02*
X120178896Y-117768800D01*
X120178896Y-117768800D02*
X120102706Y-117844991D01*
X120102706Y-117844991D02*
X120026515Y-117883086D01*
X113234879Y-110290705D02*
X113234879Y-110938324D01*
X113234879Y-110938324D02*
X113272974Y-111014514D01*
X113272974Y-111014514D02*
X113311069Y-111052610D01*
X113311069Y-111052610D02*
X113387260Y-111090705D01*
X113387260Y-111090705D02*
X113539641Y-111090705D01*
X113539641Y-111090705D02*
X113615831Y-111052610D01*
X113615831Y-111052610D02*
X113653926Y-111014514D01*
X113653926Y-111014514D02*
X113692022Y-110938324D01*
X113692022Y-110938324D02*
X113692022Y-110290705D01*
X114492021Y-111090705D02*
X114034878Y-111090705D01*
X114263450Y-111090705D02*
X114263450Y-110290705D01*
X114263450Y-110290705D02*
X114187259Y-110404990D01*
X114187259Y-110404990D02*
X114111069Y-110481181D01*
X114111069Y-110481181D02*
X114034878Y-110519276D01*
X110883658Y-117654515D02*
X110883658Y-118225943D01*
X110883658Y-118225943D02*
X110845563Y-118340229D01*
X110845563Y-118340229D02*
X110769372Y-118416420D01*
X110769372Y-118416420D02*
X110655087Y-118454515D01*
X110655087Y-118454515D02*
X110578896Y-118454515D01*
X111683658Y-118454515D02*
X111226515Y-118454515D01*
X111455087Y-118454515D02*
X111455087Y-117654515D01*
X111455087Y-117654515D02*
X111378896Y-117768800D01*
X111378896Y-117768800D02*
X111302706Y-117844991D01*
X111302706Y-117844991D02*
X111226515Y-117883086D01*
X104434879Y-110290705D02*
X104434879Y-110938324D01*
X104434879Y-110938324D02*
X104472974Y-111014514D01*
X104472974Y-111014514D02*
X104511069Y-111052610D01*
X104511069Y-111052610D02*
X104587260Y-111090705D01*
X104587260Y-111090705D02*
X104739641Y-111090705D01*
X104739641Y-111090705D02*
X104815831Y-111052610D01*
X104815831Y-111052610D02*
X104853926Y-111014514D01*
X104853926Y-111014514D02*
X104892022Y-110938324D01*
X104892022Y-110938324D02*
X104892022Y-110290705D01*
X105692021Y-111090705D02*
X105234878Y-111090705D01*
X105463450Y-111090705D02*
X105463450Y-110290705D01*
X105463450Y-110290705D02*
X105387259Y-110404990D01*
X105387259Y-110404990D02*
X105311069Y-110481181D01*
X105311069Y-110481181D02*
X105234878Y-110519276D01*
X102083658Y-117654515D02*
X102083658Y-118225943D01*
X102083658Y-118225943D02*
X102045563Y-118340229D01*
X102045563Y-118340229D02*
X101969372Y-118416420D01*
X101969372Y-118416420D02*
X101855087Y-118454515D01*
X101855087Y-118454515D02*
X101778896Y-118454515D01*
X102883658Y-118454515D02*
X102426515Y-118454515D01*
X102655087Y-118454515D02*
X102655087Y-117654515D01*
X102655087Y-117654515D02*
X102578896Y-117768800D01*
X102578896Y-117768800D02*
X102502706Y-117844991D01*
X102502706Y-117844991D02*
X102426515Y-117883086D01*
X95634879Y-110290705D02*
X95634879Y-110938324D01*
X95634879Y-110938324D02*
X95672974Y-111014514D01*
X95672974Y-111014514D02*
X95711069Y-111052610D01*
X95711069Y-111052610D02*
X95787260Y-111090705D01*
X95787260Y-111090705D02*
X95939641Y-111090705D01*
X95939641Y-111090705D02*
X96015831Y-111052610D01*
X96015831Y-111052610D02*
X96053926Y-111014514D01*
X96053926Y-111014514D02*
X96092022Y-110938324D01*
X96092022Y-110938324D02*
X96092022Y-110290705D01*
X96892021Y-111090705D02*
X96434878Y-111090705D01*
X96663450Y-111090705D02*
X96663450Y-110290705D01*
X96663450Y-110290705D02*
X96587259Y-110404990D01*
X96587259Y-110404990D02*
X96511069Y-110481181D01*
X96511069Y-110481181D02*
X96434878Y-110519276D01*
X93283658Y-117654515D02*
X93283658Y-118225943D01*
X93283658Y-118225943D02*
X93245563Y-118340229D01*
X93245563Y-118340229D02*
X93169372Y-118416420D01*
X93169372Y-118416420D02*
X93055087Y-118454515D01*
X93055087Y-118454515D02*
X92978896Y-118454515D01*
X94083658Y-118454515D02*
X93626515Y-118454515D01*
X93855087Y-118454515D02*
X93855087Y-117654515D01*
X93855087Y-117654515D02*
X93778896Y-117768800D01*
X93778896Y-117768800D02*
X93702706Y-117844991D01*
X93702706Y-117844991D02*
X93626515Y-117883086D01*
X86834879Y-110290705D02*
X86834879Y-110938324D01*
X86834879Y-110938324D02*
X86872974Y-111014514D01*
X86872974Y-111014514D02*
X86911069Y-111052610D01*
X86911069Y-111052610D02*
X86987260Y-111090705D01*
X86987260Y-111090705D02*
X87139641Y-111090705D01*
X87139641Y-111090705D02*
X87215831Y-111052610D01*
X87215831Y-111052610D02*
X87253926Y-111014514D01*
X87253926Y-111014514D02*
X87292022Y-110938324D01*
X87292022Y-110938324D02*
X87292022Y-110290705D01*
X88092021Y-111090705D02*
X87634878Y-111090705D01*
X87863450Y-111090705D02*
X87863450Y-110290705D01*
X87863450Y-110290705D02*
X87787259Y-110404990D01*
X87787259Y-110404990D02*
X87711069Y-110481181D01*
X87711069Y-110481181D02*
X87634878Y-110519276D01*
X84483658Y-117654515D02*
X84483658Y-118225943D01*
X84483658Y-118225943D02*
X84445563Y-118340229D01*
X84445563Y-118340229D02*
X84369372Y-118416420D01*
X84369372Y-118416420D02*
X84255087Y-118454515D01*
X84255087Y-118454515D02*
X84178896Y-118454515D01*
X85283658Y-118454515D02*
X84826515Y-118454515D01*
X85055087Y-118454515D02*
X85055087Y-117654515D01*
X85055087Y-117654515D02*
X84978896Y-117768800D01*
X84978896Y-117768800D02*
X84902706Y-117844991D01*
X84902706Y-117844991D02*
X84826515Y-117883086D01*
X78034879Y-110290705D02*
X78034879Y-110938324D01*
X78034879Y-110938324D02*
X78072974Y-111014514D01*
X78072974Y-111014514D02*
X78111069Y-111052610D01*
X78111069Y-111052610D02*
X78187260Y-111090705D01*
X78187260Y-111090705D02*
X78339641Y-111090705D01*
X78339641Y-111090705D02*
X78415831Y-111052610D01*
X78415831Y-111052610D02*
X78453926Y-111014514D01*
X78453926Y-111014514D02*
X78492022Y-110938324D01*
X78492022Y-110938324D02*
X78492022Y-110290705D01*
X79292021Y-111090705D02*
X78834878Y-111090705D01*
X79063450Y-111090705D02*
X79063450Y-110290705D01*
X79063450Y-110290705D02*
X78987259Y-110404990D01*
X78987259Y-110404990D02*
X78911069Y-110481181D01*
X78911069Y-110481181D02*
X78834878Y-110519276D01*
X75683658Y-117654515D02*
X75683658Y-118225943D01*
X75683658Y-118225943D02*
X75645563Y-118340229D01*
X75645563Y-118340229D02*
X75569372Y-118416420D01*
X75569372Y-118416420D02*
X75455087Y-118454515D01*
X75455087Y-118454515D02*
X75378896Y-118454515D01*
X76483658Y-118454515D02*
X76026515Y-118454515D01*
X76255087Y-118454515D02*
X76255087Y-117654515D01*
X76255087Y-117654515D02*
X76178896Y-117768800D01*
X76178896Y-117768800D02*
X76102706Y-117844991D01*
X76102706Y-117844991D02*
X76026515Y-117883086D01*
X148434879Y-101490705D02*
X148434879Y-102138324D01*
X148434879Y-102138324D02*
X148472974Y-102214514D01*
X148472974Y-102214514D02*
X148511069Y-102252610D01*
X148511069Y-102252610D02*
X148587260Y-102290705D01*
X148587260Y-102290705D02*
X148739641Y-102290705D01*
X148739641Y-102290705D02*
X148815831Y-102252610D01*
X148815831Y-102252610D02*
X148853926Y-102214514D01*
X148853926Y-102214514D02*
X148892022Y-102138324D01*
X148892022Y-102138324D02*
X148892022Y-101490705D01*
X149692021Y-102290705D02*
X149234878Y-102290705D01*
X149463450Y-102290705D02*
X149463450Y-101490705D01*
X149463450Y-101490705D02*
X149387259Y-101604990D01*
X149387259Y-101604990D02*
X149311069Y-101681181D01*
X149311069Y-101681181D02*
X149234878Y-101719276D01*
X146083658Y-108854515D02*
X146083658Y-109425943D01*
X146083658Y-109425943D02*
X146045563Y-109540229D01*
X146045563Y-109540229D02*
X145969372Y-109616420D01*
X145969372Y-109616420D02*
X145855087Y-109654515D01*
X145855087Y-109654515D02*
X145778896Y-109654515D01*
X146883658Y-109654515D02*
X146426515Y-109654515D01*
X146655087Y-109654515D02*
X146655087Y-108854515D01*
X146655087Y-108854515D02*
X146578896Y-108968800D01*
X146578896Y-108968800D02*
X146502706Y-109044991D01*
X146502706Y-109044991D02*
X146426515Y-109083086D01*
X139634879Y-101490705D02*
X139634879Y-102138324D01*
X139634879Y-102138324D02*
X139672974Y-102214514D01*
X139672974Y-102214514D02*
X139711069Y-102252610D01*
X139711069Y-102252610D02*
X139787260Y-102290705D01*
X139787260Y-102290705D02*
X139939641Y-102290705D01*
X139939641Y-102290705D02*
X140015831Y-102252610D01*
X140015831Y-102252610D02*
X140053926Y-102214514D01*
X140053926Y-102214514D02*
X140092022Y-102138324D01*
X140092022Y-102138324D02*
X140092022Y-101490705D01*
X140892021Y-102290705D02*
X140434878Y-102290705D01*
X140663450Y-102290705D02*
X140663450Y-101490705D01*
X140663450Y-101490705D02*
X140587259Y-101604990D01*
X140587259Y-101604990D02*
X140511069Y-101681181D01*
X140511069Y-101681181D02*
X140434878Y-101719276D01*
X137283658Y-108854515D02*
X137283658Y-109425943D01*
X137283658Y-109425943D02*
X137245563Y-109540229D01*
X137245563Y-109540229D02*
X137169372Y-109616420D01*
X137169372Y-109616420D02*
X137055087Y-109654515D01*
X137055087Y-109654515D02*
X136978896Y-109654515D01*
X138083658Y-109654515D02*
X137626515Y-109654515D01*
X137855087Y-109654515D02*
X137855087Y-108854515D01*
X137855087Y-108854515D02*
X137778896Y-108968800D01*
X137778896Y-108968800D02*
X137702706Y-109044991D01*
X137702706Y-109044991D02*
X137626515Y-109083086D01*
X130834879Y-101490705D02*
X130834879Y-102138324D01*
X130834879Y-102138324D02*
X130872974Y-102214514D01*
X130872974Y-102214514D02*
X130911069Y-102252610D01*
X130911069Y-102252610D02*
X130987260Y-102290705D01*
X130987260Y-102290705D02*
X131139641Y-102290705D01*
X131139641Y-102290705D02*
X131215831Y-102252610D01*
X131215831Y-102252610D02*
X131253926Y-102214514D01*
X131253926Y-102214514D02*
X131292022Y-102138324D01*
X131292022Y-102138324D02*
X131292022Y-101490705D01*
X132092021Y-102290705D02*
X131634878Y-102290705D01*
X131863450Y-102290705D02*
X131863450Y-101490705D01*
X131863450Y-101490705D02*
X131787259Y-101604990D01*
X131787259Y-101604990D02*
X131711069Y-101681181D01*
X131711069Y-101681181D02*
X131634878Y-101719276D01*
X128483658Y-108854515D02*
X128483658Y-109425943D01*
X128483658Y-109425943D02*
X128445563Y-109540229D01*
X128445563Y-109540229D02*
X128369372Y-109616420D01*
X128369372Y-109616420D02*
X128255087Y-109654515D01*
X128255087Y-109654515D02*
X128178896Y-109654515D01*
X129283658Y-109654515D02*
X128826515Y-109654515D01*
X129055087Y-109654515D02*
X129055087Y-108854515D01*
X129055087Y-108854515D02*
X128978896Y-108968800D01*
X128978896Y-108968800D02*
X128902706Y-109044991D01*
X128902706Y-109044991D02*
X128826515Y-109083086D01*
X122034879Y-101490705D02*
X122034879Y-102138324D01*
X122034879Y-102138324D02*
X122072974Y-102214514D01*
X122072974Y-102214514D02*
X122111069Y-102252610D01*
X122111069Y-102252610D02*
X122187260Y-102290705D01*
X122187260Y-102290705D02*
X122339641Y-102290705D01*
X122339641Y-102290705D02*
X122415831Y-102252610D01*
X122415831Y-102252610D02*
X122453926Y-102214514D01*
X122453926Y-102214514D02*
X122492022Y-102138324D01*
X122492022Y-102138324D02*
X122492022Y-101490705D01*
X123292021Y-102290705D02*
X122834878Y-102290705D01*
X123063450Y-102290705D02*
X123063450Y-101490705D01*
X123063450Y-101490705D02*
X122987259Y-101604990D01*
X122987259Y-101604990D02*
X122911069Y-101681181D01*
X122911069Y-101681181D02*
X122834878Y-101719276D01*
X119683658Y-108854515D02*
X119683658Y-109425943D01*
X119683658Y-109425943D02*
X119645563Y-109540229D01*
X119645563Y-109540229D02*
X119569372Y-109616420D01*
X119569372Y-109616420D02*
X119455087Y-109654515D01*
X119455087Y-109654515D02*
X119378896Y-109654515D01*
X120483658Y-109654515D02*
X120026515Y-109654515D01*
X120255087Y-109654515D02*
X120255087Y-108854515D01*
X120255087Y-108854515D02*
X120178896Y-108968800D01*
X120178896Y-108968800D02*
X120102706Y-109044991D01*
X120102706Y-109044991D02*
X120026515Y-109083086D01*
X113234879Y-101490705D02*
X113234879Y-102138324D01*
X113234879Y-102138324D02*
X113272974Y-102214514D01*
X113272974Y-102214514D02*
X113311069Y-102252610D01*
X113311069Y-102252610D02*
X113387260Y-102290705D01*
X113387260Y-102290705D02*
X113539641Y-102290705D01*
X113539641Y-102290705D02*
X113615831Y-102252610D01*
X113615831Y-102252610D02*
X113653926Y-102214514D01*
X113653926Y-102214514D02*
X113692022Y-102138324D01*
X113692022Y-102138324D02*
X113692022Y-101490705D01*
X114492021Y-102290705D02*
X114034878Y-102290705D01*
X114263450Y-102290705D02*
X114263450Y-101490705D01*
X114263450Y-101490705D02*
X114187259Y-101604990D01*
X114187259Y-101604990D02*
X114111069Y-101681181D01*
X114111069Y-101681181D02*
X114034878Y-101719276D01*
X110883658Y-108854515D02*
X110883658Y-109425943D01*
X110883658Y-109425943D02*
X110845563Y-109540229D01*
X110845563Y-109540229D02*
X110769372Y-109616420D01*
X110769372Y-109616420D02*
X110655087Y-109654515D01*
X110655087Y-109654515D02*
X110578896Y-109654515D01*
X111683658Y-109654515D02*
X111226515Y-109654515D01*
X111455087Y-109654515D02*
X111455087Y-108854515D01*
X111455087Y-108854515D02*
X111378896Y-108968800D01*
X111378896Y-108968800D02*
X111302706Y-109044991D01*
X111302706Y-109044991D02*
X111226515Y-109083086D01*
X104434879Y-101490705D02*
X104434879Y-102138324D01*
X104434879Y-102138324D02*
X104472974Y-102214514D01*
X104472974Y-102214514D02*
X104511069Y-102252610D01*
X104511069Y-102252610D02*
X104587260Y-102290705D01*
X104587260Y-102290705D02*
X104739641Y-102290705D01*
X104739641Y-102290705D02*
X104815831Y-102252610D01*
X104815831Y-102252610D02*
X104853926Y-102214514D01*
X104853926Y-102214514D02*
X104892022Y-102138324D01*
X104892022Y-102138324D02*
X104892022Y-101490705D01*
X105692021Y-102290705D02*
X105234878Y-102290705D01*
X105463450Y-102290705D02*
X105463450Y-101490705D01*
X105463450Y-101490705D02*
X105387259Y-101604990D01*
X105387259Y-101604990D02*
X105311069Y-101681181D01*
X105311069Y-101681181D02*
X105234878Y-101719276D01*
X102083658Y-108854515D02*
X102083658Y-109425943D01*
X102083658Y-109425943D02*
X102045563Y-109540229D01*
X102045563Y-109540229D02*
X101969372Y-109616420D01*
X101969372Y-109616420D02*
X101855087Y-109654515D01*
X101855087Y-109654515D02*
X101778896Y-109654515D01*
X102883658Y-109654515D02*
X102426515Y-109654515D01*
X102655087Y-109654515D02*
X102655087Y-108854515D01*
X102655087Y-108854515D02*
X102578896Y-108968800D01*
X102578896Y-108968800D02*
X102502706Y-109044991D01*
X102502706Y-109044991D02*
X102426515Y-109083086D01*
X95634879Y-101490705D02*
X95634879Y-102138324D01*
X95634879Y-102138324D02*
X95672974Y-102214514D01*
X95672974Y-102214514D02*
X95711069Y-102252610D01*
X95711069Y-102252610D02*
X95787260Y-102290705D01*
X95787260Y-102290705D02*
X95939641Y-102290705D01*
X95939641Y-102290705D02*
X96015831Y-102252610D01*
X96015831Y-102252610D02*
X96053926Y-102214514D01*
X96053926Y-102214514D02*
X96092022Y-102138324D01*
X96092022Y-102138324D02*
X96092022Y-101490705D01*
X96892021Y-102290705D02*
X96434878Y-102290705D01*
X96663450Y-102290705D02*
X96663450Y-101490705D01*
X96663450Y-101490705D02*
X96587259Y-101604990D01*
X96587259Y-101604990D02*
X96511069Y-101681181D01*
X96511069Y-101681181D02*
X96434878Y-101719276D01*
X93283658Y-108854515D02*
X93283658Y-109425943D01*
X93283658Y-109425943D02*
X93245563Y-109540229D01*
X93245563Y-109540229D02*
X93169372Y-109616420D01*
X93169372Y-109616420D02*
X93055087Y-109654515D01*
X93055087Y-109654515D02*
X92978896Y-109654515D01*
X94083658Y-109654515D02*
X93626515Y-109654515D01*
X93855087Y-109654515D02*
X93855087Y-108854515D01*
X93855087Y-108854515D02*
X93778896Y-108968800D01*
X93778896Y-108968800D02*
X93702706Y-109044991D01*
X93702706Y-109044991D02*
X93626515Y-109083086D01*
X86834879Y-101490705D02*
X86834879Y-102138324D01*
X86834879Y-102138324D02*
X86872974Y-102214514D01*
X86872974Y-102214514D02*
X86911069Y-102252610D01*
X86911069Y-102252610D02*
X86987260Y-102290705D01*
X86987260Y-102290705D02*
X87139641Y-102290705D01*
X87139641Y-102290705D02*
X87215831Y-102252610D01*
X87215831Y-102252610D02*
X87253926Y-102214514D01*
X87253926Y-102214514D02*
X87292022Y-102138324D01*
X87292022Y-102138324D02*
X87292022Y-101490705D01*
X88092021Y-102290705D02*
X87634878Y-102290705D01*
X87863450Y-102290705D02*
X87863450Y-101490705D01*
X87863450Y-101490705D02*
X87787259Y-101604990D01*
X87787259Y-101604990D02*
X87711069Y-101681181D01*
X87711069Y-101681181D02*
X87634878Y-101719276D01*
X84483658Y-108854515D02*
X84483658Y-109425943D01*
X84483658Y-109425943D02*
X84445563Y-109540229D01*
X84445563Y-109540229D02*
X84369372Y-109616420D01*
X84369372Y-109616420D02*
X84255087Y-109654515D01*
X84255087Y-109654515D02*
X84178896Y-109654515D01*
X85283658Y-109654515D02*
X84826515Y-109654515D01*
X85055087Y-109654515D02*
X85055087Y-108854515D01*
X85055087Y-108854515D02*
X84978896Y-108968800D01*
X84978896Y-108968800D02*
X84902706Y-109044991D01*
X84902706Y-109044991D02*
X84826515Y-109083086D01*
X78034879Y-101490705D02*
X78034879Y-102138324D01*
X78034879Y-102138324D02*
X78072974Y-102214514D01*
X78072974Y-102214514D02*
X78111069Y-102252610D01*
X78111069Y-102252610D02*
X78187260Y-102290705D01*
X78187260Y-102290705D02*
X78339641Y-102290705D01*
X78339641Y-102290705D02*
X78415831Y-102252610D01*
X78415831Y-102252610D02*
X78453926Y-102214514D01*
X78453926Y-102214514D02*
X78492022Y-102138324D01*
X78492022Y-102138324D02*
X78492022Y-101490705D01*
X79292021Y-102290705D02*
X78834878Y-102290705D01*
X79063450Y-102290705D02*
X79063450Y-101490705D01*
X79063450Y-101490705D02*
X78987259Y-101604990D01*
X78987259Y-101604990D02*
X78911069Y-101681181D01*
X78911069Y-101681181D02*
X78834878Y-101719276D01*
X75683658Y-108854515D02*
X75683658Y-109425943D01*
X75683658Y-109425943D02*
X75645563Y-109540229D01*
X75645563Y-109540229D02*
X75569372Y-109616420D01*
X75569372Y-109616420D02*
X75455087Y-109654515D01*
X75455087Y-109654515D02*
X75378896Y-109654515D01*
X76483658Y-109654515D02*
X76026515Y-109654515D01*
X76255087Y-109654515D02*
X76255087Y-108854515D01*
X76255087Y-108854515D02*
X76178896Y-108968800D01*
X76178896Y-108968800D02*
X76102706Y-109044991D01*
X76102706Y-109044991D02*
X76026515Y-109083086D01*
X148434879Y-92690705D02*
X148434879Y-93338324D01*
X148434879Y-93338324D02*
X148472974Y-93414514D01*
X148472974Y-93414514D02*
X148511069Y-93452610D01*
X148511069Y-93452610D02*
X148587260Y-93490705D01*
X148587260Y-93490705D02*
X148739641Y-93490705D01*
X148739641Y-93490705D02*
X148815831Y-93452610D01*
X148815831Y-93452610D02*
X148853926Y-93414514D01*
X148853926Y-93414514D02*
X148892022Y-93338324D01*
X148892022Y-93338324D02*
X148892022Y-92690705D01*
X149692021Y-93490705D02*
X149234878Y-93490705D01*
X149463450Y-93490705D02*
X149463450Y-92690705D01*
X149463450Y-92690705D02*
X149387259Y-92804990D01*
X149387259Y-92804990D02*
X149311069Y-92881181D01*
X149311069Y-92881181D02*
X149234878Y-92919276D01*
X146083658Y-100054515D02*
X146083658Y-100625943D01*
X146083658Y-100625943D02*
X146045563Y-100740229D01*
X146045563Y-100740229D02*
X145969372Y-100816420D01*
X145969372Y-100816420D02*
X145855087Y-100854515D01*
X145855087Y-100854515D02*
X145778896Y-100854515D01*
X146883658Y-100854515D02*
X146426515Y-100854515D01*
X146655087Y-100854515D02*
X146655087Y-100054515D01*
X146655087Y-100054515D02*
X146578896Y-100168800D01*
X146578896Y-100168800D02*
X146502706Y-100244991D01*
X146502706Y-100244991D02*
X146426515Y-100283086D01*
X139634879Y-92690705D02*
X139634879Y-93338324D01*
X139634879Y-93338324D02*
X139672974Y-93414514D01*
X139672974Y-93414514D02*
X139711069Y-93452610D01*
X139711069Y-93452610D02*
X139787260Y-93490705D01*
X139787260Y-93490705D02*
X139939641Y-93490705D01*
X139939641Y-93490705D02*
X140015831Y-93452610D01*
X140015831Y-93452610D02*
X140053926Y-93414514D01*
X140053926Y-93414514D02*
X140092022Y-93338324D01*
X140092022Y-93338324D02*
X140092022Y-92690705D01*
X140892021Y-93490705D02*
X140434878Y-93490705D01*
X140663450Y-93490705D02*
X140663450Y-92690705D01*
X140663450Y-92690705D02*
X140587259Y-92804990D01*
X140587259Y-92804990D02*
X140511069Y-92881181D01*
X140511069Y-92881181D02*
X140434878Y-92919276D01*
X137283658Y-100054515D02*
X137283658Y-100625943D01*
X137283658Y-100625943D02*
X137245563Y-100740229D01*
X137245563Y-100740229D02*
X137169372Y-100816420D01*
X137169372Y-100816420D02*
X137055087Y-100854515D01*
X137055087Y-100854515D02*
X136978896Y-100854515D01*
X138083658Y-100854515D02*
X137626515Y-100854515D01*
X137855087Y-100854515D02*
X137855087Y-100054515D01*
X137855087Y-100054515D02*
X137778896Y-100168800D01*
X137778896Y-100168800D02*
X137702706Y-100244991D01*
X137702706Y-100244991D02*
X137626515Y-100283086D01*
X130834879Y-92690705D02*
X130834879Y-93338324D01*
X130834879Y-93338324D02*
X130872974Y-93414514D01*
X130872974Y-93414514D02*
X130911069Y-93452610D01*
X130911069Y-93452610D02*
X130987260Y-93490705D01*
X130987260Y-93490705D02*
X131139641Y-93490705D01*
X131139641Y-93490705D02*
X131215831Y-93452610D01*
X131215831Y-93452610D02*
X131253926Y-93414514D01*
X131253926Y-93414514D02*
X131292022Y-93338324D01*
X131292022Y-93338324D02*
X131292022Y-92690705D01*
X132092021Y-93490705D02*
X131634878Y-93490705D01*
X131863450Y-93490705D02*
X131863450Y-92690705D01*
X131863450Y-92690705D02*
X131787259Y-92804990D01*
X131787259Y-92804990D02*
X131711069Y-92881181D01*
X131711069Y-92881181D02*
X131634878Y-92919276D01*
X128483658Y-100054515D02*
X128483658Y-100625943D01*
X128483658Y-100625943D02*
X128445563Y-100740229D01*
X128445563Y-100740229D02*
X128369372Y-100816420D01*
X128369372Y-100816420D02*
X128255087Y-100854515D01*
X128255087Y-100854515D02*
X128178896Y-100854515D01*
X129283658Y-100854515D02*
X128826515Y-100854515D01*
X129055087Y-100854515D02*
X129055087Y-100054515D01*
X129055087Y-100054515D02*
X128978896Y-100168800D01*
X128978896Y-100168800D02*
X128902706Y-100244991D01*
X128902706Y-100244991D02*
X128826515Y-100283086D01*
X122034879Y-92690705D02*
X122034879Y-93338324D01*
X122034879Y-93338324D02*
X122072974Y-93414514D01*
X122072974Y-93414514D02*
X122111069Y-93452610D01*
X122111069Y-93452610D02*
X122187260Y-93490705D01*
X122187260Y-93490705D02*
X122339641Y-93490705D01*
X122339641Y-93490705D02*
X122415831Y-93452610D01*
X122415831Y-93452610D02*
X122453926Y-93414514D01*
X122453926Y-93414514D02*
X122492022Y-93338324D01*
X122492022Y-93338324D02*
X122492022Y-92690705D01*
X123292021Y-93490705D02*
X122834878Y-93490705D01*
X123063450Y-93490705D02*
X123063450Y-92690705D01*
X123063450Y-92690705D02*
X122987259Y-92804990D01*
X122987259Y-92804990D02*
X122911069Y-92881181D01*
X122911069Y-92881181D02*
X122834878Y-92919276D01*
X119683658Y-100054515D02*
X119683658Y-100625943D01*
X119683658Y-100625943D02*
X119645563Y-100740229D01*
X119645563Y-100740229D02*
X119569372Y-100816420D01*
X119569372Y-100816420D02*
X119455087Y-100854515D01*
X119455087Y-100854515D02*
X119378896Y-100854515D01*
X120483658Y-100854515D02*
X120026515Y-100854515D01*
X120255087Y-100854515D02*
X120255087Y-100054515D01*
X120255087Y-100054515D02*
X120178896Y-100168800D01*
X120178896Y-100168800D02*
X120102706Y-100244991D01*
X120102706Y-100244991D02*
X120026515Y-100283086D01*
X113234879Y-92690705D02*
X113234879Y-93338324D01*
X113234879Y-93338324D02*
X113272974Y-93414514D01*
X113272974Y-93414514D02*
X113311069Y-93452610D01*
X113311069Y-93452610D02*
X113387260Y-93490705D01*
X113387260Y-93490705D02*
X113539641Y-93490705D01*
X113539641Y-93490705D02*
X113615831Y-93452610D01*
X113615831Y-93452610D02*
X113653926Y-93414514D01*
X113653926Y-93414514D02*
X113692022Y-93338324D01*
X113692022Y-93338324D02*
X113692022Y-92690705D01*
X114492021Y-93490705D02*
X114034878Y-93490705D01*
X114263450Y-93490705D02*
X114263450Y-92690705D01*
X114263450Y-92690705D02*
X114187259Y-92804990D01*
X114187259Y-92804990D02*
X114111069Y-92881181D01*
X114111069Y-92881181D02*
X114034878Y-92919276D01*
X110883658Y-100054515D02*
X110883658Y-100625943D01*
X110883658Y-100625943D02*
X110845563Y-100740229D01*
X110845563Y-100740229D02*
X110769372Y-100816420D01*
X110769372Y-100816420D02*
X110655087Y-100854515D01*
X110655087Y-100854515D02*
X110578896Y-100854515D01*
X111683658Y-100854515D02*
X111226515Y-100854515D01*
X111455087Y-100854515D02*
X111455087Y-100054515D01*
X111455087Y-100054515D02*
X111378896Y-100168800D01*
X111378896Y-100168800D02*
X111302706Y-100244991D01*
X111302706Y-100244991D02*
X111226515Y-100283086D01*
X104434879Y-92690705D02*
X104434879Y-93338324D01*
X104434879Y-93338324D02*
X104472974Y-93414514D01*
X104472974Y-93414514D02*
X104511069Y-93452610D01*
X104511069Y-93452610D02*
X104587260Y-93490705D01*
X104587260Y-93490705D02*
X104739641Y-93490705D01*
X104739641Y-93490705D02*
X104815831Y-93452610D01*
X104815831Y-93452610D02*
X104853926Y-93414514D01*
X104853926Y-93414514D02*
X104892022Y-93338324D01*
X104892022Y-93338324D02*
X104892022Y-92690705D01*
X105692021Y-93490705D02*
X105234878Y-93490705D01*
X105463450Y-93490705D02*
X105463450Y-92690705D01*
X105463450Y-92690705D02*
X105387259Y-92804990D01*
X105387259Y-92804990D02*
X105311069Y-92881181D01*
X105311069Y-92881181D02*
X105234878Y-92919276D01*
X102083658Y-100054515D02*
X102083658Y-100625943D01*
X102083658Y-100625943D02*
X102045563Y-100740229D01*
X102045563Y-100740229D02*
X101969372Y-100816420D01*
X101969372Y-100816420D02*
X101855087Y-100854515D01*
X101855087Y-100854515D02*
X101778896Y-100854515D01*
X102883658Y-100854515D02*
X102426515Y-100854515D01*
X102655087Y-100854515D02*
X102655087Y-100054515D01*
X102655087Y-100054515D02*
X102578896Y-100168800D01*
X102578896Y-100168800D02*
X102502706Y-100244991D01*
X102502706Y-100244991D02*
X102426515Y-100283086D01*
X95634879Y-92690705D02*
X95634879Y-93338324D01*
X95634879Y-93338324D02*
X95672974Y-93414514D01*
X95672974Y-93414514D02*
X95711069Y-93452610D01*
X95711069Y-93452610D02*
X95787260Y-93490705D01*
X95787260Y-93490705D02*
X95939641Y-93490705D01*
X95939641Y-93490705D02*
X96015831Y-93452610D01*
X96015831Y-93452610D02*
X96053926Y-93414514D01*
X96053926Y-93414514D02*
X96092022Y-93338324D01*
X96092022Y-93338324D02*
X96092022Y-92690705D01*
X96892021Y-93490705D02*
X96434878Y-93490705D01*
X96663450Y-93490705D02*
X96663450Y-92690705D01*
X96663450Y-92690705D02*
X96587259Y-92804990D01*
X96587259Y-92804990D02*
X96511069Y-92881181D01*
X96511069Y-92881181D02*
X96434878Y-92919276D01*
X93283658Y-100054515D02*
X93283658Y-100625943D01*
X93283658Y-100625943D02*
X93245563Y-100740229D01*
X93245563Y-100740229D02*
X93169372Y-100816420D01*
X93169372Y-100816420D02*
X93055087Y-100854515D01*
X93055087Y-100854515D02*
X92978896Y-100854515D01*
X94083658Y-100854515D02*
X93626515Y-100854515D01*
X93855087Y-100854515D02*
X93855087Y-100054515D01*
X93855087Y-100054515D02*
X93778896Y-100168800D01*
X93778896Y-100168800D02*
X93702706Y-100244991D01*
X93702706Y-100244991D02*
X93626515Y-100283086D01*
X86834879Y-92690705D02*
X86834879Y-93338324D01*
X86834879Y-93338324D02*
X86872974Y-93414514D01*
X86872974Y-93414514D02*
X86911069Y-93452610D01*
X86911069Y-93452610D02*
X86987260Y-93490705D01*
X86987260Y-93490705D02*
X87139641Y-93490705D01*
X87139641Y-93490705D02*
X87215831Y-93452610D01*
X87215831Y-93452610D02*
X87253926Y-93414514D01*
X87253926Y-93414514D02*
X87292022Y-93338324D01*
X87292022Y-93338324D02*
X87292022Y-92690705D01*
X88092021Y-93490705D02*
X87634878Y-93490705D01*
X87863450Y-93490705D02*
X87863450Y-92690705D01*
X87863450Y-92690705D02*
X87787259Y-92804990D01*
X87787259Y-92804990D02*
X87711069Y-92881181D01*
X87711069Y-92881181D02*
X87634878Y-92919276D01*
X84483658Y-100054515D02*
X84483658Y-100625943D01*
X84483658Y-100625943D02*
X84445563Y-100740229D01*
X84445563Y-100740229D02*
X84369372Y-100816420D01*
X84369372Y-100816420D02*
X84255087Y-100854515D01*
X84255087Y-100854515D02*
X84178896Y-100854515D01*
X85283658Y-100854515D02*
X84826515Y-100854515D01*
X85055087Y-100854515D02*
X85055087Y-100054515D01*
X85055087Y-100054515D02*
X84978896Y-100168800D01*
X84978896Y-100168800D02*
X84902706Y-100244991D01*
X84902706Y-100244991D02*
X84826515Y-100283086D01*
X78034879Y-92690705D02*
X78034879Y-93338324D01*
X78034879Y-93338324D02*
X78072974Y-93414514D01*
X78072974Y-93414514D02*
X78111069Y-93452610D01*
X78111069Y-93452610D02*
X78187260Y-93490705D01*
X78187260Y-93490705D02*
X78339641Y-93490705D01*
X78339641Y-93490705D02*
X78415831Y-93452610D01*
X78415831Y-93452610D02*
X78453926Y-93414514D01*
X78453926Y-93414514D02*
X78492022Y-93338324D01*
X78492022Y-93338324D02*
X78492022Y-92690705D01*
X79292021Y-93490705D02*
X78834878Y-93490705D01*
X79063450Y-93490705D02*
X79063450Y-92690705D01*
X79063450Y-92690705D02*
X78987259Y-92804990D01*
X78987259Y-92804990D02*
X78911069Y-92881181D01*
X78911069Y-92881181D02*
X78834878Y-92919276D01*
X75683658Y-100054515D02*
X75683658Y-100625943D01*
X75683658Y-100625943D02*
X75645563Y-100740229D01*
X75645563Y-100740229D02*
X75569372Y-100816420D01*
X75569372Y-100816420D02*
X75455087Y-100854515D01*
X75455087Y-100854515D02*
X75378896Y-100854515D01*
X76483658Y-100854515D02*
X76026515Y-100854515D01*
X76255087Y-100854515D02*
X76255087Y-100054515D01*
X76255087Y-100054515D02*
X76178896Y-100168800D01*
X76178896Y-100168800D02*
X76102706Y-100244991D01*
X76102706Y-100244991D02*
X76026515Y-100283086D01*
X148434879Y-83890705D02*
X148434879Y-84538324D01*
X148434879Y-84538324D02*
X148472974Y-84614514D01*
X148472974Y-84614514D02*
X148511069Y-84652610D01*
X148511069Y-84652610D02*
X148587260Y-84690705D01*
X148587260Y-84690705D02*
X148739641Y-84690705D01*
X148739641Y-84690705D02*
X148815831Y-84652610D01*
X148815831Y-84652610D02*
X148853926Y-84614514D01*
X148853926Y-84614514D02*
X148892022Y-84538324D01*
X148892022Y-84538324D02*
X148892022Y-83890705D01*
X149692021Y-84690705D02*
X149234878Y-84690705D01*
X149463450Y-84690705D02*
X149463450Y-83890705D01*
X149463450Y-83890705D02*
X149387259Y-84004990D01*
X149387259Y-84004990D02*
X149311069Y-84081181D01*
X149311069Y-84081181D02*
X149234878Y-84119276D01*
X146083658Y-91254515D02*
X146083658Y-91825943D01*
X146083658Y-91825943D02*
X146045563Y-91940229D01*
X146045563Y-91940229D02*
X145969372Y-92016420D01*
X145969372Y-92016420D02*
X145855087Y-92054515D01*
X145855087Y-92054515D02*
X145778896Y-92054515D01*
X146883658Y-92054515D02*
X146426515Y-92054515D01*
X146655087Y-92054515D02*
X146655087Y-91254515D01*
X146655087Y-91254515D02*
X146578896Y-91368800D01*
X146578896Y-91368800D02*
X146502706Y-91444991D01*
X146502706Y-91444991D02*
X146426515Y-91483086D01*
X139634879Y-83890705D02*
X139634879Y-84538324D01*
X139634879Y-84538324D02*
X139672974Y-84614514D01*
X139672974Y-84614514D02*
X139711069Y-84652610D01*
X139711069Y-84652610D02*
X139787260Y-84690705D01*
X139787260Y-84690705D02*
X139939641Y-84690705D01*
X139939641Y-84690705D02*
X140015831Y-84652610D01*
X140015831Y-84652610D02*
X140053926Y-84614514D01*
X140053926Y-84614514D02*
X140092022Y-84538324D01*
X140092022Y-84538324D02*
X140092022Y-83890705D01*
X140892021Y-84690705D02*
X140434878Y-84690705D01*
X140663450Y-84690705D02*
X140663450Y-83890705D01*
X140663450Y-83890705D02*
X140587259Y-84004990D01*
X140587259Y-84004990D02*
X140511069Y-84081181D01*
X140511069Y-84081181D02*
X140434878Y-84119276D01*
X137283658Y-91254515D02*
X137283658Y-91825943D01*
X137283658Y-91825943D02*
X137245563Y-91940229D01*
X137245563Y-91940229D02*
X137169372Y-92016420D01*
X137169372Y-92016420D02*
X137055087Y-92054515D01*
X137055087Y-92054515D02*
X136978896Y-92054515D01*
X138083658Y-92054515D02*
X137626515Y-92054515D01*
X137855087Y-92054515D02*
X137855087Y-91254515D01*
X137855087Y-91254515D02*
X137778896Y-91368800D01*
X137778896Y-91368800D02*
X137702706Y-91444991D01*
X137702706Y-91444991D02*
X137626515Y-91483086D01*
X130834879Y-83890705D02*
X130834879Y-84538324D01*
X130834879Y-84538324D02*
X130872974Y-84614514D01*
X130872974Y-84614514D02*
X130911069Y-84652610D01*
X130911069Y-84652610D02*
X130987260Y-84690705D01*
X130987260Y-84690705D02*
X131139641Y-84690705D01*
X131139641Y-84690705D02*
X131215831Y-84652610D01*
X131215831Y-84652610D02*
X131253926Y-84614514D01*
X131253926Y-84614514D02*
X131292022Y-84538324D01*
X131292022Y-84538324D02*
X131292022Y-83890705D01*
X132092021Y-84690705D02*
X131634878Y-84690705D01*
X131863450Y-84690705D02*
X131863450Y-83890705D01*
X131863450Y-83890705D02*
X131787259Y-84004990D01*
X131787259Y-84004990D02*
X131711069Y-84081181D01*
X131711069Y-84081181D02*
X131634878Y-84119276D01*
X128483658Y-91254515D02*
X128483658Y-91825943D01*
X128483658Y-91825943D02*
X128445563Y-91940229D01*
X128445563Y-91940229D02*
X128369372Y-92016420D01*
X128369372Y-92016420D02*
X128255087Y-92054515D01*
X128255087Y-92054515D02*
X128178896Y-92054515D01*
X129283658Y-92054515D02*
X128826515Y-92054515D01*
X129055087Y-92054515D02*
X129055087Y-91254515D01*
X129055087Y-91254515D02*
X128978896Y-91368800D01*
X128978896Y-91368800D02*
X128902706Y-91444991D01*
X128902706Y-91444991D02*
X128826515Y-91483086D01*
X122034879Y-83890705D02*
X122034879Y-84538324D01*
X122034879Y-84538324D02*
X122072974Y-84614514D01*
X122072974Y-84614514D02*
X122111069Y-84652610D01*
X122111069Y-84652610D02*
X122187260Y-84690705D01*
X122187260Y-84690705D02*
X122339641Y-84690705D01*
X122339641Y-84690705D02*
X122415831Y-84652610D01*
X122415831Y-84652610D02*
X122453926Y-84614514D01*
X122453926Y-84614514D02*
X122492022Y-84538324D01*
X122492022Y-84538324D02*
X122492022Y-83890705D01*
X123292021Y-84690705D02*
X122834878Y-84690705D01*
X123063450Y-84690705D02*
X123063450Y-83890705D01*
X123063450Y-83890705D02*
X122987259Y-84004990D01*
X122987259Y-84004990D02*
X122911069Y-84081181D01*
X122911069Y-84081181D02*
X122834878Y-84119276D01*
X119683658Y-91254515D02*
X119683658Y-91825943D01*
X119683658Y-91825943D02*
X119645563Y-91940229D01*
X119645563Y-91940229D02*
X119569372Y-92016420D01*
X119569372Y-92016420D02*
X119455087Y-92054515D01*
X119455087Y-92054515D02*
X119378896Y-92054515D01*
X120483658Y-92054515D02*
X120026515Y-92054515D01*
X120255087Y-92054515D02*
X120255087Y-91254515D01*
X120255087Y-91254515D02*
X120178896Y-91368800D01*
X120178896Y-91368800D02*
X120102706Y-91444991D01*
X120102706Y-91444991D02*
X120026515Y-91483086D01*
X113234879Y-83890705D02*
X113234879Y-84538324D01*
X113234879Y-84538324D02*
X113272974Y-84614514D01*
X113272974Y-84614514D02*
X113311069Y-84652610D01*
X113311069Y-84652610D02*
X113387260Y-84690705D01*
X113387260Y-84690705D02*
X113539641Y-84690705D01*
X113539641Y-84690705D02*
X113615831Y-84652610D01*
X113615831Y-84652610D02*
X113653926Y-84614514D01*
X113653926Y-84614514D02*
X113692022Y-84538324D01*
X113692022Y-84538324D02*
X113692022Y-83890705D01*
X114492021Y-84690705D02*
X114034878Y-84690705D01*
X114263450Y-84690705D02*
X114263450Y-83890705D01*
X114263450Y-83890705D02*
X114187259Y-84004990D01*
X114187259Y-84004990D02*
X114111069Y-84081181D01*
X114111069Y-84081181D02*
X114034878Y-84119276D01*
X110883658Y-91254515D02*
X110883658Y-91825943D01*
X110883658Y-91825943D02*
X110845563Y-91940229D01*
X110845563Y-91940229D02*
X110769372Y-92016420D01*
X110769372Y-92016420D02*
X110655087Y-92054515D01*
X110655087Y-92054515D02*
X110578896Y-92054515D01*
X111683658Y-92054515D02*
X111226515Y-92054515D01*
X111455087Y-92054515D02*
X111455087Y-91254515D01*
X111455087Y-91254515D02*
X111378896Y-91368800D01*
X111378896Y-91368800D02*
X111302706Y-91444991D01*
X111302706Y-91444991D02*
X111226515Y-91483086D01*
X104434879Y-83890705D02*
X104434879Y-84538324D01*
X104434879Y-84538324D02*
X104472974Y-84614514D01*
X104472974Y-84614514D02*
X104511069Y-84652610D01*
X104511069Y-84652610D02*
X104587260Y-84690705D01*
X104587260Y-84690705D02*
X104739641Y-84690705D01*
X104739641Y-84690705D02*
X104815831Y-84652610D01*
X104815831Y-84652610D02*
X104853926Y-84614514D01*
X104853926Y-84614514D02*
X104892022Y-84538324D01*
X104892022Y-84538324D02*
X104892022Y-83890705D01*
X105692021Y-84690705D02*
X105234878Y-84690705D01*
X105463450Y-84690705D02*
X105463450Y-83890705D01*
X105463450Y-83890705D02*
X105387259Y-84004990D01*
X105387259Y-84004990D02*
X105311069Y-84081181D01*
X105311069Y-84081181D02*
X105234878Y-84119276D01*
X102083658Y-91254515D02*
X102083658Y-91825943D01*
X102083658Y-91825943D02*
X102045563Y-91940229D01*
X102045563Y-91940229D02*
X101969372Y-92016420D01*
X101969372Y-92016420D02*
X101855087Y-92054515D01*
X101855087Y-92054515D02*
X101778896Y-92054515D01*
X102883658Y-92054515D02*
X102426515Y-92054515D01*
X102655087Y-92054515D02*
X102655087Y-91254515D01*
X102655087Y-91254515D02*
X102578896Y-91368800D01*
X102578896Y-91368800D02*
X102502706Y-91444991D01*
X102502706Y-91444991D02*
X102426515Y-91483086D01*
X95634879Y-83890705D02*
X95634879Y-84538324D01*
X95634879Y-84538324D02*
X95672974Y-84614514D01*
X95672974Y-84614514D02*
X95711069Y-84652610D01*
X95711069Y-84652610D02*
X95787260Y-84690705D01*
X95787260Y-84690705D02*
X95939641Y-84690705D01*
X95939641Y-84690705D02*
X96015831Y-84652610D01*
X96015831Y-84652610D02*
X96053926Y-84614514D01*
X96053926Y-84614514D02*
X96092022Y-84538324D01*
X96092022Y-84538324D02*
X96092022Y-83890705D01*
X96892021Y-84690705D02*
X96434878Y-84690705D01*
X96663450Y-84690705D02*
X96663450Y-83890705D01*
X96663450Y-83890705D02*
X96587259Y-84004990D01*
X96587259Y-84004990D02*
X96511069Y-84081181D01*
X96511069Y-84081181D02*
X96434878Y-84119276D01*
X93283658Y-91254515D02*
X93283658Y-91825943D01*
X93283658Y-91825943D02*
X93245563Y-91940229D01*
X93245563Y-91940229D02*
X93169372Y-92016420D01*
X93169372Y-92016420D02*
X93055087Y-92054515D01*
X93055087Y-92054515D02*
X92978896Y-92054515D01*
X94083658Y-92054515D02*
X93626515Y-92054515D01*
X93855087Y-92054515D02*
X93855087Y-91254515D01*
X93855087Y-91254515D02*
X93778896Y-91368800D01*
X93778896Y-91368800D02*
X93702706Y-91444991D01*
X93702706Y-91444991D02*
X93626515Y-91483086D01*
X86834879Y-83890705D02*
X86834879Y-84538324D01*
X86834879Y-84538324D02*
X86872974Y-84614514D01*
X86872974Y-84614514D02*
X86911069Y-84652610D01*
X86911069Y-84652610D02*
X86987260Y-84690705D01*
X86987260Y-84690705D02*
X87139641Y-84690705D01*
X87139641Y-84690705D02*
X87215831Y-84652610D01*
X87215831Y-84652610D02*
X87253926Y-84614514D01*
X87253926Y-84614514D02*
X87292022Y-84538324D01*
X87292022Y-84538324D02*
X87292022Y-83890705D01*
X88092021Y-84690705D02*
X87634878Y-84690705D01*
X87863450Y-84690705D02*
X87863450Y-83890705D01*
X87863450Y-83890705D02*
X87787259Y-84004990D01*
X87787259Y-84004990D02*
X87711069Y-84081181D01*
X87711069Y-84081181D02*
X87634878Y-84119276D01*
X84483658Y-91254515D02*
X84483658Y-91825943D01*
X84483658Y-91825943D02*
X84445563Y-91940229D01*
X84445563Y-91940229D02*
X84369372Y-92016420D01*
X84369372Y-92016420D02*
X84255087Y-92054515D01*
X84255087Y-92054515D02*
X84178896Y-92054515D01*
X85283658Y-92054515D02*
X84826515Y-92054515D01*
X85055087Y-92054515D02*
X85055087Y-91254515D01*
X85055087Y-91254515D02*
X84978896Y-91368800D01*
X84978896Y-91368800D02*
X84902706Y-91444991D01*
X84902706Y-91444991D02*
X84826515Y-91483086D01*
X78034879Y-83890705D02*
X78034879Y-84538324D01*
X78034879Y-84538324D02*
X78072974Y-84614514D01*
X78072974Y-84614514D02*
X78111069Y-84652610D01*
X78111069Y-84652610D02*
X78187260Y-84690705D01*
X78187260Y-84690705D02*
X78339641Y-84690705D01*
X78339641Y-84690705D02*
X78415831Y-84652610D01*
X78415831Y-84652610D02*
X78453926Y-84614514D01*
X78453926Y-84614514D02*
X78492022Y-84538324D01*
X78492022Y-84538324D02*
X78492022Y-83890705D01*
X79292021Y-84690705D02*
X78834878Y-84690705D01*
X79063450Y-84690705D02*
X79063450Y-83890705D01*
X79063450Y-83890705D02*
X78987259Y-84004990D01*
X78987259Y-84004990D02*
X78911069Y-84081181D01*
X78911069Y-84081181D02*
X78834878Y-84119276D01*
X75683658Y-91254515D02*
X75683658Y-91825943D01*
X75683658Y-91825943D02*
X75645563Y-91940229D01*
X75645563Y-91940229D02*
X75569372Y-92016420D01*
X75569372Y-92016420D02*
X75455087Y-92054515D01*
X75455087Y-92054515D02*
X75378896Y-92054515D01*
X76483658Y-92054515D02*
X76026515Y-92054515D01*
X76255087Y-92054515D02*
X76255087Y-91254515D01*
X76255087Y-91254515D02*
X76178896Y-91368800D01*
X76178896Y-91368800D02*
X76102706Y-91444991D01*
X76102706Y-91444991D02*
X76026515Y-91483086D01*
X148434879Y-75090705D02*
X148434879Y-75738324D01*
X148434879Y-75738324D02*
X148472974Y-75814514D01*
X148472974Y-75814514D02*
X148511069Y-75852610D01*
X148511069Y-75852610D02*
X148587260Y-75890705D01*
X148587260Y-75890705D02*
X148739641Y-75890705D01*
X148739641Y-75890705D02*
X148815831Y-75852610D01*
X148815831Y-75852610D02*
X148853926Y-75814514D01*
X148853926Y-75814514D02*
X148892022Y-75738324D01*
X148892022Y-75738324D02*
X148892022Y-75090705D01*
X149692021Y-75890705D02*
X149234878Y-75890705D01*
X149463450Y-75890705D02*
X149463450Y-75090705D01*
X149463450Y-75090705D02*
X149387259Y-75204990D01*
X149387259Y-75204990D02*
X149311069Y-75281181D01*
X149311069Y-75281181D02*
X149234878Y-75319276D01*
X146083658Y-82454515D02*
X146083658Y-83025943D01*
X146083658Y-83025943D02*
X146045563Y-83140229D01*
X146045563Y-83140229D02*
X145969372Y-83216420D01*
X145969372Y-83216420D02*
X145855087Y-83254515D01*
X145855087Y-83254515D02*
X145778896Y-83254515D01*
X146883658Y-83254515D02*
X146426515Y-83254515D01*
X146655087Y-83254515D02*
X146655087Y-82454515D01*
X146655087Y-82454515D02*
X146578896Y-82568800D01*
X146578896Y-82568800D02*
X146502706Y-82644991D01*
X146502706Y-82644991D02*
X146426515Y-82683086D01*
X139634879Y-75090705D02*
X139634879Y-75738324D01*
X139634879Y-75738324D02*
X139672974Y-75814514D01*
X139672974Y-75814514D02*
X139711069Y-75852610D01*
X139711069Y-75852610D02*
X139787260Y-75890705D01*
X139787260Y-75890705D02*
X139939641Y-75890705D01*
X139939641Y-75890705D02*
X140015831Y-75852610D01*
X140015831Y-75852610D02*
X140053926Y-75814514D01*
X140053926Y-75814514D02*
X140092022Y-75738324D01*
X140092022Y-75738324D02*
X140092022Y-75090705D01*
X140892021Y-75890705D02*
X140434878Y-75890705D01*
X140663450Y-75890705D02*
X140663450Y-75090705D01*
X140663450Y-75090705D02*
X140587259Y-75204990D01*
X140587259Y-75204990D02*
X140511069Y-75281181D01*
X140511069Y-75281181D02*
X140434878Y-75319276D01*
X137283658Y-82454515D02*
X137283658Y-83025943D01*
X137283658Y-83025943D02*
X137245563Y-83140229D01*
X137245563Y-83140229D02*
X137169372Y-83216420D01*
X137169372Y-83216420D02*
X137055087Y-83254515D01*
X137055087Y-83254515D02*
X136978896Y-83254515D01*
X138083658Y-83254515D02*
X137626515Y-83254515D01*
X137855087Y-83254515D02*
X137855087Y-82454515D01*
X137855087Y-82454515D02*
X137778896Y-82568800D01*
X137778896Y-82568800D02*
X137702706Y-82644991D01*
X137702706Y-82644991D02*
X137626515Y-82683086D01*
X130834879Y-75090705D02*
X130834879Y-75738324D01*
X130834879Y-75738324D02*
X130872974Y-75814514D01*
X130872974Y-75814514D02*
X130911069Y-75852610D01*
X130911069Y-75852610D02*
X130987260Y-75890705D01*
X130987260Y-75890705D02*
X131139641Y-75890705D01*
X131139641Y-75890705D02*
X131215831Y-75852610D01*
X131215831Y-75852610D02*
X131253926Y-75814514D01*
X131253926Y-75814514D02*
X131292022Y-75738324D01*
X131292022Y-75738324D02*
X131292022Y-75090705D01*
X132092021Y-75890705D02*
X131634878Y-75890705D01*
X131863450Y-75890705D02*
X131863450Y-75090705D01*
X131863450Y-75090705D02*
X131787259Y-75204990D01*
X131787259Y-75204990D02*
X131711069Y-75281181D01*
X131711069Y-75281181D02*
X131634878Y-75319276D01*
X128483658Y-82454515D02*
X128483658Y-83025943D01*
X128483658Y-83025943D02*
X128445563Y-83140229D01*
X128445563Y-83140229D02*
X128369372Y-83216420D01*
X128369372Y-83216420D02*
X128255087Y-83254515D01*
X128255087Y-83254515D02*
X128178896Y-83254515D01*
X129283658Y-83254515D02*
X128826515Y-83254515D01*
X129055087Y-83254515D02*
X129055087Y-82454515D01*
X129055087Y-82454515D02*
X128978896Y-82568800D01*
X128978896Y-82568800D02*
X128902706Y-82644991D01*
X128902706Y-82644991D02*
X128826515Y-82683086D01*
X122034879Y-75090705D02*
X122034879Y-75738324D01*
X122034879Y-75738324D02*
X122072974Y-75814514D01*
X122072974Y-75814514D02*
X122111069Y-75852610D01*
X122111069Y-75852610D02*
X122187260Y-75890705D01*
X122187260Y-75890705D02*
X122339641Y-75890705D01*
X122339641Y-75890705D02*
X122415831Y-75852610D01*
X122415831Y-75852610D02*
X122453926Y-75814514D01*
X122453926Y-75814514D02*
X122492022Y-75738324D01*
X122492022Y-75738324D02*
X122492022Y-75090705D01*
X123292021Y-75890705D02*
X122834878Y-75890705D01*
X123063450Y-75890705D02*
X123063450Y-75090705D01*
X123063450Y-75090705D02*
X122987259Y-75204990D01*
X122987259Y-75204990D02*
X122911069Y-75281181D01*
X122911069Y-75281181D02*
X122834878Y-75319276D01*
X119683658Y-82454515D02*
X119683658Y-83025943D01*
X119683658Y-83025943D02*
X119645563Y-83140229D01*
X119645563Y-83140229D02*
X119569372Y-83216420D01*
X119569372Y-83216420D02*
X119455087Y-83254515D01*
X119455087Y-83254515D02*
X119378896Y-83254515D01*
X120483658Y-83254515D02*
X120026515Y-83254515D01*
X120255087Y-83254515D02*
X120255087Y-82454515D01*
X120255087Y-82454515D02*
X120178896Y-82568800D01*
X120178896Y-82568800D02*
X120102706Y-82644991D01*
X120102706Y-82644991D02*
X120026515Y-82683086D01*
X113234879Y-75090705D02*
X113234879Y-75738324D01*
X113234879Y-75738324D02*
X113272974Y-75814514D01*
X113272974Y-75814514D02*
X113311069Y-75852610D01*
X113311069Y-75852610D02*
X113387260Y-75890705D01*
X113387260Y-75890705D02*
X113539641Y-75890705D01*
X113539641Y-75890705D02*
X113615831Y-75852610D01*
X113615831Y-75852610D02*
X113653926Y-75814514D01*
X113653926Y-75814514D02*
X113692022Y-75738324D01*
X113692022Y-75738324D02*
X113692022Y-75090705D01*
X114492021Y-75890705D02*
X114034878Y-75890705D01*
X114263450Y-75890705D02*
X114263450Y-75090705D01*
X114263450Y-75090705D02*
X114187259Y-75204990D01*
X114187259Y-75204990D02*
X114111069Y-75281181D01*
X114111069Y-75281181D02*
X114034878Y-75319276D01*
X110883658Y-82454515D02*
X110883658Y-83025943D01*
X110883658Y-83025943D02*
X110845563Y-83140229D01*
X110845563Y-83140229D02*
X110769372Y-83216420D01*
X110769372Y-83216420D02*
X110655087Y-83254515D01*
X110655087Y-83254515D02*
X110578896Y-83254515D01*
X111683658Y-83254515D02*
X111226515Y-83254515D01*
X111455087Y-83254515D02*
X111455087Y-82454515D01*
X111455087Y-82454515D02*
X111378896Y-82568800D01*
X111378896Y-82568800D02*
X111302706Y-82644991D01*
X111302706Y-82644991D02*
X111226515Y-82683086D01*
X104434879Y-75090705D02*
X104434879Y-75738324D01*
X104434879Y-75738324D02*
X104472974Y-75814514D01*
X104472974Y-75814514D02*
X104511069Y-75852610D01*
X104511069Y-75852610D02*
X104587260Y-75890705D01*
X104587260Y-75890705D02*
X104739641Y-75890705D01*
X104739641Y-75890705D02*
X104815831Y-75852610D01*
X104815831Y-75852610D02*
X104853926Y-75814514D01*
X104853926Y-75814514D02*
X104892022Y-75738324D01*
X104892022Y-75738324D02*
X104892022Y-75090705D01*
X105692021Y-75890705D02*
X105234878Y-75890705D01*
X105463450Y-75890705D02*
X105463450Y-75090705D01*
X105463450Y-75090705D02*
X105387259Y-75204990D01*
X105387259Y-75204990D02*
X105311069Y-75281181D01*
X105311069Y-75281181D02*
X105234878Y-75319276D01*
X102083658Y-82454515D02*
X102083658Y-83025943D01*
X102083658Y-83025943D02*
X102045563Y-83140229D01*
X102045563Y-83140229D02*
X101969372Y-83216420D01*
X101969372Y-83216420D02*
X101855087Y-83254515D01*
X101855087Y-83254515D02*
X101778896Y-83254515D01*
X102883658Y-83254515D02*
X102426515Y-83254515D01*
X102655087Y-83254515D02*
X102655087Y-82454515D01*
X102655087Y-82454515D02*
X102578896Y-82568800D01*
X102578896Y-82568800D02*
X102502706Y-82644991D01*
X102502706Y-82644991D02*
X102426515Y-82683086D01*
X95634879Y-75090705D02*
X95634879Y-75738324D01*
X95634879Y-75738324D02*
X95672974Y-75814514D01*
X95672974Y-75814514D02*
X95711069Y-75852610D01*
X95711069Y-75852610D02*
X95787260Y-75890705D01*
X95787260Y-75890705D02*
X95939641Y-75890705D01*
X95939641Y-75890705D02*
X96015831Y-75852610D01*
X96015831Y-75852610D02*
X96053926Y-75814514D01*
X96053926Y-75814514D02*
X96092022Y-75738324D01*
X96092022Y-75738324D02*
X96092022Y-75090705D01*
X96892021Y-75890705D02*
X96434878Y-75890705D01*
X96663450Y-75890705D02*
X96663450Y-75090705D01*
X96663450Y-75090705D02*
X96587259Y-75204990D01*
X96587259Y-75204990D02*
X96511069Y-75281181D01*
X96511069Y-75281181D02*
X96434878Y-75319276D01*
X93283658Y-82454515D02*
X93283658Y-83025943D01*
X93283658Y-83025943D02*
X93245563Y-83140229D01*
X93245563Y-83140229D02*
X93169372Y-83216420D01*
X93169372Y-83216420D02*
X93055087Y-83254515D01*
X93055087Y-83254515D02*
X92978896Y-83254515D01*
X94083658Y-83254515D02*
X93626515Y-83254515D01*
X93855087Y-83254515D02*
X93855087Y-82454515D01*
X93855087Y-82454515D02*
X93778896Y-82568800D01*
X93778896Y-82568800D02*
X93702706Y-82644991D01*
X93702706Y-82644991D02*
X93626515Y-82683086D01*
X86834879Y-75090705D02*
X86834879Y-75738324D01*
X86834879Y-75738324D02*
X86872974Y-75814514D01*
X86872974Y-75814514D02*
X86911069Y-75852610D01*
X86911069Y-75852610D02*
X86987260Y-75890705D01*
X86987260Y-75890705D02*
X87139641Y-75890705D01*
X87139641Y-75890705D02*
X87215831Y-75852610D01*
X87215831Y-75852610D02*
X87253926Y-75814514D01*
X87253926Y-75814514D02*
X87292022Y-75738324D01*
X87292022Y-75738324D02*
X87292022Y-75090705D01*
X88092021Y-75890705D02*
X87634878Y-75890705D01*
X87863450Y-75890705D02*
X87863450Y-75090705D01*
X87863450Y-75090705D02*
X87787259Y-75204990D01*
X87787259Y-75204990D02*
X87711069Y-75281181D01*
X87711069Y-75281181D02*
X87634878Y-75319276D01*
X84483658Y-82454515D02*
X84483658Y-83025943D01*
X84483658Y-83025943D02*
X84445563Y-83140229D01*
X84445563Y-83140229D02*
X84369372Y-83216420D01*
X84369372Y-83216420D02*
X84255087Y-83254515D01*
X84255087Y-83254515D02*
X84178896Y-83254515D01*
X85283658Y-83254515D02*
X84826515Y-83254515D01*
X85055087Y-83254515D02*
X85055087Y-82454515D01*
X85055087Y-82454515D02*
X84978896Y-82568800D01*
X84978896Y-82568800D02*
X84902706Y-82644991D01*
X84902706Y-82644991D02*
X84826515Y-82683086D01*
X78034879Y-75090705D02*
X78034879Y-75738324D01*
X78034879Y-75738324D02*
X78072974Y-75814514D01*
X78072974Y-75814514D02*
X78111069Y-75852610D01*
X78111069Y-75852610D02*
X78187260Y-75890705D01*
X78187260Y-75890705D02*
X78339641Y-75890705D01*
X78339641Y-75890705D02*
X78415831Y-75852610D01*
X78415831Y-75852610D02*
X78453926Y-75814514D01*
X78453926Y-75814514D02*
X78492022Y-75738324D01*
X78492022Y-75738324D02*
X78492022Y-75090705D01*
X79292021Y-75890705D02*
X78834878Y-75890705D01*
X79063450Y-75890705D02*
X79063450Y-75090705D01*
X79063450Y-75090705D02*
X78987259Y-75204990D01*
X78987259Y-75204990D02*
X78911069Y-75281181D01*
X78911069Y-75281181D02*
X78834878Y-75319276D01*
X75683658Y-82454515D02*
X75683658Y-83025943D01*
X75683658Y-83025943D02*
X75645563Y-83140229D01*
X75645563Y-83140229D02*
X75569372Y-83216420D01*
X75569372Y-83216420D02*
X75455087Y-83254515D01*
X75455087Y-83254515D02*
X75378896Y-83254515D01*
X76483658Y-83254515D02*
X76026515Y-83254515D01*
X76255087Y-83254515D02*
X76255087Y-82454515D01*
X76255087Y-82454515D02*
X76178896Y-82568800D01*
X76178896Y-82568800D02*
X76102706Y-82644991D01*
X76102706Y-82644991D02*
X76026515Y-82683086D01*
X148434879Y-66290705D02*
X148434879Y-66938324D01*
X148434879Y-66938324D02*
X148472974Y-67014514D01*
X148472974Y-67014514D02*
X148511069Y-67052610D01*
X148511069Y-67052610D02*
X148587260Y-67090705D01*
X148587260Y-67090705D02*
X148739641Y-67090705D01*
X148739641Y-67090705D02*
X148815831Y-67052610D01*
X148815831Y-67052610D02*
X148853926Y-67014514D01*
X148853926Y-67014514D02*
X148892022Y-66938324D01*
X148892022Y-66938324D02*
X148892022Y-66290705D01*
X149692021Y-67090705D02*
X149234878Y-67090705D01*
X149463450Y-67090705D02*
X149463450Y-66290705D01*
X149463450Y-66290705D02*
X149387259Y-66404990D01*
X149387259Y-66404990D02*
X149311069Y-66481181D01*
X149311069Y-66481181D02*
X149234878Y-66519276D01*
X146083658Y-73654515D02*
X146083658Y-74225943D01*
X146083658Y-74225943D02*
X146045563Y-74340229D01*
X146045563Y-74340229D02*
X145969372Y-74416420D01*
X145969372Y-74416420D02*
X145855087Y-74454515D01*
X145855087Y-74454515D02*
X145778896Y-74454515D01*
X146883658Y-74454515D02*
X146426515Y-74454515D01*
X146655087Y-74454515D02*
X146655087Y-73654515D01*
X146655087Y-73654515D02*
X146578896Y-73768800D01*
X146578896Y-73768800D02*
X146502706Y-73844991D01*
X146502706Y-73844991D02*
X146426515Y-73883086D01*
X139634879Y-66290705D02*
X139634879Y-66938324D01*
X139634879Y-66938324D02*
X139672974Y-67014514D01*
X139672974Y-67014514D02*
X139711069Y-67052610D01*
X139711069Y-67052610D02*
X139787260Y-67090705D01*
X139787260Y-67090705D02*
X139939641Y-67090705D01*
X139939641Y-67090705D02*
X140015831Y-67052610D01*
X140015831Y-67052610D02*
X140053926Y-67014514D01*
X140053926Y-67014514D02*
X140092022Y-66938324D01*
X140092022Y-66938324D02*
X140092022Y-66290705D01*
X140892021Y-67090705D02*
X140434878Y-67090705D01*
X140663450Y-67090705D02*
X140663450Y-66290705D01*
X140663450Y-66290705D02*
X140587259Y-66404990D01*
X140587259Y-66404990D02*
X140511069Y-66481181D01*
X140511069Y-66481181D02*
X140434878Y-66519276D01*
X137283658Y-73654515D02*
X137283658Y-74225943D01*
X137283658Y-74225943D02*
X137245563Y-74340229D01*
X137245563Y-74340229D02*
X137169372Y-74416420D01*
X137169372Y-74416420D02*
X137055087Y-74454515D01*
X137055087Y-74454515D02*
X136978896Y-74454515D01*
X138083658Y-74454515D02*
X137626515Y-74454515D01*
X137855087Y-74454515D02*
X137855087Y-73654515D01*
X137855087Y-73654515D02*
X137778896Y-73768800D01*
X137778896Y-73768800D02*
X137702706Y-73844991D01*
X137702706Y-73844991D02*
X137626515Y-73883086D01*
X130834879Y-66290705D02*
X130834879Y-66938324D01*
X130834879Y-66938324D02*
X130872974Y-67014514D01*
X130872974Y-67014514D02*
X130911069Y-67052610D01*
X130911069Y-67052610D02*
X130987260Y-67090705D01*
X130987260Y-67090705D02*
X131139641Y-67090705D01*
X131139641Y-67090705D02*
X131215831Y-67052610D01*
X131215831Y-67052610D02*
X131253926Y-67014514D01*
X131253926Y-67014514D02*
X131292022Y-66938324D01*
X131292022Y-66938324D02*
X131292022Y-66290705D01*
X132092021Y-67090705D02*
X131634878Y-67090705D01*
X131863450Y-67090705D02*
X131863450Y-66290705D01*
X131863450Y-66290705D02*
X131787259Y-66404990D01*
X131787259Y-66404990D02*
X131711069Y-66481181D01*
X131711069Y-66481181D02*
X131634878Y-66519276D01*
X128483658Y-73654515D02*
X128483658Y-74225943D01*
X128483658Y-74225943D02*
X128445563Y-74340229D01*
X128445563Y-74340229D02*
X128369372Y-74416420D01*
X128369372Y-74416420D02*
X128255087Y-74454515D01*
X128255087Y-74454515D02*
X128178896Y-74454515D01*
X129283658Y-74454515D02*
X128826515Y-74454515D01*
X129055087Y-74454515D02*
X129055087Y-73654515D01*
X129055087Y-73654515D02*
X128978896Y-73768800D01*
X128978896Y-73768800D02*
X128902706Y-73844991D01*
X128902706Y-73844991D02*
X128826515Y-73883086D01*
X122034879Y-66290705D02*
X122034879Y-66938324D01*
X122034879Y-66938324D02*
X122072974Y-67014514D01*
X122072974Y-67014514D02*
X122111069Y-67052610D01*
X122111069Y-67052610D02*
X122187260Y-67090705D01*
X122187260Y-67090705D02*
X122339641Y-67090705D01*
X122339641Y-67090705D02*
X122415831Y-67052610D01*
X122415831Y-67052610D02*
X122453926Y-67014514D01*
X122453926Y-67014514D02*
X122492022Y-66938324D01*
X122492022Y-66938324D02*
X122492022Y-66290705D01*
X123292021Y-67090705D02*
X122834878Y-67090705D01*
X123063450Y-67090705D02*
X123063450Y-66290705D01*
X123063450Y-66290705D02*
X122987259Y-66404990D01*
X122987259Y-66404990D02*
X122911069Y-66481181D01*
X122911069Y-66481181D02*
X122834878Y-66519276D01*
X119683658Y-73654515D02*
X119683658Y-74225943D01*
X119683658Y-74225943D02*
X119645563Y-74340229D01*
X119645563Y-74340229D02*
X119569372Y-74416420D01*
X119569372Y-74416420D02*
X119455087Y-74454515D01*
X119455087Y-74454515D02*
X119378896Y-74454515D01*
X120483658Y-74454515D02*
X120026515Y-74454515D01*
X120255087Y-74454515D02*
X120255087Y-73654515D01*
X120255087Y-73654515D02*
X120178896Y-73768800D01*
X120178896Y-73768800D02*
X120102706Y-73844991D01*
X120102706Y-73844991D02*
X120026515Y-73883086D01*
X113234879Y-66290705D02*
X113234879Y-66938324D01*
X113234879Y-66938324D02*
X113272974Y-67014514D01*
X113272974Y-67014514D02*
X113311069Y-67052610D01*
X113311069Y-67052610D02*
X113387260Y-67090705D01*
X113387260Y-67090705D02*
X113539641Y-67090705D01*
X113539641Y-67090705D02*
X113615831Y-67052610D01*
X113615831Y-67052610D02*
X113653926Y-67014514D01*
X113653926Y-67014514D02*
X113692022Y-66938324D01*
X113692022Y-66938324D02*
X113692022Y-66290705D01*
X114492021Y-67090705D02*
X114034878Y-67090705D01*
X114263450Y-67090705D02*
X114263450Y-66290705D01*
X114263450Y-66290705D02*
X114187259Y-66404990D01*
X114187259Y-66404990D02*
X114111069Y-66481181D01*
X114111069Y-66481181D02*
X114034878Y-66519276D01*
X110883658Y-73654515D02*
X110883658Y-74225943D01*
X110883658Y-74225943D02*
X110845563Y-74340229D01*
X110845563Y-74340229D02*
X110769372Y-74416420D01*
X110769372Y-74416420D02*
X110655087Y-74454515D01*
X110655087Y-74454515D02*
X110578896Y-74454515D01*
X111683658Y-74454515D02*
X111226515Y-74454515D01*
X111455087Y-74454515D02*
X111455087Y-73654515D01*
X111455087Y-73654515D02*
X111378896Y-73768800D01*
X111378896Y-73768800D02*
X111302706Y-73844991D01*
X111302706Y-73844991D02*
X111226515Y-73883086D01*
X104434879Y-66290705D02*
X104434879Y-66938324D01*
X104434879Y-66938324D02*
X104472974Y-67014514D01*
X104472974Y-67014514D02*
X104511069Y-67052610D01*
X104511069Y-67052610D02*
X104587260Y-67090705D01*
X104587260Y-67090705D02*
X104739641Y-67090705D01*
X104739641Y-67090705D02*
X104815831Y-67052610D01*
X104815831Y-67052610D02*
X104853926Y-67014514D01*
X104853926Y-67014514D02*
X104892022Y-66938324D01*
X104892022Y-66938324D02*
X104892022Y-66290705D01*
X105692021Y-67090705D02*
X105234878Y-67090705D01*
X105463450Y-67090705D02*
X105463450Y-66290705D01*
X105463450Y-66290705D02*
X105387259Y-66404990D01*
X105387259Y-66404990D02*
X105311069Y-66481181D01*
X105311069Y-66481181D02*
X105234878Y-66519276D01*
X102083658Y-73654515D02*
X102083658Y-74225943D01*
X102083658Y-74225943D02*
X102045563Y-74340229D01*
X102045563Y-74340229D02*
X101969372Y-74416420D01*
X101969372Y-74416420D02*
X101855087Y-74454515D01*
X101855087Y-74454515D02*
X101778896Y-74454515D01*
X102883658Y-74454515D02*
X102426515Y-74454515D01*
X102655087Y-74454515D02*
X102655087Y-73654515D01*
X102655087Y-73654515D02*
X102578896Y-73768800D01*
X102578896Y-73768800D02*
X102502706Y-73844991D01*
X102502706Y-73844991D02*
X102426515Y-73883086D01*
X95634879Y-66290705D02*
X95634879Y-66938324D01*
X95634879Y-66938324D02*
X95672974Y-67014514D01*
X95672974Y-67014514D02*
X95711069Y-67052610D01*
X95711069Y-67052610D02*
X95787260Y-67090705D01*
X95787260Y-67090705D02*
X95939641Y-67090705D01*
X95939641Y-67090705D02*
X96015831Y-67052610D01*
X96015831Y-67052610D02*
X96053926Y-67014514D01*
X96053926Y-67014514D02*
X96092022Y-66938324D01*
X96092022Y-66938324D02*
X96092022Y-66290705D01*
X96892021Y-67090705D02*
X96434878Y-67090705D01*
X96663450Y-67090705D02*
X96663450Y-66290705D01*
X96663450Y-66290705D02*
X96587259Y-66404990D01*
X96587259Y-66404990D02*
X96511069Y-66481181D01*
X96511069Y-66481181D02*
X96434878Y-66519276D01*
X93283658Y-73654515D02*
X93283658Y-74225943D01*
X93283658Y-74225943D02*
X93245563Y-74340229D01*
X93245563Y-74340229D02*
X93169372Y-74416420D01*
X93169372Y-74416420D02*
X93055087Y-74454515D01*
X93055087Y-74454515D02*
X92978896Y-74454515D01*
X94083658Y-74454515D02*
X93626515Y-74454515D01*
X93855087Y-74454515D02*
X93855087Y-73654515D01*
X93855087Y-73654515D02*
X93778896Y-73768800D01*
X93778896Y-73768800D02*
X93702706Y-73844991D01*
X93702706Y-73844991D02*
X93626515Y-73883086D01*
X86834879Y-66290705D02*
X86834879Y-66938324D01*
X86834879Y-66938324D02*
X86872974Y-67014514D01*
X86872974Y-67014514D02*
X86911069Y-67052610D01*
X86911069Y-67052610D02*
X86987260Y-67090705D01*
X86987260Y-67090705D02*
X87139641Y-67090705D01*
X87139641Y-67090705D02*
X87215831Y-67052610D01*
X87215831Y-67052610D02*
X87253926Y-67014514D01*
X87253926Y-67014514D02*
X87292022Y-66938324D01*
X87292022Y-66938324D02*
X87292022Y-66290705D01*
X88092021Y-67090705D02*
X87634878Y-67090705D01*
X87863450Y-67090705D02*
X87863450Y-66290705D01*
X87863450Y-66290705D02*
X87787259Y-66404990D01*
X87787259Y-66404990D02*
X87711069Y-66481181D01*
X87711069Y-66481181D02*
X87634878Y-66519276D01*
X84483658Y-73654515D02*
X84483658Y-74225943D01*
X84483658Y-74225943D02*
X84445563Y-74340229D01*
X84445563Y-74340229D02*
X84369372Y-74416420D01*
X84369372Y-74416420D02*
X84255087Y-74454515D01*
X84255087Y-74454515D02*
X84178896Y-74454515D01*
X85283658Y-74454515D02*
X84826515Y-74454515D01*
X85055087Y-74454515D02*
X85055087Y-73654515D01*
X85055087Y-73654515D02*
X84978896Y-73768800D01*
X84978896Y-73768800D02*
X84902706Y-73844991D01*
X84902706Y-73844991D02*
X84826515Y-73883086D01*
X78034879Y-66290705D02*
X78034879Y-66938324D01*
X78034879Y-66938324D02*
X78072974Y-67014514D01*
X78072974Y-67014514D02*
X78111069Y-67052610D01*
X78111069Y-67052610D02*
X78187260Y-67090705D01*
X78187260Y-67090705D02*
X78339641Y-67090705D01*
X78339641Y-67090705D02*
X78415831Y-67052610D01*
X78415831Y-67052610D02*
X78453926Y-67014514D01*
X78453926Y-67014514D02*
X78492022Y-66938324D01*
X78492022Y-66938324D02*
X78492022Y-66290705D01*
X79292021Y-67090705D02*
X78834878Y-67090705D01*
X79063450Y-67090705D02*
X79063450Y-66290705D01*
X79063450Y-66290705D02*
X78987259Y-66404990D01*
X78987259Y-66404990D02*
X78911069Y-66481181D01*
X78911069Y-66481181D02*
X78834878Y-66519276D01*
X75683658Y-73654515D02*
X75683658Y-74225943D01*
X75683658Y-74225943D02*
X75645563Y-74340229D01*
X75645563Y-74340229D02*
X75569372Y-74416420D01*
X75569372Y-74416420D02*
X75455087Y-74454515D01*
X75455087Y-74454515D02*
X75378896Y-74454515D01*
X76483658Y-74454515D02*
X76026515Y-74454515D01*
X76255087Y-74454515D02*
X76255087Y-73654515D01*
X76255087Y-73654515D02*
X76178896Y-73768800D01*
X76178896Y-73768800D02*
X76102706Y-73844991D01*
X76102706Y-73844991D02*
X76026515Y-73883086D01*
X148434879Y-57490705D02*
X148434879Y-58138324D01*
X148434879Y-58138324D02*
X148472974Y-58214514D01*
X148472974Y-58214514D02*
X148511069Y-58252610D01*
X148511069Y-58252610D02*
X148587260Y-58290705D01*
X148587260Y-58290705D02*
X148739641Y-58290705D01*
X148739641Y-58290705D02*
X148815831Y-58252610D01*
X148815831Y-58252610D02*
X148853926Y-58214514D01*
X148853926Y-58214514D02*
X148892022Y-58138324D01*
X148892022Y-58138324D02*
X148892022Y-57490705D01*
X149692021Y-58290705D02*
X149234878Y-58290705D01*
X149463450Y-58290705D02*
X149463450Y-57490705D01*
X149463450Y-57490705D02*
X149387259Y-57604990D01*
X149387259Y-57604990D02*
X149311069Y-57681181D01*
X149311069Y-57681181D02*
X149234878Y-57719276D01*
X146083658Y-64854515D02*
X146083658Y-65425943D01*
X146083658Y-65425943D02*
X146045563Y-65540229D01*
X146045563Y-65540229D02*
X145969372Y-65616420D01*
X145969372Y-65616420D02*
X145855087Y-65654515D01*
X145855087Y-65654515D02*
X145778896Y-65654515D01*
X146883658Y-65654515D02*
X146426515Y-65654515D01*
X146655087Y-65654515D02*
X146655087Y-64854515D01*
X146655087Y-64854515D02*
X146578896Y-64968800D01*
X146578896Y-64968800D02*
X146502706Y-65044991D01*
X146502706Y-65044991D02*
X146426515Y-65083086D01*
X139634879Y-57490705D02*
X139634879Y-58138324D01*
X139634879Y-58138324D02*
X139672974Y-58214514D01*
X139672974Y-58214514D02*
X139711069Y-58252610D01*
X139711069Y-58252610D02*
X139787260Y-58290705D01*
X139787260Y-58290705D02*
X139939641Y-58290705D01*
X139939641Y-58290705D02*
X140015831Y-58252610D01*
X140015831Y-58252610D02*
X140053926Y-58214514D01*
X140053926Y-58214514D02*
X140092022Y-58138324D01*
X140092022Y-58138324D02*
X140092022Y-57490705D01*
X140892021Y-58290705D02*
X140434878Y-58290705D01*
X140663450Y-58290705D02*
X140663450Y-57490705D01*
X140663450Y-57490705D02*
X140587259Y-57604990D01*
X140587259Y-57604990D02*
X140511069Y-57681181D01*
X140511069Y-57681181D02*
X140434878Y-57719276D01*
X137283658Y-64854515D02*
X137283658Y-65425943D01*
X137283658Y-65425943D02*
X137245563Y-65540229D01*
X137245563Y-65540229D02*
X137169372Y-65616420D01*
X137169372Y-65616420D02*
X137055087Y-65654515D01*
X137055087Y-65654515D02*
X136978896Y-65654515D01*
X138083658Y-65654515D02*
X137626515Y-65654515D01*
X137855087Y-65654515D02*
X137855087Y-64854515D01*
X137855087Y-64854515D02*
X137778896Y-64968800D01*
X137778896Y-64968800D02*
X137702706Y-65044991D01*
X137702706Y-65044991D02*
X137626515Y-65083086D01*
X130834879Y-57490705D02*
X130834879Y-58138324D01*
X130834879Y-58138324D02*
X130872974Y-58214514D01*
X130872974Y-58214514D02*
X130911069Y-58252610D01*
X130911069Y-58252610D02*
X130987260Y-58290705D01*
X130987260Y-58290705D02*
X131139641Y-58290705D01*
X131139641Y-58290705D02*
X131215831Y-58252610D01*
X131215831Y-58252610D02*
X131253926Y-58214514D01*
X131253926Y-58214514D02*
X131292022Y-58138324D01*
X131292022Y-58138324D02*
X131292022Y-57490705D01*
X132092021Y-58290705D02*
X131634878Y-58290705D01*
X131863450Y-58290705D02*
X131863450Y-57490705D01*
X131863450Y-57490705D02*
X131787259Y-57604990D01*
X131787259Y-57604990D02*
X131711069Y-57681181D01*
X131711069Y-57681181D02*
X131634878Y-57719276D01*
X128483658Y-64854515D02*
X128483658Y-65425943D01*
X128483658Y-65425943D02*
X128445563Y-65540229D01*
X128445563Y-65540229D02*
X128369372Y-65616420D01*
X128369372Y-65616420D02*
X128255087Y-65654515D01*
X128255087Y-65654515D02*
X128178896Y-65654515D01*
X129283658Y-65654515D02*
X128826515Y-65654515D01*
X129055087Y-65654515D02*
X129055087Y-64854515D01*
X129055087Y-64854515D02*
X128978896Y-64968800D01*
X128978896Y-64968800D02*
X128902706Y-65044991D01*
X128902706Y-65044991D02*
X128826515Y-65083086D01*
X122034879Y-57490705D02*
X122034879Y-58138324D01*
X122034879Y-58138324D02*
X122072974Y-58214514D01*
X122072974Y-58214514D02*
X122111069Y-58252610D01*
X122111069Y-58252610D02*
X122187260Y-58290705D01*
X122187260Y-58290705D02*
X122339641Y-58290705D01*
X122339641Y-58290705D02*
X122415831Y-58252610D01*
X122415831Y-58252610D02*
X122453926Y-58214514D01*
X122453926Y-58214514D02*
X122492022Y-58138324D01*
X122492022Y-58138324D02*
X122492022Y-57490705D01*
X123292021Y-58290705D02*
X122834878Y-58290705D01*
X123063450Y-58290705D02*
X123063450Y-57490705D01*
X123063450Y-57490705D02*
X122987259Y-57604990D01*
X122987259Y-57604990D02*
X122911069Y-57681181D01*
X122911069Y-57681181D02*
X122834878Y-57719276D01*
X119683658Y-64854515D02*
X119683658Y-65425943D01*
X119683658Y-65425943D02*
X119645563Y-65540229D01*
X119645563Y-65540229D02*
X119569372Y-65616420D01*
X119569372Y-65616420D02*
X119455087Y-65654515D01*
X119455087Y-65654515D02*
X119378896Y-65654515D01*
X120483658Y-65654515D02*
X120026515Y-65654515D01*
X120255087Y-65654515D02*
X120255087Y-64854515D01*
X120255087Y-64854515D02*
X120178896Y-64968800D01*
X120178896Y-64968800D02*
X120102706Y-65044991D01*
X120102706Y-65044991D02*
X120026515Y-65083086D01*
X113234879Y-57490705D02*
X113234879Y-58138324D01*
X113234879Y-58138324D02*
X113272974Y-58214514D01*
X113272974Y-58214514D02*
X113311069Y-58252610D01*
X113311069Y-58252610D02*
X113387260Y-58290705D01*
X113387260Y-58290705D02*
X113539641Y-58290705D01*
X113539641Y-58290705D02*
X113615831Y-58252610D01*
X113615831Y-58252610D02*
X113653926Y-58214514D01*
X113653926Y-58214514D02*
X113692022Y-58138324D01*
X113692022Y-58138324D02*
X113692022Y-57490705D01*
X114492021Y-58290705D02*
X114034878Y-58290705D01*
X114263450Y-58290705D02*
X114263450Y-57490705D01*
X114263450Y-57490705D02*
X114187259Y-57604990D01*
X114187259Y-57604990D02*
X114111069Y-57681181D01*
X114111069Y-57681181D02*
X114034878Y-57719276D01*
X110883658Y-64854515D02*
X110883658Y-65425943D01*
X110883658Y-65425943D02*
X110845563Y-65540229D01*
X110845563Y-65540229D02*
X110769372Y-65616420D01*
X110769372Y-65616420D02*
X110655087Y-65654515D01*
X110655087Y-65654515D02*
X110578896Y-65654515D01*
X111683658Y-65654515D02*
X111226515Y-65654515D01*
X111455087Y-65654515D02*
X111455087Y-64854515D01*
X111455087Y-64854515D02*
X111378896Y-64968800D01*
X111378896Y-64968800D02*
X111302706Y-65044991D01*
X111302706Y-65044991D02*
X111226515Y-65083086D01*
X104434879Y-57490705D02*
X104434879Y-58138324D01*
X104434879Y-58138324D02*
X104472974Y-58214514D01*
X104472974Y-58214514D02*
X104511069Y-58252610D01*
X104511069Y-58252610D02*
X104587260Y-58290705D01*
X104587260Y-58290705D02*
X104739641Y-58290705D01*
X104739641Y-58290705D02*
X104815831Y-58252610D01*
X104815831Y-58252610D02*
X104853926Y-58214514D01*
X104853926Y-58214514D02*
X104892022Y-58138324D01*
X104892022Y-58138324D02*
X104892022Y-57490705D01*
X105692021Y-58290705D02*
X105234878Y-58290705D01*
X105463450Y-58290705D02*
X105463450Y-57490705D01*
X105463450Y-57490705D02*
X105387259Y-57604990D01*
X105387259Y-57604990D02*
X105311069Y-57681181D01*
X105311069Y-57681181D02*
X105234878Y-57719276D01*
X102083658Y-64854515D02*
X102083658Y-65425943D01*
X102083658Y-65425943D02*
X102045563Y-65540229D01*
X102045563Y-65540229D02*
X101969372Y-65616420D01*
X101969372Y-65616420D02*
X101855087Y-65654515D01*
X101855087Y-65654515D02*
X101778896Y-65654515D01*
X102883658Y-65654515D02*
X102426515Y-65654515D01*
X102655087Y-65654515D02*
X102655087Y-64854515D01*
X102655087Y-64854515D02*
X102578896Y-64968800D01*
X102578896Y-64968800D02*
X102502706Y-65044991D01*
X102502706Y-65044991D02*
X102426515Y-65083086D01*
X95634879Y-57490705D02*
X95634879Y-58138324D01*
X95634879Y-58138324D02*
X95672974Y-58214514D01*
X95672974Y-58214514D02*
X95711069Y-58252610D01*
X95711069Y-58252610D02*
X95787260Y-58290705D01*
X95787260Y-58290705D02*
X95939641Y-58290705D01*
X95939641Y-58290705D02*
X96015831Y-58252610D01*
X96015831Y-58252610D02*
X96053926Y-58214514D01*
X96053926Y-58214514D02*
X96092022Y-58138324D01*
X96092022Y-58138324D02*
X96092022Y-57490705D01*
X96892021Y-58290705D02*
X96434878Y-58290705D01*
X96663450Y-58290705D02*
X96663450Y-57490705D01*
X96663450Y-57490705D02*
X96587259Y-57604990D01*
X96587259Y-57604990D02*
X96511069Y-57681181D01*
X96511069Y-57681181D02*
X96434878Y-57719276D01*
X93283658Y-64854515D02*
X93283658Y-65425943D01*
X93283658Y-65425943D02*
X93245563Y-65540229D01*
X93245563Y-65540229D02*
X93169372Y-65616420D01*
X93169372Y-65616420D02*
X93055087Y-65654515D01*
X93055087Y-65654515D02*
X92978896Y-65654515D01*
X94083658Y-65654515D02*
X93626515Y-65654515D01*
X93855087Y-65654515D02*
X93855087Y-64854515D01*
X93855087Y-64854515D02*
X93778896Y-64968800D01*
X93778896Y-64968800D02*
X93702706Y-65044991D01*
X93702706Y-65044991D02*
X93626515Y-65083086D01*
X86834879Y-57490705D02*
X86834879Y-58138324D01*
X86834879Y-58138324D02*
X86872974Y-58214514D01*
X86872974Y-58214514D02*
X86911069Y-58252610D01*
X86911069Y-58252610D02*
X86987260Y-58290705D01*
X86987260Y-58290705D02*
X87139641Y-58290705D01*
X87139641Y-58290705D02*
X87215831Y-58252610D01*
X87215831Y-58252610D02*
X87253926Y-58214514D01*
X87253926Y-58214514D02*
X87292022Y-58138324D01*
X87292022Y-58138324D02*
X87292022Y-57490705D01*
X88092021Y-58290705D02*
X87634878Y-58290705D01*
X87863450Y-58290705D02*
X87863450Y-57490705D01*
X87863450Y-57490705D02*
X87787259Y-57604990D01*
X87787259Y-57604990D02*
X87711069Y-57681181D01*
X87711069Y-57681181D02*
X87634878Y-57719276D01*
X84483658Y-64854515D02*
X84483658Y-65425943D01*
X84483658Y-65425943D02*
X84445563Y-65540229D01*
X84445563Y-65540229D02*
X84369372Y-65616420D01*
X84369372Y-65616420D02*
X84255087Y-65654515D01*
X84255087Y-65654515D02*
X84178896Y-65654515D01*
X85283658Y-65654515D02*
X84826515Y-65654515D01*
X85055087Y-65654515D02*
X85055087Y-64854515D01*
X85055087Y-64854515D02*
X84978896Y-64968800D01*
X84978896Y-64968800D02*
X84902706Y-65044991D01*
X84902706Y-65044991D02*
X84826515Y-65083086D01*
X78034879Y-57490705D02*
X78034879Y-58138324D01*
X78034879Y-58138324D02*
X78072974Y-58214514D01*
X78072974Y-58214514D02*
X78111069Y-58252610D01*
X78111069Y-58252610D02*
X78187260Y-58290705D01*
X78187260Y-58290705D02*
X78339641Y-58290705D01*
X78339641Y-58290705D02*
X78415831Y-58252610D01*
X78415831Y-58252610D02*
X78453926Y-58214514D01*
X78453926Y-58214514D02*
X78492022Y-58138324D01*
X78492022Y-58138324D02*
X78492022Y-57490705D01*
X79292021Y-58290705D02*
X78834878Y-58290705D01*
X79063450Y-58290705D02*
X79063450Y-57490705D01*
X79063450Y-57490705D02*
X78987259Y-57604990D01*
X78987259Y-57604990D02*
X78911069Y-57681181D01*
X78911069Y-57681181D02*
X78834878Y-57719276D01*
X75683658Y-64854515D02*
X75683658Y-65425943D01*
X75683658Y-65425943D02*
X75645563Y-65540229D01*
X75645563Y-65540229D02*
X75569372Y-65616420D01*
X75569372Y-65616420D02*
X75455087Y-65654515D01*
X75455087Y-65654515D02*
X75378896Y-65654515D01*
X76483658Y-65654515D02*
X76026515Y-65654515D01*
X76255087Y-65654515D02*
X76255087Y-64854515D01*
X76255087Y-64854515D02*
X76178896Y-64968800D01*
X76178896Y-64968800D02*
X76102706Y-65044991D01*
X76102706Y-65044991D02*
X76026515Y-65083086D01*
X148434879Y-48690705D02*
X148434879Y-49338324D01*
X148434879Y-49338324D02*
X148472974Y-49414514D01*
X148472974Y-49414514D02*
X148511069Y-49452610D01*
X148511069Y-49452610D02*
X148587260Y-49490705D01*
X148587260Y-49490705D02*
X148739641Y-49490705D01*
X148739641Y-49490705D02*
X148815831Y-49452610D01*
X148815831Y-49452610D02*
X148853926Y-49414514D01*
X148853926Y-49414514D02*
X148892022Y-49338324D01*
X148892022Y-49338324D02*
X148892022Y-48690705D01*
X149692021Y-49490705D02*
X149234878Y-49490705D01*
X149463450Y-49490705D02*
X149463450Y-48690705D01*
X149463450Y-48690705D02*
X149387259Y-48804990D01*
X149387259Y-48804990D02*
X149311069Y-48881181D01*
X149311069Y-48881181D02*
X149234878Y-48919276D01*
X146083658Y-56054515D02*
X146083658Y-56625943D01*
X146083658Y-56625943D02*
X146045563Y-56740229D01*
X146045563Y-56740229D02*
X145969372Y-56816420D01*
X145969372Y-56816420D02*
X145855087Y-56854515D01*
X145855087Y-56854515D02*
X145778896Y-56854515D01*
X146883658Y-56854515D02*
X146426515Y-56854515D01*
X146655087Y-56854515D02*
X146655087Y-56054515D01*
X146655087Y-56054515D02*
X146578896Y-56168800D01*
X146578896Y-56168800D02*
X146502706Y-56244991D01*
X146502706Y-56244991D02*
X146426515Y-56283086D01*
X139634879Y-48690705D02*
X139634879Y-49338324D01*
X139634879Y-49338324D02*
X139672974Y-49414514D01*
X139672974Y-49414514D02*
X139711069Y-49452610D01*
X139711069Y-49452610D02*
X139787260Y-49490705D01*
X139787260Y-49490705D02*
X139939641Y-49490705D01*
X139939641Y-49490705D02*
X140015831Y-49452610D01*
X140015831Y-49452610D02*
X140053926Y-49414514D01*
X140053926Y-49414514D02*
X140092022Y-49338324D01*
X140092022Y-49338324D02*
X140092022Y-48690705D01*
X140892021Y-49490705D02*
X140434878Y-49490705D01*
X140663450Y-49490705D02*
X140663450Y-48690705D01*
X140663450Y-48690705D02*
X140587259Y-48804990D01*
X140587259Y-48804990D02*
X140511069Y-48881181D01*
X140511069Y-48881181D02*
X140434878Y-48919276D01*
X137283658Y-56054515D02*
X137283658Y-56625943D01*
X137283658Y-56625943D02*
X137245563Y-56740229D01*
X137245563Y-56740229D02*
X137169372Y-56816420D01*
X137169372Y-56816420D02*
X137055087Y-56854515D01*
X137055087Y-56854515D02*
X136978896Y-56854515D01*
X138083658Y-56854515D02*
X137626515Y-56854515D01*
X137855087Y-56854515D02*
X137855087Y-56054515D01*
X137855087Y-56054515D02*
X137778896Y-56168800D01*
X137778896Y-56168800D02*
X137702706Y-56244991D01*
X137702706Y-56244991D02*
X137626515Y-56283086D01*
X130834879Y-48690705D02*
X130834879Y-49338324D01*
X130834879Y-49338324D02*
X130872974Y-49414514D01*
X130872974Y-49414514D02*
X130911069Y-49452610D01*
X130911069Y-49452610D02*
X130987260Y-49490705D01*
X130987260Y-49490705D02*
X131139641Y-49490705D01*
X131139641Y-49490705D02*
X131215831Y-49452610D01*
X131215831Y-49452610D02*
X131253926Y-49414514D01*
X131253926Y-49414514D02*
X131292022Y-49338324D01*
X131292022Y-49338324D02*
X131292022Y-48690705D01*
X132092021Y-49490705D02*
X131634878Y-49490705D01*
X131863450Y-49490705D02*
X131863450Y-48690705D01*
X131863450Y-48690705D02*
X131787259Y-48804990D01*
X131787259Y-48804990D02*
X131711069Y-48881181D01*
X131711069Y-48881181D02*
X131634878Y-48919276D01*
X128483658Y-56054515D02*
X128483658Y-56625943D01*
X128483658Y-56625943D02*
X128445563Y-56740229D01*
X128445563Y-56740229D02*
X128369372Y-56816420D01*
X128369372Y-56816420D02*
X128255087Y-56854515D01*
X128255087Y-56854515D02*
X128178896Y-56854515D01*
X129283658Y-56854515D02*
X128826515Y-56854515D01*
X129055087Y-56854515D02*
X129055087Y-56054515D01*
X129055087Y-56054515D02*
X128978896Y-56168800D01*
X128978896Y-56168800D02*
X128902706Y-56244991D01*
X128902706Y-56244991D02*
X128826515Y-56283086D01*
X122034879Y-48690705D02*
X122034879Y-49338324D01*
X122034879Y-49338324D02*
X122072974Y-49414514D01*
X122072974Y-49414514D02*
X122111069Y-49452610D01*
X122111069Y-49452610D02*
X122187260Y-49490705D01*
X122187260Y-49490705D02*
X122339641Y-49490705D01*
X122339641Y-49490705D02*
X122415831Y-49452610D01*
X122415831Y-49452610D02*
X122453926Y-49414514D01*
X122453926Y-49414514D02*
X122492022Y-49338324D01*
X122492022Y-49338324D02*
X122492022Y-48690705D01*
X123292021Y-49490705D02*
X122834878Y-49490705D01*
X123063450Y-49490705D02*
X123063450Y-48690705D01*
X123063450Y-48690705D02*
X122987259Y-48804990D01*
X122987259Y-48804990D02*
X122911069Y-48881181D01*
X122911069Y-48881181D02*
X122834878Y-48919276D01*
X119683658Y-56054515D02*
X119683658Y-56625943D01*
X119683658Y-56625943D02*
X119645563Y-56740229D01*
X119645563Y-56740229D02*
X119569372Y-56816420D01*
X119569372Y-56816420D02*
X119455087Y-56854515D01*
X119455087Y-56854515D02*
X119378896Y-56854515D01*
X120483658Y-56854515D02*
X120026515Y-56854515D01*
X120255087Y-56854515D02*
X120255087Y-56054515D01*
X120255087Y-56054515D02*
X120178896Y-56168800D01*
X120178896Y-56168800D02*
X120102706Y-56244991D01*
X120102706Y-56244991D02*
X120026515Y-56283086D01*
X113234879Y-48690705D02*
X113234879Y-49338324D01*
X113234879Y-49338324D02*
X113272974Y-49414514D01*
X113272974Y-49414514D02*
X113311069Y-49452610D01*
X113311069Y-49452610D02*
X113387260Y-49490705D01*
X113387260Y-49490705D02*
X113539641Y-49490705D01*
X113539641Y-49490705D02*
X113615831Y-49452610D01*
X113615831Y-49452610D02*
X113653926Y-49414514D01*
X113653926Y-49414514D02*
X113692022Y-49338324D01*
X113692022Y-49338324D02*
X113692022Y-48690705D01*
X114492021Y-49490705D02*
X114034878Y-49490705D01*
X114263450Y-49490705D02*
X114263450Y-48690705D01*
X114263450Y-48690705D02*
X114187259Y-48804990D01*
X114187259Y-48804990D02*
X114111069Y-48881181D01*
X114111069Y-48881181D02*
X114034878Y-48919276D01*
X110883658Y-56054515D02*
X110883658Y-56625943D01*
X110883658Y-56625943D02*
X110845563Y-56740229D01*
X110845563Y-56740229D02*
X110769372Y-56816420D01*
X110769372Y-56816420D02*
X110655087Y-56854515D01*
X110655087Y-56854515D02*
X110578896Y-56854515D01*
X111683658Y-56854515D02*
X111226515Y-56854515D01*
X111455087Y-56854515D02*
X111455087Y-56054515D01*
X111455087Y-56054515D02*
X111378896Y-56168800D01*
X111378896Y-56168800D02*
X111302706Y-56244991D01*
X111302706Y-56244991D02*
X111226515Y-56283086D01*
X104434879Y-48690705D02*
X104434879Y-49338324D01*
X104434879Y-49338324D02*
X104472974Y-49414514D01*
X104472974Y-49414514D02*
X104511069Y-49452610D01*
X104511069Y-49452610D02*
X104587260Y-49490705D01*
X104587260Y-49490705D02*
X104739641Y-49490705D01*
X104739641Y-49490705D02*
X104815831Y-49452610D01*
X104815831Y-49452610D02*
X104853926Y-49414514D01*
X104853926Y-49414514D02*
X104892022Y-49338324D01*
X104892022Y-49338324D02*
X104892022Y-48690705D01*
X105692021Y-49490705D02*
X105234878Y-49490705D01*
X105463450Y-49490705D02*
X105463450Y-48690705D01*
X105463450Y-48690705D02*
X105387259Y-48804990D01*
X105387259Y-48804990D02*
X105311069Y-48881181D01*
X105311069Y-48881181D02*
X105234878Y-48919276D01*
X102083658Y-56054515D02*
X102083658Y-56625943D01*
X102083658Y-56625943D02*
X102045563Y-56740229D01*
X102045563Y-56740229D02*
X101969372Y-56816420D01*
X101969372Y-56816420D02*
X101855087Y-56854515D01*
X101855087Y-56854515D02*
X101778896Y-56854515D01*
X102883658Y-56854515D02*
X102426515Y-56854515D01*
X102655087Y-56854515D02*
X102655087Y-56054515D01*
X102655087Y-56054515D02*
X102578896Y-56168800D01*
X102578896Y-56168800D02*
X102502706Y-56244991D01*
X102502706Y-56244991D02*
X102426515Y-56283086D01*
X95634879Y-48690705D02*
X95634879Y-49338324D01*
X95634879Y-49338324D02*
X95672974Y-49414514D01*
X95672974Y-49414514D02*
X95711069Y-49452610D01*
X95711069Y-49452610D02*
X95787260Y-49490705D01*
X95787260Y-49490705D02*
X95939641Y-49490705D01*
X95939641Y-49490705D02*
X96015831Y-49452610D01*
X96015831Y-49452610D02*
X96053926Y-49414514D01*
X96053926Y-49414514D02*
X96092022Y-49338324D01*
X96092022Y-49338324D02*
X96092022Y-48690705D01*
X96892021Y-49490705D02*
X96434878Y-49490705D01*
X96663450Y-49490705D02*
X96663450Y-48690705D01*
X96663450Y-48690705D02*
X96587259Y-48804990D01*
X96587259Y-48804990D02*
X96511069Y-48881181D01*
X96511069Y-48881181D02*
X96434878Y-48919276D01*
X93283658Y-56054515D02*
X93283658Y-56625943D01*
X93283658Y-56625943D02*
X93245563Y-56740229D01*
X93245563Y-56740229D02*
X93169372Y-56816420D01*
X93169372Y-56816420D02*
X93055087Y-56854515D01*
X93055087Y-56854515D02*
X92978896Y-56854515D01*
X94083658Y-56854515D02*
X93626515Y-56854515D01*
X93855087Y-56854515D02*
X93855087Y-56054515D01*
X93855087Y-56054515D02*
X93778896Y-56168800D01*
X93778896Y-56168800D02*
X93702706Y-56244991D01*
X93702706Y-56244991D02*
X93626515Y-56283086D01*
X86834879Y-48690705D02*
X86834879Y-49338324D01*
X86834879Y-49338324D02*
X86872974Y-49414514D01*
X86872974Y-49414514D02*
X86911069Y-49452610D01*
X86911069Y-49452610D02*
X86987260Y-49490705D01*
X86987260Y-49490705D02*
X87139641Y-49490705D01*
X87139641Y-49490705D02*
X87215831Y-49452610D01*
X87215831Y-49452610D02*
X87253926Y-49414514D01*
X87253926Y-49414514D02*
X87292022Y-49338324D01*
X87292022Y-49338324D02*
X87292022Y-48690705D01*
X88092021Y-49490705D02*
X87634878Y-49490705D01*
X87863450Y-49490705D02*
X87863450Y-48690705D01*
X87863450Y-48690705D02*
X87787259Y-48804990D01*
X87787259Y-48804990D02*
X87711069Y-48881181D01*
X87711069Y-48881181D02*
X87634878Y-48919276D01*
X84483658Y-56054515D02*
X84483658Y-56625943D01*
X84483658Y-56625943D02*
X84445563Y-56740229D01*
X84445563Y-56740229D02*
X84369372Y-56816420D01*
X84369372Y-56816420D02*
X84255087Y-56854515D01*
X84255087Y-56854515D02*
X84178896Y-56854515D01*
X85283658Y-56854515D02*
X84826515Y-56854515D01*
X85055087Y-56854515D02*
X85055087Y-56054515D01*
X85055087Y-56054515D02*
X84978896Y-56168800D01*
X84978896Y-56168800D02*
X84902706Y-56244991D01*
X84902706Y-56244991D02*
X84826515Y-56283086D01*
X75683658Y-56054515D02*
X75683658Y-56625943D01*
X75683658Y-56625943D02*
X75645563Y-56740229D01*
X75645563Y-56740229D02*
X75569372Y-56816420D01*
X75569372Y-56816420D02*
X75455087Y-56854515D01*
X75455087Y-56854515D02*
X75378896Y-56854515D01*
X76483658Y-56854515D02*
X76026515Y-56854515D01*
X76255087Y-56854515D02*
X76255087Y-56054515D01*
X76255087Y-56054515D02*
X76178896Y-56168800D01*
X76178896Y-56168800D02*
X76102706Y-56244991D01*
X76102706Y-56244991D02*
X76026515Y-56283086D01*
X78034879Y-48690705D02*
X78034879Y-49338324D01*
X78034879Y-49338324D02*
X78072974Y-49414514D01*
X78072974Y-49414514D02*
X78111069Y-49452610D01*
X78111069Y-49452610D02*
X78187260Y-49490705D01*
X78187260Y-49490705D02*
X78339641Y-49490705D01*
X78339641Y-49490705D02*
X78415831Y-49452610D01*
X78415831Y-49452610D02*
X78453926Y-49414514D01*
X78453926Y-49414514D02*
X78492022Y-49338324D01*
X78492022Y-49338324D02*
X78492022Y-48690705D01*
X79292021Y-49490705D02*
X78834878Y-49490705D01*
X79063450Y-49490705D02*
X79063450Y-48690705D01*
X79063450Y-48690705D02*
X78987259Y-48804990D01*
X78987259Y-48804990D02*
X78911069Y-48881181D01*
X78911069Y-48881181D02*
X78834878Y-48919276D01*
D11*
%TO.C,U1*%
X148943871Y-123191223D02*
X148943871Y-123991223D01*
X148943871Y-123191223D02*
X148943871Y-122391223D01*
X152063871Y-123191223D02*
X152063871Y-123991223D01*
X152063871Y-123191223D02*
X152063871Y-122391223D01*
X148993871Y-124491223D02*
X148663871Y-124731223D01*
X148663871Y-124251223D01*
X148993871Y-124491223D01*
G36*
X148993871Y-124491223D02*
G01*
X148663871Y-124731223D01*
X148663871Y-124251223D01*
X148993871Y-124491223D01*
G37*
D12*
%TO.C,J1*%
X150866154Y-123120512D02*
G75*
G03*
X144626154Y-123120512I-3120000J0D01*
G01*
X144626154Y-123120512D02*
G75*
G03*
X150866154Y-123120512I3120000J0D01*
G01*
D11*
%TO.C,U1*%
X140143871Y-123191223D02*
X140143871Y-123991223D01*
X140143871Y-123191223D02*
X140143871Y-122391223D01*
X143263871Y-123191223D02*
X143263871Y-123991223D01*
X143263871Y-123191223D02*
X143263871Y-122391223D01*
X140193871Y-124491223D02*
X139863871Y-124731223D01*
X139863871Y-124251223D01*
X140193871Y-124491223D01*
G36*
X140193871Y-124491223D02*
G01*
X139863871Y-124731223D01*
X139863871Y-124251223D01*
X140193871Y-124491223D01*
G37*
D12*
%TO.C,J1*%
X142066154Y-123120512D02*
G75*
G03*
X135826154Y-123120512I-3120000J0D01*
G01*
X135826154Y-123120512D02*
G75*
G03*
X142066154Y-123120512I3120000J0D01*
G01*
D11*
%TO.C,U1*%
X131343871Y-123191223D02*
X131343871Y-123991223D01*
X131343871Y-123191223D02*
X131343871Y-122391223D01*
X134463871Y-123191223D02*
X134463871Y-123991223D01*
X134463871Y-123191223D02*
X134463871Y-122391223D01*
X131393871Y-124491223D02*
X131063871Y-124731223D01*
X131063871Y-124251223D01*
X131393871Y-124491223D01*
G36*
X131393871Y-124491223D02*
G01*
X131063871Y-124731223D01*
X131063871Y-124251223D01*
X131393871Y-124491223D01*
G37*
D12*
%TO.C,J1*%
X133266154Y-123120512D02*
G75*
G03*
X127026154Y-123120512I-3120000J0D01*
G01*
X127026154Y-123120512D02*
G75*
G03*
X133266154Y-123120512I3120000J0D01*
G01*
D11*
%TO.C,U1*%
X122543871Y-123191223D02*
X122543871Y-123991223D01*
X122543871Y-123191223D02*
X122543871Y-122391223D01*
X125663871Y-123191223D02*
X125663871Y-123991223D01*
X125663871Y-123191223D02*
X125663871Y-122391223D01*
X122593871Y-124491223D02*
X122263871Y-124731223D01*
X122263871Y-124251223D01*
X122593871Y-124491223D01*
G36*
X122593871Y-124491223D02*
G01*
X122263871Y-124731223D01*
X122263871Y-124251223D01*
X122593871Y-124491223D01*
G37*
D12*
%TO.C,J1*%
X124466154Y-123120512D02*
G75*
G03*
X118226154Y-123120512I-3120000J0D01*
G01*
X118226154Y-123120512D02*
G75*
G03*
X124466154Y-123120512I3120000J0D01*
G01*
D11*
%TO.C,U1*%
X113743871Y-123191223D02*
X113743871Y-123991223D01*
X113743871Y-123191223D02*
X113743871Y-122391223D01*
X116863871Y-123191223D02*
X116863871Y-123991223D01*
X116863871Y-123191223D02*
X116863871Y-122391223D01*
X113793871Y-124491223D02*
X113463871Y-124731223D01*
X113463871Y-124251223D01*
X113793871Y-124491223D01*
G36*
X113793871Y-124491223D02*
G01*
X113463871Y-124731223D01*
X113463871Y-124251223D01*
X113793871Y-124491223D01*
G37*
D12*
%TO.C,J1*%
X115666154Y-123120512D02*
G75*
G03*
X109426154Y-123120512I-3120000J0D01*
G01*
X109426154Y-123120512D02*
G75*
G03*
X115666154Y-123120512I3120000J0D01*
G01*
D11*
%TO.C,U1*%
X104943871Y-123191223D02*
X104943871Y-123991223D01*
X104943871Y-123191223D02*
X104943871Y-122391223D01*
X108063871Y-123191223D02*
X108063871Y-123991223D01*
X108063871Y-123191223D02*
X108063871Y-122391223D01*
X104993871Y-124491223D02*
X104663871Y-124731223D01*
X104663871Y-124251223D01*
X104993871Y-124491223D01*
G36*
X104993871Y-124491223D02*
G01*
X104663871Y-124731223D01*
X104663871Y-124251223D01*
X104993871Y-124491223D01*
G37*
D12*
%TO.C,J1*%
X106866154Y-123120512D02*
G75*
G03*
X100626154Y-123120512I-3120000J0D01*
G01*
X100626154Y-123120512D02*
G75*
G03*
X106866154Y-123120512I3120000J0D01*
G01*
D11*
%TO.C,U1*%
X96143871Y-123191223D02*
X96143871Y-123991223D01*
X96143871Y-123191223D02*
X96143871Y-122391223D01*
X99263871Y-123191223D02*
X99263871Y-123991223D01*
X99263871Y-123191223D02*
X99263871Y-122391223D01*
X96193871Y-124491223D02*
X95863871Y-124731223D01*
X95863871Y-124251223D01*
X96193871Y-124491223D01*
G36*
X96193871Y-124491223D02*
G01*
X95863871Y-124731223D01*
X95863871Y-124251223D01*
X96193871Y-124491223D01*
G37*
D12*
%TO.C,J1*%
X98066154Y-123120512D02*
G75*
G03*
X91826154Y-123120512I-3120000J0D01*
G01*
X91826154Y-123120512D02*
G75*
G03*
X98066154Y-123120512I3120000J0D01*
G01*
D11*
%TO.C,U1*%
X87343871Y-123191223D02*
X87343871Y-123991223D01*
X87343871Y-123191223D02*
X87343871Y-122391223D01*
X90463871Y-123191223D02*
X90463871Y-123991223D01*
X90463871Y-123191223D02*
X90463871Y-122391223D01*
X87393871Y-124491223D02*
X87063871Y-124731223D01*
X87063871Y-124251223D01*
X87393871Y-124491223D01*
G36*
X87393871Y-124491223D02*
G01*
X87063871Y-124731223D01*
X87063871Y-124251223D01*
X87393871Y-124491223D01*
G37*
D12*
%TO.C,J1*%
X89266154Y-123120512D02*
G75*
G03*
X83026154Y-123120512I-3120000J0D01*
G01*
X83026154Y-123120512D02*
G75*
G03*
X89266154Y-123120512I3120000J0D01*
G01*
D11*
%TO.C,U1*%
X78543871Y-123191223D02*
X78543871Y-123991223D01*
X78543871Y-123191223D02*
X78543871Y-122391223D01*
X81663871Y-123191223D02*
X81663871Y-123991223D01*
X81663871Y-123191223D02*
X81663871Y-122391223D01*
X78593871Y-124491223D02*
X78263871Y-124731223D01*
X78263871Y-124251223D01*
X78593871Y-124491223D01*
G36*
X78593871Y-124491223D02*
G01*
X78263871Y-124731223D01*
X78263871Y-124251223D01*
X78593871Y-124491223D01*
G37*
D12*
%TO.C,J1*%
X80466154Y-123120512D02*
G75*
G03*
X74226154Y-123120512I-3120000J0D01*
G01*
X74226154Y-123120512D02*
G75*
G03*
X80466154Y-123120512I3120000J0D01*
G01*
D11*
%TO.C,U1*%
X148943871Y-114391223D02*
X148943871Y-115191223D01*
X148943871Y-114391223D02*
X148943871Y-113591223D01*
X152063871Y-114391223D02*
X152063871Y-115191223D01*
X152063871Y-114391223D02*
X152063871Y-113591223D01*
X148993871Y-115691223D02*
X148663871Y-115931223D01*
X148663871Y-115451223D01*
X148993871Y-115691223D01*
G36*
X148993871Y-115691223D02*
G01*
X148663871Y-115931223D01*
X148663871Y-115451223D01*
X148993871Y-115691223D01*
G37*
D12*
%TO.C,J1*%
X150866154Y-114320512D02*
G75*
G03*
X144626154Y-114320512I-3120000J0D01*
G01*
X144626154Y-114320512D02*
G75*
G03*
X150866154Y-114320512I3120000J0D01*
G01*
D11*
%TO.C,U1*%
X140143871Y-114391223D02*
X140143871Y-115191223D01*
X140143871Y-114391223D02*
X140143871Y-113591223D01*
X143263871Y-114391223D02*
X143263871Y-115191223D01*
X143263871Y-114391223D02*
X143263871Y-113591223D01*
X140193871Y-115691223D02*
X139863871Y-115931223D01*
X139863871Y-115451223D01*
X140193871Y-115691223D01*
G36*
X140193871Y-115691223D02*
G01*
X139863871Y-115931223D01*
X139863871Y-115451223D01*
X140193871Y-115691223D01*
G37*
D12*
%TO.C,J1*%
X142066154Y-114320512D02*
G75*
G03*
X135826154Y-114320512I-3120000J0D01*
G01*
X135826154Y-114320512D02*
G75*
G03*
X142066154Y-114320512I3120000J0D01*
G01*
D11*
%TO.C,U1*%
X131343871Y-114391223D02*
X131343871Y-115191223D01*
X131343871Y-114391223D02*
X131343871Y-113591223D01*
X134463871Y-114391223D02*
X134463871Y-115191223D01*
X134463871Y-114391223D02*
X134463871Y-113591223D01*
X131393871Y-115691223D02*
X131063871Y-115931223D01*
X131063871Y-115451223D01*
X131393871Y-115691223D01*
G36*
X131393871Y-115691223D02*
G01*
X131063871Y-115931223D01*
X131063871Y-115451223D01*
X131393871Y-115691223D01*
G37*
D12*
%TO.C,J1*%
X133266154Y-114320512D02*
G75*
G03*
X127026154Y-114320512I-3120000J0D01*
G01*
X127026154Y-114320512D02*
G75*
G03*
X133266154Y-114320512I3120000J0D01*
G01*
D11*
%TO.C,U1*%
X122543871Y-114391223D02*
X122543871Y-115191223D01*
X122543871Y-114391223D02*
X122543871Y-113591223D01*
X125663871Y-114391223D02*
X125663871Y-115191223D01*
X125663871Y-114391223D02*
X125663871Y-113591223D01*
X122593871Y-115691223D02*
X122263871Y-115931223D01*
X122263871Y-115451223D01*
X122593871Y-115691223D01*
G36*
X122593871Y-115691223D02*
G01*
X122263871Y-115931223D01*
X122263871Y-115451223D01*
X122593871Y-115691223D01*
G37*
D12*
%TO.C,J1*%
X124466154Y-114320512D02*
G75*
G03*
X118226154Y-114320512I-3120000J0D01*
G01*
X118226154Y-114320512D02*
G75*
G03*
X124466154Y-114320512I3120000J0D01*
G01*
D11*
%TO.C,U1*%
X113743871Y-114391223D02*
X113743871Y-115191223D01*
X113743871Y-114391223D02*
X113743871Y-113591223D01*
X116863871Y-114391223D02*
X116863871Y-115191223D01*
X116863871Y-114391223D02*
X116863871Y-113591223D01*
X113793871Y-115691223D02*
X113463871Y-115931223D01*
X113463871Y-115451223D01*
X113793871Y-115691223D01*
G36*
X113793871Y-115691223D02*
G01*
X113463871Y-115931223D01*
X113463871Y-115451223D01*
X113793871Y-115691223D01*
G37*
D12*
%TO.C,J1*%
X115666154Y-114320512D02*
G75*
G03*
X109426154Y-114320512I-3120000J0D01*
G01*
X109426154Y-114320512D02*
G75*
G03*
X115666154Y-114320512I3120000J0D01*
G01*
D11*
%TO.C,U1*%
X104943871Y-114391223D02*
X104943871Y-115191223D01*
X104943871Y-114391223D02*
X104943871Y-113591223D01*
X108063871Y-114391223D02*
X108063871Y-115191223D01*
X108063871Y-114391223D02*
X108063871Y-113591223D01*
X104993871Y-115691223D02*
X104663871Y-115931223D01*
X104663871Y-115451223D01*
X104993871Y-115691223D01*
G36*
X104993871Y-115691223D02*
G01*
X104663871Y-115931223D01*
X104663871Y-115451223D01*
X104993871Y-115691223D01*
G37*
D12*
%TO.C,J1*%
X106866154Y-114320512D02*
G75*
G03*
X100626154Y-114320512I-3120000J0D01*
G01*
X100626154Y-114320512D02*
G75*
G03*
X106866154Y-114320512I3120000J0D01*
G01*
D11*
%TO.C,U1*%
X96143871Y-114391223D02*
X96143871Y-115191223D01*
X96143871Y-114391223D02*
X96143871Y-113591223D01*
X99263871Y-114391223D02*
X99263871Y-115191223D01*
X99263871Y-114391223D02*
X99263871Y-113591223D01*
X96193871Y-115691223D02*
X95863871Y-115931223D01*
X95863871Y-115451223D01*
X96193871Y-115691223D01*
G36*
X96193871Y-115691223D02*
G01*
X95863871Y-115931223D01*
X95863871Y-115451223D01*
X96193871Y-115691223D01*
G37*
D12*
%TO.C,J1*%
X98066154Y-114320512D02*
G75*
G03*
X91826154Y-114320512I-3120000J0D01*
G01*
X91826154Y-114320512D02*
G75*
G03*
X98066154Y-114320512I3120000J0D01*
G01*
D11*
%TO.C,U1*%
X87343871Y-114391223D02*
X87343871Y-115191223D01*
X87343871Y-114391223D02*
X87343871Y-113591223D01*
X90463871Y-114391223D02*
X90463871Y-115191223D01*
X90463871Y-114391223D02*
X90463871Y-113591223D01*
X87393871Y-115691223D02*
X87063871Y-115931223D01*
X87063871Y-115451223D01*
X87393871Y-115691223D01*
G36*
X87393871Y-115691223D02*
G01*
X87063871Y-115931223D01*
X87063871Y-115451223D01*
X87393871Y-115691223D01*
G37*
D12*
%TO.C,J1*%
X89266154Y-114320512D02*
G75*
G03*
X83026154Y-114320512I-3120000J0D01*
G01*
X83026154Y-114320512D02*
G75*
G03*
X89266154Y-114320512I3120000J0D01*
G01*
D11*
%TO.C,U1*%
X78543871Y-114391223D02*
X78543871Y-115191223D01*
X78543871Y-114391223D02*
X78543871Y-113591223D01*
X81663871Y-114391223D02*
X81663871Y-115191223D01*
X81663871Y-114391223D02*
X81663871Y-113591223D01*
X78593871Y-115691223D02*
X78263871Y-115931223D01*
X78263871Y-115451223D01*
X78593871Y-115691223D01*
G36*
X78593871Y-115691223D02*
G01*
X78263871Y-115931223D01*
X78263871Y-115451223D01*
X78593871Y-115691223D01*
G37*
D12*
%TO.C,J1*%
X80466154Y-114320512D02*
G75*
G03*
X74226154Y-114320512I-3120000J0D01*
G01*
X74226154Y-114320512D02*
G75*
G03*
X80466154Y-114320512I3120000J0D01*
G01*
D11*
%TO.C,U1*%
X148943871Y-105591223D02*
X148943871Y-106391223D01*
X148943871Y-105591223D02*
X148943871Y-104791223D01*
X152063871Y-105591223D02*
X152063871Y-106391223D01*
X152063871Y-105591223D02*
X152063871Y-104791223D01*
X148993871Y-106891223D02*
X148663871Y-107131223D01*
X148663871Y-106651223D01*
X148993871Y-106891223D01*
G36*
X148993871Y-106891223D02*
G01*
X148663871Y-107131223D01*
X148663871Y-106651223D01*
X148993871Y-106891223D01*
G37*
D12*
%TO.C,J1*%
X150866154Y-105520512D02*
G75*
G03*
X144626154Y-105520512I-3120000J0D01*
G01*
X144626154Y-105520512D02*
G75*
G03*
X150866154Y-105520512I3120000J0D01*
G01*
D11*
%TO.C,U1*%
X140143871Y-105591223D02*
X140143871Y-106391223D01*
X140143871Y-105591223D02*
X140143871Y-104791223D01*
X143263871Y-105591223D02*
X143263871Y-106391223D01*
X143263871Y-105591223D02*
X143263871Y-104791223D01*
X140193871Y-106891223D02*
X139863871Y-107131223D01*
X139863871Y-106651223D01*
X140193871Y-106891223D01*
G36*
X140193871Y-106891223D02*
G01*
X139863871Y-107131223D01*
X139863871Y-106651223D01*
X140193871Y-106891223D01*
G37*
D12*
%TO.C,J1*%
X142066154Y-105520512D02*
G75*
G03*
X135826154Y-105520512I-3120000J0D01*
G01*
X135826154Y-105520512D02*
G75*
G03*
X142066154Y-105520512I3120000J0D01*
G01*
D11*
%TO.C,U1*%
X131343871Y-105591223D02*
X131343871Y-106391223D01*
X131343871Y-105591223D02*
X131343871Y-104791223D01*
X134463871Y-105591223D02*
X134463871Y-106391223D01*
X134463871Y-105591223D02*
X134463871Y-104791223D01*
X131393871Y-106891223D02*
X131063871Y-107131223D01*
X131063871Y-106651223D01*
X131393871Y-106891223D01*
G36*
X131393871Y-106891223D02*
G01*
X131063871Y-107131223D01*
X131063871Y-106651223D01*
X131393871Y-106891223D01*
G37*
D12*
%TO.C,J1*%
X133266154Y-105520512D02*
G75*
G03*
X127026154Y-105520512I-3120000J0D01*
G01*
X127026154Y-105520512D02*
G75*
G03*
X133266154Y-105520512I3120000J0D01*
G01*
D11*
%TO.C,U1*%
X122543871Y-105591223D02*
X122543871Y-106391223D01*
X122543871Y-105591223D02*
X122543871Y-104791223D01*
X125663871Y-105591223D02*
X125663871Y-106391223D01*
X125663871Y-105591223D02*
X125663871Y-104791223D01*
X122593871Y-106891223D02*
X122263871Y-107131223D01*
X122263871Y-106651223D01*
X122593871Y-106891223D01*
G36*
X122593871Y-106891223D02*
G01*
X122263871Y-107131223D01*
X122263871Y-106651223D01*
X122593871Y-106891223D01*
G37*
D12*
%TO.C,J1*%
X124466154Y-105520512D02*
G75*
G03*
X118226154Y-105520512I-3120000J0D01*
G01*
X118226154Y-105520512D02*
G75*
G03*
X124466154Y-105520512I3120000J0D01*
G01*
D11*
%TO.C,U1*%
X113743871Y-105591223D02*
X113743871Y-106391223D01*
X113743871Y-105591223D02*
X113743871Y-104791223D01*
X116863871Y-105591223D02*
X116863871Y-106391223D01*
X116863871Y-105591223D02*
X116863871Y-104791223D01*
X113793871Y-106891223D02*
X113463871Y-107131223D01*
X113463871Y-106651223D01*
X113793871Y-106891223D01*
G36*
X113793871Y-106891223D02*
G01*
X113463871Y-107131223D01*
X113463871Y-106651223D01*
X113793871Y-106891223D01*
G37*
D12*
%TO.C,J1*%
X115666154Y-105520512D02*
G75*
G03*
X109426154Y-105520512I-3120000J0D01*
G01*
X109426154Y-105520512D02*
G75*
G03*
X115666154Y-105520512I3120000J0D01*
G01*
D11*
%TO.C,U1*%
X104943871Y-105591223D02*
X104943871Y-106391223D01*
X104943871Y-105591223D02*
X104943871Y-104791223D01*
X108063871Y-105591223D02*
X108063871Y-106391223D01*
X108063871Y-105591223D02*
X108063871Y-104791223D01*
X104993871Y-106891223D02*
X104663871Y-107131223D01*
X104663871Y-106651223D01*
X104993871Y-106891223D01*
G36*
X104993871Y-106891223D02*
G01*
X104663871Y-107131223D01*
X104663871Y-106651223D01*
X104993871Y-106891223D01*
G37*
D12*
%TO.C,J1*%
X106866154Y-105520512D02*
G75*
G03*
X100626154Y-105520512I-3120000J0D01*
G01*
X100626154Y-105520512D02*
G75*
G03*
X106866154Y-105520512I3120000J0D01*
G01*
D11*
%TO.C,U1*%
X96143871Y-105591223D02*
X96143871Y-106391223D01*
X96143871Y-105591223D02*
X96143871Y-104791223D01*
X99263871Y-105591223D02*
X99263871Y-106391223D01*
X99263871Y-105591223D02*
X99263871Y-104791223D01*
X96193871Y-106891223D02*
X95863871Y-107131223D01*
X95863871Y-106651223D01*
X96193871Y-106891223D01*
G36*
X96193871Y-106891223D02*
G01*
X95863871Y-107131223D01*
X95863871Y-106651223D01*
X96193871Y-106891223D01*
G37*
D12*
%TO.C,J1*%
X98066154Y-105520512D02*
G75*
G03*
X91826154Y-105520512I-3120000J0D01*
G01*
X91826154Y-105520512D02*
G75*
G03*
X98066154Y-105520512I3120000J0D01*
G01*
D11*
%TO.C,U1*%
X87343871Y-105591223D02*
X87343871Y-106391223D01*
X87343871Y-105591223D02*
X87343871Y-104791223D01*
X90463871Y-105591223D02*
X90463871Y-106391223D01*
X90463871Y-105591223D02*
X90463871Y-104791223D01*
X87393871Y-106891223D02*
X87063871Y-107131223D01*
X87063871Y-106651223D01*
X87393871Y-106891223D01*
G36*
X87393871Y-106891223D02*
G01*
X87063871Y-107131223D01*
X87063871Y-106651223D01*
X87393871Y-106891223D01*
G37*
D12*
%TO.C,J1*%
X89266154Y-105520512D02*
G75*
G03*
X83026154Y-105520512I-3120000J0D01*
G01*
X83026154Y-105520512D02*
G75*
G03*
X89266154Y-105520512I3120000J0D01*
G01*
D11*
%TO.C,U1*%
X78543871Y-105591223D02*
X78543871Y-106391223D01*
X78543871Y-105591223D02*
X78543871Y-104791223D01*
X81663871Y-105591223D02*
X81663871Y-106391223D01*
X81663871Y-105591223D02*
X81663871Y-104791223D01*
X78593871Y-106891223D02*
X78263871Y-107131223D01*
X78263871Y-106651223D01*
X78593871Y-106891223D01*
G36*
X78593871Y-106891223D02*
G01*
X78263871Y-107131223D01*
X78263871Y-106651223D01*
X78593871Y-106891223D01*
G37*
D12*
%TO.C,J1*%
X80466154Y-105520512D02*
G75*
G03*
X74226154Y-105520512I-3120000J0D01*
G01*
X74226154Y-105520512D02*
G75*
G03*
X80466154Y-105520512I3120000J0D01*
G01*
D11*
%TO.C,U1*%
X148943871Y-96791223D02*
X148943871Y-97591223D01*
X148943871Y-96791223D02*
X148943871Y-95991223D01*
X152063871Y-96791223D02*
X152063871Y-97591223D01*
X152063871Y-96791223D02*
X152063871Y-95991223D01*
X148993871Y-98091223D02*
X148663871Y-98331223D01*
X148663871Y-97851223D01*
X148993871Y-98091223D01*
G36*
X148993871Y-98091223D02*
G01*
X148663871Y-98331223D01*
X148663871Y-97851223D01*
X148993871Y-98091223D01*
G37*
D12*
%TO.C,J1*%
X150866154Y-96720512D02*
G75*
G03*
X144626154Y-96720512I-3120000J0D01*
G01*
X144626154Y-96720512D02*
G75*
G03*
X150866154Y-96720512I3120000J0D01*
G01*
D11*
%TO.C,U1*%
X140143871Y-96791223D02*
X140143871Y-97591223D01*
X140143871Y-96791223D02*
X140143871Y-95991223D01*
X143263871Y-96791223D02*
X143263871Y-97591223D01*
X143263871Y-96791223D02*
X143263871Y-95991223D01*
X140193871Y-98091223D02*
X139863871Y-98331223D01*
X139863871Y-97851223D01*
X140193871Y-98091223D01*
G36*
X140193871Y-98091223D02*
G01*
X139863871Y-98331223D01*
X139863871Y-97851223D01*
X140193871Y-98091223D01*
G37*
D12*
%TO.C,J1*%
X142066154Y-96720512D02*
G75*
G03*
X135826154Y-96720512I-3120000J0D01*
G01*
X135826154Y-96720512D02*
G75*
G03*
X142066154Y-96720512I3120000J0D01*
G01*
D11*
%TO.C,U1*%
X131343871Y-96791223D02*
X131343871Y-97591223D01*
X131343871Y-96791223D02*
X131343871Y-95991223D01*
X134463871Y-96791223D02*
X134463871Y-97591223D01*
X134463871Y-96791223D02*
X134463871Y-95991223D01*
X131393871Y-98091223D02*
X131063871Y-98331223D01*
X131063871Y-97851223D01*
X131393871Y-98091223D01*
G36*
X131393871Y-98091223D02*
G01*
X131063871Y-98331223D01*
X131063871Y-97851223D01*
X131393871Y-98091223D01*
G37*
D12*
%TO.C,J1*%
X133266154Y-96720512D02*
G75*
G03*
X127026154Y-96720512I-3120000J0D01*
G01*
X127026154Y-96720512D02*
G75*
G03*
X133266154Y-96720512I3120000J0D01*
G01*
D11*
%TO.C,U1*%
X122543871Y-96791223D02*
X122543871Y-97591223D01*
X122543871Y-96791223D02*
X122543871Y-95991223D01*
X125663871Y-96791223D02*
X125663871Y-97591223D01*
X125663871Y-96791223D02*
X125663871Y-95991223D01*
X122593871Y-98091223D02*
X122263871Y-98331223D01*
X122263871Y-97851223D01*
X122593871Y-98091223D01*
G36*
X122593871Y-98091223D02*
G01*
X122263871Y-98331223D01*
X122263871Y-97851223D01*
X122593871Y-98091223D01*
G37*
D12*
%TO.C,J1*%
X124466154Y-96720512D02*
G75*
G03*
X118226154Y-96720512I-3120000J0D01*
G01*
X118226154Y-96720512D02*
G75*
G03*
X124466154Y-96720512I3120000J0D01*
G01*
D11*
%TO.C,U1*%
X113743871Y-96791223D02*
X113743871Y-97591223D01*
X113743871Y-96791223D02*
X113743871Y-95991223D01*
X116863871Y-96791223D02*
X116863871Y-97591223D01*
X116863871Y-96791223D02*
X116863871Y-95991223D01*
X113793871Y-98091223D02*
X113463871Y-98331223D01*
X113463871Y-97851223D01*
X113793871Y-98091223D01*
G36*
X113793871Y-98091223D02*
G01*
X113463871Y-98331223D01*
X113463871Y-97851223D01*
X113793871Y-98091223D01*
G37*
D12*
%TO.C,J1*%
X115666154Y-96720512D02*
G75*
G03*
X109426154Y-96720512I-3120000J0D01*
G01*
X109426154Y-96720512D02*
G75*
G03*
X115666154Y-96720512I3120000J0D01*
G01*
D11*
%TO.C,U1*%
X104943871Y-96791223D02*
X104943871Y-97591223D01*
X104943871Y-96791223D02*
X104943871Y-95991223D01*
X108063871Y-96791223D02*
X108063871Y-97591223D01*
X108063871Y-96791223D02*
X108063871Y-95991223D01*
X104993871Y-98091223D02*
X104663871Y-98331223D01*
X104663871Y-97851223D01*
X104993871Y-98091223D01*
G36*
X104993871Y-98091223D02*
G01*
X104663871Y-98331223D01*
X104663871Y-97851223D01*
X104993871Y-98091223D01*
G37*
D12*
%TO.C,J1*%
X106866154Y-96720512D02*
G75*
G03*
X100626154Y-96720512I-3120000J0D01*
G01*
X100626154Y-96720512D02*
G75*
G03*
X106866154Y-96720512I3120000J0D01*
G01*
D11*
%TO.C,U1*%
X96143871Y-96791223D02*
X96143871Y-97591223D01*
X96143871Y-96791223D02*
X96143871Y-95991223D01*
X99263871Y-96791223D02*
X99263871Y-97591223D01*
X99263871Y-96791223D02*
X99263871Y-95991223D01*
X96193871Y-98091223D02*
X95863871Y-98331223D01*
X95863871Y-97851223D01*
X96193871Y-98091223D01*
G36*
X96193871Y-98091223D02*
G01*
X95863871Y-98331223D01*
X95863871Y-97851223D01*
X96193871Y-98091223D01*
G37*
D12*
%TO.C,J1*%
X98066154Y-96720512D02*
G75*
G03*
X91826154Y-96720512I-3120000J0D01*
G01*
X91826154Y-96720512D02*
G75*
G03*
X98066154Y-96720512I3120000J0D01*
G01*
D11*
%TO.C,U1*%
X87343871Y-96791223D02*
X87343871Y-97591223D01*
X87343871Y-96791223D02*
X87343871Y-95991223D01*
X90463871Y-96791223D02*
X90463871Y-97591223D01*
X90463871Y-96791223D02*
X90463871Y-95991223D01*
X87393871Y-98091223D02*
X87063871Y-98331223D01*
X87063871Y-97851223D01*
X87393871Y-98091223D01*
G36*
X87393871Y-98091223D02*
G01*
X87063871Y-98331223D01*
X87063871Y-97851223D01*
X87393871Y-98091223D01*
G37*
D12*
%TO.C,J1*%
X89266154Y-96720512D02*
G75*
G03*
X83026154Y-96720512I-3120000J0D01*
G01*
X83026154Y-96720512D02*
G75*
G03*
X89266154Y-96720512I3120000J0D01*
G01*
D11*
%TO.C,U1*%
X78543871Y-96791223D02*
X78543871Y-97591223D01*
X78543871Y-96791223D02*
X78543871Y-95991223D01*
X81663871Y-96791223D02*
X81663871Y-97591223D01*
X81663871Y-96791223D02*
X81663871Y-95991223D01*
X78593871Y-98091223D02*
X78263871Y-98331223D01*
X78263871Y-97851223D01*
X78593871Y-98091223D01*
G36*
X78593871Y-98091223D02*
G01*
X78263871Y-98331223D01*
X78263871Y-97851223D01*
X78593871Y-98091223D01*
G37*
D12*
%TO.C,J1*%
X80466154Y-96720512D02*
G75*
G03*
X74226154Y-96720512I-3120000J0D01*
G01*
X74226154Y-96720512D02*
G75*
G03*
X80466154Y-96720512I3120000J0D01*
G01*
D11*
%TO.C,U1*%
X148943871Y-87991223D02*
X148943871Y-88791223D01*
X148943871Y-87991223D02*
X148943871Y-87191223D01*
X152063871Y-87991223D02*
X152063871Y-88791223D01*
X152063871Y-87991223D02*
X152063871Y-87191223D01*
X148993871Y-89291223D02*
X148663871Y-89531223D01*
X148663871Y-89051223D01*
X148993871Y-89291223D01*
G36*
X148993871Y-89291223D02*
G01*
X148663871Y-89531223D01*
X148663871Y-89051223D01*
X148993871Y-89291223D01*
G37*
D12*
%TO.C,J1*%
X150866154Y-87920512D02*
G75*
G03*
X144626154Y-87920512I-3120000J0D01*
G01*
X144626154Y-87920512D02*
G75*
G03*
X150866154Y-87920512I3120000J0D01*
G01*
D11*
%TO.C,U1*%
X140143871Y-87991223D02*
X140143871Y-88791223D01*
X140143871Y-87991223D02*
X140143871Y-87191223D01*
X143263871Y-87991223D02*
X143263871Y-88791223D01*
X143263871Y-87991223D02*
X143263871Y-87191223D01*
X140193871Y-89291223D02*
X139863871Y-89531223D01*
X139863871Y-89051223D01*
X140193871Y-89291223D01*
G36*
X140193871Y-89291223D02*
G01*
X139863871Y-89531223D01*
X139863871Y-89051223D01*
X140193871Y-89291223D01*
G37*
D12*
%TO.C,J1*%
X142066154Y-87920512D02*
G75*
G03*
X135826154Y-87920512I-3120000J0D01*
G01*
X135826154Y-87920512D02*
G75*
G03*
X142066154Y-87920512I3120000J0D01*
G01*
D11*
%TO.C,U1*%
X131343871Y-87991223D02*
X131343871Y-88791223D01*
X131343871Y-87991223D02*
X131343871Y-87191223D01*
X134463871Y-87991223D02*
X134463871Y-88791223D01*
X134463871Y-87991223D02*
X134463871Y-87191223D01*
X131393871Y-89291223D02*
X131063871Y-89531223D01*
X131063871Y-89051223D01*
X131393871Y-89291223D01*
G36*
X131393871Y-89291223D02*
G01*
X131063871Y-89531223D01*
X131063871Y-89051223D01*
X131393871Y-89291223D01*
G37*
D12*
%TO.C,J1*%
X133266154Y-87920512D02*
G75*
G03*
X127026154Y-87920512I-3120000J0D01*
G01*
X127026154Y-87920512D02*
G75*
G03*
X133266154Y-87920512I3120000J0D01*
G01*
D11*
%TO.C,U1*%
X122543871Y-87991223D02*
X122543871Y-88791223D01*
X122543871Y-87991223D02*
X122543871Y-87191223D01*
X125663871Y-87991223D02*
X125663871Y-88791223D01*
X125663871Y-87991223D02*
X125663871Y-87191223D01*
X122593871Y-89291223D02*
X122263871Y-89531223D01*
X122263871Y-89051223D01*
X122593871Y-89291223D01*
G36*
X122593871Y-89291223D02*
G01*
X122263871Y-89531223D01*
X122263871Y-89051223D01*
X122593871Y-89291223D01*
G37*
D12*
%TO.C,J1*%
X124466154Y-87920512D02*
G75*
G03*
X118226154Y-87920512I-3120000J0D01*
G01*
X118226154Y-87920512D02*
G75*
G03*
X124466154Y-87920512I3120000J0D01*
G01*
D11*
%TO.C,U1*%
X113743871Y-87991223D02*
X113743871Y-88791223D01*
X113743871Y-87991223D02*
X113743871Y-87191223D01*
X116863871Y-87991223D02*
X116863871Y-88791223D01*
X116863871Y-87991223D02*
X116863871Y-87191223D01*
X113793871Y-89291223D02*
X113463871Y-89531223D01*
X113463871Y-89051223D01*
X113793871Y-89291223D01*
G36*
X113793871Y-89291223D02*
G01*
X113463871Y-89531223D01*
X113463871Y-89051223D01*
X113793871Y-89291223D01*
G37*
D12*
%TO.C,J1*%
X115666154Y-87920512D02*
G75*
G03*
X109426154Y-87920512I-3120000J0D01*
G01*
X109426154Y-87920512D02*
G75*
G03*
X115666154Y-87920512I3120000J0D01*
G01*
D11*
%TO.C,U1*%
X104943871Y-87991223D02*
X104943871Y-88791223D01*
X104943871Y-87991223D02*
X104943871Y-87191223D01*
X108063871Y-87991223D02*
X108063871Y-88791223D01*
X108063871Y-87991223D02*
X108063871Y-87191223D01*
X104993871Y-89291223D02*
X104663871Y-89531223D01*
X104663871Y-89051223D01*
X104993871Y-89291223D01*
G36*
X104993871Y-89291223D02*
G01*
X104663871Y-89531223D01*
X104663871Y-89051223D01*
X104993871Y-89291223D01*
G37*
D12*
%TO.C,J1*%
X106866154Y-87920512D02*
G75*
G03*
X100626154Y-87920512I-3120000J0D01*
G01*
X100626154Y-87920512D02*
G75*
G03*
X106866154Y-87920512I3120000J0D01*
G01*
D11*
%TO.C,U1*%
X96143871Y-87991223D02*
X96143871Y-88791223D01*
X96143871Y-87991223D02*
X96143871Y-87191223D01*
X99263871Y-87991223D02*
X99263871Y-88791223D01*
X99263871Y-87991223D02*
X99263871Y-87191223D01*
X96193871Y-89291223D02*
X95863871Y-89531223D01*
X95863871Y-89051223D01*
X96193871Y-89291223D01*
G36*
X96193871Y-89291223D02*
G01*
X95863871Y-89531223D01*
X95863871Y-89051223D01*
X96193871Y-89291223D01*
G37*
D12*
%TO.C,J1*%
X98066154Y-87920512D02*
G75*
G03*
X91826154Y-87920512I-3120000J0D01*
G01*
X91826154Y-87920512D02*
G75*
G03*
X98066154Y-87920512I3120000J0D01*
G01*
D11*
%TO.C,U1*%
X87343871Y-87991223D02*
X87343871Y-88791223D01*
X87343871Y-87991223D02*
X87343871Y-87191223D01*
X90463871Y-87991223D02*
X90463871Y-88791223D01*
X90463871Y-87991223D02*
X90463871Y-87191223D01*
X87393871Y-89291223D02*
X87063871Y-89531223D01*
X87063871Y-89051223D01*
X87393871Y-89291223D01*
G36*
X87393871Y-89291223D02*
G01*
X87063871Y-89531223D01*
X87063871Y-89051223D01*
X87393871Y-89291223D01*
G37*
D12*
%TO.C,J1*%
X89266154Y-87920512D02*
G75*
G03*
X83026154Y-87920512I-3120000J0D01*
G01*
X83026154Y-87920512D02*
G75*
G03*
X89266154Y-87920512I3120000J0D01*
G01*
D11*
%TO.C,U1*%
X78543871Y-87991223D02*
X78543871Y-88791223D01*
X78543871Y-87991223D02*
X78543871Y-87191223D01*
X81663871Y-87991223D02*
X81663871Y-88791223D01*
X81663871Y-87991223D02*
X81663871Y-87191223D01*
X78593871Y-89291223D02*
X78263871Y-89531223D01*
X78263871Y-89051223D01*
X78593871Y-89291223D01*
G36*
X78593871Y-89291223D02*
G01*
X78263871Y-89531223D01*
X78263871Y-89051223D01*
X78593871Y-89291223D01*
G37*
D12*
%TO.C,J1*%
X80466154Y-87920512D02*
G75*
G03*
X74226154Y-87920512I-3120000J0D01*
G01*
X74226154Y-87920512D02*
G75*
G03*
X80466154Y-87920512I3120000J0D01*
G01*
D11*
%TO.C,U1*%
X148943871Y-79191223D02*
X148943871Y-79991223D01*
X148943871Y-79191223D02*
X148943871Y-78391223D01*
X152063871Y-79191223D02*
X152063871Y-79991223D01*
X152063871Y-79191223D02*
X152063871Y-78391223D01*
X148993871Y-80491223D02*
X148663871Y-80731223D01*
X148663871Y-80251223D01*
X148993871Y-80491223D01*
G36*
X148993871Y-80491223D02*
G01*
X148663871Y-80731223D01*
X148663871Y-80251223D01*
X148993871Y-80491223D01*
G37*
D12*
%TO.C,J1*%
X150866154Y-79120512D02*
G75*
G03*
X144626154Y-79120512I-3120000J0D01*
G01*
X144626154Y-79120512D02*
G75*
G03*
X150866154Y-79120512I3120000J0D01*
G01*
D11*
%TO.C,U1*%
X140143871Y-79191223D02*
X140143871Y-79991223D01*
X140143871Y-79191223D02*
X140143871Y-78391223D01*
X143263871Y-79191223D02*
X143263871Y-79991223D01*
X143263871Y-79191223D02*
X143263871Y-78391223D01*
X140193871Y-80491223D02*
X139863871Y-80731223D01*
X139863871Y-80251223D01*
X140193871Y-80491223D01*
G36*
X140193871Y-80491223D02*
G01*
X139863871Y-80731223D01*
X139863871Y-80251223D01*
X140193871Y-80491223D01*
G37*
D12*
%TO.C,J1*%
X142066154Y-79120512D02*
G75*
G03*
X135826154Y-79120512I-3120000J0D01*
G01*
X135826154Y-79120512D02*
G75*
G03*
X142066154Y-79120512I3120000J0D01*
G01*
D11*
%TO.C,U1*%
X131343871Y-79191223D02*
X131343871Y-79991223D01*
X131343871Y-79191223D02*
X131343871Y-78391223D01*
X134463871Y-79191223D02*
X134463871Y-79991223D01*
X134463871Y-79191223D02*
X134463871Y-78391223D01*
X131393871Y-80491223D02*
X131063871Y-80731223D01*
X131063871Y-80251223D01*
X131393871Y-80491223D01*
G36*
X131393871Y-80491223D02*
G01*
X131063871Y-80731223D01*
X131063871Y-80251223D01*
X131393871Y-80491223D01*
G37*
D12*
%TO.C,J1*%
X133266154Y-79120512D02*
G75*
G03*
X127026154Y-79120512I-3120000J0D01*
G01*
X127026154Y-79120512D02*
G75*
G03*
X133266154Y-79120512I3120000J0D01*
G01*
D11*
%TO.C,U1*%
X122543871Y-79191223D02*
X122543871Y-79991223D01*
X122543871Y-79191223D02*
X122543871Y-78391223D01*
X125663871Y-79191223D02*
X125663871Y-79991223D01*
X125663871Y-79191223D02*
X125663871Y-78391223D01*
X122593871Y-80491223D02*
X122263871Y-80731223D01*
X122263871Y-80251223D01*
X122593871Y-80491223D01*
G36*
X122593871Y-80491223D02*
G01*
X122263871Y-80731223D01*
X122263871Y-80251223D01*
X122593871Y-80491223D01*
G37*
D12*
%TO.C,J1*%
X124466154Y-79120512D02*
G75*
G03*
X118226154Y-79120512I-3120000J0D01*
G01*
X118226154Y-79120512D02*
G75*
G03*
X124466154Y-79120512I3120000J0D01*
G01*
D11*
%TO.C,U1*%
X113743871Y-79191223D02*
X113743871Y-79991223D01*
X113743871Y-79191223D02*
X113743871Y-78391223D01*
X116863871Y-79191223D02*
X116863871Y-79991223D01*
X116863871Y-79191223D02*
X116863871Y-78391223D01*
X113793871Y-80491223D02*
X113463871Y-80731223D01*
X113463871Y-80251223D01*
X113793871Y-80491223D01*
G36*
X113793871Y-80491223D02*
G01*
X113463871Y-80731223D01*
X113463871Y-80251223D01*
X113793871Y-80491223D01*
G37*
D12*
%TO.C,J1*%
X115666154Y-79120512D02*
G75*
G03*
X109426154Y-79120512I-3120000J0D01*
G01*
X109426154Y-79120512D02*
G75*
G03*
X115666154Y-79120512I3120000J0D01*
G01*
D11*
%TO.C,U1*%
X104943871Y-79191223D02*
X104943871Y-79991223D01*
X104943871Y-79191223D02*
X104943871Y-78391223D01*
X108063871Y-79191223D02*
X108063871Y-79991223D01*
X108063871Y-79191223D02*
X108063871Y-78391223D01*
X104993871Y-80491223D02*
X104663871Y-80731223D01*
X104663871Y-80251223D01*
X104993871Y-80491223D01*
G36*
X104993871Y-80491223D02*
G01*
X104663871Y-80731223D01*
X104663871Y-80251223D01*
X104993871Y-80491223D01*
G37*
D12*
%TO.C,J1*%
X106866154Y-79120512D02*
G75*
G03*
X100626154Y-79120512I-3120000J0D01*
G01*
X100626154Y-79120512D02*
G75*
G03*
X106866154Y-79120512I3120000J0D01*
G01*
D11*
%TO.C,U1*%
X96143871Y-79191223D02*
X96143871Y-79991223D01*
X96143871Y-79191223D02*
X96143871Y-78391223D01*
X99263871Y-79191223D02*
X99263871Y-79991223D01*
X99263871Y-79191223D02*
X99263871Y-78391223D01*
X96193871Y-80491223D02*
X95863871Y-80731223D01*
X95863871Y-80251223D01*
X96193871Y-80491223D01*
G36*
X96193871Y-80491223D02*
G01*
X95863871Y-80731223D01*
X95863871Y-80251223D01*
X96193871Y-80491223D01*
G37*
D12*
%TO.C,J1*%
X98066154Y-79120512D02*
G75*
G03*
X91826154Y-79120512I-3120000J0D01*
G01*
X91826154Y-79120512D02*
G75*
G03*
X98066154Y-79120512I3120000J0D01*
G01*
D11*
%TO.C,U1*%
X87343871Y-79191223D02*
X87343871Y-79991223D01*
X87343871Y-79191223D02*
X87343871Y-78391223D01*
X90463871Y-79191223D02*
X90463871Y-79991223D01*
X90463871Y-79191223D02*
X90463871Y-78391223D01*
X87393871Y-80491223D02*
X87063871Y-80731223D01*
X87063871Y-80251223D01*
X87393871Y-80491223D01*
G36*
X87393871Y-80491223D02*
G01*
X87063871Y-80731223D01*
X87063871Y-80251223D01*
X87393871Y-80491223D01*
G37*
D12*
%TO.C,J1*%
X89266154Y-79120512D02*
G75*
G03*
X83026154Y-79120512I-3120000J0D01*
G01*
X83026154Y-79120512D02*
G75*
G03*
X89266154Y-79120512I3120000J0D01*
G01*
D11*
%TO.C,U1*%
X78543871Y-79191223D02*
X78543871Y-79991223D01*
X78543871Y-79191223D02*
X78543871Y-78391223D01*
X81663871Y-79191223D02*
X81663871Y-79991223D01*
X81663871Y-79191223D02*
X81663871Y-78391223D01*
X78593871Y-80491223D02*
X78263871Y-80731223D01*
X78263871Y-80251223D01*
X78593871Y-80491223D01*
G36*
X78593871Y-80491223D02*
G01*
X78263871Y-80731223D01*
X78263871Y-80251223D01*
X78593871Y-80491223D01*
G37*
D12*
%TO.C,J1*%
X80466154Y-79120512D02*
G75*
G03*
X74226154Y-79120512I-3120000J0D01*
G01*
X74226154Y-79120512D02*
G75*
G03*
X80466154Y-79120512I3120000J0D01*
G01*
D11*
%TO.C,U1*%
X148943871Y-70391223D02*
X148943871Y-71191223D01*
X148943871Y-70391223D02*
X148943871Y-69591223D01*
X152063871Y-70391223D02*
X152063871Y-71191223D01*
X152063871Y-70391223D02*
X152063871Y-69591223D01*
X148993871Y-71691223D02*
X148663871Y-71931223D01*
X148663871Y-71451223D01*
X148993871Y-71691223D01*
G36*
X148993871Y-71691223D02*
G01*
X148663871Y-71931223D01*
X148663871Y-71451223D01*
X148993871Y-71691223D01*
G37*
D12*
%TO.C,J1*%
X150866154Y-70320512D02*
G75*
G03*
X144626154Y-70320512I-3120000J0D01*
G01*
X144626154Y-70320512D02*
G75*
G03*
X150866154Y-70320512I3120000J0D01*
G01*
D11*
%TO.C,U1*%
X140143871Y-70391223D02*
X140143871Y-71191223D01*
X140143871Y-70391223D02*
X140143871Y-69591223D01*
X143263871Y-70391223D02*
X143263871Y-71191223D01*
X143263871Y-70391223D02*
X143263871Y-69591223D01*
X140193871Y-71691223D02*
X139863871Y-71931223D01*
X139863871Y-71451223D01*
X140193871Y-71691223D01*
G36*
X140193871Y-71691223D02*
G01*
X139863871Y-71931223D01*
X139863871Y-71451223D01*
X140193871Y-71691223D01*
G37*
D12*
%TO.C,J1*%
X142066154Y-70320512D02*
G75*
G03*
X135826154Y-70320512I-3120000J0D01*
G01*
X135826154Y-70320512D02*
G75*
G03*
X142066154Y-70320512I3120000J0D01*
G01*
D11*
%TO.C,U1*%
X131343871Y-70391223D02*
X131343871Y-71191223D01*
X131343871Y-70391223D02*
X131343871Y-69591223D01*
X134463871Y-70391223D02*
X134463871Y-71191223D01*
X134463871Y-70391223D02*
X134463871Y-69591223D01*
X131393871Y-71691223D02*
X131063871Y-71931223D01*
X131063871Y-71451223D01*
X131393871Y-71691223D01*
G36*
X131393871Y-71691223D02*
G01*
X131063871Y-71931223D01*
X131063871Y-71451223D01*
X131393871Y-71691223D01*
G37*
D12*
%TO.C,J1*%
X133266154Y-70320512D02*
G75*
G03*
X127026154Y-70320512I-3120000J0D01*
G01*
X127026154Y-70320512D02*
G75*
G03*
X133266154Y-70320512I3120000J0D01*
G01*
D11*
%TO.C,U1*%
X122543871Y-70391223D02*
X122543871Y-71191223D01*
X122543871Y-70391223D02*
X122543871Y-69591223D01*
X125663871Y-70391223D02*
X125663871Y-71191223D01*
X125663871Y-70391223D02*
X125663871Y-69591223D01*
X122593871Y-71691223D02*
X122263871Y-71931223D01*
X122263871Y-71451223D01*
X122593871Y-71691223D01*
G36*
X122593871Y-71691223D02*
G01*
X122263871Y-71931223D01*
X122263871Y-71451223D01*
X122593871Y-71691223D01*
G37*
D12*
%TO.C,J1*%
X124466154Y-70320512D02*
G75*
G03*
X118226154Y-70320512I-3120000J0D01*
G01*
X118226154Y-70320512D02*
G75*
G03*
X124466154Y-70320512I3120000J0D01*
G01*
D11*
%TO.C,U1*%
X113743871Y-70391223D02*
X113743871Y-71191223D01*
X113743871Y-70391223D02*
X113743871Y-69591223D01*
X116863871Y-70391223D02*
X116863871Y-71191223D01*
X116863871Y-70391223D02*
X116863871Y-69591223D01*
X113793871Y-71691223D02*
X113463871Y-71931223D01*
X113463871Y-71451223D01*
X113793871Y-71691223D01*
G36*
X113793871Y-71691223D02*
G01*
X113463871Y-71931223D01*
X113463871Y-71451223D01*
X113793871Y-71691223D01*
G37*
D12*
%TO.C,J1*%
X115666154Y-70320512D02*
G75*
G03*
X109426154Y-70320512I-3120000J0D01*
G01*
X109426154Y-70320512D02*
G75*
G03*
X115666154Y-70320512I3120000J0D01*
G01*
D11*
%TO.C,U1*%
X104943871Y-70391223D02*
X104943871Y-71191223D01*
X104943871Y-70391223D02*
X104943871Y-69591223D01*
X108063871Y-70391223D02*
X108063871Y-71191223D01*
X108063871Y-70391223D02*
X108063871Y-69591223D01*
X104993871Y-71691223D02*
X104663871Y-71931223D01*
X104663871Y-71451223D01*
X104993871Y-71691223D01*
G36*
X104993871Y-71691223D02*
G01*
X104663871Y-71931223D01*
X104663871Y-71451223D01*
X104993871Y-71691223D01*
G37*
D12*
%TO.C,J1*%
X106866154Y-70320512D02*
G75*
G03*
X100626154Y-70320512I-3120000J0D01*
G01*
X100626154Y-70320512D02*
G75*
G03*
X106866154Y-70320512I3120000J0D01*
G01*
D11*
%TO.C,U1*%
X96143871Y-70391223D02*
X96143871Y-71191223D01*
X96143871Y-70391223D02*
X96143871Y-69591223D01*
X99263871Y-70391223D02*
X99263871Y-71191223D01*
X99263871Y-70391223D02*
X99263871Y-69591223D01*
X96193871Y-71691223D02*
X95863871Y-71931223D01*
X95863871Y-71451223D01*
X96193871Y-71691223D01*
G36*
X96193871Y-71691223D02*
G01*
X95863871Y-71931223D01*
X95863871Y-71451223D01*
X96193871Y-71691223D01*
G37*
D12*
%TO.C,J1*%
X98066154Y-70320512D02*
G75*
G03*
X91826154Y-70320512I-3120000J0D01*
G01*
X91826154Y-70320512D02*
G75*
G03*
X98066154Y-70320512I3120000J0D01*
G01*
D11*
%TO.C,U1*%
X87343871Y-70391223D02*
X87343871Y-71191223D01*
X87343871Y-70391223D02*
X87343871Y-69591223D01*
X90463871Y-70391223D02*
X90463871Y-71191223D01*
X90463871Y-70391223D02*
X90463871Y-69591223D01*
X87393871Y-71691223D02*
X87063871Y-71931223D01*
X87063871Y-71451223D01*
X87393871Y-71691223D01*
G36*
X87393871Y-71691223D02*
G01*
X87063871Y-71931223D01*
X87063871Y-71451223D01*
X87393871Y-71691223D01*
G37*
D12*
%TO.C,J1*%
X89266154Y-70320512D02*
G75*
G03*
X83026154Y-70320512I-3120000J0D01*
G01*
X83026154Y-70320512D02*
G75*
G03*
X89266154Y-70320512I3120000J0D01*
G01*
D11*
%TO.C,U1*%
X78543871Y-70391223D02*
X78543871Y-71191223D01*
X78543871Y-70391223D02*
X78543871Y-69591223D01*
X81663871Y-70391223D02*
X81663871Y-71191223D01*
X81663871Y-70391223D02*
X81663871Y-69591223D01*
X78593871Y-71691223D02*
X78263871Y-71931223D01*
X78263871Y-71451223D01*
X78593871Y-71691223D01*
G36*
X78593871Y-71691223D02*
G01*
X78263871Y-71931223D01*
X78263871Y-71451223D01*
X78593871Y-71691223D01*
G37*
D12*
%TO.C,J1*%
X80466154Y-70320512D02*
G75*
G03*
X74226154Y-70320512I-3120000J0D01*
G01*
X74226154Y-70320512D02*
G75*
G03*
X80466154Y-70320512I3120000J0D01*
G01*
D11*
%TO.C,U1*%
X148943871Y-61591223D02*
X148943871Y-62391223D01*
X148943871Y-61591223D02*
X148943871Y-60791223D01*
X152063871Y-61591223D02*
X152063871Y-62391223D01*
X152063871Y-61591223D02*
X152063871Y-60791223D01*
X148993871Y-62891223D02*
X148663871Y-63131223D01*
X148663871Y-62651223D01*
X148993871Y-62891223D01*
G36*
X148993871Y-62891223D02*
G01*
X148663871Y-63131223D01*
X148663871Y-62651223D01*
X148993871Y-62891223D01*
G37*
D12*
%TO.C,J1*%
X150866154Y-61520512D02*
G75*
G03*
X144626154Y-61520512I-3120000J0D01*
G01*
X144626154Y-61520512D02*
G75*
G03*
X150866154Y-61520512I3120000J0D01*
G01*
D11*
%TO.C,U1*%
X140143871Y-61591223D02*
X140143871Y-62391223D01*
X140143871Y-61591223D02*
X140143871Y-60791223D01*
X143263871Y-61591223D02*
X143263871Y-62391223D01*
X143263871Y-61591223D02*
X143263871Y-60791223D01*
X140193871Y-62891223D02*
X139863871Y-63131223D01*
X139863871Y-62651223D01*
X140193871Y-62891223D01*
G36*
X140193871Y-62891223D02*
G01*
X139863871Y-63131223D01*
X139863871Y-62651223D01*
X140193871Y-62891223D01*
G37*
D12*
%TO.C,J1*%
X142066154Y-61520512D02*
G75*
G03*
X135826154Y-61520512I-3120000J0D01*
G01*
X135826154Y-61520512D02*
G75*
G03*
X142066154Y-61520512I3120000J0D01*
G01*
D11*
%TO.C,U1*%
X131343871Y-61591223D02*
X131343871Y-62391223D01*
X131343871Y-61591223D02*
X131343871Y-60791223D01*
X134463871Y-61591223D02*
X134463871Y-62391223D01*
X134463871Y-61591223D02*
X134463871Y-60791223D01*
X131393871Y-62891223D02*
X131063871Y-63131223D01*
X131063871Y-62651223D01*
X131393871Y-62891223D01*
G36*
X131393871Y-62891223D02*
G01*
X131063871Y-63131223D01*
X131063871Y-62651223D01*
X131393871Y-62891223D01*
G37*
D12*
%TO.C,J1*%
X133266154Y-61520512D02*
G75*
G03*
X127026154Y-61520512I-3120000J0D01*
G01*
X127026154Y-61520512D02*
G75*
G03*
X133266154Y-61520512I3120000J0D01*
G01*
D11*
%TO.C,U1*%
X122543871Y-61591223D02*
X122543871Y-62391223D01*
X122543871Y-61591223D02*
X122543871Y-60791223D01*
X125663871Y-61591223D02*
X125663871Y-62391223D01*
X125663871Y-61591223D02*
X125663871Y-60791223D01*
X122593871Y-62891223D02*
X122263871Y-63131223D01*
X122263871Y-62651223D01*
X122593871Y-62891223D01*
G36*
X122593871Y-62891223D02*
G01*
X122263871Y-63131223D01*
X122263871Y-62651223D01*
X122593871Y-62891223D01*
G37*
D12*
%TO.C,J1*%
X124466154Y-61520512D02*
G75*
G03*
X118226154Y-61520512I-3120000J0D01*
G01*
X118226154Y-61520512D02*
G75*
G03*
X124466154Y-61520512I3120000J0D01*
G01*
D11*
%TO.C,U1*%
X113743871Y-61591223D02*
X113743871Y-62391223D01*
X113743871Y-61591223D02*
X113743871Y-60791223D01*
X116863871Y-61591223D02*
X116863871Y-62391223D01*
X116863871Y-61591223D02*
X116863871Y-60791223D01*
X113793871Y-62891223D02*
X113463871Y-63131223D01*
X113463871Y-62651223D01*
X113793871Y-62891223D01*
G36*
X113793871Y-62891223D02*
G01*
X113463871Y-63131223D01*
X113463871Y-62651223D01*
X113793871Y-62891223D01*
G37*
D12*
%TO.C,J1*%
X115666154Y-61520512D02*
G75*
G03*
X109426154Y-61520512I-3120000J0D01*
G01*
X109426154Y-61520512D02*
G75*
G03*
X115666154Y-61520512I3120000J0D01*
G01*
D11*
%TO.C,U1*%
X104943871Y-61591223D02*
X104943871Y-62391223D01*
X104943871Y-61591223D02*
X104943871Y-60791223D01*
X108063871Y-61591223D02*
X108063871Y-62391223D01*
X108063871Y-61591223D02*
X108063871Y-60791223D01*
X104993871Y-62891223D02*
X104663871Y-63131223D01*
X104663871Y-62651223D01*
X104993871Y-62891223D01*
G36*
X104993871Y-62891223D02*
G01*
X104663871Y-63131223D01*
X104663871Y-62651223D01*
X104993871Y-62891223D01*
G37*
D12*
%TO.C,J1*%
X106866154Y-61520512D02*
G75*
G03*
X100626154Y-61520512I-3120000J0D01*
G01*
X100626154Y-61520512D02*
G75*
G03*
X106866154Y-61520512I3120000J0D01*
G01*
D11*
%TO.C,U1*%
X96143871Y-61591223D02*
X96143871Y-62391223D01*
X96143871Y-61591223D02*
X96143871Y-60791223D01*
X99263871Y-61591223D02*
X99263871Y-62391223D01*
X99263871Y-61591223D02*
X99263871Y-60791223D01*
X96193871Y-62891223D02*
X95863871Y-63131223D01*
X95863871Y-62651223D01*
X96193871Y-62891223D01*
G36*
X96193871Y-62891223D02*
G01*
X95863871Y-63131223D01*
X95863871Y-62651223D01*
X96193871Y-62891223D01*
G37*
D12*
%TO.C,J1*%
X98066154Y-61520512D02*
G75*
G03*
X91826154Y-61520512I-3120000J0D01*
G01*
X91826154Y-61520512D02*
G75*
G03*
X98066154Y-61520512I3120000J0D01*
G01*
D11*
%TO.C,U1*%
X87343871Y-61591223D02*
X87343871Y-62391223D01*
X87343871Y-61591223D02*
X87343871Y-60791223D01*
X90463871Y-61591223D02*
X90463871Y-62391223D01*
X90463871Y-61591223D02*
X90463871Y-60791223D01*
X87393871Y-62891223D02*
X87063871Y-63131223D01*
X87063871Y-62651223D01*
X87393871Y-62891223D01*
G36*
X87393871Y-62891223D02*
G01*
X87063871Y-63131223D01*
X87063871Y-62651223D01*
X87393871Y-62891223D01*
G37*
D12*
%TO.C,J1*%
X89266154Y-61520512D02*
G75*
G03*
X83026154Y-61520512I-3120000J0D01*
G01*
X83026154Y-61520512D02*
G75*
G03*
X89266154Y-61520512I3120000J0D01*
G01*
D11*
%TO.C,U1*%
X78543871Y-61591223D02*
X78543871Y-62391223D01*
X78543871Y-61591223D02*
X78543871Y-60791223D01*
X81663871Y-61591223D02*
X81663871Y-62391223D01*
X81663871Y-61591223D02*
X81663871Y-60791223D01*
X78593871Y-62891223D02*
X78263871Y-63131223D01*
X78263871Y-62651223D01*
X78593871Y-62891223D01*
G36*
X78593871Y-62891223D02*
G01*
X78263871Y-63131223D01*
X78263871Y-62651223D01*
X78593871Y-62891223D01*
G37*
D12*
%TO.C,J1*%
X80466154Y-61520512D02*
G75*
G03*
X74226154Y-61520512I-3120000J0D01*
G01*
X74226154Y-61520512D02*
G75*
G03*
X80466154Y-61520512I3120000J0D01*
G01*
D11*
%TO.C,U1*%
X148943871Y-52791223D02*
X148943871Y-53591223D01*
X148943871Y-52791223D02*
X148943871Y-51991223D01*
X152063871Y-52791223D02*
X152063871Y-53591223D01*
X152063871Y-52791223D02*
X152063871Y-51991223D01*
X148993871Y-54091223D02*
X148663871Y-54331223D01*
X148663871Y-53851223D01*
X148993871Y-54091223D01*
G36*
X148993871Y-54091223D02*
G01*
X148663871Y-54331223D01*
X148663871Y-53851223D01*
X148993871Y-54091223D01*
G37*
D12*
%TO.C,J1*%
X150866154Y-52720512D02*
G75*
G03*
X144626154Y-52720512I-3120000J0D01*
G01*
X144626154Y-52720512D02*
G75*
G03*
X150866154Y-52720512I3120000J0D01*
G01*
D11*
%TO.C,U1*%
X140143871Y-52791223D02*
X140143871Y-53591223D01*
X140143871Y-52791223D02*
X140143871Y-51991223D01*
X143263871Y-52791223D02*
X143263871Y-53591223D01*
X143263871Y-52791223D02*
X143263871Y-51991223D01*
X140193871Y-54091223D02*
X139863871Y-54331223D01*
X139863871Y-53851223D01*
X140193871Y-54091223D01*
G36*
X140193871Y-54091223D02*
G01*
X139863871Y-54331223D01*
X139863871Y-53851223D01*
X140193871Y-54091223D01*
G37*
D12*
%TO.C,J1*%
X142066154Y-52720512D02*
G75*
G03*
X135826154Y-52720512I-3120000J0D01*
G01*
X135826154Y-52720512D02*
G75*
G03*
X142066154Y-52720512I3120000J0D01*
G01*
D11*
%TO.C,U1*%
X131343871Y-52791223D02*
X131343871Y-53591223D01*
X131343871Y-52791223D02*
X131343871Y-51991223D01*
X134463871Y-52791223D02*
X134463871Y-53591223D01*
X134463871Y-52791223D02*
X134463871Y-51991223D01*
X131393871Y-54091223D02*
X131063871Y-54331223D01*
X131063871Y-53851223D01*
X131393871Y-54091223D01*
G36*
X131393871Y-54091223D02*
G01*
X131063871Y-54331223D01*
X131063871Y-53851223D01*
X131393871Y-54091223D01*
G37*
D12*
%TO.C,J1*%
X133266154Y-52720512D02*
G75*
G03*
X127026154Y-52720512I-3120000J0D01*
G01*
X127026154Y-52720512D02*
G75*
G03*
X133266154Y-52720512I3120000J0D01*
G01*
D11*
%TO.C,U1*%
X122543871Y-52791223D02*
X122543871Y-53591223D01*
X122543871Y-52791223D02*
X122543871Y-51991223D01*
X125663871Y-52791223D02*
X125663871Y-53591223D01*
X125663871Y-52791223D02*
X125663871Y-51991223D01*
X122593871Y-54091223D02*
X122263871Y-54331223D01*
X122263871Y-53851223D01*
X122593871Y-54091223D01*
G36*
X122593871Y-54091223D02*
G01*
X122263871Y-54331223D01*
X122263871Y-53851223D01*
X122593871Y-54091223D01*
G37*
D12*
%TO.C,J1*%
X124466154Y-52720512D02*
G75*
G03*
X118226154Y-52720512I-3120000J0D01*
G01*
X118226154Y-52720512D02*
G75*
G03*
X124466154Y-52720512I3120000J0D01*
G01*
D11*
%TO.C,U1*%
X113743871Y-52791223D02*
X113743871Y-53591223D01*
X113743871Y-52791223D02*
X113743871Y-51991223D01*
X116863871Y-52791223D02*
X116863871Y-53591223D01*
X116863871Y-52791223D02*
X116863871Y-51991223D01*
X113793871Y-54091223D02*
X113463871Y-54331223D01*
X113463871Y-53851223D01*
X113793871Y-54091223D01*
G36*
X113793871Y-54091223D02*
G01*
X113463871Y-54331223D01*
X113463871Y-53851223D01*
X113793871Y-54091223D01*
G37*
D12*
%TO.C,J1*%
X115666154Y-52720512D02*
G75*
G03*
X109426154Y-52720512I-3120000J0D01*
G01*
X109426154Y-52720512D02*
G75*
G03*
X115666154Y-52720512I3120000J0D01*
G01*
D11*
%TO.C,U1*%
X104943871Y-52791223D02*
X104943871Y-53591223D01*
X104943871Y-52791223D02*
X104943871Y-51991223D01*
X108063871Y-52791223D02*
X108063871Y-53591223D01*
X108063871Y-52791223D02*
X108063871Y-51991223D01*
X104993871Y-54091223D02*
X104663871Y-54331223D01*
X104663871Y-53851223D01*
X104993871Y-54091223D01*
G36*
X104993871Y-54091223D02*
G01*
X104663871Y-54331223D01*
X104663871Y-53851223D01*
X104993871Y-54091223D01*
G37*
D12*
%TO.C,J1*%
X106866154Y-52720512D02*
G75*
G03*
X100626154Y-52720512I-3120000J0D01*
G01*
X100626154Y-52720512D02*
G75*
G03*
X106866154Y-52720512I3120000J0D01*
G01*
D11*
%TO.C,U1*%
X96143871Y-52791223D02*
X96143871Y-53591223D01*
X96143871Y-52791223D02*
X96143871Y-51991223D01*
X99263871Y-52791223D02*
X99263871Y-53591223D01*
X99263871Y-52791223D02*
X99263871Y-51991223D01*
X96193871Y-54091223D02*
X95863871Y-54331223D01*
X95863871Y-53851223D01*
X96193871Y-54091223D01*
G36*
X96193871Y-54091223D02*
G01*
X95863871Y-54331223D01*
X95863871Y-53851223D01*
X96193871Y-54091223D01*
G37*
D12*
%TO.C,J1*%
X98066154Y-52720512D02*
G75*
G03*
X91826154Y-52720512I-3120000J0D01*
G01*
X91826154Y-52720512D02*
G75*
G03*
X98066154Y-52720512I3120000J0D01*
G01*
D11*
%TO.C,U1*%
X87343871Y-52791223D02*
X87343871Y-53591223D01*
X87343871Y-52791223D02*
X87343871Y-51991223D01*
X90463871Y-52791223D02*
X90463871Y-53591223D01*
X90463871Y-52791223D02*
X90463871Y-51991223D01*
X87393871Y-54091223D02*
X87063871Y-54331223D01*
X87063871Y-53851223D01*
X87393871Y-54091223D01*
G36*
X87393871Y-54091223D02*
G01*
X87063871Y-54331223D01*
X87063871Y-53851223D01*
X87393871Y-54091223D01*
G37*
D12*
%TO.C,J1*%
X89266154Y-52720512D02*
G75*
G03*
X83026154Y-52720512I-3120000J0D01*
G01*
X83026154Y-52720512D02*
G75*
G03*
X89266154Y-52720512I3120000J0D01*
G01*
X80466154Y-52720512D02*
G75*
G03*
X74226154Y-52720512I-3120000J0D01*
G01*
X74226154Y-52720512D02*
G75*
G03*
X80466154Y-52720512I3120000J0D01*
G01*
D11*
%TO.C,U1*%
X78543871Y-52791223D02*
X78543871Y-53591223D01*
X78543871Y-52791223D02*
X78543871Y-51991223D01*
X81663871Y-52791223D02*
X81663871Y-53591223D01*
X81663871Y-52791223D02*
X81663871Y-51991223D01*
X78593871Y-54091223D02*
X78263871Y-54331223D01*
X78263871Y-53851223D01*
X78593871Y-54091223D01*
G36*
X78593871Y-54091223D02*
G01*
X78263871Y-54331223D01*
X78263871Y-53851223D01*
X78593871Y-54091223D01*
G37*
%TD*%
M02*
