M48
; DRILL file {KiCad 7.0.11+dfsg-1build4} date lun 16 mar 2026 12:17:59
; FORMAT={-:-/ absolute / metric / decimal}
; #@! TF.CreationDate,2026-03-16T12:17:59-05:00
; #@! TF.GenerationSoftware,Kicad,Pcbnew,7.0.11+dfsg-1build4
; #@! TF.FileFunction,NonPlated,1,2,NPTH
FMAT,2
METRIC
; #@! TA.AperFunction,NonPlated,NPTH,ComponentDrill
T1C0.600
%
G90
G05
T1
X73.615Y-52.721
X73.615Y-61.521
X73.615Y-70.321
X73.615Y-79.121
X73.615Y-87.921
X73.615Y-96.721
X73.615Y-105.521
X73.615Y-114.321
X73.615Y-123.121
X77.346Y-48.99
X77.346Y-56.451
X77.346Y-57.79
X77.346Y-65.251
X77.346Y-66.59
X77.346Y-74.051
X77.346Y-75.39
X77.346Y-82.851
X77.346Y-84.19
X77.346Y-91.651
X77.346Y-92.99
X77.346Y-100.451
X77.346Y-101.79
X77.346Y-109.251
X77.346Y-110.59
X77.346Y-118.051
X77.346Y-119.39
X77.346Y-126.851
X82.415Y-52.721
X82.415Y-61.521
X82.415Y-70.321
X82.415Y-79.121
X82.415Y-87.921
X82.415Y-96.721
X82.415Y-105.521
X82.415Y-114.321
X82.415Y-123.121
X86.146Y-48.99
X86.146Y-56.451
X86.146Y-57.79
X86.146Y-65.251
X86.146Y-66.59
X86.146Y-74.051
X86.146Y-75.39
X86.146Y-82.851
X86.146Y-84.19
X86.146Y-91.651
X86.146Y-92.99
X86.146Y-100.451
X86.146Y-101.79
X86.146Y-109.251
X86.146Y-110.59
X86.146Y-118.051
X86.146Y-119.39
X86.146Y-126.851
X91.215Y-52.721
X91.215Y-61.521
X91.215Y-70.321
X91.215Y-79.121
X91.215Y-87.921
X91.215Y-96.721
X91.215Y-105.521
X91.215Y-114.321
X91.215Y-123.121
X94.946Y-48.99
X94.946Y-56.451
X94.946Y-57.79
X94.946Y-65.251
X94.946Y-66.59
X94.946Y-74.051
X94.946Y-75.39
X94.946Y-82.851
X94.946Y-84.19
X94.946Y-91.651
X94.946Y-92.99
X94.946Y-100.451
X94.946Y-101.79
X94.946Y-109.251
X94.946Y-110.59
X94.946Y-118.051
X94.946Y-119.39
X94.946Y-126.851
X100.015Y-52.721
X100.015Y-61.521
X100.015Y-70.321
X100.015Y-79.121
X100.015Y-87.921
X100.015Y-96.721
X100.015Y-105.521
X100.015Y-114.321
X100.015Y-123.121
X103.746Y-48.99
X103.746Y-56.451
X103.746Y-57.79
X103.746Y-65.251
X103.746Y-66.59
X103.746Y-74.051
X103.746Y-75.39
X103.746Y-82.851
X103.746Y-84.19
X103.746Y-91.651
X103.746Y-92.99
X103.746Y-100.451
X103.746Y-101.79
X103.746Y-109.251
X103.746Y-110.59
X103.746Y-118.051
X103.746Y-119.39
X103.746Y-126.851
X108.815Y-52.721
X108.815Y-61.521
X108.815Y-70.321
X108.815Y-79.121
X108.815Y-87.921
X108.815Y-96.721
X108.815Y-105.521
X108.815Y-114.321
X108.815Y-123.121
X112.546Y-48.99
X112.546Y-56.451
X112.546Y-57.79
X112.546Y-65.251
X112.546Y-66.59
X112.546Y-74.051
X112.546Y-75.39
X112.546Y-82.851
X112.546Y-84.19
X112.546Y-91.651
X112.546Y-92.99
X112.546Y-100.451
X112.546Y-101.79
X112.546Y-109.251
X112.546Y-110.59
X112.546Y-118.051
X112.546Y-119.39
X112.546Y-126.851
X117.615Y-52.721
X117.615Y-61.521
X117.615Y-70.321
X117.615Y-79.121
X117.615Y-87.921
X117.615Y-96.721
X117.615Y-105.521
X117.615Y-114.321
X117.615Y-123.121
X121.346Y-48.99
X121.346Y-56.451
X121.346Y-57.79
X121.346Y-65.251
X121.346Y-66.59
X121.346Y-74.051
X121.346Y-75.39
X121.346Y-82.851
X121.346Y-84.19
X121.346Y-91.651
X121.346Y-92.99
X121.346Y-100.451
X121.346Y-101.79
X121.346Y-109.251
X121.346Y-110.59
X121.346Y-118.051
X121.346Y-119.39
X121.346Y-126.851
X126.415Y-52.721
X126.415Y-61.521
X126.415Y-70.321
X126.415Y-79.121
X126.415Y-87.921
X126.415Y-96.721
X126.415Y-105.521
X126.415Y-114.321
X126.415Y-123.121
X130.146Y-48.99
X130.146Y-56.451
X130.146Y-57.79
X130.146Y-65.251
X130.146Y-66.59
X130.146Y-74.051
X130.146Y-75.39
X130.146Y-82.851
X130.146Y-84.19
X130.146Y-91.651
X130.146Y-92.99
X130.146Y-100.451
X130.146Y-101.79
X130.146Y-109.251
X130.146Y-110.59
X130.146Y-118.051
X130.146Y-119.39
X130.146Y-126.851
X135.215Y-52.721
X135.215Y-61.521
X135.215Y-70.321
X135.215Y-79.121
X135.215Y-87.921
X135.215Y-96.721
X135.215Y-105.521
X135.215Y-114.321
X135.215Y-123.121
X138.946Y-48.99
X138.946Y-56.451
X138.946Y-57.79
X138.946Y-65.251
X138.946Y-66.59
X138.946Y-74.051
X138.946Y-75.39
X138.946Y-82.851
X138.946Y-84.19
X138.946Y-91.651
X138.946Y-92.99
X138.946Y-100.451
X138.946Y-101.79
X138.946Y-109.251
X138.946Y-110.59
X138.946Y-118.051
X138.946Y-119.39
X138.946Y-126.851
X144.015Y-52.721
X144.015Y-61.521
X144.015Y-70.321
X144.015Y-79.121
X144.015Y-87.921
X144.015Y-96.721
X144.015Y-105.521
X144.015Y-114.321
X144.015Y-123.121
X147.746Y-48.99
X147.746Y-56.451
X147.746Y-57.79
X147.746Y-65.251
X147.746Y-66.59
X147.746Y-74.051
X147.746Y-75.39
X147.746Y-82.851
X147.746Y-84.19
X147.746Y-91.651
X147.746Y-92.99
X147.746Y-100.451
X147.746Y-101.79
X147.746Y-109.251
X147.746Y-110.59
X147.746Y-118.051
X147.746Y-119.39
X147.746Y-126.851
M30
