M48
; DRILL file {KiCad 7.0.11+dfsg-1build4} date lun 16 mar 2026 12:17:59
; FORMAT={-:-/ absolute / metric / decimal}
; #@! TF.CreationDate,2026-03-16T12:17:59-05:00
; #@! TF.GenerationSoftware,Kicad,Pcbnew,7.0.11+dfsg-1build4
; #@! TF.FileFunction,Plated,1,2,PTH
FMAT,2
METRIC
; #@! TA.AperFunction,Plated,PTH,ComponentDrill
T1C0.500
; #@! TA.AperFunction,Plated,PTH,ComponentDrill
T2C1.120
%
G90
G05
T2
X77.346Y-52.721
X77.346Y-61.521
X77.346Y-70.321
X77.346Y-79.121
X77.346Y-87.921
X77.346Y-96.721
X77.346Y-105.521
X77.346Y-114.321
X77.346Y-123.121
X86.146Y-52.721
X86.146Y-61.521
X86.146Y-70.321
X86.146Y-79.121
X86.146Y-87.921
X86.146Y-96.721
X86.146Y-105.521
X86.146Y-114.321
X86.146Y-123.121
X94.946Y-52.721
X94.946Y-61.521
X94.946Y-70.321
X94.946Y-79.121
X94.946Y-87.921
X94.946Y-96.721
X94.946Y-105.521
X94.946Y-114.321
X94.946Y-123.121
X103.746Y-52.721
X103.746Y-61.521
X103.746Y-70.321
X103.746Y-79.121
X103.746Y-87.921
X103.746Y-96.721
X103.746Y-105.521
X103.746Y-114.321
X103.746Y-123.121
X112.546Y-52.721
X112.546Y-61.521
X112.546Y-70.321
X112.546Y-79.121
X112.546Y-87.921
X112.546Y-96.721
X112.546Y-105.521
X112.546Y-114.321
X112.546Y-123.121
X121.346Y-52.721
X121.346Y-61.521
X121.346Y-70.321
X121.346Y-79.121
X121.346Y-87.921
X121.346Y-96.721
X121.346Y-105.521
X121.346Y-114.321
X121.346Y-123.121
X130.146Y-52.721
X130.146Y-61.521
X130.146Y-70.321
X130.146Y-79.121
X130.146Y-87.921
X130.146Y-96.721
X130.146Y-105.521
X130.146Y-114.321
X130.146Y-123.121
X138.946Y-52.721
X138.946Y-61.521
X138.946Y-70.321
X138.946Y-79.121
X138.946Y-87.921
X138.946Y-96.721
X138.946Y-105.521
X138.946Y-114.321
X138.946Y-123.121
X147.746Y-52.721
X147.746Y-61.521
X147.746Y-70.321
X147.746Y-79.121
X147.746Y-87.921
X147.746Y-96.721
X147.746Y-105.521
X147.746Y-114.321
X147.746Y-123.121
T1
G00X77.846Y-51.141
M15
G01X76.846Y-51.141
M16
G05
G00X77.846Y-54.301
M15
G01X76.846Y-54.301
M16
G05
G00X77.846Y-59.941
M15
G01X76.846Y-59.941
M16
G05
G00X77.846Y-63.101
M15
G01X76.846Y-63.101
M16
G05
G00X77.846Y-68.741
M15
G01X76.846Y-68.741
M16
G05
G00X77.846Y-71.901
M15
G01X76.846Y-71.901
M16
G05
G00X77.846Y-77.541
M15
G01X76.846Y-77.541
M16
G05
G00X77.846Y-80.701
M15
G01X76.846Y-80.701
M16
G05
G00X77.846Y-86.341
M15
G01X76.846Y-86.341
M16
G05
G00X77.846Y-89.501
M15
G01X76.846Y-89.501
M16
G05
G00X77.846Y-95.141
M15
G01X76.846Y-95.141
M16
G05
G00X77.846Y-98.301
M15
G01X76.846Y-98.301
M16
G05
G00X77.846Y-103.941
M15
G01X76.846Y-103.941
M16
G05
G00X77.846Y-107.101
M15
G01X76.846Y-107.101
M16
G05
G00X77.846Y-112.741
M15
G01X76.846Y-112.741
M16
G05
G00X77.846Y-115.901
M15
G01X76.846Y-115.901
M16
G05
G00X77.846Y-121.541
M15
G01X76.846Y-121.541
M16
G05
G00X77.846Y-124.701
M15
G01X76.846Y-124.701
M16
G05
G00X86.646Y-51.141
M15
G01X85.646Y-51.141
M16
G05
G00X86.646Y-54.301
M15
G01X85.646Y-54.301
M16
G05
G00X86.646Y-59.941
M15
G01X85.646Y-59.941
M16
G05
G00X86.646Y-63.101
M15
G01X85.646Y-63.101
M16
G05
G00X86.646Y-68.741
M15
G01X85.646Y-68.741
M16
G05
G00X86.646Y-71.901
M15
G01X85.646Y-71.901
M16
G05
G00X86.646Y-77.541
M15
G01X85.646Y-77.541
M16
G05
G00X86.646Y-80.701
M15
G01X85.646Y-80.701
M16
G05
G00X86.646Y-86.341
M15
G01X85.646Y-86.341
M16
G05
G00X86.646Y-89.501
M15
G01X85.646Y-89.501
M16
G05
G00X86.646Y-95.141
M15
G01X85.646Y-95.141
M16
G05
G00X86.646Y-98.301
M15
G01X85.646Y-98.301
M16
G05
G00X86.646Y-103.941
M15
G01X85.646Y-103.941
M16
G05
G00X86.646Y-107.101
M15
G01X85.646Y-107.101
M16
G05
G00X86.646Y-112.741
M15
G01X85.646Y-112.741
M16
G05
G00X86.646Y-115.901
M15
G01X85.646Y-115.901
M16
G05
G00X86.646Y-121.541
M15
G01X85.646Y-121.541
M16
G05
G00X86.646Y-124.701
M15
G01X85.646Y-124.701
M16
G05
G00X95.446Y-51.141
M15
G01X94.446Y-51.141
M16
G05
G00X95.446Y-54.301
M15
G01X94.446Y-54.301
M16
G05
G00X95.446Y-59.941
M15
G01X94.446Y-59.941
M16
G05
G00X95.446Y-63.101
M15
G01X94.446Y-63.101
M16
G05
G00X95.446Y-68.741
M15
G01X94.446Y-68.741
M16
G05
G00X95.446Y-71.901
M15
G01X94.446Y-71.901
M16
G05
G00X95.446Y-77.541
M15
G01X94.446Y-77.541
M16
G05
G00X95.446Y-80.701
M15
G01X94.446Y-80.701
M16
G05
G00X95.446Y-86.341
M15
G01X94.446Y-86.341
M16
G05
G00X95.446Y-89.501
M15
G01X94.446Y-89.501
M16
G05
G00X95.446Y-95.141
M15
G01X94.446Y-95.141
M16
G05
G00X95.446Y-98.301
M15
G01X94.446Y-98.301
M16
G05
G00X95.446Y-103.941
M15
G01X94.446Y-103.941
M16
G05
G00X95.446Y-107.101
M15
G01X94.446Y-107.101
M16
G05
G00X95.446Y-112.741
M15
G01X94.446Y-112.741
M16
G05
G00X95.446Y-115.901
M15
G01X94.446Y-115.901
M16
G05
G00X95.446Y-121.541
M15
G01X94.446Y-121.541
M16
G05
G00X95.446Y-124.701
M15
G01X94.446Y-124.701
M16
G05
G00X104.246Y-51.141
M15
G01X103.246Y-51.141
M16
G05
G00X104.246Y-54.301
M15
G01X103.246Y-54.301
M16
G05
G00X104.246Y-59.941
M15
G01X103.246Y-59.941
M16
G05
G00X104.246Y-63.101
M15
G01X103.246Y-63.101
M16
G05
G00X104.246Y-68.741
M15
G01X103.246Y-68.741
M16
G05
G00X104.246Y-71.901
M15
G01X103.246Y-71.901
M16
G05
G00X104.246Y-77.541
M15
G01X103.246Y-77.541
M16
G05
G00X104.246Y-80.701
M15
G01X103.246Y-80.701
M16
G05
G00X104.246Y-86.341
M15
G01X103.246Y-86.341
M16
G05
G00X104.246Y-89.501
M15
G01X103.246Y-89.501
M16
G05
G00X104.246Y-95.141
M15
G01X103.246Y-95.141
M16
G05
G00X104.246Y-98.301
M15
G01X103.246Y-98.301
M16
G05
G00X104.246Y-103.941
M15
G01X103.246Y-103.941
M16
G05
G00X104.246Y-107.101
M15
G01X103.246Y-107.101
M16
G05
G00X104.246Y-112.741
M15
G01X103.246Y-112.741
M16
G05
G00X104.246Y-115.901
M15
G01X103.246Y-115.901
M16
G05
G00X104.246Y-121.541
M15
G01X103.246Y-121.541
M16
G05
G00X104.246Y-124.701
M15
G01X103.246Y-124.701
M16
G05
G00X113.046Y-51.141
M15
G01X112.046Y-51.141
M16
G05
G00X113.046Y-54.301
M15
G01X112.046Y-54.301
M16
G05
G00X113.046Y-59.941
M15
G01X112.046Y-59.941
M16
G05
G00X113.046Y-63.101
M15
G01X112.046Y-63.101
M16
G05
G00X113.046Y-68.741
M15
G01X112.046Y-68.741
M16
G05
G00X113.046Y-71.901
M15
G01X112.046Y-71.901
M16
G05
G00X113.046Y-77.541
M15
G01X112.046Y-77.541
M16
G05
G00X113.046Y-80.701
M15
G01X112.046Y-80.701
M16
G05
G00X113.046Y-86.341
M15
G01X112.046Y-86.341
M16
G05
G00X113.046Y-89.501
M15
G01X112.046Y-89.501
M16
G05
G00X113.046Y-95.141
M15
G01X112.046Y-95.141
M16
G05
G00X113.046Y-98.301
M15
G01X112.046Y-98.301
M16
G05
G00X113.046Y-103.941
M15
G01X112.046Y-103.941
M16
G05
G00X113.046Y-107.101
M15
G01X112.046Y-107.101
M16
G05
G00X113.046Y-112.741
M15
G01X112.046Y-112.741
M16
G05
G00X113.046Y-115.901
M15
G01X112.046Y-115.901
M16
G05
G00X113.046Y-121.541
M15
G01X112.046Y-121.541
M16
G05
G00X113.046Y-124.701
M15
G01X112.046Y-124.701
M16
G05
G00X121.846Y-51.141
M15
G01X120.846Y-51.141
M16
G05
G00X121.846Y-54.301
M15
G01X120.846Y-54.301
M16
G05
G00X121.846Y-59.941
M15
G01X120.846Y-59.941
M16
G05
G00X121.846Y-63.101
M15
G01X120.846Y-63.101
M16
G05
G00X121.846Y-68.741
M15
G01X120.846Y-68.741
M16
G05
G00X121.846Y-71.901
M15
G01X120.846Y-71.901
M16
G05
G00X121.846Y-77.541
M15
G01X120.846Y-77.541
M16
G05
G00X121.846Y-80.701
M15
G01X120.846Y-80.701
M16
G05
G00X121.846Y-86.341
M15
G01X120.846Y-86.341
M16
G05
G00X121.846Y-89.501
M15
G01X120.846Y-89.501
M16
G05
G00X121.846Y-95.141
M15
G01X120.846Y-95.141
M16
G05
G00X121.846Y-98.301
M15
G01X120.846Y-98.301
M16
G05
G00X121.846Y-103.941
M15
G01X120.846Y-103.941
M16
G05
G00X121.846Y-107.101
M15
G01X120.846Y-107.101
M16
G05
G00X121.846Y-112.741
M15
G01X120.846Y-112.741
M16
G05
G00X121.846Y-115.901
M15
G01X120.846Y-115.901
M16
G05
G00X121.846Y-121.541
M15
G01X120.846Y-121.541
M16
G05
G00X121.846Y-124.701
M15
G01X120.846Y-124.701
M16
G05
G00X130.646Y-51.141
M15
G01X129.646Y-51.141
M16
G05
G00X130.646Y-54.301
M15
G01X129.646Y-54.301
M16
G05
G00X130.646Y-59.941
M15
G01X129.646Y-59.941
M16
G05
G00X130.646Y-63.101
M15
G01X129.646Y-63.101
M16
G05
G00X130.646Y-68.741
M15
G01X129.646Y-68.741
M16
G05
G00X130.646Y-71.901
M15
G01X129.646Y-71.901
M16
G05
G00X130.646Y-77.541
M15
G01X129.646Y-77.541
M16
G05
G00X130.646Y-80.701
M15
G01X129.646Y-80.701
M16
G05
G00X130.646Y-86.341
M15
G01X129.646Y-86.341
M16
G05
G00X130.646Y-89.501
M15
G01X129.646Y-89.501
M16
G05
G00X130.646Y-95.141
M15
G01X129.646Y-95.141
M16
G05
G00X130.646Y-98.301
M15
G01X129.646Y-98.301
M16
G05
G00X130.646Y-103.941
M15
G01X129.646Y-103.941
M16
G05
G00X130.646Y-107.101
M15
G01X129.646Y-107.101
M16
G05
G00X130.646Y-112.741
M15
G01X129.646Y-112.741
M16
G05
G00X130.646Y-115.901
M15
G01X129.646Y-115.901
M16
G05
G00X130.646Y-121.541
M15
G01X129.646Y-121.541
M16
G05
G00X130.646Y-124.701
M15
G01X129.646Y-124.701
M16
G05
G00X139.446Y-51.141
M15
G01X138.446Y-51.141
M16
G05
G00X139.446Y-54.301
M15
G01X138.446Y-54.301
M16
G05
G00X139.446Y-59.941
M15
G01X138.446Y-59.941
M16
G05
G00X139.446Y-63.101
M15
G01X138.446Y-63.101
M16
G05
G00X139.446Y-68.741
M15
G01X138.446Y-68.741
M16
G05
G00X139.446Y-71.901
M15
G01X138.446Y-71.901
M16
G05
G00X139.446Y-77.541
M15
G01X138.446Y-77.541
M16
G05
G00X139.446Y-80.701
M15
G01X138.446Y-80.701
M16
G05
G00X139.446Y-86.341
M15
G01X138.446Y-86.341
M16
G05
G00X139.446Y-89.501
M15
G01X138.446Y-89.501
M16
G05
G00X139.446Y-95.141
M15
G01X138.446Y-95.141
M16
G05
G00X139.446Y-98.301
M15
G01X138.446Y-98.301
M16
G05
G00X139.446Y-103.941
M15
G01X138.446Y-103.941
M16
G05
G00X139.446Y-107.101
M15
G01X138.446Y-107.101
M16
G05
G00X139.446Y-112.741
M15
G01X138.446Y-112.741
M16
G05
G00X139.446Y-115.901
M15
G01X138.446Y-115.901
M16
G05
G00X139.446Y-121.541
M15
G01X138.446Y-121.541
M16
G05
G00X139.446Y-124.701
M15
G01X138.446Y-124.701
M16
G05
G00X148.246Y-51.141
M15
G01X147.246Y-51.141
M16
G05
G00X148.246Y-54.301
M15
G01X147.246Y-54.301
M16
G05
G00X148.246Y-59.941
M15
G01X147.246Y-59.941
M16
G05
G00X148.246Y-63.101
M15
G01X147.246Y-63.101
M16
G05
G00X148.246Y-68.741
M15
G01X147.246Y-68.741
M16
G05
G00X148.246Y-71.901
M15
G01X147.246Y-71.901
M16
G05
G00X148.246Y-77.541
M15
G01X147.246Y-77.541
M16
G05
G00X148.246Y-80.701
M15
G01X147.246Y-80.701
M16
G05
G00X148.246Y-86.341
M15
G01X147.246Y-86.341
M16
G05
G00X148.246Y-89.501
M15
G01X147.246Y-89.501
M16
G05
G00X148.246Y-95.141
M15
G01X147.246Y-95.141
M16
G05
G00X148.246Y-98.301
M15
G01X147.246Y-98.301
M16
G05
G00X148.246Y-103.941
M15
G01X147.246Y-103.941
M16
G05
G00X148.246Y-107.101
M15
G01X147.246Y-107.101
M16
G05
G00X148.246Y-112.741
M15
G01X147.246Y-112.741
M16
G05
G00X148.246Y-115.901
M15
G01X147.246Y-115.901
M16
G05
G00X148.246Y-121.541
M15
G01X147.246Y-121.541
M16
G05
G00X148.246Y-124.701
M15
G01X147.246Y-124.701
M16
G05
M30
