%TF.GenerationSoftware,KiCad,Pcbnew,7.0.11+dfsg-1build4*%
%TF.CreationDate,2026-03-17T20:00:38-05:00*%
%TF.ProjectId,,58585858-5858-4585-9858-585858585858,rev?*%
%TF.SameCoordinates,Original*%
%TF.FileFunction,Legend,Bot*%
%TF.FilePolarity,Positive*%
%FSLAX46Y46*%
G04 Gerber Fmt 4.6, Leading zero omitted, Abs format (unit mm)*
G04 Created by KiCad (PCBNEW 7.0.11+dfsg-1build4) date 2026-03-17 20:00:38*
%MOMM*%
%LPD*%
G01*
G04 APERTURE LIST*
%ADD10C,0.200000*%
G04 APERTURE END LIST*
D10*
X122288304Y-124067945D02*
X123088304Y-124067945D01*
X123088304Y-124067945D02*
X122516876Y-123801279D01*
X122516876Y-123801279D02*
X123088304Y-123534612D01*
X123088304Y-123534612D02*
X122288304Y-123534612D01*
X123088304Y-123001278D02*
X123088304Y-122848897D01*
X123088304Y-122848897D02*
X123050209Y-122772707D01*
X123050209Y-122772707D02*
X122974019Y-122696516D01*
X122974019Y-122696516D02*
X122821638Y-122658421D01*
X122821638Y-122658421D02*
X122554971Y-122658421D01*
X122554971Y-122658421D02*
X122402590Y-122696516D01*
X122402590Y-122696516D02*
X122326400Y-122772707D01*
X122326400Y-122772707D02*
X122288304Y-122848897D01*
X122288304Y-122848897D02*
X122288304Y-123001278D01*
X122288304Y-123001278D02*
X122326400Y-123077469D01*
X122326400Y-123077469D02*
X122402590Y-123153659D01*
X122402590Y-123153659D02*
X122554971Y-123191755D01*
X122554971Y-123191755D02*
X122821638Y-123191755D01*
X122821638Y-123191755D02*
X122974019Y-123153659D01*
X122974019Y-123153659D02*
X123050209Y-123077469D01*
X123050209Y-123077469D02*
X123088304Y-123001278D01*
X123088304Y-122429850D02*
X123088304Y-121972707D01*
X122288304Y-122201279D02*
X123088304Y-122201279D01*
X123088304Y-121553659D02*
X123088304Y-121401278D01*
X123088304Y-121401278D02*
X123050209Y-121325088D01*
X123050209Y-121325088D02*
X122974019Y-121248897D01*
X122974019Y-121248897D02*
X122821638Y-121210802D01*
X122821638Y-121210802D02*
X122554971Y-121210802D01*
X122554971Y-121210802D02*
X122402590Y-121248897D01*
X122402590Y-121248897D02*
X122326400Y-121325088D01*
X122326400Y-121325088D02*
X122288304Y-121401278D01*
X122288304Y-121401278D02*
X122288304Y-121553659D01*
X122288304Y-121553659D02*
X122326400Y-121629850D01*
X122326400Y-121629850D02*
X122402590Y-121706040D01*
X122402590Y-121706040D02*
X122554971Y-121744136D01*
X122554971Y-121744136D02*
X122821638Y-121744136D01*
X122821638Y-121744136D02*
X122974019Y-121706040D01*
X122974019Y-121706040D02*
X123050209Y-121629850D01*
X123050209Y-121629850D02*
X123088304Y-121553659D01*
X122288304Y-120410802D02*
X122669257Y-120677469D01*
X122288304Y-120867945D02*
X123088304Y-120867945D01*
X123088304Y-120867945D02*
X123088304Y-120563183D01*
X123088304Y-120563183D02*
X123050209Y-120486993D01*
X123050209Y-120486993D02*
X123012114Y-120448898D01*
X123012114Y-120448898D02*
X122935923Y-120410802D01*
X122935923Y-120410802D02*
X122821638Y-120410802D01*
X122821638Y-120410802D02*
X122745447Y-120448898D01*
X122745447Y-120448898D02*
X122707352Y-120486993D01*
X122707352Y-120486993D02*
X122669257Y-120563183D01*
X122669257Y-120563183D02*
X122669257Y-120867945D01*
X105563898Y-117804790D02*
X105640088Y-117766695D01*
X105640088Y-117766695D02*
X105754374Y-117766695D01*
X105754374Y-117766695D02*
X105868660Y-117804790D01*
X105868660Y-117804790D02*
X105944850Y-117880980D01*
X105944850Y-117880980D02*
X105982945Y-117957171D01*
X105982945Y-117957171D02*
X106021041Y-118109552D01*
X106021041Y-118109552D02*
X106021041Y-118223838D01*
X106021041Y-118223838D02*
X105982945Y-118376219D01*
X105982945Y-118376219D02*
X105944850Y-118452409D01*
X105944850Y-118452409D02*
X105868660Y-118528600D01*
X105868660Y-118528600D02*
X105754374Y-118566695D01*
X105754374Y-118566695D02*
X105678183Y-118566695D01*
X105678183Y-118566695D02*
X105563898Y-118528600D01*
X105563898Y-118528600D02*
X105525802Y-118490504D01*
X105525802Y-118490504D02*
X105525802Y-118223838D01*
X105525802Y-118223838D02*
X105678183Y-118223838D01*
X105182945Y-118566695D02*
X105182945Y-117766695D01*
X105182945Y-117766695D02*
X104725802Y-118566695D01*
X104725802Y-118566695D02*
X104725802Y-117766695D01*
X104344850Y-118566695D02*
X104344850Y-117766695D01*
X104344850Y-117766695D02*
X104154374Y-117766695D01*
X104154374Y-117766695D02*
X104040088Y-117804790D01*
X104040088Y-117804790D02*
X103963898Y-117880980D01*
X103963898Y-117880980D02*
X103925803Y-117957171D01*
X103925803Y-117957171D02*
X103887707Y-118109552D01*
X103887707Y-118109552D02*
X103887707Y-118223838D01*
X103887707Y-118223838D02*
X103925803Y-118376219D01*
X103925803Y-118376219D02*
X103963898Y-118452409D01*
X103963898Y-118452409D02*
X104040088Y-118528600D01*
X104040088Y-118528600D02*
X104154374Y-118566695D01*
X104154374Y-118566695D02*
X104344850Y-118566695D01*
X134391400Y-103151041D02*
X134353304Y-103036755D01*
X134353304Y-103036755D02*
X134353304Y-102846279D01*
X134353304Y-102846279D02*
X134391400Y-102770088D01*
X134391400Y-102770088D02*
X134429495Y-102731993D01*
X134429495Y-102731993D02*
X134505685Y-102693898D01*
X134505685Y-102693898D02*
X134581876Y-102693898D01*
X134581876Y-102693898D02*
X134658066Y-102731993D01*
X134658066Y-102731993D02*
X134696161Y-102770088D01*
X134696161Y-102770088D02*
X134734257Y-102846279D01*
X134734257Y-102846279D02*
X134772352Y-102998660D01*
X134772352Y-102998660D02*
X134810447Y-103074850D01*
X134810447Y-103074850D02*
X134848542Y-103112945D01*
X134848542Y-103112945D02*
X134924733Y-103151041D01*
X134924733Y-103151041D02*
X135000923Y-103151041D01*
X135000923Y-103151041D02*
X135077114Y-103112945D01*
X135077114Y-103112945D02*
X135115209Y-103074850D01*
X135115209Y-103074850D02*
X135153304Y-102998660D01*
X135153304Y-102998660D02*
X135153304Y-102808183D01*
X135153304Y-102808183D02*
X135115209Y-102693898D01*
X135153304Y-102427231D02*
X134353304Y-102236755D01*
X134353304Y-102236755D02*
X134924733Y-102084374D01*
X134924733Y-102084374D02*
X134353304Y-101931993D01*
X134353304Y-101931993D02*
X135153304Y-101741517D01*
X134353304Y-101436754D02*
X135153304Y-101436754D01*
X135153304Y-100903421D02*
X135153304Y-100751040D01*
X135153304Y-100751040D02*
X135115209Y-100674850D01*
X135115209Y-100674850D02*
X135039019Y-100598659D01*
X135039019Y-100598659D02*
X134886638Y-100560564D01*
X134886638Y-100560564D02*
X134619971Y-100560564D01*
X134619971Y-100560564D02*
X134467590Y-100598659D01*
X134467590Y-100598659D02*
X134391400Y-100674850D01*
X134391400Y-100674850D02*
X134353304Y-100751040D01*
X134353304Y-100751040D02*
X134353304Y-100903421D01*
X134353304Y-100903421D02*
X134391400Y-100979612D01*
X134391400Y-100979612D02*
X134467590Y-101055802D01*
X134467590Y-101055802D02*
X134619971Y-101093898D01*
X134619971Y-101093898D02*
X134886638Y-101093898D01*
X134886638Y-101093898D02*
X135039019Y-101055802D01*
X135039019Y-101055802D02*
X135115209Y-100979612D01*
X135115209Y-100979612D02*
X135153304Y-100903421D01*
X130670209Y-123648898D02*
X130708304Y-123725088D01*
X130708304Y-123725088D02*
X130708304Y-123839374D01*
X130708304Y-123839374D02*
X130670209Y-123953660D01*
X130670209Y-123953660D02*
X130594019Y-124029850D01*
X130594019Y-124029850D02*
X130517828Y-124067945D01*
X130517828Y-124067945D02*
X130365447Y-124106041D01*
X130365447Y-124106041D02*
X130251161Y-124106041D01*
X130251161Y-124106041D02*
X130098780Y-124067945D01*
X130098780Y-124067945D02*
X130022590Y-124029850D01*
X130022590Y-124029850D02*
X129946400Y-123953660D01*
X129946400Y-123953660D02*
X129908304Y-123839374D01*
X129908304Y-123839374D02*
X129908304Y-123763183D01*
X129908304Y-123763183D02*
X129946400Y-123648898D01*
X129946400Y-123648898D02*
X129984495Y-123610802D01*
X129984495Y-123610802D02*
X130251161Y-123610802D01*
X130251161Y-123610802D02*
X130251161Y-123763183D01*
X129908304Y-123267945D02*
X130708304Y-123267945D01*
X130708304Y-123267945D02*
X129908304Y-122810802D01*
X129908304Y-122810802D02*
X130708304Y-122810802D01*
X129908304Y-122429850D02*
X130708304Y-122429850D01*
X130708304Y-122429850D02*
X130708304Y-122239374D01*
X130708304Y-122239374D02*
X130670209Y-122125088D01*
X130670209Y-122125088D02*
X130594019Y-122048898D01*
X130594019Y-122048898D02*
X130517828Y-122010803D01*
X130517828Y-122010803D02*
X130365447Y-121972707D01*
X130365447Y-121972707D02*
X130251161Y-121972707D01*
X130251161Y-121972707D02*
X130098780Y-122010803D01*
X130098780Y-122010803D02*
X130022590Y-122048898D01*
X130022590Y-122048898D02*
X129946400Y-122125088D01*
X129946400Y-122125088D02*
X129908304Y-122239374D01*
X129908304Y-122239374D02*
X129908304Y-122429850D01*
X142216041Y-110908600D02*
X142101755Y-110946695D01*
X142101755Y-110946695D02*
X141911279Y-110946695D01*
X141911279Y-110946695D02*
X141835088Y-110908600D01*
X141835088Y-110908600D02*
X141796993Y-110870504D01*
X141796993Y-110870504D02*
X141758898Y-110794314D01*
X141758898Y-110794314D02*
X141758898Y-110718123D01*
X141758898Y-110718123D02*
X141796993Y-110641933D01*
X141796993Y-110641933D02*
X141835088Y-110603838D01*
X141835088Y-110603838D02*
X141911279Y-110565742D01*
X141911279Y-110565742D02*
X142063660Y-110527647D01*
X142063660Y-110527647D02*
X142139850Y-110489552D01*
X142139850Y-110489552D02*
X142177945Y-110451457D01*
X142177945Y-110451457D02*
X142216041Y-110375266D01*
X142216041Y-110375266D02*
X142216041Y-110299076D01*
X142216041Y-110299076D02*
X142177945Y-110222885D01*
X142177945Y-110222885D02*
X142139850Y-110184790D01*
X142139850Y-110184790D02*
X142063660Y-110146695D01*
X142063660Y-110146695D02*
X141873183Y-110146695D01*
X141873183Y-110146695D02*
X141758898Y-110184790D01*
X140958897Y-110870504D02*
X140996993Y-110908600D01*
X140996993Y-110908600D02*
X141111278Y-110946695D01*
X141111278Y-110946695D02*
X141187469Y-110946695D01*
X141187469Y-110946695D02*
X141301755Y-110908600D01*
X141301755Y-110908600D02*
X141377945Y-110832409D01*
X141377945Y-110832409D02*
X141416040Y-110756219D01*
X141416040Y-110756219D02*
X141454136Y-110603838D01*
X141454136Y-110603838D02*
X141454136Y-110489552D01*
X141454136Y-110489552D02*
X141416040Y-110337171D01*
X141416040Y-110337171D02*
X141377945Y-110260980D01*
X141377945Y-110260980D02*
X141301755Y-110184790D01*
X141301755Y-110184790D02*
X141187469Y-110146695D01*
X141187469Y-110146695D02*
X141111278Y-110146695D01*
X141111278Y-110146695D02*
X140996993Y-110184790D01*
X140996993Y-110184790D02*
X140958897Y-110222885D01*
X140235088Y-110946695D02*
X140616040Y-110946695D01*
X140616040Y-110946695D02*
X140616040Y-110146695D01*
X119748304Y-124067945D02*
X120548304Y-124067945D01*
X120548304Y-124067945D02*
X119748304Y-123610802D01*
X119748304Y-123610802D02*
X120548304Y-123610802D01*
X119748304Y-122848898D02*
X119748304Y-123229850D01*
X119748304Y-123229850D02*
X120548304Y-123229850D01*
X120167352Y-122582231D02*
X120167352Y-122315565D01*
X119748304Y-122201279D02*
X119748304Y-122582231D01*
X119748304Y-122582231D02*
X120548304Y-122582231D01*
X120548304Y-122582231D02*
X120548304Y-122201279D01*
X119748304Y-121858421D02*
X120548304Y-121858421D01*
X120548304Y-121858421D02*
X120548304Y-121667945D01*
X120548304Y-121667945D02*
X120510209Y-121553659D01*
X120510209Y-121553659D02*
X120434019Y-121477469D01*
X120434019Y-121477469D02*
X120357828Y-121439374D01*
X120357828Y-121439374D02*
X120205447Y-121401278D01*
X120205447Y-121401278D02*
X120091161Y-121401278D01*
X120091161Y-121401278D02*
X119938780Y-121439374D01*
X119938780Y-121439374D02*
X119862590Y-121477469D01*
X119862590Y-121477469D02*
X119786400Y-121553659D01*
X119786400Y-121553659D02*
X119748304Y-121667945D01*
X119748304Y-121667945D02*
X119748304Y-121858421D01*
X119748304Y-120601278D02*
X120129257Y-120867945D01*
X119748304Y-121058421D02*
X120548304Y-121058421D01*
X120548304Y-121058421D02*
X120548304Y-120753659D01*
X120548304Y-120753659D02*
X120510209Y-120677469D01*
X120510209Y-120677469D02*
X120472114Y-120639374D01*
X120472114Y-120639374D02*
X120395923Y-120601278D01*
X120395923Y-120601278D02*
X120281638Y-120601278D01*
X120281638Y-120601278D02*
X120205447Y-120639374D01*
X120205447Y-120639374D02*
X120167352Y-120677469D01*
X120167352Y-120677469D02*
X120129257Y-120753659D01*
X120129257Y-120753659D02*
X120129257Y-121058421D01*
X142735209Y-102693898D02*
X142773304Y-102770088D01*
X142773304Y-102770088D02*
X142773304Y-102884374D01*
X142773304Y-102884374D02*
X142735209Y-102998660D01*
X142735209Y-102998660D02*
X142659019Y-103074850D01*
X142659019Y-103074850D02*
X142582828Y-103112945D01*
X142582828Y-103112945D02*
X142430447Y-103151041D01*
X142430447Y-103151041D02*
X142316161Y-103151041D01*
X142316161Y-103151041D02*
X142163780Y-103112945D01*
X142163780Y-103112945D02*
X142087590Y-103074850D01*
X142087590Y-103074850D02*
X142011400Y-102998660D01*
X142011400Y-102998660D02*
X141973304Y-102884374D01*
X141973304Y-102884374D02*
X141973304Y-102808183D01*
X141973304Y-102808183D02*
X142011400Y-102693898D01*
X142011400Y-102693898D02*
X142049495Y-102655802D01*
X142049495Y-102655802D02*
X142316161Y-102655802D01*
X142316161Y-102655802D02*
X142316161Y-102808183D01*
X141973304Y-102312945D02*
X142773304Y-102312945D01*
X142773304Y-102312945D02*
X141973304Y-101855802D01*
X141973304Y-101855802D02*
X142773304Y-101855802D01*
X141973304Y-101474850D02*
X142773304Y-101474850D01*
X142773304Y-101474850D02*
X142773304Y-101284374D01*
X142773304Y-101284374D02*
X142735209Y-101170088D01*
X142735209Y-101170088D02*
X142659019Y-101093898D01*
X142659019Y-101093898D02*
X142582828Y-101055803D01*
X142582828Y-101055803D02*
X142430447Y-101017707D01*
X142430447Y-101017707D02*
X142316161Y-101017707D01*
X142316161Y-101017707D02*
X142163780Y-101055803D01*
X142163780Y-101055803D02*
X142087590Y-101093898D01*
X142087590Y-101093898D02*
X142011400Y-101170088D01*
X142011400Y-101170088D02*
X141973304Y-101284374D01*
X141973304Y-101284374D02*
X141973304Y-101474850D01*
X136893304Y-103112945D02*
X137693304Y-103112945D01*
X137693304Y-103112945D02*
X136893304Y-102655802D01*
X136893304Y-102655802D02*
X137693304Y-102655802D01*
X136893304Y-101817707D02*
X137274257Y-102084374D01*
X136893304Y-102274850D02*
X137693304Y-102274850D01*
X137693304Y-102274850D02*
X137693304Y-101970088D01*
X137693304Y-101970088D02*
X137655209Y-101893898D01*
X137655209Y-101893898D02*
X137617114Y-101855803D01*
X137617114Y-101855803D02*
X137540923Y-101817707D01*
X137540923Y-101817707D02*
X137426638Y-101817707D01*
X137426638Y-101817707D02*
X137350447Y-101855803D01*
X137350447Y-101855803D02*
X137312352Y-101893898D01*
X137312352Y-101893898D02*
X137274257Y-101970088D01*
X137274257Y-101970088D02*
X137274257Y-102274850D01*
X136931400Y-101512946D02*
X136893304Y-101398660D01*
X136893304Y-101398660D02*
X136893304Y-101208184D01*
X136893304Y-101208184D02*
X136931400Y-101131993D01*
X136931400Y-101131993D02*
X136969495Y-101093898D01*
X136969495Y-101093898D02*
X137045685Y-101055803D01*
X137045685Y-101055803D02*
X137121876Y-101055803D01*
X137121876Y-101055803D02*
X137198066Y-101093898D01*
X137198066Y-101093898D02*
X137236161Y-101131993D01*
X137236161Y-101131993D02*
X137274257Y-101208184D01*
X137274257Y-101208184D02*
X137312352Y-101360565D01*
X137312352Y-101360565D02*
X137350447Y-101436755D01*
X137350447Y-101436755D02*
X137388542Y-101474850D01*
X137388542Y-101474850D02*
X137464733Y-101512946D01*
X137464733Y-101512946D02*
X137540923Y-101512946D01*
X137540923Y-101512946D02*
X137617114Y-101474850D01*
X137617114Y-101474850D02*
X137655209Y-101436755D01*
X137655209Y-101436755D02*
X137693304Y-101360565D01*
X137693304Y-101360565D02*
X137693304Y-101170088D01*
X137693304Y-101170088D02*
X137655209Y-101055803D01*
X137693304Y-100827231D02*
X137693304Y-100370088D01*
X136893304Y-100598660D02*
X137693304Y-100598660D01*
X117208304Y-124067945D02*
X118008304Y-124067945D01*
X118008304Y-124067945D02*
X117208304Y-123610802D01*
X117208304Y-123610802D02*
X118008304Y-123610802D01*
X117208304Y-122848898D02*
X117208304Y-123229850D01*
X117208304Y-123229850D02*
X118008304Y-123229850D01*
X117627352Y-122582231D02*
X117627352Y-122315565D01*
X117208304Y-122201279D02*
X117208304Y-122582231D01*
X117208304Y-122582231D02*
X118008304Y-122582231D01*
X118008304Y-122582231D02*
X118008304Y-122201279D01*
X117208304Y-121858421D02*
X118008304Y-121858421D01*
X118008304Y-121858421D02*
X118008304Y-121667945D01*
X118008304Y-121667945D02*
X117970209Y-121553659D01*
X117970209Y-121553659D02*
X117894019Y-121477469D01*
X117894019Y-121477469D02*
X117817828Y-121439374D01*
X117817828Y-121439374D02*
X117665447Y-121401278D01*
X117665447Y-121401278D02*
X117551161Y-121401278D01*
X117551161Y-121401278D02*
X117398780Y-121439374D01*
X117398780Y-121439374D02*
X117322590Y-121477469D01*
X117322590Y-121477469D02*
X117246400Y-121553659D01*
X117246400Y-121553659D02*
X117208304Y-121667945D01*
X117208304Y-121667945D02*
X117208304Y-121858421D01*
X117970209Y-120639374D02*
X118008304Y-120715564D01*
X118008304Y-120715564D02*
X118008304Y-120829850D01*
X118008304Y-120829850D02*
X117970209Y-120944136D01*
X117970209Y-120944136D02*
X117894019Y-121020326D01*
X117894019Y-121020326D02*
X117817828Y-121058421D01*
X117817828Y-121058421D02*
X117665447Y-121096517D01*
X117665447Y-121096517D02*
X117551161Y-121096517D01*
X117551161Y-121096517D02*
X117398780Y-121058421D01*
X117398780Y-121058421D02*
X117322590Y-121020326D01*
X117322590Y-121020326D02*
X117246400Y-120944136D01*
X117246400Y-120944136D02*
X117208304Y-120829850D01*
X117208304Y-120829850D02*
X117208304Y-120753659D01*
X117208304Y-120753659D02*
X117246400Y-120639374D01*
X117246400Y-120639374D02*
X117284495Y-120601278D01*
X117284495Y-120601278D02*
X117551161Y-120601278D01*
X117551161Y-120601278D02*
X117551161Y-120753659D01*
X125628304Y-124144136D02*
X124828304Y-123953660D01*
X124828304Y-123953660D02*
X125399733Y-123801279D01*
X125399733Y-123801279D02*
X124828304Y-123648898D01*
X124828304Y-123648898D02*
X125628304Y-123458422D01*
X124828304Y-123153659D02*
X125628304Y-123153659D01*
X124828304Y-122315564D02*
X125209257Y-122582231D01*
X124828304Y-122772707D02*
X125628304Y-122772707D01*
X125628304Y-122772707D02*
X125628304Y-122467945D01*
X125628304Y-122467945D02*
X125590209Y-122391755D01*
X125590209Y-122391755D02*
X125552114Y-122353660D01*
X125552114Y-122353660D02*
X125475923Y-122315564D01*
X125475923Y-122315564D02*
X125361638Y-122315564D01*
X125361638Y-122315564D02*
X125285447Y-122353660D01*
X125285447Y-122353660D02*
X125247352Y-122391755D01*
X125247352Y-122391755D02*
X125209257Y-122467945D01*
X125209257Y-122467945D02*
X125209257Y-122772707D01*
X125247352Y-121972707D02*
X125247352Y-121706041D01*
X124828304Y-121591755D02*
X124828304Y-121972707D01*
X124828304Y-121972707D02*
X125628304Y-121972707D01*
X125628304Y-121972707D02*
X125628304Y-121591755D01*
X124752114Y-121439374D02*
X124752114Y-120829850D01*
X124828304Y-120639373D02*
X125628304Y-120639373D01*
X124828304Y-120258421D02*
X125628304Y-120258421D01*
X125628304Y-120258421D02*
X125628304Y-120067945D01*
X125628304Y-120067945D02*
X125590209Y-119953659D01*
X125590209Y-119953659D02*
X125514019Y-119877469D01*
X125514019Y-119877469D02*
X125437828Y-119839374D01*
X125437828Y-119839374D02*
X125285447Y-119801278D01*
X125285447Y-119801278D02*
X125171161Y-119801278D01*
X125171161Y-119801278D02*
X125018780Y-119839374D01*
X125018780Y-119839374D02*
X124942590Y-119877469D01*
X124942590Y-119877469D02*
X124866400Y-119953659D01*
X124866400Y-119953659D02*
X124828304Y-120067945D01*
X124828304Y-120067945D02*
X124828304Y-120258421D01*
X146837352Y-104116279D02*
X146837352Y-104382945D01*
X146418304Y-104382945D02*
X147218304Y-104382945D01*
X147218304Y-104382945D02*
X147218304Y-104001993D01*
X146418304Y-103240088D02*
X146799257Y-103506755D01*
X146418304Y-103697231D02*
X147218304Y-103697231D01*
X147218304Y-103697231D02*
X147218304Y-103392469D01*
X147218304Y-103392469D02*
X147180209Y-103316279D01*
X147180209Y-103316279D02*
X147142114Y-103278184D01*
X147142114Y-103278184D02*
X147065923Y-103240088D01*
X147065923Y-103240088D02*
X146951638Y-103240088D01*
X146951638Y-103240088D02*
X146875447Y-103278184D01*
X146875447Y-103278184D02*
X146837352Y-103316279D01*
X146837352Y-103316279D02*
X146799257Y-103392469D01*
X146799257Y-103392469D02*
X146799257Y-103697231D01*
X146418304Y-102897231D02*
X147218304Y-102897231D01*
X146837352Y-102516279D02*
X146837352Y-102249613D01*
X146418304Y-102135327D02*
X146418304Y-102516279D01*
X146418304Y-102516279D02*
X147218304Y-102516279D01*
X147218304Y-102516279D02*
X147218304Y-102135327D01*
X146418304Y-101792469D02*
X147218304Y-101792469D01*
X147218304Y-101792469D02*
X146418304Y-101335326D01*
X146418304Y-101335326D02*
X147218304Y-101335326D01*
X146418304Y-100954374D02*
X147218304Y-100954374D01*
X147218304Y-100954374D02*
X147218304Y-100763898D01*
X147218304Y-100763898D02*
X147180209Y-100649612D01*
X147180209Y-100649612D02*
X147104019Y-100573422D01*
X147104019Y-100573422D02*
X147027828Y-100535327D01*
X147027828Y-100535327D02*
X146875447Y-100497231D01*
X146875447Y-100497231D02*
X146761161Y-100497231D01*
X146761161Y-100497231D02*
X146608780Y-100535327D01*
X146608780Y-100535327D02*
X146532590Y-100573422D01*
X146532590Y-100573422D02*
X146456400Y-100649612D01*
X146456400Y-100649612D02*
X146418304Y-100763898D01*
X146418304Y-100763898D02*
X146418304Y-100954374D01*
X146418304Y-99773422D02*
X146418304Y-100154374D01*
X146418304Y-100154374D02*
X147218304Y-100154374D01*
X146799257Y-99354374D02*
X146418304Y-99354374D01*
X147218304Y-99621041D02*
X146799257Y-99354374D01*
X146799257Y-99354374D02*
X147218304Y-99087708D01*
X146837352Y-97944851D02*
X146799257Y-97830565D01*
X146799257Y-97830565D02*
X146761161Y-97792470D01*
X146761161Y-97792470D02*
X146684971Y-97754374D01*
X146684971Y-97754374D02*
X146570685Y-97754374D01*
X146570685Y-97754374D02*
X146494495Y-97792470D01*
X146494495Y-97792470D02*
X146456400Y-97830565D01*
X146456400Y-97830565D02*
X146418304Y-97906755D01*
X146418304Y-97906755D02*
X146418304Y-98211517D01*
X146418304Y-98211517D02*
X147218304Y-98211517D01*
X147218304Y-98211517D02*
X147218304Y-97944851D01*
X147218304Y-97944851D02*
X147180209Y-97868660D01*
X147180209Y-97868660D02*
X147142114Y-97830565D01*
X147142114Y-97830565D02*
X147065923Y-97792470D01*
X147065923Y-97792470D02*
X146989733Y-97792470D01*
X146989733Y-97792470D02*
X146913542Y-97830565D01*
X146913542Y-97830565D02*
X146875447Y-97868660D01*
X146875447Y-97868660D02*
X146837352Y-97944851D01*
X146837352Y-97944851D02*
X146837352Y-98211517D01*
X147218304Y-97259136D02*
X147218304Y-97106755D01*
X147218304Y-97106755D02*
X147180209Y-97030565D01*
X147180209Y-97030565D02*
X147104019Y-96954374D01*
X147104019Y-96954374D02*
X146951638Y-96916279D01*
X146951638Y-96916279D02*
X146684971Y-96916279D01*
X146684971Y-96916279D02*
X146532590Y-96954374D01*
X146532590Y-96954374D02*
X146456400Y-97030565D01*
X146456400Y-97030565D02*
X146418304Y-97106755D01*
X146418304Y-97106755D02*
X146418304Y-97259136D01*
X146418304Y-97259136D02*
X146456400Y-97335327D01*
X146456400Y-97335327D02*
X146532590Y-97411517D01*
X146532590Y-97411517D02*
X146684971Y-97449613D01*
X146684971Y-97449613D02*
X146951638Y-97449613D01*
X146951638Y-97449613D02*
X147104019Y-97411517D01*
X147104019Y-97411517D02*
X147180209Y-97335327D01*
X147180209Y-97335327D02*
X147218304Y-97259136D01*
X146646876Y-96611518D02*
X146646876Y-96230565D01*
X146418304Y-96687708D02*
X147218304Y-96421041D01*
X147218304Y-96421041D02*
X146418304Y-96154375D01*
X146418304Y-95430565D02*
X146799257Y-95697232D01*
X146418304Y-95887708D02*
X147218304Y-95887708D01*
X147218304Y-95887708D02*
X147218304Y-95582946D01*
X147218304Y-95582946D02*
X147180209Y-95506756D01*
X147180209Y-95506756D02*
X147142114Y-95468661D01*
X147142114Y-95468661D02*
X147065923Y-95430565D01*
X147065923Y-95430565D02*
X146951638Y-95430565D01*
X146951638Y-95430565D02*
X146875447Y-95468661D01*
X146875447Y-95468661D02*
X146837352Y-95506756D01*
X146837352Y-95506756D02*
X146799257Y-95582946D01*
X146799257Y-95582946D02*
X146799257Y-95887708D01*
X146418304Y-95087708D02*
X147218304Y-95087708D01*
X147218304Y-95087708D02*
X147218304Y-94897232D01*
X147218304Y-94897232D02*
X147180209Y-94782946D01*
X147180209Y-94782946D02*
X147104019Y-94706756D01*
X147104019Y-94706756D02*
X147027828Y-94668661D01*
X147027828Y-94668661D02*
X146875447Y-94630565D01*
X146875447Y-94630565D02*
X146761161Y-94630565D01*
X146761161Y-94630565D02*
X146608780Y-94668661D01*
X146608780Y-94668661D02*
X146532590Y-94706756D01*
X146532590Y-94706756D02*
X146456400Y-94782946D01*
X146456400Y-94782946D02*
X146418304Y-94897232D01*
X146418304Y-94897232D02*
X146418304Y-95087708D01*
X147180209Y-93259137D02*
X147218304Y-93335327D01*
X147218304Y-93335327D02*
X147218304Y-93449613D01*
X147218304Y-93449613D02*
X147180209Y-93563899D01*
X147180209Y-93563899D02*
X147104019Y-93640089D01*
X147104019Y-93640089D02*
X147027828Y-93678184D01*
X147027828Y-93678184D02*
X146875447Y-93716280D01*
X146875447Y-93716280D02*
X146761161Y-93716280D01*
X146761161Y-93716280D02*
X146608780Y-93678184D01*
X146608780Y-93678184D02*
X146532590Y-93640089D01*
X146532590Y-93640089D02*
X146456400Y-93563899D01*
X146456400Y-93563899D02*
X146418304Y-93449613D01*
X146418304Y-93449613D02*
X146418304Y-93373422D01*
X146418304Y-93373422D02*
X146456400Y-93259137D01*
X146456400Y-93259137D02*
X146494495Y-93221041D01*
X146494495Y-93221041D02*
X146761161Y-93221041D01*
X146761161Y-93221041D02*
X146761161Y-93373422D01*
X146646876Y-92916280D02*
X146646876Y-92535327D01*
X146418304Y-92992470D02*
X147218304Y-92725803D01*
X147218304Y-92725803D02*
X146418304Y-92459137D01*
X146418304Y-92192470D02*
X147218304Y-92192470D01*
X147218304Y-92192470D02*
X146646876Y-91925804D01*
X146646876Y-91925804D02*
X147218304Y-91659137D01*
X147218304Y-91659137D02*
X146418304Y-91659137D01*
X146837352Y-91278184D02*
X146837352Y-91011518D01*
X146418304Y-90897232D02*
X146418304Y-91278184D01*
X146418304Y-91278184D02*
X147218304Y-91278184D01*
X147218304Y-91278184D02*
X147218304Y-90897232D01*
X147218304Y-90059136D02*
X147218304Y-89601993D01*
X146418304Y-89830565D02*
X147218304Y-89830565D01*
X146418304Y-89335326D02*
X147218304Y-89335326D01*
X146418304Y-88573422D02*
X146418304Y-88954374D01*
X146418304Y-88954374D02*
X147218304Y-88954374D01*
X146837352Y-88306755D02*
X146837352Y-88040089D01*
X146418304Y-87925803D02*
X146418304Y-88306755D01*
X146418304Y-88306755D02*
X147218304Y-88306755D01*
X147218304Y-88306755D02*
X147218304Y-87925803D01*
X140233304Y-103189136D02*
X140233304Y-102693898D01*
X140233304Y-102693898D02*
X139928542Y-102960564D01*
X139928542Y-102960564D02*
X139928542Y-102846279D01*
X139928542Y-102846279D02*
X139890447Y-102770088D01*
X139890447Y-102770088D02*
X139852352Y-102731993D01*
X139852352Y-102731993D02*
X139776161Y-102693898D01*
X139776161Y-102693898D02*
X139585685Y-102693898D01*
X139585685Y-102693898D02*
X139509495Y-102731993D01*
X139509495Y-102731993D02*
X139471400Y-102770088D01*
X139471400Y-102770088D02*
X139433304Y-102846279D01*
X139433304Y-102846279D02*
X139433304Y-103074850D01*
X139433304Y-103074850D02*
X139471400Y-103151041D01*
X139471400Y-103151041D02*
X139509495Y-103189136D01*
X139509495Y-102351040D02*
X139471400Y-102312945D01*
X139471400Y-102312945D02*
X139433304Y-102351040D01*
X139433304Y-102351040D02*
X139471400Y-102389136D01*
X139471400Y-102389136D02*
X139509495Y-102351040D01*
X139509495Y-102351040D02*
X139433304Y-102351040D01*
X140233304Y-102046279D02*
X140233304Y-101551041D01*
X140233304Y-101551041D02*
X139928542Y-101817707D01*
X139928542Y-101817707D02*
X139928542Y-101703422D01*
X139928542Y-101703422D02*
X139890447Y-101627231D01*
X139890447Y-101627231D02*
X139852352Y-101589136D01*
X139852352Y-101589136D02*
X139776161Y-101551041D01*
X139776161Y-101551041D02*
X139585685Y-101551041D01*
X139585685Y-101551041D02*
X139509495Y-101589136D01*
X139509495Y-101589136D02*
X139471400Y-101627231D01*
X139471400Y-101627231D02*
X139433304Y-101703422D01*
X139433304Y-101703422D02*
X139433304Y-101931993D01*
X139433304Y-101931993D02*
X139471400Y-102008184D01*
X139471400Y-102008184D02*
X139509495Y-102046279D01*
X140233304Y-101322469D02*
X139433304Y-101055802D01*
X139433304Y-101055802D02*
X140233304Y-100789136D01*
X142254136Y-115226695D02*
X141758898Y-115226695D01*
X141758898Y-115226695D02*
X142025564Y-115531457D01*
X142025564Y-115531457D02*
X141911279Y-115531457D01*
X141911279Y-115531457D02*
X141835088Y-115569552D01*
X141835088Y-115569552D02*
X141796993Y-115607647D01*
X141796993Y-115607647D02*
X141758898Y-115683838D01*
X141758898Y-115683838D02*
X141758898Y-115874314D01*
X141758898Y-115874314D02*
X141796993Y-115950504D01*
X141796993Y-115950504D02*
X141835088Y-115988600D01*
X141835088Y-115988600D02*
X141911279Y-116026695D01*
X141911279Y-116026695D02*
X142139850Y-116026695D01*
X142139850Y-116026695D02*
X142216041Y-115988600D01*
X142216041Y-115988600D02*
X142254136Y-115950504D01*
X141416040Y-115950504D02*
X141377945Y-115988600D01*
X141377945Y-115988600D02*
X141416040Y-116026695D01*
X141416040Y-116026695D02*
X141454136Y-115988600D01*
X141454136Y-115988600D02*
X141416040Y-115950504D01*
X141416040Y-115950504D02*
X141416040Y-116026695D01*
X141111279Y-115226695D02*
X140616041Y-115226695D01*
X140616041Y-115226695D02*
X140882707Y-115531457D01*
X140882707Y-115531457D02*
X140768422Y-115531457D01*
X140768422Y-115531457D02*
X140692231Y-115569552D01*
X140692231Y-115569552D02*
X140654136Y-115607647D01*
X140654136Y-115607647D02*
X140616041Y-115683838D01*
X140616041Y-115683838D02*
X140616041Y-115874314D01*
X140616041Y-115874314D02*
X140654136Y-115950504D01*
X140654136Y-115950504D02*
X140692231Y-115988600D01*
X140692231Y-115988600D02*
X140768422Y-116026695D01*
X140768422Y-116026695D02*
X140996993Y-116026695D01*
X140996993Y-116026695D02*
X141073184Y-115988600D01*
X141073184Y-115988600D02*
X141111279Y-115950504D01*
X140387469Y-115226695D02*
X140120802Y-116026695D01*
X140120802Y-116026695D02*
X139854136Y-115226695D01*
X128168304Y-124144136D02*
X128168304Y-123648898D01*
X128168304Y-123648898D02*
X127863542Y-123915564D01*
X127863542Y-123915564D02*
X127863542Y-123801279D01*
X127863542Y-123801279D02*
X127825447Y-123725088D01*
X127825447Y-123725088D02*
X127787352Y-123686993D01*
X127787352Y-123686993D02*
X127711161Y-123648898D01*
X127711161Y-123648898D02*
X127520685Y-123648898D01*
X127520685Y-123648898D02*
X127444495Y-123686993D01*
X127444495Y-123686993D02*
X127406400Y-123725088D01*
X127406400Y-123725088D02*
X127368304Y-123801279D01*
X127368304Y-123801279D02*
X127368304Y-124029850D01*
X127368304Y-124029850D02*
X127406400Y-124106041D01*
X127406400Y-124106041D02*
X127444495Y-124144136D01*
X127444495Y-123306040D02*
X127406400Y-123267945D01*
X127406400Y-123267945D02*
X127368304Y-123306040D01*
X127368304Y-123306040D02*
X127406400Y-123344136D01*
X127406400Y-123344136D02*
X127444495Y-123306040D01*
X127444495Y-123306040D02*
X127368304Y-123306040D01*
X128168304Y-123001279D02*
X128168304Y-122506041D01*
X128168304Y-122506041D02*
X127863542Y-122772707D01*
X127863542Y-122772707D02*
X127863542Y-122658422D01*
X127863542Y-122658422D02*
X127825447Y-122582231D01*
X127825447Y-122582231D02*
X127787352Y-122544136D01*
X127787352Y-122544136D02*
X127711161Y-122506041D01*
X127711161Y-122506041D02*
X127520685Y-122506041D01*
X127520685Y-122506041D02*
X127444495Y-122544136D01*
X127444495Y-122544136D02*
X127406400Y-122582231D01*
X127406400Y-122582231D02*
X127368304Y-122658422D01*
X127368304Y-122658422D02*
X127368304Y-122886993D01*
X127368304Y-122886993D02*
X127406400Y-122963184D01*
X127406400Y-122963184D02*
X127444495Y-123001279D01*
X128168304Y-122277469D02*
X127368304Y-122010802D01*
X127368304Y-122010802D02*
X128168304Y-121744136D01*
X106059136Y-115226695D02*
X105563898Y-115226695D01*
X105563898Y-115226695D02*
X105830564Y-115531457D01*
X105830564Y-115531457D02*
X105716279Y-115531457D01*
X105716279Y-115531457D02*
X105640088Y-115569552D01*
X105640088Y-115569552D02*
X105601993Y-115607647D01*
X105601993Y-115607647D02*
X105563898Y-115683838D01*
X105563898Y-115683838D02*
X105563898Y-115874314D01*
X105563898Y-115874314D02*
X105601993Y-115950504D01*
X105601993Y-115950504D02*
X105640088Y-115988600D01*
X105640088Y-115988600D02*
X105716279Y-116026695D01*
X105716279Y-116026695D02*
X105944850Y-116026695D01*
X105944850Y-116026695D02*
X106021041Y-115988600D01*
X106021041Y-115988600D02*
X106059136Y-115950504D01*
X105221040Y-115950504D02*
X105182945Y-115988600D01*
X105182945Y-115988600D02*
X105221040Y-116026695D01*
X105221040Y-116026695D02*
X105259136Y-115988600D01*
X105259136Y-115988600D02*
X105221040Y-115950504D01*
X105221040Y-115950504D02*
X105221040Y-116026695D01*
X104916279Y-115226695D02*
X104421041Y-115226695D01*
X104421041Y-115226695D02*
X104687707Y-115531457D01*
X104687707Y-115531457D02*
X104573422Y-115531457D01*
X104573422Y-115531457D02*
X104497231Y-115569552D01*
X104497231Y-115569552D02*
X104459136Y-115607647D01*
X104459136Y-115607647D02*
X104421041Y-115683838D01*
X104421041Y-115683838D02*
X104421041Y-115874314D01*
X104421041Y-115874314D02*
X104459136Y-115950504D01*
X104459136Y-115950504D02*
X104497231Y-115988600D01*
X104497231Y-115988600D02*
X104573422Y-116026695D01*
X104573422Y-116026695D02*
X104801993Y-116026695D01*
X104801993Y-116026695D02*
X104878184Y-115988600D01*
X104878184Y-115988600D02*
X104916279Y-115950504D01*
X104192469Y-115226695D02*
X103925802Y-116026695D01*
X103925802Y-116026695D02*
X103659136Y-115226695D01*
X114668304Y-124067945D02*
X115468304Y-124067945D01*
X115468304Y-124067945D02*
X114668304Y-123610802D01*
X114668304Y-123610802D02*
X115468304Y-123610802D01*
X114668304Y-122848898D02*
X114668304Y-123229850D01*
X114668304Y-123229850D02*
X115468304Y-123229850D01*
X115087352Y-122582231D02*
X115087352Y-122315565D01*
X114668304Y-122201279D02*
X114668304Y-122582231D01*
X114668304Y-122582231D02*
X115468304Y-122582231D01*
X115468304Y-122582231D02*
X115468304Y-122201279D01*
X114668304Y-121858421D02*
X115468304Y-121858421D01*
X115468304Y-121858421D02*
X115468304Y-121667945D01*
X115468304Y-121667945D02*
X115430209Y-121553659D01*
X115430209Y-121553659D02*
X115354019Y-121477469D01*
X115354019Y-121477469D02*
X115277828Y-121439374D01*
X115277828Y-121439374D02*
X115125447Y-121401278D01*
X115125447Y-121401278D02*
X115011161Y-121401278D01*
X115011161Y-121401278D02*
X114858780Y-121439374D01*
X114858780Y-121439374D02*
X114782590Y-121477469D01*
X114782590Y-121477469D02*
X114706400Y-121553659D01*
X114706400Y-121553659D02*
X114668304Y-121667945D01*
X114668304Y-121667945D02*
X114668304Y-121858421D01*
X115087352Y-120791755D02*
X115049257Y-120677469D01*
X115049257Y-120677469D02*
X115011161Y-120639374D01*
X115011161Y-120639374D02*
X114934971Y-120601278D01*
X114934971Y-120601278D02*
X114820685Y-120601278D01*
X114820685Y-120601278D02*
X114744495Y-120639374D01*
X114744495Y-120639374D02*
X114706400Y-120677469D01*
X114706400Y-120677469D02*
X114668304Y-120753659D01*
X114668304Y-120753659D02*
X114668304Y-121058421D01*
X114668304Y-121058421D02*
X115468304Y-121058421D01*
X115468304Y-121058421D02*
X115468304Y-120791755D01*
X115468304Y-120791755D02*
X115430209Y-120715564D01*
X115430209Y-120715564D02*
X115392114Y-120677469D01*
X115392114Y-120677469D02*
X115315923Y-120639374D01*
X115315923Y-120639374D02*
X115239733Y-120639374D01*
X115239733Y-120639374D02*
X115163542Y-120677469D01*
X115163542Y-120677469D02*
X115125447Y-120715564D01*
X115125447Y-120715564D02*
X115087352Y-120791755D01*
X115087352Y-120791755D02*
X115087352Y-121058421D01*
X106021041Y-110908600D02*
X105906755Y-110946695D01*
X105906755Y-110946695D02*
X105716279Y-110946695D01*
X105716279Y-110946695D02*
X105640088Y-110908600D01*
X105640088Y-110908600D02*
X105601993Y-110870504D01*
X105601993Y-110870504D02*
X105563898Y-110794314D01*
X105563898Y-110794314D02*
X105563898Y-110718123D01*
X105563898Y-110718123D02*
X105601993Y-110641933D01*
X105601993Y-110641933D02*
X105640088Y-110603838D01*
X105640088Y-110603838D02*
X105716279Y-110565742D01*
X105716279Y-110565742D02*
X105868660Y-110527647D01*
X105868660Y-110527647D02*
X105944850Y-110489552D01*
X105944850Y-110489552D02*
X105982945Y-110451457D01*
X105982945Y-110451457D02*
X106021041Y-110375266D01*
X106021041Y-110375266D02*
X106021041Y-110299076D01*
X106021041Y-110299076D02*
X105982945Y-110222885D01*
X105982945Y-110222885D02*
X105944850Y-110184790D01*
X105944850Y-110184790D02*
X105868660Y-110146695D01*
X105868660Y-110146695D02*
X105678183Y-110146695D01*
X105678183Y-110146695D02*
X105563898Y-110184790D01*
X104763897Y-110870504D02*
X104801993Y-110908600D01*
X104801993Y-110908600D02*
X104916278Y-110946695D01*
X104916278Y-110946695D02*
X104992469Y-110946695D01*
X104992469Y-110946695D02*
X105106755Y-110908600D01*
X105106755Y-110908600D02*
X105182945Y-110832409D01*
X105182945Y-110832409D02*
X105221040Y-110756219D01*
X105221040Y-110756219D02*
X105259136Y-110603838D01*
X105259136Y-110603838D02*
X105259136Y-110489552D01*
X105259136Y-110489552D02*
X105221040Y-110337171D01*
X105221040Y-110337171D02*
X105182945Y-110260980D01*
X105182945Y-110260980D02*
X105106755Y-110184790D01*
X105106755Y-110184790D02*
X104992469Y-110146695D01*
X104992469Y-110146695D02*
X104916278Y-110146695D01*
X104916278Y-110146695D02*
X104801993Y-110184790D01*
X104801993Y-110184790D02*
X104763897Y-110222885D01*
X104040088Y-110946695D02*
X104421040Y-110946695D01*
X104421040Y-110946695D02*
X104421040Y-110146695D01*
X106021041Y-113448600D02*
X105906755Y-113486695D01*
X105906755Y-113486695D02*
X105716279Y-113486695D01*
X105716279Y-113486695D02*
X105640088Y-113448600D01*
X105640088Y-113448600D02*
X105601993Y-113410504D01*
X105601993Y-113410504D02*
X105563898Y-113334314D01*
X105563898Y-113334314D02*
X105563898Y-113258123D01*
X105563898Y-113258123D02*
X105601993Y-113181933D01*
X105601993Y-113181933D02*
X105640088Y-113143838D01*
X105640088Y-113143838D02*
X105716279Y-113105742D01*
X105716279Y-113105742D02*
X105868660Y-113067647D01*
X105868660Y-113067647D02*
X105944850Y-113029552D01*
X105944850Y-113029552D02*
X105982945Y-112991457D01*
X105982945Y-112991457D02*
X106021041Y-112915266D01*
X106021041Y-112915266D02*
X106021041Y-112839076D01*
X106021041Y-112839076D02*
X105982945Y-112762885D01*
X105982945Y-112762885D02*
X105944850Y-112724790D01*
X105944850Y-112724790D02*
X105868660Y-112686695D01*
X105868660Y-112686695D02*
X105678183Y-112686695D01*
X105678183Y-112686695D02*
X105563898Y-112724790D01*
X105221040Y-113486695D02*
X105221040Y-112686695D01*
X105221040Y-112686695D02*
X105030564Y-112686695D01*
X105030564Y-112686695D02*
X104916278Y-112724790D01*
X104916278Y-112724790D02*
X104840088Y-112800980D01*
X104840088Y-112800980D02*
X104801993Y-112877171D01*
X104801993Y-112877171D02*
X104763897Y-113029552D01*
X104763897Y-113029552D02*
X104763897Y-113143838D01*
X104763897Y-113143838D02*
X104801993Y-113296219D01*
X104801993Y-113296219D02*
X104840088Y-113372409D01*
X104840088Y-113372409D02*
X104916278Y-113448600D01*
X104916278Y-113448600D02*
X105030564Y-113486695D01*
X105030564Y-113486695D02*
X105221040Y-113486695D01*
X104459136Y-113258123D02*
X104078183Y-113258123D01*
X104535326Y-113486695D02*
X104268659Y-112686695D01*
X104268659Y-112686695D02*
X104001993Y-113486695D01*
X142216041Y-113448600D02*
X142101755Y-113486695D01*
X142101755Y-113486695D02*
X141911279Y-113486695D01*
X141911279Y-113486695D02*
X141835088Y-113448600D01*
X141835088Y-113448600D02*
X141796993Y-113410504D01*
X141796993Y-113410504D02*
X141758898Y-113334314D01*
X141758898Y-113334314D02*
X141758898Y-113258123D01*
X141758898Y-113258123D02*
X141796993Y-113181933D01*
X141796993Y-113181933D02*
X141835088Y-113143838D01*
X141835088Y-113143838D02*
X141911279Y-113105742D01*
X141911279Y-113105742D02*
X142063660Y-113067647D01*
X142063660Y-113067647D02*
X142139850Y-113029552D01*
X142139850Y-113029552D02*
X142177945Y-112991457D01*
X142177945Y-112991457D02*
X142216041Y-112915266D01*
X142216041Y-112915266D02*
X142216041Y-112839076D01*
X142216041Y-112839076D02*
X142177945Y-112762885D01*
X142177945Y-112762885D02*
X142139850Y-112724790D01*
X142139850Y-112724790D02*
X142063660Y-112686695D01*
X142063660Y-112686695D02*
X141873183Y-112686695D01*
X141873183Y-112686695D02*
X141758898Y-112724790D01*
X141416040Y-113486695D02*
X141416040Y-112686695D01*
X141416040Y-112686695D02*
X141225564Y-112686695D01*
X141225564Y-112686695D02*
X141111278Y-112724790D01*
X141111278Y-112724790D02*
X141035088Y-112800980D01*
X141035088Y-112800980D02*
X140996993Y-112877171D01*
X140996993Y-112877171D02*
X140958897Y-113029552D01*
X140958897Y-113029552D02*
X140958897Y-113143838D01*
X140958897Y-113143838D02*
X140996993Y-113296219D01*
X140996993Y-113296219D02*
X141035088Y-113372409D01*
X141035088Y-113372409D02*
X141111278Y-113448600D01*
X141111278Y-113448600D02*
X141225564Y-113486695D01*
X141225564Y-113486695D02*
X141416040Y-113486695D01*
X140654136Y-113258123D02*
X140273183Y-113258123D01*
X140730326Y-113486695D02*
X140463659Y-112686695D01*
X140463659Y-112686695D02*
X140196993Y-113486695D01*
X141758898Y-117804790D02*
X141835088Y-117766695D01*
X141835088Y-117766695D02*
X141949374Y-117766695D01*
X141949374Y-117766695D02*
X142063660Y-117804790D01*
X142063660Y-117804790D02*
X142139850Y-117880980D01*
X142139850Y-117880980D02*
X142177945Y-117957171D01*
X142177945Y-117957171D02*
X142216041Y-118109552D01*
X142216041Y-118109552D02*
X142216041Y-118223838D01*
X142216041Y-118223838D02*
X142177945Y-118376219D01*
X142177945Y-118376219D02*
X142139850Y-118452409D01*
X142139850Y-118452409D02*
X142063660Y-118528600D01*
X142063660Y-118528600D02*
X141949374Y-118566695D01*
X141949374Y-118566695D02*
X141873183Y-118566695D01*
X141873183Y-118566695D02*
X141758898Y-118528600D01*
X141758898Y-118528600D02*
X141720802Y-118490504D01*
X141720802Y-118490504D02*
X141720802Y-118223838D01*
X141720802Y-118223838D02*
X141873183Y-118223838D01*
X141377945Y-118566695D02*
X141377945Y-117766695D01*
X141377945Y-117766695D02*
X140920802Y-118566695D01*
X140920802Y-118566695D02*
X140920802Y-117766695D01*
X140539850Y-118566695D02*
X140539850Y-117766695D01*
X140539850Y-117766695D02*
X140349374Y-117766695D01*
X140349374Y-117766695D02*
X140235088Y-117804790D01*
X140235088Y-117804790D02*
X140158898Y-117880980D01*
X140158898Y-117880980D02*
X140120803Y-117957171D01*
X140120803Y-117957171D02*
X140082707Y-118109552D01*
X140082707Y-118109552D02*
X140082707Y-118223838D01*
X140082707Y-118223838D02*
X140120803Y-118376219D01*
X140120803Y-118376219D02*
X140158898Y-118452409D01*
X140158898Y-118452409D02*
X140235088Y-118528600D01*
X140235088Y-118528600D02*
X140349374Y-118566695D01*
X140349374Y-118566695D02*
X140539850Y-118566695D01*
X72288304Y-124067945D02*
X73088304Y-124067945D01*
X73088304Y-124067945D02*
X72516876Y-123801279D01*
X72516876Y-123801279D02*
X73088304Y-123534612D01*
X73088304Y-123534612D02*
X72288304Y-123534612D01*
X73088304Y-123001278D02*
X73088304Y-122848897D01*
X73088304Y-122848897D02*
X73050209Y-122772707D01*
X73050209Y-122772707D02*
X72974019Y-122696516D01*
X72974019Y-122696516D02*
X72821638Y-122658421D01*
X72821638Y-122658421D02*
X72554971Y-122658421D01*
X72554971Y-122658421D02*
X72402590Y-122696516D01*
X72402590Y-122696516D02*
X72326400Y-122772707D01*
X72326400Y-122772707D02*
X72288304Y-122848897D01*
X72288304Y-122848897D02*
X72288304Y-123001278D01*
X72288304Y-123001278D02*
X72326400Y-123077469D01*
X72326400Y-123077469D02*
X72402590Y-123153659D01*
X72402590Y-123153659D02*
X72554971Y-123191755D01*
X72554971Y-123191755D02*
X72821638Y-123191755D01*
X72821638Y-123191755D02*
X72974019Y-123153659D01*
X72974019Y-123153659D02*
X73050209Y-123077469D01*
X73050209Y-123077469D02*
X73088304Y-123001278D01*
X73088304Y-122429850D02*
X73088304Y-121972707D01*
X72288304Y-122201279D02*
X73088304Y-122201279D01*
X73088304Y-121553659D02*
X73088304Y-121401278D01*
X73088304Y-121401278D02*
X73050209Y-121325088D01*
X73050209Y-121325088D02*
X72974019Y-121248897D01*
X72974019Y-121248897D02*
X72821638Y-121210802D01*
X72821638Y-121210802D02*
X72554971Y-121210802D01*
X72554971Y-121210802D02*
X72402590Y-121248897D01*
X72402590Y-121248897D02*
X72326400Y-121325088D01*
X72326400Y-121325088D02*
X72288304Y-121401278D01*
X72288304Y-121401278D02*
X72288304Y-121553659D01*
X72288304Y-121553659D02*
X72326400Y-121629850D01*
X72326400Y-121629850D02*
X72402590Y-121706040D01*
X72402590Y-121706040D02*
X72554971Y-121744136D01*
X72554971Y-121744136D02*
X72821638Y-121744136D01*
X72821638Y-121744136D02*
X72974019Y-121706040D01*
X72974019Y-121706040D02*
X73050209Y-121629850D01*
X73050209Y-121629850D02*
X73088304Y-121553659D01*
X72288304Y-120410802D02*
X72669257Y-120677469D01*
X72288304Y-120867945D02*
X73088304Y-120867945D01*
X73088304Y-120867945D02*
X73088304Y-120563183D01*
X73088304Y-120563183D02*
X73050209Y-120486993D01*
X73050209Y-120486993D02*
X73012114Y-120448898D01*
X73012114Y-120448898D02*
X72935923Y-120410802D01*
X72935923Y-120410802D02*
X72821638Y-120410802D01*
X72821638Y-120410802D02*
X72745447Y-120448898D01*
X72745447Y-120448898D02*
X72707352Y-120486993D01*
X72707352Y-120486993D02*
X72669257Y-120563183D01*
X72669257Y-120563183D02*
X72669257Y-120867945D01*
X55563898Y-117804790D02*
X55640088Y-117766695D01*
X55640088Y-117766695D02*
X55754374Y-117766695D01*
X55754374Y-117766695D02*
X55868660Y-117804790D01*
X55868660Y-117804790D02*
X55944850Y-117880980D01*
X55944850Y-117880980D02*
X55982945Y-117957171D01*
X55982945Y-117957171D02*
X56021041Y-118109552D01*
X56021041Y-118109552D02*
X56021041Y-118223838D01*
X56021041Y-118223838D02*
X55982945Y-118376219D01*
X55982945Y-118376219D02*
X55944850Y-118452409D01*
X55944850Y-118452409D02*
X55868660Y-118528600D01*
X55868660Y-118528600D02*
X55754374Y-118566695D01*
X55754374Y-118566695D02*
X55678183Y-118566695D01*
X55678183Y-118566695D02*
X55563898Y-118528600D01*
X55563898Y-118528600D02*
X55525802Y-118490504D01*
X55525802Y-118490504D02*
X55525802Y-118223838D01*
X55525802Y-118223838D02*
X55678183Y-118223838D01*
X55182945Y-118566695D02*
X55182945Y-117766695D01*
X55182945Y-117766695D02*
X54725802Y-118566695D01*
X54725802Y-118566695D02*
X54725802Y-117766695D01*
X54344850Y-118566695D02*
X54344850Y-117766695D01*
X54344850Y-117766695D02*
X54154374Y-117766695D01*
X54154374Y-117766695D02*
X54040088Y-117804790D01*
X54040088Y-117804790D02*
X53963898Y-117880980D01*
X53963898Y-117880980D02*
X53925803Y-117957171D01*
X53925803Y-117957171D02*
X53887707Y-118109552D01*
X53887707Y-118109552D02*
X53887707Y-118223838D01*
X53887707Y-118223838D02*
X53925803Y-118376219D01*
X53925803Y-118376219D02*
X53963898Y-118452409D01*
X53963898Y-118452409D02*
X54040088Y-118528600D01*
X54040088Y-118528600D02*
X54154374Y-118566695D01*
X54154374Y-118566695D02*
X54344850Y-118566695D01*
X84391400Y-103151041D02*
X84353304Y-103036755D01*
X84353304Y-103036755D02*
X84353304Y-102846279D01*
X84353304Y-102846279D02*
X84391400Y-102770088D01*
X84391400Y-102770088D02*
X84429495Y-102731993D01*
X84429495Y-102731993D02*
X84505685Y-102693898D01*
X84505685Y-102693898D02*
X84581876Y-102693898D01*
X84581876Y-102693898D02*
X84658066Y-102731993D01*
X84658066Y-102731993D02*
X84696161Y-102770088D01*
X84696161Y-102770088D02*
X84734257Y-102846279D01*
X84734257Y-102846279D02*
X84772352Y-102998660D01*
X84772352Y-102998660D02*
X84810447Y-103074850D01*
X84810447Y-103074850D02*
X84848542Y-103112945D01*
X84848542Y-103112945D02*
X84924733Y-103151041D01*
X84924733Y-103151041D02*
X85000923Y-103151041D01*
X85000923Y-103151041D02*
X85077114Y-103112945D01*
X85077114Y-103112945D02*
X85115209Y-103074850D01*
X85115209Y-103074850D02*
X85153304Y-102998660D01*
X85153304Y-102998660D02*
X85153304Y-102808183D01*
X85153304Y-102808183D02*
X85115209Y-102693898D01*
X85153304Y-102427231D02*
X84353304Y-102236755D01*
X84353304Y-102236755D02*
X84924733Y-102084374D01*
X84924733Y-102084374D02*
X84353304Y-101931993D01*
X84353304Y-101931993D02*
X85153304Y-101741517D01*
X84353304Y-101436754D02*
X85153304Y-101436754D01*
X85153304Y-100903421D02*
X85153304Y-100751040D01*
X85153304Y-100751040D02*
X85115209Y-100674850D01*
X85115209Y-100674850D02*
X85039019Y-100598659D01*
X85039019Y-100598659D02*
X84886638Y-100560564D01*
X84886638Y-100560564D02*
X84619971Y-100560564D01*
X84619971Y-100560564D02*
X84467590Y-100598659D01*
X84467590Y-100598659D02*
X84391400Y-100674850D01*
X84391400Y-100674850D02*
X84353304Y-100751040D01*
X84353304Y-100751040D02*
X84353304Y-100903421D01*
X84353304Y-100903421D02*
X84391400Y-100979612D01*
X84391400Y-100979612D02*
X84467590Y-101055802D01*
X84467590Y-101055802D02*
X84619971Y-101093898D01*
X84619971Y-101093898D02*
X84886638Y-101093898D01*
X84886638Y-101093898D02*
X85039019Y-101055802D01*
X85039019Y-101055802D02*
X85115209Y-100979612D01*
X85115209Y-100979612D02*
X85153304Y-100903421D01*
X80670209Y-123648898D02*
X80708304Y-123725088D01*
X80708304Y-123725088D02*
X80708304Y-123839374D01*
X80708304Y-123839374D02*
X80670209Y-123953660D01*
X80670209Y-123953660D02*
X80594019Y-124029850D01*
X80594019Y-124029850D02*
X80517828Y-124067945D01*
X80517828Y-124067945D02*
X80365447Y-124106041D01*
X80365447Y-124106041D02*
X80251161Y-124106041D01*
X80251161Y-124106041D02*
X80098780Y-124067945D01*
X80098780Y-124067945D02*
X80022590Y-124029850D01*
X80022590Y-124029850D02*
X79946400Y-123953660D01*
X79946400Y-123953660D02*
X79908304Y-123839374D01*
X79908304Y-123839374D02*
X79908304Y-123763183D01*
X79908304Y-123763183D02*
X79946400Y-123648898D01*
X79946400Y-123648898D02*
X79984495Y-123610802D01*
X79984495Y-123610802D02*
X80251161Y-123610802D01*
X80251161Y-123610802D02*
X80251161Y-123763183D01*
X79908304Y-123267945D02*
X80708304Y-123267945D01*
X80708304Y-123267945D02*
X79908304Y-122810802D01*
X79908304Y-122810802D02*
X80708304Y-122810802D01*
X79908304Y-122429850D02*
X80708304Y-122429850D01*
X80708304Y-122429850D02*
X80708304Y-122239374D01*
X80708304Y-122239374D02*
X80670209Y-122125088D01*
X80670209Y-122125088D02*
X80594019Y-122048898D01*
X80594019Y-122048898D02*
X80517828Y-122010803D01*
X80517828Y-122010803D02*
X80365447Y-121972707D01*
X80365447Y-121972707D02*
X80251161Y-121972707D01*
X80251161Y-121972707D02*
X80098780Y-122010803D01*
X80098780Y-122010803D02*
X80022590Y-122048898D01*
X80022590Y-122048898D02*
X79946400Y-122125088D01*
X79946400Y-122125088D02*
X79908304Y-122239374D01*
X79908304Y-122239374D02*
X79908304Y-122429850D01*
X92216041Y-110908600D02*
X92101755Y-110946695D01*
X92101755Y-110946695D02*
X91911279Y-110946695D01*
X91911279Y-110946695D02*
X91835088Y-110908600D01*
X91835088Y-110908600D02*
X91796993Y-110870504D01*
X91796993Y-110870504D02*
X91758898Y-110794314D01*
X91758898Y-110794314D02*
X91758898Y-110718123D01*
X91758898Y-110718123D02*
X91796993Y-110641933D01*
X91796993Y-110641933D02*
X91835088Y-110603838D01*
X91835088Y-110603838D02*
X91911279Y-110565742D01*
X91911279Y-110565742D02*
X92063660Y-110527647D01*
X92063660Y-110527647D02*
X92139850Y-110489552D01*
X92139850Y-110489552D02*
X92177945Y-110451457D01*
X92177945Y-110451457D02*
X92216041Y-110375266D01*
X92216041Y-110375266D02*
X92216041Y-110299076D01*
X92216041Y-110299076D02*
X92177945Y-110222885D01*
X92177945Y-110222885D02*
X92139850Y-110184790D01*
X92139850Y-110184790D02*
X92063660Y-110146695D01*
X92063660Y-110146695D02*
X91873183Y-110146695D01*
X91873183Y-110146695D02*
X91758898Y-110184790D01*
X90958897Y-110870504D02*
X90996993Y-110908600D01*
X90996993Y-110908600D02*
X91111278Y-110946695D01*
X91111278Y-110946695D02*
X91187469Y-110946695D01*
X91187469Y-110946695D02*
X91301755Y-110908600D01*
X91301755Y-110908600D02*
X91377945Y-110832409D01*
X91377945Y-110832409D02*
X91416040Y-110756219D01*
X91416040Y-110756219D02*
X91454136Y-110603838D01*
X91454136Y-110603838D02*
X91454136Y-110489552D01*
X91454136Y-110489552D02*
X91416040Y-110337171D01*
X91416040Y-110337171D02*
X91377945Y-110260980D01*
X91377945Y-110260980D02*
X91301755Y-110184790D01*
X91301755Y-110184790D02*
X91187469Y-110146695D01*
X91187469Y-110146695D02*
X91111278Y-110146695D01*
X91111278Y-110146695D02*
X90996993Y-110184790D01*
X90996993Y-110184790D02*
X90958897Y-110222885D01*
X90235088Y-110946695D02*
X90616040Y-110946695D01*
X90616040Y-110946695D02*
X90616040Y-110146695D01*
X69748304Y-124067945D02*
X70548304Y-124067945D01*
X70548304Y-124067945D02*
X69748304Y-123610802D01*
X69748304Y-123610802D02*
X70548304Y-123610802D01*
X69748304Y-122848898D02*
X69748304Y-123229850D01*
X69748304Y-123229850D02*
X70548304Y-123229850D01*
X70167352Y-122582231D02*
X70167352Y-122315565D01*
X69748304Y-122201279D02*
X69748304Y-122582231D01*
X69748304Y-122582231D02*
X70548304Y-122582231D01*
X70548304Y-122582231D02*
X70548304Y-122201279D01*
X69748304Y-121858421D02*
X70548304Y-121858421D01*
X70548304Y-121858421D02*
X70548304Y-121667945D01*
X70548304Y-121667945D02*
X70510209Y-121553659D01*
X70510209Y-121553659D02*
X70434019Y-121477469D01*
X70434019Y-121477469D02*
X70357828Y-121439374D01*
X70357828Y-121439374D02*
X70205447Y-121401278D01*
X70205447Y-121401278D02*
X70091161Y-121401278D01*
X70091161Y-121401278D02*
X69938780Y-121439374D01*
X69938780Y-121439374D02*
X69862590Y-121477469D01*
X69862590Y-121477469D02*
X69786400Y-121553659D01*
X69786400Y-121553659D02*
X69748304Y-121667945D01*
X69748304Y-121667945D02*
X69748304Y-121858421D01*
X69748304Y-120601278D02*
X70129257Y-120867945D01*
X69748304Y-121058421D02*
X70548304Y-121058421D01*
X70548304Y-121058421D02*
X70548304Y-120753659D01*
X70548304Y-120753659D02*
X70510209Y-120677469D01*
X70510209Y-120677469D02*
X70472114Y-120639374D01*
X70472114Y-120639374D02*
X70395923Y-120601278D01*
X70395923Y-120601278D02*
X70281638Y-120601278D01*
X70281638Y-120601278D02*
X70205447Y-120639374D01*
X70205447Y-120639374D02*
X70167352Y-120677469D01*
X70167352Y-120677469D02*
X70129257Y-120753659D01*
X70129257Y-120753659D02*
X70129257Y-121058421D01*
X92735209Y-102693898D02*
X92773304Y-102770088D01*
X92773304Y-102770088D02*
X92773304Y-102884374D01*
X92773304Y-102884374D02*
X92735209Y-102998660D01*
X92735209Y-102998660D02*
X92659019Y-103074850D01*
X92659019Y-103074850D02*
X92582828Y-103112945D01*
X92582828Y-103112945D02*
X92430447Y-103151041D01*
X92430447Y-103151041D02*
X92316161Y-103151041D01*
X92316161Y-103151041D02*
X92163780Y-103112945D01*
X92163780Y-103112945D02*
X92087590Y-103074850D01*
X92087590Y-103074850D02*
X92011400Y-102998660D01*
X92011400Y-102998660D02*
X91973304Y-102884374D01*
X91973304Y-102884374D02*
X91973304Y-102808183D01*
X91973304Y-102808183D02*
X92011400Y-102693898D01*
X92011400Y-102693898D02*
X92049495Y-102655802D01*
X92049495Y-102655802D02*
X92316161Y-102655802D01*
X92316161Y-102655802D02*
X92316161Y-102808183D01*
X91973304Y-102312945D02*
X92773304Y-102312945D01*
X92773304Y-102312945D02*
X91973304Y-101855802D01*
X91973304Y-101855802D02*
X92773304Y-101855802D01*
X91973304Y-101474850D02*
X92773304Y-101474850D01*
X92773304Y-101474850D02*
X92773304Y-101284374D01*
X92773304Y-101284374D02*
X92735209Y-101170088D01*
X92735209Y-101170088D02*
X92659019Y-101093898D01*
X92659019Y-101093898D02*
X92582828Y-101055803D01*
X92582828Y-101055803D02*
X92430447Y-101017707D01*
X92430447Y-101017707D02*
X92316161Y-101017707D01*
X92316161Y-101017707D02*
X92163780Y-101055803D01*
X92163780Y-101055803D02*
X92087590Y-101093898D01*
X92087590Y-101093898D02*
X92011400Y-101170088D01*
X92011400Y-101170088D02*
X91973304Y-101284374D01*
X91973304Y-101284374D02*
X91973304Y-101474850D01*
X86893304Y-103112945D02*
X87693304Y-103112945D01*
X87693304Y-103112945D02*
X86893304Y-102655802D01*
X86893304Y-102655802D02*
X87693304Y-102655802D01*
X86893304Y-101817707D02*
X87274257Y-102084374D01*
X86893304Y-102274850D02*
X87693304Y-102274850D01*
X87693304Y-102274850D02*
X87693304Y-101970088D01*
X87693304Y-101970088D02*
X87655209Y-101893898D01*
X87655209Y-101893898D02*
X87617114Y-101855803D01*
X87617114Y-101855803D02*
X87540923Y-101817707D01*
X87540923Y-101817707D02*
X87426638Y-101817707D01*
X87426638Y-101817707D02*
X87350447Y-101855803D01*
X87350447Y-101855803D02*
X87312352Y-101893898D01*
X87312352Y-101893898D02*
X87274257Y-101970088D01*
X87274257Y-101970088D02*
X87274257Y-102274850D01*
X86931400Y-101512946D02*
X86893304Y-101398660D01*
X86893304Y-101398660D02*
X86893304Y-101208184D01*
X86893304Y-101208184D02*
X86931400Y-101131993D01*
X86931400Y-101131993D02*
X86969495Y-101093898D01*
X86969495Y-101093898D02*
X87045685Y-101055803D01*
X87045685Y-101055803D02*
X87121876Y-101055803D01*
X87121876Y-101055803D02*
X87198066Y-101093898D01*
X87198066Y-101093898D02*
X87236161Y-101131993D01*
X87236161Y-101131993D02*
X87274257Y-101208184D01*
X87274257Y-101208184D02*
X87312352Y-101360565D01*
X87312352Y-101360565D02*
X87350447Y-101436755D01*
X87350447Y-101436755D02*
X87388542Y-101474850D01*
X87388542Y-101474850D02*
X87464733Y-101512946D01*
X87464733Y-101512946D02*
X87540923Y-101512946D01*
X87540923Y-101512946D02*
X87617114Y-101474850D01*
X87617114Y-101474850D02*
X87655209Y-101436755D01*
X87655209Y-101436755D02*
X87693304Y-101360565D01*
X87693304Y-101360565D02*
X87693304Y-101170088D01*
X87693304Y-101170088D02*
X87655209Y-101055803D01*
X87693304Y-100827231D02*
X87693304Y-100370088D01*
X86893304Y-100598660D02*
X87693304Y-100598660D01*
X67208304Y-124067945D02*
X68008304Y-124067945D01*
X68008304Y-124067945D02*
X67208304Y-123610802D01*
X67208304Y-123610802D02*
X68008304Y-123610802D01*
X67208304Y-122848898D02*
X67208304Y-123229850D01*
X67208304Y-123229850D02*
X68008304Y-123229850D01*
X67627352Y-122582231D02*
X67627352Y-122315565D01*
X67208304Y-122201279D02*
X67208304Y-122582231D01*
X67208304Y-122582231D02*
X68008304Y-122582231D01*
X68008304Y-122582231D02*
X68008304Y-122201279D01*
X67208304Y-121858421D02*
X68008304Y-121858421D01*
X68008304Y-121858421D02*
X68008304Y-121667945D01*
X68008304Y-121667945D02*
X67970209Y-121553659D01*
X67970209Y-121553659D02*
X67894019Y-121477469D01*
X67894019Y-121477469D02*
X67817828Y-121439374D01*
X67817828Y-121439374D02*
X67665447Y-121401278D01*
X67665447Y-121401278D02*
X67551161Y-121401278D01*
X67551161Y-121401278D02*
X67398780Y-121439374D01*
X67398780Y-121439374D02*
X67322590Y-121477469D01*
X67322590Y-121477469D02*
X67246400Y-121553659D01*
X67246400Y-121553659D02*
X67208304Y-121667945D01*
X67208304Y-121667945D02*
X67208304Y-121858421D01*
X67970209Y-120639374D02*
X68008304Y-120715564D01*
X68008304Y-120715564D02*
X68008304Y-120829850D01*
X68008304Y-120829850D02*
X67970209Y-120944136D01*
X67970209Y-120944136D02*
X67894019Y-121020326D01*
X67894019Y-121020326D02*
X67817828Y-121058421D01*
X67817828Y-121058421D02*
X67665447Y-121096517D01*
X67665447Y-121096517D02*
X67551161Y-121096517D01*
X67551161Y-121096517D02*
X67398780Y-121058421D01*
X67398780Y-121058421D02*
X67322590Y-121020326D01*
X67322590Y-121020326D02*
X67246400Y-120944136D01*
X67246400Y-120944136D02*
X67208304Y-120829850D01*
X67208304Y-120829850D02*
X67208304Y-120753659D01*
X67208304Y-120753659D02*
X67246400Y-120639374D01*
X67246400Y-120639374D02*
X67284495Y-120601278D01*
X67284495Y-120601278D02*
X67551161Y-120601278D01*
X67551161Y-120601278D02*
X67551161Y-120753659D01*
X75628304Y-124144136D02*
X74828304Y-123953660D01*
X74828304Y-123953660D02*
X75399733Y-123801279D01*
X75399733Y-123801279D02*
X74828304Y-123648898D01*
X74828304Y-123648898D02*
X75628304Y-123458422D01*
X74828304Y-123153659D02*
X75628304Y-123153659D01*
X74828304Y-122315564D02*
X75209257Y-122582231D01*
X74828304Y-122772707D02*
X75628304Y-122772707D01*
X75628304Y-122772707D02*
X75628304Y-122467945D01*
X75628304Y-122467945D02*
X75590209Y-122391755D01*
X75590209Y-122391755D02*
X75552114Y-122353660D01*
X75552114Y-122353660D02*
X75475923Y-122315564D01*
X75475923Y-122315564D02*
X75361638Y-122315564D01*
X75361638Y-122315564D02*
X75285447Y-122353660D01*
X75285447Y-122353660D02*
X75247352Y-122391755D01*
X75247352Y-122391755D02*
X75209257Y-122467945D01*
X75209257Y-122467945D02*
X75209257Y-122772707D01*
X75247352Y-121972707D02*
X75247352Y-121706041D01*
X74828304Y-121591755D02*
X74828304Y-121972707D01*
X74828304Y-121972707D02*
X75628304Y-121972707D01*
X75628304Y-121972707D02*
X75628304Y-121591755D01*
X74752114Y-121439374D02*
X74752114Y-120829850D01*
X74828304Y-120639373D02*
X75628304Y-120639373D01*
X74828304Y-120258421D02*
X75628304Y-120258421D01*
X75628304Y-120258421D02*
X75628304Y-120067945D01*
X75628304Y-120067945D02*
X75590209Y-119953659D01*
X75590209Y-119953659D02*
X75514019Y-119877469D01*
X75514019Y-119877469D02*
X75437828Y-119839374D01*
X75437828Y-119839374D02*
X75285447Y-119801278D01*
X75285447Y-119801278D02*
X75171161Y-119801278D01*
X75171161Y-119801278D02*
X75018780Y-119839374D01*
X75018780Y-119839374D02*
X74942590Y-119877469D01*
X74942590Y-119877469D02*
X74866400Y-119953659D01*
X74866400Y-119953659D02*
X74828304Y-120067945D01*
X74828304Y-120067945D02*
X74828304Y-120258421D01*
X96837352Y-104116279D02*
X96837352Y-104382945D01*
X96418304Y-104382945D02*
X97218304Y-104382945D01*
X97218304Y-104382945D02*
X97218304Y-104001993D01*
X96418304Y-103240088D02*
X96799257Y-103506755D01*
X96418304Y-103697231D02*
X97218304Y-103697231D01*
X97218304Y-103697231D02*
X97218304Y-103392469D01*
X97218304Y-103392469D02*
X97180209Y-103316279D01*
X97180209Y-103316279D02*
X97142114Y-103278184D01*
X97142114Y-103278184D02*
X97065923Y-103240088D01*
X97065923Y-103240088D02*
X96951638Y-103240088D01*
X96951638Y-103240088D02*
X96875447Y-103278184D01*
X96875447Y-103278184D02*
X96837352Y-103316279D01*
X96837352Y-103316279D02*
X96799257Y-103392469D01*
X96799257Y-103392469D02*
X96799257Y-103697231D01*
X96418304Y-102897231D02*
X97218304Y-102897231D01*
X96837352Y-102516279D02*
X96837352Y-102249613D01*
X96418304Y-102135327D02*
X96418304Y-102516279D01*
X96418304Y-102516279D02*
X97218304Y-102516279D01*
X97218304Y-102516279D02*
X97218304Y-102135327D01*
X96418304Y-101792469D02*
X97218304Y-101792469D01*
X97218304Y-101792469D02*
X96418304Y-101335326D01*
X96418304Y-101335326D02*
X97218304Y-101335326D01*
X96418304Y-100954374D02*
X97218304Y-100954374D01*
X97218304Y-100954374D02*
X97218304Y-100763898D01*
X97218304Y-100763898D02*
X97180209Y-100649612D01*
X97180209Y-100649612D02*
X97104019Y-100573422D01*
X97104019Y-100573422D02*
X97027828Y-100535327D01*
X97027828Y-100535327D02*
X96875447Y-100497231D01*
X96875447Y-100497231D02*
X96761161Y-100497231D01*
X96761161Y-100497231D02*
X96608780Y-100535327D01*
X96608780Y-100535327D02*
X96532590Y-100573422D01*
X96532590Y-100573422D02*
X96456400Y-100649612D01*
X96456400Y-100649612D02*
X96418304Y-100763898D01*
X96418304Y-100763898D02*
X96418304Y-100954374D01*
X96418304Y-99773422D02*
X96418304Y-100154374D01*
X96418304Y-100154374D02*
X97218304Y-100154374D01*
X96799257Y-99354374D02*
X96418304Y-99354374D01*
X97218304Y-99621041D02*
X96799257Y-99354374D01*
X96799257Y-99354374D02*
X97218304Y-99087708D01*
X96837352Y-97944851D02*
X96799257Y-97830565D01*
X96799257Y-97830565D02*
X96761161Y-97792470D01*
X96761161Y-97792470D02*
X96684971Y-97754374D01*
X96684971Y-97754374D02*
X96570685Y-97754374D01*
X96570685Y-97754374D02*
X96494495Y-97792470D01*
X96494495Y-97792470D02*
X96456400Y-97830565D01*
X96456400Y-97830565D02*
X96418304Y-97906755D01*
X96418304Y-97906755D02*
X96418304Y-98211517D01*
X96418304Y-98211517D02*
X97218304Y-98211517D01*
X97218304Y-98211517D02*
X97218304Y-97944851D01*
X97218304Y-97944851D02*
X97180209Y-97868660D01*
X97180209Y-97868660D02*
X97142114Y-97830565D01*
X97142114Y-97830565D02*
X97065923Y-97792470D01*
X97065923Y-97792470D02*
X96989733Y-97792470D01*
X96989733Y-97792470D02*
X96913542Y-97830565D01*
X96913542Y-97830565D02*
X96875447Y-97868660D01*
X96875447Y-97868660D02*
X96837352Y-97944851D01*
X96837352Y-97944851D02*
X96837352Y-98211517D01*
X97218304Y-97259136D02*
X97218304Y-97106755D01*
X97218304Y-97106755D02*
X97180209Y-97030565D01*
X97180209Y-97030565D02*
X97104019Y-96954374D01*
X97104019Y-96954374D02*
X96951638Y-96916279D01*
X96951638Y-96916279D02*
X96684971Y-96916279D01*
X96684971Y-96916279D02*
X96532590Y-96954374D01*
X96532590Y-96954374D02*
X96456400Y-97030565D01*
X96456400Y-97030565D02*
X96418304Y-97106755D01*
X96418304Y-97106755D02*
X96418304Y-97259136D01*
X96418304Y-97259136D02*
X96456400Y-97335327D01*
X96456400Y-97335327D02*
X96532590Y-97411517D01*
X96532590Y-97411517D02*
X96684971Y-97449613D01*
X96684971Y-97449613D02*
X96951638Y-97449613D01*
X96951638Y-97449613D02*
X97104019Y-97411517D01*
X97104019Y-97411517D02*
X97180209Y-97335327D01*
X97180209Y-97335327D02*
X97218304Y-97259136D01*
X96646876Y-96611518D02*
X96646876Y-96230565D01*
X96418304Y-96687708D02*
X97218304Y-96421041D01*
X97218304Y-96421041D02*
X96418304Y-96154375D01*
X96418304Y-95430565D02*
X96799257Y-95697232D01*
X96418304Y-95887708D02*
X97218304Y-95887708D01*
X97218304Y-95887708D02*
X97218304Y-95582946D01*
X97218304Y-95582946D02*
X97180209Y-95506756D01*
X97180209Y-95506756D02*
X97142114Y-95468661D01*
X97142114Y-95468661D02*
X97065923Y-95430565D01*
X97065923Y-95430565D02*
X96951638Y-95430565D01*
X96951638Y-95430565D02*
X96875447Y-95468661D01*
X96875447Y-95468661D02*
X96837352Y-95506756D01*
X96837352Y-95506756D02*
X96799257Y-95582946D01*
X96799257Y-95582946D02*
X96799257Y-95887708D01*
X96418304Y-95087708D02*
X97218304Y-95087708D01*
X97218304Y-95087708D02*
X97218304Y-94897232D01*
X97218304Y-94897232D02*
X97180209Y-94782946D01*
X97180209Y-94782946D02*
X97104019Y-94706756D01*
X97104019Y-94706756D02*
X97027828Y-94668661D01*
X97027828Y-94668661D02*
X96875447Y-94630565D01*
X96875447Y-94630565D02*
X96761161Y-94630565D01*
X96761161Y-94630565D02*
X96608780Y-94668661D01*
X96608780Y-94668661D02*
X96532590Y-94706756D01*
X96532590Y-94706756D02*
X96456400Y-94782946D01*
X96456400Y-94782946D02*
X96418304Y-94897232D01*
X96418304Y-94897232D02*
X96418304Y-95087708D01*
X97180209Y-93259137D02*
X97218304Y-93335327D01*
X97218304Y-93335327D02*
X97218304Y-93449613D01*
X97218304Y-93449613D02*
X97180209Y-93563899D01*
X97180209Y-93563899D02*
X97104019Y-93640089D01*
X97104019Y-93640089D02*
X97027828Y-93678184D01*
X97027828Y-93678184D02*
X96875447Y-93716280D01*
X96875447Y-93716280D02*
X96761161Y-93716280D01*
X96761161Y-93716280D02*
X96608780Y-93678184D01*
X96608780Y-93678184D02*
X96532590Y-93640089D01*
X96532590Y-93640089D02*
X96456400Y-93563899D01*
X96456400Y-93563899D02*
X96418304Y-93449613D01*
X96418304Y-93449613D02*
X96418304Y-93373422D01*
X96418304Y-93373422D02*
X96456400Y-93259137D01*
X96456400Y-93259137D02*
X96494495Y-93221041D01*
X96494495Y-93221041D02*
X96761161Y-93221041D01*
X96761161Y-93221041D02*
X96761161Y-93373422D01*
X96646876Y-92916280D02*
X96646876Y-92535327D01*
X96418304Y-92992470D02*
X97218304Y-92725803D01*
X97218304Y-92725803D02*
X96418304Y-92459137D01*
X96418304Y-92192470D02*
X97218304Y-92192470D01*
X97218304Y-92192470D02*
X96646876Y-91925804D01*
X96646876Y-91925804D02*
X97218304Y-91659137D01*
X97218304Y-91659137D02*
X96418304Y-91659137D01*
X96837352Y-91278184D02*
X96837352Y-91011518D01*
X96418304Y-90897232D02*
X96418304Y-91278184D01*
X96418304Y-91278184D02*
X97218304Y-91278184D01*
X97218304Y-91278184D02*
X97218304Y-90897232D01*
X97218304Y-90059136D02*
X97218304Y-89601993D01*
X96418304Y-89830565D02*
X97218304Y-89830565D01*
X96418304Y-89335326D02*
X97218304Y-89335326D01*
X96418304Y-88573422D02*
X96418304Y-88954374D01*
X96418304Y-88954374D02*
X97218304Y-88954374D01*
X96837352Y-88306755D02*
X96837352Y-88040089D01*
X96418304Y-87925803D02*
X96418304Y-88306755D01*
X96418304Y-88306755D02*
X97218304Y-88306755D01*
X97218304Y-88306755D02*
X97218304Y-87925803D01*
X90233304Y-103189136D02*
X90233304Y-102693898D01*
X90233304Y-102693898D02*
X89928542Y-102960564D01*
X89928542Y-102960564D02*
X89928542Y-102846279D01*
X89928542Y-102846279D02*
X89890447Y-102770088D01*
X89890447Y-102770088D02*
X89852352Y-102731993D01*
X89852352Y-102731993D02*
X89776161Y-102693898D01*
X89776161Y-102693898D02*
X89585685Y-102693898D01*
X89585685Y-102693898D02*
X89509495Y-102731993D01*
X89509495Y-102731993D02*
X89471400Y-102770088D01*
X89471400Y-102770088D02*
X89433304Y-102846279D01*
X89433304Y-102846279D02*
X89433304Y-103074850D01*
X89433304Y-103074850D02*
X89471400Y-103151041D01*
X89471400Y-103151041D02*
X89509495Y-103189136D01*
X89509495Y-102351040D02*
X89471400Y-102312945D01*
X89471400Y-102312945D02*
X89433304Y-102351040D01*
X89433304Y-102351040D02*
X89471400Y-102389136D01*
X89471400Y-102389136D02*
X89509495Y-102351040D01*
X89509495Y-102351040D02*
X89433304Y-102351040D01*
X90233304Y-102046279D02*
X90233304Y-101551041D01*
X90233304Y-101551041D02*
X89928542Y-101817707D01*
X89928542Y-101817707D02*
X89928542Y-101703422D01*
X89928542Y-101703422D02*
X89890447Y-101627231D01*
X89890447Y-101627231D02*
X89852352Y-101589136D01*
X89852352Y-101589136D02*
X89776161Y-101551041D01*
X89776161Y-101551041D02*
X89585685Y-101551041D01*
X89585685Y-101551041D02*
X89509495Y-101589136D01*
X89509495Y-101589136D02*
X89471400Y-101627231D01*
X89471400Y-101627231D02*
X89433304Y-101703422D01*
X89433304Y-101703422D02*
X89433304Y-101931993D01*
X89433304Y-101931993D02*
X89471400Y-102008184D01*
X89471400Y-102008184D02*
X89509495Y-102046279D01*
X90233304Y-101322469D02*
X89433304Y-101055802D01*
X89433304Y-101055802D02*
X90233304Y-100789136D01*
X92254136Y-115226695D02*
X91758898Y-115226695D01*
X91758898Y-115226695D02*
X92025564Y-115531457D01*
X92025564Y-115531457D02*
X91911279Y-115531457D01*
X91911279Y-115531457D02*
X91835088Y-115569552D01*
X91835088Y-115569552D02*
X91796993Y-115607647D01*
X91796993Y-115607647D02*
X91758898Y-115683838D01*
X91758898Y-115683838D02*
X91758898Y-115874314D01*
X91758898Y-115874314D02*
X91796993Y-115950504D01*
X91796993Y-115950504D02*
X91835088Y-115988600D01*
X91835088Y-115988600D02*
X91911279Y-116026695D01*
X91911279Y-116026695D02*
X92139850Y-116026695D01*
X92139850Y-116026695D02*
X92216041Y-115988600D01*
X92216041Y-115988600D02*
X92254136Y-115950504D01*
X91416040Y-115950504D02*
X91377945Y-115988600D01*
X91377945Y-115988600D02*
X91416040Y-116026695D01*
X91416040Y-116026695D02*
X91454136Y-115988600D01*
X91454136Y-115988600D02*
X91416040Y-115950504D01*
X91416040Y-115950504D02*
X91416040Y-116026695D01*
X91111279Y-115226695D02*
X90616041Y-115226695D01*
X90616041Y-115226695D02*
X90882707Y-115531457D01*
X90882707Y-115531457D02*
X90768422Y-115531457D01*
X90768422Y-115531457D02*
X90692231Y-115569552D01*
X90692231Y-115569552D02*
X90654136Y-115607647D01*
X90654136Y-115607647D02*
X90616041Y-115683838D01*
X90616041Y-115683838D02*
X90616041Y-115874314D01*
X90616041Y-115874314D02*
X90654136Y-115950504D01*
X90654136Y-115950504D02*
X90692231Y-115988600D01*
X90692231Y-115988600D02*
X90768422Y-116026695D01*
X90768422Y-116026695D02*
X90996993Y-116026695D01*
X90996993Y-116026695D02*
X91073184Y-115988600D01*
X91073184Y-115988600D02*
X91111279Y-115950504D01*
X90387469Y-115226695D02*
X90120802Y-116026695D01*
X90120802Y-116026695D02*
X89854136Y-115226695D01*
X78168304Y-124144136D02*
X78168304Y-123648898D01*
X78168304Y-123648898D02*
X77863542Y-123915564D01*
X77863542Y-123915564D02*
X77863542Y-123801279D01*
X77863542Y-123801279D02*
X77825447Y-123725088D01*
X77825447Y-123725088D02*
X77787352Y-123686993D01*
X77787352Y-123686993D02*
X77711161Y-123648898D01*
X77711161Y-123648898D02*
X77520685Y-123648898D01*
X77520685Y-123648898D02*
X77444495Y-123686993D01*
X77444495Y-123686993D02*
X77406400Y-123725088D01*
X77406400Y-123725088D02*
X77368304Y-123801279D01*
X77368304Y-123801279D02*
X77368304Y-124029850D01*
X77368304Y-124029850D02*
X77406400Y-124106041D01*
X77406400Y-124106041D02*
X77444495Y-124144136D01*
X77444495Y-123306040D02*
X77406400Y-123267945D01*
X77406400Y-123267945D02*
X77368304Y-123306040D01*
X77368304Y-123306040D02*
X77406400Y-123344136D01*
X77406400Y-123344136D02*
X77444495Y-123306040D01*
X77444495Y-123306040D02*
X77368304Y-123306040D01*
X78168304Y-123001279D02*
X78168304Y-122506041D01*
X78168304Y-122506041D02*
X77863542Y-122772707D01*
X77863542Y-122772707D02*
X77863542Y-122658422D01*
X77863542Y-122658422D02*
X77825447Y-122582231D01*
X77825447Y-122582231D02*
X77787352Y-122544136D01*
X77787352Y-122544136D02*
X77711161Y-122506041D01*
X77711161Y-122506041D02*
X77520685Y-122506041D01*
X77520685Y-122506041D02*
X77444495Y-122544136D01*
X77444495Y-122544136D02*
X77406400Y-122582231D01*
X77406400Y-122582231D02*
X77368304Y-122658422D01*
X77368304Y-122658422D02*
X77368304Y-122886993D01*
X77368304Y-122886993D02*
X77406400Y-122963184D01*
X77406400Y-122963184D02*
X77444495Y-123001279D01*
X78168304Y-122277469D02*
X77368304Y-122010802D01*
X77368304Y-122010802D02*
X78168304Y-121744136D01*
X56059136Y-115226695D02*
X55563898Y-115226695D01*
X55563898Y-115226695D02*
X55830564Y-115531457D01*
X55830564Y-115531457D02*
X55716279Y-115531457D01*
X55716279Y-115531457D02*
X55640088Y-115569552D01*
X55640088Y-115569552D02*
X55601993Y-115607647D01*
X55601993Y-115607647D02*
X55563898Y-115683838D01*
X55563898Y-115683838D02*
X55563898Y-115874314D01*
X55563898Y-115874314D02*
X55601993Y-115950504D01*
X55601993Y-115950504D02*
X55640088Y-115988600D01*
X55640088Y-115988600D02*
X55716279Y-116026695D01*
X55716279Y-116026695D02*
X55944850Y-116026695D01*
X55944850Y-116026695D02*
X56021041Y-115988600D01*
X56021041Y-115988600D02*
X56059136Y-115950504D01*
X55221040Y-115950504D02*
X55182945Y-115988600D01*
X55182945Y-115988600D02*
X55221040Y-116026695D01*
X55221040Y-116026695D02*
X55259136Y-115988600D01*
X55259136Y-115988600D02*
X55221040Y-115950504D01*
X55221040Y-115950504D02*
X55221040Y-116026695D01*
X54916279Y-115226695D02*
X54421041Y-115226695D01*
X54421041Y-115226695D02*
X54687707Y-115531457D01*
X54687707Y-115531457D02*
X54573422Y-115531457D01*
X54573422Y-115531457D02*
X54497231Y-115569552D01*
X54497231Y-115569552D02*
X54459136Y-115607647D01*
X54459136Y-115607647D02*
X54421041Y-115683838D01*
X54421041Y-115683838D02*
X54421041Y-115874314D01*
X54421041Y-115874314D02*
X54459136Y-115950504D01*
X54459136Y-115950504D02*
X54497231Y-115988600D01*
X54497231Y-115988600D02*
X54573422Y-116026695D01*
X54573422Y-116026695D02*
X54801993Y-116026695D01*
X54801993Y-116026695D02*
X54878184Y-115988600D01*
X54878184Y-115988600D02*
X54916279Y-115950504D01*
X54192469Y-115226695D02*
X53925802Y-116026695D01*
X53925802Y-116026695D02*
X53659136Y-115226695D01*
X64668304Y-124067945D02*
X65468304Y-124067945D01*
X65468304Y-124067945D02*
X64668304Y-123610802D01*
X64668304Y-123610802D02*
X65468304Y-123610802D01*
X64668304Y-122848898D02*
X64668304Y-123229850D01*
X64668304Y-123229850D02*
X65468304Y-123229850D01*
X65087352Y-122582231D02*
X65087352Y-122315565D01*
X64668304Y-122201279D02*
X64668304Y-122582231D01*
X64668304Y-122582231D02*
X65468304Y-122582231D01*
X65468304Y-122582231D02*
X65468304Y-122201279D01*
X64668304Y-121858421D02*
X65468304Y-121858421D01*
X65468304Y-121858421D02*
X65468304Y-121667945D01*
X65468304Y-121667945D02*
X65430209Y-121553659D01*
X65430209Y-121553659D02*
X65354019Y-121477469D01*
X65354019Y-121477469D02*
X65277828Y-121439374D01*
X65277828Y-121439374D02*
X65125447Y-121401278D01*
X65125447Y-121401278D02*
X65011161Y-121401278D01*
X65011161Y-121401278D02*
X64858780Y-121439374D01*
X64858780Y-121439374D02*
X64782590Y-121477469D01*
X64782590Y-121477469D02*
X64706400Y-121553659D01*
X64706400Y-121553659D02*
X64668304Y-121667945D01*
X64668304Y-121667945D02*
X64668304Y-121858421D01*
X65087352Y-120791755D02*
X65049257Y-120677469D01*
X65049257Y-120677469D02*
X65011161Y-120639374D01*
X65011161Y-120639374D02*
X64934971Y-120601278D01*
X64934971Y-120601278D02*
X64820685Y-120601278D01*
X64820685Y-120601278D02*
X64744495Y-120639374D01*
X64744495Y-120639374D02*
X64706400Y-120677469D01*
X64706400Y-120677469D02*
X64668304Y-120753659D01*
X64668304Y-120753659D02*
X64668304Y-121058421D01*
X64668304Y-121058421D02*
X65468304Y-121058421D01*
X65468304Y-121058421D02*
X65468304Y-120791755D01*
X65468304Y-120791755D02*
X65430209Y-120715564D01*
X65430209Y-120715564D02*
X65392114Y-120677469D01*
X65392114Y-120677469D02*
X65315923Y-120639374D01*
X65315923Y-120639374D02*
X65239733Y-120639374D01*
X65239733Y-120639374D02*
X65163542Y-120677469D01*
X65163542Y-120677469D02*
X65125447Y-120715564D01*
X65125447Y-120715564D02*
X65087352Y-120791755D01*
X65087352Y-120791755D02*
X65087352Y-121058421D01*
X56021041Y-110908600D02*
X55906755Y-110946695D01*
X55906755Y-110946695D02*
X55716279Y-110946695D01*
X55716279Y-110946695D02*
X55640088Y-110908600D01*
X55640088Y-110908600D02*
X55601993Y-110870504D01*
X55601993Y-110870504D02*
X55563898Y-110794314D01*
X55563898Y-110794314D02*
X55563898Y-110718123D01*
X55563898Y-110718123D02*
X55601993Y-110641933D01*
X55601993Y-110641933D02*
X55640088Y-110603838D01*
X55640088Y-110603838D02*
X55716279Y-110565742D01*
X55716279Y-110565742D02*
X55868660Y-110527647D01*
X55868660Y-110527647D02*
X55944850Y-110489552D01*
X55944850Y-110489552D02*
X55982945Y-110451457D01*
X55982945Y-110451457D02*
X56021041Y-110375266D01*
X56021041Y-110375266D02*
X56021041Y-110299076D01*
X56021041Y-110299076D02*
X55982945Y-110222885D01*
X55982945Y-110222885D02*
X55944850Y-110184790D01*
X55944850Y-110184790D02*
X55868660Y-110146695D01*
X55868660Y-110146695D02*
X55678183Y-110146695D01*
X55678183Y-110146695D02*
X55563898Y-110184790D01*
X54763897Y-110870504D02*
X54801993Y-110908600D01*
X54801993Y-110908600D02*
X54916278Y-110946695D01*
X54916278Y-110946695D02*
X54992469Y-110946695D01*
X54992469Y-110946695D02*
X55106755Y-110908600D01*
X55106755Y-110908600D02*
X55182945Y-110832409D01*
X55182945Y-110832409D02*
X55221040Y-110756219D01*
X55221040Y-110756219D02*
X55259136Y-110603838D01*
X55259136Y-110603838D02*
X55259136Y-110489552D01*
X55259136Y-110489552D02*
X55221040Y-110337171D01*
X55221040Y-110337171D02*
X55182945Y-110260980D01*
X55182945Y-110260980D02*
X55106755Y-110184790D01*
X55106755Y-110184790D02*
X54992469Y-110146695D01*
X54992469Y-110146695D02*
X54916278Y-110146695D01*
X54916278Y-110146695D02*
X54801993Y-110184790D01*
X54801993Y-110184790D02*
X54763897Y-110222885D01*
X54040088Y-110946695D02*
X54421040Y-110946695D01*
X54421040Y-110946695D02*
X54421040Y-110146695D01*
X56021041Y-113448600D02*
X55906755Y-113486695D01*
X55906755Y-113486695D02*
X55716279Y-113486695D01*
X55716279Y-113486695D02*
X55640088Y-113448600D01*
X55640088Y-113448600D02*
X55601993Y-113410504D01*
X55601993Y-113410504D02*
X55563898Y-113334314D01*
X55563898Y-113334314D02*
X55563898Y-113258123D01*
X55563898Y-113258123D02*
X55601993Y-113181933D01*
X55601993Y-113181933D02*
X55640088Y-113143838D01*
X55640088Y-113143838D02*
X55716279Y-113105742D01*
X55716279Y-113105742D02*
X55868660Y-113067647D01*
X55868660Y-113067647D02*
X55944850Y-113029552D01*
X55944850Y-113029552D02*
X55982945Y-112991457D01*
X55982945Y-112991457D02*
X56021041Y-112915266D01*
X56021041Y-112915266D02*
X56021041Y-112839076D01*
X56021041Y-112839076D02*
X55982945Y-112762885D01*
X55982945Y-112762885D02*
X55944850Y-112724790D01*
X55944850Y-112724790D02*
X55868660Y-112686695D01*
X55868660Y-112686695D02*
X55678183Y-112686695D01*
X55678183Y-112686695D02*
X55563898Y-112724790D01*
X55221040Y-113486695D02*
X55221040Y-112686695D01*
X55221040Y-112686695D02*
X55030564Y-112686695D01*
X55030564Y-112686695D02*
X54916278Y-112724790D01*
X54916278Y-112724790D02*
X54840088Y-112800980D01*
X54840088Y-112800980D02*
X54801993Y-112877171D01*
X54801993Y-112877171D02*
X54763897Y-113029552D01*
X54763897Y-113029552D02*
X54763897Y-113143838D01*
X54763897Y-113143838D02*
X54801993Y-113296219D01*
X54801993Y-113296219D02*
X54840088Y-113372409D01*
X54840088Y-113372409D02*
X54916278Y-113448600D01*
X54916278Y-113448600D02*
X55030564Y-113486695D01*
X55030564Y-113486695D02*
X55221040Y-113486695D01*
X54459136Y-113258123D02*
X54078183Y-113258123D01*
X54535326Y-113486695D02*
X54268659Y-112686695D01*
X54268659Y-112686695D02*
X54001993Y-113486695D01*
X92216041Y-113448600D02*
X92101755Y-113486695D01*
X92101755Y-113486695D02*
X91911279Y-113486695D01*
X91911279Y-113486695D02*
X91835088Y-113448600D01*
X91835088Y-113448600D02*
X91796993Y-113410504D01*
X91796993Y-113410504D02*
X91758898Y-113334314D01*
X91758898Y-113334314D02*
X91758898Y-113258123D01*
X91758898Y-113258123D02*
X91796993Y-113181933D01*
X91796993Y-113181933D02*
X91835088Y-113143838D01*
X91835088Y-113143838D02*
X91911279Y-113105742D01*
X91911279Y-113105742D02*
X92063660Y-113067647D01*
X92063660Y-113067647D02*
X92139850Y-113029552D01*
X92139850Y-113029552D02*
X92177945Y-112991457D01*
X92177945Y-112991457D02*
X92216041Y-112915266D01*
X92216041Y-112915266D02*
X92216041Y-112839076D01*
X92216041Y-112839076D02*
X92177945Y-112762885D01*
X92177945Y-112762885D02*
X92139850Y-112724790D01*
X92139850Y-112724790D02*
X92063660Y-112686695D01*
X92063660Y-112686695D02*
X91873183Y-112686695D01*
X91873183Y-112686695D02*
X91758898Y-112724790D01*
X91416040Y-113486695D02*
X91416040Y-112686695D01*
X91416040Y-112686695D02*
X91225564Y-112686695D01*
X91225564Y-112686695D02*
X91111278Y-112724790D01*
X91111278Y-112724790D02*
X91035088Y-112800980D01*
X91035088Y-112800980D02*
X90996993Y-112877171D01*
X90996993Y-112877171D02*
X90958897Y-113029552D01*
X90958897Y-113029552D02*
X90958897Y-113143838D01*
X90958897Y-113143838D02*
X90996993Y-113296219D01*
X90996993Y-113296219D02*
X91035088Y-113372409D01*
X91035088Y-113372409D02*
X91111278Y-113448600D01*
X91111278Y-113448600D02*
X91225564Y-113486695D01*
X91225564Y-113486695D02*
X91416040Y-113486695D01*
X90654136Y-113258123D02*
X90273183Y-113258123D01*
X90730326Y-113486695D02*
X90463659Y-112686695D01*
X90463659Y-112686695D02*
X90196993Y-113486695D01*
X91758898Y-117804790D02*
X91835088Y-117766695D01*
X91835088Y-117766695D02*
X91949374Y-117766695D01*
X91949374Y-117766695D02*
X92063660Y-117804790D01*
X92063660Y-117804790D02*
X92139850Y-117880980D01*
X92139850Y-117880980D02*
X92177945Y-117957171D01*
X92177945Y-117957171D02*
X92216041Y-118109552D01*
X92216041Y-118109552D02*
X92216041Y-118223838D01*
X92216041Y-118223838D02*
X92177945Y-118376219D01*
X92177945Y-118376219D02*
X92139850Y-118452409D01*
X92139850Y-118452409D02*
X92063660Y-118528600D01*
X92063660Y-118528600D02*
X91949374Y-118566695D01*
X91949374Y-118566695D02*
X91873183Y-118566695D01*
X91873183Y-118566695D02*
X91758898Y-118528600D01*
X91758898Y-118528600D02*
X91720802Y-118490504D01*
X91720802Y-118490504D02*
X91720802Y-118223838D01*
X91720802Y-118223838D02*
X91873183Y-118223838D01*
X91377945Y-118566695D02*
X91377945Y-117766695D01*
X91377945Y-117766695D02*
X90920802Y-118566695D01*
X90920802Y-118566695D02*
X90920802Y-117766695D01*
X90539850Y-118566695D02*
X90539850Y-117766695D01*
X90539850Y-117766695D02*
X90349374Y-117766695D01*
X90349374Y-117766695D02*
X90235088Y-117804790D01*
X90235088Y-117804790D02*
X90158898Y-117880980D01*
X90158898Y-117880980D02*
X90120803Y-117957171D01*
X90120803Y-117957171D02*
X90082707Y-118109552D01*
X90082707Y-118109552D02*
X90082707Y-118223838D01*
X90082707Y-118223838D02*
X90120803Y-118376219D01*
X90120803Y-118376219D02*
X90158898Y-118452409D01*
X90158898Y-118452409D02*
X90235088Y-118528600D01*
X90235088Y-118528600D02*
X90349374Y-118566695D01*
X90349374Y-118566695D02*
X90539850Y-118566695D01*
X122288304Y-74067945D02*
X123088304Y-74067945D01*
X123088304Y-74067945D02*
X122516876Y-73801279D01*
X122516876Y-73801279D02*
X123088304Y-73534612D01*
X123088304Y-73534612D02*
X122288304Y-73534612D01*
X123088304Y-73001278D02*
X123088304Y-72848897D01*
X123088304Y-72848897D02*
X123050209Y-72772707D01*
X123050209Y-72772707D02*
X122974019Y-72696516D01*
X122974019Y-72696516D02*
X122821638Y-72658421D01*
X122821638Y-72658421D02*
X122554971Y-72658421D01*
X122554971Y-72658421D02*
X122402590Y-72696516D01*
X122402590Y-72696516D02*
X122326400Y-72772707D01*
X122326400Y-72772707D02*
X122288304Y-72848897D01*
X122288304Y-72848897D02*
X122288304Y-73001278D01*
X122288304Y-73001278D02*
X122326400Y-73077469D01*
X122326400Y-73077469D02*
X122402590Y-73153659D01*
X122402590Y-73153659D02*
X122554971Y-73191755D01*
X122554971Y-73191755D02*
X122821638Y-73191755D01*
X122821638Y-73191755D02*
X122974019Y-73153659D01*
X122974019Y-73153659D02*
X123050209Y-73077469D01*
X123050209Y-73077469D02*
X123088304Y-73001278D01*
X123088304Y-72429850D02*
X123088304Y-71972707D01*
X122288304Y-72201279D02*
X123088304Y-72201279D01*
X123088304Y-71553659D02*
X123088304Y-71401278D01*
X123088304Y-71401278D02*
X123050209Y-71325088D01*
X123050209Y-71325088D02*
X122974019Y-71248897D01*
X122974019Y-71248897D02*
X122821638Y-71210802D01*
X122821638Y-71210802D02*
X122554971Y-71210802D01*
X122554971Y-71210802D02*
X122402590Y-71248897D01*
X122402590Y-71248897D02*
X122326400Y-71325088D01*
X122326400Y-71325088D02*
X122288304Y-71401278D01*
X122288304Y-71401278D02*
X122288304Y-71553659D01*
X122288304Y-71553659D02*
X122326400Y-71629850D01*
X122326400Y-71629850D02*
X122402590Y-71706040D01*
X122402590Y-71706040D02*
X122554971Y-71744136D01*
X122554971Y-71744136D02*
X122821638Y-71744136D01*
X122821638Y-71744136D02*
X122974019Y-71706040D01*
X122974019Y-71706040D02*
X123050209Y-71629850D01*
X123050209Y-71629850D02*
X123088304Y-71553659D01*
X122288304Y-70410802D02*
X122669257Y-70677469D01*
X122288304Y-70867945D02*
X123088304Y-70867945D01*
X123088304Y-70867945D02*
X123088304Y-70563183D01*
X123088304Y-70563183D02*
X123050209Y-70486993D01*
X123050209Y-70486993D02*
X123012114Y-70448898D01*
X123012114Y-70448898D02*
X122935923Y-70410802D01*
X122935923Y-70410802D02*
X122821638Y-70410802D01*
X122821638Y-70410802D02*
X122745447Y-70448898D01*
X122745447Y-70448898D02*
X122707352Y-70486993D01*
X122707352Y-70486993D02*
X122669257Y-70563183D01*
X122669257Y-70563183D02*
X122669257Y-70867945D01*
X105563898Y-67804790D02*
X105640088Y-67766695D01*
X105640088Y-67766695D02*
X105754374Y-67766695D01*
X105754374Y-67766695D02*
X105868660Y-67804790D01*
X105868660Y-67804790D02*
X105944850Y-67880980D01*
X105944850Y-67880980D02*
X105982945Y-67957171D01*
X105982945Y-67957171D02*
X106021041Y-68109552D01*
X106021041Y-68109552D02*
X106021041Y-68223838D01*
X106021041Y-68223838D02*
X105982945Y-68376219D01*
X105982945Y-68376219D02*
X105944850Y-68452409D01*
X105944850Y-68452409D02*
X105868660Y-68528600D01*
X105868660Y-68528600D02*
X105754374Y-68566695D01*
X105754374Y-68566695D02*
X105678183Y-68566695D01*
X105678183Y-68566695D02*
X105563898Y-68528600D01*
X105563898Y-68528600D02*
X105525802Y-68490504D01*
X105525802Y-68490504D02*
X105525802Y-68223838D01*
X105525802Y-68223838D02*
X105678183Y-68223838D01*
X105182945Y-68566695D02*
X105182945Y-67766695D01*
X105182945Y-67766695D02*
X104725802Y-68566695D01*
X104725802Y-68566695D02*
X104725802Y-67766695D01*
X104344850Y-68566695D02*
X104344850Y-67766695D01*
X104344850Y-67766695D02*
X104154374Y-67766695D01*
X104154374Y-67766695D02*
X104040088Y-67804790D01*
X104040088Y-67804790D02*
X103963898Y-67880980D01*
X103963898Y-67880980D02*
X103925803Y-67957171D01*
X103925803Y-67957171D02*
X103887707Y-68109552D01*
X103887707Y-68109552D02*
X103887707Y-68223838D01*
X103887707Y-68223838D02*
X103925803Y-68376219D01*
X103925803Y-68376219D02*
X103963898Y-68452409D01*
X103963898Y-68452409D02*
X104040088Y-68528600D01*
X104040088Y-68528600D02*
X104154374Y-68566695D01*
X104154374Y-68566695D02*
X104344850Y-68566695D01*
X134391400Y-53151041D02*
X134353304Y-53036755D01*
X134353304Y-53036755D02*
X134353304Y-52846279D01*
X134353304Y-52846279D02*
X134391400Y-52770088D01*
X134391400Y-52770088D02*
X134429495Y-52731993D01*
X134429495Y-52731993D02*
X134505685Y-52693898D01*
X134505685Y-52693898D02*
X134581876Y-52693898D01*
X134581876Y-52693898D02*
X134658066Y-52731993D01*
X134658066Y-52731993D02*
X134696161Y-52770088D01*
X134696161Y-52770088D02*
X134734257Y-52846279D01*
X134734257Y-52846279D02*
X134772352Y-52998660D01*
X134772352Y-52998660D02*
X134810447Y-53074850D01*
X134810447Y-53074850D02*
X134848542Y-53112945D01*
X134848542Y-53112945D02*
X134924733Y-53151041D01*
X134924733Y-53151041D02*
X135000923Y-53151041D01*
X135000923Y-53151041D02*
X135077114Y-53112945D01*
X135077114Y-53112945D02*
X135115209Y-53074850D01*
X135115209Y-53074850D02*
X135153304Y-52998660D01*
X135153304Y-52998660D02*
X135153304Y-52808183D01*
X135153304Y-52808183D02*
X135115209Y-52693898D01*
X135153304Y-52427231D02*
X134353304Y-52236755D01*
X134353304Y-52236755D02*
X134924733Y-52084374D01*
X134924733Y-52084374D02*
X134353304Y-51931993D01*
X134353304Y-51931993D02*
X135153304Y-51741517D01*
X134353304Y-51436754D02*
X135153304Y-51436754D01*
X135153304Y-50903421D02*
X135153304Y-50751040D01*
X135153304Y-50751040D02*
X135115209Y-50674850D01*
X135115209Y-50674850D02*
X135039019Y-50598659D01*
X135039019Y-50598659D02*
X134886638Y-50560564D01*
X134886638Y-50560564D02*
X134619971Y-50560564D01*
X134619971Y-50560564D02*
X134467590Y-50598659D01*
X134467590Y-50598659D02*
X134391400Y-50674850D01*
X134391400Y-50674850D02*
X134353304Y-50751040D01*
X134353304Y-50751040D02*
X134353304Y-50903421D01*
X134353304Y-50903421D02*
X134391400Y-50979612D01*
X134391400Y-50979612D02*
X134467590Y-51055802D01*
X134467590Y-51055802D02*
X134619971Y-51093898D01*
X134619971Y-51093898D02*
X134886638Y-51093898D01*
X134886638Y-51093898D02*
X135039019Y-51055802D01*
X135039019Y-51055802D02*
X135115209Y-50979612D01*
X135115209Y-50979612D02*
X135153304Y-50903421D01*
X130670209Y-73648898D02*
X130708304Y-73725088D01*
X130708304Y-73725088D02*
X130708304Y-73839374D01*
X130708304Y-73839374D02*
X130670209Y-73953660D01*
X130670209Y-73953660D02*
X130594019Y-74029850D01*
X130594019Y-74029850D02*
X130517828Y-74067945D01*
X130517828Y-74067945D02*
X130365447Y-74106041D01*
X130365447Y-74106041D02*
X130251161Y-74106041D01*
X130251161Y-74106041D02*
X130098780Y-74067945D01*
X130098780Y-74067945D02*
X130022590Y-74029850D01*
X130022590Y-74029850D02*
X129946400Y-73953660D01*
X129946400Y-73953660D02*
X129908304Y-73839374D01*
X129908304Y-73839374D02*
X129908304Y-73763183D01*
X129908304Y-73763183D02*
X129946400Y-73648898D01*
X129946400Y-73648898D02*
X129984495Y-73610802D01*
X129984495Y-73610802D02*
X130251161Y-73610802D01*
X130251161Y-73610802D02*
X130251161Y-73763183D01*
X129908304Y-73267945D02*
X130708304Y-73267945D01*
X130708304Y-73267945D02*
X129908304Y-72810802D01*
X129908304Y-72810802D02*
X130708304Y-72810802D01*
X129908304Y-72429850D02*
X130708304Y-72429850D01*
X130708304Y-72429850D02*
X130708304Y-72239374D01*
X130708304Y-72239374D02*
X130670209Y-72125088D01*
X130670209Y-72125088D02*
X130594019Y-72048898D01*
X130594019Y-72048898D02*
X130517828Y-72010803D01*
X130517828Y-72010803D02*
X130365447Y-71972707D01*
X130365447Y-71972707D02*
X130251161Y-71972707D01*
X130251161Y-71972707D02*
X130098780Y-72010803D01*
X130098780Y-72010803D02*
X130022590Y-72048898D01*
X130022590Y-72048898D02*
X129946400Y-72125088D01*
X129946400Y-72125088D02*
X129908304Y-72239374D01*
X129908304Y-72239374D02*
X129908304Y-72429850D01*
X142216041Y-60908600D02*
X142101755Y-60946695D01*
X142101755Y-60946695D02*
X141911279Y-60946695D01*
X141911279Y-60946695D02*
X141835088Y-60908600D01*
X141835088Y-60908600D02*
X141796993Y-60870504D01*
X141796993Y-60870504D02*
X141758898Y-60794314D01*
X141758898Y-60794314D02*
X141758898Y-60718123D01*
X141758898Y-60718123D02*
X141796993Y-60641933D01*
X141796993Y-60641933D02*
X141835088Y-60603838D01*
X141835088Y-60603838D02*
X141911279Y-60565742D01*
X141911279Y-60565742D02*
X142063660Y-60527647D01*
X142063660Y-60527647D02*
X142139850Y-60489552D01*
X142139850Y-60489552D02*
X142177945Y-60451457D01*
X142177945Y-60451457D02*
X142216041Y-60375266D01*
X142216041Y-60375266D02*
X142216041Y-60299076D01*
X142216041Y-60299076D02*
X142177945Y-60222885D01*
X142177945Y-60222885D02*
X142139850Y-60184790D01*
X142139850Y-60184790D02*
X142063660Y-60146695D01*
X142063660Y-60146695D02*
X141873183Y-60146695D01*
X141873183Y-60146695D02*
X141758898Y-60184790D01*
X140958897Y-60870504D02*
X140996993Y-60908600D01*
X140996993Y-60908600D02*
X141111278Y-60946695D01*
X141111278Y-60946695D02*
X141187469Y-60946695D01*
X141187469Y-60946695D02*
X141301755Y-60908600D01*
X141301755Y-60908600D02*
X141377945Y-60832409D01*
X141377945Y-60832409D02*
X141416040Y-60756219D01*
X141416040Y-60756219D02*
X141454136Y-60603838D01*
X141454136Y-60603838D02*
X141454136Y-60489552D01*
X141454136Y-60489552D02*
X141416040Y-60337171D01*
X141416040Y-60337171D02*
X141377945Y-60260980D01*
X141377945Y-60260980D02*
X141301755Y-60184790D01*
X141301755Y-60184790D02*
X141187469Y-60146695D01*
X141187469Y-60146695D02*
X141111278Y-60146695D01*
X141111278Y-60146695D02*
X140996993Y-60184790D01*
X140996993Y-60184790D02*
X140958897Y-60222885D01*
X140235088Y-60946695D02*
X140616040Y-60946695D01*
X140616040Y-60946695D02*
X140616040Y-60146695D01*
X119748304Y-74067945D02*
X120548304Y-74067945D01*
X120548304Y-74067945D02*
X119748304Y-73610802D01*
X119748304Y-73610802D02*
X120548304Y-73610802D01*
X119748304Y-72848898D02*
X119748304Y-73229850D01*
X119748304Y-73229850D02*
X120548304Y-73229850D01*
X120167352Y-72582231D02*
X120167352Y-72315565D01*
X119748304Y-72201279D02*
X119748304Y-72582231D01*
X119748304Y-72582231D02*
X120548304Y-72582231D01*
X120548304Y-72582231D02*
X120548304Y-72201279D01*
X119748304Y-71858421D02*
X120548304Y-71858421D01*
X120548304Y-71858421D02*
X120548304Y-71667945D01*
X120548304Y-71667945D02*
X120510209Y-71553659D01*
X120510209Y-71553659D02*
X120434019Y-71477469D01*
X120434019Y-71477469D02*
X120357828Y-71439374D01*
X120357828Y-71439374D02*
X120205447Y-71401278D01*
X120205447Y-71401278D02*
X120091161Y-71401278D01*
X120091161Y-71401278D02*
X119938780Y-71439374D01*
X119938780Y-71439374D02*
X119862590Y-71477469D01*
X119862590Y-71477469D02*
X119786400Y-71553659D01*
X119786400Y-71553659D02*
X119748304Y-71667945D01*
X119748304Y-71667945D02*
X119748304Y-71858421D01*
X119748304Y-70601278D02*
X120129257Y-70867945D01*
X119748304Y-71058421D02*
X120548304Y-71058421D01*
X120548304Y-71058421D02*
X120548304Y-70753659D01*
X120548304Y-70753659D02*
X120510209Y-70677469D01*
X120510209Y-70677469D02*
X120472114Y-70639374D01*
X120472114Y-70639374D02*
X120395923Y-70601278D01*
X120395923Y-70601278D02*
X120281638Y-70601278D01*
X120281638Y-70601278D02*
X120205447Y-70639374D01*
X120205447Y-70639374D02*
X120167352Y-70677469D01*
X120167352Y-70677469D02*
X120129257Y-70753659D01*
X120129257Y-70753659D02*
X120129257Y-71058421D01*
X142735209Y-52693898D02*
X142773304Y-52770088D01*
X142773304Y-52770088D02*
X142773304Y-52884374D01*
X142773304Y-52884374D02*
X142735209Y-52998660D01*
X142735209Y-52998660D02*
X142659019Y-53074850D01*
X142659019Y-53074850D02*
X142582828Y-53112945D01*
X142582828Y-53112945D02*
X142430447Y-53151041D01*
X142430447Y-53151041D02*
X142316161Y-53151041D01*
X142316161Y-53151041D02*
X142163780Y-53112945D01*
X142163780Y-53112945D02*
X142087590Y-53074850D01*
X142087590Y-53074850D02*
X142011400Y-52998660D01*
X142011400Y-52998660D02*
X141973304Y-52884374D01*
X141973304Y-52884374D02*
X141973304Y-52808183D01*
X141973304Y-52808183D02*
X142011400Y-52693898D01*
X142011400Y-52693898D02*
X142049495Y-52655802D01*
X142049495Y-52655802D02*
X142316161Y-52655802D01*
X142316161Y-52655802D02*
X142316161Y-52808183D01*
X141973304Y-52312945D02*
X142773304Y-52312945D01*
X142773304Y-52312945D02*
X141973304Y-51855802D01*
X141973304Y-51855802D02*
X142773304Y-51855802D01*
X141973304Y-51474850D02*
X142773304Y-51474850D01*
X142773304Y-51474850D02*
X142773304Y-51284374D01*
X142773304Y-51284374D02*
X142735209Y-51170088D01*
X142735209Y-51170088D02*
X142659019Y-51093898D01*
X142659019Y-51093898D02*
X142582828Y-51055803D01*
X142582828Y-51055803D02*
X142430447Y-51017707D01*
X142430447Y-51017707D02*
X142316161Y-51017707D01*
X142316161Y-51017707D02*
X142163780Y-51055803D01*
X142163780Y-51055803D02*
X142087590Y-51093898D01*
X142087590Y-51093898D02*
X142011400Y-51170088D01*
X142011400Y-51170088D02*
X141973304Y-51284374D01*
X141973304Y-51284374D02*
X141973304Y-51474850D01*
X136893304Y-53112945D02*
X137693304Y-53112945D01*
X137693304Y-53112945D02*
X136893304Y-52655802D01*
X136893304Y-52655802D02*
X137693304Y-52655802D01*
X136893304Y-51817707D02*
X137274257Y-52084374D01*
X136893304Y-52274850D02*
X137693304Y-52274850D01*
X137693304Y-52274850D02*
X137693304Y-51970088D01*
X137693304Y-51970088D02*
X137655209Y-51893898D01*
X137655209Y-51893898D02*
X137617114Y-51855803D01*
X137617114Y-51855803D02*
X137540923Y-51817707D01*
X137540923Y-51817707D02*
X137426638Y-51817707D01*
X137426638Y-51817707D02*
X137350447Y-51855803D01*
X137350447Y-51855803D02*
X137312352Y-51893898D01*
X137312352Y-51893898D02*
X137274257Y-51970088D01*
X137274257Y-51970088D02*
X137274257Y-52274850D01*
X136931400Y-51512946D02*
X136893304Y-51398660D01*
X136893304Y-51398660D02*
X136893304Y-51208184D01*
X136893304Y-51208184D02*
X136931400Y-51131993D01*
X136931400Y-51131993D02*
X136969495Y-51093898D01*
X136969495Y-51093898D02*
X137045685Y-51055803D01*
X137045685Y-51055803D02*
X137121876Y-51055803D01*
X137121876Y-51055803D02*
X137198066Y-51093898D01*
X137198066Y-51093898D02*
X137236161Y-51131993D01*
X137236161Y-51131993D02*
X137274257Y-51208184D01*
X137274257Y-51208184D02*
X137312352Y-51360565D01*
X137312352Y-51360565D02*
X137350447Y-51436755D01*
X137350447Y-51436755D02*
X137388542Y-51474850D01*
X137388542Y-51474850D02*
X137464733Y-51512946D01*
X137464733Y-51512946D02*
X137540923Y-51512946D01*
X137540923Y-51512946D02*
X137617114Y-51474850D01*
X137617114Y-51474850D02*
X137655209Y-51436755D01*
X137655209Y-51436755D02*
X137693304Y-51360565D01*
X137693304Y-51360565D02*
X137693304Y-51170088D01*
X137693304Y-51170088D02*
X137655209Y-51055803D01*
X137693304Y-50827231D02*
X137693304Y-50370088D01*
X136893304Y-50598660D02*
X137693304Y-50598660D01*
X117208304Y-74067945D02*
X118008304Y-74067945D01*
X118008304Y-74067945D02*
X117208304Y-73610802D01*
X117208304Y-73610802D02*
X118008304Y-73610802D01*
X117208304Y-72848898D02*
X117208304Y-73229850D01*
X117208304Y-73229850D02*
X118008304Y-73229850D01*
X117627352Y-72582231D02*
X117627352Y-72315565D01*
X117208304Y-72201279D02*
X117208304Y-72582231D01*
X117208304Y-72582231D02*
X118008304Y-72582231D01*
X118008304Y-72582231D02*
X118008304Y-72201279D01*
X117208304Y-71858421D02*
X118008304Y-71858421D01*
X118008304Y-71858421D02*
X118008304Y-71667945D01*
X118008304Y-71667945D02*
X117970209Y-71553659D01*
X117970209Y-71553659D02*
X117894019Y-71477469D01*
X117894019Y-71477469D02*
X117817828Y-71439374D01*
X117817828Y-71439374D02*
X117665447Y-71401278D01*
X117665447Y-71401278D02*
X117551161Y-71401278D01*
X117551161Y-71401278D02*
X117398780Y-71439374D01*
X117398780Y-71439374D02*
X117322590Y-71477469D01*
X117322590Y-71477469D02*
X117246400Y-71553659D01*
X117246400Y-71553659D02*
X117208304Y-71667945D01*
X117208304Y-71667945D02*
X117208304Y-71858421D01*
X117970209Y-70639374D02*
X118008304Y-70715564D01*
X118008304Y-70715564D02*
X118008304Y-70829850D01*
X118008304Y-70829850D02*
X117970209Y-70944136D01*
X117970209Y-70944136D02*
X117894019Y-71020326D01*
X117894019Y-71020326D02*
X117817828Y-71058421D01*
X117817828Y-71058421D02*
X117665447Y-71096517D01*
X117665447Y-71096517D02*
X117551161Y-71096517D01*
X117551161Y-71096517D02*
X117398780Y-71058421D01*
X117398780Y-71058421D02*
X117322590Y-71020326D01*
X117322590Y-71020326D02*
X117246400Y-70944136D01*
X117246400Y-70944136D02*
X117208304Y-70829850D01*
X117208304Y-70829850D02*
X117208304Y-70753659D01*
X117208304Y-70753659D02*
X117246400Y-70639374D01*
X117246400Y-70639374D02*
X117284495Y-70601278D01*
X117284495Y-70601278D02*
X117551161Y-70601278D01*
X117551161Y-70601278D02*
X117551161Y-70753659D01*
X125628304Y-74144136D02*
X124828304Y-73953660D01*
X124828304Y-73953660D02*
X125399733Y-73801279D01*
X125399733Y-73801279D02*
X124828304Y-73648898D01*
X124828304Y-73648898D02*
X125628304Y-73458422D01*
X124828304Y-73153659D02*
X125628304Y-73153659D01*
X124828304Y-72315564D02*
X125209257Y-72582231D01*
X124828304Y-72772707D02*
X125628304Y-72772707D01*
X125628304Y-72772707D02*
X125628304Y-72467945D01*
X125628304Y-72467945D02*
X125590209Y-72391755D01*
X125590209Y-72391755D02*
X125552114Y-72353660D01*
X125552114Y-72353660D02*
X125475923Y-72315564D01*
X125475923Y-72315564D02*
X125361638Y-72315564D01*
X125361638Y-72315564D02*
X125285447Y-72353660D01*
X125285447Y-72353660D02*
X125247352Y-72391755D01*
X125247352Y-72391755D02*
X125209257Y-72467945D01*
X125209257Y-72467945D02*
X125209257Y-72772707D01*
X125247352Y-71972707D02*
X125247352Y-71706041D01*
X124828304Y-71591755D02*
X124828304Y-71972707D01*
X124828304Y-71972707D02*
X125628304Y-71972707D01*
X125628304Y-71972707D02*
X125628304Y-71591755D01*
X124752114Y-71439374D02*
X124752114Y-70829850D01*
X124828304Y-70639373D02*
X125628304Y-70639373D01*
X124828304Y-70258421D02*
X125628304Y-70258421D01*
X125628304Y-70258421D02*
X125628304Y-70067945D01*
X125628304Y-70067945D02*
X125590209Y-69953659D01*
X125590209Y-69953659D02*
X125514019Y-69877469D01*
X125514019Y-69877469D02*
X125437828Y-69839374D01*
X125437828Y-69839374D02*
X125285447Y-69801278D01*
X125285447Y-69801278D02*
X125171161Y-69801278D01*
X125171161Y-69801278D02*
X125018780Y-69839374D01*
X125018780Y-69839374D02*
X124942590Y-69877469D01*
X124942590Y-69877469D02*
X124866400Y-69953659D01*
X124866400Y-69953659D02*
X124828304Y-70067945D01*
X124828304Y-70067945D02*
X124828304Y-70258421D01*
X146837352Y-54116279D02*
X146837352Y-54382945D01*
X146418304Y-54382945D02*
X147218304Y-54382945D01*
X147218304Y-54382945D02*
X147218304Y-54001993D01*
X146418304Y-53240088D02*
X146799257Y-53506755D01*
X146418304Y-53697231D02*
X147218304Y-53697231D01*
X147218304Y-53697231D02*
X147218304Y-53392469D01*
X147218304Y-53392469D02*
X147180209Y-53316279D01*
X147180209Y-53316279D02*
X147142114Y-53278184D01*
X147142114Y-53278184D02*
X147065923Y-53240088D01*
X147065923Y-53240088D02*
X146951638Y-53240088D01*
X146951638Y-53240088D02*
X146875447Y-53278184D01*
X146875447Y-53278184D02*
X146837352Y-53316279D01*
X146837352Y-53316279D02*
X146799257Y-53392469D01*
X146799257Y-53392469D02*
X146799257Y-53697231D01*
X146418304Y-52897231D02*
X147218304Y-52897231D01*
X146837352Y-52516279D02*
X146837352Y-52249613D01*
X146418304Y-52135327D02*
X146418304Y-52516279D01*
X146418304Y-52516279D02*
X147218304Y-52516279D01*
X147218304Y-52516279D02*
X147218304Y-52135327D01*
X146418304Y-51792469D02*
X147218304Y-51792469D01*
X147218304Y-51792469D02*
X146418304Y-51335326D01*
X146418304Y-51335326D02*
X147218304Y-51335326D01*
X146418304Y-50954374D02*
X147218304Y-50954374D01*
X147218304Y-50954374D02*
X147218304Y-50763898D01*
X147218304Y-50763898D02*
X147180209Y-50649612D01*
X147180209Y-50649612D02*
X147104019Y-50573422D01*
X147104019Y-50573422D02*
X147027828Y-50535327D01*
X147027828Y-50535327D02*
X146875447Y-50497231D01*
X146875447Y-50497231D02*
X146761161Y-50497231D01*
X146761161Y-50497231D02*
X146608780Y-50535327D01*
X146608780Y-50535327D02*
X146532590Y-50573422D01*
X146532590Y-50573422D02*
X146456400Y-50649612D01*
X146456400Y-50649612D02*
X146418304Y-50763898D01*
X146418304Y-50763898D02*
X146418304Y-50954374D01*
X146418304Y-49773422D02*
X146418304Y-50154374D01*
X146418304Y-50154374D02*
X147218304Y-50154374D01*
X146799257Y-49354374D02*
X146418304Y-49354374D01*
X147218304Y-49621041D02*
X146799257Y-49354374D01*
X146799257Y-49354374D02*
X147218304Y-49087708D01*
X146837352Y-47944851D02*
X146799257Y-47830565D01*
X146799257Y-47830565D02*
X146761161Y-47792470D01*
X146761161Y-47792470D02*
X146684971Y-47754374D01*
X146684971Y-47754374D02*
X146570685Y-47754374D01*
X146570685Y-47754374D02*
X146494495Y-47792470D01*
X146494495Y-47792470D02*
X146456400Y-47830565D01*
X146456400Y-47830565D02*
X146418304Y-47906755D01*
X146418304Y-47906755D02*
X146418304Y-48211517D01*
X146418304Y-48211517D02*
X147218304Y-48211517D01*
X147218304Y-48211517D02*
X147218304Y-47944851D01*
X147218304Y-47944851D02*
X147180209Y-47868660D01*
X147180209Y-47868660D02*
X147142114Y-47830565D01*
X147142114Y-47830565D02*
X147065923Y-47792470D01*
X147065923Y-47792470D02*
X146989733Y-47792470D01*
X146989733Y-47792470D02*
X146913542Y-47830565D01*
X146913542Y-47830565D02*
X146875447Y-47868660D01*
X146875447Y-47868660D02*
X146837352Y-47944851D01*
X146837352Y-47944851D02*
X146837352Y-48211517D01*
X147218304Y-47259136D02*
X147218304Y-47106755D01*
X147218304Y-47106755D02*
X147180209Y-47030565D01*
X147180209Y-47030565D02*
X147104019Y-46954374D01*
X147104019Y-46954374D02*
X146951638Y-46916279D01*
X146951638Y-46916279D02*
X146684971Y-46916279D01*
X146684971Y-46916279D02*
X146532590Y-46954374D01*
X146532590Y-46954374D02*
X146456400Y-47030565D01*
X146456400Y-47030565D02*
X146418304Y-47106755D01*
X146418304Y-47106755D02*
X146418304Y-47259136D01*
X146418304Y-47259136D02*
X146456400Y-47335327D01*
X146456400Y-47335327D02*
X146532590Y-47411517D01*
X146532590Y-47411517D02*
X146684971Y-47449613D01*
X146684971Y-47449613D02*
X146951638Y-47449613D01*
X146951638Y-47449613D02*
X147104019Y-47411517D01*
X147104019Y-47411517D02*
X147180209Y-47335327D01*
X147180209Y-47335327D02*
X147218304Y-47259136D01*
X146646876Y-46611518D02*
X146646876Y-46230565D01*
X146418304Y-46687708D02*
X147218304Y-46421041D01*
X147218304Y-46421041D02*
X146418304Y-46154375D01*
X146418304Y-45430565D02*
X146799257Y-45697232D01*
X146418304Y-45887708D02*
X147218304Y-45887708D01*
X147218304Y-45887708D02*
X147218304Y-45582946D01*
X147218304Y-45582946D02*
X147180209Y-45506756D01*
X147180209Y-45506756D02*
X147142114Y-45468661D01*
X147142114Y-45468661D02*
X147065923Y-45430565D01*
X147065923Y-45430565D02*
X146951638Y-45430565D01*
X146951638Y-45430565D02*
X146875447Y-45468661D01*
X146875447Y-45468661D02*
X146837352Y-45506756D01*
X146837352Y-45506756D02*
X146799257Y-45582946D01*
X146799257Y-45582946D02*
X146799257Y-45887708D01*
X146418304Y-45087708D02*
X147218304Y-45087708D01*
X147218304Y-45087708D02*
X147218304Y-44897232D01*
X147218304Y-44897232D02*
X147180209Y-44782946D01*
X147180209Y-44782946D02*
X147104019Y-44706756D01*
X147104019Y-44706756D02*
X147027828Y-44668661D01*
X147027828Y-44668661D02*
X146875447Y-44630565D01*
X146875447Y-44630565D02*
X146761161Y-44630565D01*
X146761161Y-44630565D02*
X146608780Y-44668661D01*
X146608780Y-44668661D02*
X146532590Y-44706756D01*
X146532590Y-44706756D02*
X146456400Y-44782946D01*
X146456400Y-44782946D02*
X146418304Y-44897232D01*
X146418304Y-44897232D02*
X146418304Y-45087708D01*
X147180209Y-43259137D02*
X147218304Y-43335327D01*
X147218304Y-43335327D02*
X147218304Y-43449613D01*
X147218304Y-43449613D02*
X147180209Y-43563899D01*
X147180209Y-43563899D02*
X147104019Y-43640089D01*
X147104019Y-43640089D02*
X147027828Y-43678184D01*
X147027828Y-43678184D02*
X146875447Y-43716280D01*
X146875447Y-43716280D02*
X146761161Y-43716280D01*
X146761161Y-43716280D02*
X146608780Y-43678184D01*
X146608780Y-43678184D02*
X146532590Y-43640089D01*
X146532590Y-43640089D02*
X146456400Y-43563899D01*
X146456400Y-43563899D02*
X146418304Y-43449613D01*
X146418304Y-43449613D02*
X146418304Y-43373422D01*
X146418304Y-43373422D02*
X146456400Y-43259137D01*
X146456400Y-43259137D02*
X146494495Y-43221041D01*
X146494495Y-43221041D02*
X146761161Y-43221041D01*
X146761161Y-43221041D02*
X146761161Y-43373422D01*
X146646876Y-42916280D02*
X146646876Y-42535327D01*
X146418304Y-42992470D02*
X147218304Y-42725803D01*
X147218304Y-42725803D02*
X146418304Y-42459137D01*
X146418304Y-42192470D02*
X147218304Y-42192470D01*
X147218304Y-42192470D02*
X146646876Y-41925804D01*
X146646876Y-41925804D02*
X147218304Y-41659137D01*
X147218304Y-41659137D02*
X146418304Y-41659137D01*
X146837352Y-41278184D02*
X146837352Y-41011518D01*
X146418304Y-40897232D02*
X146418304Y-41278184D01*
X146418304Y-41278184D02*
X147218304Y-41278184D01*
X147218304Y-41278184D02*
X147218304Y-40897232D01*
X147218304Y-40059136D02*
X147218304Y-39601993D01*
X146418304Y-39830565D02*
X147218304Y-39830565D01*
X146418304Y-39335326D02*
X147218304Y-39335326D01*
X146418304Y-38573422D02*
X146418304Y-38954374D01*
X146418304Y-38954374D02*
X147218304Y-38954374D01*
X146837352Y-38306755D02*
X146837352Y-38040089D01*
X146418304Y-37925803D02*
X146418304Y-38306755D01*
X146418304Y-38306755D02*
X147218304Y-38306755D01*
X147218304Y-38306755D02*
X147218304Y-37925803D01*
X140233304Y-53189136D02*
X140233304Y-52693898D01*
X140233304Y-52693898D02*
X139928542Y-52960564D01*
X139928542Y-52960564D02*
X139928542Y-52846279D01*
X139928542Y-52846279D02*
X139890447Y-52770088D01*
X139890447Y-52770088D02*
X139852352Y-52731993D01*
X139852352Y-52731993D02*
X139776161Y-52693898D01*
X139776161Y-52693898D02*
X139585685Y-52693898D01*
X139585685Y-52693898D02*
X139509495Y-52731993D01*
X139509495Y-52731993D02*
X139471400Y-52770088D01*
X139471400Y-52770088D02*
X139433304Y-52846279D01*
X139433304Y-52846279D02*
X139433304Y-53074850D01*
X139433304Y-53074850D02*
X139471400Y-53151041D01*
X139471400Y-53151041D02*
X139509495Y-53189136D01*
X139509495Y-52351040D02*
X139471400Y-52312945D01*
X139471400Y-52312945D02*
X139433304Y-52351040D01*
X139433304Y-52351040D02*
X139471400Y-52389136D01*
X139471400Y-52389136D02*
X139509495Y-52351040D01*
X139509495Y-52351040D02*
X139433304Y-52351040D01*
X140233304Y-52046279D02*
X140233304Y-51551041D01*
X140233304Y-51551041D02*
X139928542Y-51817707D01*
X139928542Y-51817707D02*
X139928542Y-51703422D01*
X139928542Y-51703422D02*
X139890447Y-51627231D01*
X139890447Y-51627231D02*
X139852352Y-51589136D01*
X139852352Y-51589136D02*
X139776161Y-51551041D01*
X139776161Y-51551041D02*
X139585685Y-51551041D01*
X139585685Y-51551041D02*
X139509495Y-51589136D01*
X139509495Y-51589136D02*
X139471400Y-51627231D01*
X139471400Y-51627231D02*
X139433304Y-51703422D01*
X139433304Y-51703422D02*
X139433304Y-51931993D01*
X139433304Y-51931993D02*
X139471400Y-52008184D01*
X139471400Y-52008184D02*
X139509495Y-52046279D01*
X140233304Y-51322469D02*
X139433304Y-51055802D01*
X139433304Y-51055802D02*
X140233304Y-50789136D01*
X142254136Y-65226695D02*
X141758898Y-65226695D01*
X141758898Y-65226695D02*
X142025564Y-65531457D01*
X142025564Y-65531457D02*
X141911279Y-65531457D01*
X141911279Y-65531457D02*
X141835088Y-65569552D01*
X141835088Y-65569552D02*
X141796993Y-65607647D01*
X141796993Y-65607647D02*
X141758898Y-65683838D01*
X141758898Y-65683838D02*
X141758898Y-65874314D01*
X141758898Y-65874314D02*
X141796993Y-65950504D01*
X141796993Y-65950504D02*
X141835088Y-65988600D01*
X141835088Y-65988600D02*
X141911279Y-66026695D01*
X141911279Y-66026695D02*
X142139850Y-66026695D01*
X142139850Y-66026695D02*
X142216041Y-65988600D01*
X142216041Y-65988600D02*
X142254136Y-65950504D01*
X141416040Y-65950504D02*
X141377945Y-65988600D01*
X141377945Y-65988600D02*
X141416040Y-66026695D01*
X141416040Y-66026695D02*
X141454136Y-65988600D01*
X141454136Y-65988600D02*
X141416040Y-65950504D01*
X141416040Y-65950504D02*
X141416040Y-66026695D01*
X141111279Y-65226695D02*
X140616041Y-65226695D01*
X140616041Y-65226695D02*
X140882707Y-65531457D01*
X140882707Y-65531457D02*
X140768422Y-65531457D01*
X140768422Y-65531457D02*
X140692231Y-65569552D01*
X140692231Y-65569552D02*
X140654136Y-65607647D01*
X140654136Y-65607647D02*
X140616041Y-65683838D01*
X140616041Y-65683838D02*
X140616041Y-65874314D01*
X140616041Y-65874314D02*
X140654136Y-65950504D01*
X140654136Y-65950504D02*
X140692231Y-65988600D01*
X140692231Y-65988600D02*
X140768422Y-66026695D01*
X140768422Y-66026695D02*
X140996993Y-66026695D01*
X140996993Y-66026695D02*
X141073184Y-65988600D01*
X141073184Y-65988600D02*
X141111279Y-65950504D01*
X140387469Y-65226695D02*
X140120802Y-66026695D01*
X140120802Y-66026695D02*
X139854136Y-65226695D01*
X128168304Y-74144136D02*
X128168304Y-73648898D01*
X128168304Y-73648898D02*
X127863542Y-73915564D01*
X127863542Y-73915564D02*
X127863542Y-73801279D01*
X127863542Y-73801279D02*
X127825447Y-73725088D01*
X127825447Y-73725088D02*
X127787352Y-73686993D01*
X127787352Y-73686993D02*
X127711161Y-73648898D01*
X127711161Y-73648898D02*
X127520685Y-73648898D01*
X127520685Y-73648898D02*
X127444495Y-73686993D01*
X127444495Y-73686993D02*
X127406400Y-73725088D01*
X127406400Y-73725088D02*
X127368304Y-73801279D01*
X127368304Y-73801279D02*
X127368304Y-74029850D01*
X127368304Y-74029850D02*
X127406400Y-74106041D01*
X127406400Y-74106041D02*
X127444495Y-74144136D01*
X127444495Y-73306040D02*
X127406400Y-73267945D01*
X127406400Y-73267945D02*
X127368304Y-73306040D01*
X127368304Y-73306040D02*
X127406400Y-73344136D01*
X127406400Y-73344136D02*
X127444495Y-73306040D01*
X127444495Y-73306040D02*
X127368304Y-73306040D01*
X128168304Y-73001279D02*
X128168304Y-72506041D01*
X128168304Y-72506041D02*
X127863542Y-72772707D01*
X127863542Y-72772707D02*
X127863542Y-72658422D01*
X127863542Y-72658422D02*
X127825447Y-72582231D01*
X127825447Y-72582231D02*
X127787352Y-72544136D01*
X127787352Y-72544136D02*
X127711161Y-72506041D01*
X127711161Y-72506041D02*
X127520685Y-72506041D01*
X127520685Y-72506041D02*
X127444495Y-72544136D01*
X127444495Y-72544136D02*
X127406400Y-72582231D01*
X127406400Y-72582231D02*
X127368304Y-72658422D01*
X127368304Y-72658422D02*
X127368304Y-72886993D01*
X127368304Y-72886993D02*
X127406400Y-72963184D01*
X127406400Y-72963184D02*
X127444495Y-73001279D01*
X128168304Y-72277469D02*
X127368304Y-72010802D01*
X127368304Y-72010802D02*
X128168304Y-71744136D01*
X106059136Y-65226695D02*
X105563898Y-65226695D01*
X105563898Y-65226695D02*
X105830564Y-65531457D01*
X105830564Y-65531457D02*
X105716279Y-65531457D01*
X105716279Y-65531457D02*
X105640088Y-65569552D01*
X105640088Y-65569552D02*
X105601993Y-65607647D01*
X105601993Y-65607647D02*
X105563898Y-65683838D01*
X105563898Y-65683838D02*
X105563898Y-65874314D01*
X105563898Y-65874314D02*
X105601993Y-65950504D01*
X105601993Y-65950504D02*
X105640088Y-65988600D01*
X105640088Y-65988600D02*
X105716279Y-66026695D01*
X105716279Y-66026695D02*
X105944850Y-66026695D01*
X105944850Y-66026695D02*
X106021041Y-65988600D01*
X106021041Y-65988600D02*
X106059136Y-65950504D01*
X105221040Y-65950504D02*
X105182945Y-65988600D01*
X105182945Y-65988600D02*
X105221040Y-66026695D01*
X105221040Y-66026695D02*
X105259136Y-65988600D01*
X105259136Y-65988600D02*
X105221040Y-65950504D01*
X105221040Y-65950504D02*
X105221040Y-66026695D01*
X104916279Y-65226695D02*
X104421041Y-65226695D01*
X104421041Y-65226695D02*
X104687707Y-65531457D01*
X104687707Y-65531457D02*
X104573422Y-65531457D01*
X104573422Y-65531457D02*
X104497231Y-65569552D01*
X104497231Y-65569552D02*
X104459136Y-65607647D01*
X104459136Y-65607647D02*
X104421041Y-65683838D01*
X104421041Y-65683838D02*
X104421041Y-65874314D01*
X104421041Y-65874314D02*
X104459136Y-65950504D01*
X104459136Y-65950504D02*
X104497231Y-65988600D01*
X104497231Y-65988600D02*
X104573422Y-66026695D01*
X104573422Y-66026695D02*
X104801993Y-66026695D01*
X104801993Y-66026695D02*
X104878184Y-65988600D01*
X104878184Y-65988600D02*
X104916279Y-65950504D01*
X104192469Y-65226695D02*
X103925802Y-66026695D01*
X103925802Y-66026695D02*
X103659136Y-65226695D01*
X114668304Y-74067945D02*
X115468304Y-74067945D01*
X115468304Y-74067945D02*
X114668304Y-73610802D01*
X114668304Y-73610802D02*
X115468304Y-73610802D01*
X114668304Y-72848898D02*
X114668304Y-73229850D01*
X114668304Y-73229850D02*
X115468304Y-73229850D01*
X115087352Y-72582231D02*
X115087352Y-72315565D01*
X114668304Y-72201279D02*
X114668304Y-72582231D01*
X114668304Y-72582231D02*
X115468304Y-72582231D01*
X115468304Y-72582231D02*
X115468304Y-72201279D01*
X114668304Y-71858421D02*
X115468304Y-71858421D01*
X115468304Y-71858421D02*
X115468304Y-71667945D01*
X115468304Y-71667945D02*
X115430209Y-71553659D01*
X115430209Y-71553659D02*
X115354019Y-71477469D01*
X115354019Y-71477469D02*
X115277828Y-71439374D01*
X115277828Y-71439374D02*
X115125447Y-71401278D01*
X115125447Y-71401278D02*
X115011161Y-71401278D01*
X115011161Y-71401278D02*
X114858780Y-71439374D01*
X114858780Y-71439374D02*
X114782590Y-71477469D01*
X114782590Y-71477469D02*
X114706400Y-71553659D01*
X114706400Y-71553659D02*
X114668304Y-71667945D01*
X114668304Y-71667945D02*
X114668304Y-71858421D01*
X115087352Y-70791755D02*
X115049257Y-70677469D01*
X115049257Y-70677469D02*
X115011161Y-70639374D01*
X115011161Y-70639374D02*
X114934971Y-70601278D01*
X114934971Y-70601278D02*
X114820685Y-70601278D01*
X114820685Y-70601278D02*
X114744495Y-70639374D01*
X114744495Y-70639374D02*
X114706400Y-70677469D01*
X114706400Y-70677469D02*
X114668304Y-70753659D01*
X114668304Y-70753659D02*
X114668304Y-71058421D01*
X114668304Y-71058421D02*
X115468304Y-71058421D01*
X115468304Y-71058421D02*
X115468304Y-70791755D01*
X115468304Y-70791755D02*
X115430209Y-70715564D01*
X115430209Y-70715564D02*
X115392114Y-70677469D01*
X115392114Y-70677469D02*
X115315923Y-70639374D01*
X115315923Y-70639374D02*
X115239733Y-70639374D01*
X115239733Y-70639374D02*
X115163542Y-70677469D01*
X115163542Y-70677469D02*
X115125447Y-70715564D01*
X115125447Y-70715564D02*
X115087352Y-70791755D01*
X115087352Y-70791755D02*
X115087352Y-71058421D01*
X106021041Y-60908600D02*
X105906755Y-60946695D01*
X105906755Y-60946695D02*
X105716279Y-60946695D01*
X105716279Y-60946695D02*
X105640088Y-60908600D01*
X105640088Y-60908600D02*
X105601993Y-60870504D01*
X105601993Y-60870504D02*
X105563898Y-60794314D01*
X105563898Y-60794314D02*
X105563898Y-60718123D01*
X105563898Y-60718123D02*
X105601993Y-60641933D01*
X105601993Y-60641933D02*
X105640088Y-60603838D01*
X105640088Y-60603838D02*
X105716279Y-60565742D01*
X105716279Y-60565742D02*
X105868660Y-60527647D01*
X105868660Y-60527647D02*
X105944850Y-60489552D01*
X105944850Y-60489552D02*
X105982945Y-60451457D01*
X105982945Y-60451457D02*
X106021041Y-60375266D01*
X106021041Y-60375266D02*
X106021041Y-60299076D01*
X106021041Y-60299076D02*
X105982945Y-60222885D01*
X105982945Y-60222885D02*
X105944850Y-60184790D01*
X105944850Y-60184790D02*
X105868660Y-60146695D01*
X105868660Y-60146695D02*
X105678183Y-60146695D01*
X105678183Y-60146695D02*
X105563898Y-60184790D01*
X104763897Y-60870504D02*
X104801993Y-60908600D01*
X104801993Y-60908600D02*
X104916278Y-60946695D01*
X104916278Y-60946695D02*
X104992469Y-60946695D01*
X104992469Y-60946695D02*
X105106755Y-60908600D01*
X105106755Y-60908600D02*
X105182945Y-60832409D01*
X105182945Y-60832409D02*
X105221040Y-60756219D01*
X105221040Y-60756219D02*
X105259136Y-60603838D01*
X105259136Y-60603838D02*
X105259136Y-60489552D01*
X105259136Y-60489552D02*
X105221040Y-60337171D01*
X105221040Y-60337171D02*
X105182945Y-60260980D01*
X105182945Y-60260980D02*
X105106755Y-60184790D01*
X105106755Y-60184790D02*
X104992469Y-60146695D01*
X104992469Y-60146695D02*
X104916278Y-60146695D01*
X104916278Y-60146695D02*
X104801993Y-60184790D01*
X104801993Y-60184790D02*
X104763897Y-60222885D01*
X104040088Y-60946695D02*
X104421040Y-60946695D01*
X104421040Y-60946695D02*
X104421040Y-60146695D01*
X106021041Y-63448600D02*
X105906755Y-63486695D01*
X105906755Y-63486695D02*
X105716279Y-63486695D01*
X105716279Y-63486695D02*
X105640088Y-63448600D01*
X105640088Y-63448600D02*
X105601993Y-63410504D01*
X105601993Y-63410504D02*
X105563898Y-63334314D01*
X105563898Y-63334314D02*
X105563898Y-63258123D01*
X105563898Y-63258123D02*
X105601993Y-63181933D01*
X105601993Y-63181933D02*
X105640088Y-63143838D01*
X105640088Y-63143838D02*
X105716279Y-63105742D01*
X105716279Y-63105742D02*
X105868660Y-63067647D01*
X105868660Y-63067647D02*
X105944850Y-63029552D01*
X105944850Y-63029552D02*
X105982945Y-62991457D01*
X105982945Y-62991457D02*
X106021041Y-62915266D01*
X106021041Y-62915266D02*
X106021041Y-62839076D01*
X106021041Y-62839076D02*
X105982945Y-62762885D01*
X105982945Y-62762885D02*
X105944850Y-62724790D01*
X105944850Y-62724790D02*
X105868660Y-62686695D01*
X105868660Y-62686695D02*
X105678183Y-62686695D01*
X105678183Y-62686695D02*
X105563898Y-62724790D01*
X105221040Y-63486695D02*
X105221040Y-62686695D01*
X105221040Y-62686695D02*
X105030564Y-62686695D01*
X105030564Y-62686695D02*
X104916278Y-62724790D01*
X104916278Y-62724790D02*
X104840088Y-62800980D01*
X104840088Y-62800980D02*
X104801993Y-62877171D01*
X104801993Y-62877171D02*
X104763897Y-63029552D01*
X104763897Y-63029552D02*
X104763897Y-63143838D01*
X104763897Y-63143838D02*
X104801993Y-63296219D01*
X104801993Y-63296219D02*
X104840088Y-63372409D01*
X104840088Y-63372409D02*
X104916278Y-63448600D01*
X104916278Y-63448600D02*
X105030564Y-63486695D01*
X105030564Y-63486695D02*
X105221040Y-63486695D01*
X104459136Y-63258123D02*
X104078183Y-63258123D01*
X104535326Y-63486695D02*
X104268659Y-62686695D01*
X104268659Y-62686695D02*
X104001993Y-63486695D01*
X142216041Y-63448600D02*
X142101755Y-63486695D01*
X142101755Y-63486695D02*
X141911279Y-63486695D01*
X141911279Y-63486695D02*
X141835088Y-63448600D01*
X141835088Y-63448600D02*
X141796993Y-63410504D01*
X141796993Y-63410504D02*
X141758898Y-63334314D01*
X141758898Y-63334314D02*
X141758898Y-63258123D01*
X141758898Y-63258123D02*
X141796993Y-63181933D01*
X141796993Y-63181933D02*
X141835088Y-63143838D01*
X141835088Y-63143838D02*
X141911279Y-63105742D01*
X141911279Y-63105742D02*
X142063660Y-63067647D01*
X142063660Y-63067647D02*
X142139850Y-63029552D01*
X142139850Y-63029552D02*
X142177945Y-62991457D01*
X142177945Y-62991457D02*
X142216041Y-62915266D01*
X142216041Y-62915266D02*
X142216041Y-62839076D01*
X142216041Y-62839076D02*
X142177945Y-62762885D01*
X142177945Y-62762885D02*
X142139850Y-62724790D01*
X142139850Y-62724790D02*
X142063660Y-62686695D01*
X142063660Y-62686695D02*
X141873183Y-62686695D01*
X141873183Y-62686695D02*
X141758898Y-62724790D01*
X141416040Y-63486695D02*
X141416040Y-62686695D01*
X141416040Y-62686695D02*
X141225564Y-62686695D01*
X141225564Y-62686695D02*
X141111278Y-62724790D01*
X141111278Y-62724790D02*
X141035088Y-62800980D01*
X141035088Y-62800980D02*
X140996993Y-62877171D01*
X140996993Y-62877171D02*
X140958897Y-63029552D01*
X140958897Y-63029552D02*
X140958897Y-63143838D01*
X140958897Y-63143838D02*
X140996993Y-63296219D01*
X140996993Y-63296219D02*
X141035088Y-63372409D01*
X141035088Y-63372409D02*
X141111278Y-63448600D01*
X141111278Y-63448600D02*
X141225564Y-63486695D01*
X141225564Y-63486695D02*
X141416040Y-63486695D01*
X140654136Y-63258123D02*
X140273183Y-63258123D01*
X140730326Y-63486695D02*
X140463659Y-62686695D01*
X140463659Y-62686695D02*
X140196993Y-63486695D01*
X141758898Y-67804790D02*
X141835088Y-67766695D01*
X141835088Y-67766695D02*
X141949374Y-67766695D01*
X141949374Y-67766695D02*
X142063660Y-67804790D01*
X142063660Y-67804790D02*
X142139850Y-67880980D01*
X142139850Y-67880980D02*
X142177945Y-67957171D01*
X142177945Y-67957171D02*
X142216041Y-68109552D01*
X142216041Y-68109552D02*
X142216041Y-68223838D01*
X142216041Y-68223838D02*
X142177945Y-68376219D01*
X142177945Y-68376219D02*
X142139850Y-68452409D01*
X142139850Y-68452409D02*
X142063660Y-68528600D01*
X142063660Y-68528600D02*
X141949374Y-68566695D01*
X141949374Y-68566695D02*
X141873183Y-68566695D01*
X141873183Y-68566695D02*
X141758898Y-68528600D01*
X141758898Y-68528600D02*
X141720802Y-68490504D01*
X141720802Y-68490504D02*
X141720802Y-68223838D01*
X141720802Y-68223838D02*
X141873183Y-68223838D01*
X141377945Y-68566695D02*
X141377945Y-67766695D01*
X141377945Y-67766695D02*
X140920802Y-68566695D01*
X140920802Y-68566695D02*
X140920802Y-67766695D01*
X140539850Y-68566695D02*
X140539850Y-67766695D01*
X140539850Y-67766695D02*
X140349374Y-67766695D01*
X140349374Y-67766695D02*
X140235088Y-67804790D01*
X140235088Y-67804790D02*
X140158898Y-67880980D01*
X140158898Y-67880980D02*
X140120803Y-67957171D01*
X140120803Y-67957171D02*
X140082707Y-68109552D01*
X140082707Y-68109552D02*
X140082707Y-68223838D01*
X140082707Y-68223838D02*
X140120803Y-68376219D01*
X140120803Y-68376219D02*
X140158898Y-68452409D01*
X140158898Y-68452409D02*
X140235088Y-68528600D01*
X140235088Y-68528600D02*
X140349374Y-68566695D01*
X140349374Y-68566695D02*
X140539850Y-68566695D01*
X72288304Y-74067945D02*
X73088304Y-74067945D01*
X73088304Y-74067945D02*
X72516876Y-73801279D01*
X72516876Y-73801279D02*
X73088304Y-73534612D01*
X73088304Y-73534612D02*
X72288304Y-73534612D01*
X73088304Y-73001278D02*
X73088304Y-72848897D01*
X73088304Y-72848897D02*
X73050209Y-72772707D01*
X73050209Y-72772707D02*
X72974019Y-72696516D01*
X72974019Y-72696516D02*
X72821638Y-72658421D01*
X72821638Y-72658421D02*
X72554971Y-72658421D01*
X72554971Y-72658421D02*
X72402590Y-72696516D01*
X72402590Y-72696516D02*
X72326400Y-72772707D01*
X72326400Y-72772707D02*
X72288304Y-72848897D01*
X72288304Y-72848897D02*
X72288304Y-73001278D01*
X72288304Y-73001278D02*
X72326400Y-73077469D01*
X72326400Y-73077469D02*
X72402590Y-73153659D01*
X72402590Y-73153659D02*
X72554971Y-73191755D01*
X72554971Y-73191755D02*
X72821638Y-73191755D01*
X72821638Y-73191755D02*
X72974019Y-73153659D01*
X72974019Y-73153659D02*
X73050209Y-73077469D01*
X73050209Y-73077469D02*
X73088304Y-73001278D01*
X73088304Y-72429850D02*
X73088304Y-71972707D01*
X72288304Y-72201279D02*
X73088304Y-72201279D01*
X73088304Y-71553659D02*
X73088304Y-71401278D01*
X73088304Y-71401278D02*
X73050209Y-71325088D01*
X73050209Y-71325088D02*
X72974019Y-71248897D01*
X72974019Y-71248897D02*
X72821638Y-71210802D01*
X72821638Y-71210802D02*
X72554971Y-71210802D01*
X72554971Y-71210802D02*
X72402590Y-71248897D01*
X72402590Y-71248897D02*
X72326400Y-71325088D01*
X72326400Y-71325088D02*
X72288304Y-71401278D01*
X72288304Y-71401278D02*
X72288304Y-71553659D01*
X72288304Y-71553659D02*
X72326400Y-71629850D01*
X72326400Y-71629850D02*
X72402590Y-71706040D01*
X72402590Y-71706040D02*
X72554971Y-71744136D01*
X72554971Y-71744136D02*
X72821638Y-71744136D01*
X72821638Y-71744136D02*
X72974019Y-71706040D01*
X72974019Y-71706040D02*
X73050209Y-71629850D01*
X73050209Y-71629850D02*
X73088304Y-71553659D01*
X72288304Y-70410802D02*
X72669257Y-70677469D01*
X72288304Y-70867945D02*
X73088304Y-70867945D01*
X73088304Y-70867945D02*
X73088304Y-70563183D01*
X73088304Y-70563183D02*
X73050209Y-70486993D01*
X73050209Y-70486993D02*
X73012114Y-70448898D01*
X73012114Y-70448898D02*
X72935923Y-70410802D01*
X72935923Y-70410802D02*
X72821638Y-70410802D01*
X72821638Y-70410802D02*
X72745447Y-70448898D01*
X72745447Y-70448898D02*
X72707352Y-70486993D01*
X72707352Y-70486993D02*
X72669257Y-70563183D01*
X72669257Y-70563183D02*
X72669257Y-70867945D01*
X96837352Y-54116279D02*
X96837352Y-54382945D01*
X96418304Y-54382945D02*
X97218304Y-54382945D01*
X97218304Y-54382945D02*
X97218304Y-54001993D01*
X96418304Y-53240088D02*
X96799257Y-53506755D01*
X96418304Y-53697231D02*
X97218304Y-53697231D01*
X97218304Y-53697231D02*
X97218304Y-53392469D01*
X97218304Y-53392469D02*
X97180209Y-53316279D01*
X97180209Y-53316279D02*
X97142114Y-53278184D01*
X97142114Y-53278184D02*
X97065923Y-53240088D01*
X97065923Y-53240088D02*
X96951638Y-53240088D01*
X96951638Y-53240088D02*
X96875447Y-53278184D01*
X96875447Y-53278184D02*
X96837352Y-53316279D01*
X96837352Y-53316279D02*
X96799257Y-53392469D01*
X96799257Y-53392469D02*
X96799257Y-53697231D01*
X96418304Y-52897231D02*
X97218304Y-52897231D01*
X96837352Y-52516279D02*
X96837352Y-52249613D01*
X96418304Y-52135327D02*
X96418304Y-52516279D01*
X96418304Y-52516279D02*
X97218304Y-52516279D01*
X97218304Y-52516279D02*
X97218304Y-52135327D01*
X96418304Y-51792469D02*
X97218304Y-51792469D01*
X97218304Y-51792469D02*
X96418304Y-51335326D01*
X96418304Y-51335326D02*
X97218304Y-51335326D01*
X96418304Y-50954374D02*
X97218304Y-50954374D01*
X97218304Y-50954374D02*
X97218304Y-50763898D01*
X97218304Y-50763898D02*
X97180209Y-50649612D01*
X97180209Y-50649612D02*
X97104019Y-50573422D01*
X97104019Y-50573422D02*
X97027828Y-50535327D01*
X97027828Y-50535327D02*
X96875447Y-50497231D01*
X96875447Y-50497231D02*
X96761161Y-50497231D01*
X96761161Y-50497231D02*
X96608780Y-50535327D01*
X96608780Y-50535327D02*
X96532590Y-50573422D01*
X96532590Y-50573422D02*
X96456400Y-50649612D01*
X96456400Y-50649612D02*
X96418304Y-50763898D01*
X96418304Y-50763898D02*
X96418304Y-50954374D01*
X96418304Y-49773422D02*
X96418304Y-50154374D01*
X96418304Y-50154374D02*
X97218304Y-50154374D01*
X96799257Y-49354374D02*
X96418304Y-49354374D01*
X97218304Y-49621041D02*
X96799257Y-49354374D01*
X96799257Y-49354374D02*
X97218304Y-49087708D01*
X96837352Y-47944851D02*
X96799257Y-47830565D01*
X96799257Y-47830565D02*
X96761161Y-47792470D01*
X96761161Y-47792470D02*
X96684971Y-47754374D01*
X96684971Y-47754374D02*
X96570685Y-47754374D01*
X96570685Y-47754374D02*
X96494495Y-47792470D01*
X96494495Y-47792470D02*
X96456400Y-47830565D01*
X96456400Y-47830565D02*
X96418304Y-47906755D01*
X96418304Y-47906755D02*
X96418304Y-48211517D01*
X96418304Y-48211517D02*
X97218304Y-48211517D01*
X97218304Y-48211517D02*
X97218304Y-47944851D01*
X97218304Y-47944851D02*
X97180209Y-47868660D01*
X97180209Y-47868660D02*
X97142114Y-47830565D01*
X97142114Y-47830565D02*
X97065923Y-47792470D01*
X97065923Y-47792470D02*
X96989733Y-47792470D01*
X96989733Y-47792470D02*
X96913542Y-47830565D01*
X96913542Y-47830565D02*
X96875447Y-47868660D01*
X96875447Y-47868660D02*
X96837352Y-47944851D01*
X96837352Y-47944851D02*
X96837352Y-48211517D01*
X97218304Y-47259136D02*
X97218304Y-47106755D01*
X97218304Y-47106755D02*
X97180209Y-47030565D01*
X97180209Y-47030565D02*
X97104019Y-46954374D01*
X97104019Y-46954374D02*
X96951638Y-46916279D01*
X96951638Y-46916279D02*
X96684971Y-46916279D01*
X96684971Y-46916279D02*
X96532590Y-46954374D01*
X96532590Y-46954374D02*
X96456400Y-47030565D01*
X96456400Y-47030565D02*
X96418304Y-47106755D01*
X96418304Y-47106755D02*
X96418304Y-47259136D01*
X96418304Y-47259136D02*
X96456400Y-47335327D01*
X96456400Y-47335327D02*
X96532590Y-47411517D01*
X96532590Y-47411517D02*
X96684971Y-47449613D01*
X96684971Y-47449613D02*
X96951638Y-47449613D01*
X96951638Y-47449613D02*
X97104019Y-47411517D01*
X97104019Y-47411517D02*
X97180209Y-47335327D01*
X97180209Y-47335327D02*
X97218304Y-47259136D01*
X96646876Y-46611518D02*
X96646876Y-46230565D01*
X96418304Y-46687708D02*
X97218304Y-46421041D01*
X97218304Y-46421041D02*
X96418304Y-46154375D01*
X96418304Y-45430565D02*
X96799257Y-45697232D01*
X96418304Y-45887708D02*
X97218304Y-45887708D01*
X97218304Y-45887708D02*
X97218304Y-45582946D01*
X97218304Y-45582946D02*
X97180209Y-45506756D01*
X97180209Y-45506756D02*
X97142114Y-45468661D01*
X97142114Y-45468661D02*
X97065923Y-45430565D01*
X97065923Y-45430565D02*
X96951638Y-45430565D01*
X96951638Y-45430565D02*
X96875447Y-45468661D01*
X96875447Y-45468661D02*
X96837352Y-45506756D01*
X96837352Y-45506756D02*
X96799257Y-45582946D01*
X96799257Y-45582946D02*
X96799257Y-45887708D01*
X96418304Y-45087708D02*
X97218304Y-45087708D01*
X97218304Y-45087708D02*
X97218304Y-44897232D01*
X97218304Y-44897232D02*
X97180209Y-44782946D01*
X97180209Y-44782946D02*
X97104019Y-44706756D01*
X97104019Y-44706756D02*
X97027828Y-44668661D01*
X97027828Y-44668661D02*
X96875447Y-44630565D01*
X96875447Y-44630565D02*
X96761161Y-44630565D01*
X96761161Y-44630565D02*
X96608780Y-44668661D01*
X96608780Y-44668661D02*
X96532590Y-44706756D01*
X96532590Y-44706756D02*
X96456400Y-44782946D01*
X96456400Y-44782946D02*
X96418304Y-44897232D01*
X96418304Y-44897232D02*
X96418304Y-45087708D01*
X97180209Y-43259137D02*
X97218304Y-43335327D01*
X97218304Y-43335327D02*
X97218304Y-43449613D01*
X97218304Y-43449613D02*
X97180209Y-43563899D01*
X97180209Y-43563899D02*
X97104019Y-43640089D01*
X97104019Y-43640089D02*
X97027828Y-43678184D01*
X97027828Y-43678184D02*
X96875447Y-43716280D01*
X96875447Y-43716280D02*
X96761161Y-43716280D01*
X96761161Y-43716280D02*
X96608780Y-43678184D01*
X96608780Y-43678184D02*
X96532590Y-43640089D01*
X96532590Y-43640089D02*
X96456400Y-43563899D01*
X96456400Y-43563899D02*
X96418304Y-43449613D01*
X96418304Y-43449613D02*
X96418304Y-43373422D01*
X96418304Y-43373422D02*
X96456400Y-43259137D01*
X96456400Y-43259137D02*
X96494495Y-43221041D01*
X96494495Y-43221041D02*
X96761161Y-43221041D01*
X96761161Y-43221041D02*
X96761161Y-43373422D01*
X96646876Y-42916280D02*
X96646876Y-42535327D01*
X96418304Y-42992470D02*
X97218304Y-42725803D01*
X97218304Y-42725803D02*
X96418304Y-42459137D01*
X96418304Y-42192470D02*
X97218304Y-42192470D01*
X97218304Y-42192470D02*
X96646876Y-41925804D01*
X96646876Y-41925804D02*
X97218304Y-41659137D01*
X97218304Y-41659137D02*
X96418304Y-41659137D01*
X96837352Y-41278184D02*
X96837352Y-41011518D01*
X96418304Y-40897232D02*
X96418304Y-41278184D01*
X96418304Y-41278184D02*
X97218304Y-41278184D01*
X97218304Y-41278184D02*
X97218304Y-40897232D01*
X97218304Y-40059136D02*
X97218304Y-39601993D01*
X96418304Y-39830565D02*
X97218304Y-39830565D01*
X96418304Y-39335326D02*
X97218304Y-39335326D01*
X96418304Y-38573422D02*
X96418304Y-38954374D01*
X96418304Y-38954374D02*
X97218304Y-38954374D01*
X96837352Y-38306755D02*
X96837352Y-38040089D01*
X96418304Y-37925803D02*
X96418304Y-38306755D01*
X96418304Y-38306755D02*
X97218304Y-38306755D01*
X97218304Y-38306755D02*
X97218304Y-37925803D01*
X67208304Y-74067945D02*
X68008304Y-74067945D01*
X68008304Y-74067945D02*
X67208304Y-73610802D01*
X67208304Y-73610802D02*
X68008304Y-73610802D01*
X67208304Y-72848898D02*
X67208304Y-73229850D01*
X67208304Y-73229850D02*
X68008304Y-73229850D01*
X67627352Y-72582231D02*
X67627352Y-72315565D01*
X67208304Y-72201279D02*
X67208304Y-72582231D01*
X67208304Y-72582231D02*
X68008304Y-72582231D01*
X68008304Y-72582231D02*
X68008304Y-72201279D01*
X67208304Y-71858421D02*
X68008304Y-71858421D01*
X68008304Y-71858421D02*
X68008304Y-71667945D01*
X68008304Y-71667945D02*
X67970209Y-71553659D01*
X67970209Y-71553659D02*
X67894019Y-71477469D01*
X67894019Y-71477469D02*
X67817828Y-71439374D01*
X67817828Y-71439374D02*
X67665447Y-71401278D01*
X67665447Y-71401278D02*
X67551161Y-71401278D01*
X67551161Y-71401278D02*
X67398780Y-71439374D01*
X67398780Y-71439374D02*
X67322590Y-71477469D01*
X67322590Y-71477469D02*
X67246400Y-71553659D01*
X67246400Y-71553659D02*
X67208304Y-71667945D01*
X67208304Y-71667945D02*
X67208304Y-71858421D01*
X67970209Y-70639374D02*
X68008304Y-70715564D01*
X68008304Y-70715564D02*
X68008304Y-70829850D01*
X68008304Y-70829850D02*
X67970209Y-70944136D01*
X67970209Y-70944136D02*
X67894019Y-71020326D01*
X67894019Y-71020326D02*
X67817828Y-71058421D01*
X67817828Y-71058421D02*
X67665447Y-71096517D01*
X67665447Y-71096517D02*
X67551161Y-71096517D01*
X67551161Y-71096517D02*
X67398780Y-71058421D01*
X67398780Y-71058421D02*
X67322590Y-71020326D01*
X67322590Y-71020326D02*
X67246400Y-70944136D01*
X67246400Y-70944136D02*
X67208304Y-70829850D01*
X67208304Y-70829850D02*
X67208304Y-70753659D01*
X67208304Y-70753659D02*
X67246400Y-70639374D01*
X67246400Y-70639374D02*
X67284495Y-70601278D01*
X67284495Y-70601278D02*
X67551161Y-70601278D01*
X67551161Y-70601278D02*
X67551161Y-70753659D01*
X86893304Y-53112945D02*
X87693304Y-53112945D01*
X87693304Y-53112945D02*
X86893304Y-52655802D01*
X86893304Y-52655802D02*
X87693304Y-52655802D01*
X86893304Y-51817707D02*
X87274257Y-52084374D01*
X86893304Y-52274850D02*
X87693304Y-52274850D01*
X87693304Y-52274850D02*
X87693304Y-51970088D01*
X87693304Y-51970088D02*
X87655209Y-51893898D01*
X87655209Y-51893898D02*
X87617114Y-51855803D01*
X87617114Y-51855803D02*
X87540923Y-51817707D01*
X87540923Y-51817707D02*
X87426638Y-51817707D01*
X87426638Y-51817707D02*
X87350447Y-51855803D01*
X87350447Y-51855803D02*
X87312352Y-51893898D01*
X87312352Y-51893898D02*
X87274257Y-51970088D01*
X87274257Y-51970088D02*
X87274257Y-52274850D01*
X86931400Y-51512946D02*
X86893304Y-51398660D01*
X86893304Y-51398660D02*
X86893304Y-51208184D01*
X86893304Y-51208184D02*
X86931400Y-51131993D01*
X86931400Y-51131993D02*
X86969495Y-51093898D01*
X86969495Y-51093898D02*
X87045685Y-51055803D01*
X87045685Y-51055803D02*
X87121876Y-51055803D01*
X87121876Y-51055803D02*
X87198066Y-51093898D01*
X87198066Y-51093898D02*
X87236161Y-51131993D01*
X87236161Y-51131993D02*
X87274257Y-51208184D01*
X87274257Y-51208184D02*
X87312352Y-51360565D01*
X87312352Y-51360565D02*
X87350447Y-51436755D01*
X87350447Y-51436755D02*
X87388542Y-51474850D01*
X87388542Y-51474850D02*
X87464733Y-51512946D01*
X87464733Y-51512946D02*
X87540923Y-51512946D01*
X87540923Y-51512946D02*
X87617114Y-51474850D01*
X87617114Y-51474850D02*
X87655209Y-51436755D01*
X87655209Y-51436755D02*
X87693304Y-51360565D01*
X87693304Y-51360565D02*
X87693304Y-51170088D01*
X87693304Y-51170088D02*
X87655209Y-51055803D01*
X87693304Y-50827231D02*
X87693304Y-50370088D01*
X86893304Y-50598660D02*
X87693304Y-50598660D01*
X92735209Y-52693898D02*
X92773304Y-52770088D01*
X92773304Y-52770088D02*
X92773304Y-52884374D01*
X92773304Y-52884374D02*
X92735209Y-52998660D01*
X92735209Y-52998660D02*
X92659019Y-53074850D01*
X92659019Y-53074850D02*
X92582828Y-53112945D01*
X92582828Y-53112945D02*
X92430447Y-53151041D01*
X92430447Y-53151041D02*
X92316161Y-53151041D01*
X92316161Y-53151041D02*
X92163780Y-53112945D01*
X92163780Y-53112945D02*
X92087590Y-53074850D01*
X92087590Y-53074850D02*
X92011400Y-52998660D01*
X92011400Y-52998660D02*
X91973304Y-52884374D01*
X91973304Y-52884374D02*
X91973304Y-52808183D01*
X91973304Y-52808183D02*
X92011400Y-52693898D01*
X92011400Y-52693898D02*
X92049495Y-52655802D01*
X92049495Y-52655802D02*
X92316161Y-52655802D01*
X92316161Y-52655802D02*
X92316161Y-52808183D01*
X91973304Y-52312945D02*
X92773304Y-52312945D01*
X92773304Y-52312945D02*
X91973304Y-51855802D01*
X91973304Y-51855802D02*
X92773304Y-51855802D01*
X91973304Y-51474850D02*
X92773304Y-51474850D01*
X92773304Y-51474850D02*
X92773304Y-51284374D01*
X92773304Y-51284374D02*
X92735209Y-51170088D01*
X92735209Y-51170088D02*
X92659019Y-51093898D01*
X92659019Y-51093898D02*
X92582828Y-51055803D01*
X92582828Y-51055803D02*
X92430447Y-51017707D01*
X92430447Y-51017707D02*
X92316161Y-51017707D01*
X92316161Y-51017707D02*
X92163780Y-51055803D01*
X92163780Y-51055803D02*
X92087590Y-51093898D01*
X92087590Y-51093898D02*
X92011400Y-51170088D01*
X92011400Y-51170088D02*
X91973304Y-51284374D01*
X91973304Y-51284374D02*
X91973304Y-51474850D01*
X80670209Y-73648898D02*
X80708304Y-73725088D01*
X80708304Y-73725088D02*
X80708304Y-73839374D01*
X80708304Y-73839374D02*
X80670209Y-73953660D01*
X80670209Y-73953660D02*
X80594019Y-74029850D01*
X80594019Y-74029850D02*
X80517828Y-74067945D01*
X80517828Y-74067945D02*
X80365447Y-74106041D01*
X80365447Y-74106041D02*
X80251161Y-74106041D01*
X80251161Y-74106041D02*
X80098780Y-74067945D01*
X80098780Y-74067945D02*
X80022590Y-74029850D01*
X80022590Y-74029850D02*
X79946400Y-73953660D01*
X79946400Y-73953660D02*
X79908304Y-73839374D01*
X79908304Y-73839374D02*
X79908304Y-73763183D01*
X79908304Y-73763183D02*
X79946400Y-73648898D01*
X79946400Y-73648898D02*
X79984495Y-73610802D01*
X79984495Y-73610802D02*
X80251161Y-73610802D01*
X80251161Y-73610802D02*
X80251161Y-73763183D01*
X79908304Y-73267945D02*
X80708304Y-73267945D01*
X80708304Y-73267945D02*
X79908304Y-72810802D01*
X79908304Y-72810802D02*
X80708304Y-72810802D01*
X79908304Y-72429850D02*
X80708304Y-72429850D01*
X80708304Y-72429850D02*
X80708304Y-72239374D01*
X80708304Y-72239374D02*
X80670209Y-72125088D01*
X80670209Y-72125088D02*
X80594019Y-72048898D01*
X80594019Y-72048898D02*
X80517828Y-72010803D01*
X80517828Y-72010803D02*
X80365447Y-71972707D01*
X80365447Y-71972707D02*
X80251161Y-71972707D01*
X80251161Y-71972707D02*
X80098780Y-72010803D01*
X80098780Y-72010803D02*
X80022590Y-72048898D01*
X80022590Y-72048898D02*
X79946400Y-72125088D01*
X79946400Y-72125088D02*
X79908304Y-72239374D01*
X79908304Y-72239374D02*
X79908304Y-72429850D01*
X91758898Y-67804790D02*
X91835088Y-67766695D01*
X91835088Y-67766695D02*
X91949374Y-67766695D01*
X91949374Y-67766695D02*
X92063660Y-67804790D01*
X92063660Y-67804790D02*
X92139850Y-67880980D01*
X92139850Y-67880980D02*
X92177945Y-67957171D01*
X92177945Y-67957171D02*
X92216041Y-68109552D01*
X92216041Y-68109552D02*
X92216041Y-68223838D01*
X92216041Y-68223838D02*
X92177945Y-68376219D01*
X92177945Y-68376219D02*
X92139850Y-68452409D01*
X92139850Y-68452409D02*
X92063660Y-68528600D01*
X92063660Y-68528600D02*
X91949374Y-68566695D01*
X91949374Y-68566695D02*
X91873183Y-68566695D01*
X91873183Y-68566695D02*
X91758898Y-68528600D01*
X91758898Y-68528600D02*
X91720802Y-68490504D01*
X91720802Y-68490504D02*
X91720802Y-68223838D01*
X91720802Y-68223838D02*
X91873183Y-68223838D01*
X91377945Y-68566695D02*
X91377945Y-67766695D01*
X91377945Y-67766695D02*
X90920802Y-68566695D01*
X90920802Y-68566695D02*
X90920802Y-67766695D01*
X90539850Y-68566695D02*
X90539850Y-67766695D01*
X90539850Y-67766695D02*
X90349374Y-67766695D01*
X90349374Y-67766695D02*
X90235088Y-67804790D01*
X90235088Y-67804790D02*
X90158898Y-67880980D01*
X90158898Y-67880980D02*
X90120803Y-67957171D01*
X90120803Y-67957171D02*
X90082707Y-68109552D01*
X90082707Y-68109552D02*
X90082707Y-68223838D01*
X90082707Y-68223838D02*
X90120803Y-68376219D01*
X90120803Y-68376219D02*
X90158898Y-68452409D01*
X90158898Y-68452409D02*
X90235088Y-68528600D01*
X90235088Y-68528600D02*
X90349374Y-68566695D01*
X90349374Y-68566695D02*
X90539850Y-68566695D01*
X75628304Y-74144136D02*
X74828304Y-73953660D01*
X74828304Y-73953660D02*
X75399733Y-73801279D01*
X75399733Y-73801279D02*
X74828304Y-73648898D01*
X74828304Y-73648898D02*
X75628304Y-73458422D01*
X74828304Y-73153659D02*
X75628304Y-73153659D01*
X74828304Y-72315564D02*
X75209257Y-72582231D01*
X74828304Y-72772707D02*
X75628304Y-72772707D01*
X75628304Y-72772707D02*
X75628304Y-72467945D01*
X75628304Y-72467945D02*
X75590209Y-72391755D01*
X75590209Y-72391755D02*
X75552114Y-72353660D01*
X75552114Y-72353660D02*
X75475923Y-72315564D01*
X75475923Y-72315564D02*
X75361638Y-72315564D01*
X75361638Y-72315564D02*
X75285447Y-72353660D01*
X75285447Y-72353660D02*
X75247352Y-72391755D01*
X75247352Y-72391755D02*
X75209257Y-72467945D01*
X75209257Y-72467945D02*
X75209257Y-72772707D01*
X75247352Y-71972707D02*
X75247352Y-71706041D01*
X74828304Y-71591755D02*
X74828304Y-71972707D01*
X74828304Y-71972707D02*
X75628304Y-71972707D01*
X75628304Y-71972707D02*
X75628304Y-71591755D01*
X74752114Y-71439374D02*
X74752114Y-70829850D01*
X74828304Y-70639373D02*
X75628304Y-70639373D01*
X74828304Y-70258421D02*
X75628304Y-70258421D01*
X75628304Y-70258421D02*
X75628304Y-70067945D01*
X75628304Y-70067945D02*
X75590209Y-69953659D01*
X75590209Y-69953659D02*
X75514019Y-69877469D01*
X75514019Y-69877469D02*
X75437828Y-69839374D01*
X75437828Y-69839374D02*
X75285447Y-69801278D01*
X75285447Y-69801278D02*
X75171161Y-69801278D01*
X75171161Y-69801278D02*
X75018780Y-69839374D01*
X75018780Y-69839374D02*
X74942590Y-69877469D01*
X74942590Y-69877469D02*
X74866400Y-69953659D01*
X74866400Y-69953659D02*
X74828304Y-70067945D01*
X74828304Y-70067945D02*
X74828304Y-70258421D01*
X64668304Y-74067945D02*
X65468304Y-74067945D01*
X65468304Y-74067945D02*
X64668304Y-73610802D01*
X64668304Y-73610802D02*
X65468304Y-73610802D01*
X64668304Y-72848898D02*
X64668304Y-73229850D01*
X64668304Y-73229850D02*
X65468304Y-73229850D01*
X65087352Y-72582231D02*
X65087352Y-72315565D01*
X64668304Y-72201279D02*
X64668304Y-72582231D01*
X64668304Y-72582231D02*
X65468304Y-72582231D01*
X65468304Y-72582231D02*
X65468304Y-72201279D01*
X64668304Y-71858421D02*
X65468304Y-71858421D01*
X65468304Y-71858421D02*
X65468304Y-71667945D01*
X65468304Y-71667945D02*
X65430209Y-71553659D01*
X65430209Y-71553659D02*
X65354019Y-71477469D01*
X65354019Y-71477469D02*
X65277828Y-71439374D01*
X65277828Y-71439374D02*
X65125447Y-71401278D01*
X65125447Y-71401278D02*
X65011161Y-71401278D01*
X65011161Y-71401278D02*
X64858780Y-71439374D01*
X64858780Y-71439374D02*
X64782590Y-71477469D01*
X64782590Y-71477469D02*
X64706400Y-71553659D01*
X64706400Y-71553659D02*
X64668304Y-71667945D01*
X64668304Y-71667945D02*
X64668304Y-71858421D01*
X65087352Y-70791755D02*
X65049257Y-70677469D01*
X65049257Y-70677469D02*
X65011161Y-70639374D01*
X65011161Y-70639374D02*
X64934971Y-70601278D01*
X64934971Y-70601278D02*
X64820685Y-70601278D01*
X64820685Y-70601278D02*
X64744495Y-70639374D01*
X64744495Y-70639374D02*
X64706400Y-70677469D01*
X64706400Y-70677469D02*
X64668304Y-70753659D01*
X64668304Y-70753659D02*
X64668304Y-71058421D01*
X64668304Y-71058421D02*
X65468304Y-71058421D01*
X65468304Y-71058421D02*
X65468304Y-70791755D01*
X65468304Y-70791755D02*
X65430209Y-70715564D01*
X65430209Y-70715564D02*
X65392114Y-70677469D01*
X65392114Y-70677469D02*
X65315923Y-70639374D01*
X65315923Y-70639374D02*
X65239733Y-70639374D01*
X65239733Y-70639374D02*
X65163542Y-70677469D01*
X65163542Y-70677469D02*
X65125447Y-70715564D01*
X65125447Y-70715564D02*
X65087352Y-70791755D01*
X65087352Y-70791755D02*
X65087352Y-71058421D01*
X92254136Y-65226695D02*
X91758898Y-65226695D01*
X91758898Y-65226695D02*
X92025564Y-65531457D01*
X92025564Y-65531457D02*
X91911279Y-65531457D01*
X91911279Y-65531457D02*
X91835088Y-65569552D01*
X91835088Y-65569552D02*
X91796993Y-65607647D01*
X91796993Y-65607647D02*
X91758898Y-65683838D01*
X91758898Y-65683838D02*
X91758898Y-65874314D01*
X91758898Y-65874314D02*
X91796993Y-65950504D01*
X91796993Y-65950504D02*
X91835088Y-65988600D01*
X91835088Y-65988600D02*
X91911279Y-66026695D01*
X91911279Y-66026695D02*
X92139850Y-66026695D01*
X92139850Y-66026695D02*
X92216041Y-65988600D01*
X92216041Y-65988600D02*
X92254136Y-65950504D01*
X91416040Y-65950504D02*
X91377945Y-65988600D01*
X91377945Y-65988600D02*
X91416040Y-66026695D01*
X91416040Y-66026695D02*
X91454136Y-65988600D01*
X91454136Y-65988600D02*
X91416040Y-65950504D01*
X91416040Y-65950504D02*
X91416040Y-66026695D01*
X91111279Y-65226695D02*
X90616041Y-65226695D01*
X90616041Y-65226695D02*
X90882707Y-65531457D01*
X90882707Y-65531457D02*
X90768422Y-65531457D01*
X90768422Y-65531457D02*
X90692231Y-65569552D01*
X90692231Y-65569552D02*
X90654136Y-65607647D01*
X90654136Y-65607647D02*
X90616041Y-65683838D01*
X90616041Y-65683838D02*
X90616041Y-65874314D01*
X90616041Y-65874314D02*
X90654136Y-65950504D01*
X90654136Y-65950504D02*
X90692231Y-65988600D01*
X90692231Y-65988600D02*
X90768422Y-66026695D01*
X90768422Y-66026695D02*
X90996993Y-66026695D01*
X90996993Y-66026695D02*
X91073184Y-65988600D01*
X91073184Y-65988600D02*
X91111279Y-65950504D01*
X90387469Y-65226695D02*
X90120802Y-66026695D01*
X90120802Y-66026695D02*
X89854136Y-65226695D01*
X92216041Y-60908600D02*
X92101755Y-60946695D01*
X92101755Y-60946695D02*
X91911279Y-60946695D01*
X91911279Y-60946695D02*
X91835088Y-60908600D01*
X91835088Y-60908600D02*
X91796993Y-60870504D01*
X91796993Y-60870504D02*
X91758898Y-60794314D01*
X91758898Y-60794314D02*
X91758898Y-60718123D01*
X91758898Y-60718123D02*
X91796993Y-60641933D01*
X91796993Y-60641933D02*
X91835088Y-60603838D01*
X91835088Y-60603838D02*
X91911279Y-60565742D01*
X91911279Y-60565742D02*
X92063660Y-60527647D01*
X92063660Y-60527647D02*
X92139850Y-60489552D01*
X92139850Y-60489552D02*
X92177945Y-60451457D01*
X92177945Y-60451457D02*
X92216041Y-60375266D01*
X92216041Y-60375266D02*
X92216041Y-60299076D01*
X92216041Y-60299076D02*
X92177945Y-60222885D01*
X92177945Y-60222885D02*
X92139850Y-60184790D01*
X92139850Y-60184790D02*
X92063660Y-60146695D01*
X92063660Y-60146695D02*
X91873183Y-60146695D01*
X91873183Y-60146695D02*
X91758898Y-60184790D01*
X90958897Y-60870504D02*
X90996993Y-60908600D01*
X90996993Y-60908600D02*
X91111278Y-60946695D01*
X91111278Y-60946695D02*
X91187469Y-60946695D01*
X91187469Y-60946695D02*
X91301755Y-60908600D01*
X91301755Y-60908600D02*
X91377945Y-60832409D01*
X91377945Y-60832409D02*
X91416040Y-60756219D01*
X91416040Y-60756219D02*
X91454136Y-60603838D01*
X91454136Y-60603838D02*
X91454136Y-60489552D01*
X91454136Y-60489552D02*
X91416040Y-60337171D01*
X91416040Y-60337171D02*
X91377945Y-60260980D01*
X91377945Y-60260980D02*
X91301755Y-60184790D01*
X91301755Y-60184790D02*
X91187469Y-60146695D01*
X91187469Y-60146695D02*
X91111278Y-60146695D01*
X91111278Y-60146695D02*
X90996993Y-60184790D01*
X90996993Y-60184790D02*
X90958897Y-60222885D01*
X90235088Y-60946695D02*
X90616040Y-60946695D01*
X90616040Y-60946695D02*
X90616040Y-60146695D01*
X78168304Y-74144136D02*
X78168304Y-73648898D01*
X78168304Y-73648898D02*
X77863542Y-73915564D01*
X77863542Y-73915564D02*
X77863542Y-73801279D01*
X77863542Y-73801279D02*
X77825447Y-73725088D01*
X77825447Y-73725088D02*
X77787352Y-73686993D01*
X77787352Y-73686993D02*
X77711161Y-73648898D01*
X77711161Y-73648898D02*
X77520685Y-73648898D01*
X77520685Y-73648898D02*
X77444495Y-73686993D01*
X77444495Y-73686993D02*
X77406400Y-73725088D01*
X77406400Y-73725088D02*
X77368304Y-73801279D01*
X77368304Y-73801279D02*
X77368304Y-74029850D01*
X77368304Y-74029850D02*
X77406400Y-74106041D01*
X77406400Y-74106041D02*
X77444495Y-74144136D01*
X77444495Y-73306040D02*
X77406400Y-73267945D01*
X77406400Y-73267945D02*
X77368304Y-73306040D01*
X77368304Y-73306040D02*
X77406400Y-73344136D01*
X77406400Y-73344136D02*
X77444495Y-73306040D01*
X77444495Y-73306040D02*
X77368304Y-73306040D01*
X78168304Y-73001279D02*
X78168304Y-72506041D01*
X78168304Y-72506041D02*
X77863542Y-72772707D01*
X77863542Y-72772707D02*
X77863542Y-72658422D01*
X77863542Y-72658422D02*
X77825447Y-72582231D01*
X77825447Y-72582231D02*
X77787352Y-72544136D01*
X77787352Y-72544136D02*
X77711161Y-72506041D01*
X77711161Y-72506041D02*
X77520685Y-72506041D01*
X77520685Y-72506041D02*
X77444495Y-72544136D01*
X77444495Y-72544136D02*
X77406400Y-72582231D01*
X77406400Y-72582231D02*
X77368304Y-72658422D01*
X77368304Y-72658422D02*
X77368304Y-72886993D01*
X77368304Y-72886993D02*
X77406400Y-72963184D01*
X77406400Y-72963184D02*
X77444495Y-73001279D01*
X78168304Y-72277469D02*
X77368304Y-72010802D01*
X77368304Y-72010802D02*
X78168304Y-71744136D01*
X56021041Y-60908600D02*
X55906755Y-60946695D01*
X55906755Y-60946695D02*
X55716279Y-60946695D01*
X55716279Y-60946695D02*
X55640088Y-60908600D01*
X55640088Y-60908600D02*
X55601993Y-60870504D01*
X55601993Y-60870504D02*
X55563898Y-60794314D01*
X55563898Y-60794314D02*
X55563898Y-60718123D01*
X55563898Y-60718123D02*
X55601993Y-60641933D01*
X55601993Y-60641933D02*
X55640088Y-60603838D01*
X55640088Y-60603838D02*
X55716279Y-60565742D01*
X55716279Y-60565742D02*
X55868660Y-60527647D01*
X55868660Y-60527647D02*
X55944850Y-60489552D01*
X55944850Y-60489552D02*
X55982945Y-60451457D01*
X55982945Y-60451457D02*
X56021041Y-60375266D01*
X56021041Y-60375266D02*
X56021041Y-60299076D01*
X56021041Y-60299076D02*
X55982945Y-60222885D01*
X55982945Y-60222885D02*
X55944850Y-60184790D01*
X55944850Y-60184790D02*
X55868660Y-60146695D01*
X55868660Y-60146695D02*
X55678183Y-60146695D01*
X55678183Y-60146695D02*
X55563898Y-60184790D01*
X54763897Y-60870504D02*
X54801993Y-60908600D01*
X54801993Y-60908600D02*
X54916278Y-60946695D01*
X54916278Y-60946695D02*
X54992469Y-60946695D01*
X54992469Y-60946695D02*
X55106755Y-60908600D01*
X55106755Y-60908600D02*
X55182945Y-60832409D01*
X55182945Y-60832409D02*
X55221040Y-60756219D01*
X55221040Y-60756219D02*
X55259136Y-60603838D01*
X55259136Y-60603838D02*
X55259136Y-60489552D01*
X55259136Y-60489552D02*
X55221040Y-60337171D01*
X55221040Y-60337171D02*
X55182945Y-60260980D01*
X55182945Y-60260980D02*
X55106755Y-60184790D01*
X55106755Y-60184790D02*
X54992469Y-60146695D01*
X54992469Y-60146695D02*
X54916278Y-60146695D01*
X54916278Y-60146695D02*
X54801993Y-60184790D01*
X54801993Y-60184790D02*
X54763897Y-60222885D01*
X54040088Y-60946695D02*
X54421040Y-60946695D01*
X54421040Y-60946695D02*
X54421040Y-60146695D01*
X92216041Y-63448600D02*
X92101755Y-63486695D01*
X92101755Y-63486695D02*
X91911279Y-63486695D01*
X91911279Y-63486695D02*
X91835088Y-63448600D01*
X91835088Y-63448600D02*
X91796993Y-63410504D01*
X91796993Y-63410504D02*
X91758898Y-63334314D01*
X91758898Y-63334314D02*
X91758898Y-63258123D01*
X91758898Y-63258123D02*
X91796993Y-63181933D01*
X91796993Y-63181933D02*
X91835088Y-63143838D01*
X91835088Y-63143838D02*
X91911279Y-63105742D01*
X91911279Y-63105742D02*
X92063660Y-63067647D01*
X92063660Y-63067647D02*
X92139850Y-63029552D01*
X92139850Y-63029552D02*
X92177945Y-62991457D01*
X92177945Y-62991457D02*
X92216041Y-62915266D01*
X92216041Y-62915266D02*
X92216041Y-62839076D01*
X92216041Y-62839076D02*
X92177945Y-62762885D01*
X92177945Y-62762885D02*
X92139850Y-62724790D01*
X92139850Y-62724790D02*
X92063660Y-62686695D01*
X92063660Y-62686695D02*
X91873183Y-62686695D01*
X91873183Y-62686695D02*
X91758898Y-62724790D01*
X91416040Y-63486695D02*
X91416040Y-62686695D01*
X91416040Y-62686695D02*
X91225564Y-62686695D01*
X91225564Y-62686695D02*
X91111278Y-62724790D01*
X91111278Y-62724790D02*
X91035088Y-62800980D01*
X91035088Y-62800980D02*
X90996993Y-62877171D01*
X90996993Y-62877171D02*
X90958897Y-63029552D01*
X90958897Y-63029552D02*
X90958897Y-63143838D01*
X90958897Y-63143838D02*
X90996993Y-63296219D01*
X90996993Y-63296219D02*
X91035088Y-63372409D01*
X91035088Y-63372409D02*
X91111278Y-63448600D01*
X91111278Y-63448600D02*
X91225564Y-63486695D01*
X91225564Y-63486695D02*
X91416040Y-63486695D01*
X90654136Y-63258123D02*
X90273183Y-63258123D01*
X90730326Y-63486695D02*
X90463659Y-62686695D01*
X90463659Y-62686695D02*
X90196993Y-63486695D01*
X69748304Y-74067945D02*
X70548304Y-74067945D01*
X70548304Y-74067945D02*
X69748304Y-73610802D01*
X69748304Y-73610802D02*
X70548304Y-73610802D01*
X69748304Y-72848898D02*
X69748304Y-73229850D01*
X69748304Y-73229850D02*
X70548304Y-73229850D01*
X70167352Y-72582231D02*
X70167352Y-72315565D01*
X69748304Y-72201279D02*
X69748304Y-72582231D01*
X69748304Y-72582231D02*
X70548304Y-72582231D01*
X70548304Y-72582231D02*
X70548304Y-72201279D01*
X69748304Y-71858421D02*
X70548304Y-71858421D01*
X70548304Y-71858421D02*
X70548304Y-71667945D01*
X70548304Y-71667945D02*
X70510209Y-71553659D01*
X70510209Y-71553659D02*
X70434019Y-71477469D01*
X70434019Y-71477469D02*
X70357828Y-71439374D01*
X70357828Y-71439374D02*
X70205447Y-71401278D01*
X70205447Y-71401278D02*
X70091161Y-71401278D01*
X70091161Y-71401278D02*
X69938780Y-71439374D01*
X69938780Y-71439374D02*
X69862590Y-71477469D01*
X69862590Y-71477469D02*
X69786400Y-71553659D01*
X69786400Y-71553659D02*
X69748304Y-71667945D01*
X69748304Y-71667945D02*
X69748304Y-71858421D01*
X69748304Y-70601278D02*
X70129257Y-70867945D01*
X69748304Y-71058421D02*
X70548304Y-71058421D01*
X70548304Y-71058421D02*
X70548304Y-70753659D01*
X70548304Y-70753659D02*
X70510209Y-70677469D01*
X70510209Y-70677469D02*
X70472114Y-70639374D01*
X70472114Y-70639374D02*
X70395923Y-70601278D01*
X70395923Y-70601278D02*
X70281638Y-70601278D01*
X70281638Y-70601278D02*
X70205447Y-70639374D01*
X70205447Y-70639374D02*
X70167352Y-70677469D01*
X70167352Y-70677469D02*
X70129257Y-70753659D01*
X70129257Y-70753659D02*
X70129257Y-71058421D01*
X56059136Y-65226695D02*
X55563898Y-65226695D01*
X55563898Y-65226695D02*
X55830564Y-65531457D01*
X55830564Y-65531457D02*
X55716279Y-65531457D01*
X55716279Y-65531457D02*
X55640088Y-65569552D01*
X55640088Y-65569552D02*
X55601993Y-65607647D01*
X55601993Y-65607647D02*
X55563898Y-65683838D01*
X55563898Y-65683838D02*
X55563898Y-65874314D01*
X55563898Y-65874314D02*
X55601993Y-65950504D01*
X55601993Y-65950504D02*
X55640088Y-65988600D01*
X55640088Y-65988600D02*
X55716279Y-66026695D01*
X55716279Y-66026695D02*
X55944850Y-66026695D01*
X55944850Y-66026695D02*
X56021041Y-65988600D01*
X56021041Y-65988600D02*
X56059136Y-65950504D01*
X55221040Y-65950504D02*
X55182945Y-65988600D01*
X55182945Y-65988600D02*
X55221040Y-66026695D01*
X55221040Y-66026695D02*
X55259136Y-65988600D01*
X55259136Y-65988600D02*
X55221040Y-65950504D01*
X55221040Y-65950504D02*
X55221040Y-66026695D01*
X54916279Y-65226695D02*
X54421041Y-65226695D01*
X54421041Y-65226695D02*
X54687707Y-65531457D01*
X54687707Y-65531457D02*
X54573422Y-65531457D01*
X54573422Y-65531457D02*
X54497231Y-65569552D01*
X54497231Y-65569552D02*
X54459136Y-65607647D01*
X54459136Y-65607647D02*
X54421041Y-65683838D01*
X54421041Y-65683838D02*
X54421041Y-65874314D01*
X54421041Y-65874314D02*
X54459136Y-65950504D01*
X54459136Y-65950504D02*
X54497231Y-65988600D01*
X54497231Y-65988600D02*
X54573422Y-66026695D01*
X54573422Y-66026695D02*
X54801993Y-66026695D01*
X54801993Y-66026695D02*
X54878184Y-65988600D01*
X54878184Y-65988600D02*
X54916279Y-65950504D01*
X54192469Y-65226695D02*
X53925802Y-66026695D01*
X53925802Y-66026695D02*
X53659136Y-65226695D01*
X55563898Y-67804790D02*
X55640088Y-67766695D01*
X55640088Y-67766695D02*
X55754374Y-67766695D01*
X55754374Y-67766695D02*
X55868660Y-67804790D01*
X55868660Y-67804790D02*
X55944850Y-67880980D01*
X55944850Y-67880980D02*
X55982945Y-67957171D01*
X55982945Y-67957171D02*
X56021041Y-68109552D01*
X56021041Y-68109552D02*
X56021041Y-68223838D01*
X56021041Y-68223838D02*
X55982945Y-68376219D01*
X55982945Y-68376219D02*
X55944850Y-68452409D01*
X55944850Y-68452409D02*
X55868660Y-68528600D01*
X55868660Y-68528600D02*
X55754374Y-68566695D01*
X55754374Y-68566695D02*
X55678183Y-68566695D01*
X55678183Y-68566695D02*
X55563898Y-68528600D01*
X55563898Y-68528600D02*
X55525802Y-68490504D01*
X55525802Y-68490504D02*
X55525802Y-68223838D01*
X55525802Y-68223838D02*
X55678183Y-68223838D01*
X55182945Y-68566695D02*
X55182945Y-67766695D01*
X55182945Y-67766695D02*
X54725802Y-68566695D01*
X54725802Y-68566695D02*
X54725802Y-67766695D01*
X54344850Y-68566695D02*
X54344850Y-67766695D01*
X54344850Y-67766695D02*
X54154374Y-67766695D01*
X54154374Y-67766695D02*
X54040088Y-67804790D01*
X54040088Y-67804790D02*
X53963898Y-67880980D01*
X53963898Y-67880980D02*
X53925803Y-67957171D01*
X53925803Y-67957171D02*
X53887707Y-68109552D01*
X53887707Y-68109552D02*
X53887707Y-68223838D01*
X53887707Y-68223838D02*
X53925803Y-68376219D01*
X53925803Y-68376219D02*
X53963898Y-68452409D01*
X53963898Y-68452409D02*
X54040088Y-68528600D01*
X54040088Y-68528600D02*
X54154374Y-68566695D01*
X54154374Y-68566695D02*
X54344850Y-68566695D01*
X84391400Y-53151041D02*
X84353304Y-53036755D01*
X84353304Y-53036755D02*
X84353304Y-52846279D01*
X84353304Y-52846279D02*
X84391400Y-52770088D01*
X84391400Y-52770088D02*
X84429495Y-52731993D01*
X84429495Y-52731993D02*
X84505685Y-52693898D01*
X84505685Y-52693898D02*
X84581876Y-52693898D01*
X84581876Y-52693898D02*
X84658066Y-52731993D01*
X84658066Y-52731993D02*
X84696161Y-52770088D01*
X84696161Y-52770088D02*
X84734257Y-52846279D01*
X84734257Y-52846279D02*
X84772352Y-52998660D01*
X84772352Y-52998660D02*
X84810447Y-53074850D01*
X84810447Y-53074850D02*
X84848542Y-53112945D01*
X84848542Y-53112945D02*
X84924733Y-53151041D01*
X84924733Y-53151041D02*
X85000923Y-53151041D01*
X85000923Y-53151041D02*
X85077114Y-53112945D01*
X85077114Y-53112945D02*
X85115209Y-53074850D01*
X85115209Y-53074850D02*
X85153304Y-52998660D01*
X85153304Y-52998660D02*
X85153304Y-52808183D01*
X85153304Y-52808183D02*
X85115209Y-52693898D01*
X85153304Y-52427231D02*
X84353304Y-52236755D01*
X84353304Y-52236755D02*
X84924733Y-52084374D01*
X84924733Y-52084374D02*
X84353304Y-51931993D01*
X84353304Y-51931993D02*
X85153304Y-51741517D01*
X84353304Y-51436754D02*
X85153304Y-51436754D01*
X85153304Y-50903421D02*
X85153304Y-50751040D01*
X85153304Y-50751040D02*
X85115209Y-50674850D01*
X85115209Y-50674850D02*
X85039019Y-50598659D01*
X85039019Y-50598659D02*
X84886638Y-50560564D01*
X84886638Y-50560564D02*
X84619971Y-50560564D01*
X84619971Y-50560564D02*
X84467590Y-50598659D01*
X84467590Y-50598659D02*
X84391400Y-50674850D01*
X84391400Y-50674850D02*
X84353304Y-50751040D01*
X84353304Y-50751040D02*
X84353304Y-50903421D01*
X84353304Y-50903421D02*
X84391400Y-50979612D01*
X84391400Y-50979612D02*
X84467590Y-51055802D01*
X84467590Y-51055802D02*
X84619971Y-51093898D01*
X84619971Y-51093898D02*
X84886638Y-51093898D01*
X84886638Y-51093898D02*
X85039019Y-51055802D01*
X85039019Y-51055802D02*
X85115209Y-50979612D01*
X85115209Y-50979612D02*
X85153304Y-50903421D01*
X56021041Y-63448600D02*
X55906755Y-63486695D01*
X55906755Y-63486695D02*
X55716279Y-63486695D01*
X55716279Y-63486695D02*
X55640088Y-63448600D01*
X55640088Y-63448600D02*
X55601993Y-63410504D01*
X55601993Y-63410504D02*
X55563898Y-63334314D01*
X55563898Y-63334314D02*
X55563898Y-63258123D01*
X55563898Y-63258123D02*
X55601993Y-63181933D01*
X55601993Y-63181933D02*
X55640088Y-63143838D01*
X55640088Y-63143838D02*
X55716279Y-63105742D01*
X55716279Y-63105742D02*
X55868660Y-63067647D01*
X55868660Y-63067647D02*
X55944850Y-63029552D01*
X55944850Y-63029552D02*
X55982945Y-62991457D01*
X55982945Y-62991457D02*
X56021041Y-62915266D01*
X56021041Y-62915266D02*
X56021041Y-62839076D01*
X56021041Y-62839076D02*
X55982945Y-62762885D01*
X55982945Y-62762885D02*
X55944850Y-62724790D01*
X55944850Y-62724790D02*
X55868660Y-62686695D01*
X55868660Y-62686695D02*
X55678183Y-62686695D01*
X55678183Y-62686695D02*
X55563898Y-62724790D01*
X55221040Y-63486695D02*
X55221040Y-62686695D01*
X55221040Y-62686695D02*
X55030564Y-62686695D01*
X55030564Y-62686695D02*
X54916278Y-62724790D01*
X54916278Y-62724790D02*
X54840088Y-62800980D01*
X54840088Y-62800980D02*
X54801993Y-62877171D01*
X54801993Y-62877171D02*
X54763897Y-63029552D01*
X54763897Y-63029552D02*
X54763897Y-63143838D01*
X54763897Y-63143838D02*
X54801993Y-63296219D01*
X54801993Y-63296219D02*
X54840088Y-63372409D01*
X54840088Y-63372409D02*
X54916278Y-63448600D01*
X54916278Y-63448600D02*
X55030564Y-63486695D01*
X55030564Y-63486695D02*
X55221040Y-63486695D01*
X54459136Y-63258123D02*
X54078183Y-63258123D01*
X54535326Y-63486695D02*
X54268659Y-62686695D01*
X54268659Y-62686695D02*
X54001993Y-63486695D01*
X90233304Y-53189136D02*
X90233304Y-52693898D01*
X90233304Y-52693898D02*
X89928542Y-52960564D01*
X89928542Y-52960564D02*
X89928542Y-52846279D01*
X89928542Y-52846279D02*
X89890447Y-52770088D01*
X89890447Y-52770088D02*
X89852352Y-52731993D01*
X89852352Y-52731993D02*
X89776161Y-52693898D01*
X89776161Y-52693898D02*
X89585685Y-52693898D01*
X89585685Y-52693898D02*
X89509495Y-52731993D01*
X89509495Y-52731993D02*
X89471400Y-52770088D01*
X89471400Y-52770088D02*
X89433304Y-52846279D01*
X89433304Y-52846279D02*
X89433304Y-53074850D01*
X89433304Y-53074850D02*
X89471400Y-53151041D01*
X89471400Y-53151041D02*
X89509495Y-53189136D01*
X89509495Y-52351040D02*
X89471400Y-52312945D01*
X89471400Y-52312945D02*
X89433304Y-52351040D01*
X89433304Y-52351040D02*
X89471400Y-52389136D01*
X89471400Y-52389136D02*
X89509495Y-52351040D01*
X89509495Y-52351040D02*
X89433304Y-52351040D01*
X90233304Y-52046279D02*
X90233304Y-51551041D01*
X90233304Y-51551041D02*
X89928542Y-51817707D01*
X89928542Y-51817707D02*
X89928542Y-51703422D01*
X89928542Y-51703422D02*
X89890447Y-51627231D01*
X89890447Y-51627231D02*
X89852352Y-51589136D01*
X89852352Y-51589136D02*
X89776161Y-51551041D01*
X89776161Y-51551041D02*
X89585685Y-51551041D01*
X89585685Y-51551041D02*
X89509495Y-51589136D01*
X89509495Y-51589136D02*
X89471400Y-51627231D01*
X89471400Y-51627231D02*
X89433304Y-51703422D01*
X89433304Y-51703422D02*
X89433304Y-51931993D01*
X89433304Y-51931993D02*
X89471400Y-52008184D01*
X89471400Y-52008184D02*
X89509495Y-52046279D01*
X90233304Y-51322469D02*
X89433304Y-51055802D01*
X89433304Y-51055802D02*
X90233304Y-50789136D01*
M02*
