%TF.GenerationSoftware,KiCad,Pcbnew,7.0.11+dfsg-1build4*%
%TF.CreationDate,2026-03-17T20:00:38-05:00*%
%TF.ProjectId,,58585858-5858-4585-9858-585858585858,rev?*%
%TF.SameCoordinates,Original*%
%TF.FileFunction,Profile,NP*%
%FSLAX46Y46*%
G04 Gerber Fmt 4.6, Leading zero omitted, Abs format (unit mm)*
G04 Created by KiCad (PCBNEW 7.0.11+dfsg-1build4) date 2026-03-17 20:00:38*
%MOMM*%
%LPD*%
G01*
G04 APERTURE LIST*
%TA.AperFunction,Profile*%
%ADD10C,0.050000*%
%TD*%
G04 APERTURE END LIST*
D10*
X98355000Y-78975000D02*
X98355000Y-128975000D01*
X98355000Y-128975000D02*
X148355000Y-128975000D01*
X148355000Y-78975000D02*
X148355000Y-128975000D01*
X98355000Y-78975000D02*
X148355000Y-78975000D01*
X48355000Y-78975000D02*
X48355000Y-128975000D01*
X48355000Y-128975000D02*
X98355000Y-128975000D01*
X98355000Y-78975000D02*
X98355000Y-128975000D01*
X48355000Y-78975000D02*
X98355000Y-78975000D01*
X98355000Y-28975000D02*
X98355000Y-78975000D01*
X98355000Y-78975000D02*
X148355000Y-78975000D01*
X148355000Y-28975000D02*
X148355000Y-78975000D01*
X98355000Y-28975000D02*
X148355000Y-28975000D01*
X48355000Y-78975000D02*
X98355000Y-78975000D01*
X48355000Y-28975000D02*
X48355000Y-78975000D01*
X98355000Y-28975000D02*
X98355000Y-78975000D01*
X48355000Y-28975000D02*
X98355000Y-28975000D01*
%TO.C,M1*%
X123609000Y-94491000D02*
X118609000Y-94491000D01*
X118609000Y-94491000D02*
X118609000Y-98491000D01*
X136609000Y-95741000D02*
X123609000Y-95741000D01*
X136609000Y-95741000D02*
X136609000Y-97241000D01*
X123609000Y-95741000D02*
X123609000Y-94491000D01*
X136609000Y-97241000D02*
X123609000Y-97241000D01*
X123609000Y-97241000D02*
X123609000Y-98491000D01*
X123609000Y-98491000D02*
X118609000Y-98491000D01*
X73609000Y-94491000D02*
X68609000Y-94491000D01*
X68609000Y-94491000D02*
X68609000Y-98491000D01*
X86609000Y-95741000D02*
X73609000Y-95741000D01*
X86609000Y-95741000D02*
X86609000Y-97241000D01*
X73609000Y-95741000D02*
X73609000Y-94491000D01*
X86609000Y-97241000D02*
X73609000Y-97241000D01*
X73609000Y-97241000D02*
X73609000Y-98491000D01*
X73609000Y-98491000D02*
X68609000Y-98491000D01*
X123609000Y-44491000D02*
X118609000Y-44491000D01*
X118609000Y-44491000D02*
X118609000Y-48491000D01*
X136609000Y-45741000D02*
X123609000Y-45741000D01*
X136609000Y-45741000D02*
X136609000Y-47241000D01*
X123609000Y-45741000D02*
X123609000Y-44491000D01*
X136609000Y-47241000D02*
X123609000Y-47241000D01*
X123609000Y-47241000D02*
X123609000Y-48491000D01*
X123609000Y-48491000D02*
X118609000Y-48491000D01*
X73609000Y-44491000D02*
X68609000Y-44491000D01*
X68609000Y-44491000D02*
X68609000Y-48491000D01*
X86609000Y-45741000D02*
X73609000Y-45741000D01*
X86609000Y-45741000D02*
X86609000Y-47241000D01*
X73609000Y-45741000D02*
X73609000Y-44491000D01*
X86609000Y-47241000D02*
X73609000Y-47241000D01*
X73609000Y-47241000D02*
X73609000Y-48491000D01*
X73609000Y-48491000D02*
X68609000Y-48491000D01*
%TD*%
M02*
