%TF.GenerationSoftware,KiCad,Pcbnew,7.0.11+dfsg-1build4*%
%TF.CreationDate,2026-03-17T20:00:38-05:00*%
%TF.ProjectId,,58585858-5858-4585-9858-585858585858,rev?*%
%TF.SameCoordinates,Original*%
%TF.FileFunction,Soldermask,Top*%
%TF.FilePolarity,Negative*%
%FSLAX46Y46*%
G04 Gerber Fmt 4.6, Leading zero omitted, Abs format (unit mm)*
G04 Created by KiCad (PCBNEW 7.0.11+dfsg-1build4) date 2026-03-17 20:00:38*
%MOMM*%
%LPD*%
G01*
G04 APERTURE LIST*
G04 Aperture macros list*
%AMRoundRect*
0 Rectangle with rounded corners*
0 $1 Rounding radius*
0 $2 $3 $4 $5 $6 $7 $8 $9 X,Y pos of 4 corners*
0 Add a 4 corners polygon primitive as box body*
4,1,4,$2,$3,$4,$5,$6,$7,$8,$9,$2,$3,0*
0 Add four circle primitives for the rounded corners*
1,1,$1+$1,$2,$3*
1,1,$1+$1,$4,$5*
1,1,$1+$1,$6,$7*
1,1,$1+$1,$8,$9*
0 Add four rect primitives between the rounded corners*
20,1,$1+$1,$2,$3,$4,$5,0*
20,1,$1+$1,$4,$5,$6,$7,0*
20,1,$1+$1,$6,$7,$8,$9,0*
20,1,$1+$1,$8,$9,$2,$3,0*%
G04 Aperture macros list end*
%ADD10RoundRect,0.250000X-0.350000X-0.450000X0.350000X-0.450000X0.350000X0.450000X-0.350000X0.450000X0*%
%ADD11RoundRect,0.250000X0.350000X0.450000X-0.350000X0.450000X-0.350000X-0.450000X0.350000X-0.450000X0*%
%ADD12RoundRect,0.225000X-0.225000X-0.375000X0.225000X-0.375000X0.225000X0.375000X-0.225000X0.375000X0*%
%ADD13R,1.700000X1.700000*%
%ADD14O,1.700000X1.700000*%
%ADD15RoundRect,0.150000X-0.587500X-0.150000X0.587500X-0.150000X0.587500X0.150000X-0.587500X0.150000X0*%
%ADD16C,3.000000*%
%ADD17RoundRect,0.150000X0.587500X0.150000X-0.587500X0.150000X-0.587500X-0.150000X0.587500X-0.150000X0*%
%ADD18RoundRect,0.250000X-0.450000X0.350000X-0.450000X-0.350000X0.450000X-0.350000X0.450000X0.350000X0*%
%ADD19C,1.500000*%
%ADD20O,0.800000X1.800000*%
%ADD21R,1.500000X0.900000*%
%ADD22C,2.500000*%
%ADD23C,1.300000*%
%ADD24RoundRect,0.150000X0.150000X-0.850000X0.150000X0.850000X-0.150000X0.850000X-0.150000X-0.850000X0*%
%ADD25RoundRect,0.250000X-0.475000X0.337500X-0.475000X-0.337500X0.475000X-0.337500X0.475000X0.337500X0*%
%ADD26RoundRect,0.250000X-0.337500X-0.475000X0.337500X-0.475000X0.337500X0.475000X-0.337500X0.475000X0*%
%ADD27R,2.440000X1.120000*%
G04 APERTURE END LIST*
D10*
%TO.C,R15*%
X116751000Y-115627000D03*
X118751000Y-115627000D03*
%TD*%
%TO.C,R6*%
X120561000Y-88195000D03*
X122561000Y-88195000D03*
%TD*%
D11*
%TO.C,R13*%
X113671000Y-93275000D03*
X111671000Y-93275000D03*
%TD*%
%TO.C,R12*%
X113671000Y-95815000D03*
X111671000Y-95815000D03*
%TD*%
D12*
%TO.C,D2*%
X129929000Y-88195000D03*
X133229000Y-88195000D03*
%TD*%
D13*
%TO.C,J3*%
X130943000Y-127057000D03*
D14*
X128403000Y-127057000D03*
X125863000Y-127057000D03*
X123323000Y-127057000D03*
X120783000Y-127057000D03*
X118243000Y-127057000D03*
X115703000Y-127057000D03*
%TD*%
D15*
%TO.C,Q1*%
X136180000Y-88007000D03*
X136180000Y-89907000D03*
X138055000Y-88957000D03*
%TD*%
D16*
%TO.C,MH03*%
X102355000Y-124975000D03*
%TD*%
D10*
%TO.C,R17*%
X120561000Y-91751000D03*
X122561000Y-91751000D03*
%TD*%
D13*
%TO.C,J2*%
X142373000Y-105975000D03*
D14*
X139833000Y-105975000D03*
X137293000Y-105975000D03*
X134753000Y-105975000D03*
%TD*%
D11*
%TO.C,R11*%
X113671000Y-98355000D03*
X111671000Y-98355000D03*
%TD*%
D17*
%TO.C,Q3*%
X122561000Y-83623000D03*
X122561000Y-81723000D03*
X120686000Y-82673000D03*
%TD*%
D18*
%TO.C,R3*%
X111131000Y-82607000D03*
X111131000Y-84607000D03*
%TD*%
D17*
%TO.C,Q2*%
X118497000Y-83623000D03*
X118497000Y-81723000D03*
X116622000Y-82673000D03*
%TD*%
D11*
%TO.C,R10*%
X113671000Y-100895000D03*
X111671000Y-100895000D03*
%TD*%
D19*
%TO.C,J1*%
X123355000Y-103975000D03*
D20*
X121775000Y-103975000D03*
X124935000Y-103975000D03*
%TD*%
D18*
%TO.C,R4*%
X108845000Y-82607000D03*
X108845000Y-84607000D03*
%TD*%
D10*
%TO.C,R14*%
X116751000Y-112267000D03*
X118751000Y-112267000D03*
%TD*%
D18*
%TO.C,R2*%
X113417000Y-82607000D03*
X113417000Y-84607000D03*
%TD*%
D10*
%TO.C,R7*%
X124863000Y-88195000D03*
X126863000Y-88195000D03*
%TD*%
%TO.C,R16*%
X116751000Y-118929000D03*
X118751000Y-118929000D03*
%TD*%
D21*
%TO.C,D1*%
X112655000Y-88319000D03*
X112655000Y-89719000D03*
X109555000Y-88319000D03*
X109555000Y-89719000D03*
%TD*%
D17*
%TO.C,Q4*%
X126625000Y-83623000D03*
X126625000Y-81723000D03*
X124750000Y-82673000D03*
%TD*%
D22*
%TO.C,M1*%
X133609000Y-93491000D03*
X127569000Y-93491000D03*
X133609000Y-99491000D03*
X127569000Y-99491000D03*
D23*
X138309000Y-94291000D03*
X138309000Y-98691000D03*
%TD*%
D24*
%TO.C,U1*%
X126244000Y-117111000D03*
X127514000Y-117111000D03*
X128784000Y-117111000D03*
X130054000Y-117111000D03*
X131324000Y-117111000D03*
X132594000Y-117111000D03*
X133864000Y-117111000D03*
X135134000Y-117111000D03*
X135134000Y-112111000D03*
X133864000Y-112111000D03*
X132594000Y-112111000D03*
X131324000Y-112111000D03*
X130054000Y-112111000D03*
X128784000Y-112111000D03*
X127514000Y-112111000D03*
X126244000Y-112111000D03*
%TD*%
D16*
%TO.C,MH02*%
X144355000Y-82975000D03*
%TD*%
%TO.C,MH04*%
X144355000Y-124975000D03*
%TD*%
%TO.C,MH01*%
X102355000Y-82975000D03*
%TD*%
D10*
%TO.C,R5*%
X116497000Y-88195000D03*
X118497000Y-88195000D03*
%TD*%
D13*
%TO.C,J4*%
X145501000Y-118431000D03*
D14*
X145501000Y-115891000D03*
X145501000Y-113351000D03*
X145501000Y-110811000D03*
%TD*%
D25*
%TO.C,C2*%
X122815000Y-113552000D03*
X122815000Y-115627000D03*
%TD*%
D11*
%TO.C,R8*%
X113671000Y-105975000D03*
X111671000Y-105975000D03*
%TD*%
D13*
%TO.C,J5*%
X101209000Y-118431000D03*
D14*
X101209000Y-115891000D03*
X101209000Y-113351000D03*
X101209000Y-110811000D03*
%TD*%
D26*
%TO.C,C1*%
X130138000Y-84385000D03*
X132213000Y-84385000D03*
%TD*%
D10*
%TO.C,R1*%
X135039000Y-84385000D03*
X137039000Y-84385000D03*
%TD*%
D11*
%TO.C,R9*%
X113671000Y-103435000D03*
X111671000Y-103435000D03*
%TD*%
D27*
%TO.C,SW1*%
X108845000Y-105975000D03*
X108845000Y-103435000D03*
X108845000Y-100895000D03*
X108845000Y-98355000D03*
X108845000Y-95815000D03*
X108845000Y-93275000D03*
X100235000Y-93275000D03*
X100235000Y-95815000D03*
X100235000Y-98355000D03*
X100235000Y-100895000D03*
X100235000Y-103435000D03*
X100235000Y-105975000D03*
%TD*%
D10*
%TO.C,R15*%
X66751000Y-115627000D03*
X68751000Y-115627000D03*
%TD*%
%TO.C,R6*%
X70561000Y-88195000D03*
X72561000Y-88195000D03*
%TD*%
D11*
%TO.C,R13*%
X63671000Y-93275000D03*
X61671000Y-93275000D03*
%TD*%
%TO.C,R12*%
X63671000Y-95815000D03*
X61671000Y-95815000D03*
%TD*%
D12*
%TO.C,D2*%
X79929000Y-88195000D03*
X83229000Y-88195000D03*
%TD*%
D13*
%TO.C,J3*%
X80943000Y-127057000D03*
D14*
X78403000Y-127057000D03*
X75863000Y-127057000D03*
X73323000Y-127057000D03*
X70783000Y-127057000D03*
X68243000Y-127057000D03*
X65703000Y-127057000D03*
%TD*%
D15*
%TO.C,Q1*%
X86180000Y-88007000D03*
X86180000Y-89907000D03*
X88055000Y-88957000D03*
%TD*%
D16*
%TO.C,MH03*%
X52355000Y-124975000D03*
%TD*%
D10*
%TO.C,R17*%
X70561000Y-91751000D03*
X72561000Y-91751000D03*
%TD*%
D13*
%TO.C,J2*%
X92373000Y-105975000D03*
D14*
X89833000Y-105975000D03*
X87293000Y-105975000D03*
X84753000Y-105975000D03*
%TD*%
D11*
%TO.C,R11*%
X63671000Y-98355000D03*
X61671000Y-98355000D03*
%TD*%
D17*
%TO.C,Q3*%
X72561000Y-83623000D03*
X72561000Y-81723000D03*
X70686000Y-82673000D03*
%TD*%
D18*
%TO.C,R3*%
X61131000Y-82607000D03*
X61131000Y-84607000D03*
%TD*%
D17*
%TO.C,Q2*%
X68497000Y-83623000D03*
X68497000Y-81723000D03*
X66622000Y-82673000D03*
%TD*%
D11*
%TO.C,R10*%
X63671000Y-100895000D03*
X61671000Y-100895000D03*
%TD*%
D19*
%TO.C,J1*%
X73355000Y-103975000D03*
D20*
X71775000Y-103975000D03*
X74935000Y-103975000D03*
%TD*%
D18*
%TO.C,R4*%
X58845000Y-82607000D03*
X58845000Y-84607000D03*
%TD*%
D10*
%TO.C,R14*%
X66751000Y-112267000D03*
X68751000Y-112267000D03*
%TD*%
D18*
%TO.C,R2*%
X63417000Y-82607000D03*
X63417000Y-84607000D03*
%TD*%
D10*
%TO.C,R7*%
X74863000Y-88195000D03*
X76863000Y-88195000D03*
%TD*%
%TO.C,R16*%
X66751000Y-118929000D03*
X68751000Y-118929000D03*
%TD*%
D21*
%TO.C,D1*%
X62655000Y-88319000D03*
X62655000Y-89719000D03*
X59555000Y-88319000D03*
X59555000Y-89719000D03*
%TD*%
D17*
%TO.C,Q4*%
X76625000Y-83623000D03*
X76625000Y-81723000D03*
X74750000Y-82673000D03*
%TD*%
D22*
%TO.C,M1*%
X83609000Y-93491000D03*
X77569000Y-93491000D03*
X83609000Y-99491000D03*
X77569000Y-99491000D03*
D23*
X88309000Y-94291000D03*
X88309000Y-98691000D03*
%TD*%
D24*
%TO.C,U1*%
X76244000Y-117111000D03*
X77514000Y-117111000D03*
X78784000Y-117111000D03*
X80054000Y-117111000D03*
X81324000Y-117111000D03*
X82594000Y-117111000D03*
X83864000Y-117111000D03*
X85134000Y-117111000D03*
X85134000Y-112111000D03*
X83864000Y-112111000D03*
X82594000Y-112111000D03*
X81324000Y-112111000D03*
X80054000Y-112111000D03*
X78784000Y-112111000D03*
X77514000Y-112111000D03*
X76244000Y-112111000D03*
%TD*%
D16*
%TO.C,MH02*%
X94355000Y-82975000D03*
%TD*%
%TO.C,MH04*%
X94355000Y-124975000D03*
%TD*%
%TO.C,MH01*%
X52355000Y-82975000D03*
%TD*%
D10*
%TO.C,R5*%
X66497000Y-88195000D03*
X68497000Y-88195000D03*
%TD*%
D13*
%TO.C,J4*%
X95501000Y-118431000D03*
D14*
X95501000Y-115891000D03*
X95501000Y-113351000D03*
X95501000Y-110811000D03*
%TD*%
D25*
%TO.C,C2*%
X72815000Y-113552000D03*
X72815000Y-115627000D03*
%TD*%
D11*
%TO.C,R8*%
X63671000Y-105975000D03*
X61671000Y-105975000D03*
%TD*%
D13*
%TO.C,J5*%
X51209000Y-118431000D03*
D14*
X51209000Y-115891000D03*
X51209000Y-113351000D03*
X51209000Y-110811000D03*
%TD*%
D26*
%TO.C,C1*%
X80138000Y-84385000D03*
X82213000Y-84385000D03*
%TD*%
D10*
%TO.C,R1*%
X85039000Y-84385000D03*
X87039000Y-84385000D03*
%TD*%
D11*
%TO.C,R9*%
X63671000Y-103435000D03*
X61671000Y-103435000D03*
%TD*%
D27*
%TO.C,SW1*%
X58845000Y-105975000D03*
X58845000Y-103435000D03*
X58845000Y-100895000D03*
X58845000Y-98355000D03*
X58845000Y-95815000D03*
X58845000Y-93275000D03*
X50235000Y-93275000D03*
X50235000Y-95815000D03*
X50235000Y-98355000D03*
X50235000Y-100895000D03*
X50235000Y-103435000D03*
X50235000Y-105975000D03*
%TD*%
D10*
%TO.C,R15*%
X116751000Y-65627000D03*
X118751000Y-65627000D03*
%TD*%
%TO.C,R6*%
X120561000Y-38195000D03*
X122561000Y-38195000D03*
%TD*%
D11*
%TO.C,R13*%
X113671000Y-43275000D03*
X111671000Y-43275000D03*
%TD*%
%TO.C,R12*%
X113671000Y-45815000D03*
X111671000Y-45815000D03*
%TD*%
D12*
%TO.C,D2*%
X129929000Y-38195000D03*
X133229000Y-38195000D03*
%TD*%
D13*
%TO.C,J3*%
X130943000Y-77057000D03*
D14*
X128403000Y-77057000D03*
X125863000Y-77057000D03*
X123323000Y-77057000D03*
X120783000Y-77057000D03*
X118243000Y-77057000D03*
X115703000Y-77057000D03*
%TD*%
D15*
%TO.C,Q1*%
X136180000Y-38007000D03*
X136180000Y-39907000D03*
X138055000Y-38957000D03*
%TD*%
D16*
%TO.C,MH03*%
X102355000Y-74975000D03*
%TD*%
D10*
%TO.C,R17*%
X120561000Y-41751000D03*
X122561000Y-41751000D03*
%TD*%
D13*
%TO.C,J2*%
X142373000Y-55975000D03*
D14*
X139833000Y-55975000D03*
X137293000Y-55975000D03*
X134753000Y-55975000D03*
%TD*%
D11*
%TO.C,R11*%
X113671000Y-48355000D03*
X111671000Y-48355000D03*
%TD*%
D17*
%TO.C,Q3*%
X122561000Y-33623000D03*
X122561000Y-31723000D03*
X120686000Y-32673000D03*
%TD*%
D18*
%TO.C,R3*%
X111131000Y-32607000D03*
X111131000Y-34607000D03*
%TD*%
D17*
%TO.C,Q2*%
X118497000Y-33623000D03*
X118497000Y-31723000D03*
X116622000Y-32673000D03*
%TD*%
D11*
%TO.C,R10*%
X113671000Y-50895000D03*
X111671000Y-50895000D03*
%TD*%
D19*
%TO.C,J1*%
X123355000Y-53975000D03*
D20*
X121775000Y-53975000D03*
X124935000Y-53975000D03*
%TD*%
D18*
%TO.C,R4*%
X108845000Y-32607000D03*
X108845000Y-34607000D03*
%TD*%
D10*
%TO.C,R14*%
X116751000Y-62267000D03*
X118751000Y-62267000D03*
%TD*%
D18*
%TO.C,R2*%
X113417000Y-32607000D03*
X113417000Y-34607000D03*
%TD*%
D10*
%TO.C,R7*%
X124863000Y-38195000D03*
X126863000Y-38195000D03*
%TD*%
%TO.C,R16*%
X116751000Y-68929000D03*
X118751000Y-68929000D03*
%TD*%
D21*
%TO.C,D1*%
X112655000Y-38319000D03*
X112655000Y-39719000D03*
X109555000Y-38319000D03*
X109555000Y-39719000D03*
%TD*%
D17*
%TO.C,Q4*%
X126625000Y-33623000D03*
X126625000Y-31723000D03*
X124750000Y-32673000D03*
%TD*%
D22*
%TO.C,M1*%
X133609000Y-43491000D03*
X127569000Y-43491000D03*
X133609000Y-49491000D03*
X127569000Y-49491000D03*
D23*
X138309000Y-44291000D03*
X138309000Y-48691000D03*
%TD*%
D24*
%TO.C,U1*%
X126244000Y-67111000D03*
X127514000Y-67111000D03*
X128784000Y-67111000D03*
X130054000Y-67111000D03*
X131324000Y-67111000D03*
X132594000Y-67111000D03*
X133864000Y-67111000D03*
X135134000Y-67111000D03*
X135134000Y-62111000D03*
X133864000Y-62111000D03*
X132594000Y-62111000D03*
X131324000Y-62111000D03*
X130054000Y-62111000D03*
X128784000Y-62111000D03*
X127514000Y-62111000D03*
X126244000Y-62111000D03*
%TD*%
D16*
%TO.C,MH02*%
X144355000Y-32975000D03*
%TD*%
%TO.C,MH04*%
X144355000Y-74975000D03*
%TD*%
%TO.C,MH01*%
X102355000Y-32975000D03*
%TD*%
D10*
%TO.C,R5*%
X116497000Y-38195000D03*
X118497000Y-38195000D03*
%TD*%
D13*
%TO.C,J4*%
X145501000Y-68431000D03*
D14*
X145501000Y-65891000D03*
X145501000Y-63351000D03*
X145501000Y-60811000D03*
%TD*%
D25*
%TO.C,C2*%
X122815000Y-63552000D03*
X122815000Y-65627000D03*
%TD*%
D11*
%TO.C,R8*%
X113671000Y-55975000D03*
X111671000Y-55975000D03*
%TD*%
D13*
%TO.C,J5*%
X101209000Y-68431000D03*
D14*
X101209000Y-65891000D03*
X101209000Y-63351000D03*
X101209000Y-60811000D03*
%TD*%
D26*
%TO.C,C1*%
X130138000Y-34385000D03*
X132213000Y-34385000D03*
%TD*%
D10*
%TO.C,R1*%
X135039000Y-34385000D03*
X137039000Y-34385000D03*
%TD*%
D11*
%TO.C,R9*%
X113671000Y-53435000D03*
X111671000Y-53435000D03*
%TD*%
D27*
%TO.C,SW1*%
X108845000Y-55975000D03*
X108845000Y-53435000D03*
X108845000Y-50895000D03*
X108845000Y-48355000D03*
X108845000Y-45815000D03*
X108845000Y-43275000D03*
X100235000Y-43275000D03*
X100235000Y-45815000D03*
X100235000Y-48355000D03*
X100235000Y-50895000D03*
X100235000Y-53435000D03*
X100235000Y-55975000D03*
%TD*%
D22*
%TO.C,M1*%
X83609000Y-43491000D03*
X77569000Y-43491000D03*
X83609000Y-49491000D03*
X77569000Y-49491000D03*
D23*
X88309000Y-44291000D03*
X88309000Y-48691000D03*
%TD*%
D11*
%TO.C,R9*%
X63671000Y-53435000D03*
X61671000Y-53435000D03*
%TD*%
D16*
%TO.C,MH02*%
X94355000Y-32975000D03*
%TD*%
D17*
%TO.C,Q3*%
X72561000Y-33623000D03*
X72561000Y-31723000D03*
X70686000Y-32673000D03*
%TD*%
D13*
%TO.C,J2*%
X92373000Y-55975000D03*
D14*
X89833000Y-55975000D03*
X87293000Y-55975000D03*
X84753000Y-55975000D03*
%TD*%
D18*
%TO.C,R4*%
X58845000Y-32607000D03*
X58845000Y-34607000D03*
%TD*%
D10*
%TO.C,R7*%
X74863000Y-38195000D03*
X76863000Y-38195000D03*
%TD*%
%TO.C,R6*%
X70561000Y-38195000D03*
X72561000Y-38195000D03*
%TD*%
D16*
%TO.C,MH03*%
X52355000Y-74975000D03*
%TD*%
D25*
%TO.C,C2*%
X72815000Y-63552000D03*
X72815000Y-65627000D03*
%TD*%
D11*
%TO.C,R11*%
X63671000Y-48355000D03*
X61671000Y-48355000D03*
%TD*%
%TO.C,R10*%
X63671000Y-50895000D03*
X61671000Y-50895000D03*
%TD*%
D18*
%TO.C,R3*%
X61131000Y-32607000D03*
X61131000Y-34607000D03*
%TD*%
D26*
%TO.C,C1*%
X80138000Y-34385000D03*
X82213000Y-34385000D03*
%TD*%
D10*
%TO.C,R16*%
X66751000Y-68929000D03*
X68751000Y-68929000D03*
%TD*%
D16*
%TO.C,MH01*%
X52355000Y-32975000D03*
%TD*%
D11*
%TO.C,R13*%
X63671000Y-43275000D03*
X61671000Y-43275000D03*
%TD*%
%TO.C,R12*%
X63671000Y-45815000D03*
X61671000Y-45815000D03*
%TD*%
D27*
%TO.C,SW1*%
X58845000Y-55975000D03*
X58845000Y-53435000D03*
X58845000Y-50895000D03*
X58845000Y-48355000D03*
X58845000Y-45815000D03*
X58845000Y-43275000D03*
X50235000Y-43275000D03*
X50235000Y-45815000D03*
X50235000Y-48355000D03*
X50235000Y-50895000D03*
X50235000Y-53435000D03*
X50235000Y-55975000D03*
%TD*%
D19*
%TO.C,J1*%
X73355000Y-53975000D03*
D20*
X71775000Y-53975000D03*
X74935000Y-53975000D03*
%TD*%
D10*
%TO.C,R14*%
X66751000Y-62267000D03*
X68751000Y-62267000D03*
%TD*%
D24*
%TO.C,U1*%
X76244000Y-67111000D03*
X77514000Y-67111000D03*
X78784000Y-67111000D03*
X80054000Y-67111000D03*
X81324000Y-67111000D03*
X82594000Y-67111000D03*
X83864000Y-67111000D03*
X85134000Y-67111000D03*
X85134000Y-62111000D03*
X83864000Y-62111000D03*
X82594000Y-62111000D03*
X81324000Y-62111000D03*
X80054000Y-62111000D03*
X78784000Y-62111000D03*
X77514000Y-62111000D03*
X76244000Y-62111000D03*
%TD*%
D13*
%TO.C,J5*%
X51209000Y-68431000D03*
D14*
X51209000Y-65891000D03*
X51209000Y-63351000D03*
X51209000Y-60811000D03*
%TD*%
D17*
%TO.C,Q4*%
X76625000Y-33623000D03*
X76625000Y-31723000D03*
X74750000Y-32673000D03*
%TD*%
D15*
%TO.C,Q1*%
X86180000Y-38007000D03*
X86180000Y-39907000D03*
X88055000Y-38957000D03*
%TD*%
D10*
%TO.C,R1*%
X85039000Y-34385000D03*
X87039000Y-34385000D03*
%TD*%
D13*
%TO.C,J4*%
X95501000Y-68431000D03*
D14*
X95501000Y-65891000D03*
X95501000Y-63351000D03*
X95501000Y-60811000D03*
%TD*%
D10*
%TO.C,R5*%
X66497000Y-38195000D03*
X68497000Y-38195000D03*
%TD*%
%TO.C,R17*%
X70561000Y-41751000D03*
X72561000Y-41751000D03*
%TD*%
D16*
%TO.C,MH04*%
X94355000Y-74975000D03*
%TD*%
D11*
%TO.C,R8*%
X63671000Y-55975000D03*
X61671000Y-55975000D03*
%TD*%
D21*
%TO.C,D1*%
X62655000Y-38319000D03*
X62655000Y-39719000D03*
X59555000Y-38319000D03*
X59555000Y-39719000D03*
%TD*%
D12*
%TO.C,D2*%
X79929000Y-38195000D03*
X83229000Y-38195000D03*
%TD*%
D17*
%TO.C,Q2*%
X68497000Y-33623000D03*
X68497000Y-31723000D03*
X66622000Y-32673000D03*
%TD*%
D13*
%TO.C,J3*%
X80943000Y-77057000D03*
D14*
X78403000Y-77057000D03*
X75863000Y-77057000D03*
X73323000Y-77057000D03*
X70783000Y-77057000D03*
X68243000Y-77057000D03*
X65703000Y-77057000D03*
%TD*%
D10*
%TO.C,R15*%
X66751000Y-65627000D03*
X68751000Y-65627000D03*
%TD*%
D18*
%TO.C,R2*%
X63417000Y-32607000D03*
X63417000Y-34607000D03*
%TD*%
M02*
