%TF.GenerationSoftware,KiCad,Pcbnew,7.0.11+dfsg-1build4*%
%TF.CreationDate,2026-03-17T20:00:38-05:00*%
%TF.ProjectId,,58585858-5858-4585-9858-585858585858,rev?*%
%TF.SameCoordinates,Original*%
%TF.FileFunction,Paste,Top*%
%TF.FilePolarity,Positive*%
%FSLAX46Y46*%
G04 Gerber Fmt 4.6, Leading zero omitted, Abs format (unit mm)*
G04 Created by KiCad (PCBNEW 7.0.11+dfsg-1build4) date 2026-03-17 20:00:38*
%MOMM*%
%LPD*%
G01*
G04 APERTURE LIST*
G04 Aperture macros list*
%AMRoundRect*
0 Rectangle with rounded corners*
0 $1 Rounding radius*
0 $2 $3 $4 $5 $6 $7 $8 $9 X,Y pos of 4 corners*
0 Add a 4 corners polygon primitive as box body*
4,1,4,$2,$3,$4,$5,$6,$7,$8,$9,$2,$3,0*
0 Add four circle primitives for the rounded corners*
1,1,$1+$1,$2,$3*
1,1,$1+$1,$4,$5*
1,1,$1+$1,$6,$7*
1,1,$1+$1,$8,$9*
0 Add four rect primitives between the rounded corners*
20,1,$1+$1,$2,$3,$4,$5,0*
20,1,$1+$1,$4,$5,$6,$7,0*
20,1,$1+$1,$6,$7,$8,$9,0*
20,1,$1+$1,$8,$9,$2,$3,0*%
G04 Aperture macros list end*
%ADD10RoundRect,0.250000X-0.350000X-0.450000X0.350000X-0.450000X0.350000X0.450000X-0.350000X0.450000X0*%
%ADD11RoundRect,0.250000X0.350000X0.450000X-0.350000X0.450000X-0.350000X-0.450000X0.350000X-0.450000X0*%
%ADD12RoundRect,0.225000X-0.225000X-0.375000X0.225000X-0.375000X0.225000X0.375000X-0.225000X0.375000X0*%
%ADD13RoundRect,0.150000X-0.587500X-0.150000X0.587500X-0.150000X0.587500X0.150000X-0.587500X0.150000X0*%
%ADD14RoundRect,0.150000X0.587500X0.150000X-0.587500X0.150000X-0.587500X-0.150000X0.587500X-0.150000X0*%
%ADD15RoundRect,0.250000X-0.450000X0.350000X-0.450000X-0.350000X0.450000X-0.350000X0.450000X0.350000X0*%
%ADD16R,1.500000X0.900000*%
%ADD17RoundRect,0.150000X0.150000X-0.850000X0.150000X0.850000X-0.150000X0.850000X-0.150000X-0.850000X0*%
%ADD18RoundRect,0.250000X-0.475000X0.337500X-0.475000X-0.337500X0.475000X-0.337500X0.475000X0.337500X0*%
%ADD19RoundRect,0.250000X-0.337500X-0.475000X0.337500X-0.475000X0.337500X0.475000X-0.337500X0.475000X0*%
%ADD20R,2.440000X1.120000*%
G04 APERTURE END LIST*
D10*
%TO.C,R15*%
X116751000Y-115627000D03*
X118751000Y-115627000D03*
%TD*%
%TO.C,R6*%
X120561000Y-88195000D03*
X122561000Y-88195000D03*
%TD*%
D11*
%TO.C,R13*%
X113671000Y-93275000D03*
X111671000Y-93275000D03*
%TD*%
%TO.C,R12*%
X113671000Y-95815000D03*
X111671000Y-95815000D03*
%TD*%
D12*
%TO.C,D2*%
X129929000Y-88195000D03*
X133229000Y-88195000D03*
%TD*%
D13*
%TO.C,Q1*%
X136180000Y-88007000D03*
X136180000Y-89907000D03*
X138055000Y-88957000D03*
%TD*%
D10*
%TO.C,R17*%
X120561000Y-91751000D03*
X122561000Y-91751000D03*
%TD*%
D11*
%TO.C,R11*%
X113671000Y-98355000D03*
X111671000Y-98355000D03*
%TD*%
D14*
%TO.C,Q3*%
X122561000Y-83623000D03*
X122561000Y-81723000D03*
X120686000Y-82673000D03*
%TD*%
D15*
%TO.C,R3*%
X111131000Y-82607000D03*
X111131000Y-84607000D03*
%TD*%
D14*
%TO.C,Q2*%
X118497000Y-83623000D03*
X118497000Y-81723000D03*
X116622000Y-82673000D03*
%TD*%
D11*
%TO.C,R10*%
X113671000Y-100895000D03*
X111671000Y-100895000D03*
%TD*%
D15*
%TO.C,R4*%
X108845000Y-82607000D03*
X108845000Y-84607000D03*
%TD*%
D10*
%TO.C,R14*%
X116751000Y-112267000D03*
X118751000Y-112267000D03*
%TD*%
D15*
%TO.C,R2*%
X113417000Y-82607000D03*
X113417000Y-84607000D03*
%TD*%
D10*
%TO.C,R7*%
X124863000Y-88195000D03*
X126863000Y-88195000D03*
%TD*%
%TO.C,R16*%
X116751000Y-118929000D03*
X118751000Y-118929000D03*
%TD*%
D16*
%TO.C,D1*%
X112655000Y-88319000D03*
X112655000Y-89719000D03*
X109555000Y-88319000D03*
X109555000Y-89719000D03*
%TD*%
D14*
%TO.C,Q4*%
X126625000Y-83623000D03*
X126625000Y-81723000D03*
X124750000Y-82673000D03*
%TD*%
D17*
%TO.C,U1*%
X126244000Y-117111000D03*
X127514000Y-117111000D03*
X128784000Y-117111000D03*
X130054000Y-117111000D03*
X131324000Y-117111000D03*
X132594000Y-117111000D03*
X133864000Y-117111000D03*
X135134000Y-117111000D03*
X135134000Y-112111000D03*
X133864000Y-112111000D03*
X132594000Y-112111000D03*
X131324000Y-112111000D03*
X130054000Y-112111000D03*
X128784000Y-112111000D03*
X127514000Y-112111000D03*
X126244000Y-112111000D03*
%TD*%
D10*
%TO.C,R5*%
X116497000Y-88195000D03*
X118497000Y-88195000D03*
%TD*%
D18*
%TO.C,C2*%
X122815000Y-113552000D03*
X122815000Y-115627000D03*
%TD*%
D11*
%TO.C,R8*%
X113671000Y-105975000D03*
X111671000Y-105975000D03*
%TD*%
D19*
%TO.C,C1*%
X130138000Y-84385000D03*
X132213000Y-84385000D03*
%TD*%
D10*
%TO.C,R1*%
X135039000Y-84385000D03*
X137039000Y-84385000D03*
%TD*%
D11*
%TO.C,R9*%
X113671000Y-103435000D03*
X111671000Y-103435000D03*
%TD*%
D20*
%TO.C,SW1*%
X108845000Y-105975000D03*
X108845000Y-103435000D03*
X108845000Y-100895000D03*
X108845000Y-98355000D03*
X108845000Y-95815000D03*
X108845000Y-93275000D03*
X100235000Y-93275000D03*
X100235000Y-95815000D03*
X100235000Y-98355000D03*
X100235000Y-100895000D03*
X100235000Y-103435000D03*
X100235000Y-105975000D03*
%TD*%
D10*
%TO.C,R15*%
X66751000Y-115627000D03*
X68751000Y-115627000D03*
%TD*%
%TO.C,R6*%
X70561000Y-88195000D03*
X72561000Y-88195000D03*
%TD*%
D11*
%TO.C,R13*%
X63671000Y-93275000D03*
X61671000Y-93275000D03*
%TD*%
%TO.C,R12*%
X63671000Y-95815000D03*
X61671000Y-95815000D03*
%TD*%
D12*
%TO.C,D2*%
X79929000Y-88195000D03*
X83229000Y-88195000D03*
%TD*%
D13*
%TO.C,Q1*%
X86180000Y-88007000D03*
X86180000Y-89907000D03*
X88055000Y-88957000D03*
%TD*%
D10*
%TO.C,R17*%
X70561000Y-91751000D03*
X72561000Y-91751000D03*
%TD*%
D11*
%TO.C,R11*%
X63671000Y-98355000D03*
X61671000Y-98355000D03*
%TD*%
D14*
%TO.C,Q3*%
X72561000Y-83623000D03*
X72561000Y-81723000D03*
X70686000Y-82673000D03*
%TD*%
D15*
%TO.C,R3*%
X61131000Y-82607000D03*
X61131000Y-84607000D03*
%TD*%
D14*
%TO.C,Q2*%
X68497000Y-83623000D03*
X68497000Y-81723000D03*
X66622000Y-82673000D03*
%TD*%
D11*
%TO.C,R10*%
X63671000Y-100895000D03*
X61671000Y-100895000D03*
%TD*%
D15*
%TO.C,R4*%
X58845000Y-82607000D03*
X58845000Y-84607000D03*
%TD*%
D10*
%TO.C,R14*%
X66751000Y-112267000D03*
X68751000Y-112267000D03*
%TD*%
D15*
%TO.C,R2*%
X63417000Y-82607000D03*
X63417000Y-84607000D03*
%TD*%
D10*
%TO.C,R7*%
X74863000Y-88195000D03*
X76863000Y-88195000D03*
%TD*%
%TO.C,R16*%
X66751000Y-118929000D03*
X68751000Y-118929000D03*
%TD*%
D16*
%TO.C,D1*%
X62655000Y-88319000D03*
X62655000Y-89719000D03*
X59555000Y-88319000D03*
X59555000Y-89719000D03*
%TD*%
D14*
%TO.C,Q4*%
X76625000Y-83623000D03*
X76625000Y-81723000D03*
X74750000Y-82673000D03*
%TD*%
D17*
%TO.C,U1*%
X76244000Y-117111000D03*
X77514000Y-117111000D03*
X78784000Y-117111000D03*
X80054000Y-117111000D03*
X81324000Y-117111000D03*
X82594000Y-117111000D03*
X83864000Y-117111000D03*
X85134000Y-117111000D03*
X85134000Y-112111000D03*
X83864000Y-112111000D03*
X82594000Y-112111000D03*
X81324000Y-112111000D03*
X80054000Y-112111000D03*
X78784000Y-112111000D03*
X77514000Y-112111000D03*
X76244000Y-112111000D03*
%TD*%
D10*
%TO.C,R5*%
X66497000Y-88195000D03*
X68497000Y-88195000D03*
%TD*%
D18*
%TO.C,C2*%
X72815000Y-113552000D03*
X72815000Y-115627000D03*
%TD*%
D11*
%TO.C,R8*%
X63671000Y-105975000D03*
X61671000Y-105975000D03*
%TD*%
D19*
%TO.C,C1*%
X80138000Y-84385000D03*
X82213000Y-84385000D03*
%TD*%
D10*
%TO.C,R1*%
X85039000Y-84385000D03*
X87039000Y-84385000D03*
%TD*%
D11*
%TO.C,R9*%
X63671000Y-103435000D03*
X61671000Y-103435000D03*
%TD*%
D20*
%TO.C,SW1*%
X58845000Y-105975000D03*
X58845000Y-103435000D03*
X58845000Y-100895000D03*
X58845000Y-98355000D03*
X58845000Y-95815000D03*
X58845000Y-93275000D03*
X50235000Y-93275000D03*
X50235000Y-95815000D03*
X50235000Y-98355000D03*
X50235000Y-100895000D03*
X50235000Y-103435000D03*
X50235000Y-105975000D03*
%TD*%
D10*
%TO.C,R15*%
X116751000Y-65627000D03*
X118751000Y-65627000D03*
%TD*%
%TO.C,R6*%
X120561000Y-38195000D03*
X122561000Y-38195000D03*
%TD*%
D11*
%TO.C,R13*%
X113671000Y-43275000D03*
X111671000Y-43275000D03*
%TD*%
%TO.C,R12*%
X113671000Y-45815000D03*
X111671000Y-45815000D03*
%TD*%
D12*
%TO.C,D2*%
X129929000Y-38195000D03*
X133229000Y-38195000D03*
%TD*%
D13*
%TO.C,Q1*%
X136180000Y-38007000D03*
X136180000Y-39907000D03*
X138055000Y-38957000D03*
%TD*%
D10*
%TO.C,R17*%
X120561000Y-41751000D03*
X122561000Y-41751000D03*
%TD*%
D11*
%TO.C,R11*%
X113671000Y-48355000D03*
X111671000Y-48355000D03*
%TD*%
D14*
%TO.C,Q3*%
X122561000Y-33623000D03*
X122561000Y-31723000D03*
X120686000Y-32673000D03*
%TD*%
D15*
%TO.C,R3*%
X111131000Y-32607000D03*
X111131000Y-34607000D03*
%TD*%
D14*
%TO.C,Q2*%
X118497000Y-33623000D03*
X118497000Y-31723000D03*
X116622000Y-32673000D03*
%TD*%
D11*
%TO.C,R10*%
X113671000Y-50895000D03*
X111671000Y-50895000D03*
%TD*%
D15*
%TO.C,R4*%
X108845000Y-32607000D03*
X108845000Y-34607000D03*
%TD*%
D10*
%TO.C,R14*%
X116751000Y-62267000D03*
X118751000Y-62267000D03*
%TD*%
D15*
%TO.C,R2*%
X113417000Y-32607000D03*
X113417000Y-34607000D03*
%TD*%
D10*
%TO.C,R7*%
X124863000Y-38195000D03*
X126863000Y-38195000D03*
%TD*%
%TO.C,R16*%
X116751000Y-68929000D03*
X118751000Y-68929000D03*
%TD*%
D16*
%TO.C,D1*%
X112655000Y-38319000D03*
X112655000Y-39719000D03*
X109555000Y-38319000D03*
X109555000Y-39719000D03*
%TD*%
D14*
%TO.C,Q4*%
X126625000Y-33623000D03*
X126625000Y-31723000D03*
X124750000Y-32673000D03*
%TD*%
D17*
%TO.C,U1*%
X126244000Y-67111000D03*
X127514000Y-67111000D03*
X128784000Y-67111000D03*
X130054000Y-67111000D03*
X131324000Y-67111000D03*
X132594000Y-67111000D03*
X133864000Y-67111000D03*
X135134000Y-67111000D03*
X135134000Y-62111000D03*
X133864000Y-62111000D03*
X132594000Y-62111000D03*
X131324000Y-62111000D03*
X130054000Y-62111000D03*
X128784000Y-62111000D03*
X127514000Y-62111000D03*
X126244000Y-62111000D03*
%TD*%
D10*
%TO.C,R5*%
X116497000Y-38195000D03*
X118497000Y-38195000D03*
%TD*%
D18*
%TO.C,C2*%
X122815000Y-63552000D03*
X122815000Y-65627000D03*
%TD*%
D11*
%TO.C,R8*%
X113671000Y-55975000D03*
X111671000Y-55975000D03*
%TD*%
D19*
%TO.C,C1*%
X130138000Y-34385000D03*
X132213000Y-34385000D03*
%TD*%
D10*
%TO.C,R1*%
X135039000Y-34385000D03*
X137039000Y-34385000D03*
%TD*%
D11*
%TO.C,R9*%
X113671000Y-53435000D03*
X111671000Y-53435000D03*
%TD*%
D20*
%TO.C,SW1*%
X108845000Y-55975000D03*
X108845000Y-53435000D03*
X108845000Y-50895000D03*
X108845000Y-48355000D03*
X108845000Y-45815000D03*
X108845000Y-43275000D03*
X100235000Y-43275000D03*
X100235000Y-45815000D03*
X100235000Y-48355000D03*
X100235000Y-50895000D03*
X100235000Y-53435000D03*
X100235000Y-55975000D03*
%TD*%
D11*
%TO.C,R9*%
X63671000Y-53435000D03*
X61671000Y-53435000D03*
%TD*%
D14*
%TO.C,Q3*%
X72561000Y-33623000D03*
X72561000Y-31723000D03*
X70686000Y-32673000D03*
%TD*%
D15*
%TO.C,R4*%
X58845000Y-32607000D03*
X58845000Y-34607000D03*
%TD*%
D10*
%TO.C,R7*%
X74863000Y-38195000D03*
X76863000Y-38195000D03*
%TD*%
%TO.C,R6*%
X70561000Y-38195000D03*
X72561000Y-38195000D03*
%TD*%
D18*
%TO.C,C2*%
X72815000Y-63552000D03*
X72815000Y-65627000D03*
%TD*%
D11*
%TO.C,R11*%
X63671000Y-48355000D03*
X61671000Y-48355000D03*
%TD*%
%TO.C,R10*%
X63671000Y-50895000D03*
X61671000Y-50895000D03*
%TD*%
D15*
%TO.C,R3*%
X61131000Y-32607000D03*
X61131000Y-34607000D03*
%TD*%
D19*
%TO.C,C1*%
X80138000Y-34385000D03*
X82213000Y-34385000D03*
%TD*%
D10*
%TO.C,R16*%
X66751000Y-68929000D03*
X68751000Y-68929000D03*
%TD*%
D11*
%TO.C,R13*%
X63671000Y-43275000D03*
X61671000Y-43275000D03*
%TD*%
%TO.C,R12*%
X63671000Y-45815000D03*
X61671000Y-45815000D03*
%TD*%
D20*
%TO.C,SW1*%
X58845000Y-55975000D03*
X58845000Y-53435000D03*
X58845000Y-50895000D03*
X58845000Y-48355000D03*
X58845000Y-45815000D03*
X58845000Y-43275000D03*
X50235000Y-43275000D03*
X50235000Y-45815000D03*
X50235000Y-48355000D03*
X50235000Y-50895000D03*
X50235000Y-53435000D03*
X50235000Y-55975000D03*
%TD*%
D10*
%TO.C,R14*%
X66751000Y-62267000D03*
X68751000Y-62267000D03*
%TD*%
D17*
%TO.C,U1*%
X76244000Y-67111000D03*
X77514000Y-67111000D03*
X78784000Y-67111000D03*
X80054000Y-67111000D03*
X81324000Y-67111000D03*
X82594000Y-67111000D03*
X83864000Y-67111000D03*
X85134000Y-67111000D03*
X85134000Y-62111000D03*
X83864000Y-62111000D03*
X82594000Y-62111000D03*
X81324000Y-62111000D03*
X80054000Y-62111000D03*
X78784000Y-62111000D03*
X77514000Y-62111000D03*
X76244000Y-62111000D03*
%TD*%
D14*
%TO.C,Q4*%
X76625000Y-33623000D03*
X76625000Y-31723000D03*
X74750000Y-32673000D03*
%TD*%
D13*
%TO.C,Q1*%
X86180000Y-38007000D03*
X86180000Y-39907000D03*
X88055000Y-38957000D03*
%TD*%
D10*
%TO.C,R1*%
X85039000Y-34385000D03*
X87039000Y-34385000D03*
%TD*%
%TO.C,R5*%
X66497000Y-38195000D03*
X68497000Y-38195000D03*
%TD*%
%TO.C,R17*%
X70561000Y-41751000D03*
X72561000Y-41751000D03*
%TD*%
D11*
%TO.C,R8*%
X63671000Y-55975000D03*
X61671000Y-55975000D03*
%TD*%
D16*
%TO.C,D1*%
X62655000Y-38319000D03*
X62655000Y-39719000D03*
X59555000Y-38319000D03*
X59555000Y-39719000D03*
%TD*%
D12*
%TO.C,D2*%
X79929000Y-38195000D03*
X83229000Y-38195000D03*
%TD*%
D14*
%TO.C,Q2*%
X68497000Y-33623000D03*
X68497000Y-31723000D03*
X66622000Y-32673000D03*
%TD*%
D10*
%TO.C,R15*%
X66751000Y-65627000D03*
X68751000Y-65627000D03*
%TD*%
D15*
%TO.C,R2*%
X63417000Y-32607000D03*
X63417000Y-34607000D03*
%TD*%
M02*
