M48
; DRILL file {KiCad 7.0.11+dfsg-1build4} date mar 17 mar 2026 20:00:34
; FORMAT={-:-/ absolute / metric / decimal}
; #@! TF.CreationDate,2026-03-17T20:00:34-05:00
; #@! TF.GenerationSoftware,Kicad,Pcbnew,7.0.11+dfsg-1build4
; #@! TF.FileFunction,NonPlated,1,2,NPTH
FMAT,2
METRIC
; #@! TA.AperFunction,NonPlated,NPTH,ComponentDrill
T1C2.500
; #@! TA.AperFunction,NonPlated,NPTH,ComponentDrill
T2C3.000
%
G90
G05
T1
X77.569Y-43.491
X77.569Y-49.491
X77.569Y-93.491
X77.569Y-99.491
X83.609Y-43.491
X83.609Y-49.491
X83.609Y-93.491
X83.609Y-99.491
X127.569Y-43.491
X127.569Y-49.491
X127.569Y-93.491
X127.569Y-99.491
X133.609Y-43.491
X133.609Y-49.491
X133.609Y-93.491
X133.609Y-99.491
T2
X52.355Y-32.975
X52.355Y-74.975
X52.355Y-82.975
X52.355Y-124.975
X94.355Y-32.975
X94.355Y-74.975
X94.355Y-82.975
X94.355Y-124.975
X102.355Y-32.975
X102.355Y-74.975
X102.355Y-82.975
X102.355Y-124.975
X144.355Y-32.975
X144.355Y-74.975
X144.355Y-82.975
X144.355Y-124.975
M30
