M48
; DRILL file {KiCad 7.0.11+dfsg-1build4} date mar 17 mar 2026 20:00:34
; FORMAT={-:-/ absolute / metric / decimal}
; #@! TF.CreationDate,2026-03-17T20:00:34-05:00
; #@! TF.GenerationSoftware,Kicad,Pcbnew,7.0.11+dfsg-1build4
; #@! TF.FileFunction,Plated,1,2,PTH
FMAT,2
METRIC
; #@! TA.AperFunction,Plated,PTH,ViaDrill
T1C0.300
; #@! TA.AperFunction,Plated,PTH,ComponentDrill
T2C0.500
; #@! TA.AperFunction,Plated,PTH,ComponentDrill
T3C0.800
; #@! TA.AperFunction,Plated,PTH,ComponentDrill
T4C1.000
; #@! TA.AperFunction,Plated,PTH,ComponentDrill
T5C1.120
%
G90
G05
T1
X52.808Y-56.927
X52.808Y-106.927
X55.543Y-62.579
X55.543Y-112.579
X56.559Y-64.865
X56.559Y-114.865
X59.861Y-33.369
X59.861Y-83.369
X60.369Y-63.503
X60.369Y-113.503
X61.131Y-31.083
X61.131Y-81.083
X61.893Y-72.231
X61.893Y-122.231
X62.591Y-44.6
X62.591Y-94.6
X62.655Y-47.085
X62.655Y-97.085
X63.417Y-57.753
X63.417Y-107.753
X64.279Y-41.412
X64.279Y-91.412
X64.941Y-57.753
X64.941Y-107.753
X65.195Y-38.703
X65.195Y-88.703
X66.465Y-40.227
X66.465Y-90.227
X67.451Y-58.604
X67.451Y-108.604
X67.481Y-72.231
X67.481Y-122.231
X68.051Y-42.012
X68.051Y-92.012
X70.021Y-34.639
X70.021Y-84.639
X70.454Y-62.995
X70.454Y-112.995
X72.561Y-66.897
X72.561Y-116.897
X73.355Y-71.667
X73.355Y-121.667
X74.186Y-62.718
X74.186Y-112.718
X74.339Y-33.623
X74.339Y-83.623
X74.847Y-41.497
X74.847Y-91.497
X74.935Y-60.021
X74.935Y-110.021
X75.229Y-61.883
X75.229Y-111.883
X76.371Y-70.453
X76.371Y-120.453
X78.911Y-69.945
X78.911Y-119.945
X79.263Y-63.849
X79.263Y-113.849
X79.673Y-73.501
X79.673Y-123.501
X84.245Y-69.183
X84.245Y-119.183
X84.499Y-35.909
X84.499Y-85.909
X84.845Y-38.957
X84.845Y-88.957
X87.801Y-65.881
X87.801Y-115.881
X90.087Y-38.957
X90.087Y-88.957
X90.849Y-65.627
X90.849Y-115.627
X91.357Y-62.833
X91.357Y-112.833
X93.389Y-62.325
X93.389Y-112.325
X102.808Y-56.927
X102.808Y-106.927
X105.543Y-62.579
X105.543Y-112.579
X106.559Y-64.865
X106.559Y-114.865
X109.861Y-33.369
X109.861Y-83.369
X110.369Y-63.503
X110.369Y-113.503
X111.131Y-31.083
X111.131Y-81.083
X111.893Y-72.231
X111.893Y-122.231
X112.591Y-44.6
X112.591Y-94.6
X112.655Y-47.085
X112.655Y-97.085
X113.417Y-57.753
X113.417Y-107.753
X114.279Y-41.412
X114.279Y-91.412
X114.941Y-57.753
X114.941Y-107.753
X115.195Y-38.703
X115.195Y-88.703
X116.465Y-40.227
X116.465Y-90.227
X117.451Y-58.604
X117.451Y-108.604
X117.481Y-72.231
X117.481Y-122.231
X118.051Y-42.012
X118.051Y-92.012
X120.021Y-34.639
X120.021Y-84.639
X120.454Y-62.995
X120.454Y-112.995
X122.561Y-66.897
X122.561Y-116.897
X123.355Y-71.667
X123.355Y-121.667
X124.186Y-62.718
X124.186Y-112.718
X124.339Y-33.623
X124.339Y-83.623
X124.847Y-41.497
X124.847Y-91.497
X124.935Y-60.021
X124.935Y-110.021
X125.229Y-61.883
X125.229Y-111.883
X126.371Y-70.453
X126.371Y-120.453
X128.911Y-69.945
X128.911Y-119.945
X129.263Y-63.849
X129.263Y-113.849
X129.673Y-73.501
X129.673Y-123.501
X134.245Y-69.183
X134.245Y-119.183
X134.499Y-35.909
X134.499Y-85.909
X134.845Y-38.957
X134.845Y-88.957
X137.801Y-65.881
X137.801Y-115.881
X140.087Y-38.957
X140.087Y-88.957
X140.849Y-65.627
X140.849Y-115.627
X141.357Y-62.833
X141.357Y-112.833
X143.389Y-62.325
X143.389Y-112.325
T3
X88.309Y-44.291
X88.309Y-48.691
X88.309Y-94.291
X88.309Y-98.691
X138.309Y-44.291
X138.309Y-48.691
X138.309Y-94.291
X138.309Y-98.691
T4
X51.209Y-60.811
X51.209Y-63.351
X51.209Y-65.891
X51.209Y-68.431
X51.209Y-110.811
X51.209Y-113.351
X51.209Y-115.891
X51.209Y-118.431
X65.703Y-77.057
X65.703Y-127.057
X68.243Y-77.057
X68.243Y-127.057
X70.783Y-77.057
X70.783Y-127.057
X73.323Y-77.057
X73.323Y-127.057
X75.863Y-77.057
X75.863Y-127.057
X78.403Y-77.057
X78.403Y-127.057
X80.943Y-77.057
X80.943Y-127.057
X84.753Y-55.975
X84.753Y-105.975
X87.293Y-55.975
X87.293Y-105.975
X89.833Y-55.975
X89.833Y-105.975
X92.373Y-55.975
X92.373Y-105.975
X95.501Y-60.811
X95.501Y-63.351
X95.501Y-65.891
X95.501Y-68.431
X95.501Y-110.811
X95.501Y-113.351
X95.501Y-115.891
X95.501Y-118.431
X101.209Y-60.811
X101.209Y-63.351
X101.209Y-65.891
X101.209Y-68.431
X101.209Y-110.811
X101.209Y-113.351
X101.209Y-115.891
X101.209Y-118.431
X115.703Y-77.057
X115.703Y-127.057
X118.243Y-77.057
X118.243Y-127.057
X120.783Y-77.057
X120.783Y-127.057
X123.323Y-77.057
X123.323Y-127.057
X125.863Y-77.057
X125.863Y-127.057
X128.403Y-77.057
X128.403Y-127.057
X130.943Y-77.057
X130.943Y-127.057
X134.753Y-55.975
X134.753Y-105.975
X137.293Y-55.975
X137.293Y-105.975
X139.833Y-55.975
X139.833Y-105.975
X142.373Y-55.975
X142.373Y-105.975
X145.501Y-60.811
X145.501Y-63.351
X145.501Y-65.891
X145.501Y-68.431
X145.501Y-110.811
X145.501Y-113.351
X145.501Y-115.891
X145.501Y-118.431
T5
X73.355Y-53.975
X73.355Y-103.975
X123.355Y-53.975
X123.355Y-103.975
T2
G00X71.775Y-54.475
M15
G01X71.775Y-53.475
M16
G05
G00X71.775Y-104.475
M15
G01X71.775Y-103.475
M16
G05
G00X74.935Y-54.475
M15
G01X74.935Y-53.475
M16
G05
G00X74.935Y-104.475
M15
G01X74.935Y-103.475
M16
G05
G00X121.775Y-54.475
M15
G01X121.775Y-53.475
M16
G05
G00X121.775Y-104.475
M15
G01X121.775Y-103.475
M16
G05
G00X124.935Y-54.475
M15
G01X124.935Y-53.475
M16
G05
G00X124.935Y-104.475
M15
G01X124.935Y-103.475
M16
G05
M30
