M48
; DRILL file {KiCad 7.0.11+dfsg-1build4} date mar 17 mar 2026 18:57:48
; FORMAT={-:-/ absolute / metric / decimal}
; #@! TF.CreationDate,2026-03-17T18:57:48-05:00
; #@! TF.GenerationSoftware,Kicad,Pcbnew,7.0.11+dfsg-1build4
; #@! TF.FileFunction,Plated,1,2,PTH
FMAT,2
METRIC
; #@! TA.AperFunction,Plated,PTH,ViaDrill
T1C0.300
; #@! TA.AperFunction,Plated,PTH,ComponentDrill
T2C0.500
; #@! TA.AperFunction,Plated,PTH,ComponentDrill
T3C0.800
; #@! TA.AperFunction,Plated,PTH,ComponentDrill
T4C1.000
; #@! TA.AperFunction,Plated,PTH,ComponentDrill
T5C1.120
%
G90
G05
T1
X104.453Y-127.953
X107.188Y-133.604
X108.204Y-135.89
X111.506Y-104.394
X112.014Y-134.528
X112.776Y-102.108
X113.538Y-143.256
X114.236Y-115.625
X114.3Y-118.11
X115.062Y-128.778
X115.924Y-112.437
X116.586Y-128.778
X116.84Y-109.728
X118.11Y-111.252
X119.096Y-129.629
X119.126Y-143.256
X119.696Y-113.037
X121.666Y-105.664
X122.099Y-134.02
X124.206Y-137.922
X125.0Y-142.692
X125.831Y-133.743
X125.984Y-104.648
X126.492Y-112.522
X126.58Y-131.046
X126.874Y-132.908
X128.016Y-141.478
X130.556Y-140.97
X130.908Y-134.874
X131.318Y-144.526
X135.89Y-140.208
X136.144Y-106.934
X136.49Y-109.982
X139.446Y-136.906
X141.732Y-109.982
X142.494Y-136.652
X143.002Y-133.858
X145.034Y-133.35
T3
X139.954Y-115.316
X139.954Y-119.716
T4
X102.854Y-131.836
X102.854Y-134.376
X102.854Y-136.916
X102.854Y-139.456
X117.348Y-148.082
X119.888Y-148.082
X122.428Y-148.082
X124.968Y-148.082
X127.508Y-148.082
X130.048Y-148.082
X132.588Y-148.082
X136.398Y-127.0
X138.938Y-127.0
X141.478Y-127.0
X144.018Y-127.0
X147.146Y-131.836
X147.146Y-134.376
X147.146Y-136.916
X147.146Y-139.456
T5
X125.0Y-125.0
T2
G00X123.42Y-125.5
M15
G01X123.42Y-124.5
M16
G05
G00X126.58Y-125.5
M15
G01X126.58Y-124.5
M16
G05
M30
