%TF.GenerationSoftware,KiCad,Pcbnew,7.0.11+dfsg-1build4*%
%TF.CreationDate,2026-03-17T18:57:51-05:00*%
%TF.ProjectId,friendly-board-game-tile-tile,66726965-6e64-46c7-992d-626f6172642d,rev?*%
%TF.SameCoordinates,Original*%
%TF.FileFunction,Legend,Bot*%
%TF.FilePolarity,Positive*%
%FSLAX46Y46*%
G04 Gerber Fmt 4.6, Leading zero omitted, Abs format (unit mm)*
G04 Created by KiCad (PCBNEW 7.0.11+dfsg-1build4) date 2026-03-17 18:57:51*
%MOMM*%
%LPD*%
G01*
G04 APERTURE LIST*
%ADD10C,0.200000*%
G04 APERTURE END LIST*
D10*
X123933304Y-145092945D02*
X124733304Y-145092945D01*
X124733304Y-145092945D02*
X124161876Y-144826279D01*
X124161876Y-144826279D02*
X124733304Y-144559612D01*
X124733304Y-144559612D02*
X123933304Y-144559612D01*
X124733304Y-144026278D02*
X124733304Y-143873897D01*
X124733304Y-143873897D02*
X124695209Y-143797707D01*
X124695209Y-143797707D02*
X124619019Y-143721516D01*
X124619019Y-143721516D02*
X124466638Y-143683421D01*
X124466638Y-143683421D02*
X124199971Y-143683421D01*
X124199971Y-143683421D02*
X124047590Y-143721516D01*
X124047590Y-143721516D02*
X123971400Y-143797707D01*
X123971400Y-143797707D02*
X123933304Y-143873897D01*
X123933304Y-143873897D02*
X123933304Y-144026278D01*
X123933304Y-144026278D02*
X123971400Y-144102469D01*
X123971400Y-144102469D02*
X124047590Y-144178659D01*
X124047590Y-144178659D02*
X124199971Y-144216755D01*
X124199971Y-144216755D02*
X124466638Y-144216755D01*
X124466638Y-144216755D02*
X124619019Y-144178659D01*
X124619019Y-144178659D02*
X124695209Y-144102469D01*
X124695209Y-144102469D02*
X124733304Y-144026278D01*
X124733304Y-143454850D02*
X124733304Y-142997707D01*
X123933304Y-143226279D02*
X124733304Y-143226279D01*
X124733304Y-142578659D02*
X124733304Y-142426278D01*
X124733304Y-142426278D02*
X124695209Y-142350088D01*
X124695209Y-142350088D02*
X124619019Y-142273897D01*
X124619019Y-142273897D02*
X124466638Y-142235802D01*
X124466638Y-142235802D02*
X124199971Y-142235802D01*
X124199971Y-142235802D02*
X124047590Y-142273897D01*
X124047590Y-142273897D02*
X123971400Y-142350088D01*
X123971400Y-142350088D02*
X123933304Y-142426278D01*
X123933304Y-142426278D02*
X123933304Y-142578659D01*
X123933304Y-142578659D02*
X123971400Y-142654850D01*
X123971400Y-142654850D02*
X124047590Y-142731040D01*
X124047590Y-142731040D02*
X124199971Y-142769136D01*
X124199971Y-142769136D02*
X124466638Y-142769136D01*
X124466638Y-142769136D02*
X124619019Y-142731040D01*
X124619019Y-142731040D02*
X124695209Y-142654850D01*
X124695209Y-142654850D02*
X124733304Y-142578659D01*
X123933304Y-141435802D02*
X124314257Y-141702469D01*
X123933304Y-141892945D02*
X124733304Y-141892945D01*
X124733304Y-141892945D02*
X124733304Y-141588183D01*
X124733304Y-141588183D02*
X124695209Y-141511993D01*
X124695209Y-141511993D02*
X124657114Y-141473898D01*
X124657114Y-141473898D02*
X124580923Y-141435802D01*
X124580923Y-141435802D02*
X124466638Y-141435802D01*
X124466638Y-141435802D02*
X124390447Y-141473898D01*
X124390447Y-141473898D02*
X124352352Y-141511993D01*
X124352352Y-141511993D02*
X124314257Y-141588183D01*
X124314257Y-141588183D02*
X124314257Y-141892945D01*
X148482352Y-125141279D02*
X148482352Y-125407945D01*
X148063304Y-125407945D02*
X148863304Y-125407945D01*
X148863304Y-125407945D02*
X148863304Y-125026993D01*
X148063304Y-124265088D02*
X148444257Y-124531755D01*
X148063304Y-124722231D02*
X148863304Y-124722231D01*
X148863304Y-124722231D02*
X148863304Y-124417469D01*
X148863304Y-124417469D02*
X148825209Y-124341279D01*
X148825209Y-124341279D02*
X148787114Y-124303184D01*
X148787114Y-124303184D02*
X148710923Y-124265088D01*
X148710923Y-124265088D02*
X148596638Y-124265088D01*
X148596638Y-124265088D02*
X148520447Y-124303184D01*
X148520447Y-124303184D02*
X148482352Y-124341279D01*
X148482352Y-124341279D02*
X148444257Y-124417469D01*
X148444257Y-124417469D02*
X148444257Y-124722231D01*
X148063304Y-123922231D02*
X148863304Y-123922231D01*
X148482352Y-123541279D02*
X148482352Y-123274613D01*
X148063304Y-123160327D02*
X148063304Y-123541279D01*
X148063304Y-123541279D02*
X148863304Y-123541279D01*
X148863304Y-123541279D02*
X148863304Y-123160327D01*
X148063304Y-122817469D02*
X148863304Y-122817469D01*
X148863304Y-122817469D02*
X148063304Y-122360326D01*
X148063304Y-122360326D02*
X148863304Y-122360326D01*
X148063304Y-121979374D02*
X148863304Y-121979374D01*
X148863304Y-121979374D02*
X148863304Y-121788898D01*
X148863304Y-121788898D02*
X148825209Y-121674612D01*
X148825209Y-121674612D02*
X148749019Y-121598422D01*
X148749019Y-121598422D02*
X148672828Y-121560327D01*
X148672828Y-121560327D02*
X148520447Y-121522231D01*
X148520447Y-121522231D02*
X148406161Y-121522231D01*
X148406161Y-121522231D02*
X148253780Y-121560327D01*
X148253780Y-121560327D02*
X148177590Y-121598422D01*
X148177590Y-121598422D02*
X148101400Y-121674612D01*
X148101400Y-121674612D02*
X148063304Y-121788898D01*
X148063304Y-121788898D02*
X148063304Y-121979374D01*
X148063304Y-120798422D02*
X148063304Y-121179374D01*
X148063304Y-121179374D02*
X148863304Y-121179374D01*
X148444257Y-120379374D02*
X148063304Y-120379374D01*
X148863304Y-120646041D02*
X148444257Y-120379374D01*
X148444257Y-120379374D02*
X148863304Y-120112708D01*
X148482352Y-118969851D02*
X148444257Y-118855565D01*
X148444257Y-118855565D02*
X148406161Y-118817470D01*
X148406161Y-118817470D02*
X148329971Y-118779374D01*
X148329971Y-118779374D02*
X148215685Y-118779374D01*
X148215685Y-118779374D02*
X148139495Y-118817470D01*
X148139495Y-118817470D02*
X148101400Y-118855565D01*
X148101400Y-118855565D02*
X148063304Y-118931755D01*
X148063304Y-118931755D02*
X148063304Y-119236517D01*
X148063304Y-119236517D02*
X148863304Y-119236517D01*
X148863304Y-119236517D02*
X148863304Y-118969851D01*
X148863304Y-118969851D02*
X148825209Y-118893660D01*
X148825209Y-118893660D02*
X148787114Y-118855565D01*
X148787114Y-118855565D02*
X148710923Y-118817470D01*
X148710923Y-118817470D02*
X148634733Y-118817470D01*
X148634733Y-118817470D02*
X148558542Y-118855565D01*
X148558542Y-118855565D02*
X148520447Y-118893660D01*
X148520447Y-118893660D02*
X148482352Y-118969851D01*
X148482352Y-118969851D02*
X148482352Y-119236517D01*
X148863304Y-118284136D02*
X148863304Y-118131755D01*
X148863304Y-118131755D02*
X148825209Y-118055565D01*
X148825209Y-118055565D02*
X148749019Y-117979374D01*
X148749019Y-117979374D02*
X148596638Y-117941279D01*
X148596638Y-117941279D02*
X148329971Y-117941279D01*
X148329971Y-117941279D02*
X148177590Y-117979374D01*
X148177590Y-117979374D02*
X148101400Y-118055565D01*
X148101400Y-118055565D02*
X148063304Y-118131755D01*
X148063304Y-118131755D02*
X148063304Y-118284136D01*
X148063304Y-118284136D02*
X148101400Y-118360327D01*
X148101400Y-118360327D02*
X148177590Y-118436517D01*
X148177590Y-118436517D02*
X148329971Y-118474613D01*
X148329971Y-118474613D02*
X148596638Y-118474613D01*
X148596638Y-118474613D02*
X148749019Y-118436517D01*
X148749019Y-118436517D02*
X148825209Y-118360327D01*
X148825209Y-118360327D02*
X148863304Y-118284136D01*
X148291876Y-117636518D02*
X148291876Y-117255565D01*
X148063304Y-117712708D02*
X148863304Y-117446041D01*
X148863304Y-117446041D02*
X148063304Y-117179375D01*
X148063304Y-116455565D02*
X148444257Y-116722232D01*
X148063304Y-116912708D02*
X148863304Y-116912708D01*
X148863304Y-116912708D02*
X148863304Y-116607946D01*
X148863304Y-116607946D02*
X148825209Y-116531756D01*
X148825209Y-116531756D02*
X148787114Y-116493661D01*
X148787114Y-116493661D02*
X148710923Y-116455565D01*
X148710923Y-116455565D02*
X148596638Y-116455565D01*
X148596638Y-116455565D02*
X148520447Y-116493661D01*
X148520447Y-116493661D02*
X148482352Y-116531756D01*
X148482352Y-116531756D02*
X148444257Y-116607946D01*
X148444257Y-116607946D02*
X148444257Y-116912708D01*
X148063304Y-116112708D02*
X148863304Y-116112708D01*
X148863304Y-116112708D02*
X148863304Y-115922232D01*
X148863304Y-115922232D02*
X148825209Y-115807946D01*
X148825209Y-115807946D02*
X148749019Y-115731756D01*
X148749019Y-115731756D02*
X148672828Y-115693661D01*
X148672828Y-115693661D02*
X148520447Y-115655565D01*
X148520447Y-115655565D02*
X148406161Y-115655565D01*
X148406161Y-115655565D02*
X148253780Y-115693661D01*
X148253780Y-115693661D02*
X148177590Y-115731756D01*
X148177590Y-115731756D02*
X148101400Y-115807946D01*
X148101400Y-115807946D02*
X148063304Y-115922232D01*
X148063304Y-115922232D02*
X148063304Y-116112708D01*
X148825209Y-114284137D02*
X148863304Y-114360327D01*
X148863304Y-114360327D02*
X148863304Y-114474613D01*
X148863304Y-114474613D02*
X148825209Y-114588899D01*
X148825209Y-114588899D02*
X148749019Y-114665089D01*
X148749019Y-114665089D02*
X148672828Y-114703184D01*
X148672828Y-114703184D02*
X148520447Y-114741280D01*
X148520447Y-114741280D02*
X148406161Y-114741280D01*
X148406161Y-114741280D02*
X148253780Y-114703184D01*
X148253780Y-114703184D02*
X148177590Y-114665089D01*
X148177590Y-114665089D02*
X148101400Y-114588899D01*
X148101400Y-114588899D02*
X148063304Y-114474613D01*
X148063304Y-114474613D02*
X148063304Y-114398422D01*
X148063304Y-114398422D02*
X148101400Y-114284137D01*
X148101400Y-114284137D02*
X148139495Y-114246041D01*
X148139495Y-114246041D02*
X148406161Y-114246041D01*
X148406161Y-114246041D02*
X148406161Y-114398422D01*
X148291876Y-113941280D02*
X148291876Y-113560327D01*
X148063304Y-114017470D02*
X148863304Y-113750803D01*
X148863304Y-113750803D02*
X148063304Y-113484137D01*
X148063304Y-113217470D02*
X148863304Y-113217470D01*
X148863304Y-113217470D02*
X148291876Y-112950804D01*
X148291876Y-112950804D02*
X148863304Y-112684137D01*
X148863304Y-112684137D02*
X148063304Y-112684137D01*
X148482352Y-112303184D02*
X148482352Y-112036518D01*
X148063304Y-111922232D02*
X148063304Y-112303184D01*
X148063304Y-112303184D02*
X148863304Y-112303184D01*
X148863304Y-112303184D02*
X148863304Y-111922232D01*
X148863304Y-111084136D02*
X148863304Y-110626993D01*
X148063304Y-110855565D02*
X148863304Y-110855565D01*
X148063304Y-110360326D02*
X148863304Y-110360326D01*
X148063304Y-109598422D02*
X148063304Y-109979374D01*
X148063304Y-109979374D02*
X148863304Y-109979374D01*
X148482352Y-109331755D02*
X148482352Y-109065089D01*
X148063304Y-108950803D02*
X148063304Y-109331755D01*
X148063304Y-109331755D02*
X148863304Y-109331755D01*
X148863304Y-109331755D02*
X148863304Y-108950803D01*
X118853304Y-145092945D02*
X119653304Y-145092945D01*
X119653304Y-145092945D02*
X118853304Y-144635802D01*
X118853304Y-144635802D02*
X119653304Y-144635802D01*
X118853304Y-143873898D02*
X118853304Y-144254850D01*
X118853304Y-144254850D02*
X119653304Y-144254850D01*
X119272352Y-143607231D02*
X119272352Y-143340565D01*
X118853304Y-143226279D02*
X118853304Y-143607231D01*
X118853304Y-143607231D02*
X119653304Y-143607231D01*
X119653304Y-143607231D02*
X119653304Y-143226279D01*
X118853304Y-142883421D02*
X119653304Y-142883421D01*
X119653304Y-142883421D02*
X119653304Y-142692945D01*
X119653304Y-142692945D02*
X119615209Y-142578659D01*
X119615209Y-142578659D02*
X119539019Y-142502469D01*
X119539019Y-142502469D02*
X119462828Y-142464374D01*
X119462828Y-142464374D02*
X119310447Y-142426278D01*
X119310447Y-142426278D02*
X119196161Y-142426278D01*
X119196161Y-142426278D02*
X119043780Y-142464374D01*
X119043780Y-142464374D02*
X118967590Y-142502469D01*
X118967590Y-142502469D02*
X118891400Y-142578659D01*
X118891400Y-142578659D02*
X118853304Y-142692945D01*
X118853304Y-142692945D02*
X118853304Y-142883421D01*
X119615209Y-141664374D02*
X119653304Y-141740564D01*
X119653304Y-141740564D02*
X119653304Y-141854850D01*
X119653304Y-141854850D02*
X119615209Y-141969136D01*
X119615209Y-141969136D02*
X119539019Y-142045326D01*
X119539019Y-142045326D02*
X119462828Y-142083421D01*
X119462828Y-142083421D02*
X119310447Y-142121517D01*
X119310447Y-142121517D02*
X119196161Y-142121517D01*
X119196161Y-142121517D02*
X119043780Y-142083421D01*
X119043780Y-142083421D02*
X118967590Y-142045326D01*
X118967590Y-142045326D02*
X118891400Y-141969136D01*
X118891400Y-141969136D02*
X118853304Y-141854850D01*
X118853304Y-141854850D02*
X118853304Y-141778659D01*
X118853304Y-141778659D02*
X118891400Y-141664374D01*
X118891400Y-141664374D02*
X118929495Y-141626278D01*
X118929495Y-141626278D02*
X119196161Y-141626278D01*
X119196161Y-141626278D02*
X119196161Y-141778659D01*
X138538304Y-124137945D02*
X139338304Y-124137945D01*
X139338304Y-124137945D02*
X138538304Y-123680802D01*
X138538304Y-123680802D02*
X139338304Y-123680802D01*
X138538304Y-122842707D02*
X138919257Y-123109374D01*
X138538304Y-123299850D02*
X139338304Y-123299850D01*
X139338304Y-123299850D02*
X139338304Y-122995088D01*
X139338304Y-122995088D02*
X139300209Y-122918898D01*
X139300209Y-122918898D02*
X139262114Y-122880803D01*
X139262114Y-122880803D02*
X139185923Y-122842707D01*
X139185923Y-122842707D02*
X139071638Y-122842707D01*
X139071638Y-122842707D02*
X138995447Y-122880803D01*
X138995447Y-122880803D02*
X138957352Y-122918898D01*
X138957352Y-122918898D02*
X138919257Y-122995088D01*
X138919257Y-122995088D02*
X138919257Y-123299850D01*
X138576400Y-122537946D02*
X138538304Y-122423660D01*
X138538304Y-122423660D02*
X138538304Y-122233184D01*
X138538304Y-122233184D02*
X138576400Y-122156993D01*
X138576400Y-122156993D02*
X138614495Y-122118898D01*
X138614495Y-122118898D02*
X138690685Y-122080803D01*
X138690685Y-122080803D02*
X138766876Y-122080803D01*
X138766876Y-122080803D02*
X138843066Y-122118898D01*
X138843066Y-122118898D02*
X138881161Y-122156993D01*
X138881161Y-122156993D02*
X138919257Y-122233184D01*
X138919257Y-122233184D02*
X138957352Y-122385565D01*
X138957352Y-122385565D02*
X138995447Y-122461755D01*
X138995447Y-122461755D02*
X139033542Y-122499850D01*
X139033542Y-122499850D02*
X139109733Y-122537946D01*
X139109733Y-122537946D02*
X139185923Y-122537946D01*
X139185923Y-122537946D02*
X139262114Y-122499850D01*
X139262114Y-122499850D02*
X139300209Y-122461755D01*
X139300209Y-122461755D02*
X139338304Y-122385565D01*
X139338304Y-122385565D02*
X139338304Y-122195088D01*
X139338304Y-122195088D02*
X139300209Y-122080803D01*
X139338304Y-121852231D02*
X139338304Y-121395088D01*
X138538304Y-121623660D02*
X139338304Y-121623660D01*
X144380209Y-123718898D02*
X144418304Y-123795088D01*
X144418304Y-123795088D02*
X144418304Y-123909374D01*
X144418304Y-123909374D02*
X144380209Y-124023660D01*
X144380209Y-124023660D02*
X144304019Y-124099850D01*
X144304019Y-124099850D02*
X144227828Y-124137945D01*
X144227828Y-124137945D02*
X144075447Y-124176041D01*
X144075447Y-124176041D02*
X143961161Y-124176041D01*
X143961161Y-124176041D02*
X143808780Y-124137945D01*
X143808780Y-124137945D02*
X143732590Y-124099850D01*
X143732590Y-124099850D02*
X143656400Y-124023660D01*
X143656400Y-124023660D02*
X143618304Y-123909374D01*
X143618304Y-123909374D02*
X143618304Y-123833183D01*
X143618304Y-123833183D02*
X143656400Y-123718898D01*
X143656400Y-123718898D02*
X143694495Y-123680802D01*
X143694495Y-123680802D02*
X143961161Y-123680802D01*
X143961161Y-123680802D02*
X143961161Y-123833183D01*
X143618304Y-123337945D02*
X144418304Y-123337945D01*
X144418304Y-123337945D02*
X143618304Y-122880802D01*
X143618304Y-122880802D02*
X144418304Y-122880802D01*
X143618304Y-122499850D02*
X144418304Y-122499850D01*
X144418304Y-122499850D02*
X144418304Y-122309374D01*
X144418304Y-122309374D02*
X144380209Y-122195088D01*
X144380209Y-122195088D02*
X144304019Y-122118898D01*
X144304019Y-122118898D02*
X144227828Y-122080803D01*
X144227828Y-122080803D02*
X144075447Y-122042707D01*
X144075447Y-122042707D02*
X143961161Y-122042707D01*
X143961161Y-122042707D02*
X143808780Y-122080803D01*
X143808780Y-122080803D02*
X143732590Y-122118898D01*
X143732590Y-122118898D02*
X143656400Y-122195088D01*
X143656400Y-122195088D02*
X143618304Y-122309374D01*
X143618304Y-122309374D02*
X143618304Y-122499850D01*
X132315209Y-144673898D02*
X132353304Y-144750088D01*
X132353304Y-144750088D02*
X132353304Y-144864374D01*
X132353304Y-144864374D02*
X132315209Y-144978660D01*
X132315209Y-144978660D02*
X132239019Y-145054850D01*
X132239019Y-145054850D02*
X132162828Y-145092945D01*
X132162828Y-145092945D02*
X132010447Y-145131041D01*
X132010447Y-145131041D02*
X131896161Y-145131041D01*
X131896161Y-145131041D02*
X131743780Y-145092945D01*
X131743780Y-145092945D02*
X131667590Y-145054850D01*
X131667590Y-145054850D02*
X131591400Y-144978660D01*
X131591400Y-144978660D02*
X131553304Y-144864374D01*
X131553304Y-144864374D02*
X131553304Y-144788183D01*
X131553304Y-144788183D02*
X131591400Y-144673898D01*
X131591400Y-144673898D02*
X131629495Y-144635802D01*
X131629495Y-144635802D02*
X131896161Y-144635802D01*
X131896161Y-144635802D02*
X131896161Y-144788183D01*
X131553304Y-144292945D02*
X132353304Y-144292945D01*
X132353304Y-144292945D02*
X131553304Y-143835802D01*
X131553304Y-143835802D02*
X132353304Y-143835802D01*
X131553304Y-143454850D02*
X132353304Y-143454850D01*
X132353304Y-143454850D02*
X132353304Y-143264374D01*
X132353304Y-143264374D02*
X132315209Y-143150088D01*
X132315209Y-143150088D02*
X132239019Y-143073898D01*
X132239019Y-143073898D02*
X132162828Y-143035803D01*
X132162828Y-143035803D02*
X132010447Y-142997707D01*
X132010447Y-142997707D02*
X131896161Y-142997707D01*
X131896161Y-142997707D02*
X131743780Y-143035803D01*
X131743780Y-143035803D02*
X131667590Y-143073898D01*
X131667590Y-143073898D02*
X131591400Y-143150088D01*
X131591400Y-143150088D02*
X131553304Y-143264374D01*
X131553304Y-143264374D02*
X131553304Y-143454850D01*
X143403898Y-138829790D02*
X143480088Y-138791695D01*
X143480088Y-138791695D02*
X143594374Y-138791695D01*
X143594374Y-138791695D02*
X143708660Y-138829790D01*
X143708660Y-138829790D02*
X143784850Y-138905980D01*
X143784850Y-138905980D02*
X143822945Y-138982171D01*
X143822945Y-138982171D02*
X143861041Y-139134552D01*
X143861041Y-139134552D02*
X143861041Y-139248838D01*
X143861041Y-139248838D02*
X143822945Y-139401219D01*
X143822945Y-139401219D02*
X143784850Y-139477409D01*
X143784850Y-139477409D02*
X143708660Y-139553600D01*
X143708660Y-139553600D02*
X143594374Y-139591695D01*
X143594374Y-139591695D02*
X143518183Y-139591695D01*
X143518183Y-139591695D02*
X143403898Y-139553600D01*
X143403898Y-139553600D02*
X143365802Y-139515504D01*
X143365802Y-139515504D02*
X143365802Y-139248838D01*
X143365802Y-139248838D02*
X143518183Y-139248838D01*
X143022945Y-139591695D02*
X143022945Y-138791695D01*
X143022945Y-138791695D02*
X142565802Y-139591695D01*
X142565802Y-139591695D02*
X142565802Y-138791695D01*
X142184850Y-139591695D02*
X142184850Y-138791695D01*
X142184850Y-138791695D02*
X141994374Y-138791695D01*
X141994374Y-138791695D02*
X141880088Y-138829790D01*
X141880088Y-138829790D02*
X141803898Y-138905980D01*
X141803898Y-138905980D02*
X141765803Y-138982171D01*
X141765803Y-138982171D02*
X141727707Y-139134552D01*
X141727707Y-139134552D02*
X141727707Y-139248838D01*
X141727707Y-139248838D02*
X141765803Y-139401219D01*
X141765803Y-139401219D02*
X141803898Y-139477409D01*
X141803898Y-139477409D02*
X141880088Y-139553600D01*
X141880088Y-139553600D02*
X141994374Y-139591695D01*
X141994374Y-139591695D02*
X142184850Y-139591695D01*
X127273304Y-145169136D02*
X126473304Y-144978660D01*
X126473304Y-144978660D02*
X127044733Y-144826279D01*
X127044733Y-144826279D02*
X126473304Y-144673898D01*
X126473304Y-144673898D02*
X127273304Y-144483422D01*
X126473304Y-144178659D02*
X127273304Y-144178659D01*
X126473304Y-143340564D02*
X126854257Y-143607231D01*
X126473304Y-143797707D02*
X127273304Y-143797707D01*
X127273304Y-143797707D02*
X127273304Y-143492945D01*
X127273304Y-143492945D02*
X127235209Y-143416755D01*
X127235209Y-143416755D02*
X127197114Y-143378660D01*
X127197114Y-143378660D02*
X127120923Y-143340564D01*
X127120923Y-143340564D02*
X127006638Y-143340564D01*
X127006638Y-143340564D02*
X126930447Y-143378660D01*
X126930447Y-143378660D02*
X126892352Y-143416755D01*
X126892352Y-143416755D02*
X126854257Y-143492945D01*
X126854257Y-143492945D02*
X126854257Y-143797707D01*
X126892352Y-142997707D02*
X126892352Y-142731041D01*
X126473304Y-142616755D02*
X126473304Y-142997707D01*
X126473304Y-142997707D02*
X127273304Y-142997707D01*
X127273304Y-142997707D02*
X127273304Y-142616755D01*
X126397114Y-142464374D02*
X126397114Y-141854850D01*
X126473304Y-141664373D02*
X127273304Y-141664373D01*
X126473304Y-141283421D02*
X127273304Y-141283421D01*
X127273304Y-141283421D02*
X127273304Y-141092945D01*
X127273304Y-141092945D02*
X127235209Y-140978659D01*
X127235209Y-140978659D02*
X127159019Y-140902469D01*
X127159019Y-140902469D02*
X127082828Y-140864374D01*
X127082828Y-140864374D02*
X126930447Y-140826278D01*
X126930447Y-140826278D02*
X126816161Y-140826278D01*
X126816161Y-140826278D02*
X126663780Y-140864374D01*
X126663780Y-140864374D02*
X126587590Y-140902469D01*
X126587590Y-140902469D02*
X126511400Y-140978659D01*
X126511400Y-140978659D02*
X126473304Y-141092945D01*
X126473304Y-141092945D02*
X126473304Y-141283421D01*
X116313304Y-145092945D02*
X117113304Y-145092945D01*
X117113304Y-145092945D02*
X116313304Y-144635802D01*
X116313304Y-144635802D02*
X117113304Y-144635802D01*
X116313304Y-143873898D02*
X116313304Y-144254850D01*
X116313304Y-144254850D02*
X117113304Y-144254850D01*
X116732352Y-143607231D02*
X116732352Y-143340565D01*
X116313304Y-143226279D02*
X116313304Y-143607231D01*
X116313304Y-143607231D02*
X117113304Y-143607231D01*
X117113304Y-143607231D02*
X117113304Y-143226279D01*
X116313304Y-142883421D02*
X117113304Y-142883421D01*
X117113304Y-142883421D02*
X117113304Y-142692945D01*
X117113304Y-142692945D02*
X117075209Y-142578659D01*
X117075209Y-142578659D02*
X116999019Y-142502469D01*
X116999019Y-142502469D02*
X116922828Y-142464374D01*
X116922828Y-142464374D02*
X116770447Y-142426278D01*
X116770447Y-142426278D02*
X116656161Y-142426278D01*
X116656161Y-142426278D02*
X116503780Y-142464374D01*
X116503780Y-142464374D02*
X116427590Y-142502469D01*
X116427590Y-142502469D02*
X116351400Y-142578659D01*
X116351400Y-142578659D02*
X116313304Y-142692945D01*
X116313304Y-142692945D02*
X116313304Y-142883421D01*
X116732352Y-141816755D02*
X116694257Y-141702469D01*
X116694257Y-141702469D02*
X116656161Y-141664374D01*
X116656161Y-141664374D02*
X116579971Y-141626278D01*
X116579971Y-141626278D02*
X116465685Y-141626278D01*
X116465685Y-141626278D02*
X116389495Y-141664374D01*
X116389495Y-141664374D02*
X116351400Y-141702469D01*
X116351400Y-141702469D02*
X116313304Y-141778659D01*
X116313304Y-141778659D02*
X116313304Y-142083421D01*
X116313304Y-142083421D02*
X117113304Y-142083421D01*
X117113304Y-142083421D02*
X117113304Y-141816755D01*
X117113304Y-141816755D02*
X117075209Y-141740564D01*
X117075209Y-141740564D02*
X117037114Y-141702469D01*
X117037114Y-141702469D02*
X116960923Y-141664374D01*
X116960923Y-141664374D02*
X116884733Y-141664374D01*
X116884733Y-141664374D02*
X116808542Y-141702469D01*
X116808542Y-141702469D02*
X116770447Y-141740564D01*
X116770447Y-141740564D02*
X116732352Y-141816755D01*
X116732352Y-141816755D02*
X116732352Y-142083421D01*
X143899136Y-136251695D02*
X143403898Y-136251695D01*
X143403898Y-136251695D02*
X143670564Y-136556457D01*
X143670564Y-136556457D02*
X143556279Y-136556457D01*
X143556279Y-136556457D02*
X143480088Y-136594552D01*
X143480088Y-136594552D02*
X143441993Y-136632647D01*
X143441993Y-136632647D02*
X143403898Y-136708838D01*
X143403898Y-136708838D02*
X143403898Y-136899314D01*
X143403898Y-136899314D02*
X143441993Y-136975504D01*
X143441993Y-136975504D02*
X143480088Y-137013600D01*
X143480088Y-137013600D02*
X143556279Y-137051695D01*
X143556279Y-137051695D02*
X143784850Y-137051695D01*
X143784850Y-137051695D02*
X143861041Y-137013600D01*
X143861041Y-137013600D02*
X143899136Y-136975504D01*
X143061040Y-136975504D02*
X143022945Y-137013600D01*
X143022945Y-137013600D02*
X143061040Y-137051695D01*
X143061040Y-137051695D02*
X143099136Y-137013600D01*
X143099136Y-137013600D02*
X143061040Y-136975504D01*
X143061040Y-136975504D02*
X143061040Y-137051695D01*
X142756279Y-136251695D02*
X142261041Y-136251695D01*
X142261041Y-136251695D02*
X142527707Y-136556457D01*
X142527707Y-136556457D02*
X142413422Y-136556457D01*
X142413422Y-136556457D02*
X142337231Y-136594552D01*
X142337231Y-136594552D02*
X142299136Y-136632647D01*
X142299136Y-136632647D02*
X142261041Y-136708838D01*
X142261041Y-136708838D02*
X142261041Y-136899314D01*
X142261041Y-136899314D02*
X142299136Y-136975504D01*
X142299136Y-136975504D02*
X142337231Y-137013600D01*
X142337231Y-137013600D02*
X142413422Y-137051695D01*
X142413422Y-137051695D02*
X142641993Y-137051695D01*
X142641993Y-137051695D02*
X142718184Y-137013600D01*
X142718184Y-137013600D02*
X142756279Y-136975504D01*
X142032469Y-136251695D02*
X141765802Y-137051695D01*
X141765802Y-137051695D02*
X141499136Y-136251695D01*
X143861041Y-131933600D02*
X143746755Y-131971695D01*
X143746755Y-131971695D02*
X143556279Y-131971695D01*
X143556279Y-131971695D02*
X143480088Y-131933600D01*
X143480088Y-131933600D02*
X143441993Y-131895504D01*
X143441993Y-131895504D02*
X143403898Y-131819314D01*
X143403898Y-131819314D02*
X143403898Y-131743123D01*
X143403898Y-131743123D02*
X143441993Y-131666933D01*
X143441993Y-131666933D02*
X143480088Y-131628838D01*
X143480088Y-131628838D02*
X143556279Y-131590742D01*
X143556279Y-131590742D02*
X143708660Y-131552647D01*
X143708660Y-131552647D02*
X143784850Y-131514552D01*
X143784850Y-131514552D02*
X143822945Y-131476457D01*
X143822945Y-131476457D02*
X143861041Y-131400266D01*
X143861041Y-131400266D02*
X143861041Y-131324076D01*
X143861041Y-131324076D02*
X143822945Y-131247885D01*
X143822945Y-131247885D02*
X143784850Y-131209790D01*
X143784850Y-131209790D02*
X143708660Y-131171695D01*
X143708660Y-131171695D02*
X143518183Y-131171695D01*
X143518183Y-131171695D02*
X143403898Y-131209790D01*
X142603897Y-131895504D02*
X142641993Y-131933600D01*
X142641993Y-131933600D02*
X142756278Y-131971695D01*
X142756278Y-131971695D02*
X142832469Y-131971695D01*
X142832469Y-131971695D02*
X142946755Y-131933600D01*
X142946755Y-131933600D02*
X143022945Y-131857409D01*
X143022945Y-131857409D02*
X143061040Y-131781219D01*
X143061040Y-131781219D02*
X143099136Y-131628838D01*
X143099136Y-131628838D02*
X143099136Y-131514552D01*
X143099136Y-131514552D02*
X143061040Y-131362171D01*
X143061040Y-131362171D02*
X143022945Y-131285980D01*
X143022945Y-131285980D02*
X142946755Y-131209790D01*
X142946755Y-131209790D02*
X142832469Y-131171695D01*
X142832469Y-131171695D02*
X142756278Y-131171695D01*
X142756278Y-131171695D02*
X142641993Y-131209790D01*
X142641993Y-131209790D02*
X142603897Y-131247885D01*
X141880088Y-131971695D02*
X142261040Y-131971695D01*
X142261040Y-131971695D02*
X142261040Y-131171695D01*
X129813304Y-145169136D02*
X129813304Y-144673898D01*
X129813304Y-144673898D02*
X129508542Y-144940564D01*
X129508542Y-144940564D02*
X129508542Y-144826279D01*
X129508542Y-144826279D02*
X129470447Y-144750088D01*
X129470447Y-144750088D02*
X129432352Y-144711993D01*
X129432352Y-144711993D02*
X129356161Y-144673898D01*
X129356161Y-144673898D02*
X129165685Y-144673898D01*
X129165685Y-144673898D02*
X129089495Y-144711993D01*
X129089495Y-144711993D02*
X129051400Y-144750088D01*
X129051400Y-144750088D02*
X129013304Y-144826279D01*
X129013304Y-144826279D02*
X129013304Y-145054850D01*
X129013304Y-145054850D02*
X129051400Y-145131041D01*
X129051400Y-145131041D02*
X129089495Y-145169136D01*
X129089495Y-144331040D02*
X129051400Y-144292945D01*
X129051400Y-144292945D02*
X129013304Y-144331040D01*
X129013304Y-144331040D02*
X129051400Y-144369136D01*
X129051400Y-144369136D02*
X129089495Y-144331040D01*
X129089495Y-144331040D02*
X129013304Y-144331040D01*
X129813304Y-144026279D02*
X129813304Y-143531041D01*
X129813304Y-143531041D02*
X129508542Y-143797707D01*
X129508542Y-143797707D02*
X129508542Y-143683422D01*
X129508542Y-143683422D02*
X129470447Y-143607231D01*
X129470447Y-143607231D02*
X129432352Y-143569136D01*
X129432352Y-143569136D02*
X129356161Y-143531041D01*
X129356161Y-143531041D02*
X129165685Y-143531041D01*
X129165685Y-143531041D02*
X129089495Y-143569136D01*
X129089495Y-143569136D02*
X129051400Y-143607231D01*
X129051400Y-143607231D02*
X129013304Y-143683422D01*
X129013304Y-143683422D02*
X129013304Y-143911993D01*
X129013304Y-143911993D02*
X129051400Y-143988184D01*
X129051400Y-143988184D02*
X129089495Y-144026279D01*
X129813304Y-143302469D02*
X129013304Y-143035802D01*
X129013304Y-143035802D02*
X129813304Y-142769136D01*
X107666041Y-131933600D02*
X107551755Y-131971695D01*
X107551755Y-131971695D02*
X107361279Y-131971695D01*
X107361279Y-131971695D02*
X107285088Y-131933600D01*
X107285088Y-131933600D02*
X107246993Y-131895504D01*
X107246993Y-131895504D02*
X107208898Y-131819314D01*
X107208898Y-131819314D02*
X107208898Y-131743123D01*
X107208898Y-131743123D02*
X107246993Y-131666933D01*
X107246993Y-131666933D02*
X107285088Y-131628838D01*
X107285088Y-131628838D02*
X107361279Y-131590742D01*
X107361279Y-131590742D02*
X107513660Y-131552647D01*
X107513660Y-131552647D02*
X107589850Y-131514552D01*
X107589850Y-131514552D02*
X107627945Y-131476457D01*
X107627945Y-131476457D02*
X107666041Y-131400266D01*
X107666041Y-131400266D02*
X107666041Y-131324076D01*
X107666041Y-131324076D02*
X107627945Y-131247885D01*
X107627945Y-131247885D02*
X107589850Y-131209790D01*
X107589850Y-131209790D02*
X107513660Y-131171695D01*
X107513660Y-131171695D02*
X107323183Y-131171695D01*
X107323183Y-131171695D02*
X107208898Y-131209790D01*
X106408897Y-131895504D02*
X106446993Y-131933600D01*
X106446993Y-131933600D02*
X106561278Y-131971695D01*
X106561278Y-131971695D02*
X106637469Y-131971695D01*
X106637469Y-131971695D02*
X106751755Y-131933600D01*
X106751755Y-131933600D02*
X106827945Y-131857409D01*
X106827945Y-131857409D02*
X106866040Y-131781219D01*
X106866040Y-131781219D02*
X106904136Y-131628838D01*
X106904136Y-131628838D02*
X106904136Y-131514552D01*
X106904136Y-131514552D02*
X106866040Y-131362171D01*
X106866040Y-131362171D02*
X106827945Y-131285980D01*
X106827945Y-131285980D02*
X106751755Y-131209790D01*
X106751755Y-131209790D02*
X106637469Y-131171695D01*
X106637469Y-131171695D02*
X106561278Y-131171695D01*
X106561278Y-131171695D02*
X106446993Y-131209790D01*
X106446993Y-131209790D02*
X106408897Y-131247885D01*
X105685088Y-131971695D02*
X106066040Y-131971695D01*
X106066040Y-131971695D02*
X106066040Y-131171695D01*
X143861041Y-134473600D02*
X143746755Y-134511695D01*
X143746755Y-134511695D02*
X143556279Y-134511695D01*
X143556279Y-134511695D02*
X143480088Y-134473600D01*
X143480088Y-134473600D02*
X143441993Y-134435504D01*
X143441993Y-134435504D02*
X143403898Y-134359314D01*
X143403898Y-134359314D02*
X143403898Y-134283123D01*
X143403898Y-134283123D02*
X143441993Y-134206933D01*
X143441993Y-134206933D02*
X143480088Y-134168838D01*
X143480088Y-134168838D02*
X143556279Y-134130742D01*
X143556279Y-134130742D02*
X143708660Y-134092647D01*
X143708660Y-134092647D02*
X143784850Y-134054552D01*
X143784850Y-134054552D02*
X143822945Y-134016457D01*
X143822945Y-134016457D02*
X143861041Y-133940266D01*
X143861041Y-133940266D02*
X143861041Y-133864076D01*
X143861041Y-133864076D02*
X143822945Y-133787885D01*
X143822945Y-133787885D02*
X143784850Y-133749790D01*
X143784850Y-133749790D02*
X143708660Y-133711695D01*
X143708660Y-133711695D02*
X143518183Y-133711695D01*
X143518183Y-133711695D02*
X143403898Y-133749790D01*
X143061040Y-134511695D02*
X143061040Y-133711695D01*
X143061040Y-133711695D02*
X142870564Y-133711695D01*
X142870564Y-133711695D02*
X142756278Y-133749790D01*
X142756278Y-133749790D02*
X142680088Y-133825980D01*
X142680088Y-133825980D02*
X142641993Y-133902171D01*
X142641993Y-133902171D02*
X142603897Y-134054552D01*
X142603897Y-134054552D02*
X142603897Y-134168838D01*
X142603897Y-134168838D02*
X142641993Y-134321219D01*
X142641993Y-134321219D02*
X142680088Y-134397409D01*
X142680088Y-134397409D02*
X142756278Y-134473600D01*
X142756278Y-134473600D02*
X142870564Y-134511695D01*
X142870564Y-134511695D02*
X143061040Y-134511695D01*
X142299136Y-134283123D02*
X141918183Y-134283123D01*
X142375326Y-134511695D02*
X142108659Y-133711695D01*
X142108659Y-133711695D02*
X141841993Y-134511695D01*
X121393304Y-145092945D02*
X122193304Y-145092945D01*
X122193304Y-145092945D02*
X121393304Y-144635802D01*
X121393304Y-144635802D02*
X122193304Y-144635802D01*
X121393304Y-143873898D02*
X121393304Y-144254850D01*
X121393304Y-144254850D02*
X122193304Y-144254850D01*
X121812352Y-143607231D02*
X121812352Y-143340565D01*
X121393304Y-143226279D02*
X121393304Y-143607231D01*
X121393304Y-143607231D02*
X122193304Y-143607231D01*
X122193304Y-143607231D02*
X122193304Y-143226279D01*
X121393304Y-142883421D02*
X122193304Y-142883421D01*
X122193304Y-142883421D02*
X122193304Y-142692945D01*
X122193304Y-142692945D02*
X122155209Y-142578659D01*
X122155209Y-142578659D02*
X122079019Y-142502469D01*
X122079019Y-142502469D02*
X122002828Y-142464374D01*
X122002828Y-142464374D02*
X121850447Y-142426278D01*
X121850447Y-142426278D02*
X121736161Y-142426278D01*
X121736161Y-142426278D02*
X121583780Y-142464374D01*
X121583780Y-142464374D02*
X121507590Y-142502469D01*
X121507590Y-142502469D02*
X121431400Y-142578659D01*
X121431400Y-142578659D02*
X121393304Y-142692945D01*
X121393304Y-142692945D02*
X121393304Y-142883421D01*
X121393304Y-141626278D02*
X121774257Y-141892945D01*
X121393304Y-142083421D02*
X122193304Y-142083421D01*
X122193304Y-142083421D02*
X122193304Y-141778659D01*
X122193304Y-141778659D02*
X122155209Y-141702469D01*
X122155209Y-141702469D02*
X122117114Y-141664374D01*
X122117114Y-141664374D02*
X122040923Y-141626278D01*
X122040923Y-141626278D02*
X121926638Y-141626278D01*
X121926638Y-141626278D02*
X121850447Y-141664374D01*
X121850447Y-141664374D02*
X121812352Y-141702469D01*
X121812352Y-141702469D02*
X121774257Y-141778659D01*
X121774257Y-141778659D02*
X121774257Y-142083421D01*
X107704136Y-136251695D02*
X107208898Y-136251695D01*
X107208898Y-136251695D02*
X107475564Y-136556457D01*
X107475564Y-136556457D02*
X107361279Y-136556457D01*
X107361279Y-136556457D02*
X107285088Y-136594552D01*
X107285088Y-136594552D02*
X107246993Y-136632647D01*
X107246993Y-136632647D02*
X107208898Y-136708838D01*
X107208898Y-136708838D02*
X107208898Y-136899314D01*
X107208898Y-136899314D02*
X107246993Y-136975504D01*
X107246993Y-136975504D02*
X107285088Y-137013600D01*
X107285088Y-137013600D02*
X107361279Y-137051695D01*
X107361279Y-137051695D02*
X107589850Y-137051695D01*
X107589850Y-137051695D02*
X107666041Y-137013600D01*
X107666041Y-137013600D02*
X107704136Y-136975504D01*
X106866040Y-136975504D02*
X106827945Y-137013600D01*
X106827945Y-137013600D02*
X106866040Y-137051695D01*
X106866040Y-137051695D02*
X106904136Y-137013600D01*
X106904136Y-137013600D02*
X106866040Y-136975504D01*
X106866040Y-136975504D02*
X106866040Y-137051695D01*
X106561279Y-136251695D02*
X106066041Y-136251695D01*
X106066041Y-136251695D02*
X106332707Y-136556457D01*
X106332707Y-136556457D02*
X106218422Y-136556457D01*
X106218422Y-136556457D02*
X106142231Y-136594552D01*
X106142231Y-136594552D02*
X106104136Y-136632647D01*
X106104136Y-136632647D02*
X106066041Y-136708838D01*
X106066041Y-136708838D02*
X106066041Y-136899314D01*
X106066041Y-136899314D02*
X106104136Y-136975504D01*
X106104136Y-136975504D02*
X106142231Y-137013600D01*
X106142231Y-137013600D02*
X106218422Y-137051695D01*
X106218422Y-137051695D02*
X106446993Y-137051695D01*
X106446993Y-137051695D02*
X106523184Y-137013600D01*
X106523184Y-137013600D02*
X106561279Y-136975504D01*
X105837469Y-136251695D02*
X105570802Y-137051695D01*
X105570802Y-137051695D02*
X105304136Y-136251695D01*
X107208898Y-138829790D02*
X107285088Y-138791695D01*
X107285088Y-138791695D02*
X107399374Y-138791695D01*
X107399374Y-138791695D02*
X107513660Y-138829790D01*
X107513660Y-138829790D02*
X107589850Y-138905980D01*
X107589850Y-138905980D02*
X107627945Y-138982171D01*
X107627945Y-138982171D02*
X107666041Y-139134552D01*
X107666041Y-139134552D02*
X107666041Y-139248838D01*
X107666041Y-139248838D02*
X107627945Y-139401219D01*
X107627945Y-139401219D02*
X107589850Y-139477409D01*
X107589850Y-139477409D02*
X107513660Y-139553600D01*
X107513660Y-139553600D02*
X107399374Y-139591695D01*
X107399374Y-139591695D02*
X107323183Y-139591695D01*
X107323183Y-139591695D02*
X107208898Y-139553600D01*
X107208898Y-139553600D02*
X107170802Y-139515504D01*
X107170802Y-139515504D02*
X107170802Y-139248838D01*
X107170802Y-139248838D02*
X107323183Y-139248838D01*
X106827945Y-139591695D02*
X106827945Y-138791695D01*
X106827945Y-138791695D02*
X106370802Y-139591695D01*
X106370802Y-139591695D02*
X106370802Y-138791695D01*
X105989850Y-139591695D02*
X105989850Y-138791695D01*
X105989850Y-138791695D02*
X105799374Y-138791695D01*
X105799374Y-138791695D02*
X105685088Y-138829790D01*
X105685088Y-138829790D02*
X105608898Y-138905980D01*
X105608898Y-138905980D02*
X105570803Y-138982171D01*
X105570803Y-138982171D02*
X105532707Y-139134552D01*
X105532707Y-139134552D02*
X105532707Y-139248838D01*
X105532707Y-139248838D02*
X105570803Y-139401219D01*
X105570803Y-139401219D02*
X105608898Y-139477409D01*
X105608898Y-139477409D02*
X105685088Y-139553600D01*
X105685088Y-139553600D02*
X105799374Y-139591695D01*
X105799374Y-139591695D02*
X105989850Y-139591695D01*
X136036400Y-124176041D02*
X135998304Y-124061755D01*
X135998304Y-124061755D02*
X135998304Y-123871279D01*
X135998304Y-123871279D02*
X136036400Y-123795088D01*
X136036400Y-123795088D02*
X136074495Y-123756993D01*
X136074495Y-123756993D02*
X136150685Y-123718898D01*
X136150685Y-123718898D02*
X136226876Y-123718898D01*
X136226876Y-123718898D02*
X136303066Y-123756993D01*
X136303066Y-123756993D02*
X136341161Y-123795088D01*
X136341161Y-123795088D02*
X136379257Y-123871279D01*
X136379257Y-123871279D02*
X136417352Y-124023660D01*
X136417352Y-124023660D02*
X136455447Y-124099850D01*
X136455447Y-124099850D02*
X136493542Y-124137945D01*
X136493542Y-124137945D02*
X136569733Y-124176041D01*
X136569733Y-124176041D02*
X136645923Y-124176041D01*
X136645923Y-124176041D02*
X136722114Y-124137945D01*
X136722114Y-124137945D02*
X136760209Y-124099850D01*
X136760209Y-124099850D02*
X136798304Y-124023660D01*
X136798304Y-124023660D02*
X136798304Y-123833183D01*
X136798304Y-123833183D02*
X136760209Y-123718898D01*
X136798304Y-123452231D02*
X135998304Y-123261755D01*
X135998304Y-123261755D02*
X136569733Y-123109374D01*
X136569733Y-123109374D02*
X135998304Y-122956993D01*
X135998304Y-122956993D02*
X136798304Y-122766517D01*
X135998304Y-122461754D02*
X136798304Y-122461754D01*
X136798304Y-121928421D02*
X136798304Y-121776040D01*
X136798304Y-121776040D02*
X136760209Y-121699850D01*
X136760209Y-121699850D02*
X136684019Y-121623659D01*
X136684019Y-121623659D02*
X136531638Y-121585564D01*
X136531638Y-121585564D02*
X136264971Y-121585564D01*
X136264971Y-121585564D02*
X136112590Y-121623659D01*
X136112590Y-121623659D02*
X136036400Y-121699850D01*
X136036400Y-121699850D02*
X135998304Y-121776040D01*
X135998304Y-121776040D02*
X135998304Y-121928421D01*
X135998304Y-121928421D02*
X136036400Y-122004612D01*
X136036400Y-122004612D02*
X136112590Y-122080802D01*
X136112590Y-122080802D02*
X136264971Y-122118898D01*
X136264971Y-122118898D02*
X136531638Y-122118898D01*
X136531638Y-122118898D02*
X136684019Y-122080802D01*
X136684019Y-122080802D02*
X136760209Y-122004612D01*
X136760209Y-122004612D02*
X136798304Y-121928421D01*
X107666041Y-134473600D02*
X107551755Y-134511695D01*
X107551755Y-134511695D02*
X107361279Y-134511695D01*
X107361279Y-134511695D02*
X107285088Y-134473600D01*
X107285088Y-134473600D02*
X107246993Y-134435504D01*
X107246993Y-134435504D02*
X107208898Y-134359314D01*
X107208898Y-134359314D02*
X107208898Y-134283123D01*
X107208898Y-134283123D02*
X107246993Y-134206933D01*
X107246993Y-134206933D02*
X107285088Y-134168838D01*
X107285088Y-134168838D02*
X107361279Y-134130742D01*
X107361279Y-134130742D02*
X107513660Y-134092647D01*
X107513660Y-134092647D02*
X107589850Y-134054552D01*
X107589850Y-134054552D02*
X107627945Y-134016457D01*
X107627945Y-134016457D02*
X107666041Y-133940266D01*
X107666041Y-133940266D02*
X107666041Y-133864076D01*
X107666041Y-133864076D02*
X107627945Y-133787885D01*
X107627945Y-133787885D02*
X107589850Y-133749790D01*
X107589850Y-133749790D02*
X107513660Y-133711695D01*
X107513660Y-133711695D02*
X107323183Y-133711695D01*
X107323183Y-133711695D02*
X107208898Y-133749790D01*
X106866040Y-134511695D02*
X106866040Y-133711695D01*
X106866040Y-133711695D02*
X106675564Y-133711695D01*
X106675564Y-133711695D02*
X106561278Y-133749790D01*
X106561278Y-133749790D02*
X106485088Y-133825980D01*
X106485088Y-133825980D02*
X106446993Y-133902171D01*
X106446993Y-133902171D02*
X106408897Y-134054552D01*
X106408897Y-134054552D02*
X106408897Y-134168838D01*
X106408897Y-134168838D02*
X106446993Y-134321219D01*
X106446993Y-134321219D02*
X106485088Y-134397409D01*
X106485088Y-134397409D02*
X106561278Y-134473600D01*
X106561278Y-134473600D02*
X106675564Y-134511695D01*
X106675564Y-134511695D02*
X106866040Y-134511695D01*
X106104136Y-134283123D02*
X105723183Y-134283123D01*
X106180326Y-134511695D02*
X105913659Y-133711695D01*
X105913659Y-133711695D02*
X105646993Y-134511695D01*
X141878304Y-124214136D02*
X141878304Y-123718898D01*
X141878304Y-123718898D02*
X141573542Y-123985564D01*
X141573542Y-123985564D02*
X141573542Y-123871279D01*
X141573542Y-123871279D02*
X141535447Y-123795088D01*
X141535447Y-123795088D02*
X141497352Y-123756993D01*
X141497352Y-123756993D02*
X141421161Y-123718898D01*
X141421161Y-123718898D02*
X141230685Y-123718898D01*
X141230685Y-123718898D02*
X141154495Y-123756993D01*
X141154495Y-123756993D02*
X141116400Y-123795088D01*
X141116400Y-123795088D02*
X141078304Y-123871279D01*
X141078304Y-123871279D02*
X141078304Y-124099850D01*
X141078304Y-124099850D02*
X141116400Y-124176041D01*
X141116400Y-124176041D02*
X141154495Y-124214136D01*
X141154495Y-123376040D02*
X141116400Y-123337945D01*
X141116400Y-123337945D02*
X141078304Y-123376040D01*
X141078304Y-123376040D02*
X141116400Y-123414136D01*
X141116400Y-123414136D02*
X141154495Y-123376040D01*
X141154495Y-123376040D02*
X141078304Y-123376040D01*
X141878304Y-123071279D02*
X141878304Y-122576041D01*
X141878304Y-122576041D02*
X141573542Y-122842707D01*
X141573542Y-122842707D02*
X141573542Y-122728422D01*
X141573542Y-122728422D02*
X141535447Y-122652231D01*
X141535447Y-122652231D02*
X141497352Y-122614136D01*
X141497352Y-122614136D02*
X141421161Y-122576041D01*
X141421161Y-122576041D02*
X141230685Y-122576041D01*
X141230685Y-122576041D02*
X141154495Y-122614136D01*
X141154495Y-122614136D02*
X141116400Y-122652231D01*
X141116400Y-122652231D02*
X141078304Y-122728422D01*
X141078304Y-122728422D02*
X141078304Y-122956993D01*
X141078304Y-122956993D02*
X141116400Y-123033184D01*
X141116400Y-123033184D02*
X141154495Y-123071279D01*
X141878304Y-122347469D02*
X141078304Y-122080802D01*
X141078304Y-122080802D02*
X141878304Y-121814136D01*
M02*
