%TF.GenerationSoftware,KiCad,Pcbnew,7.0.11+dfsg-1build4*%
%TF.CreationDate,2026-03-17T18:57:51-05:00*%
%TF.ProjectId,friendly-board-game-tile-tile,66726965-6e64-46c7-992d-626f6172642d,rev?*%
%TF.SameCoordinates,Original*%
%TF.FileFunction,Copper,L1,Top*%
%TF.FilePolarity,Positive*%
%FSLAX46Y46*%
G04 Gerber Fmt 4.6, Leading zero omitted, Abs format (unit mm)*
G04 Created by KiCad (PCBNEW 7.0.11+dfsg-1build4) date 2026-03-17 18:57:51*
%MOMM*%
%LPD*%
G01*
G04 APERTURE LIST*
G04 Aperture macros list*
%AMRoundRect*
0 Rectangle with rounded corners*
0 $1 Rounding radius*
0 $2 $3 $4 $5 $6 $7 $8 $9 X,Y pos of 4 corners*
0 Add a 4 corners polygon primitive as box body*
4,1,4,$2,$3,$4,$5,$6,$7,$8,$9,$2,$3,0*
0 Add four circle primitives for the rounded corners*
1,1,$1+$1,$2,$3*
1,1,$1+$1,$4,$5*
1,1,$1+$1,$6,$7*
1,1,$1+$1,$8,$9*
0 Add four rect primitives between the rounded corners*
20,1,$1+$1,$2,$3,$4,$5,0*
20,1,$1+$1,$4,$5,$6,$7,0*
20,1,$1+$1,$6,$7,$8,$9,0*
20,1,$1+$1,$8,$9,$2,$3,0*%
G04 Aperture macros list end*
%TA.AperFunction,ComponentPad*%
%ADD10C,1.300000*%
%TD*%
%TA.AperFunction,SMDPad,CuDef*%
%ADD11RoundRect,0.250000X0.350000X0.450000X-0.350000X0.450000X-0.350000X-0.450000X0.350000X-0.450000X0*%
%TD*%
%TA.AperFunction,SMDPad,CuDef*%
%ADD12RoundRect,0.150000X0.587500X0.150000X-0.587500X0.150000X-0.587500X-0.150000X0.587500X-0.150000X0*%
%TD*%
%TA.AperFunction,ComponentPad*%
%ADD13R,1.700000X1.700000*%
%TD*%
%TA.AperFunction,ComponentPad*%
%ADD14O,1.700000X1.700000*%
%TD*%
%TA.AperFunction,SMDPad,CuDef*%
%ADD15RoundRect,0.250000X-0.450000X0.350000X-0.450000X-0.350000X0.450000X-0.350000X0.450000X0.350000X0*%
%TD*%
%TA.AperFunction,SMDPad,CuDef*%
%ADD16RoundRect,0.250000X-0.350000X-0.450000X0.350000X-0.450000X0.350000X0.450000X-0.350000X0.450000X0*%
%TD*%
%TA.AperFunction,SMDPad,CuDef*%
%ADD17RoundRect,0.250000X-0.475000X0.337500X-0.475000X-0.337500X0.475000X-0.337500X0.475000X0.337500X0*%
%TD*%
%TA.AperFunction,SMDPad,CuDef*%
%ADD18RoundRect,0.250000X-0.337500X-0.475000X0.337500X-0.475000X0.337500X0.475000X-0.337500X0.475000X0*%
%TD*%
%TA.AperFunction,SMDPad,CuDef*%
%ADD19R,2.440000X1.120000*%
%TD*%
%TA.AperFunction,ComponentPad*%
%ADD20C,1.500000*%
%TD*%
%TA.AperFunction,ComponentPad*%
%ADD21O,0.800000X1.800000*%
%TD*%
%TA.AperFunction,SMDPad,CuDef*%
%ADD22RoundRect,0.150000X0.150000X-0.850000X0.150000X0.850000X-0.150000X0.850000X-0.150000X-0.850000X0*%
%TD*%
%TA.AperFunction,SMDPad,CuDef*%
%ADD23RoundRect,0.150000X-0.587500X-0.150000X0.587500X-0.150000X0.587500X0.150000X-0.587500X0.150000X0*%
%TD*%
%TA.AperFunction,SMDPad,CuDef*%
%ADD24R,1.500000X0.900000*%
%TD*%
%TA.AperFunction,SMDPad,CuDef*%
%ADD25RoundRect,0.225000X-0.225000X-0.375000X0.225000X-0.375000X0.225000X0.375000X-0.225000X0.375000X0*%
%TD*%
%TA.AperFunction,ViaPad*%
%ADD26C,0.600000*%
%TD*%
%TA.AperFunction,Conductor*%
%ADD27C,0.200000*%
%TD*%
G04 APERTURE END LIST*
D10*
%TO.P,M1,1,+*%
%TO.N,+3.3V*%
X139954000Y-115316000D03*
%TO.P,M1,2,-*%
%TO.N,Net-(D2-A)*%
X139954000Y-119716000D03*
%TD*%
D11*
%TO.P,R9,1*%
%TO.N,+3.3V*%
X115316000Y-124460000D03*
%TO.P,R9,2*%
%TO.N,/I2CADD1*%
X113316000Y-124460000D03*
%TD*%
D12*
%TO.P,Q3,1,B*%
%TO.N,Net-(Q3-B)*%
X124206000Y-104648000D03*
%TO.P,Q3,2,E*%
%TO.N,+3.3V*%
X124206000Y-102748000D03*
%TO.P,Q3,3,C*%
%TO.N,Net-(Q3-C)*%
X122331000Y-103698000D03*
%TD*%
D13*
%TO.P,J2,1,Pin_1*%
%TO.N,GND*%
X144018000Y-127000000D03*
D14*
%TO.P,J2,2,Pin_2*%
%TO.N,+3.3V*%
X141478000Y-127000000D03*
%TO.P,J2,3,Pin_3*%
%TO.N,/NRST*%
X138938000Y-127000000D03*
%TO.P,J2,4,Pin_4*%
%TO.N,/SWIO*%
X136398000Y-127000000D03*
%TD*%
D15*
%TO.P,R4,1*%
%TO.N,Net-(Q4-C)*%
X110490000Y-103632000D03*
%TO.P,R4,2*%
%TO.N,Net-(D1-BA)*%
X110490000Y-105632000D03*
%TD*%
D16*
%TO.P,R7,1*%
%TO.N,/B_LED_A*%
X126508000Y-109220000D03*
%TO.P,R7,2*%
%TO.N,Net-(Q4-B)*%
X128508000Y-109220000D03*
%TD*%
%TO.P,R6,1*%
%TO.N,/G_LED_A*%
X122206000Y-109220000D03*
%TO.P,R6,2*%
%TO.N,Net-(Q3-B)*%
X124206000Y-109220000D03*
%TD*%
D17*
%TO.P,C2,1*%
%TO.N,+3.3V*%
X124460000Y-134577000D03*
%TO.P,C2,2*%
%TO.N,GND*%
X124460000Y-136652000D03*
%TD*%
D11*
%TO.P,R11,1*%
%TO.N,+3.3V*%
X115316000Y-119380000D03*
%TO.P,R11,2*%
%TO.N,/I2CADD3*%
X113316000Y-119380000D03*
%TD*%
%TO.P,R10,1*%
%TO.N,+3.3V*%
X115316000Y-121920000D03*
%TO.P,R10,2*%
%TO.N,/I2CADD2*%
X113316000Y-121920000D03*
%TD*%
D15*
%TO.P,R3,1*%
%TO.N,Net-(Q3-C)*%
X112776000Y-103632000D03*
%TO.P,R3,2*%
%TO.N,Net-(D1-GA)*%
X112776000Y-105632000D03*
%TD*%
D18*
%TO.P,C1,1*%
%TO.N,+3.3V*%
X131783000Y-105410000D03*
%TO.P,C1,2*%
%TO.N,Net-(D2-A)*%
X133858000Y-105410000D03*
%TD*%
D16*
%TO.P,R16,1*%
%TO.N,+3.3V*%
X118396000Y-139954000D03*
%TO.P,R16,2*%
%TO.N,/WIRE_ID*%
X120396000Y-139954000D03*
%TD*%
D11*
%TO.P,R13,1*%
%TO.N,+3.3V*%
X115316000Y-114300000D03*
%TO.P,R13,2*%
%TO.N,/I2CADD5*%
X113316000Y-114300000D03*
%TD*%
%TO.P,R12,1*%
%TO.N,+3.3V*%
X115316000Y-116840000D03*
%TO.P,R12,2*%
%TO.N,/I2CADD4*%
X113316000Y-116840000D03*
%TD*%
D19*
%TO.P,SW1,1*%
%TO.N,/I2CADD0*%
X110490000Y-127000000D03*
%TO.P,SW1,2*%
%TO.N,/I2CADD1*%
X110490000Y-124460000D03*
%TO.P,SW1,3*%
%TO.N,/I2CADD2*%
X110490000Y-121920000D03*
%TO.P,SW1,4*%
%TO.N,/I2CADD3*%
X110490000Y-119380000D03*
%TO.P,SW1,5*%
%TO.N,/I2CADD4*%
X110490000Y-116840000D03*
%TO.P,SW1,6*%
%TO.N,/I2CADD5*%
X110490000Y-114300000D03*
%TO.P,SW1,7*%
%TO.N,GND*%
X101880000Y-114300000D03*
%TO.P,SW1,8*%
X101880000Y-116840000D03*
%TO.P,SW1,9*%
X101880000Y-119380000D03*
%TO.P,SW1,10*%
X101880000Y-121920000D03*
%TO.P,SW1,11*%
X101880000Y-124460000D03*
%TO.P,SW1,12*%
X101880000Y-127000000D03*
%TD*%
D20*
%TO.P,J1,1,Pin_1*%
%TO.N,/WIRE_ID*%
X125000000Y-125000000D03*
D21*
%TO.P,J1,2,Pin_2*%
%TO.N,GND*%
X123420000Y-125000000D03*
X126580000Y-125000000D03*
%TD*%
D16*
%TO.P,R14,1*%
%TO.N,+3.3V*%
X118396000Y-133292000D03*
%TO.P,R14,2*%
%TO.N,/SDA*%
X120396000Y-133292000D03*
%TD*%
D22*
%TO.P,U1,1,PC1*%
%TO.N,/SDA*%
X127889000Y-138136000D03*
%TO.P,U1,2,PC2*%
%TO.N,/SCL*%
X129159000Y-138136000D03*
%TO.P,U1,3,PC3*%
%TO.N,/WIRE_ID*%
X130429000Y-138136000D03*
%TO.P,U1,4,PC4*%
%TO.N,/MOTOR*%
X131699000Y-138136000D03*
%TO.P,U1,5,PC6*%
%TO.N,/I2CADD2*%
X132969000Y-138136000D03*
%TO.P,U1,6,PC7*%
%TO.N,/G_LED_A*%
X134239000Y-138136000D03*
%TO.P,U1,7,PD1*%
%TO.N,/SWIO*%
X135509000Y-138136000D03*
%TO.P,U1,8,PD4*%
%TO.N,/I2CADD3*%
X136779000Y-138136000D03*
%TO.P,U1,9,PD5*%
%TO.N,/I2CADD4*%
X136779000Y-133136000D03*
%TO.P,U1,10,PD6*%
%TO.N,/I2CADD5*%
X135509000Y-133136000D03*
%TO.P,U1,11,PD7*%
%TO.N,/NRST*%
X134239000Y-133136000D03*
%TO.P,U1,12,PA1*%
%TO.N,/R_LED_A*%
X132969000Y-133136000D03*
%TO.P,U1,13,PA2*%
%TO.N,/I2CADD0*%
X131699000Y-133136000D03*
%TO.P,U1,14,VSS*%
%TO.N,GND*%
X130429000Y-133136000D03*
%TO.P,U1,15,VDD*%
%TO.N,+3.3V*%
X129159000Y-133136000D03*
%TO.P,U1,16,PC0*%
%TO.N,/I2CADD1*%
X127889000Y-133136000D03*
%TD*%
D13*
%TO.P,J5,1,Pin_1*%
%TO.N,GND*%
X102854000Y-139456000D03*
D14*
%TO.P,J5,2,Pin_2*%
%TO.N,+3.3V*%
X102854000Y-136916000D03*
%TO.P,J5,3,Pin_3*%
%TO.N,/SDA*%
X102854000Y-134376000D03*
%TO.P,J5,4,Pin_4*%
%TO.N,/SCL*%
X102854000Y-131836000D03*
%TD*%
D12*
%TO.P,Q4,1,B*%
%TO.N,Net-(Q4-B)*%
X128270000Y-104648000D03*
%TO.P,Q4,2,E*%
%TO.N,+3.3V*%
X128270000Y-102748000D03*
%TO.P,Q4,3,C*%
%TO.N,Net-(Q4-C)*%
X126395000Y-103698000D03*
%TD*%
D23*
%TO.P,Q1,1,B*%
%TO.N,Net-(Q1-B)*%
X137825000Y-109032000D03*
%TO.P,Q1,2,E*%
%TO.N,GND*%
X137825000Y-110932000D03*
%TO.P,Q1,3,C*%
%TO.N,Net-(D2-A)*%
X139700000Y-109982000D03*
%TD*%
D16*
%TO.P,R1,1*%
%TO.N,/MOTOR*%
X136684000Y-105410000D03*
%TO.P,R1,2*%
%TO.N,Net-(Q1-B)*%
X138684000Y-105410000D03*
%TD*%
D13*
%TO.P,J4,1,Pin_1*%
%TO.N,GND*%
X147146000Y-139456000D03*
D14*
%TO.P,J4,2,Pin_2*%
%TO.N,+3.3V*%
X147146000Y-136916000D03*
%TO.P,J4,3,Pin_3*%
%TO.N,/SDA*%
X147146000Y-134376000D03*
%TO.P,J4,4,Pin_4*%
%TO.N,/SCL*%
X147146000Y-131836000D03*
%TD*%
D16*
%TO.P,R5,1*%
%TO.N,/R_LED_A*%
X118142000Y-109220000D03*
%TO.P,R5,2*%
%TO.N,Net-(Q2-B)*%
X120142000Y-109220000D03*
%TD*%
%TO.P,R17,1*%
%TO.N,/SWIO*%
X122206000Y-112776000D03*
%TO.P,R17,2*%
%TO.N,/B_LED_A*%
X124206000Y-112776000D03*
%TD*%
D11*
%TO.P,R8,1*%
%TO.N,+3.3V*%
X115316000Y-127000000D03*
%TO.P,R8,2*%
%TO.N,/I2CADD0*%
X113316000Y-127000000D03*
%TD*%
D24*
%TO.P,D1,1,RA*%
%TO.N,Net-(D1-RA)*%
X114300000Y-109344000D03*
%TO.P,D1,2,GA*%
%TO.N,Net-(D1-GA)*%
X114300000Y-110744000D03*
%TO.P,D1,3,BA*%
%TO.N,Net-(D1-BA)*%
X111200000Y-109344000D03*
%TO.P,D1,4,K*%
%TO.N,GND*%
X111200000Y-110744000D03*
%TD*%
D25*
%TO.P,D2,1,K*%
%TO.N,+3.3V*%
X131574000Y-109220000D03*
%TO.P,D2,2,A*%
%TO.N,Net-(D2-A)*%
X134874000Y-109220000D03*
%TD*%
D12*
%TO.P,Q2,1,B*%
%TO.N,Net-(Q2-B)*%
X120142000Y-104648000D03*
%TO.P,Q2,2,E*%
%TO.N,+3.3V*%
X120142000Y-102748000D03*
%TO.P,Q2,3,C*%
%TO.N,Net-(Q2-C)*%
X118267000Y-103698000D03*
%TD*%
D13*
%TO.P,J3,1,Pin_1*%
%TO.N,GND*%
X132588000Y-148082000D03*
D14*
%TO.P,J3,2,Pin_2*%
%TO.N,+3.3V*%
X130048000Y-148082000D03*
%TO.P,J3,3,Pin_3*%
%TO.N,/WIRE_ID*%
X127508000Y-148082000D03*
%TO.P,J3,4,Pin_4*%
%TO.N,/MOTOR*%
X124968000Y-148082000D03*
%TO.P,J3,5,Pin_5*%
%TO.N,/R_LED_A*%
X122428000Y-148082000D03*
%TO.P,J3,6,Pin_6*%
%TO.N,/G_LED_A*%
X119888000Y-148082000D03*
%TO.P,J3,7,Pin_7*%
%TO.N,/B_LED_A*%
X117348000Y-148082000D03*
%TD*%
D16*
%TO.P,R15,1*%
%TO.N,+3.3V*%
X118396000Y-136652000D03*
%TO.P,R15,2*%
%TO.N,/SCL*%
X120396000Y-136652000D03*
%TD*%
D15*
%TO.P,R2,1*%
%TO.N,Net-(Q2-C)*%
X115062000Y-103632000D03*
%TO.P,R2,2*%
%TO.N,Net-(D1-RA)*%
X115062000Y-105632000D03*
%TD*%
D26*
%TO.N,GND*%
X124206000Y-137922000D03*
X112014000Y-134528000D03*
X104453000Y-127952500D03*
X122099200Y-134019800D03*
X113538000Y-143256000D03*
X126580000Y-131045900D03*
X119126000Y-143256000D03*
%TO.N,+3.3V*%
X126492000Y-112522000D03*
X145034000Y-133350000D03*
X131318000Y-144526000D03*
X119696100Y-113037200D03*
X130908100Y-134874000D03*
%TO.N,Net-(D2-A)*%
X141732000Y-109982000D03*
X136490000Y-109982000D03*
%TO.N,Net-(Q3-C)*%
X112776000Y-102108000D03*
X121666000Y-105664000D03*
%TO.N,/WIRE_ID*%
X125000000Y-142691600D03*
%TO.N,Net-(Q4-C)*%
X111506000Y-104394000D03*
X125984000Y-104648000D03*
%TO.N,/R_LED_A*%
X116840000Y-109728000D03*
X119096100Y-129629300D03*
%TO.N,/G_LED_A*%
X118110000Y-111252000D03*
%TO.N,/B_LED_A*%
X115923700Y-112437200D03*
%TO.N,/MOTOR*%
X139446000Y-136906000D03*
X136144000Y-106934000D03*
%TO.N,/SCL*%
X143002000Y-133858000D03*
X107188000Y-133604000D03*
X142494000Y-136652000D03*
X108204000Y-135890000D03*
%TO.N,/SWIO*%
X135890000Y-140208000D03*
%TO.N,/I2CADD2*%
X130556000Y-140970000D03*
X126873700Y-132908400D03*
%TO.N,/I2CADD3*%
X128016000Y-141478000D03*
X125831500Y-133742700D03*
%TO.N,/I2CADD4*%
X115062000Y-128778000D03*
X114300000Y-118110000D03*
%TO.N,/I2CADD5*%
X114235800Y-115625200D03*
X116586000Y-128778000D03*
%TD*%
D27*
%TO.N,GND*%
X138872000Y-110932000D02*
X144018000Y-116078000D01*
X126580000Y-131045900D02*
X128771900Y-131045900D01*
X137825000Y-110932000D02*
X138872000Y-110932000D01*
X123420000Y-124230000D02*
X124206000Y-123444000D01*
X124206000Y-136906000D02*
X124460000Y-136652000D01*
X101880000Y-127000000D02*
X103401900Y-127000000D01*
X123952000Y-136652000D02*
X124460000Y-136652000D01*
X110974500Y-134474000D02*
X111028500Y-134528000D01*
X103401900Y-127000000D02*
X104354400Y-127952500D01*
X144018000Y-116078000D02*
X144018000Y-127000000D01*
X109728000Y-110744000D02*
X111200000Y-110744000D01*
X126580000Y-124294000D02*
X126580000Y-125000000D01*
X141468000Y-139456000D02*
X147146000Y-139456000D01*
X101880000Y-124460000D02*
X101880000Y-121920000D01*
X123420000Y-125000000D02*
X123420000Y-124230000D01*
X119126000Y-143256000D02*
X113538000Y-143256000D01*
X122099200Y-134019800D02*
X122099200Y-134799200D01*
X132842000Y-148082000D02*
X141468000Y-139456000D01*
X106172000Y-114300000D02*
X109728000Y-110744000D01*
X101880000Y-119380000D02*
X101880000Y-116840000D01*
X101880000Y-121920000D02*
X101119100Y-121920000D01*
X101119100Y-114300000D02*
X101880000Y-114300000D01*
X132588000Y-148082000D02*
X132842000Y-148082000D01*
X101880000Y-121920000D02*
X101880000Y-119380000D01*
X111028500Y-134528000D02*
X112014000Y-134528000D01*
X104453000Y-127952500D02*
X110974500Y-134474000D01*
X130429000Y-132703000D02*
X130429000Y-133136000D01*
X101880000Y-116840000D02*
X101880000Y-114300000D01*
X104354400Y-127952500D02*
X104453000Y-127952500D01*
X128771900Y-131045900D02*
X130429000Y-132703000D01*
X124206000Y-137922000D02*
X124206000Y-136906000D01*
X124206000Y-123444000D02*
X125730000Y-123444000D01*
X101880000Y-124460000D02*
X101119100Y-124460000D01*
X101880000Y-114300000D02*
X106172000Y-114300000D01*
X122099200Y-134799200D02*
X123952000Y-136652000D01*
X101880000Y-127000000D02*
X101880000Y-124460000D01*
X125730000Y-123444000D02*
X126580000Y-124294000D01*
%TO.N,+3.3V*%
X117602000Y-114300000D02*
X115316000Y-114300000D01*
X121666000Y-144526000D02*
X118396000Y-141256000D01*
X128016000Y-111542500D02*
X132261300Y-111542500D01*
X115316000Y-119380000D02*
X115316000Y-121920000D01*
X130908100Y-134874000D02*
X129521800Y-134874000D01*
X131572000Y-109474000D02*
X131572000Y-110853200D01*
X119625100Y-131838900D02*
X118396000Y-133068000D01*
X131318000Y-144526000D02*
X121666000Y-144526000D01*
X120142000Y-102748000D02*
X124206000Y-102748000D01*
X129286000Y-134620000D02*
X129159000Y-134493000D01*
X118396000Y-139954000D02*
X118396000Y-136916000D01*
X124460000Y-134577000D02*
X123931500Y-134577000D01*
X127471500Y-111542500D02*
X126492000Y-112522000D01*
X131016100Y-134982000D02*
X130908100Y-134874000D01*
X131572000Y-110853200D02*
X132261300Y-111542500D01*
X145034000Y-133350000D02*
X144780000Y-133350000D01*
X131783000Y-109429000D02*
X131783000Y-105410000D01*
X103005900Y-136916000D02*
X118396000Y-136916000D01*
X115316000Y-116808700D02*
X115316000Y-116840000D01*
X139700000Y-115316000D02*
X139954000Y-115316000D01*
X136652000Y-112268000D02*
X139700000Y-115316000D01*
X129521800Y-134874000D02*
X129224800Y-134577000D01*
X115316000Y-114300000D02*
X115316000Y-116808700D01*
X115316000Y-124460000D02*
X115316000Y-121920000D01*
X132986800Y-112268000D02*
X136652000Y-112268000D01*
X128016000Y-111542500D02*
X127471500Y-111542500D01*
X115316000Y-127000000D02*
X115316000Y-124460000D01*
X115316000Y-116808700D02*
X115316000Y-119380000D01*
X118396000Y-133068000D02*
X118396000Y-133292000D01*
X129159000Y-134493000D02*
X129159000Y-133136000D01*
X143148000Y-134982000D02*
X131016100Y-134982000D01*
X121193400Y-131838900D02*
X119625100Y-131838900D01*
X102761900Y-137160000D02*
X103005900Y-136916000D01*
X123931500Y-134577000D02*
X121193400Y-131838900D01*
X132261300Y-111542500D02*
X132986800Y-112268000D01*
X129121000Y-102748000D02*
X128270000Y-102748000D01*
X118864800Y-113037200D02*
X117602000Y-114300000D01*
X129224800Y-134577000D02*
X124460000Y-134577000D01*
X131783000Y-105410000D02*
X129121000Y-102748000D01*
X118396000Y-141256000D02*
X118396000Y-139954000D01*
X118396000Y-136916000D02*
X118396000Y-136652000D01*
X144780000Y-133350000D02*
X143148000Y-134982000D01*
X119696100Y-113037200D02*
X118864800Y-113037200D01*
X124206000Y-102748000D02*
X128270000Y-102748000D01*
%TO.N,Net-(D2-A)*%
X136169800Y-111248957D02*
X136169800Y-110302200D01*
X138938000Y-112522000D02*
X137471686Y-112522000D01*
X133858000Y-105410000D02*
X133858000Y-108204000D01*
X133858000Y-108204000D02*
X134874000Y-109220000D01*
X136817686Y-111868000D02*
X136788843Y-111868000D01*
X141732000Y-109728000D02*
X141224000Y-109220000D01*
X141224000Y-109220000D02*
X140462000Y-109220000D01*
X134874000Y-109220000D02*
X135636000Y-109220000D01*
X139954000Y-119716000D02*
X141142000Y-119716000D01*
X141732000Y-115316000D02*
X138938000Y-112522000D01*
X141732000Y-109982000D02*
X141732000Y-109728000D01*
X140462000Y-109220000D02*
X139700000Y-109982000D01*
X141732000Y-119126000D02*
X141732000Y-115316000D01*
X141142000Y-119716000D02*
X141732000Y-119126000D01*
X136788843Y-111868000D02*
X136169800Y-111248957D01*
X135636000Y-109220000D02*
X136398000Y-109982000D01*
X137471686Y-112522000D02*
X136817686Y-111868000D01*
X136169800Y-110302200D02*
X136490000Y-109982000D01*
%TO.N,Net-(D1-RA)*%
X115062000Y-105632000D02*
X115351900Y-105921900D01*
X115351900Y-105921900D02*
X115351900Y-109344000D01*
X114300000Y-109344000D02*
X115351900Y-109344000D01*
%TO.N,Net-(D1-GA)*%
X112776000Y-110271900D02*
X113248100Y-110744000D01*
X112776000Y-105632000D02*
X112776000Y-110271900D01*
X114300000Y-110744000D02*
X113248100Y-110744000D01*
%TO.N,Net-(D1-BA)*%
X110148100Y-105973900D02*
X110037900Y-105973900D01*
X110490000Y-105632000D02*
X110148100Y-105973900D01*
X110037900Y-108181900D02*
X111200000Y-109344000D01*
X110037900Y-105973900D02*
X110037900Y-108181900D01*
%TO.N,Net-(Q1-B)*%
X138684000Y-108173000D02*
X137825000Y-109032000D01*
X138684000Y-105410000D02*
X138684000Y-108173000D01*
%TO.N,Net-(Q2-B)*%
X120142000Y-104648000D02*
X120142000Y-109220000D01*
%TO.N,Net-(Q2-C)*%
X115128000Y-103698000D02*
X118267000Y-103698000D01*
X115062000Y-103632000D02*
X115128000Y-103698000D01*
%TO.N,Net-(Q3-B)*%
X124206000Y-104648000D02*
X124206000Y-109220000D01*
%TO.N,Net-(Q3-C)*%
X122331000Y-103698000D02*
X122331000Y-104745000D01*
X112776000Y-103632000D02*
X112776000Y-102108000D01*
X121666000Y-105410000D02*
X121666000Y-105664000D01*
X122331000Y-104745000D02*
X121666000Y-105410000D01*
%TO.N,Net-(Q4-B)*%
X128270000Y-104648000D02*
X128508000Y-104886000D01*
X128508000Y-104886000D02*
X128508000Y-109220000D01*
%TO.N,/WIRE_ID*%
X120396000Y-139954000D02*
X121158000Y-140716000D01*
X121158000Y-140716000D02*
X124460000Y-140716000D01*
X124460000Y-140716000D02*
X124714000Y-140462000D01*
X130429000Y-139827000D02*
X130429000Y-138136000D01*
X129794000Y-140462000D02*
X130429000Y-139827000D01*
X124714000Y-140462000D02*
X129794000Y-140462000D01*
X124460000Y-142151600D02*
X124460000Y-140716000D01*
X125000000Y-142691600D02*
X124460000Y-142151600D01*
%TO.N,Net-(Q4-C)*%
X125984000Y-104109000D02*
X126395000Y-103698000D01*
X125984000Y-104648000D02*
X125984000Y-104109000D01*
X110490000Y-103632000D02*
X110744000Y-103632000D01*
X110744000Y-103632000D02*
X111506000Y-104394000D01*
%TO.N,/R_LED_A*%
X129845200Y-129629300D02*
X119096100Y-129629300D01*
X116840000Y-109728000D02*
X117348000Y-109220000D01*
X132969000Y-133136000D02*
X132969000Y-132753100D01*
X132969000Y-132753100D02*
X129845200Y-129629300D01*
X117348000Y-109220000D02*
X118142000Y-109220000D01*
%TO.N,/G_LED_A*%
X137706000Y-136690000D02*
X134582000Y-136690000D01*
X120845600Y-110815900D02*
X122206000Y-109455500D01*
X138176000Y-137160000D02*
X137706000Y-136690000D01*
X133858000Y-145542000D02*
X138176000Y-141224000D01*
X119888000Y-146304000D02*
X120650000Y-145542000D01*
X134239000Y-137033000D02*
X134239000Y-138136000D01*
X122206000Y-109455500D02*
X122206000Y-109220000D01*
X118110000Y-111252000D02*
X118546100Y-110815900D01*
X118546100Y-110815900D02*
X120845600Y-110815900D01*
X134582000Y-136690000D02*
X134239000Y-137033000D01*
X120650000Y-145542000D02*
X133858000Y-145542000D01*
X138176000Y-141224000D02*
X138176000Y-137160000D01*
X119888000Y-148082000D02*
X119888000Y-146304000D01*
%TO.N,/B_LED_A*%
X126508000Y-110474000D02*
X124206000Y-112776000D01*
X124206000Y-112560500D02*
X124206000Y-112776000D01*
X115923700Y-112437200D02*
X120125400Y-112437200D01*
X126508000Y-109220000D02*
X126508000Y-110474000D01*
X122940400Y-111294900D02*
X124206000Y-112560500D01*
X121267700Y-111294900D02*
X122940400Y-111294900D01*
X120125400Y-112437200D02*
X121267700Y-111294900D01*
%TO.N,/MOTOR*%
X138830000Y-136290000D02*
X132188000Y-136290000D01*
X132188000Y-136290000D02*
X131699000Y-136779000D01*
X139446000Y-136906000D02*
X138830000Y-136290000D01*
X136684000Y-106394000D02*
X136684000Y-105410000D01*
X136144000Y-106934000D02*
X136684000Y-106394000D01*
X131699000Y-136779000D02*
X131699000Y-138136000D01*
%TO.N,/SDA*%
X127341000Y-138684000D02*
X127889000Y-138136000D01*
X119380000Y-134874000D02*
X120142000Y-134112000D01*
X109293150Y-135128000D02*
X114300000Y-135128000D01*
X127889000Y-136525000D02*
X127889000Y-138136000D01*
X131156629Y-135474000D02*
X128940000Y-135474000D01*
X102870000Y-134366000D02*
X102880000Y-134376000D01*
X122682000Y-138684000D02*
X127341000Y-138684000D01*
X102880000Y-134376000D02*
X108541150Y-134376000D01*
X128940000Y-135474000D02*
X127889000Y-136525000D01*
X131248629Y-135382000D02*
X131156629Y-135474000D01*
X122174000Y-138176000D02*
X122682000Y-138684000D01*
X120142000Y-134112000D02*
X122174000Y-136144000D01*
X114300000Y-135128000D02*
X114554000Y-134874000D01*
X122174000Y-136144000D02*
X122174000Y-138176000D01*
X120142000Y-134112000D02*
X120142000Y-133858000D01*
X145024000Y-134376000D02*
X144018000Y-135382000D01*
X120396000Y-133292000D02*
X120142000Y-133546000D01*
X147066000Y-134376000D02*
X145024000Y-134376000D01*
X114554000Y-134874000D02*
X119380000Y-134874000D01*
X108541150Y-134376000D02*
X109293150Y-135128000D01*
X120142000Y-133546000D02*
X120142000Y-134112000D01*
X144018000Y-135382000D02*
X131248629Y-135382000D01*
%TO.N,/SCL*%
X107188000Y-133604000D02*
X105420000Y-131836000D01*
X129159000Y-139573000D02*
X129159000Y-138136000D01*
X108204000Y-135890000D02*
X115316000Y-135890000D01*
X105420000Y-131836000D02*
X102880000Y-131836000D01*
X122936000Y-139954000D02*
X128778000Y-139954000D01*
X120396000Y-136144000D02*
X120396000Y-136652000D01*
X143002000Y-133096000D02*
X143002000Y-133858000D01*
X115316000Y-135890000D02*
X115824000Y-135382000D01*
X142494000Y-136652000D02*
X142494000Y-136636000D01*
X144262000Y-131836000D02*
X143002000Y-133096000D01*
X121666000Y-138684000D02*
X122936000Y-139954000D01*
X121666000Y-137922000D02*
X121666000Y-138684000D01*
X120396000Y-136652000D02*
X121666000Y-137922000D01*
X119634000Y-135382000D02*
X120396000Y-136144000D01*
X129159000Y-136271000D02*
X129159000Y-138136000D01*
X147066000Y-131836000D02*
X144262000Y-131836000D01*
X115824000Y-135382000D02*
X119634000Y-135382000D01*
X102880000Y-131836000D02*
X102870000Y-131826000D01*
X141732000Y-135874000D02*
X129556000Y-135874000D01*
X142494000Y-136636000D02*
X141732000Y-135874000D01*
X128778000Y-139954000D02*
X129159000Y-139573000D01*
X129556000Y-135874000D02*
X129159000Y-136271000D01*
%TO.N,/SWIO*%
X126238000Y-121412000D02*
X131826000Y-127000000D01*
X121158000Y-112776000D02*
X118618000Y-115316000D01*
X135890000Y-140208000D02*
X135509000Y-139827000D01*
X122206000Y-112776000D02*
X121158000Y-112776000D01*
X135509000Y-139827000D02*
X135509000Y-138136000D01*
X118618000Y-115316000D02*
X118618000Y-119634000D01*
X118618000Y-119634000D02*
X120396000Y-121412000D01*
X131826000Y-127000000D02*
X136398000Y-127000000D01*
X120396000Y-121412000D02*
X126238000Y-121412000D01*
%TO.N,/NRST*%
X134239000Y-134239000D02*
X134239000Y-133136000D01*
X138938000Y-127000000D02*
X138938000Y-133604000D01*
X138938000Y-133604000D02*
X137960000Y-134582000D01*
X134582000Y-134582000D02*
X134239000Y-134239000D01*
X137960000Y-134582000D02*
X134582000Y-134582000D01*
%TO.N,/I2CADD0*%
X131699000Y-132683000D02*
X129247300Y-130231300D01*
X110490000Y-127000000D02*
X113316000Y-127000000D01*
X113316000Y-127700400D02*
X113316000Y-127000000D01*
X113284000Y-127732400D02*
X113316000Y-127700400D01*
X113284000Y-128778000D02*
X113284000Y-127732400D01*
X131699000Y-133136000D02*
X131699000Y-132683000D01*
X114737300Y-130231300D02*
X113284000Y-128778000D01*
X129247300Y-130231300D02*
X114737300Y-130231300D01*
%TO.N,/I2CADD1*%
X108458000Y-124968000D02*
X108966000Y-124460000D01*
X110821200Y-130633200D02*
X108458000Y-128270000D01*
X127123000Y-132306500D02*
X123365900Y-132306500D01*
X123365900Y-132306500D02*
X121692600Y-130633200D01*
X113316000Y-124460000D02*
X110490000Y-124460000D01*
X127889000Y-133136000D02*
X127889000Y-133072500D01*
X108458000Y-128270000D02*
X108458000Y-124968000D01*
X108966000Y-124460000D02*
X110490000Y-124460000D01*
X127889000Y-133072500D02*
X127123000Y-132306500D01*
X121692600Y-130633200D02*
X110821200Y-130633200D01*
%TO.N,/I2CADD2*%
X130556000Y-140970000D02*
X131572000Y-140970000D01*
X132969000Y-139573000D02*
X132969000Y-138136000D01*
X123399500Y-132908400D02*
X121526200Y-131035100D01*
X126873700Y-132908400D02*
X123399500Y-132908400D01*
X131572000Y-140970000D02*
X132969000Y-139573000D01*
X113316000Y-121920000D02*
X110490000Y-121920000D01*
X107442000Y-122682000D02*
X108204000Y-121920000D01*
X107442000Y-128524000D02*
X107442000Y-122682000D01*
X108204000Y-121920000D02*
X110490000Y-121920000D01*
X121526200Y-131035100D02*
X109953100Y-131035100D01*
X109953100Y-131035100D02*
X107442000Y-128524000D01*
%TO.N,/I2CADD3*%
X136955000Y-138312000D02*
X136779000Y-138136000D01*
X128270000Y-141732000D02*
X135902000Y-141732000D01*
X106934000Y-121414100D02*
X108968100Y-119380000D01*
X136955000Y-140679000D02*
X136955000Y-138312000D01*
X108968100Y-119380000D02*
X110490000Y-119380000D01*
X106934000Y-129032000D02*
X106934000Y-121414100D01*
X125588500Y-133499700D02*
X123422500Y-133499700D01*
X125831500Y-133742700D02*
X125588500Y-133499700D01*
X128016000Y-141478000D02*
X128270000Y-141732000D01*
X135902000Y-141732000D02*
X136955000Y-140679000D01*
X123422500Y-133499700D02*
X121359800Y-131437000D01*
X110490000Y-119380000D02*
X113316000Y-119380000D01*
X121359800Y-131437000D02*
X109339000Y-131437000D01*
X109339000Y-131437000D02*
X106934000Y-129032000D01*
%TO.N,/I2CADD4*%
X136779000Y-132695400D02*
X136779000Y-133136000D01*
X113316000Y-117126000D02*
X114300000Y-118110000D01*
X113316000Y-116840000D02*
X110490000Y-116840000D01*
X115737471Y-128778000D02*
X116337471Y-128178000D01*
X113316000Y-116840000D02*
X113316000Y-117126000D01*
X116337471Y-128178000D02*
X132261600Y-128178000D01*
X132261600Y-128178000D02*
X136779000Y-132695400D01*
X115062000Y-128778000D02*
X115737471Y-128778000D01*
%TO.N,/I2CADD5*%
X119344629Y-129029300D02*
X119347329Y-129032000D01*
X118847571Y-129029300D02*
X119344629Y-129029300D01*
X113316000Y-114300000D02*
X110490000Y-114300000D01*
X114235800Y-115625200D02*
X113316000Y-114705400D01*
X116586000Y-128778000D02*
X116840000Y-129032000D01*
X119347329Y-129032000D02*
X131775000Y-129032000D01*
X113316000Y-114705400D02*
X113316000Y-114300000D01*
X135509000Y-132766000D02*
X135509000Y-133136000D01*
X118844871Y-129032000D02*
X118847571Y-129029300D01*
X116840000Y-129032000D02*
X118844871Y-129032000D01*
X131775000Y-129032000D02*
X135509000Y-132766000D01*
%TD*%
%TA.AperFunction,Conductor*%
%TO.N,GND*%
G36*
X149442539Y-100520185D02*
G01*
X149488294Y-100572989D01*
X149499500Y-100624500D01*
X149499500Y-149375500D01*
X149479815Y-149442539D01*
X149427011Y-149488294D01*
X149375500Y-149499500D01*
X133884240Y-149499500D01*
X133817201Y-149479815D01*
X133771446Y-149427011D01*
X133761502Y-149357853D01*
X133790527Y-149294297D01*
X133794803Y-149289703D01*
X133881350Y-149174093D01*
X133881354Y-149174086D01*
X133931596Y-149039379D01*
X133931598Y-149039372D01*
X133937999Y-148979844D01*
X133938000Y-148979827D01*
X133938000Y-148332000D01*
X133021686Y-148332000D01*
X133047493Y-148291844D01*
X133088000Y-148153889D01*
X133088000Y-148010111D01*
X133047493Y-147872156D01*
X133021686Y-147832000D01*
X133938000Y-147832000D01*
X133938000Y-147184172D01*
X133937999Y-147184155D01*
X133931598Y-147124627D01*
X133931596Y-147124620D01*
X133881354Y-146989913D01*
X133881350Y-146989906D01*
X133795190Y-146874812D01*
X133795187Y-146874809D01*
X133680093Y-146788649D01*
X133680086Y-146788645D01*
X133545379Y-146738403D01*
X133545372Y-146738401D01*
X133485844Y-146732000D01*
X132838000Y-146732000D01*
X132838000Y-147646498D01*
X132730315Y-147597320D01*
X132623763Y-147582000D01*
X132552237Y-147582000D01*
X132445685Y-147597320D01*
X132338000Y-147646498D01*
X132338000Y-146732000D01*
X131690155Y-146732000D01*
X131630627Y-146738401D01*
X131630620Y-146738403D01*
X131495913Y-146788645D01*
X131495906Y-146788649D01*
X131380812Y-146874809D01*
X131380809Y-146874812D01*
X131294649Y-146989906D01*
X131294645Y-146989913D01*
X131245578Y-147121470D01*
X131203707Y-147177404D01*
X131138242Y-147201821D01*
X131069969Y-147186969D01*
X131041715Y-147165819D01*
X130997366Y-147121470D01*
X130919401Y-147043505D01*
X130919397Y-147043502D01*
X130919396Y-147043501D01*
X130725834Y-146907967D01*
X130725830Y-146907965D01*
X130622855Y-146859947D01*
X130511663Y-146808097D01*
X130511659Y-146808096D01*
X130511655Y-146808094D01*
X130283413Y-146746938D01*
X130283403Y-146746936D01*
X130048001Y-146726341D01*
X130047999Y-146726341D01*
X129812596Y-146746936D01*
X129812586Y-146746938D01*
X129584344Y-146808094D01*
X129584335Y-146808098D01*
X129370171Y-146907964D01*
X129370169Y-146907965D01*
X129176597Y-147043505D01*
X129009505Y-147210597D01*
X128879575Y-147396158D01*
X128824998Y-147439783D01*
X128755500Y-147446977D01*
X128693145Y-147415454D01*
X128676425Y-147396158D01*
X128546494Y-147210597D01*
X128379402Y-147043506D01*
X128379395Y-147043501D01*
X128185834Y-146907967D01*
X128185830Y-146907965D01*
X128082855Y-146859947D01*
X127971663Y-146808097D01*
X127971659Y-146808096D01*
X127971655Y-146808094D01*
X127743413Y-146746938D01*
X127743403Y-146746936D01*
X127508001Y-146726341D01*
X127507999Y-146726341D01*
X127272596Y-146746936D01*
X127272586Y-146746938D01*
X127044344Y-146808094D01*
X127044335Y-146808098D01*
X126830171Y-146907964D01*
X126830169Y-146907965D01*
X126636597Y-147043505D01*
X126469505Y-147210597D01*
X126339575Y-147396158D01*
X126284998Y-147439783D01*
X126215500Y-147446977D01*
X126153145Y-147415454D01*
X126136425Y-147396158D01*
X126006494Y-147210597D01*
X125839402Y-147043506D01*
X125839395Y-147043501D01*
X125645834Y-146907967D01*
X125645830Y-146907965D01*
X125542855Y-146859947D01*
X125431663Y-146808097D01*
X125431659Y-146808096D01*
X125431655Y-146808094D01*
X125203413Y-146746938D01*
X125203403Y-146746936D01*
X124968001Y-146726341D01*
X124967999Y-146726341D01*
X124732596Y-146746936D01*
X124732586Y-146746938D01*
X124504344Y-146808094D01*
X124504335Y-146808098D01*
X124290171Y-146907964D01*
X124290169Y-146907965D01*
X124096597Y-147043505D01*
X123929505Y-147210597D01*
X123799575Y-147396158D01*
X123744998Y-147439783D01*
X123675500Y-147446977D01*
X123613145Y-147415454D01*
X123596425Y-147396158D01*
X123466494Y-147210597D01*
X123299402Y-147043506D01*
X123299395Y-147043501D01*
X123105834Y-146907967D01*
X123105830Y-146907965D01*
X123002855Y-146859947D01*
X122891663Y-146808097D01*
X122891659Y-146808096D01*
X122891655Y-146808094D01*
X122663413Y-146746938D01*
X122663403Y-146746936D01*
X122428001Y-146726341D01*
X122427999Y-146726341D01*
X122192596Y-146746936D01*
X122192586Y-146746938D01*
X121964344Y-146808094D01*
X121964335Y-146808098D01*
X121750171Y-146907964D01*
X121750169Y-146907965D01*
X121556597Y-147043505D01*
X121389505Y-147210597D01*
X121259575Y-147396158D01*
X121204998Y-147439783D01*
X121135500Y-147446977D01*
X121073145Y-147415454D01*
X121056425Y-147396158D01*
X120926494Y-147210597D01*
X120759402Y-147043506D01*
X120759395Y-147043501D01*
X120565831Y-146907965D01*
X120565826Y-146907962D01*
X120560091Y-146905288D01*
X120507653Y-146859113D01*
X120488500Y-146792908D01*
X120488500Y-146604097D01*
X120508185Y-146537058D01*
X120524819Y-146516416D01*
X120862416Y-146178819D01*
X120923739Y-146145334D01*
X120950097Y-146142500D01*
X133810513Y-146142500D01*
X133826697Y-146143560D01*
X133858000Y-146147682D01*
X133858001Y-146147682D01*
X133910254Y-146140802D01*
X133983291Y-146131187D01*
X144249500Y-146131187D01*
X144256680Y-146178819D01*
X144288604Y-146390615D01*
X144288605Y-146390617D01*
X144288606Y-146390623D01*
X144365938Y-146641326D01*
X144479767Y-146877696D01*
X144479768Y-146877697D01*
X144479770Y-146877700D01*
X144479772Y-146877704D01*
X144592814Y-147043506D01*
X144627567Y-147094479D01*
X144806014Y-147286801D01*
X144806018Y-147286804D01*
X144806019Y-147286805D01*
X145011143Y-147450386D01*
X145238357Y-147581568D01*
X145482584Y-147677420D01*
X145738370Y-147735802D01*
X145738376Y-147735802D01*
X145738379Y-147735803D01*
X145934484Y-147750499D01*
X145934503Y-147750499D01*
X145934506Y-147750500D01*
X145934508Y-147750500D01*
X146065492Y-147750500D01*
X146065494Y-147750500D01*
X146065496Y-147750499D01*
X146065515Y-147750499D01*
X146261620Y-147735803D01*
X146261622Y-147735802D01*
X146261630Y-147735802D01*
X146517416Y-147677420D01*
X146761643Y-147581568D01*
X146988857Y-147450386D01*
X147193981Y-147286805D01*
X147372433Y-147094479D01*
X147520228Y-146877704D01*
X147634063Y-146641323D01*
X147711396Y-146390615D01*
X147750500Y-146131182D01*
X147750500Y-145868818D01*
X147711396Y-145609385D01*
X147634063Y-145358677D01*
X147534034Y-145150964D01*
X147520232Y-145122303D01*
X147520231Y-145122302D01*
X147520230Y-145122301D01*
X147520228Y-145122296D01*
X147372433Y-144905521D01*
X147274388Y-144799853D01*
X147193985Y-144713198D01*
X147154533Y-144681736D01*
X146988857Y-144549614D01*
X146761643Y-144418432D01*
X146517416Y-144322580D01*
X146517411Y-144322578D01*
X146517402Y-144322576D01*
X146299818Y-144272914D01*
X146261630Y-144264198D01*
X146261629Y-144264197D01*
X146261625Y-144264197D01*
X146261620Y-144264196D01*
X146065515Y-144249500D01*
X146065494Y-144249500D01*
X145934506Y-144249500D01*
X145934484Y-144249500D01*
X145738379Y-144264196D01*
X145738374Y-144264197D01*
X145482597Y-144322576D01*
X145482578Y-144322582D01*
X145238356Y-144418432D01*
X145011143Y-144549614D01*
X144806014Y-144713198D01*
X144627567Y-144905520D01*
X144479768Y-145122302D01*
X144479767Y-145122303D01*
X144365938Y-145358673D01*
X144288606Y-145609376D01*
X144288605Y-145609381D01*
X144288604Y-145609385D01*
X144273853Y-145707247D01*
X144249500Y-145868812D01*
X144249500Y-146131187D01*
X133983291Y-146131187D01*
X134014762Y-146127044D01*
X134160841Y-146066536D01*
X134246042Y-146001159D01*
X134286282Y-145970282D01*
X134305509Y-145945223D01*
X134316190Y-145933043D01*
X138567043Y-141682190D01*
X138579223Y-141671509D01*
X138604282Y-141652282D01*
X138700536Y-141526841D01*
X138761044Y-141380762D01*
X138776500Y-141263361D01*
X138781682Y-141224000D01*
X138777561Y-141192697D01*
X138776500Y-141176512D01*
X138776500Y-137655094D01*
X138796185Y-137588055D01*
X138848989Y-137542300D01*
X138918147Y-137532356D01*
X138966471Y-137550100D01*
X139002197Y-137572548D01*
X139096475Y-137631788D01*
X139266745Y-137691368D01*
X139266750Y-137691369D01*
X139445996Y-137711565D01*
X139446000Y-137711565D01*
X139446004Y-137711565D01*
X139625249Y-137691369D01*
X139625252Y-137691368D01*
X139625255Y-137691368D01*
X139795522Y-137631789D01*
X139948262Y-137535816D01*
X140075816Y-137408262D01*
X140171789Y-137255522D01*
X140231368Y-137085255D01*
X140236525Y-137039486D01*
X140251565Y-136906003D01*
X140251565Y-136905996D01*
X140231369Y-136726750D01*
X140231368Y-136726745D01*
X140200824Y-136639455D01*
X140197263Y-136569676D01*
X140231992Y-136509048D01*
X140293985Y-136476821D01*
X140317866Y-136474500D01*
X141431903Y-136474500D01*
X141498942Y-136494185D01*
X141519584Y-136510819D01*
X141661266Y-136652501D01*
X141694751Y-136713824D01*
X141696805Y-136726298D01*
X141708630Y-136831249D01*
X141768210Y-137001521D01*
X141783341Y-137025602D01*
X141864184Y-137154262D01*
X141991738Y-137281816D01*
X142144478Y-137377789D01*
X142231565Y-137408262D01*
X142314745Y-137437368D01*
X142314750Y-137437369D01*
X142493996Y-137457565D01*
X142494000Y-137457565D01*
X142494004Y-137457565D01*
X142673249Y-137437369D01*
X142673252Y-137437368D01*
X142673255Y-137437368D01*
X142843522Y-137377789D01*
X142996262Y-137281816D01*
X143123816Y-137154262D01*
X143219789Y-137001522D01*
X143279368Y-136831255D01*
X143281001Y-136816764D01*
X143299565Y-136652003D01*
X143299565Y-136651996D01*
X143279369Y-136472750D01*
X143279368Y-136472745D01*
X143224427Y-136315734D01*
X143219789Y-136302478D01*
X143219788Y-136302476D01*
X143138101Y-136172472D01*
X143119101Y-136105235D01*
X143139469Y-136038400D01*
X143192737Y-135993186D01*
X143243095Y-135982500D01*
X143970513Y-135982500D01*
X143986697Y-135983560D01*
X144018000Y-135987682D01*
X144018001Y-135987682D01*
X144070254Y-135980802D01*
X144174762Y-135967044D01*
X144320841Y-135906536D01*
X144358675Y-135877505D01*
X144446282Y-135810282D01*
X144465510Y-135785222D01*
X144476189Y-135773044D01*
X145236416Y-135012819D01*
X145297739Y-134979334D01*
X145324097Y-134976500D01*
X145856909Y-134976500D01*
X145923948Y-134996185D01*
X145969292Y-135048097D01*
X145971965Y-135053830D01*
X146078161Y-135205493D01*
X146107501Y-135247395D01*
X146107506Y-135247402D01*
X146274597Y-135414493D01*
X146274603Y-135414498D01*
X146460158Y-135544425D01*
X146503783Y-135599002D01*
X146510977Y-135668500D01*
X146479454Y-135730855D01*
X146460158Y-135747575D01*
X146274597Y-135877505D01*
X146107505Y-136044597D01*
X145971965Y-136238169D01*
X145971964Y-136238171D01*
X145872098Y-136452335D01*
X145872094Y-136452344D01*
X145810938Y-136680586D01*
X145810936Y-136680596D01*
X145790341Y-136915999D01*
X145790341Y-136916000D01*
X145810936Y-137151403D01*
X145810938Y-137151413D01*
X145872094Y-137379655D01*
X145872096Y-137379659D01*
X145872097Y-137379663D01*
X145943299Y-137532356D01*
X145971965Y-137593830D01*
X145971967Y-137593834D01*
X146042602Y-137694710D01*
X146107501Y-137787396D01*
X146107506Y-137787402D01*
X146229818Y-137909714D01*
X146263303Y-137971037D01*
X146258319Y-138040729D01*
X146216447Y-138096662D01*
X146185471Y-138113577D01*
X146053912Y-138162646D01*
X146053906Y-138162649D01*
X145938812Y-138248809D01*
X145938809Y-138248812D01*
X145852649Y-138363906D01*
X145852645Y-138363913D01*
X145802403Y-138498620D01*
X145802401Y-138498627D01*
X145796000Y-138558155D01*
X145796000Y-139206000D01*
X146712314Y-139206000D01*
X146686507Y-139246156D01*
X146646000Y-139384111D01*
X146646000Y-139527889D01*
X146686507Y-139665844D01*
X146712314Y-139706000D01*
X145796000Y-139706000D01*
X145796000Y-140353844D01*
X145802401Y-140413372D01*
X145802403Y-140413379D01*
X145852645Y-140548086D01*
X145852649Y-140548093D01*
X145938809Y-140663187D01*
X145938812Y-140663190D01*
X146053906Y-140749350D01*
X146053913Y-140749354D01*
X146188620Y-140799596D01*
X146188627Y-140799598D01*
X146248155Y-140805999D01*
X146248172Y-140806000D01*
X146896000Y-140806000D01*
X146896000Y-139891501D01*
X147003685Y-139940680D01*
X147110237Y-139956000D01*
X147181763Y-139956000D01*
X147288315Y-139940680D01*
X147396000Y-139891501D01*
X147396000Y-140806000D01*
X148043828Y-140806000D01*
X148043844Y-140805999D01*
X148103372Y-140799598D01*
X148103379Y-140799596D01*
X148238086Y-140749354D01*
X148238093Y-140749350D01*
X148353187Y-140663190D01*
X148353190Y-140663187D01*
X148439350Y-140548093D01*
X148439354Y-140548086D01*
X148489596Y-140413379D01*
X148489598Y-140413372D01*
X148495999Y-140353844D01*
X148496000Y-140353827D01*
X148496000Y-139706000D01*
X147579686Y-139706000D01*
X147605493Y-139665844D01*
X147646000Y-139527889D01*
X147646000Y-139384111D01*
X147605493Y-139246156D01*
X147579686Y-139206000D01*
X148496000Y-139206000D01*
X148496000Y-138558172D01*
X148495999Y-138558155D01*
X148489598Y-138498627D01*
X148489596Y-138498620D01*
X148439354Y-138363913D01*
X148439350Y-138363906D01*
X148353190Y-138248812D01*
X148353187Y-138248809D01*
X148238093Y-138162649D01*
X148238088Y-138162646D01*
X148106528Y-138113577D01*
X148050595Y-138071705D01*
X148026178Y-138006241D01*
X148041030Y-137937968D01*
X148062175Y-137909720D01*
X148184495Y-137787401D01*
X148320035Y-137593830D01*
X148419903Y-137379663D01*
X148481063Y-137151408D01*
X148501659Y-136916000D01*
X148481063Y-136680592D01*
X148426286Y-136476159D01*
X148419905Y-136452344D01*
X148419904Y-136452343D01*
X148419903Y-136452337D01*
X148320035Y-136238171D01*
X148320034Y-136238169D01*
X148184494Y-136044597D01*
X148017401Y-135877505D01*
X148017396Y-135877501D01*
X147831842Y-135747575D01*
X147788217Y-135692998D01*
X147781023Y-135623500D01*
X147812546Y-135561145D01*
X147831842Y-135544425D01*
X147882078Y-135509249D01*
X148017401Y-135414495D01*
X148184495Y-135247401D01*
X148320035Y-135053830D01*
X148419903Y-134839663D01*
X148481063Y-134611408D01*
X148501659Y-134376000D01*
X148481063Y-134140592D01*
X148419903Y-133912337D01*
X148320035Y-133698171D01*
X148320034Y-133698169D01*
X148184494Y-133504597D01*
X148017402Y-133337506D01*
X148017396Y-133337501D01*
X147831842Y-133207575D01*
X147788217Y-133152998D01*
X147781023Y-133083500D01*
X147812546Y-133021145D01*
X147831842Y-133004425D01*
X147924940Y-132939237D01*
X148017401Y-132874495D01*
X148184495Y-132707401D01*
X148320035Y-132513830D01*
X148419903Y-132299663D01*
X148481063Y-132071408D01*
X148501659Y-131836000D01*
X148481063Y-131600592D01*
X148419903Y-131372337D01*
X148320035Y-131158171D01*
X148320034Y-131158169D01*
X148184494Y-130964597D01*
X148017402Y-130797506D01*
X148017395Y-130797501D01*
X147823834Y-130661967D01*
X147823830Y-130661965D01*
X147823828Y-130661964D01*
X147609663Y-130562097D01*
X147609659Y-130562096D01*
X147609655Y-130562094D01*
X147381413Y-130500938D01*
X147381403Y-130500936D01*
X147146001Y-130480341D01*
X147145999Y-130480341D01*
X146910596Y-130500936D01*
X146910586Y-130500938D01*
X146682344Y-130562094D01*
X146682335Y-130562098D01*
X146468171Y-130661964D01*
X146468169Y-130661965D01*
X146274597Y-130797505D01*
X146107506Y-130964596D01*
X145971965Y-131158170D01*
X145971962Y-131158175D01*
X145969289Y-131163909D01*
X145923115Y-131216346D01*
X145856909Y-131235500D01*
X144309487Y-131235500D01*
X144293302Y-131234439D01*
X144262000Y-131230318D01*
X144222639Y-131235500D01*
X144105239Y-131250955D01*
X144105237Y-131250956D01*
X143959160Y-131311463D01*
X143833714Y-131407721D01*
X143814495Y-131432769D01*
X143803800Y-131444964D01*
X142610965Y-132637798D01*
X142598775Y-132648489D01*
X142573720Y-132667715D01*
X142573718Y-132667718D01*
X142495496Y-132769659D01*
X142492704Y-132773298D01*
X142477463Y-132793160D01*
X142416956Y-132939237D01*
X142416955Y-132939239D01*
X142396318Y-133095998D01*
X142396318Y-133096000D01*
X142397635Y-133106000D01*
X142400439Y-133127301D01*
X142401500Y-133143487D01*
X142401500Y-133275587D01*
X142381815Y-133342626D01*
X142374450Y-133352896D01*
X142372186Y-133355734D01*
X142276211Y-133508476D01*
X142216631Y-133678745D01*
X142216630Y-133678750D01*
X142196435Y-133857996D01*
X142196435Y-133858003D01*
X142216630Y-134037249D01*
X142216631Y-134037254D01*
X142278511Y-134214095D01*
X142276212Y-134214899D01*
X142285722Y-134272634D01*
X142258003Y-134336770D01*
X142200009Y-134375738D01*
X142162649Y-134381500D01*
X139309096Y-134381500D01*
X139242057Y-134361815D01*
X139196302Y-134309011D01*
X139186358Y-134239853D01*
X139215383Y-134176297D01*
X139221395Y-134169838D01*
X139329051Y-134062182D01*
X139341222Y-134051510D01*
X139366282Y-134032282D01*
X139462536Y-133906841D01*
X139523044Y-133760762D01*
X139538500Y-133643361D01*
X139543682Y-133604000D01*
X139543681Y-133603996D01*
X139539561Y-133572697D01*
X139538500Y-133556512D01*
X139538500Y-128289090D01*
X139558185Y-128222051D01*
X139610101Y-128176706D01*
X139615830Y-128174035D01*
X139809401Y-128038495D01*
X139976495Y-127871401D01*
X140106425Y-127685842D01*
X140161002Y-127642217D01*
X140230500Y-127635023D01*
X140292855Y-127666546D01*
X140309575Y-127685842D01*
X140439500Y-127871395D01*
X140439505Y-127871401D01*
X140606599Y-128038495D01*
X140683135Y-128092086D01*
X140800165Y-128174032D01*
X140800167Y-128174033D01*
X140800170Y-128174035D01*
X141014337Y-128273903D01*
X141242592Y-128335063D01*
X141413319Y-128350000D01*
X141477999Y-128355659D01*
X141478000Y-128355659D01*
X141478001Y-128355659D01*
X141542681Y-128350000D01*
X141713408Y-128335063D01*
X141941663Y-128273903D01*
X142155830Y-128174035D01*
X142349401Y-128038495D01*
X142471717Y-127916178D01*
X142533036Y-127882696D01*
X142602728Y-127887680D01*
X142658662Y-127929551D01*
X142675577Y-127960528D01*
X142724646Y-128092088D01*
X142724649Y-128092093D01*
X142810809Y-128207187D01*
X142810812Y-128207190D01*
X142925906Y-128293350D01*
X142925913Y-128293354D01*
X143060620Y-128343596D01*
X143060627Y-128343598D01*
X143120155Y-128349999D01*
X143120172Y-128350000D01*
X143768000Y-128350000D01*
X143768000Y-127435501D01*
X143875685Y-127484680D01*
X143982237Y-127500000D01*
X144053763Y-127500000D01*
X144160315Y-127484680D01*
X144268000Y-127435501D01*
X144268000Y-128350000D01*
X144915828Y-128350000D01*
X144915844Y-128349999D01*
X144975372Y-128343598D01*
X144975379Y-128343596D01*
X145110086Y-128293354D01*
X145110093Y-128293350D01*
X145225187Y-128207190D01*
X145225190Y-128207187D01*
X145311350Y-128092093D01*
X145311354Y-128092086D01*
X145361596Y-127957379D01*
X145361598Y-127957372D01*
X145367999Y-127897844D01*
X145368000Y-127897827D01*
X145368000Y-127250000D01*
X144451686Y-127250000D01*
X144477493Y-127209844D01*
X144518000Y-127071889D01*
X144518000Y-126928111D01*
X144477493Y-126790156D01*
X144451686Y-126750000D01*
X145368000Y-126750000D01*
X145368000Y-126102172D01*
X145367999Y-126102155D01*
X145361598Y-126042627D01*
X145361596Y-126042620D01*
X145311354Y-125907913D01*
X145311350Y-125907906D01*
X145225190Y-125792812D01*
X145225187Y-125792809D01*
X145110093Y-125706649D01*
X145110086Y-125706645D01*
X144975379Y-125656403D01*
X144975372Y-125656401D01*
X144915844Y-125650000D01*
X144268000Y-125650000D01*
X144268000Y-126564498D01*
X144160315Y-126515320D01*
X144053763Y-126500000D01*
X143982237Y-126500000D01*
X143875685Y-126515320D01*
X143768000Y-126564498D01*
X143768000Y-125650000D01*
X143120155Y-125650000D01*
X143060627Y-125656401D01*
X143060620Y-125656403D01*
X142925913Y-125706645D01*
X142925906Y-125706649D01*
X142810812Y-125792809D01*
X142810809Y-125792812D01*
X142724649Y-125907906D01*
X142724645Y-125907913D01*
X142675578Y-126039470D01*
X142633707Y-126095404D01*
X142568242Y-126119821D01*
X142499969Y-126104969D01*
X142471715Y-126083819D01*
X142416686Y-126028790D01*
X142349401Y-125961505D01*
X142349397Y-125961502D01*
X142349396Y-125961501D01*
X142155834Y-125825967D01*
X142155830Y-125825965D01*
X142121595Y-125810001D01*
X141941663Y-125726097D01*
X141941659Y-125726096D01*
X141941655Y-125726094D01*
X141713413Y-125664938D01*
X141713403Y-125664936D01*
X141478001Y-125644341D01*
X141477999Y-125644341D01*
X141242596Y-125664936D01*
X141242586Y-125664938D01*
X141014344Y-125726094D01*
X141014335Y-125726098D01*
X140800171Y-125825964D01*
X140800169Y-125825965D01*
X140606597Y-125961505D01*
X140439505Y-126128597D01*
X140309575Y-126314158D01*
X140254998Y-126357783D01*
X140185500Y-126364977D01*
X140123145Y-126333454D01*
X140106425Y-126314158D01*
X139976494Y-126128597D01*
X139809402Y-125961506D01*
X139809395Y-125961501D01*
X139803378Y-125957288D01*
X139732854Y-125907906D01*
X139615834Y-125825967D01*
X139615830Y-125825965D01*
X139581595Y-125810001D01*
X139401663Y-125726097D01*
X139401659Y-125726096D01*
X139401655Y-125726094D01*
X139173413Y-125664938D01*
X139173403Y-125664936D01*
X138938001Y-125644341D01*
X138937999Y-125644341D01*
X138702596Y-125664936D01*
X138702586Y-125664938D01*
X138474344Y-125726094D01*
X138474335Y-125726098D01*
X138260171Y-125825964D01*
X138260169Y-125825965D01*
X138066597Y-125961505D01*
X137899505Y-126128597D01*
X137769575Y-126314158D01*
X137714998Y-126357783D01*
X137645500Y-126364977D01*
X137583145Y-126333454D01*
X137566425Y-126314158D01*
X137436494Y-126128597D01*
X137269402Y-125961506D01*
X137269395Y-125961501D01*
X137263378Y-125957288D01*
X137192854Y-125907906D01*
X137075834Y-125825967D01*
X137075830Y-125825965D01*
X137041595Y-125810001D01*
X136861663Y-125726097D01*
X136861659Y-125726096D01*
X136861655Y-125726094D01*
X136633413Y-125664938D01*
X136633403Y-125664936D01*
X136398001Y-125644341D01*
X136397999Y-125644341D01*
X136162596Y-125664936D01*
X136162586Y-125664938D01*
X135934344Y-125726094D01*
X135934335Y-125726098D01*
X135720171Y-125825964D01*
X135720169Y-125825965D01*
X135526597Y-125961505D01*
X135359506Y-126128596D01*
X135223965Y-126322170D01*
X135223962Y-126322175D01*
X135221289Y-126327909D01*
X135175115Y-126380346D01*
X135108909Y-126399500D01*
X132126097Y-126399500D01*
X132059058Y-126379815D01*
X132038416Y-126363181D01*
X126696199Y-121020964D01*
X126685503Y-121008767D01*
X126666286Y-120983722D01*
X126666283Y-120983720D01*
X126666282Y-120983718D01*
X126540841Y-120887464D01*
X126516276Y-120877289D01*
X126394762Y-120826956D01*
X126394760Y-120826955D01*
X126277361Y-120811500D01*
X126238000Y-120806318D01*
X126206697Y-120810439D01*
X126190513Y-120811500D01*
X120696097Y-120811500D01*
X120629058Y-120791815D01*
X120608416Y-120775181D01*
X120473569Y-120640334D01*
X127713500Y-120640334D01*
X127754429Y-120885616D01*
X127835169Y-121120802D01*
X127835172Y-121120811D01*
X127951062Y-121334956D01*
X127953526Y-121339509D01*
X128106262Y-121535744D01*
X128244320Y-121662835D01*
X128289217Y-121704166D01*
X128497393Y-121840173D01*
X128725118Y-121940063D01*
X128950123Y-121997042D01*
X128966179Y-122001108D01*
X128966181Y-122001108D01*
X128966186Y-122001109D01*
X129119589Y-122013819D01*
X129151933Y-122016500D01*
X129151937Y-122016500D01*
X129276063Y-122016500D01*
X129276067Y-122016500D01*
X129338677Y-122011311D01*
X129461813Y-122001109D01*
X129461816Y-122001108D01*
X129461821Y-122001108D01*
X129702881Y-121940063D01*
X129930607Y-121840173D01*
X130138785Y-121704164D01*
X130321738Y-121535744D01*
X130474474Y-121339509D01*
X130592828Y-121120810D01*
X130673571Y-120885614D01*
X130714500Y-120640335D01*
X130714500Y-120640334D01*
X133753500Y-120640334D01*
X133794429Y-120885616D01*
X133875169Y-121120802D01*
X133875172Y-121120811D01*
X133991062Y-121334956D01*
X133993526Y-121339509D01*
X134146262Y-121535744D01*
X134284320Y-121662835D01*
X134329217Y-121704166D01*
X134537393Y-121840173D01*
X134765118Y-121940063D01*
X134990123Y-121997042D01*
X135006179Y-122001108D01*
X135006181Y-122001108D01*
X135006186Y-122001109D01*
X135159589Y-122013819D01*
X135191933Y-122016500D01*
X135191937Y-122016500D01*
X135316063Y-122016500D01*
X135316067Y-122016500D01*
X135378677Y-122011311D01*
X135501813Y-122001109D01*
X135501816Y-122001108D01*
X135501821Y-122001108D01*
X135742881Y-121940063D01*
X135970607Y-121840173D01*
X136178785Y-121704164D01*
X136361738Y-121535744D01*
X136514474Y-121339509D01*
X136632828Y-121120810D01*
X136713571Y-120885614D01*
X136754500Y-120640335D01*
X136754500Y-120391665D01*
X136713571Y-120146386D01*
X136632828Y-119911190D01*
X136615957Y-119880016D01*
X136514475Y-119692493D01*
X136514474Y-119692491D01*
X136361738Y-119496256D01*
X136178785Y-119327836D01*
X136178782Y-119327833D01*
X135970606Y-119191826D01*
X135742881Y-119091936D01*
X135501824Y-119030892D01*
X135501813Y-119030890D01*
X135316077Y-119015500D01*
X135316067Y-119015500D01*
X135191933Y-119015500D01*
X135191922Y-119015500D01*
X135006186Y-119030890D01*
X135006175Y-119030892D01*
X134765118Y-119091936D01*
X134537393Y-119191826D01*
X134329217Y-119327833D01*
X134146261Y-119496257D01*
X133993524Y-119692493D01*
X133875172Y-119911188D01*
X133875169Y-119911197D01*
X133794429Y-120146383D01*
X133753500Y-120391665D01*
X133753500Y-120640334D01*
X130714500Y-120640334D01*
X130714500Y-120391665D01*
X130673571Y-120146386D01*
X130592828Y-119911190D01*
X130575957Y-119880016D01*
X130474475Y-119692493D01*
X130474474Y-119692491D01*
X130321738Y-119496256D01*
X130138785Y-119327836D01*
X130138782Y-119327833D01*
X129930606Y-119191826D01*
X129702881Y-119091936D01*
X129461824Y-119030892D01*
X129461813Y-119030890D01*
X129276077Y-119015500D01*
X129276067Y-119015500D01*
X129151933Y-119015500D01*
X129151922Y-119015500D01*
X128966186Y-119030890D01*
X128966175Y-119030892D01*
X128725118Y-119091936D01*
X128497393Y-119191826D01*
X128289217Y-119327833D01*
X128106261Y-119496257D01*
X127953524Y-119692493D01*
X127835172Y-119911188D01*
X127835169Y-119911197D01*
X127754429Y-120146383D01*
X127713500Y-120391665D01*
X127713500Y-120640334D01*
X120473569Y-120640334D01*
X120055133Y-120221898D01*
X120021648Y-120160575D01*
X120026632Y-120090883D01*
X120068504Y-120034950D01*
X120133968Y-120010533D01*
X120177749Y-120015240D01*
X120182039Y-120016500D01*
X120182041Y-120016500D01*
X125325960Y-120016500D01*
X125325961Y-120016500D01*
X125352153Y-120008809D01*
X125369436Y-120005050D01*
X125373882Y-120004410D01*
X125396457Y-120001165D01*
X125421287Y-119989824D01*
X125437862Y-119983642D01*
X125464053Y-119975953D01*
X125487020Y-119961192D01*
X125502540Y-119952717D01*
X125527373Y-119941377D01*
X125548006Y-119923497D01*
X125562148Y-119912910D01*
X125585128Y-119898143D01*
X125603015Y-119877499D01*
X125615499Y-119865015D01*
X125636143Y-119847128D01*
X125650910Y-119824148D01*
X125661497Y-119810006D01*
X125679377Y-119789373D01*
X125690717Y-119764540D01*
X125699192Y-119749020D01*
X125713953Y-119726053D01*
X125721642Y-119699862D01*
X125727824Y-119683287D01*
X125739165Y-119658457D01*
X125743050Y-119631436D01*
X125746809Y-119614153D01*
X125754500Y-119587961D01*
X125754500Y-119444039D01*
X125754500Y-118890500D01*
X125774185Y-118823461D01*
X125826989Y-118777706D01*
X125878500Y-118766500D01*
X138325960Y-118766500D01*
X138325961Y-118766500D01*
X138352153Y-118758809D01*
X138369436Y-118755050D01*
X138373882Y-118754410D01*
X138396457Y-118751165D01*
X138421287Y-118739824D01*
X138437862Y-118733642D01*
X138464053Y-118725953D01*
X138487020Y-118711192D01*
X138502540Y-118702717D01*
X138527373Y-118691377D01*
X138548006Y-118673497D01*
X138562148Y-118662910D01*
X138585128Y-118648143D01*
X138603015Y-118627499D01*
X138615499Y-118615015D01*
X138636143Y-118597128D01*
X138650910Y-118574148D01*
X138661497Y-118560006D01*
X138679377Y-118539373D01*
X138690717Y-118514540D01*
X138699192Y-118499020D01*
X138713953Y-118476053D01*
X138721642Y-118449862D01*
X138727824Y-118433287D01*
X138739165Y-118408457D01*
X138743050Y-118381436D01*
X138746809Y-118364153D01*
X138754500Y-118337961D01*
X138754500Y-118194039D01*
X138754500Y-116730201D01*
X138754500Y-116694039D01*
X138746809Y-116667846D01*
X138743050Y-116650564D01*
X138739165Y-116623546D01*
X138739165Y-116623543D01*
X138739163Y-116623538D01*
X138727826Y-116598713D01*
X138721643Y-116582136D01*
X138713953Y-116555948D01*
X138713953Y-116555946D01*
X138699192Y-116532978D01*
X138690714Y-116517451D01*
X138690005Y-116515899D01*
X138679377Y-116492627D01*
X138661500Y-116471996D01*
X138650905Y-116457844D01*
X138636143Y-116434872D01*
X138627427Y-116427319D01*
X138615510Y-116416992D01*
X138603006Y-116404488D01*
X138585128Y-116383857D01*
X138585123Y-116383853D01*
X138562160Y-116369095D01*
X138548000Y-116358496D01*
X138538537Y-116350297D01*
X138527373Y-116340623D01*
X138502541Y-116329282D01*
X138487019Y-116320806D01*
X138464053Y-116306047D01*
X138464051Y-116306046D01*
X138437858Y-116298355D01*
X138421288Y-116292174D01*
X138396457Y-116280835D01*
X138369423Y-116276947D01*
X138352154Y-116273190D01*
X138325963Y-116265500D01*
X138325961Y-116265500D01*
X138289799Y-116265500D01*
X125878500Y-116265500D01*
X125811461Y-116245815D01*
X125765706Y-116193011D01*
X125754500Y-116141500D01*
X125754500Y-115444039D01*
X125751791Y-115434812D01*
X125746808Y-115417842D01*
X125743050Y-115400564D01*
X125739165Y-115373546D01*
X125739165Y-115373544D01*
X125739165Y-115373543D01*
X125738098Y-115371206D01*
X125727826Y-115348713D01*
X125721643Y-115332136D01*
X125713953Y-115305948D01*
X125713953Y-115305946D01*
X125699192Y-115282978D01*
X125690714Y-115267451D01*
X125690005Y-115265899D01*
X125679377Y-115242627D01*
X125661500Y-115221996D01*
X125650905Y-115207844D01*
X125636143Y-115184872D01*
X125621920Y-115172547D01*
X125615510Y-115166992D01*
X125603006Y-115154488D01*
X125585128Y-115133857D01*
X125585123Y-115133853D01*
X125562160Y-115119095D01*
X125548000Y-115108496D01*
X125535989Y-115098089D01*
X125527373Y-115090623D01*
X125502541Y-115079282D01*
X125487019Y-115070806D01*
X125484728Y-115069334D01*
X125464053Y-115056047D01*
X125464051Y-115056046D01*
X125437858Y-115048355D01*
X125421288Y-115042174D01*
X125396457Y-115030835D01*
X125369423Y-115026947D01*
X125352154Y-115023190D01*
X125325963Y-115015500D01*
X125325961Y-115015500D01*
X125289799Y-115015500D01*
X120325961Y-115015500D01*
X120182039Y-115015500D01*
X120182036Y-115015500D01*
X120182034Y-115015501D01*
X120155842Y-115023190D01*
X120138568Y-115026948D01*
X120111544Y-115030834D01*
X120111541Y-115030835D01*
X120086710Y-115042175D01*
X120070141Y-115048355D01*
X120061669Y-115050843D01*
X119991799Y-115050846D01*
X119933020Y-115013074D01*
X119903992Y-114949519D01*
X119913932Y-114880360D01*
X119939045Y-114844189D01*
X120142900Y-114640334D01*
X127713500Y-114640334D01*
X127754429Y-114885616D01*
X127835169Y-115120802D01*
X127835172Y-115120811D01*
X127953524Y-115339506D01*
X127953526Y-115339509D01*
X128106262Y-115535744D01*
X128236895Y-115656000D01*
X128289217Y-115704166D01*
X128497393Y-115840173D01*
X128725118Y-115940063D01*
X128961958Y-116000039D01*
X128966179Y-116001108D01*
X128966181Y-116001108D01*
X128966186Y-116001109D01*
X129119589Y-116013819D01*
X129151933Y-116016500D01*
X129151937Y-116016500D01*
X129276063Y-116016500D01*
X129276067Y-116016500D01*
X129338677Y-116011311D01*
X129461813Y-116001109D01*
X129461816Y-116001108D01*
X129461821Y-116001108D01*
X129702881Y-115940063D01*
X129930607Y-115840173D01*
X130138785Y-115704164D01*
X130321738Y-115535744D01*
X130474474Y-115339509D01*
X130592828Y-115120810D01*
X130673571Y-114885614D01*
X130714500Y-114640335D01*
X130714500Y-114391665D01*
X130673571Y-114146386D01*
X130592828Y-113911190D01*
X130592623Y-113910812D01*
X130507446Y-113753418D01*
X130474474Y-113692491D01*
X130321738Y-113496256D01*
X130138785Y-113327836D01*
X130138782Y-113327833D01*
X129930606Y-113191826D01*
X129702881Y-113091936D01*
X129461824Y-113030892D01*
X129461813Y-113030890D01*
X129276077Y-113015500D01*
X129276067Y-113015500D01*
X129151933Y-113015500D01*
X129151922Y-113015500D01*
X128966186Y-113030890D01*
X128966175Y-113030892D01*
X128725118Y-113091936D01*
X128497393Y-113191826D01*
X128289217Y-113327833D01*
X128106261Y-113496257D01*
X127953524Y-113692493D01*
X127835172Y-113911188D01*
X127835169Y-113911197D01*
X127754429Y-114146383D01*
X127713500Y-114391665D01*
X127713500Y-114640334D01*
X120142900Y-114640334D01*
X121088254Y-113694980D01*
X121149575Y-113661497D01*
X121219267Y-113666481D01*
X121263614Y-113694982D01*
X121387344Y-113818712D01*
X121536666Y-113910814D01*
X121703203Y-113965999D01*
X121805991Y-113976500D01*
X122606008Y-113976499D01*
X122606016Y-113976498D01*
X122606019Y-113976498D01*
X122662302Y-113970748D01*
X122708797Y-113965999D01*
X122875334Y-113910814D01*
X123024656Y-113818712D01*
X123118319Y-113725049D01*
X123179642Y-113691564D01*
X123249334Y-113696548D01*
X123293681Y-113725049D01*
X123387344Y-113818712D01*
X123536666Y-113910814D01*
X123703203Y-113965999D01*
X123805991Y-113976500D01*
X124606008Y-113976499D01*
X124606016Y-113976498D01*
X124606019Y-113976498D01*
X124662302Y-113970748D01*
X124708797Y-113965999D01*
X124875334Y-113910814D01*
X125024656Y-113818712D01*
X125148712Y-113694656D01*
X125240814Y-113545334D01*
X125295999Y-113378797D01*
X125306500Y-113276009D01*
X125306499Y-112576095D01*
X125326183Y-112509057D01*
X125342813Y-112488420D01*
X125483755Y-112347478D01*
X125545076Y-112313995D01*
X125614768Y-112318979D01*
X125670701Y-112360851D01*
X125695118Y-112426315D01*
X125694654Y-112449043D01*
X125686435Y-112521994D01*
X125686435Y-112522003D01*
X125706630Y-112701249D01*
X125706631Y-112701254D01*
X125766211Y-112871523D01*
X125843398Y-112994364D01*
X125862184Y-113024262D01*
X125989738Y-113151816D01*
X126053415Y-113191827D01*
X126129287Y-113239501D01*
X126142478Y-113247789D01*
X126282112Y-113296649D01*
X126312745Y-113307368D01*
X126312750Y-113307369D01*
X126491996Y-113327565D01*
X126492000Y-113327565D01*
X126492004Y-113327565D01*
X126671249Y-113307369D01*
X126671252Y-113307368D01*
X126671255Y-113307368D01*
X126841522Y-113247789D01*
X126994262Y-113151816D01*
X127121816Y-113024262D01*
X127217789Y-112871522D01*
X127277368Y-112701255D01*
X127287161Y-112614329D01*
X127314226Y-112549918D01*
X127322690Y-112540544D01*
X127683916Y-112179319D01*
X127745239Y-112145834D01*
X127771597Y-112143000D01*
X127976639Y-112143000D01*
X131961203Y-112143000D01*
X132028242Y-112162685D01*
X132048884Y-112179319D01*
X132528599Y-112659034D01*
X132539293Y-112671228D01*
X132558515Y-112696279D01*
X132558516Y-112696280D01*
X132558518Y-112696282D01*
X132615546Y-112740041D01*
X132683959Y-112792536D01*
X132830038Y-112853044D01*
X132908419Y-112863363D01*
X132986799Y-112873682D01*
X132986800Y-112873682D01*
X133018102Y-112869560D01*
X133034287Y-112868500D01*
X134683121Y-112868500D01*
X134750160Y-112888185D01*
X134795915Y-112940989D01*
X134805859Y-113010147D01*
X134776834Y-113073703D01*
X134732931Y-113106056D01*
X134537393Y-113191826D01*
X134329217Y-113327833D01*
X134146261Y-113496257D01*
X133993524Y-113692493D01*
X133875172Y-113911188D01*
X133875169Y-113911197D01*
X133794429Y-114146383D01*
X133753500Y-114391665D01*
X133753500Y-114640334D01*
X133794429Y-114885616D01*
X133875169Y-115120802D01*
X133875172Y-115120811D01*
X133993524Y-115339506D01*
X133993526Y-115339509D01*
X134146262Y-115535744D01*
X134276895Y-115656000D01*
X134329217Y-115704166D01*
X134537393Y-115840173D01*
X134765118Y-115940063D01*
X135001958Y-116000039D01*
X135006179Y-116001108D01*
X135006181Y-116001108D01*
X135006186Y-116001109D01*
X135159589Y-116013819D01*
X135191933Y-116016500D01*
X135191937Y-116016500D01*
X135316063Y-116016500D01*
X135316067Y-116016500D01*
X135378677Y-116011311D01*
X135501813Y-116001109D01*
X135501816Y-116001108D01*
X135501821Y-116001108D01*
X135742881Y-115940063D01*
X135970607Y-115840173D01*
X136178785Y-115704164D01*
X136361738Y-115535744D01*
X136514474Y-115339509D01*
X136632828Y-115120810D01*
X136713571Y-114885614D01*
X136754500Y-114640335D01*
X136754500Y-114391665D01*
X136713571Y-114146386D01*
X136632828Y-113911190D01*
X136632623Y-113910812D01*
X136547446Y-113753418D01*
X136514474Y-113692491D01*
X136361738Y-113496256D01*
X136178785Y-113327836D01*
X136178782Y-113327833D01*
X135970606Y-113191826D01*
X135775069Y-113106056D01*
X135721583Y-113061100D01*
X135700893Y-112994364D01*
X135719568Y-112927036D01*
X135771678Y-112880493D01*
X135824879Y-112868500D01*
X136351903Y-112868500D01*
X136418942Y-112888185D01*
X136439584Y-112904819D01*
X138762252Y-115227487D01*
X138795737Y-115288810D01*
X138798571Y-115315168D01*
X138798571Y-115315998D01*
X138798571Y-115316000D01*
X138818244Y-115528310D01*
X138868570Y-115705186D01*
X138876596Y-115733392D01*
X138876596Y-115733394D01*
X138971632Y-115924253D01*
X139057460Y-116037906D01*
X139100128Y-116094407D01*
X139257698Y-116238052D01*
X139438981Y-116350298D01*
X139637802Y-116427321D01*
X139847390Y-116466500D01*
X139847392Y-116466500D01*
X140060608Y-116466500D01*
X140060610Y-116466500D01*
X140270198Y-116427321D01*
X140469019Y-116350298D01*
X140650302Y-116238052D01*
X140807872Y-116094407D01*
X140908546Y-115961093D01*
X140964655Y-115919458D01*
X141034367Y-115914767D01*
X141095549Y-115948509D01*
X141128776Y-116009972D01*
X141131500Y-116035821D01*
X141131500Y-118825902D01*
X141111815Y-118892941D01*
X141095181Y-118913584D01*
X141021918Y-118986846D01*
X140960594Y-119020330D01*
X140890903Y-119015345D01*
X140835283Y-118973891D01*
X140807872Y-118937593D01*
X140650302Y-118793948D01*
X140469019Y-118681702D01*
X140469017Y-118681701D01*
X140311840Y-118620811D01*
X140270198Y-118604679D01*
X140060610Y-118565500D01*
X139847390Y-118565500D01*
X139637802Y-118604679D01*
X139637799Y-118604679D01*
X139637799Y-118604680D01*
X139438982Y-118681701D01*
X139438980Y-118681702D01*
X139257699Y-118793947D01*
X139100127Y-118937593D01*
X138971632Y-119107746D01*
X138876596Y-119298605D01*
X138876596Y-119298607D01*
X138818244Y-119503689D01*
X138810570Y-119586512D01*
X138798571Y-119716000D01*
X138818244Y-119928310D01*
X138872567Y-120119234D01*
X138876596Y-120133392D01*
X138876596Y-120133394D01*
X138971632Y-120324253D01*
X139059041Y-120440000D01*
X139100128Y-120494407D01*
X139257698Y-120638052D01*
X139438981Y-120750298D01*
X139637802Y-120827321D01*
X139847390Y-120866500D01*
X139847392Y-120866500D01*
X140060608Y-120866500D01*
X140060610Y-120866500D01*
X140270198Y-120827321D01*
X140469019Y-120750298D01*
X140650302Y-120638052D01*
X140807872Y-120494407D01*
X140891739Y-120383350D01*
X140905013Y-120365773D01*
X140961122Y-120324137D01*
X141003967Y-120316500D01*
X141094513Y-120316500D01*
X141110697Y-120317560D01*
X141142000Y-120321682D01*
X141142001Y-120321682D01*
X141194254Y-120314802D01*
X141298762Y-120301044D01*
X141444841Y-120240536D01*
X141520695Y-120182331D01*
X141570282Y-120144282D01*
X141589509Y-120119223D01*
X141600190Y-120107043D01*
X142123043Y-119584190D01*
X142135223Y-119573509D01*
X142160282Y-119554282D01*
X142256536Y-119428841D01*
X142317044Y-119282762D01*
X142332500Y-119165361D01*
X142337682Y-119126000D01*
X142333561Y-119094697D01*
X142332500Y-119078512D01*
X142332500Y-115363487D01*
X142333561Y-115347301D01*
X142334166Y-115342710D01*
X142337682Y-115316000D01*
X142337572Y-115315168D01*
X142317044Y-115159239D01*
X142317042Y-115159234D01*
X142312875Y-115149175D01*
X142279805Y-115069336D01*
X142256538Y-115013163D01*
X142256535Y-115013157D01*
X142227025Y-114974700D01*
X142227024Y-114974699D01*
X142175750Y-114907876D01*
X142160282Y-114887718D01*
X142157540Y-114885614D01*
X142135228Y-114868493D01*
X142123034Y-114857799D01*
X139396199Y-112130964D01*
X139385503Y-112118767D01*
X139366286Y-112093722D01*
X139366283Y-112093720D01*
X139366282Y-112093718D01*
X139240841Y-111997464D01*
X139094762Y-111936956D01*
X139094760Y-111936955D01*
X138977361Y-111921500D01*
X138938000Y-111916318D01*
X138906697Y-111920439D01*
X138890513Y-111921500D01*
X138720982Y-111921500D01*
X138653943Y-111901815D01*
X138608188Y-111849011D01*
X138598244Y-111779853D01*
X138627269Y-111716297D01*
X138666255Y-111687714D01*
X138665983Y-111687253D01*
X138670652Y-111684491D01*
X138671732Y-111683700D01*
X138672696Y-111683282D01*
X138814052Y-111599685D01*
X138814061Y-111599678D01*
X138930178Y-111483561D01*
X138930185Y-111483552D01*
X139013781Y-111342198D01*
X139059600Y-111184486D01*
X139059795Y-111182001D01*
X139059795Y-111182000D01*
X137699000Y-111182000D01*
X137631961Y-111162315D01*
X137586206Y-111109511D01*
X137575000Y-111058000D01*
X137575000Y-110132000D01*
X137417420Y-110132000D01*
X137350381Y-110112315D01*
X137304626Y-110059511D01*
X137294200Y-109994115D01*
X137295565Y-109982001D01*
X137295565Y-109982000D01*
X137294256Y-109970384D01*
X137306309Y-109901564D01*
X137353657Y-109850184D01*
X137417476Y-109832500D01*
X138338000Y-109832500D01*
X138405039Y-109852185D01*
X138450794Y-109904989D01*
X138462000Y-109956500D01*
X138462000Y-110008000D01*
X138442315Y-110075039D01*
X138389511Y-110120794D01*
X138338000Y-110132000D01*
X138075000Y-110132000D01*
X138075000Y-110682000D01*
X138730685Y-110682000D01*
X138793806Y-110699268D01*
X138852102Y-110733744D01*
X138893724Y-110745836D01*
X139009926Y-110779597D01*
X139009929Y-110779597D01*
X139009931Y-110779598D01*
X139046806Y-110782500D01*
X139046814Y-110782500D01*
X140353186Y-110782500D01*
X140353194Y-110782500D01*
X140390069Y-110779598D01*
X140390071Y-110779597D01*
X140390073Y-110779597D01*
X140432165Y-110767368D01*
X140547898Y-110733744D01*
X140689365Y-110650081D01*
X140805581Y-110533865D01*
X140860978Y-110440192D01*
X140912045Y-110392511D01*
X140980787Y-110380007D01*
X141045376Y-110406652D01*
X141072702Y-110437342D01*
X141102184Y-110484262D01*
X141229738Y-110611816D01*
X141290638Y-110650082D01*
X141370371Y-110700182D01*
X141382478Y-110707789D01*
X141552745Y-110767368D01*
X141552750Y-110767369D01*
X141731996Y-110787565D01*
X141732000Y-110787565D01*
X141732004Y-110787565D01*
X141911249Y-110767369D01*
X141911252Y-110767368D01*
X141911255Y-110767368D01*
X142081522Y-110707789D01*
X142234262Y-110611816D01*
X142361816Y-110484262D01*
X142457789Y-110331522D01*
X142517368Y-110161255D01*
X142519914Y-110138657D01*
X142537565Y-109982003D01*
X142537565Y-109981996D01*
X142517369Y-109802750D01*
X142517368Y-109802745D01*
X142510535Y-109783217D01*
X142457789Y-109632478D01*
X142361816Y-109479738D01*
X142234262Y-109352184D01*
X142187991Y-109323109D01*
X142167280Y-109304220D01*
X142166033Y-109305468D01*
X142160286Y-109299722D01*
X142160283Y-109299720D01*
X142160282Y-109299718D01*
X142135224Y-109280490D01*
X142123046Y-109269810D01*
X141682198Y-108828963D01*
X141671503Y-108816767D01*
X141652286Y-108791722D01*
X141652283Y-108791720D01*
X141652282Y-108791718D01*
X141526841Y-108695464D01*
X141380762Y-108634956D01*
X141360451Y-108632282D01*
X141360450Y-108632281D01*
X141224001Y-108614318D01*
X141224000Y-108614318D01*
X141192697Y-108618439D01*
X141176513Y-108619500D01*
X140509487Y-108619500D01*
X140493302Y-108618439D01*
X140462000Y-108614318D01*
X140461999Y-108614318D01*
X140325549Y-108632281D01*
X140325549Y-108632282D01*
X140305238Y-108634956D01*
X140305237Y-108634956D01*
X140159160Y-108695463D01*
X140033714Y-108791721D01*
X140014495Y-108816769D01*
X140003800Y-108828964D01*
X139687584Y-109145181D01*
X139626261Y-109178666D01*
X139599903Y-109181500D01*
X139187000Y-109181500D01*
X139119961Y-109161815D01*
X139074206Y-109109011D01*
X139063000Y-109057500D01*
X139063000Y-108816313D01*
X139062999Y-108816298D01*
X139061453Y-108796656D01*
X139060098Y-108779431D01*
X139050931Y-108747878D01*
X139051129Y-108678013D01*
X139089070Y-108619343D01*
X139094488Y-108614935D01*
X139112282Y-108601282D01*
X139208536Y-108475841D01*
X139269044Y-108329762D01*
X139284500Y-108212361D01*
X139289682Y-108173000D01*
X139287511Y-108156512D01*
X139285561Y-108141697D01*
X139284500Y-108125512D01*
X139284500Y-106655908D01*
X139304185Y-106588869D01*
X139348271Y-106550363D01*
X139347187Y-106548605D01*
X139353332Y-106544814D01*
X139353334Y-106544814D01*
X139502656Y-106452712D01*
X139626712Y-106328656D01*
X139718814Y-106179334D01*
X139773999Y-106012797D01*
X139784500Y-105910009D01*
X139784499Y-104909992D01*
X139783536Y-104900569D01*
X139779770Y-104863701D01*
X139773999Y-104807203D01*
X139718814Y-104640666D01*
X139626712Y-104491344D01*
X139502656Y-104367288D01*
X139353334Y-104275186D01*
X139186797Y-104220001D01*
X139186795Y-104220000D01*
X139084010Y-104209500D01*
X138283998Y-104209500D01*
X138283980Y-104209501D01*
X138181203Y-104220000D01*
X138181200Y-104220001D01*
X138014668Y-104275185D01*
X138014663Y-104275187D01*
X137865342Y-104367289D01*
X137771681Y-104460951D01*
X137710358Y-104494436D01*
X137640666Y-104489452D01*
X137596319Y-104460951D01*
X137502657Y-104367289D01*
X137502656Y-104367288D01*
X137353334Y-104275186D01*
X137186797Y-104220001D01*
X137186795Y-104220000D01*
X137084010Y-104209500D01*
X136283998Y-104209500D01*
X136283980Y-104209501D01*
X136181203Y-104220000D01*
X136181200Y-104220001D01*
X136014668Y-104275185D01*
X136014663Y-104275187D01*
X135865342Y-104367289D01*
X135741289Y-104491342D01*
X135649187Y-104640663D01*
X135649185Y-104640668D01*
X135594003Y-104807197D01*
X135594000Y-104807204D01*
X135583500Y-104909983D01*
X135583500Y-105910001D01*
X135583501Y-105910019D01*
X135594000Y-106012796D01*
X135594001Y-106012799D01*
X135621471Y-106095698D01*
X135649186Y-106179334D01*
X135649187Y-106179335D01*
X135649831Y-106180717D01*
X135649988Y-106181754D01*
X135651458Y-106186189D01*
X135650699Y-106186440D01*
X135660318Y-106249795D01*
X135631794Y-106313577D01*
X135625127Y-106320795D01*
X135514183Y-106431739D01*
X135418211Y-106584476D01*
X135358631Y-106754745D01*
X135358630Y-106754750D01*
X135338435Y-106933996D01*
X135338435Y-106934003D01*
X135358630Y-107113249D01*
X135358631Y-107113254D01*
X135418211Y-107283523D01*
X135514184Y-107436262D01*
X135641738Y-107563816D01*
X135794478Y-107659789D01*
X135964745Y-107719368D01*
X135964750Y-107719369D01*
X136143996Y-107739565D01*
X136144000Y-107739565D01*
X136144004Y-107739565D01*
X136323249Y-107719369D01*
X136323252Y-107719368D01*
X136323255Y-107719368D01*
X136493522Y-107659789D01*
X136646262Y-107563816D01*
X136773816Y-107436262D01*
X136869789Y-107283522D01*
X136929368Y-107113255D01*
X136939161Y-107026329D01*
X136966226Y-106961918D01*
X136974690Y-106952543D01*
X137075043Y-106852190D01*
X137087223Y-106841509D01*
X137112282Y-106822282D01*
X137208536Y-106696841D01*
X137236781Y-106628650D01*
X137280620Y-106574249D01*
X137312337Y-106558398D01*
X137353334Y-106544814D01*
X137502656Y-106452712D01*
X137596319Y-106359049D01*
X137657642Y-106325564D01*
X137727334Y-106330548D01*
X137771681Y-106359049D01*
X137865344Y-106452712D01*
X138014666Y-106544814D01*
X138014667Y-106544814D01*
X138020813Y-106548605D01*
X138019706Y-106550399D01*
X138064337Y-106589687D01*
X138083500Y-106655908D01*
X138083500Y-107872902D01*
X138063815Y-107939941D01*
X138047181Y-107960583D01*
X137812584Y-108195181D01*
X137751261Y-108228666D01*
X137724903Y-108231500D01*
X137171798Y-108231500D01*
X137134932Y-108234401D01*
X137134926Y-108234402D01*
X136977106Y-108280254D01*
X136977103Y-108280255D01*
X136835637Y-108363917D01*
X136835629Y-108363923D01*
X136719423Y-108480129D01*
X136719417Y-108480137D01*
X136635755Y-108621603D01*
X136635754Y-108621606D01*
X136589902Y-108779426D01*
X136589901Y-108779432D01*
X136587000Y-108816298D01*
X136587000Y-109022403D01*
X136567315Y-109089442D01*
X136514511Y-109135197D01*
X136445353Y-109145141D01*
X136381797Y-109116116D01*
X136375319Y-109110084D01*
X136094199Y-108828964D01*
X136083503Y-108816767D01*
X136064286Y-108791722D01*
X136064283Y-108791720D01*
X136064282Y-108791718D01*
X135938841Y-108695464D01*
X135896711Y-108678013D01*
X135846250Y-108657111D01*
X135791846Y-108613269D01*
X135775997Y-108581553D01*
X135761004Y-108536307D01*
X135761003Y-108536303D01*
X135760999Y-108536297D01*
X135760998Y-108536294D01*
X135671970Y-108391959D01*
X135671967Y-108391955D01*
X135552044Y-108272032D01*
X135552040Y-108272029D01*
X135407705Y-108183001D01*
X135407699Y-108182998D01*
X135407697Y-108182997D01*
X135377522Y-108172998D01*
X135246709Y-108129651D01*
X135147352Y-108119500D01*
X135147345Y-108119500D01*
X134674097Y-108119500D01*
X134607058Y-108099815D01*
X134586416Y-108083181D01*
X134494819Y-107991584D01*
X134461334Y-107930261D01*
X134458500Y-107903903D01*
X134458500Y-106673767D01*
X134478185Y-106606728D01*
X134517401Y-106568230D01*
X134664156Y-106477712D01*
X134788212Y-106353656D01*
X134880314Y-106204334D01*
X134935499Y-106037797D01*
X134946000Y-105935009D01*
X134945999Y-104884992D01*
X134943823Y-104863694D01*
X134935499Y-104782203D01*
X134935498Y-104782200D01*
X134910128Y-104705638D01*
X134880314Y-104615666D01*
X134788212Y-104466344D01*
X134664156Y-104342288D01*
X134514834Y-104250186D01*
X134348297Y-104195001D01*
X134348295Y-104195000D01*
X134245510Y-104184500D01*
X133470498Y-104184500D01*
X133470480Y-104184501D01*
X133367703Y-104195000D01*
X133367700Y-104195001D01*
X133201168Y-104250185D01*
X133201163Y-104250187D01*
X133051842Y-104342289D01*
X132927785Y-104466346D01*
X132926037Y-104469182D01*
X132924329Y-104470717D01*
X132923307Y-104472011D01*
X132923085Y-104471836D01*
X132874089Y-104515905D01*
X132805126Y-104527126D01*
X132741044Y-104499282D01*
X132714963Y-104469182D01*
X132713214Y-104466346D01*
X132589157Y-104342289D01*
X132589156Y-104342288D01*
X132439834Y-104250186D01*
X132273297Y-104195001D01*
X132273295Y-104195000D01*
X132170516Y-104184500D01*
X132170509Y-104184500D01*
X131458097Y-104184500D01*
X131391058Y-104164815D01*
X131370416Y-104148181D01*
X131353422Y-104131187D01*
X144249500Y-104131187D01*
X144267437Y-104250185D01*
X144288604Y-104390615D01*
X144288605Y-104390617D01*
X144288606Y-104390623D01*
X144354931Y-104605642D01*
X144358023Y-104615668D01*
X144365938Y-104641326D01*
X144479767Y-104877696D01*
X144479768Y-104877697D01*
X144479770Y-104877700D01*
X144479772Y-104877704D01*
X144586331Y-105033997D01*
X144627567Y-105094479D01*
X144806014Y-105286801D01*
X144806018Y-105286804D01*
X144806019Y-105286805D01*
X145011143Y-105450386D01*
X145238357Y-105581568D01*
X145482584Y-105677420D01*
X145738370Y-105735802D01*
X145738376Y-105735802D01*
X145738379Y-105735803D01*
X145934484Y-105750499D01*
X145934503Y-105750499D01*
X145934506Y-105750500D01*
X145934508Y-105750500D01*
X146065492Y-105750500D01*
X146065494Y-105750500D01*
X146065496Y-105750499D01*
X146065515Y-105750499D01*
X146261620Y-105735803D01*
X146261622Y-105735802D01*
X146261630Y-105735802D01*
X146517416Y-105677420D01*
X146761643Y-105581568D01*
X146988857Y-105450386D01*
X147193981Y-105286805D01*
X147202323Y-105277815D01*
X147253557Y-105222597D01*
X147372433Y-105094479D01*
X147520228Y-104877704D01*
X147526972Y-104863701D01*
X147554182Y-104807197D01*
X147634063Y-104641323D01*
X147711396Y-104390615D01*
X147750500Y-104131182D01*
X147750500Y-103868818D01*
X147711396Y-103609385D01*
X147634063Y-103358677D01*
X147622121Y-103333880D01*
X147520232Y-103122303D01*
X147520231Y-103122302D01*
X147520230Y-103122301D01*
X147520228Y-103122296D01*
X147372433Y-102905521D01*
X147298259Y-102825580D01*
X147193985Y-102713198D01*
X147154533Y-102681736D01*
X146988857Y-102549614D01*
X146761643Y-102418432D01*
X146517416Y-102322580D01*
X146517411Y-102322578D01*
X146517402Y-102322576D01*
X146299818Y-102272914D01*
X146261630Y-102264198D01*
X146261629Y-102264197D01*
X146261625Y-102264197D01*
X146261620Y-102264196D01*
X146065515Y-102249500D01*
X146065494Y-102249500D01*
X145934506Y-102249500D01*
X145934484Y-102249500D01*
X145738379Y-102264196D01*
X145738374Y-102264197D01*
X145482597Y-102322576D01*
X145482578Y-102322582D01*
X145238356Y-102418432D01*
X145011143Y-102549614D01*
X144806014Y-102713198D01*
X144627567Y-102905520D01*
X144479768Y-103122302D01*
X144479767Y-103122303D01*
X144365938Y-103358673D01*
X144288606Y-103609376D01*
X144288605Y-103609381D01*
X144288604Y-103609385D01*
X144284752Y-103634942D01*
X144249500Y-103868812D01*
X144249500Y-104131187D01*
X131353422Y-104131187D01*
X129579199Y-102356964D01*
X129568504Y-102344769D01*
X129549283Y-102319719D01*
X129506980Y-102287259D01*
X129423841Y-102223464D01*
X129410896Y-102218102D01*
X129370670Y-102191224D01*
X129259365Y-102079919D01*
X129117898Y-101996256D01*
X129117897Y-101996255D01*
X129117896Y-101996255D01*
X129117893Y-101996254D01*
X128960073Y-101950402D01*
X128960067Y-101950401D01*
X128923201Y-101947500D01*
X128923194Y-101947500D01*
X127616806Y-101947500D01*
X127616798Y-101947500D01*
X127579932Y-101950401D01*
X127579926Y-101950402D01*
X127422106Y-101996254D01*
X127422103Y-101996255D01*
X127280637Y-102079917D01*
X127280629Y-102079923D01*
X127249374Y-102111180D01*
X127188052Y-102144666D01*
X127161692Y-102147500D01*
X125314308Y-102147500D01*
X125247269Y-102127815D01*
X125226626Y-102111180D01*
X125195370Y-102079923D01*
X125195362Y-102079917D01*
X125053896Y-101996255D01*
X125053893Y-101996254D01*
X124896073Y-101950402D01*
X124896067Y-101950401D01*
X124859201Y-101947500D01*
X124859194Y-101947500D01*
X123552806Y-101947500D01*
X123552798Y-101947500D01*
X123515932Y-101950401D01*
X123515926Y-101950402D01*
X123358106Y-101996254D01*
X123358103Y-101996255D01*
X123216637Y-102079917D01*
X123216629Y-102079923D01*
X123185374Y-102111180D01*
X123124052Y-102144666D01*
X123097692Y-102147500D01*
X121250308Y-102147500D01*
X121183269Y-102127815D01*
X121162626Y-102111180D01*
X121131370Y-102079923D01*
X121131362Y-102079917D01*
X120989896Y-101996255D01*
X120989893Y-101996254D01*
X120832073Y-101950402D01*
X120832067Y-101950401D01*
X120795201Y-101947500D01*
X120795194Y-101947500D01*
X119488806Y-101947500D01*
X119488798Y-101947500D01*
X119451932Y-101950401D01*
X119451926Y-101950402D01*
X119294106Y-101996254D01*
X119294103Y-101996255D01*
X119152637Y-102079917D01*
X119152629Y-102079923D01*
X119036423Y-102196129D01*
X119036417Y-102196137D01*
X118952755Y-102337603D01*
X118952754Y-102337606D01*
X118906902Y-102495426D01*
X118906901Y-102495432D01*
X118904000Y-102532298D01*
X118904000Y-102773500D01*
X118884315Y-102840539D01*
X118831511Y-102886294D01*
X118780000Y-102897500D01*
X117613798Y-102897500D01*
X117576932Y-102900401D01*
X117576926Y-102900402D01*
X117419106Y-102946254D01*
X117419103Y-102946255D01*
X117277637Y-103029917D01*
X117277629Y-103029923D01*
X117246374Y-103061180D01*
X117185052Y-103094666D01*
X117158692Y-103097500D01*
X116331035Y-103097500D01*
X116263996Y-103077815D01*
X116218241Y-103025011D01*
X116213330Y-103012505D01*
X116196817Y-102962674D01*
X116196815Y-102962671D01*
X116196814Y-102962666D01*
X116104712Y-102813344D01*
X115980656Y-102689288D01*
X115840209Y-102602660D01*
X115831336Y-102597187D01*
X115831331Y-102597185D01*
X115799306Y-102586573D01*
X115664797Y-102542001D01*
X115664795Y-102542000D01*
X115562010Y-102531500D01*
X114561998Y-102531500D01*
X114561980Y-102531501D01*
X114459203Y-102542000D01*
X114459200Y-102542001D01*
X114292668Y-102597185D01*
X114292663Y-102597187D01*
X114143342Y-102689289D01*
X114019286Y-102813345D01*
X114016262Y-102817170D01*
X113959239Y-102857544D01*
X113889439Y-102860679D01*
X113829025Y-102825580D01*
X113821738Y-102817170D01*
X113818713Y-102813345D01*
X113694657Y-102689289D01*
X113694656Y-102689288D01*
X113554206Y-102602658D01*
X113507483Y-102550711D01*
X113496260Y-102481748D01*
X113502260Y-102456174D01*
X113561368Y-102287255D01*
X113565622Y-102249500D01*
X113581565Y-102108003D01*
X113581565Y-102107996D01*
X113561369Y-101928750D01*
X113561368Y-101928745D01*
X113501788Y-101758476D01*
X113405815Y-101605737D01*
X113278262Y-101478184D01*
X113125523Y-101382211D01*
X112955254Y-101322631D01*
X112955249Y-101322630D01*
X112776004Y-101302435D01*
X112775996Y-101302435D01*
X112596750Y-101322630D01*
X112596745Y-101322631D01*
X112426476Y-101382211D01*
X112273737Y-101478184D01*
X112146184Y-101605737D01*
X112050211Y-101758476D01*
X111990631Y-101928745D01*
X111990630Y-101928750D01*
X111970435Y-102107996D01*
X111970435Y-102108003D01*
X111990630Y-102287249D01*
X111990632Y-102287257D01*
X112049736Y-102456167D01*
X112053297Y-102525946D01*
X112018568Y-102586573D01*
X111997791Y-102602660D01*
X111857342Y-102689289D01*
X111733286Y-102813345D01*
X111730262Y-102817170D01*
X111673239Y-102857544D01*
X111603439Y-102860679D01*
X111543025Y-102825580D01*
X111535738Y-102817170D01*
X111532713Y-102813345D01*
X111408657Y-102689289D01*
X111408656Y-102689288D01*
X111268209Y-102602660D01*
X111259336Y-102597187D01*
X111259331Y-102597185D01*
X111227306Y-102586573D01*
X111092797Y-102542001D01*
X111092795Y-102542000D01*
X110990010Y-102531500D01*
X109989998Y-102531500D01*
X109989980Y-102531501D01*
X109887203Y-102542000D01*
X109887200Y-102542001D01*
X109720668Y-102597185D01*
X109720663Y-102597187D01*
X109571342Y-102689289D01*
X109447289Y-102813342D01*
X109355187Y-102962663D01*
X109355185Y-102962668D01*
X109332899Y-103029923D01*
X109300001Y-103129203D01*
X109300001Y-103129204D01*
X109300000Y-103129204D01*
X109289500Y-103231983D01*
X109289500Y-104032001D01*
X109289501Y-104032019D01*
X109300000Y-104134796D01*
X109300001Y-104134799D01*
X109346521Y-104275185D01*
X109355186Y-104301334D01*
X109447287Y-104450655D01*
X109447289Y-104450657D01*
X109540951Y-104544319D01*
X109574436Y-104605642D01*
X109569452Y-104675334D01*
X109540951Y-104719681D01*
X109447289Y-104813342D01*
X109355187Y-104962663D01*
X109355185Y-104962668D01*
X109331549Y-105033997D01*
X109300001Y-105129203D01*
X109300001Y-105129204D01*
X109300000Y-105129204D01*
X109289500Y-105231983D01*
X109289500Y-106032001D01*
X109289501Y-106032019D01*
X109300000Y-106134796D01*
X109300001Y-106134799D01*
X109355185Y-106301331D01*
X109355187Y-106301336D01*
X109367139Y-106320713D01*
X109418939Y-106404694D01*
X109437400Y-106469790D01*
X109437400Y-108134412D01*
X109436339Y-108150597D01*
X109433390Y-108173000D01*
X109432218Y-108181900D01*
X109433966Y-108195181D01*
X109437400Y-108221260D01*
X109437400Y-108221261D01*
X109452855Y-108338660D01*
X109452856Y-108338662D01*
X109511453Y-108480129D01*
X109513364Y-108484741D01*
X109602786Y-108601278D01*
X109609619Y-108610183D01*
X109634669Y-108629404D01*
X109646864Y-108640099D01*
X109913181Y-108906416D01*
X109946666Y-108967739D01*
X109949500Y-108994097D01*
X109949500Y-109841870D01*
X109949501Y-109841876D01*
X109955908Y-109901483D01*
X109993168Y-110001381D01*
X109998152Y-110071073D01*
X109993168Y-110088046D01*
X109956403Y-110186617D01*
X109956401Y-110186627D01*
X109950000Y-110246155D01*
X109950000Y-110494000D01*
X111326000Y-110494000D01*
X111393039Y-110513685D01*
X111438794Y-110566489D01*
X111450000Y-110618000D01*
X111450000Y-111694000D01*
X111997828Y-111694000D01*
X111997844Y-111693999D01*
X112057372Y-111687598D01*
X112057379Y-111687596D01*
X112192086Y-111637354D01*
X112192093Y-111637350D01*
X112307187Y-111551190D01*
X112307190Y-111551187D01*
X112393350Y-111436093D01*
X112393355Y-111436085D01*
X112443596Y-111301379D01*
X112443598Y-111301372D01*
X112449999Y-111241844D01*
X112450000Y-111241827D01*
X112450000Y-111094497D01*
X112469685Y-111027458D01*
X112522489Y-110981703D01*
X112591647Y-110971759D01*
X112655203Y-111000784D01*
X112661681Y-111006816D01*
X112789899Y-111135034D01*
X112800593Y-111147228D01*
X112812170Y-111162315D01*
X112819818Y-111172282D01*
X112878949Y-111217654D01*
X112907625Y-111239658D01*
X112907626Y-111239660D01*
X112945258Y-111268535D01*
X112945260Y-111268537D01*
X113011725Y-111296067D01*
X113066129Y-111339907D01*
X113080455Y-111367295D01*
X113106202Y-111436328D01*
X113106206Y-111436335D01*
X113192452Y-111551544D01*
X113192455Y-111551547D01*
X113307664Y-111637793D01*
X113307671Y-111637797D01*
X113442517Y-111688091D01*
X113442516Y-111688091D01*
X113449444Y-111688835D01*
X113502127Y-111694500D01*
X115097872Y-111694499D01*
X115157483Y-111688091D01*
X115234628Y-111659317D01*
X115304317Y-111654334D01*
X115365640Y-111687818D01*
X115399125Y-111749141D01*
X115394141Y-111818833D01*
X115365641Y-111863181D01*
X115293883Y-111934939D01*
X115197911Y-112087676D01*
X115138331Y-112257945D01*
X115138330Y-112257950D01*
X115118135Y-112437196D01*
X115118135Y-112437203D01*
X115138330Y-112616449D01*
X115138331Y-112616454D01*
X115197911Y-112786723D01*
X115275075Y-112909528D01*
X115294075Y-112976765D01*
X115273707Y-113043600D01*
X115220439Y-113088814D01*
X115170081Y-113099500D01*
X114915999Y-113099500D01*
X114915980Y-113099501D01*
X114813203Y-113110000D01*
X114813200Y-113110001D01*
X114646668Y-113165185D01*
X114646663Y-113165187D01*
X114497342Y-113257289D01*
X114403681Y-113350951D01*
X114342358Y-113384436D01*
X114272666Y-113379452D01*
X114228319Y-113350951D01*
X114134657Y-113257289D01*
X114134656Y-113257288D01*
X114001743Y-113175307D01*
X113985336Y-113165187D01*
X113985331Y-113165185D01*
X113944983Y-113151815D01*
X113818797Y-113110001D01*
X113818795Y-113110000D01*
X113716010Y-113099500D01*
X112915998Y-113099500D01*
X112915980Y-113099501D01*
X112813203Y-113110000D01*
X112813200Y-113110001D01*
X112646668Y-113165185D01*
X112646663Y-113165187D01*
X112497342Y-113257289D01*
X112373288Y-113381343D01*
X112373285Y-113381347D01*
X112330431Y-113450825D01*
X112278484Y-113497550D01*
X112209521Y-113508771D01*
X112145439Y-113480928D01*
X112125627Y-113460039D01*
X112067547Y-113382455D01*
X112067544Y-113382452D01*
X111952335Y-113296206D01*
X111952328Y-113296202D01*
X111817482Y-113245908D01*
X111817483Y-113245908D01*
X111757883Y-113239501D01*
X111757881Y-113239500D01*
X111757873Y-113239500D01*
X111757864Y-113239500D01*
X109222129Y-113239500D01*
X109222123Y-113239501D01*
X109162516Y-113245908D01*
X109027671Y-113296202D01*
X109027664Y-113296206D01*
X108912455Y-113382452D01*
X108912452Y-113382455D01*
X108826206Y-113497664D01*
X108826202Y-113497671D01*
X108775908Y-113632517D01*
X108769501Y-113692116D01*
X108769500Y-113692135D01*
X108769500Y-114907870D01*
X108769501Y-114907876D01*
X108775908Y-114967483D01*
X108826202Y-115102328D01*
X108826206Y-115102335D01*
X108912452Y-115217544D01*
X108912455Y-115217547D01*
X109027664Y-115303793D01*
X109027671Y-115303797D01*
X109162517Y-115354091D01*
X109162516Y-115354091D01*
X109169444Y-115354835D01*
X109222127Y-115360500D01*
X111757872Y-115360499D01*
X111817483Y-115354091D01*
X111952331Y-115303796D01*
X112067546Y-115217546D01*
X112125628Y-115139958D01*
X112181560Y-115098089D01*
X112251252Y-115093105D01*
X112312575Y-115126590D01*
X112330432Y-115149175D01*
X112372383Y-115217190D01*
X112373288Y-115218656D01*
X112497344Y-115342712D01*
X112646666Y-115434814D01*
X112699417Y-115452294D01*
X112756862Y-115492064D01*
X112783686Y-115556580D01*
X112771372Y-115625356D01*
X112723829Y-115676556D01*
X112699420Y-115687704D01*
X112646672Y-115705183D01*
X112646663Y-115705187D01*
X112497342Y-115797289D01*
X112373288Y-115921343D01*
X112373285Y-115921347D01*
X112330431Y-115990825D01*
X112278484Y-116037550D01*
X112209521Y-116048771D01*
X112145439Y-116020928D01*
X112125627Y-116000039D01*
X112067547Y-115922455D01*
X112067544Y-115922452D01*
X111952335Y-115836206D01*
X111952328Y-115836202D01*
X111817482Y-115785908D01*
X111817483Y-115785908D01*
X111757883Y-115779501D01*
X111757881Y-115779500D01*
X111757873Y-115779500D01*
X111757864Y-115779500D01*
X109222129Y-115779500D01*
X109222123Y-115779501D01*
X109162516Y-115785908D01*
X109027671Y-115836202D01*
X109027664Y-115836206D01*
X108912455Y-115922452D01*
X108912452Y-115922455D01*
X108826206Y-116037664D01*
X108826202Y-116037671D01*
X108775908Y-116172517D01*
X108769501Y-116232116D01*
X108769500Y-116232135D01*
X108769500Y-117447870D01*
X108769501Y-117447876D01*
X108775908Y-117507483D01*
X108826202Y-117642328D01*
X108826206Y-117642335D01*
X108912452Y-117757544D01*
X108912455Y-117757547D01*
X109027664Y-117843793D01*
X109027671Y-117843797D01*
X109162517Y-117894091D01*
X109162516Y-117894091D01*
X109169444Y-117894835D01*
X109222127Y-117900500D01*
X111757872Y-117900499D01*
X111817483Y-117894091D01*
X111952331Y-117843796D01*
X112067546Y-117757546D01*
X112125628Y-117679958D01*
X112181560Y-117638089D01*
X112251252Y-117633105D01*
X112312575Y-117666590D01*
X112330432Y-117689175D01*
X112372383Y-117757190D01*
X112373288Y-117758656D01*
X112497344Y-117882712D01*
X112646666Y-117974814D01*
X112699417Y-117992294D01*
X112756862Y-118032064D01*
X112783686Y-118096580D01*
X112771372Y-118165356D01*
X112723829Y-118216556D01*
X112699420Y-118227704D01*
X112646672Y-118245183D01*
X112646663Y-118245187D01*
X112497342Y-118337289D01*
X112373288Y-118461343D01*
X112373285Y-118461347D01*
X112330431Y-118530825D01*
X112278484Y-118577550D01*
X112209521Y-118588771D01*
X112145439Y-118560928D01*
X112125627Y-118540039D01*
X112067547Y-118462455D01*
X112067544Y-118462452D01*
X111952335Y-118376206D01*
X111952328Y-118376202D01*
X111817482Y-118325908D01*
X111817483Y-118325908D01*
X111757883Y-118319501D01*
X111757881Y-118319500D01*
X111757873Y-118319500D01*
X111757864Y-118319500D01*
X109222129Y-118319500D01*
X109222123Y-118319501D01*
X109162516Y-118325908D01*
X109027671Y-118376202D01*
X109027664Y-118376206D01*
X108912455Y-118462452D01*
X108912452Y-118462455D01*
X108826206Y-118577664D01*
X108826202Y-118577671D01*
X108775908Y-118712516D01*
X108772845Y-118741008D01*
X108746105Y-118805559D01*
X108697012Y-118842310D01*
X108665261Y-118855462D01*
X108665258Y-118855464D01*
X108539818Y-118951716D01*
X108520589Y-118976775D01*
X108509898Y-118988965D01*
X106542965Y-120955898D01*
X106530774Y-120966590D01*
X106505718Y-120985817D01*
X106481549Y-121017313D01*
X106481550Y-121017314D01*
X106409464Y-121111258D01*
X106409461Y-121111263D01*
X106348957Y-121257334D01*
X106348955Y-121257339D01*
X106330771Y-121395464D01*
X106328318Y-121414100D01*
X106332439Y-121445401D01*
X106333500Y-121461587D01*
X106333500Y-128984512D01*
X106332439Y-129000697D01*
X106328318Y-129031998D01*
X106328318Y-129032000D01*
X106333500Y-129071360D01*
X106333500Y-129071361D01*
X106348955Y-129188760D01*
X106348956Y-129188762D01*
X106409464Y-129334841D01*
X106505718Y-129460282D01*
X106505719Y-129460283D01*
X106530769Y-129479504D01*
X106542964Y-129490199D01*
X108880799Y-131828034D01*
X108891493Y-131840228D01*
X108910715Y-131865279D01*
X108910716Y-131865280D01*
X108910718Y-131865282D01*
X109036159Y-131961536D01*
X109182238Y-132022044D01*
X109260619Y-132032363D01*
X109338999Y-132042682D01*
X109339000Y-132042682D01*
X109370302Y-132038560D01*
X109386487Y-132037500D01*
X117489770Y-132037500D01*
X117556809Y-132057185D01*
X117602564Y-132109989D01*
X117612508Y-132179147D01*
X117583483Y-132242703D01*
X117577451Y-132249181D01*
X117453289Y-132373342D01*
X117361187Y-132522663D01*
X117361186Y-132522666D01*
X117306001Y-132689203D01*
X117306001Y-132689204D01*
X117306000Y-132689204D01*
X117295500Y-132791983D01*
X117295500Y-133792001D01*
X117295502Y-133792017D01*
X117306000Y-133894796D01*
X117306001Y-133894799D01*
X117361185Y-134061331D01*
X117361188Y-134061338D01*
X117375416Y-134084405D01*
X117393855Y-134151797D01*
X117372931Y-134218461D01*
X117319289Y-134263229D01*
X117269876Y-134273500D01*
X114601487Y-134273500D01*
X114585302Y-134272439D01*
X114554000Y-134268318D01*
X114553999Y-134268318D01*
X114417549Y-134286281D01*
X114417549Y-134286282D01*
X114397238Y-134288956D01*
X114397237Y-134288956D01*
X114251160Y-134349463D01*
X114125714Y-134445721D01*
X114106495Y-134470769D01*
X114095806Y-134482959D01*
X114087587Y-134491177D01*
X114026268Y-134524665D01*
X113999903Y-134527500D01*
X109593247Y-134527500D01*
X109526208Y-134507815D01*
X109505566Y-134491181D01*
X108999349Y-133984964D01*
X108988653Y-133972767D01*
X108969436Y-133947722D01*
X108969433Y-133947720D01*
X108969432Y-133947718D01*
X108843991Y-133851464D01*
X108697912Y-133790956D01*
X108697910Y-133790955D01*
X108580511Y-133775500D01*
X108541150Y-133770318D01*
X108509847Y-133774439D01*
X108493663Y-133775500D01*
X108112998Y-133775500D01*
X108045959Y-133755815D01*
X108000204Y-133703011D01*
X107989778Y-133637617D01*
X107993565Y-133604004D01*
X107993565Y-133603996D01*
X107973369Y-133424750D01*
X107973368Y-133424745D01*
X107961764Y-133391584D01*
X107913789Y-133254478D01*
X107817816Y-133101738D01*
X107690262Y-132974184D01*
X107656892Y-132953216D01*
X107537521Y-132878210D01*
X107367249Y-132818630D01*
X107280330Y-132808837D01*
X107215916Y-132781770D01*
X107206533Y-132773298D01*
X105878199Y-131444964D01*
X105867503Y-131432767D01*
X105848286Y-131407722D01*
X105848283Y-131407720D01*
X105848282Y-131407718D01*
X105722841Y-131311464D01*
X105576762Y-131250956D01*
X105576760Y-131250955D01*
X105459361Y-131235500D01*
X105420000Y-131230318D01*
X105388697Y-131234439D01*
X105372513Y-131235500D01*
X104143091Y-131235500D01*
X104076052Y-131215815D01*
X104030711Y-131163909D01*
X104028037Y-131158175D01*
X104028034Y-131158170D01*
X104028033Y-131158169D01*
X103892495Y-130964599D01*
X103892494Y-130964597D01*
X103725402Y-130797506D01*
X103725395Y-130797501D01*
X103531834Y-130661967D01*
X103531830Y-130661965D01*
X103531828Y-130661964D01*
X103317663Y-130562097D01*
X103317659Y-130562096D01*
X103317655Y-130562094D01*
X103089413Y-130500938D01*
X103089403Y-130500936D01*
X102854001Y-130480341D01*
X102853999Y-130480341D01*
X102618596Y-130500936D01*
X102618586Y-130500938D01*
X102390344Y-130562094D01*
X102390335Y-130562098D01*
X102176171Y-130661964D01*
X102176169Y-130661965D01*
X101982597Y-130797505D01*
X101815505Y-130964597D01*
X101679965Y-131158169D01*
X101679964Y-131158171D01*
X101580098Y-131372335D01*
X101580094Y-131372344D01*
X101518938Y-131600586D01*
X101518936Y-131600596D01*
X101498341Y-131835999D01*
X101498341Y-131836000D01*
X101518936Y-132071403D01*
X101518938Y-132071413D01*
X101580094Y-132299655D01*
X101580096Y-132299659D01*
X101580097Y-132299663D01*
X101652839Y-132455658D01*
X101679965Y-132513830D01*
X101679967Y-132513834D01*
X101815501Y-132707395D01*
X101815506Y-132707402D01*
X101982597Y-132874493D01*
X101982603Y-132874498D01*
X102168158Y-133004425D01*
X102211783Y-133059002D01*
X102218977Y-133128500D01*
X102187454Y-133190855D01*
X102168158Y-133207575D01*
X101982597Y-133337505D01*
X101815505Y-133504597D01*
X101679965Y-133698169D01*
X101679964Y-133698171D01*
X101580098Y-133912335D01*
X101580094Y-133912344D01*
X101518938Y-134140586D01*
X101518936Y-134140596D01*
X101498341Y-134375999D01*
X101498341Y-134376000D01*
X101518936Y-134611403D01*
X101518938Y-134611413D01*
X101580094Y-134839655D01*
X101580096Y-134839659D01*
X101580097Y-134839663D01*
X101645227Y-134979334D01*
X101679965Y-135053830D01*
X101679967Y-135053834D01*
X101815501Y-135247395D01*
X101815506Y-135247402D01*
X101982597Y-135414493D01*
X101982603Y-135414498D01*
X102168158Y-135544425D01*
X102211783Y-135599002D01*
X102218977Y-135668500D01*
X102187454Y-135730855D01*
X102168158Y-135747575D01*
X101982597Y-135877505D01*
X101815505Y-136044597D01*
X101679965Y-136238169D01*
X101679964Y-136238171D01*
X101580098Y-136452335D01*
X101580094Y-136452344D01*
X101518938Y-136680586D01*
X101518936Y-136680596D01*
X101498341Y-136915999D01*
X101498341Y-136916000D01*
X101518936Y-137151403D01*
X101518938Y-137151413D01*
X101580094Y-137379655D01*
X101580096Y-137379659D01*
X101580097Y-137379663D01*
X101651299Y-137532356D01*
X101679965Y-137593830D01*
X101679967Y-137593834D01*
X101750602Y-137694710D01*
X101815501Y-137787396D01*
X101815506Y-137787402D01*
X101937818Y-137909714D01*
X101971303Y-137971037D01*
X101966319Y-138040729D01*
X101924447Y-138096662D01*
X101893471Y-138113577D01*
X101761912Y-138162646D01*
X101761906Y-138162649D01*
X101646812Y-138248809D01*
X101646809Y-138248812D01*
X101560649Y-138363906D01*
X101560645Y-138363913D01*
X101510403Y-138498620D01*
X101510401Y-138498627D01*
X101504000Y-138558155D01*
X101504000Y-139206000D01*
X102420314Y-139206000D01*
X102394507Y-139246156D01*
X102354000Y-139384111D01*
X102354000Y-139527889D01*
X102394507Y-139665844D01*
X102420314Y-139706000D01*
X101504000Y-139706000D01*
X101504000Y-140353844D01*
X101510401Y-140413372D01*
X101510403Y-140413379D01*
X101560645Y-140548086D01*
X101560649Y-140548093D01*
X101646809Y-140663187D01*
X101646812Y-140663190D01*
X101761906Y-140749350D01*
X101761913Y-140749354D01*
X101896620Y-140799596D01*
X101896627Y-140799598D01*
X101956155Y-140805999D01*
X101956172Y-140806000D01*
X102604000Y-140806000D01*
X102604000Y-139891501D01*
X102711685Y-139940680D01*
X102818237Y-139956000D01*
X102889763Y-139956000D01*
X102996315Y-139940680D01*
X103104000Y-139891501D01*
X103104000Y-140806000D01*
X103751828Y-140806000D01*
X103751844Y-140805999D01*
X103811372Y-140799598D01*
X103811379Y-140799596D01*
X103946086Y-140749354D01*
X103946093Y-140749350D01*
X104061187Y-140663190D01*
X104061190Y-140663187D01*
X104147350Y-140548093D01*
X104147354Y-140548086D01*
X104197596Y-140413379D01*
X104197598Y-140413372D01*
X104203999Y-140353844D01*
X104204000Y-140353827D01*
X104204000Y-139706000D01*
X103287686Y-139706000D01*
X103313493Y-139665844D01*
X103354000Y-139527889D01*
X103354000Y-139384111D01*
X103313493Y-139246156D01*
X103287686Y-139206000D01*
X104204000Y-139206000D01*
X104204000Y-138558172D01*
X104203999Y-138558155D01*
X104197598Y-138498627D01*
X104197596Y-138498620D01*
X104147354Y-138363913D01*
X104147350Y-138363906D01*
X104061190Y-138248812D01*
X104061187Y-138248809D01*
X103946093Y-138162649D01*
X103946088Y-138162646D01*
X103814528Y-138113577D01*
X103758595Y-138071705D01*
X103734178Y-138006241D01*
X103749030Y-137937968D01*
X103770175Y-137909720D01*
X103892495Y-137787401D01*
X104028035Y-137593830D01*
X104030707Y-137588097D01*
X104076878Y-137535658D01*
X104143091Y-137516500D01*
X117350677Y-137516500D01*
X117417716Y-137536185D01*
X117447221Y-137566239D01*
X117448805Y-137564987D01*
X117453286Y-137570654D01*
X117453288Y-137570656D01*
X117577344Y-137694712D01*
X117726666Y-137786814D01*
X117726667Y-137786814D01*
X117732813Y-137790605D01*
X117731706Y-137792399D01*
X117776337Y-137831687D01*
X117795500Y-137897908D01*
X117795500Y-138708091D01*
X117775815Y-138775130D01*
X117731731Y-138813641D01*
X117732813Y-138815395D01*
X117726667Y-138819185D01*
X117726666Y-138819186D01*
X117712756Y-138827766D01*
X117577342Y-138911289D01*
X117453289Y-139035342D01*
X117361187Y-139184663D01*
X117361185Y-139184668D01*
X117340810Y-139246156D01*
X117306001Y-139351203D01*
X117306001Y-139351204D01*
X117306000Y-139351204D01*
X117295500Y-139453983D01*
X117295500Y-140454001D01*
X117295501Y-140454019D01*
X117306000Y-140556796D01*
X117306001Y-140556799D01*
X117306241Y-140557522D01*
X117361186Y-140723334D01*
X117453288Y-140872656D01*
X117577344Y-140996712D01*
X117726666Y-141088814D01*
X117726667Y-141088814D01*
X117732813Y-141092605D01*
X117731706Y-141094399D01*
X117776337Y-141133687D01*
X117795500Y-141199908D01*
X117795500Y-141208512D01*
X117794439Y-141224697D01*
X117790318Y-141255998D01*
X117790318Y-141256001D01*
X117796248Y-141301044D01*
X117810955Y-141412760D01*
X117810956Y-141412762D01*
X117858209Y-141526842D01*
X117871464Y-141558841D01*
X117943162Y-141652280D01*
X117967719Y-141684283D01*
X117992769Y-141703504D01*
X118004964Y-141714199D01*
X121020584Y-144729819D01*
X121054069Y-144791142D01*
X121049085Y-144860834D01*
X121007213Y-144916767D01*
X120941749Y-144941184D01*
X120932903Y-144941500D01*
X120697487Y-144941500D01*
X120681302Y-144940439D01*
X120650000Y-144936318D01*
X120610639Y-144941500D01*
X120493239Y-144956955D01*
X120493237Y-144956956D01*
X120347160Y-145017463D01*
X120221714Y-145113721D01*
X120202495Y-145138769D01*
X120191800Y-145150964D01*
X119496965Y-145845798D01*
X119484774Y-145856490D01*
X119459718Y-145875717D01*
X119435549Y-145907213D01*
X119435550Y-145907214D01*
X119363464Y-146001158D01*
X119363461Y-146001163D01*
X119302957Y-146147234D01*
X119302955Y-146147239D01*
X119282318Y-146303998D01*
X119282318Y-146303999D01*
X119286439Y-146335301D01*
X119287500Y-146351487D01*
X119287500Y-146792908D01*
X119267815Y-146859947D01*
X119215914Y-146905286D01*
X119210173Y-146907963D01*
X119210169Y-146907965D01*
X119016597Y-147043505D01*
X118849505Y-147210597D01*
X118719575Y-147396158D01*
X118664998Y-147439783D01*
X118595500Y-147446977D01*
X118533145Y-147415454D01*
X118516425Y-147396158D01*
X118386494Y-147210597D01*
X118219402Y-147043506D01*
X118219395Y-147043501D01*
X118025834Y-146907967D01*
X118025830Y-146907965D01*
X117922855Y-146859947D01*
X117811663Y-146808097D01*
X117811659Y-146808096D01*
X117811655Y-146808094D01*
X117583413Y-146746938D01*
X117583403Y-146746936D01*
X117348001Y-146726341D01*
X117347999Y-146726341D01*
X117112596Y-146746936D01*
X117112586Y-146746938D01*
X116884344Y-146808094D01*
X116884335Y-146808098D01*
X116670171Y-146907964D01*
X116670169Y-146907965D01*
X116476597Y-147043505D01*
X116309505Y-147210597D01*
X116173965Y-147404169D01*
X116173964Y-147404171D01*
X116074098Y-147618335D01*
X116074094Y-147618344D01*
X116012938Y-147846586D01*
X116012936Y-147846596D01*
X115992341Y-148081999D01*
X115992341Y-148082000D01*
X116012936Y-148317403D01*
X116012938Y-148317413D01*
X116074094Y-148545655D01*
X116074096Y-148545659D01*
X116074097Y-148545663D01*
X116154004Y-148717023D01*
X116173965Y-148759830D01*
X116173967Y-148759834D01*
X116282281Y-148914521D01*
X116309505Y-148953401D01*
X116476599Y-149120495D01*
X116553135Y-149174086D01*
X116670165Y-149256032D01*
X116670167Y-149256033D01*
X116670170Y-149256035D01*
X116685360Y-149263118D01*
X116737799Y-149309291D01*
X116756951Y-149376484D01*
X116736735Y-149443365D01*
X116683570Y-149488700D01*
X116632955Y-149499500D01*
X100624500Y-149499500D01*
X100557461Y-149479815D01*
X100511706Y-149427011D01*
X100500500Y-149375500D01*
X100500500Y-146131187D01*
X102249500Y-146131187D01*
X102256680Y-146178819D01*
X102288604Y-146390615D01*
X102288605Y-146390617D01*
X102288606Y-146390623D01*
X102365938Y-146641326D01*
X102479767Y-146877696D01*
X102479768Y-146877697D01*
X102479770Y-146877700D01*
X102479772Y-146877704D01*
X102592814Y-147043506D01*
X102627567Y-147094479D01*
X102806014Y-147286801D01*
X102806018Y-147286804D01*
X102806019Y-147286805D01*
X103011143Y-147450386D01*
X103238357Y-147581568D01*
X103482584Y-147677420D01*
X103738370Y-147735802D01*
X103738376Y-147735802D01*
X103738379Y-147735803D01*
X103934484Y-147750499D01*
X103934503Y-147750499D01*
X103934506Y-147750500D01*
X103934508Y-147750500D01*
X104065492Y-147750500D01*
X104065494Y-147750500D01*
X104065496Y-147750499D01*
X104065515Y-147750499D01*
X104261620Y-147735803D01*
X104261622Y-147735802D01*
X104261630Y-147735802D01*
X104517416Y-147677420D01*
X104761643Y-147581568D01*
X104988857Y-147450386D01*
X105193981Y-147286805D01*
X105372433Y-147094479D01*
X105520228Y-146877704D01*
X105634063Y-146641323D01*
X105711396Y-146390615D01*
X105750500Y-146131182D01*
X105750500Y-145868818D01*
X105711396Y-145609385D01*
X105634063Y-145358677D01*
X105534034Y-145150964D01*
X105520232Y-145122303D01*
X105520231Y-145122302D01*
X105520230Y-145122301D01*
X105520228Y-145122296D01*
X105372433Y-144905521D01*
X105274388Y-144799853D01*
X105193985Y-144713198D01*
X105154533Y-144681736D01*
X104988857Y-144549614D01*
X104761643Y-144418432D01*
X104517416Y-144322580D01*
X104517411Y-144322578D01*
X104517402Y-144322576D01*
X104299818Y-144272914D01*
X104261630Y-144264198D01*
X104261629Y-144264197D01*
X104261625Y-144264197D01*
X104261620Y-144264196D01*
X104065515Y-144249500D01*
X104065494Y-144249500D01*
X103934506Y-144249500D01*
X103934484Y-144249500D01*
X103738379Y-144264196D01*
X103738374Y-144264197D01*
X103482597Y-144322576D01*
X103482578Y-144322582D01*
X103238356Y-144418432D01*
X103011143Y-144549614D01*
X102806014Y-144713198D01*
X102627567Y-144905520D01*
X102479768Y-145122302D01*
X102479767Y-145122303D01*
X102365938Y-145358673D01*
X102288606Y-145609376D01*
X102288605Y-145609381D01*
X102288604Y-145609385D01*
X102273853Y-145707247D01*
X102249500Y-145868812D01*
X102249500Y-146131187D01*
X100500500Y-146131187D01*
X100500500Y-128184000D01*
X100520185Y-128116961D01*
X100572989Y-128071206D01*
X100624500Y-128060000D01*
X101630000Y-128060000D01*
X101630000Y-127250000D01*
X102130000Y-127250000D01*
X102130000Y-128060000D01*
X103147828Y-128060000D01*
X103147844Y-128059999D01*
X103207372Y-128053598D01*
X103207379Y-128053596D01*
X103342086Y-128003354D01*
X103342093Y-128003350D01*
X103457187Y-127917190D01*
X103457190Y-127917187D01*
X103543350Y-127802093D01*
X103543354Y-127802086D01*
X103593596Y-127667379D01*
X103593598Y-127667372D01*
X103599999Y-127607844D01*
X103600000Y-127607827D01*
X103600000Y-127250000D01*
X102130000Y-127250000D01*
X101630000Y-127250000D01*
X101630000Y-125940000D01*
X102130000Y-125940000D01*
X102130000Y-126750000D01*
X103600000Y-126750000D01*
X103600000Y-126392172D01*
X103599999Y-126392155D01*
X103593598Y-126332627D01*
X103593596Y-126332620D01*
X103543354Y-126197913D01*
X103543350Y-126197906D01*
X103457190Y-126082812D01*
X103457187Y-126082809D01*
X103342093Y-125996649D01*
X103342086Y-125996645D01*
X103207379Y-125946403D01*
X103207372Y-125946401D01*
X103147844Y-125940000D01*
X102130000Y-125940000D01*
X101630000Y-125940000D01*
X100624500Y-125940000D01*
X100557461Y-125920315D01*
X100511706Y-125867511D01*
X100500500Y-125816000D01*
X100500500Y-125644000D01*
X100520185Y-125576961D01*
X100572989Y-125531206D01*
X100624500Y-125520000D01*
X101630000Y-125520000D01*
X101630000Y-124710000D01*
X102130000Y-124710000D01*
X102130000Y-125520000D01*
X103147828Y-125520000D01*
X103147844Y-125519999D01*
X103207372Y-125513598D01*
X103207379Y-125513596D01*
X103342086Y-125463354D01*
X103342093Y-125463350D01*
X103457187Y-125377190D01*
X103457190Y-125377187D01*
X103543350Y-125262093D01*
X103543354Y-125262086D01*
X103593596Y-125127379D01*
X103593598Y-125127372D01*
X103599999Y-125067844D01*
X103600000Y-125067827D01*
X103600000Y-124710000D01*
X102130000Y-124710000D01*
X101630000Y-124710000D01*
X101630000Y-123400000D01*
X102130000Y-123400000D01*
X102130000Y-124210000D01*
X103600000Y-124210000D01*
X103600000Y-123852172D01*
X103599999Y-123852155D01*
X103593598Y-123792627D01*
X103593596Y-123792620D01*
X103543354Y-123657913D01*
X103543350Y-123657906D01*
X103457190Y-123542812D01*
X103457187Y-123542809D01*
X103342093Y-123456649D01*
X103342086Y-123456645D01*
X103207379Y-123406403D01*
X103207372Y-123406401D01*
X103147844Y-123400000D01*
X102130000Y-123400000D01*
X101630000Y-123400000D01*
X100624500Y-123400000D01*
X100557461Y-123380315D01*
X100511706Y-123327511D01*
X100500500Y-123276000D01*
X100500500Y-123104000D01*
X100520185Y-123036961D01*
X100572989Y-122991206D01*
X100624500Y-122980000D01*
X101630000Y-122980000D01*
X101630000Y-122170000D01*
X102130000Y-122170000D01*
X102130000Y-122980000D01*
X103147828Y-122980000D01*
X103147844Y-122979999D01*
X103207372Y-122973598D01*
X103207379Y-122973596D01*
X103342086Y-122923354D01*
X103342093Y-122923350D01*
X103457187Y-122837190D01*
X103457190Y-122837187D01*
X103543350Y-122722093D01*
X103543354Y-122722086D01*
X103593596Y-122587379D01*
X103593598Y-122587372D01*
X103599999Y-122527844D01*
X103600000Y-122527827D01*
X103600000Y-122170000D01*
X102130000Y-122170000D01*
X101630000Y-122170000D01*
X101630000Y-120860000D01*
X102130000Y-120860000D01*
X102130000Y-121670000D01*
X103600000Y-121670000D01*
X103600000Y-121312172D01*
X103599999Y-121312155D01*
X103593598Y-121252627D01*
X103593596Y-121252620D01*
X103543354Y-121117913D01*
X103543350Y-121117906D01*
X103457190Y-121002812D01*
X103457187Y-121002809D01*
X103342093Y-120916649D01*
X103342086Y-120916645D01*
X103207379Y-120866403D01*
X103207372Y-120866401D01*
X103147844Y-120860000D01*
X102130000Y-120860000D01*
X101630000Y-120860000D01*
X100624500Y-120860000D01*
X100557461Y-120840315D01*
X100511706Y-120787511D01*
X100500500Y-120736000D01*
X100500500Y-120564000D01*
X100520185Y-120496961D01*
X100572989Y-120451206D01*
X100624500Y-120440000D01*
X101630000Y-120440000D01*
X101630000Y-119630000D01*
X102130000Y-119630000D01*
X102130000Y-120440000D01*
X103147828Y-120440000D01*
X103147844Y-120439999D01*
X103207372Y-120433598D01*
X103207379Y-120433596D01*
X103342086Y-120383354D01*
X103342093Y-120383350D01*
X103457187Y-120297190D01*
X103457190Y-120297187D01*
X103543350Y-120182093D01*
X103543354Y-120182086D01*
X103593596Y-120047379D01*
X103593598Y-120047372D01*
X103599999Y-119987844D01*
X103600000Y-119987827D01*
X103600000Y-119630000D01*
X102130000Y-119630000D01*
X101630000Y-119630000D01*
X101630000Y-118320000D01*
X102130000Y-118320000D01*
X102130000Y-119130000D01*
X103600000Y-119130000D01*
X103600000Y-118772172D01*
X103599999Y-118772155D01*
X103593598Y-118712627D01*
X103593596Y-118712620D01*
X103543354Y-118577913D01*
X103543350Y-118577906D01*
X103457190Y-118462812D01*
X103457187Y-118462809D01*
X103342093Y-118376649D01*
X103342086Y-118376645D01*
X103207379Y-118326403D01*
X103207372Y-118326401D01*
X103147844Y-118320000D01*
X102130000Y-118320000D01*
X101630000Y-118320000D01*
X100624500Y-118320000D01*
X100557461Y-118300315D01*
X100511706Y-118247511D01*
X100500500Y-118196000D01*
X100500500Y-118024000D01*
X100520185Y-117956961D01*
X100572989Y-117911206D01*
X100624500Y-117900000D01*
X101630000Y-117900000D01*
X101630000Y-117090000D01*
X102130000Y-117090000D01*
X102130000Y-117900000D01*
X103147828Y-117900000D01*
X103147844Y-117899999D01*
X103207372Y-117893598D01*
X103207379Y-117893596D01*
X103342086Y-117843354D01*
X103342093Y-117843350D01*
X103457187Y-117757190D01*
X103457190Y-117757187D01*
X103543350Y-117642093D01*
X103543354Y-117642086D01*
X103593596Y-117507379D01*
X103593598Y-117507372D01*
X103599999Y-117447844D01*
X103600000Y-117447827D01*
X103600000Y-117090000D01*
X102130000Y-117090000D01*
X101630000Y-117090000D01*
X101630000Y-115780000D01*
X102130000Y-115780000D01*
X102130000Y-116590000D01*
X103600000Y-116590000D01*
X103600000Y-116232172D01*
X103599999Y-116232155D01*
X103593598Y-116172627D01*
X103593596Y-116172620D01*
X103543354Y-116037913D01*
X103543350Y-116037906D01*
X103457190Y-115922812D01*
X103457187Y-115922809D01*
X103342093Y-115836649D01*
X103342086Y-115836645D01*
X103207379Y-115786403D01*
X103207372Y-115786401D01*
X103147844Y-115780000D01*
X102130000Y-115780000D01*
X101630000Y-115780000D01*
X100624500Y-115780000D01*
X100557461Y-115760315D01*
X100511706Y-115707511D01*
X100500500Y-115656000D01*
X100500500Y-115484000D01*
X100520185Y-115416961D01*
X100572989Y-115371206D01*
X100624500Y-115360000D01*
X101630000Y-115360000D01*
X101630000Y-114550000D01*
X102130000Y-114550000D01*
X102130000Y-115360000D01*
X103147828Y-115360000D01*
X103147844Y-115359999D01*
X103207372Y-115353598D01*
X103207379Y-115353596D01*
X103342086Y-115303354D01*
X103342093Y-115303350D01*
X103457187Y-115217190D01*
X103457190Y-115217187D01*
X103543350Y-115102093D01*
X103543354Y-115102086D01*
X103593596Y-114967379D01*
X103593598Y-114967372D01*
X103599999Y-114907844D01*
X103600000Y-114907827D01*
X103600000Y-114550000D01*
X102130000Y-114550000D01*
X101630000Y-114550000D01*
X101630000Y-113240000D01*
X102130000Y-113240000D01*
X102130000Y-114050000D01*
X103600000Y-114050000D01*
X103600000Y-113692172D01*
X103599999Y-113692155D01*
X103593598Y-113632627D01*
X103593596Y-113632620D01*
X103543354Y-113497913D01*
X103543350Y-113497906D01*
X103457190Y-113382812D01*
X103457187Y-113382809D01*
X103342093Y-113296649D01*
X103342086Y-113296645D01*
X103207379Y-113246403D01*
X103207372Y-113246401D01*
X103147844Y-113240000D01*
X102130000Y-113240000D01*
X101630000Y-113240000D01*
X100624500Y-113240000D01*
X100557461Y-113220315D01*
X100511706Y-113167511D01*
X100500500Y-113116000D01*
X100500500Y-110994000D01*
X109950000Y-110994000D01*
X109950000Y-111241844D01*
X109956401Y-111301372D01*
X109956403Y-111301379D01*
X110006645Y-111436085D01*
X110006649Y-111436093D01*
X110092809Y-111551187D01*
X110092812Y-111551190D01*
X110207906Y-111637350D01*
X110207913Y-111637354D01*
X110342620Y-111687596D01*
X110342627Y-111687598D01*
X110402155Y-111693999D01*
X110402172Y-111694000D01*
X110950000Y-111694000D01*
X110950000Y-110994000D01*
X109950000Y-110994000D01*
X100500500Y-110994000D01*
X100500500Y-104131187D01*
X102249500Y-104131187D01*
X102267437Y-104250185D01*
X102288604Y-104390615D01*
X102288605Y-104390617D01*
X102288606Y-104390623D01*
X102354931Y-104605642D01*
X102358023Y-104615668D01*
X102365938Y-104641326D01*
X102479767Y-104877696D01*
X102479768Y-104877697D01*
X102479770Y-104877700D01*
X102479772Y-104877704D01*
X102586331Y-105033997D01*
X102627567Y-105094479D01*
X102806014Y-105286801D01*
X102806018Y-105286804D01*
X102806019Y-105286805D01*
X103011143Y-105450386D01*
X103238357Y-105581568D01*
X103482584Y-105677420D01*
X103738370Y-105735802D01*
X103738376Y-105735802D01*
X103738379Y-105735803D01*
X103934484Y-105750499D01*
X103934503Y-105750499D01*
X103934506Y-105750500D01*
X103934508Y-105750500D01*
X104065492Y-105750500D01*
X104065494Y-105750500D01*
X104065496Y-105750499D01*
X104065515Y-105750499D01*
X104261620Y-105735803D01*
X104261622Y-105735802D01*
X104261630Y-105735802D01*
X104517416Y-105677420D01*
X104761643Y-105581568D01*
X104988857Y-105450386D01*
X105193981Y-105286805D01*
X105202323Y-105277815D01*
X105253557Y-105222597D01*
X105372433Y-105094479D01*
X105520228Y-104877704D01*
X105526972Y-104863701D01*
X105554182Y-104807197D01*
X105634063Y-104641323D01*
X105711396Y-104390615D01*
X105750500Y-104131182D01*
X105750500Y-103868818D01*
X105711396Y-103609385D01*
X105634063Y-103358677D01*
X105622121Y-103333880D01*
X105520232Y-103122303D01*
X105520231Y-103122302D01*
X105520230Y-103122301D01*
X105520228Y-103122296D01*
X105372433Y-102905521D01*
X105298259Y-102825580D01*
X105193985Y-102713198D01*
X105154533Y-102681736D01*
X104988857Y-102549614D01*
X104761643Y-102418432D01*
X104517416Y-102322580D01*
X104517411Y-102322578D01*
X104517402Y-102322576D01*
X104299818Y-102272914D01*
X104261630Y-102264198D01*
X104261629Y-102264197D01*
X104261625Y-102264197D01*
X104261620Y-102264196D01*
X104065515Y-102249500D01*
X104065494Y-102249500D01*
X103934506Y-102249500D01*
X103934484Y-102249500D01*
X103738379Y-102264196D01*
X103738374Y-102264197D01*
X103482597Y-102322576D01*
X103482578Y-102322582D01*
X103238356Y-102418432D01*
X103011143Y-102549614D01*
X102806014Y-102713198D01*
X102627567Y-102905520D01*
X102479768Y-103122302D01*
X102479767Y-103122303D01*
X102365938Y-103358673D01*
X102288606Y-103609376D01*
X102288605Y-103609381D01*
X102288604Y-103609385D01*
X102284752Y-103634942D01*
X102249500Y-103868812D01*
X102249500Y-104131187D01*
X100500500Y-104131187D01*
X100500500Y-100624500D01*
X100520185Y-100557461D01*
X100572989Y-100511706D01*
X100624500Y-100500500D01*
X149375500Y-100500500D01*
X149442539Y-100520185D01*
G37*
%TD.AperFunction*%
%TA.AperFunction,Conductor*%
G36*
X121701702Y-133196883D02*
G01*
X121708180Y-133202915D01*
X123198181Y-134692916D01*
X123231666Y-134754239D01*
X123234500Y-134780596D01*
X123234500Y-134964500D01*
X123234501Y-134964519D01*
X123245000Y-135067296D01*
X123245001Y-135067299D01*
X123300185Y-135233831D01*
X123300187Y-135233836D01*
X123308550Y-135247395D01*
X123392288Y-135383156D01*
X123516344Y-135507212D01*
X123519628Y-135509237D01*
X123519653Y-135509253D01*
X123521445Y-135511246D01*
X123522011Y-135511693D01*
X123521934Y-135511789D01*
X123566379Y-135561199D01*
X123577603Y-135630161D01*
X123549761Y-135694244D01*
X123519665Y-135720326D01*
X123516660Y-135722179D01*
X123516655Y-135722183D01*
X123392684Y-135846154D01*
X123300643Y-135995375D01*
X123300641Y-135995380D01*
X123245494Y-136161802D01*
X123245493Y-136161809D01*
X123235000Y-136264513D01*
X123235000Y-136402000D01*
X125684999Y-136402000D01*
X125684999Y-136264528D01*
X125684998Y-136264513D01*
X125674505Y-136161802D01*
X125619358Y-135995380D01*
X125619356Y-135995375D01*
X125527315Y-135846154D01*
X125403344Y-135722183D01*
X125403341Y-135722181D01*
X125400339Y-135720329D01*
X125398713Y-135718521D01*
X125397677Y-135717702D01*
X125397817Y-135717524D01*
X125353617Y-135668380D01*
X125342397Y-135599417D01*
X125370243Y-135535336D01*
X125400344Y-135509254D01*
X125403656Y-135507212D01*
X125527712Y-135383156D01*
X125618229Y-135236402D01*
X125670177Y-135189679D01*
X125723768Y-135177500D01*
X128087902Y-135177500D01*
X128154941Y-135197185D01*
X128200696Y-135249989D01*
X128210640Y-135319147D01*
X128181615Y-135382703D01*
X128175583Y-135389181D01*
X127497965Y-136066798D01*
X127485775Y-136077489D01*
X127460716Y-136096718D01*
X127375545Y-136207717D01*
X127375544Y-136207716D01*
X127364466Y-136222154D01*
X127364461Y-136222163D01*
X127303957Y-136368234D01*
X127303955Y-136368239D01*
X127283318Y-136524998D01*
X127283318Y-136525000D01*
X127287439Y-136556301D01*
X127288500Y-136572487D01*
X127288500Y-136765191D01*
X127268815Y-136832230D01*
X127252181Y-136852872D01*
X127220923Y-136884129D01*
X127220917Y-136884137D01*
X127137255Y-137025603D01*
X127137254Y-137025606D01*
X127091402Y-137183426D01*
X127091401Y-137183432D01*
X127088500Y-137220298D01*
X127088500Y-137959500D01*
X127068815Y-138026539D01*
X127016011Y-138072294D01*
X126964500Y-138083500D01*
X122982098Y-138083500D01*
X122915059Y-138063815D01*
X122894417Y-138047181D01*
X122810819Y-137963583D01*
X122777334Y-137902260D01*
X122774500Y-137875902D01*
X122774500Y-136902000D01*
X123235001Y-136902000D01*
X123235001Y-137039486D01*
X123245494Y-137142197D01*
X123300641Y-137308619D01*
X123300643Y-137308624D01*
X123392684Y-137457845D01*
X123516654Y-137581815D01*
X123665875Y-137673856D01*
X123665880Y-137673858D01*
X123832302Y-137729005D01*
X123832309Y-137729006D01*
X123935019Y-137739499D01*
X124209999Y-137739499D01*
X124210000Y-137739498D01*
X124210000Y-136902000D01*
X124710000Y-136902000D01*
X124710000Y-137739499D01*
X124984972Y-137739499D01*
X124984986Y-137739498D01*
X125087697Y-137729005D01*
X125254119Y-137673858D01*
X125254124Y-137673856D01*
X125403345Y-137581815D01*
X125527315Y-137457845D01*
X125619356Y-137308624D01*
X125619358Y-137308619D01*
X125674505Y-137142197D01*
X125674506Y-137142190D01*
X125684999Y-137039486D01*
X125685000Y-137039473D01*
X125685000Y-136902000D01*
X124710000Y-136902000D01*
X124210000Y-136902000D01*
X123235001Y-136902000D01*
X122774500Y-136902000D01*
X122774500Y-136191487D01*
X122775561Y-136175301D01*
X122775752Y-136173853D01*
X122779682Y-136144000D01*
X122759044Y-135987238D01*
X122728790Y-135914198D01*
X122698538Y-135841163D01*
X122698535Y-135841157D01*
X122674843Y-135810282D01*
X122674842Y-135810281D01*
X122626727Y-135747575D01*
X122602282Y-135715718D01*
X122595801Y-135710745D01*
X122577228Y-135696493D01*
X122565034Y-135685799D01*
X121301982Y-134422747D01*
X121268497Y-134361424D01*
X121273481Y-134291732D01*
X121301981Y-134247386D01*
X121338712Y-134210656D01*
X121430814Y-134061334D01*
X121485999Y-133894797D01*
X121496500Y-133792009D01*
X121496499Y-133290594D01*
X121516183Y-133223557D01*
X121568987Y-133177802D01*
X121638146Y-133167858D01*
X121701702Y-133196883D01*
G37*
%TD.AperFunction*%
%TA.AperFunction,Conductor*%
G36*
X129014242Y-130851485D02*
G01*
X129034884Y-130868119D01*
X129624848Y-131458083D01*
X129658333Y-131519406D01*
X129653349Y-131589098D01*
X129611477Y-131645031D01*
X129546013Y-131669448D01*
X129502573Y-131664841D01*
X129411567Y-131638401D01*
X129374701Y-131635500D01*
X129374694Y-131635500D01*
X128943306Y-131635500D01*
X128943298Y-131635500D01*
X128906432Y-131638401D01*
X128906426Y-131638402D01*
X128748606Y-131684254D01*
X128748603Y-131684255D01*
X128607137Y-131767917D01*
X128600969Y-131772702D01*
X128599072Y-131770256D01*
X128550358Y-131796857D01*
X128480666Y-131791873D01*
X128448296Y-131771069D01*
X128447031Y-131772702D01*
X128440862Y-131767917D01*
X128327403Y-131700818D01*
X128299398Y-131684256D01*
X128299397Y-131684255D01*
X128299396Y-131684255D01*
X128299393Y-131684254D01*
X128141573Y-131638402D01*
X128141567Y-131638401D01*
X128104701Y-131635500D01*
X128104694Y-131635500D01*
X127673306Y-131635500D01*
X127673298Y-131635500D01*
X127636432Y-131638401D01*
X127636426Y-131638402D01*
X127478606Y-131684254D01*
X127478605Y-131684254D01*
X127413036Y-131723031D01*
X127345312Y-131740212D01*
X127302465Y-131730860D01*
X127283564Y-131723031D01*
X127279762Y-131721456D01*
X127279760Y-131721455D01*
X127162361Y-131706000D01*
X127123000Y-131700818D01*
X127091697Y-131704939D01*
X127075513Y-131706000D01*
X123665997Y-131706000D01*
X123598958Y-131686315D01*
X123578316Y-131669681D01*
X122952116Y-131043481D01*
X122918631Y-130982158D01*
X122923615Y-130912466D01*
X122965487Y-130856533D01*
X123030951Y-130832116D01*
X123039797Y-130831800D01*
X128947203Y-130831800D01*
X129014242Y-130851485D01*
G37*
%TD.AperFunction*%
%TA.AperFunction,Conductor*%
G36*
X118101895Y-114764701D02*
G01*
X118151885Y-114813515D01*
X118167548Y-114881607D01*
X118143911Y-114947357D01*
X118142146Y-114949714D01*
X118122979Y-114974695D01*
X118122975Y-114974700D01*
X118093464Y-115013157D01*
X118093461Y-115013163D01*
X118032957Y-115159234D01*
X118032955Y-115159239D01*
X118012318Y-115315998D01*
X118012318Y-115316000D01*
X118015835Y-115342712D01*
X118016439Y-115347301D01*
X118017500Y-115363487D01*
X118017500Y-119586512D01*
X118016439Y-119602697D01*
X118012318Y-119633998D01*
X118012318Y-119634000D01*
X118017500Y-119673360D01*
X118017500Y-119673361D01*
X118032955Y-119790760D01*
X118032956Y-119790762D01*
X118093464Y-119936841D01*
X118189718Y-120062282D01*
X118189719Y-120062283D01*
X118214769Y-120081504D01*
X118226964Y-120092199D01*
X119937799Y-121803034D01*
X119948493Y-121815228D01*
X119967717Y-121840281D01*
X120071608Y-121919999D01*
X120071609Y-121920000D01*
X120093159Y-121936536D01*
X120093163Y-121936538D01*
X120166198Y-121966790D01*
X120239238Y-121997044D01*
X120317619Y-122007363D01*
X120395999Y-122017682D01*
X120396000Y-122017682D01*
X120427302Y-122013560D01*
X120443487Y-122012500D01*
X125937903Y-122012500D01*
X126004942Y-122032185D01*
X126025584Y-122048819D01*
X131342584Y-127365819D01*
X131376069Y-127427142D01*
X131371085Y-127496834D01*
X131329213Y-127552767D01*
X131263749Y-127577184D01*
X131254903Y-127577500D01*
X116540500Y-127577500D01*
X116473461Y-127557815D01*
X116427706Y-127505011D01*
X116416500Y-127453500D01*
X116416499Y-126499998D01*
X116416498Y-126499980D01*
X116405999Y-126397203D01*
X116405998Y-126397200D01*
X116392936Y-126357783D01*
X116350814Y-126230666D01*
X116258712Y-126081344D01*
X116134656Y-125957288D01*
X115985334Y-125865186D01*
X115985332Y-125865185D01*
X115979187Y-125861395D01*
X115980290Y-125859605D01*
X115935649Y-125820290D01*
X115916500Y-125754091D01*
X115916500Y-125705908D01*
X115936185Y-125638869D01*
X115980271Y-125600363D01*
X115979187Y-125598605D01*
X115985332Y-125594814D01*
X115985334Y-125594814D01*
X116062596Y-125547159D01*
X122520000Y-125547159D01*
X122534819Y-125688154D01*
X122593278Y-125868072D01*
X122593283Y-125868084D01*
X122687870Y-126031915D01*
X122687872Y-126031918D01*
X122814460Y-126172509D01*
X122814463Y-126172511D01*
X122967522Y-126283717D01*
X123140356Y-126360666D01*
X123169999Y-126366966D01*
X123170000Y-126366966D01*
X123170000Y-125524624D01*
X123184505Y-125597545D01*
X123239760Y-125680240D01*
X123322455Y-125735495D01*
X123420000Y-125754898D01*
X123517545Y-125735495D01*
X123600240Y-125680240D01*
X123655495Y-125597545D01*
X123670000Y-125524624D01*
X123670000Y-126366966D01*
X123699643Y-126360666D01*
X123872479Y-126283714D01*
X124025535Y-126172512D01*
X124133405Y-126052711D01*
X124192892Y-126016062D01*
X124262749Y-126017393D01*
X124296675Y-126034106D01*
X124372361Y-126087102D01*
X124570670Y-126179575D01*
X124782023Y-126236207D01*
X124964926Y-126252208D01*
X124999998Y-126255277D01*
X125000000Y-126255277D01*
X125000002Y-126255277D01*
X125028254Y-126252805D01*
X125217977Y-126236207D01*
X125429330Y-126179575D01*
X125627639Y-126087102D01*
X125631447Y-126084436D01*
X125676754Y-126052711D01*
X125703321Y-126034108D01*
X125769525Y-126011781D01*
X125837293Y-126028790D01*
X125866594Y-126052711D01*
X125974460Y-126172509D01*
X125974463Y-126172511D01*
X126127522Y-126283717D01*
X126300356Y-126360666D01*
X126329999Y-126366966D01*
X126330000Y-126366966D01*
X126330000Y-125524624D01*
X126344505Y-125597545D01*
X126399760Y-125680240D01*
X126482455Y-125735495D01*
X126580000Y-125754898D01*
X126677545Y-125735495D01*
X126760240Y-125680240D01*
X126815495Y-125597545D01*
X126830000Y-125524624D01*
X126830000Y-126366966D01*
X126859643Y-126360666D01*
X127032479Y-126283714D01*
X127185535Y-126172512D01*
X127312127Y-126031918D01*
X127312129Y-126031915D01*
X127406716Y-125868084D01*
X127406721Y-125868072D01*
X127465180Y-125688154D01*
X127480000Y-125547159D01*
X127480000Y-125250000D01*
X126830000Y-125250000D01*
X126830000Y-124750000D01*
X127480000Y-124750000D01*
X127480000Y-124452840D01*
X127465180Y-124311845D01*
X127406721Y-124131927D01*
X127406716Y-124131915D01*
X127312129Y-123968084D01*
X127312127Y-123968081D01*
X127185539Y-123827490D01*
X127185536Y-123827488D01*
X127032477Y-123716282D01*
X126859648Y-123639335D01*
X126830000Y-123633032D01*
X126830000Y-124475376D01*
X126815495Y-124402455D01*
X126760240Y-124319760D01*
X126677545Y-124264505D01*
X126580000Y-124245102D01*
X126482455Y-124264505D01*
X126399760Y-124319760D01*
X126344505Y-124402455D01*
X126330000Y-124475376D01*
X126330000Y-123633032D01*
X126300354Y-123639334D01*
X126127518Y-123716286D01*
X125974464Y-123827487D01*
X125866593Y-123947289D01*
X125807106Y-123983937D01*
X125737249Y-123982606D01*
X125703322Y-123965892D01*
X125627639Y-123912898D01*
X125429330Y-123820425D01*
X125429326Y-123820424D01*
X125429322Y-123820422D01*
X125217977Y-123763793D01*
X125000002Y-123744723D01*
X124999998Y-123744723D01*
X124854682Y-123757436D01*
X124782023Y-123763793D01*
X124782020Y-123763793D01*
X124570677Y-123820422D01*
X124570668Y-123820426D01*
X124372361Y-123912898D01*
X124372359Y-123912899D01*
X124296677Y-123965892D01*
X124230471Y-123988219D01*
X124162704Y-123971207D01*
X124133405Y-123947288D01*
X124025539Y-123827490D01*
X124025536Y-123827488D01*
X123872477Y-123716282D01*
X123699648Y-123639335D01*
X123670000Y-123633032D01*
X123670000Y-124475376D01*
X123655495Y-124402455D01*
X123600240Y-124319760D01*
X123517545Y-124264505D01*
X123420000Y-124245102D01*
X123322455Y-124264505D01*
X123239760Y-124319760D01*
X123184505Y-124402455D01*
X123170000Y-124475376D01*
X123170000Y-123633032D01*
X123140354Y-123639334D01*
X122967518Y-123716286D01*
X122814464Y-123827487D01*
X122687872Y-123968081D01*
X122687870Y-123968084D01*
X122593283Y-124131915D01*
X122593278Y-124131927D01*
X122534819Y-124311845D01*
X122520000Y-124452840D01*
X122520000Y-124750000D01*
X123170000Y-124750000D01*
X123170000Y-125250000D01*
X122520000Y-125250000D01*
X122520000Y-125547159D01*
X116062596Y-125547159D01*
X116134656Y-125502712D01*
X116258712Y-125378656D01*
X116350814Y-125229334D01*
X116405999Y-125062797D01*
X116416500Y-124960009D01*
X116416499Y-123959992D01*
X116415201Y-123947289D01*
X116405999Y-123857203D01*
X116405998Y-123857200D01*
X116393811Y-123820422D01*
X116350814Y-123690666D01*
X116258712Y-123541344D01*
X116134656Y-123417288D01*
X115985334Y-123325186D01*
X115985332Y-123325185D01*
X115979187Y-123321395D01*
X115980290Y-123319605D01*
X115935649Y-123280290D01*
X115916500Y-123214091D01*
X115916500Y-123165908D01*
X115936185Y-123098869D01*
X115980271Y-123060363D01*
X115979187Y-123058605D01*
X115985332Y-123054814D01*
X115985334Y-123054814D01*
X116134656Y-122962712D01*
X116258712Y-122838656D01*
X116350814Y-122689334D01*
X116405999Y-122522797D01*
X116416500Y-122420009D01*
X116416499Y-121419992D01*
X116413993Y-121395464D01*
X116405999Y-121317203D01*
X116405998Y-121317200D01*
X116398564Y-121294766D01*
X116350814Y-121150666D01*
X116258712Y-121001344D01*
X116134656Y-120877288D01*
X115985334Y-120785186D01*
X115985332Y-120785185D01*
X115979187Y-120781395D01*
X115980290Y-120779605D01*
X115935649Y-120740290D01*
X115916500Y-120674091D01*
X115916500Y-120625908D01*
X115936185Y-120558869D01*
X115980271Y-120520363D01*
X115979187Y-120518605D01*
X115985332Y-120514814D01*
X115985334Y-120514814D01*
X116134656Y-120422712D01*
X116258712Y-120298656D01*
X116350814Y-120149334D01*
X116405999Y-119982797D01*
X116416500Y-119880009D01*
X116416499Y-118879992D01*
X116416220Y-118877265D01*
X116405999Y-118777203D01*
X116405998Y-118777200D01*
X116389016Y-118725951D01*
X116350814Y-118610666D01*
X116258712Y-118461344D01*
X116134656Y-118337288D01*
X115985334Y-118245186D01*
X115985332Y-118245185D01*
X115979187Y-118241395D01*
X115980290Y-118239605D01*
X115935649Y-118200290D01*
X115916500Y-118134091D01*
X115916500Y-118085908D01*
X115936185Y-118018869D01*
X115980271Y-117980363D01*
X115979187Y-117978605D01*
X115985332Y-117974814D01*
X115985334Y-117974814D01*
X116134656Y-117882712D01*
X116258712Y-117758656D01*
X116350814Y-117609334D01*
X116405999Y-117442797D01*
X116416500Y-117340009D01*
X116416499Y-116339992D01*
X116413031Y-116306047D01*
X116405999Y-116237203D01*
X116405998Y-116237200D01*
X116391355Y-116193011D01*
X116350814Y-116070666D01*
X116258712Y-115921344D01*
X116134656Y-115797288D01*
X115985334Y-115705186D01*
X115985332Y-115705185D01*
X115979187Y-115701395D01*
X115980290Y-115699605D01*
X115935649Y-115660290D01*
X115916500Y-115594091D01*
X115916500Y-115545908D01*
X115936185Y-115478869D01*
X115980271Y-115440363D01*
X115979187Y-115438605D01*
X115985332Y-115434814D01*
X115985334Y-115434814D01*
X116134656Y-115342712D01*
X116258712Y-115218656D01*
X116350814Y-115069334D01*
X116378595Y-114985495D01*
X116418368Y-114928051D01*
X116482884Y-114901228D01*
X116496301Y-114900500D01*
X117554513Y-114900500D01*
X117570697Y-114901560D01*
X117602000Y-114905682D01*
X117602001Y-114905682D01*
X117654254Y-114898802D01*
X117758762Y-114885044D01*
X117904841Y-114824536D01*
X117936805Y-114800009D01*
X117968282Y-114775855D01*
X118033451Y-114750662D01*
X118101895Y-114764701D01*
G37*
%TD.AperFunction*%
%TD*%
M02*
