%TF.GenerationSoftware,KiCad,Pcbnew,7.0.11+dfsg-1build4*%
%TF.CreationDate,2026-03-17T18:57:51-05:00*%
%TF.ProjectId,friendly-board-game-tile-tile,66726965-6e64-46c7-992d-626f6172642d,rev?*%
%TF.SameCoordinates,Original*%
%TF.FileFunction,Soldermask,Top*%
%TF.FilePolarity,Negative*%
%FSLAX46Y46*%
G04 Gerber Fmt 4.6, Leading zero omitted, Abs format (unit mm)*
G04 Created by KiCad (PCBNEW 7.0.11+dfsg-1build4) date 2026-03-17 18:57:51*
%MOMM*%
%LPD*%
G01*
G04 APERTURE LIST*
G04 Aperture macros list*
%AMRoundRect*
0 Rectangle with rounded corners*
0 $1 Rounding radius*
0 $2 $3 $4 $5 $6 $7 $8 $9 X,Y pos of 4 corners*
0 Add a 4 corners polygon primitive as box body*
4,1,4,$2,$3,$4,$5,$6,$7,$8,$9,$2,$3,0*
0 Add four circle primitives for the rounded corners*
1,1,$1+$1,$2,$3*
1,1,$1+$1,$4,$5*
1,1,$1+$1,$6,$7*
1,1,$1+$1,$8,$9*
0 Add four rect primitives between the rounded corners*
20,1,$1+$1,$2,$3,$4,$5,0*
20,1,$1+$1,$4,$5,$6,$7,0*
20,1,$1+$1,$6,$7,$8,$9,0*
20,1,$1+$1,$8,$9,$2,$3,0*%
G04 Aperture macros list end*
%ADD10C,2.500000*%
%ADD11C,1.300000*%
%ADD12RoundRect,0.250000X0.350000X0.450000X-0.350000X0.450000X-0.350000X-0.450000X0.350000X-0.450000X0*%
%ADD13C,3.000000*%
%ADD14RoundRect,0.150000X0.587500X0.150000X-0.587500X0.150000X-0.587500X-0.150000X0.587500X-0.150000X0*%
%ADD15R,1.700000X1.700000*%
%ADD16O,1.700000X1.700000*%
%ADD17RoundRect,0.250000X-0.450000X0.350000X-0.450000X-0.350000X0.450000X-0.350000X0.450000X0.350000X0*%
%ADD18RoundRect,0.250000X-0.350000X-0.450000X0.350000X-0.450000X0.350000X0.450000X-0.350000X0.450000X0*%
%ADD19RoundRect,0.250000X-0.475000X0.337500X-0.475000X-0.337500X0.475000X-0.337500X0.475000X0.337500X0*%
%ADD20RoundRect,0.250000X-0.337500X-0.475000X0.337500X-0.475000X0.337500X0.475000X-0.337500X0.475000X0*%
%ADD21R,2.440000X1.120000*%
%ADD22C,1.500000*%
%ADD23O,0.800000X1.800000*%
%ADD24RoundRect,0.150000X0.150000X-0.850000X0.150000X0.850000X-0.150000X0.850000X-0.150000X-0.850000X0*%
%ADD25RoundRect,0.150000X-0.587500X-0.150000X0.587500X-0.150000X0.587500X0.150000X-0.587500X0.150000X0*%
%ADD26R,1.500000X0.900000*%
%ADD27RoundRect,0.225000X-0.225000X-0.375000X0.225000X-0.375000X0.225000X0.375000X-0.225000X0.375000X0*%
G04 APERTURE END LIST*
D10*
%TO.C,M1*%
X135254000Y-114516000D03*
X129214000Y-114516000D03*
X135254000Y-120516000D03*
X129214000Y-120516000D03*
D11*
X139954000Y-115316000D03*
X139954000Y-119716000D03*
%TD*%
D12*
%TO.C,R9*%
X115316000Y-124460000D03*
X113316000Y-124460000D03*
%TD*%
D13*
%TO.C,MH02*%
X146000000Y-104000000D03*
%TD*%
D14*
%TO.C,Q3*%
X124206000Y-104648000D03*
X124206000Y-102748000D03*
X122331000Y-103698000D03*
%TD*%
D15*
%TO.C,J2*%
X144018000Y-127000000D03*
D16*
X141478000Y-127000000D03*
X138938000Y-127000000D03*
X136398000Y-127000000D03*
%TD*%
D17*
%TO.C,R4*%
X110490000Y-103632000D03*
X110490000Y-105632000D03*
%TD*%
D18*
%TO.C,R7*%
X126508000Y-109220000D03*
X128508000Y-109220000D03*
%TD*%
%TO.C,R6*%
X122206000Y-109220000D03*
X124206000Y-109220000D03*
%TD*%
D13*
%TO.C,MH03*%
X104000000Y-146000000D03*
%TD*%
D19*
%TO.C,C2*%
X124460000Y-134577000D03*
X124460000Y-136652000D03*
%TD*%
D12*
%TO.C,R11*%
X115316000Y-119380000D03*
X113316000Y-119380000D03*
%TD*%
%TO.C,R10*%
X115316000Y-121920000D03*
X113316000Y-121920000D03*
%TD*%
D17*
%TO.C,R3*%
X112776000Y-103632000D03*
X112776000Y-105632000D03*
%TD*%
D20*
%TO.C,C1*%
X131783000Y-105410000D03*
X133858000Y-105410000D03*
%TD*%
D18*
%TO.C,R16*%
X118396000Y-139954000D03*
X120396000Y-139954000D03*
%TD*%
D13*
%TO.C,MH01*%
X104000000Y-104000000D03*
%TD*%
D12*
%TO.C,R13*%
X115316000Y-114300000D03*
X113316000Y-114300000D03*
%TD*%
%TO.C,R12*%
X115316000Y-116840000D03*
X113316000Y-116840000D03*
%TD*%
D21*
%TO.C,SW1*%
X110490000Y-127000000D03*
X110490000Y-124460000D03*
X110490000Y-121920000D03*
X110490000Y-119380000D03*
X110490000Y-116840000D03*
X110490000Y-114300000D03*
X101880000Y-114300000D03*
X101880000Y-116840000D03*
X101880000Y-119380000D03*
X101880000Y-121920000D03*
X101880000Y-124460000D03*
X101880000Y-127000000D03*
%TD*%
D22*
%TO.C,J1*%
X125000000Y-125000000D03*
D23*
X123420000Y-125000000D03*
X126580000Y-125000000D03*
%TD*%
D18*
%TO.C,R14*%
X118396000Y-133292000D03*
X120396000Y-133292000D03*
%TD*%
D24*
%TO.C,U1*%
X127889000Y-138136000D03*
X129159000Y-138136000D03*
X130429000Y-138136000D03*
X131699000Y-138136000D03*
X132969000Y-138136000D03*
X134239000Y-138136000D03*
X135509000Y-138136000D03*
X136779000Y-138136000D03*
X136779000Y-133136000D03*
X135509000Y-133136000D03*
X134239000Y-133136000D03*
X132969000Y-133136000D03*
X131699000Y-133136000D03*
X130429000Y-133136000D03*
X129159000Y-133136000D03*
X127889000Y-133136000D03*
%TD*%
D15*
%TO.C,J5*%
X102854000Y-139456000D03*
D16*
X102854000Y-136916000D03*
X102854000Y-134376000D03*
X102854000Y-131836000D03*
%TD*%
D14*
%TO.C,Q4*%
X128270000Y-104648000D03*
X128270000Y-102748000D03*
X126395000Y-103698000D03*
%TD*%
D25*
%TO.C,Q1*%
X137825000Y-109032000D03*
X137825000Y-110932000D03*
X139700000Y-109982000D03*
%TD*%
D18*
%TO.C,R1*%
X136684000Y-105410000D03*
X138684000Y-105410000D03*
%TD*%
D15*
%TO.C,J4*%
X147146000Y-139456000D03*
D16*
X147146000Y-136916000D03*
X147146000Y-134376000D03*
X147146000Y-131836000D03*
%TD*%
D18*
%TO.C,R5*%
X118142000Y-109220000D03*
X120142000Y-109220000D03*
%TD*%
%TO.C,R17*%
X122206000Y-112776000D03*
X124206000Y-112776000D03*
%TD*%
D13*
%TO.C,MH04*%
X146000000Y-146000000D03*
%TD*%
D12*
%TO.C,R8*%
X115316000Y-127000000D03*
X113316000Y-127000000D03*
%TD*%
D26*
%TO.C,D1*%
X114300000Y-109344000D03*
X114300000Y-110744000D03*
X111200000Y-109344000D03*
X111200000Y-110744000D03*
%TD*%
D27*
%TO.C,D2*%
X131574000Y-109220000D03*
X134874000Y-109220000D03*
%TD*%
D14*
%TO.C,Q2*%
X120142000Y-104648000D03*
X120142000Y-102748000D03*
X118267000Y-103698000D03*
%TD*%
D15*
%TO.C,J3*%
X132588000Y-148082000D03*
D16*
X130048000Y-148082000D03*
X127508000Y-148082000D03*
X124968000Y-148082000D03*
X122428000Y-148082000D03*
X119888000Y-148082000D03*
X117348000Y-148082000D03*
%TD*%
D18*
%TO.C,R15*%
X118396000Y-136652000D03*
X120396000Y-136652000D03*
%TD*%
D17*
%TO.C,R2*%
X115062000Y-103632000D03*
X115062000Y-105632000D03*
%TD*%
M02*
