%TF.GenerationSoftware,KiCad,Pcbnew,7.0.11+dfsg-1build4*%
%TF.CreationDate,2026-03-16T12:03:46-05:00*%
%TF.ProjectId,friendly-board-game-tile-piece,66726965-6e64-46c7-992d-626f6172642d,rev?*%
%TF.SameCoordinates,Original*%
%TF.FileFunction,Copper,L1,Top*%
%TF.FilePolarity,Positive*%
%FSLAX46Y46*%
G04 Gerber Fmt 4.6, Leading zero omitted, Abs format (unit mm)*
G04 Created by KiCad (PCBNEW 7.0.11+dfsg-1build4) date 2026-03-16 12:03:46*
%MOMM*%
%LPD*%
G01*
G04 APERTURE LIST*
G04 Aperture macros list*
%AMRoundRect*
0 Rectangle with rounded corners*
0 $1 Rounding radius*
0 $2 $3 $4 $5 $6 $7 $8 $9 X,Y pos of 4 corners*
0 Add a 4 corners polygon primitive as box body*
4,1,4,$2,$3,$4,$5,$6,$7,$8,$9,$2,$3,0*
0 Add four circle primitives for the rounded corners*
1,1,$1+$1,$2,$3*
1,1,$1+$1,$4,$5*
1,1,$1+$1,$6,$7*
1,1,$1+$1,$8,$9*
0 Add four rect primitives between the rounded corners*
20,1,$1+$1,$2,$3,$4,$5,0*
20,1,$1+$1,$4,$5,$6,$7,0*
20,1,$1+$1,$6,$7,$8,$9,0*
20,1,$1+$1,$8,$9,$2,$3,0*%
%AMHorizOval*
0 Thick line with rounded ends*
0 $1 width*
0 $2 $3 position (X,Y) of the first rounded end (center of the circle)*
0 $4 $5 position (X,Y) of the second rounded end (center of the circle)*
0 Add line between two ends*
20,1,$1,$2,$3,$4,$5,0*
0 Add two circle primitives to create the rounded ends*
1,1,$1,$2,$3*
1,1,$1,$4,$5*%
G04 Aperture macros list end*
%TA.AperFunction,ComponentPad*%
%ADD10C,1.500000*%
%TD*%
%TA.AperFunction,ComponentPad*%
%ADD11HorizOval,0.800000X-0.353553X0.353553X0.353553X-0.353553X0*%
%TD*%
%TA.AperFunction,SMDPad,CuDef*%
%ADD12RoundRect,0.150000X-0.256326X-0.468458X0.468458X0.256326X0.256326X0.468458X-0.468458X-0.256326X0*%
%TD*%
%TA.AperFunction,Conductor*%
%ADD13C,0.200000*%
%TD*%
G04 APERTURE END LIST*
D10*
%TO.P,J1,1,Pin_1*%
%TO.N,Net-(J1-Pin_1)*%
X105000000Y-105000000D03*
D11*
%TO.P,J1,2,Pin_2*%
%TO.N,GND*%
X103882771Y-106117229D03*
X106117229Y-103882771D03*
%TD*%
D12*
%TO.P,U1,1,DQ*%
%TO.N,Net-(J1-Pin_1)*%
X105423915Y-107132583D03*
%TO.P,U1,2,NC*%
%TO.N,unconnected-(U1-NC-Pad2)*%
X106767417Y-108476085D03*
%TO.P,U1,3,GND*%
%TO.N,GND*%
X107704334Y-106195666D03*
%TD*%
D13*
%TO.N,Net-(J1-Pin_1)*%
X105423915Y-105423915D02*
X105000000Y-105000000D01*
X105423915Y-107132583D02*
X105423915Y-105423915D01*
%TO.N,GND*%
X107704334Y-106195666D02*
X107704334Y-105469876D01*
X107704334Y-105469876D02*
X106117229Y-103882771D01*
%TD*%
%TA.AperFunction,Conductor*%
%TO.N,GND*%
G36*
X103842539Y-101120185D02*
G01*
X103888294Y-101172989D01*
X103899500Y-101224500D01*
X103899500Y-101371963D01*
X103907190Y-101398154D01*
X103910947Y-101415423D01*
X103914835Y-101442455D01*
X103914835Y-101442457D01*
X103926173Y-101467283D01*
X103932355Y-101483858D01*
X103940047Y-101510053D01*
X103954801Y-101533012D01*
X103954806Y-101533019D01*
X103963282Y-101548541D01*
X103974623Y-101573373D01*
X103986437Y-101587007D01*
X103992496Y-101594000D01*
X104003095Y-101608160D01*
X104017853Y-101631123D01*
X104017857Y-101631128D01*
X104038488Y-101649006D01*
X104050992Y-101661510D01*
X104068870Y-101682141D01*
X104068872Y-101682143D01*
X104091844Y-101696905D01*
X104105996Y-101707500D01*
X104126627Y-101725377D01*
X104149899Y-101736005D01*
X104151451Y-101736714D01*
X104166978Y-101745192D01*
X104189947Y-101759953D01*
X104216136Y-101767643D01*
X104232713Y-101773826D01*
X104257538Y-101785163D01*
X104257539Y-101785163D01*
X104257543Y-101785165D01*
X104284564Y-101789050D01*
X104301846Y-101792809D01*
X104328039Y-101800500D01*
X105671960Y-101800500D01*
X105671961Y-101800500D01*
X105698153Y-101792809D01*
X105715436Y-101789050D01*
X105719882Y-101788410D01*
X105742457Y-101785165D01*
X105767287Y-101773824D01*
X105783862Y-101767642D01*
X105810053Y-101759953D01*
X105833020Y-101745192D01*
X105848540Y-101736717D01*
X105873373Y-101725377D01*
X105894006Y-101707497D01*
X105908148Y-101696910D01*
X105931128Y-101682143D01*
X105949015Y-101661499D01*
X105961499Y-101649015D01*
X105982143Y-101631128D01*
X105996910Y-101608148D01*
X106007497Y-101594006D01*
X106025377Y-101573373D01*
X106036717Y-101548540D01*
X106045193Y-101533019D01*
X106059953Y-101510053D01*
X106067644Y-101483858D01*
X106073824Y-101467287D01*
X106085165Y-101442457D01*
X106089050Y-101415435D01*
X106092809Y-101398153D01*
X106100500Y-101371961D01*
X106100500Y-101228039D01*
X106100500Y-101224500D01*
X106120185Y-101157461D01*
X106172989Y-101111706D01*
X106224500Y-101100500D01*
X106563824Y-101100500D01*
X106630863Y-101120185D01*
X106651505Y-101136819D01*
X107281140Y-101766454D01*
X107314625Y-101827777D01*
X107309641Y-101897469D01*
X107271715Y-101950322D01*
X107231892Y-101982720D01*
X107231890Y-101982722D01*
X107144623Y-102106352D01*
X107144621Y-102106355D01*
X107093946Y-102248939D01*
X107093946Y-102248942D01*
X107083619Y-102399918D01*
X107083619Y-102399921D01*
X107114405Y-102548078D01*
X107114407Y-102548083D01*
X107114408Y-102548085D01*
X107184029Y-102682447D01*
X107184031Y-102682449D01*
X107184032Y-102682451D01*
X107287318Y-102793043D01*
X107315276Y-102810044D01*
X107416618Y-102871672D01*
X107562335Y-102912500D01*
X107562336Y-102912500D01*
X107675659Y-102912500D01*
X107703723Y-102908642D01*
X107787920Y-102897070D01*
X107898803Y-102848906D01*
X107926716Y-102836782D01*
X107926716Y-102836781D01*
X107926720Y-102836780D01*
X108044108Y-102741278D01*
X108045432Y-102739403D01*
X108046880Y-102737352D01*
X108101622Y-102693934D01*
X108171147Y-102687005D01*
X108233382Y-102718764D01*
X108235865Y-102721179D01*
X108863181Y-103348495D01*
X108896666Y-103409818D01*
X108899500Y-103436176D01*
X108899500Y-103775500D01*
X108879815Y-103842539D01*
X108827011Y-103888294D01*
X108775500Y-103899500D01*
X108771961Y-103899500D01*
X108628039Y-103899500D01*
X108628036Y-103899500D01*
X108628034Y-103899501D01*
X108601842Y-103907190D01*
X108584568Y-103910948D01*
X108557544Y-103914834D01*
X108557541Y-103914835D01*
X108532710Y-103926175D01*
X108516141Y-103932355D01*
X108503171Y-103936163D01*
X108489947Y-103940047D01*
X108489945Y-103940047D01*
X108489945Y-103940048D01*
X108466982Y-103954805D01*
X108451461Y-103963280D01*
X108426628Y-103974621D01*
X108426625Y-103974623D01*
X108406000Y-103992495D01*
X108391840Y-104003095D01*
X108368876Y-104017853D01*
X108368871Y-104017857D01*
X108350993Y-104038489D01*
X108338489Y-104050993D01*
X108317857Y-104068871D01*
X108317853Y-104068876D01*
X108303095Y-104091840D01*
X108292495Y-104106000D01*
X108274623Y-104126625D01*
X108274621Y-104126628D01*
X108263280Y-104151461D01*
X108254805Y-104166982D01*
X108240048Y-104189945D01*
X108232355Y-104216141D01*
X108226175Y-104232710D01*
X108214835Y-104257541D01*
X108214834Y-104257544D01*
X108210948Y-104284568D01*
X108207190Y-104301842D01*
X108199501Y-104328034D01*
X108199500Y-104328042D01*
X108199500Y-104957588D01*
X108179815Y-105024627D01*
X108127011Y-105070382D01*
X108057853Y-105080326D01*
X108044666Y-105077693D01*
X108042780Y-105077209D01*
X108042773Y-105077208D01*
X107878538Y-105077208D01*
X107719484Y-105118047D01*
X107719475Y-105118050D01*
X107575564Y-105197167D01*
X107575557Y-105197171D01*
X107547463Y-105221166D01*
X107547449Y-105221179D01*
X106729847Y-106038781D01*
X106729834Y-106038795D01*
X106705839Y-106066889D01*
X106705834Y-106066896D01*
X106636396Y-106193204D01*
X106586849Y-106242468D01*
X106518534Y-106257124D01*
X106453140Y-106232520D01*
X106440053Y-106221147D01*
X106260734Y-106041828D01*
X106227249Y-105980505D01*
X106224415Y-105954147D01*
X106224415Y-105814797D01*
X106244100Y-105747758D01*
X106244526Y-105747098D01*
X106280049Y-105692728D01*
X106376610Y-105472591D01*
X106435620Y-105239563D01*
X106435621Y-105239543D01*
X106435733Y-105238880D01*
X106435858Y-105238620D01*
X106436879Y-105234591D01*
X106437707Y-105234800D01*
X106466171Y-105175988D01*
X106525779Y-105139537D01*
X106538650Y-105136791D01*
X106705001Y-105110445D01*
X106881627Y-105042643D01*
X106907042Y-105026137D01*
X106368338Y-104487433D01*
X106344593Y-104452680D01*
X106373237Y-104471819D01*
X106470782Y-104491222D01*
X106568327Y-104471819D01*
X106651022Y-104416564D01*
X106706277Y-104333869D01*
X106725680Y-104236324D01*
X106706277Y-104138779D01*
X106664973Y-104076963D01*
X107260595Y-104672585D01*
X107260595Y-104672584D01*
X107277103Y-104647165D01*
X107344903Y-104470544D01*
X107344904Y-104470540D01*
X107374498Y-104283687D01*
X107364598Y-104094757D01*
X107364597Y-104094756D01*
X107315632Y-103912017D01*
X107229745Y-103743451D01*
X107140531Y-103633282D01*
X107140524Y-103633274D01*
X106366725Y-102859475D01*
X106366717Y-102859468D01*
X106256548Y-102770254D01*
X106087981Y-102684367D01*
X105905246Y-102635403D01*
X105905239Y-102635402D01*
X105716315Y-102625502D01*
X105529454Y-102655096D01*
X105352833Y-102722896D01*
X105352828Y-102722898D01*
X105327415Y-102739402D01*
X105327415Y-102739403D01*
X105923041Y-103335030D01*
X105861221Y-103293723D01*
X105763676Y-103274320D01*
X105666131Y-103293723D01*
X105583436Y-103348978D01*
X105528181Y-103431673D01*
X105508778Y-103529218D01*
X105528181Y-103626763D01*
X105543255Y-103649323D01*
X105508586Y-103627681D01*
X104973861Y-103092955D01*
X104957354Y-103118374D01*
X104889554Y-103294997D01*
X104889553Y-103295000D01*
X104862387Y-103466526D01*
X104832458Y-103529661D01*
X104773146Y-103566592D01*
X104760325Y-103569437D01*
X104642699Y-103589066D01*
X104415347Y-103667116D01*
X104415342Y-103667118D01*
X104203930Y-103781529D01*
X104203924Y-103781533D01*
X104014242Y-103929169D01*
X104014239Y-103929172D01*
X103851430Y-104106029D01*
X103851427Y-104106033D01*
X103719951Y-104307270D01*
X103623389Y-104527410D01*
X103564379Y-104760438D01*
X103564262Y-104761144D01*
X103564134Y-104761407D01*
X103563121Y-104765409D01*
X103562297Y-104765200D01*
X103533811Y-104824029D01*
X103474197Y-104860468D01*
X103461350Y-104863207D01*
X103295002Y-104889552D01*
X103294998Y-104889553D01*
X103118375Y-104957354D01*
X103118370Y-104957356D01*
X103092957Y-104973860D01*
X103092957Y-104973861D01*
X103631659Y-105512564D01*
X103655406Y-105547319D01*
X103626763Y-105528181D01*
X103529218Y-105508778D01*
X103431673Y-105528181D01*
X103348978Y-105583436D01*
X103293723Y-105666131D01*
X103274320Y-105763676D01*
X103293723Y-105861221D01*
X103335029Y-105923039D01*
X102739403Y-105327413D01*
X102722896Y-105352832D01*
X102655096Y-105529455D01*
X102655095Y-105529459D01*
X102625502Y-105716309D01*
X102625501Y-105716312D01*
X102635402Y-105905239D01*
X102635403Y-105905246D01*
X102684367Y-106087981D01*
X102770254Y-106256548D01*
X102859468Y-106366717D01*
X102859475Y-106366725D01*
X103633274Y-107140524D01*
X103633282Y-107140531D01*
X103743451Y-107229745D01*
X103912018Y-107315632D01*
X104015372Y-107343326D01*
X104075033Y-107379691D01*
X104105562Y-107442538D01*
X104106552Y-107449694D01*
X104119943Y-107572820D01*
X104179012Y-107748131D01*
X104274385Y-107906642D01*
X104274389Y-107906647D01*
X104291611Y-107926374D01*
X104301769Y-107938010D01*
X104301774Y-107938015D01*
X104301784Y-107938026D01*
X104362089Y-107998331D01*
X104395574Y-108059654D01*
X104390590Y-108129346D01*
X104348718Y-108185279D01*
X104309326Y-108204994D01*
X104301833Y-108207193D01*
X104284568Y-108210948D01*
X104257544Y-108214834D01*
X104257541Y-108214835D01*
X104232710Y-108226175D01*
X104216141Y-108232355D01*
X104203171Y-108236163D01*
X104189947Y-108240047D01*
X104189945Y-108240047D01*
X104189945Y-108240048D01*
X104166982Y-108254805D01*
X104151461Y-108263280D01*
X104126628Y-108274621D01*
X104126625Y-108274623D01*
X104106000Y-108292495D01*
X104091840Y-108303095D01*
X104068876Y-108317853D01*
X104068871Y-108317857D01*
X104050993Y-108338489D01*
X104038489Y-108350993D01*
X104017857Y-108368871D01*
X104017853Y-108368876D01*
X104003095Y-108391840D01*
X103992495Y-108406000D01*
X103974623Y-108426625D01*
X103974621Y-108426628D01*
X103963280Y-108451461D01*
X103954805Y-108466982D01*
X103940048Y-108489945D01*
X103932355Y-108516141D01*
X103926175Y-108532710D01*
X103914835Y-108557541D01*
X103914834Y-108557544D01*
X103910948Y-108584568D01*
X103907190Y-108601842D01*
X103899501Y-108628034D01*
X103899500Y-108628042D01*
X103899500Y-108775500D01*
X103879815Y-108842539D01*
X103827011Y-108888294D01*
X103775500Y-108899500D01*
X103436176Y-108899500D01*
X103369137Y-108879815D01*
X103348495Y-108863181D01*
X102718859Y-108233545D01*
X102685374Y-108172222D01*
X102690358Y-108102530D01*
X102728285Y-108049676D01*
X102768108Y-108017278D01*
X102855377Y-107893647D01*
X102906054Y-107751056D01*
X102916381Y-107600079D01*
X102914018Y-107588709D01*
X102885594Y-107451921D01*
X102885592Y-107451918D01*
X102885592Y-107451915D01*
X102815971Y-107317553D01*
X102815967Y-107317549D01*
X102815967Y-107317548D01*
X102712681Y-107206956D01*
X102597218Y-107136742D01*
X102583382Y-107128328D01*
X102437665Y-107087500D01*
X102324342Y-107087500D01*
X102324341Y-107087500D01*
X102212082Y-107102929D01*
X102212079Y-107102930D01*
X102073283Y-107163217D01*
X101955889Y-107258724D01*
X101953120Y-107262648D01*
X101898378Y-107306066D01*
X101828853Y-107312995D01*
X101766618Y-107281236D01*
X101764135Y-107278821D01*
X101136819Y-106651505D01*
X101103334Y-106590182D01*
X101100500Y-106563824D01*
X101100500Y-106224500D01*
X101120185Y-106157461D01*
X101172989Y-106111706D01*
X101224500Y-106100500D01*
X101371960Y-106100500D01*
X101371961Y-106100500D01*
X101398153Y-106092809D01*
X101415436Y-106089050D01*
X101422871Y-106087981D01*
X101442457Y-106085165D01*
X101467287Y-106073824D01*
X101483862Y-106067642D01*
X101510053Y-106059953D01*
X101533020Y-106045192D01*
X101548540Y-106036717D01*
X101573373Y-106025377D01*
X101594006Y-106007497D01*
X101608148Y-105996910D01*
X101631128Y-105982143D01*
X101649015Y-105961499D01*
X101661499Y-105949015D01*
X101682143Y-105931128D01*
X101696910Y-105908148D01*
X101707497Y-105894006D01*
X101725377Y-105873373D01*
X101736717Y-105848540D01*
X101745192Y-105833020D01*
X101759953Y-105810053D01*
X101767642Y-105783862D01*
X101773824Y-105767287D01*
X101785165Y-105742457D01*
X101789050Y-105715436D01*
X101792809Y-105698153D01*
X101800500Y-105671961D01*
X101800500Y-105528039D01*
X101800500Y-104364201D01*
X101800500Y-104328039D01*
X101792808Y-104301842D01*
X101789050Y-104284564D01*
X101785165Y-104257546D01*
X101785165Y-104257544D01*
X101785165Y-104257543D01*
X101785163Y-104257538D01*
X101773826Y-104232713D01*
X101767643Y-104216136D01*
X101759953Y-104189948D01*
X101759953Y-104189946D01*
X101745192Y-104166978D01*
X101736714Y-104151451D01*
X101736005Y-104149899D01*
X101725377Y-104126627D01*
X101707500Y-104105996D01*
X101696903Y-104091840D01*
X101682143Y-104068872D01*
X101682142Y-104068871D01*
X101661510Y-104050992D01*
X101649006Y-104038488D01*
X101631128Y-104017857D01*
X101631123Y-104017853D01*
X101608160Y-104003095D01*
X101594000Y-103992496D01*
X101587007Y-103986437D01*
X101573373Y-103974623D01*
X101548541Y-103963282D01*
X101533019Y-103954806D01*
X101533017Y-103954805D01*
X101510053Y-103940047D01*
X101510051Y-103940046D01*
X101483858Y-103932355D01*
X101467288Y-103926174D01*
X101442457Y-103914835D01*
X101415423Y-103910947D01*
X101398154Y-103907190D01*
X101371963Y-103899500D01*
X101371961Y-103899500D01*
X101335799Y-103899500D01*
X101224500Y-103899500D01*
X101157461Y-103879815D01*
X101111706Y-103827011D01*
X101100500Y-103775500D01*
X101100500Y-103436175D01*
X101120185Y-103369136D01*
X101136815Y-103348498D01*
X101766518Y-102718794D01*
X101827839Y-102685311D01*
X101897530Y-102690295D01*
X101944820Y-102721840D01*
X102011320Y-102793044D01*
X102140618Y-102871672D01*
X102286335Y-102912500D01*
X102286336Y-102912500D01*
X102399659Y-102912500D01*
X102427723Y-102908642D01*
X102511920Y-102897070D01*
X102622803Y-102848906D01*
X102650716Y-102836782D01*
X102650716Y-102836781D01*
X102650720Y-102836780D01*
X102768108Y-102741278D01*
X102855377Y-102617647D01*
X102862255Y-102598293D01*
X102906053Y-102475060D01*
X102906053Y-102475058D01*
X102906054Y-102475056D01*
X102916381Y-102324079D01*
X102900768Y-102248944D01*
X102885594Y-102175921D01*
X102885592Y-102175918D01*
X102885592Y-102175915D01*
X102815971Y-102041553D01*
X102815967Y-102041549D01*
X102815967Y-102041548D01*
X102758362Y-101979869D01*
X102718016Y-101936669D01*
X102686645Y-101874241D01*
X102694005Y-101804760D01*
X102720956Y-101764356D01*
X103348495Y-101136819D01*
X103409818Y-101103334D01*
X103436176Y-101100500D01*
X103775500Y-101100500D01*
X103842539Y-101120185D01*
G37*
%TD.AperFunction*%
%TD*%
M02*
