%TF.GenerationSoftware,KiCad,Pcbnew,7.0.11+dfsg-1build4*%
%TF.CreationDate,2026-03-16T12:03:46-05:00*%
%TF.ProjectId,friendly-board-game-tile-piece,66726965-6e64-46c7-992d-626f6172642d,rev?*%
%TF.SameCoordinates,Original*%
%TF.FileFunction,Legend,Top*%
%TF.FilePolarity,Positive*%
%FSLAX46Y46*%
G04 Gerber Fmt 4.6, Leading zero omitted, Abs format (unit mm)*
G04 Created by KiCad (PCBNEW 7.0.11+dfsg-1build4) date 2026-03-16 12:03:46*
%MOMM*%
%LPD*%
G01*
G04 APERTURE LIST*
%ADD10C,0.150000*%
%ADD11C,0.100000*%
%ADD12C,0.120000*%
G04 APERTURE END LIST*
D10*
X101466942Y-106181934D02*
X101062881Y-106585995D01*
X101062881Y-106585995D02*
X100955131Y-106639870D01*
X100955131Y-106639870D02*
X100847382Y-106639870D01*
X100847382Y-106639870D02*
X100739632Y-106585995D01*
X100739632Y-106585995D02*
X100685757Y-106532120D01*
X101466942Y-107313305D02*
X101143693Y-106990056D01*
X101305318Y-107151680D02*
X101871003Y-106585995D01*
X101871003Y-106585995D02*
X101736316Y-106612932D01*
X101736316Y-106612932D02*
X101628566Y-106612932D01*
X101628566Y-106612932D02*
X101547754Y-106585995D01*
X108336505Y-102637497D02*
X107878569Y-103095433D01*
X107878569Y-103095433D02*
X107851632Y-103176245D01*
X107851632Y-103176245D02*
X107851632Y-103230120D01*
X107851632Y-103230120D02*
X107878569Y-103310932D01*
X107878569Y-103310932D02*
X107986319Y-103418682D01*
X107986319Y-103418682D02*
X108067131Y-103445619D01*
X108067131Y-103445619D02*
X108121006Y-103445619D01*
X108121006Y-103445619D02*
X108201818Y-103418682D01*
X108201818Y-103418682D02*
X108659754Y-102960746D01*
X108659754Y-104092117D02*
X108336505Y-103768868D01*
X108498129Y-103930492D02*
X109063815Y-103364807D01*
X109063815Y-103364807D02*
X108929128Y-103391744D01*
X108929128Y-103391744D02*
X108821378Y-103391744D01*
X108821378Y-103391744D02*
X108740566Y-103364807D01*
D11*
%TO.C,J1*%
X108120000Y-105000000D02*
G75*
G03*
X101880000Y-105000000I-3120000J0D01*
G01*
X101880000Y-105000000D02*
G75*
G03*
X108120000Y-105000000I3120000J0D01*
G01*
D12*
%TO.C,U1*%
X105796913Y-105896913D02*
X105231228Y-106462599D01*
X105796913Y-105896913D02*
X106362599Y-105331228D01*
X108003087Y-108103087D02*
X107437401Y-108668772D01*
X108003087Y-108103087D02*
X108568772Y-107537401D01*
X104913030Y-106851508D02*
X104509979Y-106787868D01*
X104849390Y-106448457D01*
X104913030Y-106851508D01*
G36*
X104913030Y-106851508D02*
G01*
X104509979Y-106787868D01*
X104849390Y-106448457D01*
X104913030Y-106851508D01*
G37*
%TD*%
M02*
