%TF.GenerationSoftware,KiCad,Pcbnew,7.0.11+dfsg-1build4*%
%TF.CreationDate,2026-03-16T12:03:46-05:00*%
%TF.ProjectId,friendly-board-game-tile-piece,66726965-6e64-46c7-992d-626f6172642d,rev?*%
%TF.SameCoordinates,Original*%
%TF.FileFunction,Profile,NP*%
%FSLAX46Y46*%
G04 Gerber Fmt 4.6, Leading zero omitted, Abs format (unit mm)*
G04 Created by KiCad (PCBNEW 7.0.11+dfsg-1build4) date 2026-03-16 12:03:46*
%MOMM*%
%LPD*%
G01*
G04 APERTURE LIST*
%TA.AperFunction,Profile*%
%ADD10C,0.050000*%
%TD*%
G04 APERTURE END LIST*
D10*
X100600000Y-106822500D02*
X103177500Y-109400000D01*
X105600000Y-109400000D02*
X105600000Y-108700000D01*
X100600000Y-104400000D02*
X101300000Y-104400000D01*
X104400000Y-109400000D02*
X104400000Y-108700000D01*
X104400000Y-108700000D02*
X105600000Y-108700000D01*
X103177500Y-109400000D02*
X104400000Y-109400000D01*
X106822500Y-100600000D02*
X109400000Y-103177500D01*
X100600000Y-103177500D02*
X103177500Y-100600000D01*
X109400000Y-105600000D02*
X109400000Y-106822500D01*
X108700000Y-104400000D02*
X108700000Y-105600000D01*
X105600000Y-100600000D02*
X106822500Y-100600000D01*
X105600000Y-100600000D02*
X105600000Y-101300000D01*
X104400000Y-100600000D02*
X104400000Y-101300000D01*
X109400000Y-106822500D02*
X106822500Y-109400000D01*
X100600000Y-105600000D02*
X100600000Y-106822500D01*
X105600000Y-109400000D02*
X106822500Y-109400000D01*
X101300000Y-104400000D02*
X101300000Y-105600000D01*
X109400000Y-103177500D02*
X109400000Y-104400000D01*
X103177500Y-100600000D02*
X104400000Y-100600000D01*
X100600000Y-103177500D02*
X100600000Y-104400000D01*
X104400000Y-101300000D02*
X105600000Y-101300000D01*
X108700000Y-104400000D02*
X109400000Y-104400000D01*
X108700000Y-105600000D02*
X109400000Y-105600000D01*
X100600000Y-105600000D02*
X101300000Y-105600000D01*
M02*
